<?xml version="1.0" encoding="UTF-8"?><svg id="Calque_1" xmlns="http://www.w3.org/2000/svg" xmlns:xlink="http://www.w3.org/1999/xlink" viewBox="0 0 850.39 850.39"><defs><style>.cls-1{fill:url(#Dégradé_sans_nom_2);}.cls-2{fill:url(#Dégradé_sans_nom_2-84);}.cls-3{fill:url(#Dégradé_sans_nom_2-85);}.cls-4{fill:url(#Dégradé_sans_nom_2-81);}.cls-5{fill:url(#Dégradé_sans_nom_2-80);}.cls-6{fill:url(#Dégradé_sans_nom_2-83);}.cls-7{fill:url(#Dégradé_sans_nom_2-82);}.cls-8{fill:url(#Dégradé_sans_nom_2-66);}.cls-9{fill:url(#Dégradé_sans_nom_2-67);}.cls-10{fill:url(#Dégradé_sans_nom_2-64);}.cls-11{fill:url(#Dégradé_sans_nom_2-65);}.cls-12{fill:url(#Dégradé_sans_nom_2-68);}.cls-13{fill:url(#Dégradé_sans_nom_2-69);}.cls-14{fill:url(#Dégradé_sans_nom_2-16);}.cls-15{fill:url(#Dégradé_sans_nom_2-15);}.cls-16{fill:url(#Dégradé_sans_nom_2-14);}.cls-17{fill:url(#Dégradé_sans_nom_2-13);}.cls-18{fill:url(#Dégradé_sans_nom_2-19);}.cls-19{fill:url(#Dégradé_sans_nom_2-48);}.cls-20{fill:url(#Dégradé_sans_nom_2-49);}.cls-21{fill:url(#Dégradé_sans_nom_2-42);}.cls-22{fill:url(#Dégradé_sans_nom_2-43);}.cls-23{fill:url(#Dégradé_sans_nom_2-46);}.cls-24{fill:url(#Dégradé_sans_nom_2-47);}.cls-25{fill:url(#Dégradé_sans_nom_2-12);}.cls-26{fill:url(#Dégradé_sans_nom_2-11);}.cls-27{fill:url(#Dégradé_sans_nom_2-10);}.cls-28{fill:url(#Dégradé_sans_nom_2-18);}.cls-29{fill:url(#Dégradé_sans_nom_2-17);}.cls-30{fill:url(#Dégradé_sans_nom_2-60);}.cls-31{fill:url(#Dégradé_sans_nom_2-61);}.cls-32{fill:url(#Dégradé_sans_nom_2-62);}.cls-33{fill:url(#Dégradé_sans_nom_2-63);}.cls-34{fill:url(#Dégradé_sans_nom_2-70);}.cls-35{fill:url(#Dégradé_sans_nom_2-71);}.cls-36{fill:url(#Dégradé_sans_nom_2-40);}.cls-37{fill:url(#Dégradé_sans_nom_2-41);}.cls-38{fill:url(#Dégradé_sans_nom_2-78);}.cls-39{fill:url(#Dégradé_sans_nom_2-73);}.cls-40{fill:url(#Dégradé_sans_nom_2-72);}.cls-41{fill:url(#Dégradé_sans_nom_2-75);}.cls-42{fill:url(#Dégradé_sans_nom_2-74);}.cls-43{fill:url(#Dégradé_sans_nom_2-77);}.cls-44{fill:url(#Dégradé_sans_nom_2-76);}.cls-45{fill:url(#Dégradé_sans_nom_2-79);}.cls-46{fill:url(#Dégradé_sans_nom_2-44);}.cls-47{fill:url(#Dégradé_sans_nom_2-45);}.cls-48{fill:url(#Dégradé_sans_nom_2-38);}.cls-49{fill:url(#Dégradé_sans_nom_2-37);}.cls-50{fill:url(#Dégradé_sans_nom_2-32);}.cls-51{fill:url(#Dégradé_sans_nom_2-31);}.cls-52{fill:url(#Dégradé_sans_nom_2-34);}.cls-53{fill:url(#Dégradé_sans_nom_2-39);}.cls-54{fill:url(#Dégradé_sans_nom_2-33);}.cls-55{fill:url(#Dégradé_sans_nom_2-36);}.cls-56{fill:url(#Dégradé_sans_nom_2-35);}.cls-57{fill:url(#Dégradé_sans_nom_2-30);}.cls-58{fill:url(#Dégradé_sans_nom_2-28);}.cls-59{fill:url(#Dégradé_sans_nom_2-21);}.cls-60{fill:url(#Dégradé_sans_nom_2-26);}.cls-61{fill:url(#Dégradé_sans_nom_2-27);}.cls-62{fill:url(#Dégradé_sans_nom_2-20);}.cls-63{fill:url(#Dégradé_sans_nom_2-25);}.cls-64{fill:url(#Dégradé_sans_nom_2-23);}.cls-65{fill:url(#Dégradé_sans_nom_2-22);}.cls-66{fill:url(#Dégradé_sans_nom_2-29);}.cls-67{fill:url(#Dégradé_sans_nom_2-24);}.cls-68{fill:url(#Dégradé_sans_nom_2-50);}.cls-69{fill:url(#Dégradé_sans_nom_2-56);}.cls-70{fill:url(#Dégradé_sans_nom_2-57);}.cls-71{fill:url(#Dégradé_sans_nom_2-52);}.cls-72{fill:url(#Dégradé_sans_nom_2-58);}.cls-73{fill:url(#Dégradé_sans_nom_2-51);}.cls-74{fill:url(#Dégradé_sans_nom_2-55);}.cls-75{fill:url(#Dégradé_sans_nom_2-53);}.cls-76{fill:url(#Dégradé_sans_nom_2-59);}.cls-77{fill:url(#Dégradé_sans_nom_2-54);}.cls-78{fill:url(#Dégradé_sans_nom_2-5);}.cls-79{fill:url(#Dégradé_sans_nom_2-8);}.cls-80{fill:url(#Dégradé_sans_nom_2-6);}.cls-81{fill:url(#Dégradé_sans_nom_2-4);}.cls-82{fill:url(#Dégradé_sans_nom_2-3);}.cls-83{fill:url(#Dégradé_sans_nom_2-2);}.cls-84{fill:url(#Dégradé_sans_nom_2-7);}.cls-85{fill:url(#Dégradé_sans_nom_2-9);}</style><linearGradient id="Dégradé_sans_nom_2" x1="-4.72" y1="233.86" x2="855.67" y2="233.86" gradientUnits="userSpaceOnUse"><stop offset="0" stop-color="#3ffadb"/><stop offset="1" stop-color="#e0b459"/></linearGradient><linearGradient id="Dégradé_sans_nom_2-2" y1="492.73" y2="492.73" xlink:href="#Dégradé_sans_nom_2"/><linearGradient id="Dégradé_sans_nom_2-3" y1="458.96" y2="458.96" xlink:href="#Dégradé_sans_nom_2"/><linearGradient id="Dégradé_sans_nom_2-4" y1="492.73" y2="492.73" xlink:href="#Dégradé_sans_nom_2"/><linearGradient id="Dégradé_sans_nom_2-5" y1="492.73" y2="492.73" xlink:href="#Dégradé_sans_nom_2"/><linearGradient id="Dégradé_sans_nom_2-6" y1="418.5" y2="418.5" xlink:href="#Dégradé_sans_nom_2"/><linearGradient id="Dégradé_sans_nom_2-7" y1="463.89" x2="855.67" y2="463.89" xlink:href="#Dégradé_sans_nom_2"/><linearGradient id="Dégradé_sans_nom_2-8" y1="462.5" x2="855.67" y2="462.5" xlink:href="#Dégradé_sans_nom_2"/><linearGradient id="Dégradé_sans_nom_2-9" y1="430.55" x2="855.67" y2="430.55" xlink:href="#Dégradé_sans_nom_2"/><linearGradient id="Dégradé_sans_nom_2-10" y1="485.37" y2="485.37" xlink:href="#Dégradé_sans_nom_2"/><linearGradient id="Dégradé_sans_nom_2-11" y1="478.59" y2="478.59" xlink:href="#Dégradé_sans_nom_2"/><linearGradient id="Dégradé_sans_nom_2-12" y1="481.23" y2="481.23" xlink:href="#Dégradé_sans_nom_2"/><linearGradient id="Dégradé_sans_nom_2-13" y1="478.13" y2="478.13" xlink:href="#Dégradé_sans_nom_2"/><linearGradient id="Dégradé_sans_nom_2-14" y1="418.96" y2="418.96" xlink:href="#Dégradé_sans_nom_2"/><linearGradient id="Dégradé_sans_nom_2-15" y1="417.15" y2="417.15" xlink:href="#Dégradé_sans_nom_2"/><linearGradient id="Dégradé_sans_nom_2-16" y1="411.88" y2="411.88" xlink:href="#Dégradé_sans_nom_2"/><linearGradient id="Dégradé_sans_nom_2-17" y1="464.46" x2="855.67" y2="464.46" xlink:href="#Dégradé_sans_nom_2"/><linearGradient id="Dégradé_sans_nom_2-18" y1="423.02" x2="855.67" y2="423.02" xlink:href="#Dégradé_sans_nom_2"/><linearGradient id="Dégradé_sans_nom_2-19" y1="462.3" y2="462.3" xlink:href="#Dégradé_sans_nom_2"/><linearGradient id="Dégradé_sans_nom_2-20" y1="440.16" y2="440.16" xlink:href="#Dégradé_sans_nom_2"/><linearGradient id="Dégradé_sans_nom_2-21" y1="438.31" y2="438.31" xlink:href="#Dégradé_sans_nom_2"/><linearGradient id="Dégradé_sans_nom_2-22" y1="480.03" y2="480.03" xlink:href="#Dégradé_sans_nom_2"/><linearGradient id="Dégradé_sans_nom_2-23" y1="488.43" y2="488.43" xlink:href="#Dégradé_sans_nom_2"/><linearGradient id="Dégradé_sans_nom_2-24" y1="593.67" x2="855.67" y2="593.67" xlink:href="#Dégradé_sans_nom_2"/><linearGradient id="Dégradé_sans_nom_2-25" y1="553.02" y2="553.02" xlink:href="#Dégradé_sans_nom_2"/><linearGradient id="Dégradé_sans_nom_2-26" y1="593.67" x2="855.67" y2="593.67" xlink:href="#Dégradé_sans_nom_2"/><linearGradient id="Dégradé_sans_nom_2-27" y1="553.02" y2="553.02" xlink:href="#Dégradé_sans_nom_2"/><linearGradient id="Dégradé_sans_nom_2-28" y1="526.71" y2="526.71" xlink:href="#Dégradé_sans_nom_2"/><linearGradient id="Dégradé_sans_nom_2-29" y1="503.01" x2="855.67" y2="503.01" xlink:href="#Dégradé_sans_nom_2"/><linearGradient id="Dégradé_sans_nom_2-30" y1="506.22" y2="506.22" xlink:href="#Dégradé_sans_nom_2"/><linearGradient id="Dégradé_sans_nom_2-31" y1="513.22" y2="513.22" xlink:href="#Dégradé_sans_nom_2"/><linearGradient id="Dégradé_sans_nom_2-32" y1="500.56" x2="855.67" y2="500.56" xlink:href="#Dégradé_sans_nom_2"/><linearGradient id="Dégradé_sans_nom_2-33" y1="502.17" x2="855.67" y2="502.17" xlink:href="#Dégradé_sans_nom_2"/><linearGradient id="Dégradé_sans_nom_2-34" y1="498.89" y2="498.89" xlink:href="#Dégradé_sans_nom_2"/><linearGradient id="Dégradé_sans_nom_2-35" y1="507.2" y2="507.2" xlink:href="#Dégradé_sans_nom_2"/><linearGradient id="Dégradé_sans_nom_2-36" y1="532.76" y2="532.76" xlink:href="#Dégradé_sans_nom_2"/><linearGradient id="Dégradé_sans_nom_2-37" y1="536.46" y2="536.46" xlink:href="#Dégradé_sans_nom_2"/><linearGradient id="Dégradé_sans_nom_2-38" y1="534.58" y2="534.58" xlink:href="#Dégradé_sans_nom_2"/><linearGradient id="Dégradé_sans_nom_2-39" y1="523.64" y2="523.64" xlink:href="#Dégradé_sans_nom_2"/><linearGradient id="Dégradé_sans_nom_2-40" y1="525.27" y2="525.27" xlink:href="#Dégradé_sans_nom_2"/><linearGradient id="Dégradé_sans_nom_2-41" y1="523.51" y2="523.51" xlink:href="#Dégradé_sans_nom_2"/><linearGradient id="Dégradé_sans_nom_2-42" y1="531.8" y2="531.8" xlink:href="#Dégradé_sans_nom_2"/><linearGradient id="Dégradé_sans_nom_2-43" y1="531.62" y2="531.62" xlink:href="#Dégradé_sans_nom_2"/><linearGradient id="Dégradé_sans_nom_2-44" y1="517.74" y2="517.74" xlink:href="#Dégradé_sans_nom_2"/><linearGradient id="Dégradé_sans_nom_2-45" y1="515.13" y2="515.13" xlink:href="#Dégradé_sans_nom_2"/><linearGradient id="Dégradé_sans_nom_2-46" y1="526.71" y2="526.71" xlink:href="#Dégradé_sans_nom_2"/><linearGradient id="Dégradé_sans_nom_2-47" y1="503.01" y2="503.01" xlink:href="#Dégradé_sans_nom_2"/><linearGradient id="Dégradé_sans_nom_2-48" y1="506.22" y2="506.22" xlink:href="#Dégradé_sans_nom_2"/><linearGradient id="Dégradé_sans_nom_2-49" y1="513.22" y2="513.22" xlink:href="#Dégradé_sans_nom_2"/><linearGradient id="Dégradé_sans_nom_2-50" y1="500.56" x2="855.67" y2="500.56" xlink:href="#Dégradé_sans_nom_2"/><linearGradient id="Dégradé_sans_nom_2-51" y1="502.17" y2="502.17" xlink:href="#Dégradé_sans_nom_2"/><linearGradient id="Dégradé_sans_nom_2-52" y1="498.89" y2="498.89" xlink:href="#Dégradé_sans_nom_2"/><linearGradient id="Dégradé_sans_nom_2-53" y1="507.2" x2="855.67" y2="507.2" xlink:href="#Dégradé_sans_nom_2"/><linearGradient id="Dégradé_sans_nom_2-54" y1="532.76" y2="532.76" xlink:href="#Dégradé_sans_nom_2"/><linearGradient id="Dégradé_sans_nom_2-55" y1="536.46" y2="536.46" xlink:href="#Dégradé_sans_nom_2"/><linearGradient id="Dégradé_sans_nom_2-56" y1="534.58" y2="534.58" xlink:href="#Dégradé_sans_nom_2"/><linearGradient id="Dégradé_sans_nom_2-57" y1="523.64" y2="523.64" xlink:href="#Dégradé_sans_nom_2"/><linearGradient id="Dégradé_sans_nom_2-58" y1="525.27" y2="525.27" xlink:href="#Dégradé_sans_nom_2"/><linearGradient id="Dégradé_sans_nom_2-59" y1="523.51" y2="523.51" xlink:href="#Dégradé_sans_nom_2"/><linearGradient id="Dégradé_sans_nom_2-60" y1="531.8" y2="531.8" xlink:href="#Dégradé_sans_nom_2"/><linearGradient id="Dégradé_sans_nom_2-61" y1="531.62" y2="531.62" xlink:href="#Dégradé_sans_nom_2"/><linearGradient id="Dégradé_sans_nom_2-62" y1="517.74" y2="517.74" xlink:href="#Dégradé_sans_nom_2"/><linearGradient id="Dégradé_sans_nom_2-63" y1="515.13" y2="515.13" xlink:href="#Dégradé_sans_nom_2"/><linearGradient id="Dégradé_sans_nom_2-64" y1="418.5" y2="418.5" xlink:href="#Dégradé_sans_nom_2"/><linearGradient id="Dégradé_sans_nom_2-65" y1="463.89" y2="463.89" xlink:href="#Dégradé_sans_nom_2"/><linearGradient id="Dégradé_sans_nom_2-66" y1="462.5" x2="855.67" y2="462.5" xlink:href="#Dégradé_sans_nom_2"/><linearGradient id="Dégradé_sans_nom_2-67" y1="430.55" x2="855.67" y2="430.55" xlink:href="#Dégradé_sans_nom_2"/><linearGradient id="Dégradé_sans_nom_2-68" y1="485.37" y2="485.37" xlink:href="#Dégradé_sans_nom_2"/><linearGradient id="Dégradé_sans_nom_2-69" y1="478.59" y2="478.59" xlink:href="#Dégradé_sans_nom_2"/><linearGradient id="Dégradé_sans_nom_2-70" y1="481.23" y2="481.23" xlink:href="#Dégradé_sans_nom_2"/><linearGradient id="Dégradé_sans_nom_2-71" y1="478.13" y2="478.13" xlink:href="#Dégradé_sans_nom_2"/><linearGradient id="Dégradé_sans_nom_2-72" y1="418.96" y2="418.96" xlink:href="#Dégradé_sans_nom_2"/><linearGradient id="Dégradé_sans_nom_2-73" y1="417.15" y2="417.15" xlink:href="#Dégradé_sans_nom_2"/><linearGradient id="Dégradé_sans_nom_2-74" y1="411.88" y2="411.88" xlink:href="#Dégradé_sans_nom_2"/><linearGradient id="Dégradé_sans_nom_2-75" y1="464.46" y2="464.46" xlink:href="#Dégradé_sans_nom_2"/><linearGradient id="Dégradé_sans_nom_2-76" y1="423.02" x2="855.67" y2="423.02" xlink:href="#Dégradé_sans_nom_2"/><linearGradient id="Dégradé_sans_nom_2-77" y1="462.3" y2="462.3" xlink:href="#Dégradé_sans_nom_2"/><linearGradient id="Dégradé_sans_nom_2-78" y1="440.16" x2="855.67" y2="440.16" xlink:href="#Dégradé_sans_nom_2"/><linearGradient id="Dégradé_sans_nom_2-79" y1="438.31" x2="855.67" y2="438.31" xlink:href="#Dégradé_sans_nom_2"/><linearGradient id="Dégradé_sans_nom_2-80" y1="480.03" y2="480.03" xlink:href="#Dégradé_sans_nom_2"/><linearGradient id="Dégradé_sans_nom_2-81" y1="488.43" x2="855.67" y2="488.43" xlink:href="#Dégradé_sans_nom_2"/><linearGradient id="Dégradé_sans_nom_2-82" y1="381.37" y2="381.37" xlink:href="#Dégradé_sans_nom_2"/><linearGradient id="Dégradé_sans_nom_2-83" y1="381.37" x2="855.67" y2="381.37" xlink:href="#Dégradé_sans_nom_2"/><linearGradient id="Dégradé_sans_nom_2-84" y1="310.82" y2="310.82" xlink:href="#Dégradé_sans_nom_2"/><linearGradient id="Dégradé_sans_nom_2-85" y1="310.82" y2="310.82" xlink:href="#Dégradé_sans_nom_2"/></defs><path class="cls-1" d="M762.85,397.06c-9.32,0-16.88-7.56-16.88-16.88V216.97H98.79c-40.34,0-73.16-32.82-73.16-73.16S58.45,70.65,98.79,70.65H762.85c9.32,0,16.88,7.56,16.88,16.88V380.18c0,9.32-7.56,16.88-16.88,16.88ZM98.79,104.42c-21.72,0-39.39,17.67-39.39,39.39s17.67,39.39,39.39,39.39H745.97V104.42H98.79Z"/><path class="cls-83" d="M582.77,509.61h-112.55c-9.32,0-16.88-7.56-16.88-16.88s7.56-16.88,16.88-16.88h112.55c9.32,0,16.88,7.56,16.88,16.88s-7.56,16.88-16.88,16.88Z"/><path class="cls-82" d="M762.85,779.74H128.35c-56.64,0-102.72-46.08-102.72-102.72V155.07c0-9.32,7.56-16.88,16.88-16.88s16.88,7.56,16.88,16.88V677.02c0,38.02,30.93,68.95,68.95,68.95H745.97v-163.2c0-9.32,7.56-16.88,16.88-16.88s16.88,7.56,16.88,16.88v180.09c0,9.32-7.56,16.88-16.88,16.88Z"/><path class="cls-81" d="M765.42,599.66h-92.93c-58.78,0-106.6-47.82-106.6-106.61v-.64c0-58.78,47.82-106.61,106.6-106.61h92.93c32.72,0,59.34,26.62,59.34,59.34v95.17c0,32.72-26.62,59.34-59.34,59.34Zm-92.93-180.09c-40.16,0-72.84,32.68-72.84,72.84v.64c0,40.16,32.68,72.84,72.84,72.84h92.93c14.1,0,25.57-11.47,25.57-25.58v-95.17c0-14.1-11.47-25.57-25.57-25.57h-92.93Z"/><path class="cls-78" d="M672.81,532.12c-9.32,0-16.88-7.56-16.88-16.88v-45.02c0-9.32,7.56-16.88,16.88-16.88s16.88,7.56,16.88,16.88v45.02c0,9.32-7.56,16.88-16.88,16.88Z"/><g><polygon class="cls-80" points="160.57 440.6 160.69 396.41 126.57 413.14 160.57 440.6"/><polygon class="cls-84" points="110.05 449.46 122.2 479.5 156.52 448.27 110.05 449.46"/><polygon class="cls-79" points="161.88 461.37 160.98 450.78 135.23 474.21 161.88 461.37"/><polygon class="cls-85" points="123 416.5 110.29 444.59 156.32 443.41 123 416.5"/><polygon class="cls-27" points="180.96 476.55 166.12 494.18 184.71 488.63 180.96 476.55"/><polygon class="cls-26" points="166.35 466.5 162.71 490.69 178.12 472.38 166.35 466.5"/><polygon class="cls-25" points="127.27 483.45 157.08 495.44 161.36 467.01 127.27 483.45"/><polygon class="cls-17" points="185.12 473.55 188.53 484.54 196.75 471.71 185.12 473.55"/><polygon class="cls-16" points="202.25 432.49 203.14 405.43 183.68 431.16 202.25 432.49"/><polygon class="cls-15" points="208.09 402.63 207.14 431.67 234.34 422.48 208.09 402.63"/><polygon class="cls-14" points="201.34 399.75 166.87 395.42 179.73 428.34 201.34 399.75"/><polygon class="cls-29" points="240.35 470.73 257.74 470.73 255.16 458.19 240.35 470.73"/><polygon class="cls-28" points="165.52 405.32 165.43 440.72 176.12 432.45 165.52 405.32"/><polygon class="cls-18" points="231.82 455.81 235.12 468.79 250.18 456.03 231.82 455.81"/><polygon class="cls-62" points="252.51 451.2 239.97 429.11 232.12 450.95 252.51 451.2"/><polygon class="cls-59" points="227.51 449.41 235.49 427.22 209.72 435.92 227.51 449.41"/><polygon class="cls-65" points="239.9 475.59 249.42 484.46 255.93 475.59 239.9 475.59"/><polygon class="cls-64" points="258.3 496.28 258.3 480.58 252.74 488.15 258.3 496.28"/><polygon class="cls-67" points="260.78 616.64 260.78 580.58 234.25 570.7 260.78 616.64"/><polygon class="cls-63" points="260.78 575.4 260.78 530.65 232.8 564.97 260.78 575.4"/><polygon class="cls-60" points="265.64 580.58 265.64 616.64 292.17 570.7 265.64 580.58"/><polygon class="cls-61" points="265.64 530.65 265.64 575.4 293.63 564.97 265.64 530.65"/><polygon class="cls-58" points="186.09 522.85 196.68 535.48 204.4 517.94 186.09 522.85"/><polygon class="cls-66" points="204.01 512.17 195.93 493.85 185.89 503.58 204.01 512.17"/><polygon class="cls-57" points="209.21 508.55 202.45 500.6 207.4 511.84 209.21 508.55"/><polygon class="cls-51" points="184.72 506.61 184.82 519.83 202.57 515.07 184.72 506.61"/><polygon class="cls-50" points="221.15 504.63 224.21 501.13 218.79 496.5 221.15 504.63"/><polygon class="cls-54" points="215.77 497.7 213.32 506.64 218.29 506.4 215.77 497.7"/><polygon class="cls-52" points="213.62 493.29 200.09 492.82 210.41 504.97 213.62 493.29"/><polygon class="cls-56" points="225.43 504.65 222.87 507.58 226.21 509.74 225.43 504.65"/><polygon class="cls-55" points="214.07 526.48 217.01 539.05 221.08 529 214.07 526.48"/><polygon class="cls-49" points="223.84 530.82 219.27 542.1 232.69 538.95 223.84 530.82"/><polygon class="cls-48" points="200.18 537.75 214.38 542.03 210.89 527.13 200.18 537.75"/><polygon class="cls-53" points="249.59 526.84 252.31 523.02 246.49 520.44 249.59 526.84"/><polygon class="cls-36" points="209.81 523.65 207.39 519.18 202.03 531.36 209.81 523.65"/><polygon class="cls-37" points="239.7 524.12 245.97 526.81 242.78 520.21 239.7 524.12"/><polygon class="cls-21" points="237.91 536.43 246.09 530.38 238.58 527.16 237.91 536.43"/><polygon class="cls-22" points="234.66 536.37 235.35 526.86 226.56 528.93 234.66 536.37"/><polygon class="cls-46" points="251.72 515.91 247.53 517.36 252.52 519.57 251.72 515.91"/><polygon class="cls-47" points="257.12 513.08 254.74 514.56 255.31 517.17 257.12 513.08"/><polygon class="cls-23" points="329.75 535.48 340.34 522.85 322.03 517.94 329.75 535.48"/><polygon class="cls-24" points="330.49 493.85 322.42 512.17 340.54 503.58 330.49 493.85"/><polygon class="cls-19" points="317.22 508.55 319.02 511.84 323.98 500.6 317.22 508.55"/><polygon class="cls-20" points="341.61 519.83 341.71 506.61 323.86 515.07 341.61 519.83"/><polygon class="cls-68" points="307.64 496.5 302.22 501.13 305.28 504.63 307.64 496.5"/><polygon class="cls-73" points="310.66 497.7 308.13 506.4 313.11 506.64 310.66 497.7"/><polygon class="cls-71" points="326.34 492.82 312.81 493.29 316.01 504.97 326.34 492.82"/><polygon class="cls-75" points="300.21 509.74 303.56 507.58 301 504.65 300.21 509.74"/><polygon class="cls-77" points="305.35 529 309.41 539.05 312.36 526.48 305.35 529"/><polygon class="cls-74" points="293.74 538.95 307.15 542.1 302.59 530.82 293.74 538.95"/><polygon class="cls-69" points="312.04 542.03 326.24 537.75 315.53 527.13 312.04 542.03"/><polygon class="cls-70" points="279.94 520.44 274.11 523.02 276.84 526.84 279.94 520.44"/><polygon class="cls-72" points="324.39 531.36 319.03 519.18 316.62 523.65 324.39 531.36"/><polygon class="cls-76" points="280.46 526.81 286.72 524.12 283.65 520.21 280.46 526.81"/><polygon class="cls-30" points="288.52 536.43 287.85 527.16 280.34 530.38 288.52 536.43"/><polygon class="cls-31" points="299.87 528.93 291.07 526.86 291.76 536.37 299.87 528.93"/><polygon class="cls-32" points="274.71 515.91 273.91 519.57 278.9 517.36 274.71 515.91"/><polygon class="cls-33" points="271.69 514.56 269.3 513.08 271.12 517.17 271.69 514.56"/><polygon class="cls-10" points="399.86 413.14 365.74 396.41 365.86 440.6 399.86 413.14"/><polygon class="cls-11" points="369.9 448.27 404.22 479.5 416.38 449.46 369.9 448.27"/><polygon class="cls-8" points="365.44 450.78 364.54 461.37 391.19 474.21 365.44 450.78"/><polygon class="cls-9" points="416.13 444.59 403.43 416.5 370.11 443.41 416.13 444.59"/><polygon class="cls-12" points="360.31 494.18 345.47 476.55 341.72 488.63 360.31 494.18"/><polygon class="cls-13" points="348.31 472.38 363.72 490.69 360.08 466.5 348.31 472.38"/><polygon class="cls-34" points="369.35 495.44 399.16 483.45 365.07 467.01 369.35 495.44"/><polygon class="cls-35" points="329.68 471.71 337.9 484.54 341.31 473.55 329.68 471.71"/><polygon class="cls-40" points="342.75 431.16 323.29 405.43 324.18 432.49 342.75 431.16"/><polygon class="cls-39" points="319.29 431.67 318.34 402.63 292.08 422.48 319.29 431.67"/><polygon class="cls-42" points="325.09 399.75 346.7 428.34 359.55 395.42 325.09 399.75"/><polygon class="cls-41" points="271.27 458.19 268.68 470.73 286.08 470.73 271.27 458.19"/><polygon class="cls-44" points="361 440.72 360.9 405.32 350.31 432.45 361 440.72"/><polygon class="cls-43" points="276.25 456.03 291.31 468.79 294.61 455.81 276.25 456.03"/><polygon class="cls-38" points="286.46 429.11 273.92 451.2 294.3 450.95 286.46 429.11"/><polygon class="cls-45" points="290.94 427.22 298.91 449.41 316.71 435.92 290.94 427.22"/><polygon class="cls-5" points="270.5 475.59 277.01 484.46 286.53 475.59 270.5 475.59"/><polygon class="cls-4" points="268.13 480.58 268.13 496.28 273.69 488.15 268.13 480.58"/><polygon class="cls-7" points="260.78 441.5 260.78 334.79 217.23 321.23 260.78 441.5"/><polygon class="cls-6" points="265.64 334.79 265.64 441.5 309.2 321.23 265.64 334.79"/><path class="cls-2" d="M260.78,329.7v-37.76c-17.8,.74-33.64,9.5-43.72,24.16l43.72,13.6Z"/><path class="cls-3" d="M265.64,291.94v37.76l43.73-13.6c-10.09-14.66-25.93-23.42-43.73-24.16Z"/></g></svg>