<?xml version="1.0" encoding="UTF-8"?><svg id="Calque_1" xmlns="http://www.w3.org/2000/svg" xmlns:xlink="http://www.w3.org/1999/xlink" viewBox="0 0 850.39 850.39"><defs><style>.cls-1{fill:url(#Dégradé_sans_nom_2);}.cls-2{fill:url(#Dégradé_sans_nom_2-84);}.cls-3{fill:url(#Dégradé_sans_nom_2-85);}.cls-4{fill:url(#Dégradé_sans_nom_2-86);}.cls-5{fill:url(#Dégradé_sans_nom_2-87);}.cls-6{fill:url(#Dégradé_sans_nom_2-81);}.cls-7{fill:url(#Dégradé_sans_nom_2-80);}.cls-8{fill:url(#Dégradé_sans_nom_2-83);}.cls-9{fill:url(#Dégradé_sans_nom_2-82);}.cls-10{fill:url(#Dégradé_sans_nom_2-66);}.cls-11{fill:url(#Dégradé_sans_nom_2-67);}.cls-12{fill:url(#Dégradé_sans_nom_2-64);}.cls-13{fill:url(#Dégradé_sans_nom_2-65);}.cls-14{fill:url(#Dégradé_sans_nom_2-68);}.cls-15{fill:url(#Dégradé_sans_nom_2-69);}.cls-16{fill:url(#Dégradé_sans_nom_2-16);}.cls-17{fill:url(#Dégradé_sans_nom_2-15);}.cls-18{fill:url(#Dégradé_sans_nom_2-14);}.cls-19{fill:url(#Dégradé_sans_nom_2-13);}.cls-20{fill:url(#Dégradé_sans_nom_2-19);}.cls-21{fill:url(#Dégradé_sans_nom_2-48);}.cls-22{fill:url(#Dégradé_sans_nom_2-49);}.cls-23{fill:url(#Dégradé_sans_nom_2-42);}.cls-24{fill:url(#Dégradé_sans_nom_2-43);}.cls-25{fill:url(#Dégradé_sans_nom_2-46);}.cls-26{fill:url(#Dégradé_sans_nom_2-47);}.cls-27{fill:url(#Dégradé_sans_nom_2-12);}.cls-28{fill:url(#Dégradé_sans_nom_2-11);}.cls-29{fill:url(#Dégradé_sans_nom_2-10);}.cls-30{fill:url(#Dégradé_sans_nom_2-18);}.cls-31{fill:url(#Dégradé_sans_nom_2-17);}.cls-32{fill:url(#Dégradé_sans_nom_2-60);}.cls-33{fill:url(#Dégradé_sans_nom_2-61);}.cls-34{fill:url(#Dégradé_sans_nom_2-62);}.cls-35{fill:url(#Dégradé_sans_nom_2-63);}.cls-36{fill:url(#Dégradé_sans_nom_2-70);}.cls-37{fill:url(#Dégradé_sans_nom_2-71);}.cls-38{fill:url(#Dégradé_sans_nom_2-40);}.cls-39{fill:url(#Dégradé_sans_nom_2-41);}.cls-40{fill:url(#Dégradé_sans_nom_2-78);}.cls-41{fill:url(#Dégradé_sans_nom_2-73);}.cls-42{fill:url(#Dégradé_sans_nom_2-72);}.cls-43{fill:url(#Dégradé_sans_nom_2-75);}.cls-44{fill:url(#Dégradé_sans_nom_2-74);}.cls-45{fill:url(#Dégradé_sans_nom_2-77);}.cls-46{fill:url(#Dégradé_sans_nom_2-76);}.cls-47{fill:url(#Dégradé_sans_nom_2-79);}.cls-48{fill:url(#Dégradé_sans_nom_2-44);}.cls-49{fill:url(#Dégradé_sans_nom_2-45);}.cls-50{fill:url(#Dégradé_sans_nom_2-38);}.cls-51{fill:url(#Dégradé_sans_nom_2-37);}.cls-52{fill:url(#Dégradé_sans_nom_2-32);}.cls-53{fill:url(#Dégradé_sans_nom_2-31);}.cls-54{fill:url(#Dégradé_sans_nom_2-34);}.cls-55{fill:url(#Dégradé_sans_nom_2-39);}.cls-56{fill:url(#Dégradé_sans_nom_2-33);}.cls-57{fill:url(#Dégradé_sans_nom_2-36);}.cls-58{fill:url(#Dégradé_sans_nom_2-35);}.cls-59{fill:url(#Dégradé_sans_nom_2-30);}.cls-60{fill:url(#Dégradé_sans_nom_2-28);}.cls-61{fill:url(#Dégradé_sans_nom_2-21);}.cls-62{fill:url(#Dégradé_sans_nom_2-26);}.cls-63{fill:url(#Dégradé_sans_nom_2-27);}.cls-64{fill:url(#Dégradé_sans_nom_2-20);}.cls-65{fill:url(#Dégradé_sans_nom_2-25);}.cls-66{fill:url(#Dégradé_sans_nom_2-23);}.cls-67{fill:url(#Dégradé_sans_nom_2-22);}.cls-68{fill:url(#Dégradé_sans_nom_2-29);}.cls-69{fill:url(#Dégradé_sans_nom_2-24);}.cls-70{fill:url(#Dégradé_sans_nom_2-50);}.cls-71{fill:url(#Dégradé_sans_nom_2-56);}.cls-72{fill:url(#Dégradé_sans_nom_2-57);}.cls-73{fill:url(#Dégradé_sans_nom_2-52);}.cls-74{fill:url(#Dégradé_sans_nom_2-58);}.cls-75{fill:url(#Dégradé_sans_nom_2-51);}.cls-76{fill:url(#Dégradé_sans_nom_2-55);}.cls-77{fill:url(#Dégradé_sans_nom_2-53);}.cls-78{fill:url(#Dégradé_sans_nom_2-59);}.cls-79{fill:url(#Dégradé_sans_nom_2-54);}.cls-80{fill:url(#Dégradé_sans_nom_2-5);}.cls-81{fill:url(#Dégradé_sans_nom_2-8);}.cls-82{fill:url(#Dégradé_sans_nom_2-6);}.cls-83{fill:url(#Dégradé_sans_nom_2-4);}.cls-84{fill:url(#Dégradé_sans_nom_2-3);}.cls-85{fill:url(#Dégradé_sans_nom_2-2);}.cls-86{fill:url(#Dégradé_sans_nom_2-7);}.cls-87{fill:url(#Dégradé_sans_nom_2-9);}</style><linearGradient id="Dégradé_sans_nom_2" x1="-4.55" y1="606.47" x2="852.35" y2="606.47" gradientUnits="userSpaceOnUse"><stop offset="0" stop-color="#3ffadb"/><stop offset="1" stop-color="#e0b459"/></linearGradient><linearGradient id="Dégradé_sans_nom_2-2" y1="574.45" y2="574.45" xlink:href="#Dégradé_sans_nom_2"/><linearGradient id="Dégradé_sans_nom_2-3" y1="615.05" y2="615.05" xlink:href="#Dégradé_sans_nom_2"/><linearGradient id="Dégradé_sans_nom_2-4" y1="613.81" y2="613.81" xlink:href="#Dégradé_sans_nom_2"/><linearGradient id="Dégradé_sans_nom_2-5" y1="585.22" y2="585.22" xlink:href="#Dégradé_sans_nom_2"/><linearGradient id="Dégradé_sans_nom_2-6" y1="634.27" y2="634.27" xlink:href="#Dégradé_sans_nom_2"/><linearGradient id="Dégradé_sans_nom_2-7" y1="628.21" y2="628.21" xlink:href="#Dégradé_sans_nom_2"/><linearGradient id="Dégradé_sans_nom_2-8" y1="630.57" y2="630.57" xlink:href="#Dégradé_sans_nom_2"/><linearGradient id="Dégradé_sans_nom_2-9" y1="627.79" y2="627.79" xlink:href="#Dégradé_sans_nom_2"/><linearGradient id="Dégradé_sans_nom_2-10" y1="574.86" y2="574.86" xlink:href="#Dégradé_sans_nom_2"/><linearGradient id="Dégradé_sans_nom_2-11" y1="573.24" y2="573.24" xlink:href="#Dégradé_sans_nom_2"/><linearGradient id="Dégradé_sans_nom_2-12" y1="568.52" y2="568.52" xlink:href="#Dégradé_sans_nom_2"/><linearGradient id="Dégradé_sans_nom_2-13" y1="615.57" y2="615.57" xlink:href="#Dégradé_sans_nom_2"/><linearGradient id="Dégradé_sans_nom_2-14" y1="578.49" y2="578.49" xlink:href="#Dégradé_sans_nom_2"/><linearGradient id="Dégradé_sans_nom_2-15" y1="613.63" y2="613.63" xlink:href="#Dégradé_sans_nom_2"/><linearGradient id="Dégradé_sans_nom_2-16" y1="593.82" y2="593.82" xlink:href="#Dégradé_sans_nom_2"/><linearGradient id="Dégradé_sans_nom_2-17" y1="592.17" y2="592.17" xlink:href="#Dégradé_sans_nom_2"/><linearGradient id="Dégradé_sans_nom_2-18" y1="629.49" y2="629.49" xlink:href="#Dégradé_sans_nom_2"/><linearGradient id="Dégradé_sans_nom_2-19" y1="637.01" y2="637.01" xlink:href="#Dégradé_sans_nom_2"/><linearGradient id="Dégradé_sans_nom_2-20" y1="731.17" y2="731.17" xlink:href="#Dégradé_sans_nom_2"/><linearGradient id="Dégradé_sans_nom_2-21" y1="694.8" x2="852.35" y2="694.8" xlink:href="#Dégradé_sans_nom_2"/><linearGradient id="Dégradé_sans_nom_2-22" y1="731.17" y2="731.17" xlink:href="#Dégradé_sans_nom_2"/><linearGradient id="Dégradé_sans_nom_2-23" y1="694.8" y2="694.8" xlink:href="#Dégradé_sans_nom_2"/><linearGradient id="Dégradé_sans_nom_2-24" y1="671.26" y2="671.26" xlink:href="#Dégradé_sans_nom_2"/><linearGradient id="Dégradé_sans_nom_2-25" y1="650.06" y2="650.06" xlink:href="#Dégradé_sans_nom_2"/><linearGradient id="Dégradé_sans_nom_2-26" y1="652.93" y2="652.93" xlink:href="#Dégradé_sans_nom_2"/><linearGradient id="Dégradé_sans_nom_2-27" y1="659.19" y2="659.19" xlink:href="#Dégradé_sans_nom_2"/><linearGradient id="Dégradé_sans_nom_2-28" y1="647.87" y2="647.87" xlink:href="#Dégradé_sans_nom_2"/><linearGradient id="Dégradé_sans_nom_2-29" y1="649.31" y2="649.31" xlink:href="#Dégradé_sans_nom_2"/><linearGradient id="Dégradé_sans_nom_2-30" y1="646.38" x2="852.35" y2="646.38" xlink:href="#Dégradé_sans_nom_2"/><linearGradient id="Dégradé_sans_nom_2-31" y1="653.81" y2="653.81" xlink:href="#Dégradé_sans_nom_2"/><linearGradient id="Dégradé_sans_nom_2-32" y1="676.68" y2="676.68" xlink:href="#Dégradé_sans_nom_2"/><linearGradient id="Dégradé_sans_nom_2-33" y1="679.99" x2="852.35" y2="679.99" xlink:href="#Dégradé_sans_nom_2"/><linearGradient id="Dégradé_sans_nom_2-34" y1="678.3" y2="678.3" xlink:href="#Dégradé_sans_nom_2"/><linearGradient id="Dégradé_sans_nom_2-35" y1="668.52" y2="668.52" xlink:href="#Dégradé_sans_nom_2"/><linearGradient id="Dégradé_sans_nom_2-36" y1="669.97" y2="669.97" xlink:href="#Dégradé_sans_nom_2"/><linearGradient id="Dégradé_sans_nom_2-37" y1="668.4" x2="852.35" y2="668.4" xlink:href="#Dégradé_sans_nom_2"/><linearGradient id="Dégradé_sans_nom_2-38" y1="675.81" y2="675.81" xlink:href="#Dégradé_sans_nom_2"/><linearGradient id="Dégradé_sans_nom_2-39" y1="675.65" y2="675.65" xlink:href="#Dégradé_sans_nom_2"/><linearGradient id="Dégradé_sans_nom_2-40" y1="663.24" x2="852.35" y2="663.24" xlink:href="#Dégradé_sans_nom_2"/><linearGradient id="Dégradé_sans_nom_2-41" y1="660.9" y2="660.9" xlink:href="#Dégradé_sans_nom_2"/><linearGradient id="Dégradé_sans_nom_2-42" y1="671.26" y2="671.26" xlink:href="#Dégradé_sans_nom_2"/><linearGradient id="Dégradé_sans_nom_2-43" y1="650.06" y2="650.06" xlink:href="#Dégradé_sans_nom_2"/><linearGradient id="Dégradé_sans_nom_2-44" y1="652.93" y2="652.93" xlink:href="#Dégradé_sans_nom_2"/><linearGradient id="Dégradé_sans_nom_2-45" y1="659.19" y2="659.19" xlink:href="#Dégradé_sans_nom_2"/><linearGradient id="Dégradé_sans_nom_2-46" y1="647.87" y2="647.87" xlink:href="#Dégradé_sans_nom_2"/><linearGradient id="Dégradé_sans_nom_2-47" y1="649.31" y2="649.31" xlink:href="#Dégradé_sans_nom_2"/><linearGradient id="Dégradé_sans_nom_2-48" y1="646.38" x2="852.35" y2="646.38" xlink:href="#Dégradé_sans_nom_2"/><linearGradient id="Dégradé_sans_nom_2-49" y1="653.81" x2="852.35" y2="653.81" xlink:href="#Dégradé_sans_nom_2"/><linearGradient id="Dégradé_sans_nom_2-50" y1="676.68" y2="676.68" xlink:href="#Dégradé_sans_nom_2"/><linearGradient id="Dégradé_sans_nom_2-51" y1="679.99" y2="679.99" xlink:href="#Dégradé_sans_nom_2"/><linearGradient id="Dégradé_sans_nom_2-52" y1="678.3" y2="678.3" xlink:href="#Dégradé_sans_nom_2"/><linearGradient id="Dégradé_sans_nom_2-53" y1="668.52" y2="668.52" xlink:href="#Dégradé_sans_nom_2"/><linearGradient id="Dégradé_sans_nom_2-54" y1="669.97" y2="669.97" xlink:href="#Dégradé_sans_nom_2"/><linearGradient id="Dégradé_sans_nom_2-55" y1="668.4" x2="852.35" y2="668.4" xlink:href="#Dégradé_sans_nom_2"/><linearGradient id="Dégradé_sans_nom_2-56" y1="675.81" y2="675.81" xlink:href="#Dégradé_sans_nom_2"/><linearGradient id="Dégradé_sans_nom_2-57" y1="675.65" y2="675.65" xlink:href="#Dégradé_sans_nom_2"/><linearGradient id="Dégradé_sans_nom_2-58" y1="663.24" y2="663.24" xlink:href="#Dégradé_sans_nom_2"/><linearGradient id="Dégradé_sans_nom_2-59" y1="660.9" y2="660.9" xlink:href="#Dégradé_sans_nom_2"/><linearGradient id="Dégradé_sans_nom_2-60" y1="574.45" y2="574.45" xlink:href="#Dégradé_sans_nom_2"/><linearGradient id="Dégradé_sans_nom_2-61" y1="615.05" x2="852.35" y2="615.05" xlink:href="#Dégradé_sans_nom_2"/><linearGradient id="Dégradé_sans_nom_2-62" y1="613.81" x2="852.35" y2="613.81" xlink:href="#Dégradé_sans_nom_2"/><linearGradient id="Dégradé_sans_nom_2-63" y1="585.22" y2="585.22" xlink:href="#Dégradé_sans_nom_2"/><linearGradient id="Dégradé_sans_nom_2-64" y1="634.27" y2="634.27" xlink:href="#Dégradé_sans_nom_2"/><linearGradient id="Dégradé_sans_nom_2-65" y1="628.21" y2="628.21" xlink:href="#Dégradé_sans_nom_2"/><linearGradient id="Dégradé_sans_nom_2-66" y1="630.57" y2="630.57" xlink:href="#Dégradé_sans_nom_2"/><linearGradient id="Dégradé_sans_nom_2-67" y1="627.79" y2="627.79" xlink:href="#Dégradé_sans_nom_2"/><linearGradient id="Dégradé_sans_nom_2-68" y1="574.86" y2="574.86" xlink:href="#Dégradé_sans_nom_2"/><linearGradient id="Dégradé_sans_nom_2-69" y1="573.24" y2="573.24" xlink:href="#Dégradé_sans_nom_2"/><linearGradient id="Dégradé_sans_nom_2-70" y1="568.52" y2="568.52" xlink:href="#Dégradé_sans_nom_2"/><linearGradient id="Dégradé_sans_nom_2-71" y1="615.57" y2="615.57" xlink:href="#Dégradé_sans_nom_2"/><linearGradient id="Dégradé_sans_nom_2-72" y1="578.49" y2="578.49" xlink:href="#Dégradé_sans_nom_2"/><linearGradient id="Dégradé_sans_nom_2-73" y1="613.63" y2="613.63" xlink:href="#Dégradé_sans_nom_2"/><linearGradient id="Dégradé_sans_nom_2-74" y1="593.82" y2="593.82" xlink:href="#Dégradé_sans_nom_2"/><linearGradient id="Dégradé_sans_nom_2-75" y1="592.17" y2="592.17" xlink:href="#Dégradé_sans_nom_2"/><linearGradient id="Dégradé_sans_nom_2-76" y1="629.49" y2="629.49" xlink:href="#Dégradé_sans_nom_2"/><linearGradient id="Dégradé_sans_nom_2-77" y1="637.01" y2="637.01" xlink:href="#Dégradé_sans_nom_2"/><linearGradient id="Dégradé_sans_nom_2-78" y1="541.22" y2="541.22" xlink:href="#Dégradé_sans_nom_2"/><linearGradient id="Dégradé_sans_nom_2-79" y1="541.22" y2="541.22" xlink:href="#Dégradé_sans_nom_2"/><linearGradient id="Dégradé_sans_nom_2-80" y1="478.1" y2="478.1" xlink:href="#Dégradé_sans_nom_2"/><linearGradient id="Dégradé_sans_nom_2-81" y1="478.1" x2="852.35" y2="478.1" xlink:href="#Dégradé_sans_nom_2"/><linearGradient id="Dégradé_sans_nom_2-82" y1="113.01" y2="113.01" xlink:href="#Dégradé_sans_nom_2"/><linearGradient id="Dégradé_sans_nom_2-83" y1="208.15" y2="208.15" xlink:href="#Dégradé_sans_nom_2"/><linearGradient id="Dégradé_sans_nom_2-84" y1="353.23" y2="353.23" xlink:href="#Dégradé_sans_nom_2"/><linearGradient id="Dégradé_sans_nom_2-85" y1="304.35" y2="304.35" xlink:href="#Dégradé_sans_nom_2"/><linearGradient id="Dégradé_sans_nom_2-86" y1="489.68" y2="489.68" xlink:href="#Dégradé_sans_nom_2"/><linearGradient id="Dégradé_sans_nom_2-87" y1="629.1" y2="629.1" xlink:href="#Dégradé_sans_nom_2"/></defs><path class="cls-1" d="M586.32,822.98c-57.83,0-112.2-22.52-153.1-63.42s-63.42-95.27-63.42-153.1,22.52-112.2,63.42-153.1c40.89-40.89,95.27-63.42,153.1-63.42s112.2,22.52,153.1,63.42,63.42,95.27,63.42,153.1-22.52,112.2-63.42,153.1-95.27,63.42-153.1,63.42Zm0-402.82c-102.73,0-186.3,83.58-186.3,186.3s83.58,186.3,186.3,186.3,186.3-83.58,186.3-186.3-83.58-186.3-186.3-186.3Z"/><g><polygon class="cls-85" points="494.49 594.22 494.59 554.68 464.06 569.65 494.49 594.22"/><polygon class="cls-84" points="449.28 602.14 460.16 629.03 490.87 601.08 449.28 602.14"/><polygon class="cls-83" points="495.66 612.8 494.85 603.33 471.82 624.29 495.66 612.8"/><polygon class="cls-80" points="460.87 572.66 449.5 597.79 490.68 596.74 460.87 572.66"/><polygon class="cls-82" points="512.73 626.39 499.45 642.16 516.08 637.19 512.73 626.39"/><polygon class="cls-86" points="499.66 617.39 496.4 639.04 510.19 622.66 499.66 617.39"/><polygon class="cls-81" points="464.69 632.56 491.36 643.28 495.19 617.85 464.69 632.56"/><polygon class="cls-87" points="516.45 623.7 519.5 633.53 526.85 622.05 516.45 623.7"/><polygon class="cls-29" points="531.78 586.96 532.57 562.75 515.16 585.77 531.78 586.96"/><polygon class="cls-28" points="537 560.24 536.15 586.23 560.49 578 537 560.24"/><polygon class="cls-27" points="530.97 557.67 500.13 553.8 511.63 583.25 530.97 557.67"/><polygon class="cls-19" points="565.87 621.18 581.43 621.18 579.12 609.95 565.87 621.18"/><polygon class="cls-18" points="498.92 562.65 498.83 594.32 508.4 586.93 498.92 562.65"/><polygon class="cls-17" points="558.23 607.83 561.19 619.44 574.66 608.03 558.23 607.83"/><polygon class="cls-16" points="576.75 603.71 565.53 583.94 558.5 603.48 576.75 603.71"/><polygon class="cls-31" points="554.38 602.1 561.52 582.25 538.46 590.03 554.38 602.1"/><polygon class="cls-30" points="565.46 625.53 573.98 633.46 579.81 625.53 565.46 625.53"/><polygon class="cls-20" points="581.92 644.04 581.92 629.99 576.95 636.76 581.92 644.04"/><polygon class="cls-64" points="584.15 751.72 584.15 719.46 560.41 710.62 584.15 751.72"/><polygon class="cls-61" points="584.15 714.82 584.15 674.79 559.11 705.5 584.15 714.82"/><polygon class="cls-67" points="588.5 719.46 588.5 751.72 612.24 710.62 588.5 719.46"/><polygon class="cls-66" points="588.5 674.79 588.5 714.82 613.54 705.5 588.5 674.79"/><polygon class="cls-69" points="517.32 667.81 526.79 679.11 533.7 663.41 517.32 667.81"/><polygon class="cls-65" points="533.35 658.25 526.13 641.86 517.14 650.57 533.35 658.25"/><polygon class="cls-62" points="538 655.02 531.95 647.9 536.39 657.96 538 655.02"/><polygon class="cls-63" points="516.1 653.28 516.18 665.11 532.06 660.85 516.1 653.28"/><polygon class="cls-60" points="548.69 651.51 551.42 648.38 546.58 644.23 548.69 651.51"/><polygon class="cls-68" points="543.87 645.31 541.68 653.3 546.13 653.09 543.87 645.31"/><polygon class="cls-59" points="541.95 641.36 529.84 640.94 539.08 651.81 541.95 641.36"/><polygon class="cls-53" points="552.52 651.53 550.23 654.15 553.22 656.08 552.52 651.53"/><polygon class="cls-52" points="542.35 671.06 544.99 682.3 548.62 673.32 542.35 671.06"/><polygon class="cls-56" points="551.09 674.94 547.01 685.03 559.01 682.22 551.09 674.94"/><polygon class="cls-54" points="529.93 681.14 542.64 684.97 539.51 671.64 529.93 681.14"/><polygon class="cls-58" points="574.13 671.38 576.57 667.96 571.36 665.65 574.13 671.38"/><polygon class="cls-57" points="538.54 668.52 536.38 664.52 531.58 675.42 538.54 668.52"/><polygon class="cls-51" points="565.29 668.94 570.9 671.35 568.04 665.45 565.29 668.94"/><polygon class="cls-50" points="563.68 679.96 571 674.54 564.28 671.67 563.68 679.96"/><polygon class="cls-55" points="560.78 679.91 561.4 671.4 553.53 673.25 560.78 679.91"/><polygon class="cls-38" points="576.04 661.6 572.29 662.89 576.76 664.87 576.04 661.6"/><polygon class="cls-39" points="580.87 659.07 578.74 660.39 579.25 662.73 580.87 659.07"/><polygon class="cls-23" points="645.86 679.11 655.33 667.81 638.95 663.41 645.86 679.11"/><polygon class="cls-24" points="646.52 641.86 639.3 658.25 655.51 650.57 646.52 641.86"/><polygon class="cls-48" points="634.64 655.02 636.26 657.96 640.69 647.9 634.64 655.02"/><polygon class="cls-49" points="656.46 665.11 656.55 653.28 640.58 660.85 656.46 665.11"/><polygon class="cls-25" points="626.07 644.23 621.23 648.38 623.96 651.51 626.07 644.23"/><polygon class="cls-26" points="628.78 645.31 626.52 653.09 630.97 653.3 628.78 645.31"/><polygon class="cls-21" points="642.81 640.94 630.7 641.36 633.57 651.81 642.81 640.94"/><polygon class="cls-22" points="619.43 656.08 622.42 654.15 620.13 651.53 619.43 656.08"/><polygon class="cls-70" points="624.02 673.32 627.66 682.3 630.3 671.06 624.02 673.32"/><polygon class="cls-75" points="613.64 682.22 625.64 685.03 621.56 674.94 613.64 682.22"/><polygon class="cls-73" points="630.01 684.97 642.72 681.14 633.14 671.64 630.01 684.97"/><polygon class="cls-77" points="601.29 665.65 596.08 667.96 598.52 671.38 601.29 665.65"/><polygon class="cls-79" points="641.06 675.42 636.27 664.52 634.11 668.52 641.06 675.42"/><polygon class="cls-76" points="601.75 671.35 607.36 668.94 604.61 665.45 601.75 671.35"/><polygon class="cls-71" points="608.97 679.96 608.36 671.67 601.65 674.54 608.97 679.96"/><polygon class="cls-72" points="619.12 673.25 611.25 671.4 611.87 679.91 619.12 673.25"/><polygon class="cls-74" points="596.61 661.6 595.89 664.88 600.36 662.89 596.61 661.6"/><polygon class="cls-78" points="593.91 660.39 591.77 659.07 593.39 662.73 593.91 660.39"/><polygon class="cls-32" points="708.58 569.65 678.06 554.68 678.16 594.22 708.58 569.65"/><polygon class="cls-33" points="681.78 601.08 712.49 629.03 723.37 602.14 681.78 601.08"/><polygon class="cls-34" points="677.79 603.33 676.99 612.8 700.83 624.29 677.79 603.33"/><polygon class="cls-35" points="723.15 597.79 711.78 572.66 681.97 596.74 723.15 597.79"/><polygon class="cls-12" points="673.2 642.16 659.92 626.39 656.57 637.19 673.2 642.16"/><polygon class="cls-13" points="662.46 622.66 676.25 639.04 672.99 617.39 662.46 622.66"/><polygon class="cls-10" points="681.29 643.28 707.96 632.56 677.46 617.85 681.29 643.28"/><polygon class="cls-11" points="645.79 622.05 653.15 633.53 656.2 623.7 645.79 622.05"/><polygon class="cls-14" points="657.48 585.77 640.08 562.75 640.87 586.96 657.48 585.77"/><polygon class="cls-15" points="636.5 586.23 635.65 560.24 612.16 578 636.5 586.23"/><polygon class="cls-36" points="641.68 557.67 661.02 583.25 672.52 553.8 641.68 557.67"/><polygon class="cls-37" points="593.53 609.95 591.22 621.18 606.78 621.18 593.53 609.95"/><polygon class="cls-42" points="673.82 594.32 673.73 562.65 664.25 586.93 673.82 594.32"/><polygon class="cls-41" points="597.98 608.03 611.46 619.44 614.42 607.83 597.98 608.03"/><polygon class="cls-44" points="607.12 583.94 595.9 603.71 614.14 603.48 607.12 583.94"/><polygon class="cls-43" points="611.13 582.25 618.27 602.1 634.19 590.03 611.13 582.25"/><polygon class="cls-46" points="592.84 625.53 598.66 633.46 607.19 625.53 592.84 625.53"/><polygon class="cls-45" points="590.72 629.99 590.72 644.04 595.7 636.76 590.72 629.99"/><polygon class="cls-40" points="584.15 595.02 584.15 499.55 545.18 487.42 584.15 595.02"/><polygon class="cls-47" points="588.5 499.55 588.5 595.02 627.47 487.42 588.5 499.55"/><path class="cls-7" d="M584.15,494.99v-33.79c-15.93,.67-30.1,8.5-39.12,21.62l39.12,12.17Z"/><path class="cls-6" d="M588.5,461.21v33.79l39.12-12.17c-9.02-13.12-23.2-20.95-39.12-21.62Z"/></g><g><path class="cls-9" d="M284.21,198.61c-117.6,0-236.66-29.4-236.66-85.6S166.61,27.41,284.21,27.41s236.66,29.4,236.66,85.6-119.05,85.6-236.66,85.6Zm0-140.99c-57.67,0-111.68,7.08-152.08,19.94-42.92,13.65-54.37,28.71-54.37,35.45s11.45,21.8,54.37,35.45c40.4,12.86,94.41,19.94,152.08,19.94s111.67-7.08,152.08-19.94c42.92-13.65,54.37-28.71,54.37-35.45s-11.45-21.8-54.37-35.45c-40.4-12.86-94.41-19.94-152.08-19.94Z"/><path class="cls-8" d="M284.21,328.46c-60.67,0-117.92-7.5-161.19-21.12-34.43-10.83-75.46-30.68-75.46-63.71V102.94c0-8.34,6.76-15.11,15.11-15.11s15.11,6.76,15.11,15.11V243.64c0,6.61,11.44,21.4,54.32,34.89,40.42,12.72,94.44,19.72,152.12,19.72s111.71-7,152.12-19.72c42.88-13.49,54.32-28.28,54.32-34.89V102.94c0-8.34,6.76-15.11,15.11-15.11s15.11,6.76,15.11,15.11V243.64c0,33.03-41.04,52.88-75.46,63.71-43.27,13.62-100.52,21.12-161.19,21.12Z"/><path class="cls-2" d="M284.21,477.64c-60.67,0-117.92-7.5-161.19-21.12-34.43-10.83-75.46-30.68-75.46-63.71V243.93c0-8.34,6.76-15.11,15.11-15.11s15.11,6.76,15.11,15.11v148.89c0,6.61,11.44,21.4,54.32,34.89,40.42,12.72,94.44,19.72,152.12,19.72,34.18,0,68.17-2.56,98.31-7.41,8.24-1.33,15.99,4.28,17.31,12.52,1.32,8.24-4.28,15.99-12.52,17.31-32.15,5.17-66.84,7.79-103.1,7.79Z"/><path class="cls-3" d="M505.76,379.88c-8.34,0-15.11-6.76-15.11-15.11v-120.85c0-8.34,6.76-15.11,15.11-15.11s15.11,6.76,15.11,15.11v120.85c0,8.34-6.76,15.11-15.11,15.11Z"/><path class="cls-4" d="M278.15,609.54c-59.06,0-114.78-7.3-156.91-20.56-33.62-10.58-73.69-29.98-73.69-62.36v-141.71c0-8.34,6.76-15.11,15.11-15.11s15.11,6.76,15.11,15.11v141.71c0,3.95,3.95,9.15,10.85,14.28,9.36,6.96,23.78,13.63,41.7,19.27,39.27,12.36,91.78,19.17,147.84,19.17,20.56,0,40.87-.93,60.38-2.76,8.3-.79,15.67,5.32,16.45,13.63s-5.32,15.67-13.63,16.45c-20.44,1.92-41.71,2.89-63.2,2.89Z"/><path class="cls-5" d="M278.15,747.4c-59.06,0-114.78-7.3-156.91-20.56-33.62-10.58-73.69-29.98-73.69-62.36v-138.58c0-8.34,6.76-15.11,15.11-15.11s15.11,6.76,15.11,15.11v138.58c0,3.95,3.95,9.15,10.85,14.28,9.36,6.96,23.78,13.63,41.7,19.27,39.27,12.36,91.78,19.17,147.84,19.17,30.17,0,59.27-1.96,86.48-5.83,8.26-1.17,15.91,4.57,17.08,12.83,1.17,8.26-4.57,15.91-12.83,17.08-28.62,4.07-59.14,6.13-90.73,6.13Z"/></g></svg>