<?xml version="1.0" encoding="UTF-8"?><svg id="Calque_1" xmlns="http://www.w3.org/2000/svg" xmlns:xlink="http://www.w3.org/1999/xlink" viewBox="0 0 850.39 850.39"><defs><style>.cls-1{fill:url(#Dégradé_sans_nom_2);}.cls-2{fill:url(#Dégradé_sans_nom_2-10);}.cls-3{fill:url(#Dégradé_sans_nom_2-5);}.cls-4{fill:url(#Dégradé_sans_nom_2-8);}.cls-5{fill:url(#Dégradé_sans_nom_2-6);}.cls-6{fill:url(#Dégradé_sans_nom_2-4);}.cls-7{fill:url(#Dégradé_sans_nom_2-3);}.cls-8{fill:url(#Dégradé_sans_nom_2-2);}.cls-9{fill:url(#Dégradé_sans_nom_2-7);}.cls-10{fill:url(#Dégradé_sans_nom_2-9);}</style><linearGradient id="Dégradé_sans_nom_2" x1="2.79" y1="465.48" x2="848.13" y2="465.48" gradientUnits="userSpaceOnUse"><stop offset="0" stop-color="#3ffadb"/><stop offset="1" stop-color="#e0b459"/></linearGradient><linearGradient id="Dégradé_sans_nom_2-2" y1="465.48" y2="465.48" xlink:href="#Dégradé_sans_nom_2"/><linearGradient id="Dégradé_sans_nom_2-3" y1="42.52" y2="42.52" xlink:href="#Dégradé_sans_nom_2"/><linearGradient id="Dégradé_sans_nom_2-4" y1="171.2" y2="171.2" gradientTransform="translate(322.44 -436.07) rotate(45)" xlink:href="#Dégradé_sans_nom_2"/><linearGradient id="Dégradé_sans_nom_2-5" y1="465.48" y2="465.48" xlink:href="#Dégradé_sans_nom_2"/><linearGradient id="Dégradé_sans_nom_2-6" y1="87.23" y2="87.23" xlink:href="#Dégradé_sans_nom_2"/><linearGradient id="Dégradé_sans_nom_2-7" y1="87.23" y2="87.23" xlink:href="#Dégradé_sans_nom_2"/><linearGradient id="Dégradé_sans_nom_2-8" y1="274.14" y2="274.14" xlink:href="#Dégradé_sans_nom_2"/><linearGradient id="Dégradé_sans_nom_2-9" y1="656.82" y2="656.82" xlink:href="#Dégradé_sans_nom_2"/><linearGradient id="Dégradé_sans_nom_2-10" y1="465.48" x2="848.13" y2="465.48" xlink:href="#Dégradé_sans_nom_2"/></defs><g><g><path class="cls-1" d="M425.2,822.98c-48.26,0-95.08-9.45-139.16-28.1-42.57-18.01-80.8-43.78-113.63-76.61-32.83-32.83-58.6-71.06-76.61-113.63-18.65-44.08-28.1-90.9-28.1-139.16s9.45-95.08,28.1-139.16c18.01-42.57,43.78-80.8,76.61-113.63,32.83-32.83,71.06-58.6,113.63-76.61,44.08-18.65,90.9-28.1,139.16-28.1s95.08,9.45,139.16,28.1c42.57,18.01,80.8,43.78,113.63,76.61,32.83,32.83,58.6,71.06,76.61,113.63,18.65,44.08,28.1,90.9,28.1,139.16s-9.45,95.08-28.1,139.16c-18.01,42.57-43.78,80.8-76.61,113.63-32.83,32.83-71.06,58.6-113.63,76.61-44.08,18.65-90.9,28.1-139.16,28.1Zm0-684.79c-87.42,0-169.61,34.04-231.43,95.86s-95.86,144.01-95.86,231.43,34.04,169.61,95.86,231.43c61.82,61.82,144.01,95.86,231.43,95.86s169.61-34.04,231.43-95.86c61.82-61.82,95.86-144.01,95.86-231.43s-34.04-169.61-95.86-231.43c-61.82-61.82-144.01-95.86-231.43-95.86Z"/><path class="cls-1" d="M425.2,742.42c-73.97,0-143.52-28.81-195.82-81.11s-81.11-121.85-81.11-195.82,28.81-143.52,81.11-195.82,121.85-81.11,195.82-81.11,143.52,28.81,195.82,81.11,81.11,121.85,81.11,195.82-28.81,143.52-81.11,195.82-121.85,81.11-195.82,81.11Zm0-523.66c-65.9,0-127.86,25.66-174.46,72.26s-72.26,108.56-72.26,174.46,25.66,127.86,72.26,174.46c46.6,46.6,108.56,72.26,174.46,72.26s127.86-25.66,174.46-72.26,72.26-108.56,72.26-174.46-25.66-127.86-72.26-174.46c-46.6-46.6-108.56-72.26-174.46-72.26Z"/><path class="cls-8" d="M425.2,520.87c-30.54,0-55.39-24.85-55.39-55.39s24.85-55.39,55.39-55.39,55.39,24.85,55.39,55.39-24.85,55.39-55.39,55.39Zm0-80.56c-13.88,0-25.18,11.29-25.18,25.18s11.29,25.18,25.18,25.18,25.18-11.29,25.18-25.18-11.29-25.18-25.18-25.18Z"/><rect class="cls-7" x="324.49" y="27.41" width="201.41" height="30.21"/><rect class="cls-6" x="672.52" y="133.9" width="30.21" height="74.59" transform="translate(80.33 536.35) rotate(-45)"/><rect class="cls-3" x="485.62" y="450.37" width="120.85" height="30.21"/></g><rect class="cls-5" x="357.94" y="62.66" width="30.21" height="49.13"/><rect class="cls-9" x="458.65" y="62.66" width="30.21" height="49.13"/></g><rect class="cls-4" x="410.09" y="264.07" width="30.21" height="20.14"/><rect class="cls-10" x="410.09" y="646.75" width="30.21" height="20.14"/><rect class="cls-2" x="223.79" y="450.37" width="20.14" height="30.21"/></svg>