<?xml version="1.0" encoding="UTF-8"?><svg id="Calque_1" xmlns="http://www.w3.org/2000/svg" xmlns:xlink="http://www.w3.org/1999/xlink" viewBox="0 0 850.39 850.39"><defs><style>.cls-1{fill:url(#Dégradé_sans_nom_2);}.cls-2{fill:url(#Dégradé_sans_nom_2-84);}.cls-3{fill:url(#Dégradé_sans_nom_2-85);}.cls-4{fill:url(#Dégradé_sans_nom_2-86);}.cls-5{fill:url(#Dégradé_sans_nom_2-87);}.cls-6{fill:url(#Dégradé_sans_nom_2-81);}.cls-7{fill:url(#Dégradé_sans_nom_2-80);}.cls-8{fill:url(#Dégradé_sans_nom_2-83);}.cls-9{fill:url(#Dégradé_sans_nom_2-82);}.cls-10{fill:url(#Dégradé_sans_nom_2-88);}.cls-11{fill:url(#Dégradé_sans_nom_2-89);}.cls-12{fill:url(#Dégradé_sans_nom_2-66);}.cls-13{fill:url(#Dégradé_sans_nom_2-67);}.cls-14{fill:url(#Dégradé_sans_nom_2-64);}.cls-15{fill:url(#Dégradé_sans_nom_2-65);}.cls-16{fill:url(#Dégradé_sans_nom_2-68);}.cls-17{fill:url(#Dégradé_sans_nom_2-69);}.cls-18{fill:url(#Dégradé_sans_nom_2-16);}.cls-19{fill:url(#Dégradé_sans_nom_2-15);}.cls-20{fill:url(#Dégradé_sans_nom_2-14);}.cls-21{fill:url(#Dégradé_sans_nom_2-13);}.cls-22{fill:url(#Dégradé_sans_nom_2-19);}.cls-23{fill:url(#Dégradé_sans_nom_2-48);}.cls-24{fill:url(#Dégradé_sans_nom_2-49);}.cls-25{fill:url(#Dégradé_sans_nom_2-42);}.cls-26{fill:url(#Dégradé_sans_nom_2-43);}.cls-27{fill:url(#Dégradé_sans_nom_2-46);}.cls-28{fill:url(#Dégradé_sans_nom_2-47);}.cls-29{fill:url(#Dégradé_sans_nom_2-12);}.cls-30{fill:url(#Dégradé_sans_nom_2-11);}.cls-31{fill:url(#Dégradé_sans_nom_2-10);}.cls-32{fill:url(#Dégradé_sans_nom_2-18);}.cls-33{fill:url(#Dégradé_sans_nom_2-17);}.cls-34{fill:url(#Dégradé_sans_nom_2-60);}.cls-35{fill:url(#Dégradé_sans_nom_2-61);}.cls-36{fill:url(#Dégradé_sans_nom_2-62);}.cls-37{fill:url(#Dégradé_sans_nom_2-63);}.cls-38{fill:url(#Dégradé_sans_nom_2-70);}.cls-39{fill:url(#Dégradé_sans_nom_2-71);}.cls-40{fill:url(#Dégradé_sans_nom_2-40);}.cls-41{fill:url(#Dégradé_sans_nom_2-41);}.cls-42{fill:url(#Dégradé_sans_nom_2-78);}.cls-43{fill:url(#Dégradé_sans_nom_2-73);}.cls-44{fill:url(#Dégradé_sans_nom_2-72);}.cls-45{fill:url(#Dégradé_sans_nom_2-75);}.cls-46{fill:url(#Dégradé_sans_nom_2-74);}.cls-47{fill:url(#Dégradé_sans_nom_2-77);}.cls-48{fill:url(#Dégradé_sans_nom_2-76);}.cls-49{fill:url(#Dégradé_sans_nom_2-79);}.cls-50{fill:url(#Dégradé_sans_nom_2-44);}.cls-51{fill:url(#Dégradé_sans_nom_2-45);}.cls-52{fill:url(#Dégradé_sans_nom_2-38);}.cls-53{fill:url(#Dégradé_sans_nom_2-37);}.cls-54{fill:url(#Dégradé_sans_nom_2-32);}.cls-55{fill:url(#Dégradé_sans_nom_2-31);}.cls-56{fill:url(#Dégradé_sans_nom_2-34);}.cls-57{fill:url(#Dégradé_sans_nom_2-39);}.cls-58{fill:url(#Dégradé_sans_nom_2-33);}.cls-59{fill:url(#Dégradé_sans_nom_2-36);}.cls-60{fill:url(#Dégradé_sans_nom_2-35);}.cls-61{fill:url(#Dégradé_sans_nom_2-30);}.cls-62{fill:url(#Dégradé_sans_nom_2-28);}.cls-63{fill:url(#Dégradé_sans_nom_2-21);}.cls-64{fill:url(#Dégradé_sans_nom_2-26);}.cls-65{fill:url(#Dégradé_sans_nom_2-27);}.cls-66{fill:url(#Dégradé_sans_nom_2-20);}.cls-67{fill:url(#Dégradé_sans_nom_2-25);}.cls-68{fill:url(#Dégradé_sans_nom_2-23);}.cls-69{fill:url(#Dégradé_sans_nom_2-22);}.cls-70{fill:url(#Dégradé_sans_nom_2-29);}.cls-71{fill:url(#Dégradé_sans_nom_2-24);}.cls-72{fill:url(#Dégradé_sans_nom_2-50);}.cls-73{fill:url(#Dégradé_sans_nom_2-56);}.cls-74{fill:url(#Dégradé_sans_nom_2-91);}.cls-75{fill:url(#Dégradé_sans_nom_2-92);}.cls-76{fill:url(#Dégradé_sans_nom_2-90);}.cls-77{fill:url(#Dégradé_sans_nom_2-57);}.cls-78{fill:url(#Dégradé_sans_nom_2-52);}.cls-79{fill:url(#Dégradé_sans_nom_2-58);}.cls-80{fill:url(#Dégradé_sans_nom_2-51);}.cls-81{fill:url(#Dégradé_sans_nom_2-55);}.cls-82{fill:url(#Dégradé_sans_nom_2-53);}.cls-83{fill:url(#Dégradé_sans_nom_2-59);}.cls-84{fill:url(#Dégradé_sans_nom_2-54);}.cls-85{fill:url(#Dégradé_sans_nom_2-5);}.cls-86{fill:url(#Dégradé_sans_nom_2-8);}.cls-87{fill:url(#Dégradé_sans_nom_2-6);}.cls-88{fill:url(#Dégradé_sans_nom_2-4);}.cls-89{fill:url(#Dégradé_sans_nom_2-3);}.cls-90{fill:url(#Dégradé_sans_nom_2-2);}.cls-91{fill:url(#Dégradé_sans_nom_2-7);}.cls-92{fill:url(#Dégradé_sans_nom_2-9);}</style><linearGradient id="Dégradé_sans_nom_2" x1="-4.55" y1="473.03" x2="853.44" y2="473.03" gradientUnits="userSpaceOnUse"><stop offset="0" stop-color="#3ffadb"/><stop offset="1" stop-color="#e0b459"/></linearGradient><linearGradient id="Dégradé_sans_nom_2-2" y1="329.53" y2="329.53" xlink:href="#Dégradé_sans_nom_2"/><linearGradient id="Dégradé_sans_nom_2-3" y1="233.86" y2="233.86" xlink:href="#Dégradé_sans_nom_2"/><linearGradient id="Dégradé_sans_nom_2-4" y1="233.86" y2="233.86" xlink:href="#Dégradé_sans_nom_2"/><linearGradient id="Dégradé_sans_nom_2-5" y1="434.76" y2="434.76" xlink:href="#Dégradé_sans_nom_2"/><linearGradient id="Dégradé_sans_nom_2-6" y1="434.76" y2="434.76" xlink:href="#Dégradé_sans_nom_2"/><linearGradient id="Dégradé_sans_nom_2-7" y1="549.57" y2="549.57" xlink:href="#Dégradé_sans_nom_2"/><linearGradient id="Dégradé_sans_nom_2-8" y1="549.57" y2="549.57" xlink:href="#Dégradé_sans_nom_2"/><linearGradient id="Dégradé_sans_nom_2-9" y1="549.57" y2="549.57" xlink:href="#Dégradé_sans_nom_2"/><linearGradient id="Dégradé_sans_nom_2-10" y1="683.5" y2="683.5" xlink:href="#Dégradé_sans_nom_2"/><linearGradient id="Dégradé_sans_nom_2-11" y1="683.5" y2="683.5" xlink:href="#Dégradé_sans_nom_2"/><linearGradient id="Dégradé_sans_nom_2-12" y1="233.86" x2="853.44" y2="233.86" xlink:href="#Dégradé_sans_nom_2"/><linearGradient id="Dégradé_sans_nom_2-13" y1="203.44" y2="203.44" xlink:href="#Dégradé_sans_nom_2"/><linearGradient id="Dégradé_sans_nom_2-14" y1="242.02" y2="242.02" xlink:href="#Dégradé_sans_nom_2"/><linearGradient id="Dégradé_sans_nom_2-15" y1="240.84" x2="853.44" y2="240.84" xlink:href="#Dégradé_sans_nom_2"/><linearGradient id="Dégradé_sans_nom_2-16" y1="213.68" y2="213.68" xlink:href="#Dégradé_sans_nom_2"/><linearGradient id="Dégradé_sans_nom_2-17" y1="260.28" y2="260.28" xlink:href="#Dégradé_sans_nom_2"/><linearGradient id="Dégradé_sans_nom_2-18" y1="254.52" x2="853.44" y2="254.52" xlink:href="#Dégradé_sans_nom_2"/><linearGradient id="Dégradé_sans_nom_2-19" y1="256.76" y2="256.76" xlink:href="#Dégradé_sans_nom_2"/><linearGradient id="Dégradé_sans_nom_2-20" y1="254.12" y2="254.12" xlink:href="#Dégradé_sans_nom_2"/><linearGradient id="Dégradé_sans_nom_2-21" y1="203.83" y2="203.83" xlink:href="#Dégradé_sans_nom_2"/><linearGradient id="Dégradé_sans_nom_2-22" y1="202.29" x2="853.44" y2="202.29" xlink:href="#Dégradé_sans_nom_2"/><linearGradient id="Dégradé_sans_nom_2-23" y1="197.81" y2="197.81" xlink:href="#Dégradé_sans_nom_2"/><linearGradient id="Dégradé_sans_nom_2-24" y1="242.5" y2="242.5" xlink:href="#Dégradé_sans_nom_2"/><linearGradient id="Dégradé_sans_nom_2-25" y1="207.28" y2="207.28" xlink:href="#Dégradé_sans_nom_2"/><linearGradient id="Dégradé_sans_nom_2-26" y1="240.67" y2="240.67" xlink:href="#Dégradé_sans_nom_2"/><linearGradient id="Dégradé_sans_nom_2-27" y1="221.85" y2="221.85" xlink:href="#Dégradé_sans_nom_2"/><linearGradient id="Dégradé_sans_nom_2-28" y1="220.28" y2="220.28" xlink:href="#Dégradé_sans_nom_2"/><linearGradient id="Dégradé_sans_nom_2-29" y1="255.74" y2="255.74" xlink:href="#Dégradé_sans_nom_2"/><linearGradient id="Dégradé_sans_nom_2-30" y1="262.88" y2="262.88" xlink:href="#Dégradé_sans_nom_2"/><linearGradient id="Dégradé_sans_nom_2-31" y1="352.33" y2="352.33" xlink:href="#Dégradé_sans_nom_2"/><linearGradient id="Dégradé_sans_nom_2-32" y1="317.78" y2="317.78" xlink:href="#Dégradé_sans_nom_2"/><linearGradient id="Dégradé_sans_nom_2-33" y1="352.33" x2="853.44" y2="352.33" xlink:href="#Dégradé_sans_nom_2"/><linearGradient id="Dégradé_sans_nom_2-34" y1="317.78" y2="317.78" xlink:href="#Dégradé_sans_nom_2"/><linearGradient id="Dégradé_sans_nom_2-35" y1="295.42" y2="295.42" xlink:href="#Dégradé_sans_nom_2"/><linearGradient id="Dégradé_sans_nom_2-36" y1="275.27" y2="275.27" xlink:href="#Dégradé_sans_nom_2"/><linearGradient id="Dégradé_sans_nom_2-37" y1="278" y2="278" xlink:href="#Dégradé_sans_nom_2"/><linearGradient id="Dégradé_sans_nom_2-38" y1="283.95" y2="283.95" xlink:href="#Dégradé_sans_nom_2"/><linearGradient id="Dégradé_sans_nom_2-39" y1="273.19" x2="853.44" y2="273.19" xlink:href="#Dégradé_sans_nom_2"/><linearGradient id="Dégradé_sans_nom_2-40" y1="274.56" y2="274.56" xlink:href="#Dégradé_sans_nom_2"/><linearGradient id="Dégradé_sans_nom_2-41" y1="271.77" y2="271.77" xlink:href="#Dégradé_sans_nom_2"/><linearGradient id="Dégradé_sans_nom_2-42" y1="278.83" x2="853.44" y2="278.83" xlink:href="#Dégradé_sans_nom_2"/><linearGradient id="Dégradé_sans_nom_2-43" y1="300.56" y2="300.56" xlink:href="#Dégradé_sans_nom_2"/><linearGradient id="Dégradé_sans_nom_2-44" y1="303.7" x2="853.44" y2="303.7" xlink:href="#Dégradé_sans_nom_2"/><linearGradient id="Dégradé_sans_nom_2-45" y1="302.11" y2="302.11" xlink:href="#Dégradé_sans_nom_2"/><linearGradient id="Dégradé_sans_nom_2-46" y1="292.81" y2="292.81" xlink:href="#Dégradé_sans_nom_2"/><linearGradient id="Dégradé_sans_nom_2-47" y1="294.19" y2="294.19" xlink:href="#Dégradé_sans_nom_2"/><linearGradient id="Dégradé_sans_nom_2-48" y1="292.69" y2="292.69" xlink:href="#Dégradé_sans_nom_2"/><linearGradient id="Dégradé_sans_nom_2-49" y1="299.74" y2="299.74" xlink:href="#Dégradé_sans_nom_2"/><linearGradient id="Dégradé_sans_nom_2-50" y1="299.59" y2="299.59" xlink:href="#Dégradé_sans_nom_2"/><linearGradient id="Dégradé_sans_nom_2-51" y1="287.79" y2="287.79" xlink:href="#Dégradé_sans_nom_2"/><linearGradient id="Dégradé_sans_nom_2-52" y1="285.57" y2="285.57" xlink:href="#Dégradé_sans_nom_2"/><linearGradient id="Dégradé_sans_nom_2-53" y1="295.42" y2="295.42" xlink:href="#Dégradé_sans_nom_2"/><linearGradient id="Dégradé_sans_nom_2-54" y1="275.27" y2="275.27" xlink:href="#Dégradé_sans_nom_2"/><linearGradient id="Dégradé_sans_nom_2-55" y1="278" x2="853.44" y2="278" xlink:href="#Dégradé_sans_nom_2"/><linearGradient id="Dégradé_sans_nom_2-56" y1="283.95" y2="283.95" xlink:href="#Dégradé_sans_nom_2"/><linearGradient id="Dégradé_sans_nom_2-57" y1="273.19" y2="273.19" xlink:href="#Dégradé_sans_nom_2"/><linearGradient id="Dégradé_sans_nom_2-58" y1="274.56" y2="274.56" xlink:href="#Dégradé_sans_nom_2"/><linearGradient id="Dégradé_sans_nom_2-59" y1="271.77" y2="271.77" xlink:href="#Dégradé_sans_nom_2"/><linearGradient id="Dégradé_sans_nom_2-60" y1="278.83" x2="853.44" y2="278.83" xlink:href="#Dégradé_sans_nom_2"/><linearGradient id="Dégradé_sans_nom_2-61" y1="300.56" x2="853.44" y2="300.56" xlink:href="#Dégradé_sans_nom_2"/><linearGradient id="Dégradé_sans_nom_2-62" y1="303.7" x2="853.44" y2="303.7" xlink:href="#Dégradé_sans_nom_2"/><linearGradient id="Dégradé_sans_nom_2-63" y1="302.11" y2="302.11" xlink:href="#Dégradé_sans_nom_2"/><linearGradient id="Dégradé_sans_nom_2-64" y1="292.81" y2="292.81" xlink:href="#Dégradé_sans_nom_2"/><linearGradient id="Dégradé_sans_nom_2-65" y1="294.19" y2="294.19" xlink:href="#Dégradé_sans_nom_2"/><linearGradient id="Dégradé_sans_nom_2-66" y1="292.69" y2="292.69" xlink:href="#Dégradé_sans_nom_2"/><linearGradient id="Dégradé_sans_nom_2-67" y1="299.74" y2="299.74" xlink:href="#Dégradé_sans_nom_2"/><linearGradient id="Dégradé_sans_nom_2-68" y1="299.59" y2="299.59" xlink:href="#Dégradé_sans_nom_2"/><linearGradient id="Dégradé_sans_nom_2-69" y1="287.79" y2="287.79" xlink:href="#Dégradé_sans_nom_2"/><linearGradient id="Dégradé_sans_nom_2-70" y1="285.57" y2="285.57" xlink:href="#Dégradé_sans_nom_2"/><linearGradient id="Dégradé_sans_nom_2-71" y1="203.44" y2="203.44" xlink:href="#Dégradé_sans_nom_2"/><linearGradient id="Dégradé_sans_nom_2-72" y1="242.02" y2="242.02" xlink:href="#Dégradé_sans_nom_2"/><linearGradient id="Dégradé_sans_nom_2-73" y1="240.84" x2="853.44" y2="240.84" xlink:href="#Dégradé_sans_nom_2"/><linearGradient id="Dégradé_sans_nom_2-74" y1="213.68" y2="213.68" xlink:href="#Dégradé_sans_nom_2"/><linearGradient id="Dégradé_sans_nom_2-75" y1="260.28" y2="260.28" xlink:href="#Dégradé_sans_nom_2"/><linearGradient id="Dégradé_sans_nom_2-76" y1="254.52" y2="254.52" xlink:href="#Dégradé_sans_nom_2"/><linearGradient id="Dégradé_sans_nom_2-77" y1="256.76" y2="256.76" xlink:href="#Dégradé_sans_nom_2"/><linearGradient id="Dégradé_sans_nom_2-78" y1="254.12" x2="853.44" y2="254.12" xlink:href="#Dégradé_sans_nom_2"/><linearGradient id="Dégradé_sans_nom_2-79" y1="203.83" y2="203.83" xlink:href="#Dégradé_sans_nom_2"/><linearGradient id="Dégradé_sans_nom_2-80" y1="202.29" y2="202.29" xlink:href="#Dégradé_sans_nom_2"/><linearGradient id="Dégradé_sans_nom_2-81" y1="197.81" y2="197.81" xlink:href="#Dégradé_sans_nom_2"/><linearGradient id="Dégradé_sans_nom_2-82" y1="242.5" y2="242.5" xlink:href="#Dégradé_sans_nom_2"/><linearGradient id="Dégradé_sans_nom_2-83" y1="207.28" y2="207.28" xlink:href="#Dégradé_sans_nom_2"/><linearGradient id="Dégradé_sans_nom_2-84" y1="240.67" y2="240.67" xlink:href="#Dégradé_sans_nom_2"/><linearGradient id="Dégradé_sans_nom_2-85" y1="221.85" y2="221.85" xlink:href="#Dégradé_sans_nom_2"/><linearGradient id="Dégradé_sans_nom_2-86" y1="220.28" y2="220.28" xlink:href="#Dégradé_sans_nom_2"/><linearGradient id="Dégradé_sans_nom_2-87" y1="255.74" y2="255.74" xlink:href="#Dégradé_sans_nom_2"/><linearGradient id="Dégradé_sans_nom_2-88" y1="262.88" y2="262.88" xlink:href="#Dégradé_sans_nom_2"/><linearGradient id="Dégradé_sans_nom_2-89" y1="171.88" y2="171.88" xlink:href="#Dégradé_sans_nom_2"/><linearGradient id="Dégradé_sans_nom_2-90" y1="171.88" y2="171.88" xlink:href="#Dégradé_sans_nom_2"/><linearGradient id="Dégradé_sans_nom_2-91" y1="111.91" y2="111.91" xlink:href="#Dégradé_sans_nom_2"/><linearGradient id="Dégradé_sans_nom_2-92" y1="111.91" y2="111.91" xlink:href="#Dégradé_sans_nom_2"/></defs><path class="cls-1" d="M700.48,822.22H283.85c-35.48,0-64.34-28.87-64.34-64.35V463.46c0-7.93,6.42-14.35,14.35-14.35s14.35,6.42,14.35,14.35v294.42c0,19.65,15.99,35.64,35.64,35.64h416.62c19.65,0,35.64-15.99,35.64-35.64V188.18c0-19.65-15.99-35.64-35.64-35.64h-179.61c-7.93,0-14.35-6.42-14.35-14.35s6.42-14.35,14.35-14.35h179.61c35.48,0,64.35,28.87,64.35,64.35V757.88c0,35.48-28.87,64.35-64.35,64.35Z"/><path class="cls-90" d="M750.47,343.88h-229.61c-7.93,0-14.35-6.42-14.35-14.35s6.42-14.35,14.35-14.35h229.61c7.93,0,14.35,6.42,14.35,14.35s-6.42,14.35-14.35,14.35Z"/><path class="cls-89" d="M578.27,248.21h-38.27c-7.93,0-14.35-6.42-14.35-14.35s6.42-14.35,14.35-14.35h38.27c7.93,0,14.35,6.42,14.35,14.35s-6.42,14.35-14.35,14.35Z"/><path class="cls-88" d="M673.94,248.21h-38.27c-7.93,0-14.35-6.42-14.35-14.35s6.42-14.35,14.35-14.35h38.27c7.93,0,14.35,6.42,14.35,14.35s-6.42,14.35-14.35,14.35Z"/><path class="cls-85" d="M540,477.81h-95.67c-7.93,0-14.35-6.42-14.35-14.35v-57.4c0-7.93,6.42-14.35,14.35-14.35h95.67c7.93,0,14.35,6.42,14.35,14.35v57.4c0,7.93-6.42,14.35-14.35,14.35Zm-81.32-28.7h66.97v-28.7h-66.97v28.7Z"/><path class="cls-87" d="M693.07,477.81h-95.67c-7.93,0-14.35-6.42-14.35-14.35v-57.4c0-7.93,6.42-14.35,14.35-14.35h95.67c7.93,0,14.35,6.42,14.35,14.35v57.4c0,7.93-6.42,14.35-14.35,14.35Zm-81.32-28.7h66.97v-28.7h-66.97v28.7Z"/><path class="cls-91" d="M386.93,592.62h-95.67c-7.93,0-14.35-6.42-14.35-14.35v-57.4c0-7.93,6.43-14.35,14.35-14.35h95.67c7.93,0,14.35,6.42,14.35,14.35v57.4c0,7.93-6.43,14.35-14.35,14.35Zm-81.32-28.7h66.97v-28.7h-66.97v28.7Z"/><path class="cls-86" d="M540,592.62h-95.67c-7.93,0-14.35-6.42-14.35-14.35v-57.4c0-7.93,6.42-14.35,14.35-14.35h95.67c7.93,0,14.35,6.42,14.35,14.35v57.4c0,7.93-6.42,14.35-14.35,14.35Zm-81.32-28.7h66.97v-28.7h-66.97v28.7Z"/><path class="cls-92" d="M693.07,592.62h-95.67c-7.93,0-14.35-6.42-14.35-14.35v-57.4c0-7.93,6.42-14.35,14.35-14.35h95.67c7.93,0,14.35,6.42,14.35,14.35v57.4c0,7.93-6.42,14.35-14.35,14.35Zm-81.32-28.7h66.97v-28.7h-66.97v28.7Z"/><path class="cls-31" d="M386.93,726.56h-95.67c-7.93,0-14.35-6.42-14.35-14.35v-57.4c0-7.93,6.43-14.35,14.35-14.35h95.67c7.93,0,14.35,6.42,14.35,14.35v57.4c0,7.93-6.43,14.35-14.35,14.35Zm-81.32-28.7h66.97v-28.7h-66.97v28.7Z"/><path class="cls-30" d="M693.07,726.56h-248.74c-7.93,0-14.35-6.42-14.35-14.35v-57.4c0-7.93,6.42-14.35,14.35-14.35h248.74c7.93,0,14.35,6.42,14.35,14.35v57.4c0,7.93-6.42,14.35-14.35,14.35Zm-234.39-28.7h220.04v-28.7h-220.04v28.7Z"/><path class="cls-29" d="M291.26,439.55c-113.42,0-205.69-92.27-205.69-205.69S177.84,28.17,291.26,28.17s205.69,92.27,205.69,205.69-92.27,205.69-205.69,205.69Zm0-382.68c-97.59,0-176.99,79.4-176.99,176.99s79.4,176.99,176.99,176.99,176.99-79.4,176.99-176.99S388.85,56.87,291.26,56.87Z"/><g><polygon class="cls-21" points="204.01 222.22 204.11 184.66 175.11 198.88 204.01 222.22"/><polygon class="cls-20" points="161.07 229.75 171.4 255.29 200.57 228.74 161.07 229.75"/><polygon class="cls-19" points="205.13 239.88 204.36 230.88 182.48 250.8 205.13 239.88"/><polygon class="cls-18" points="172.08 201.74 161.28 225.62 200.4 224.62 172.08 201.74"/><polygon class="cls-33" points="221.35 252.78 208.73 267.77 224.53 263.05 221.35 252.78"/><polygon class="cls-32" points="208.93 244.24 205.83 264.8 218.93 249.24 208.93 244.24"/><polygon class="cls-22" points="175.71 258.64 201.04 268.84 204.68 244.68 175.71 258.64"/><polygon class="cls-66" points="224.88 250.23 227.78 259.57 234.76 248.67 224.88 250.23"/><polygon class="cls-63" points="239.44 215.33 240.19 192.33 223.66 214.2 239.44 215.33"/><polygon class="cls-69" points="244.4 189.95 243.59 214.63 266.72 206.82 244.4 189.95"/><polygon class="cls-68" points="238.67 187.5 209.37 183.83 220.3 211.8 238.67 187.5"/><polygon class="cls-71" points="271.83 247.84 286.61 247.84 284.41 237.17 271.83 247.84"/><polygon class="cls-67" points="208.22 192.23 208.14 222.32 217.23 215.3 208.22 192.23"/><polygon class="cls-64" points="264.57 235.15 267.38 246.19 280.18 235.34 264.57 235.15"/><polygon class="cls-65" points="282.16 231.24 271.5 212.46 264.83 231.02 282.16 231.24"/><polygon class="cls-62" points="260.92 229.71 267.69 210.85 245.79 218.25 260.92 229.71"/><polygon class="cls-70" points="271.44 251.97 279.53 259.51 285.07 251.97 271.44 251.97"/><polygon class="cls-61" points="287.08 269.55 287.08 256.2 282.36 262.64 287.08 269.55"/><polygon class="cls-55" points="289.19 371.85 289.19 341.21 266.64 332.81 289.19 371.85"/><polygon class="cls-54" points="289.19 336.8 289.19 298.76 265.41 327.94 289.19 336.8"/><polygon class="cls-58" points="293.32 341.21 293.32 371.85 315.88 332.81 293.32 341.21"/><polygon class="cls-56" points="293.32 298.76 293.32 336.8 317.11 327.94 293.32 298.76"/><polygon class="cls-60" points="225.71 292.13 234.71 302.87 241.27 287.96 225.71 292.13"/><polygon class="cls-59" points="240.93 283.06 234.07 267.49 225.53 275.75 240.93 283.06"/><polygon class="cls-53" points="245.36 279.98 239.61 273.22 243.82 282.78 245.36 279.98"/><polygon class="cls-52" points="224.54 278.33 224.63 289.57 239.71 285.53 224.54 278.33"/><polygon class="cls-57" points="255.51 276.65 258.1 273.68 253.5 269.74 255.51 276.65"/><polygon class="cls-40" points="250.93 270.76 248.85 278.35 253.08 278.16 250.93 270.76"/><polygon class="cls-41" points="249.1 267.01 237.6 266.61 246.38 276.94 249.1 267.01"/><polygon class="cls-25" points="259.15 276.67 256.97 279.16 259.81 281 259.15 276.67"/><polygon class="cls-26" points="249.49 295.22 251.99 305.9 255.44 297.37 249.49 295.22"/><polygon class="cls-50" points="257.79 298.91 253.91 308.49 265.31 305.82 257.79 298.91"/><polygon class="cls-51" points="237.69 304.8 249.76 308.44 246.79 295.78 237.69 304.8"/><polygon class="cls-27" points="279.68 295.53 282 292.28 277.05 290.09 279.68 295.53"/><polygon class="cls-28" points="245.87 292.81 243.81 289.01 239.26 299.37 245.87 292.81"/><polygon class="cls-23" points="271.28 293.21 276.6 295.5 273.89 289.89 271.28 293.21"/><polygon class="cls-24" points="269.75 303.68 276.7 298.53 270.32 295.8 269.75 303.68"/><polygon class="cls-72" points="266.99 303.63 267.58 295.54 260.1 297.3 266.99 303.63"/><polygon class="cls-80" points="281.49 286.24 277.93 287.47 282.17 289.35 281.49 286.24"/><polygon class="cls-78" points="286.08 283.83 284.05 285.09 284.54 287.31 286.08 283.83"/><polygon class="cls-82" points="347.82 302.87 356.81 292.13 341.25 287.96 347.82 302.87"/><polygon class="cls-84" points="348.45 267.49 341.58 283.06 356.99 275.75 348.45 267.49"/><polygon class="cls-81" points="337.16 279.98 338.7 282.78 342.91 273.22 337.16 279.98"/><polygon class="cls-73" points="357.89 289.57 357.98 278.33 342.81 285.53 357.89 289.57"/><polygon class="cls-77" points="329.02 269.74 324.42 273.68 327.01 276.65 329.02 269.74"/><polygon class="cls-79" points="331.59 270.76 329.44 278.16 333.67 278.35 331.59 270.76"/><polygon class="cls-83" points="344.92 266.61 333.42 267.01 336.14 276.94 344.92 266.61"/><polygon class="cls-34" points="322.71 281 325.55 279.16 323.38 276.67 322.71 281"/><polygon class="cls-35" points="327.08 297.37 330.53 305.9 333.03 295.22 327.08 297.37"/><polygon class="cls-36" points="317.21 305.82 328.61 308.49 324.73 298.91 317.21 305.82"/><polygon class="cls-37" points="332.76 308.44 344.83 304.8 335.73 295.78 332.76 308.44"/><polygon class="cls-14" points="305.47 290.09 300.52 292.28 302.84 295.53 305.47 290.09"/><polygon class="cls-15" points="343.26 299.37 338.71 289.01 336.65 292.81 343.26 299.37"/><polygon class="cls-12" points="305.92 295.5 311.24 293.21 308.63 289.89 305.92 295.5"/><polygon class="cls-13" points="312.77 303.68 312.2 295.8 305.82 298.53 312.77 303.68"/><polygon class="cls-16" points="322.42 297.3 314.94 295.54 315.53 303.63 322.42 297.3"/><polygon class="cls-17" points="301.03 286.24 300.35 289.35 304.59 287.47 301.03 286.24"/><polygon class="cls-38" points="298.46 285.09 296.44 283.83 297.98 287.31 298.46 285.09"/><polygon class="cls-39" points="407.41 198.88 378.41 184.66 378.51 222.22 407.41 198.88"/><polygon class="cls-44" points="381.95 228.74 411.12 255.29 421.45 229.75 381.95 228.74"/><polygon class="cls-43" points="378.16 230.88 377.39 239.88 400.04 250.8 378.16 230.88"/><polygon class="cls-46" points="421.24 225.62 410.44 201.74 382.12 224.62 421.24 225.62"/><polygon class="cls-45" points="373.79 267.77 361.18 252.78 357.99 263.05 373.79 267.77"/><polygon class="cls-48" points="363.59 249.24 376.69 264.8 373.59 244.24 363.59 249.24"/><polygon class="cls-47" points="381.48 268.84 406.81 258.64 377.84 244.68 381.48 268.84"/><polygon class="cls-42" points="347.76 248.67 354.74 259.57 357.64 250.23 347.76 248.67"/><polygon class="cls-49" points="358.86 214.2 342.33 192.33 343.08 215.33 358.86 214.2"/><polygon class="cls-7" points="338.93 214.63 338.12 189.95 315.8 206.82 338.93 214.63"/><polygon class="cls-6" points="343.85 187.5 362.22 211.8 373.15 183.83 343.85 187.5"/><polygon class="cls-9" points="298.11 237.17 295.91 247.84 310.69 247.84 298.11 237.17"/><polygon class="cls-8" points="374.38 222.32 374.3 192.24 365.29 215.3 374.38 222.32"/><polygon class="cls-2" points="302.34 235.34 315.14 246.19 317.95 235.15 302.34 235.34"/><polygon class="cls-3" points="311.02 212.46 300.36 231.24 317.69 231.02 311.02 212.46"/><polygon class="cls-4" points="314.83 210.85 321.6 229.71 336.73 218.25 314.83 210.85"/><polygon class="cls-5" points="297.45 251.97 302.98 259.51 311.08 251.97 297.45 251.97"/><polygon class="cls-10" points="295.44 256.21 295.44 269.55 300.16 262.64 295.44 256.21"/><polygon class="cls-11" points="289.19 222.99 289.19 132.28 252.17 120.77 289.19 222.99"/><polygon class="cls-76" points="293.32 132.28 293.32 222.99 330.35 120.77 293.32 132.28"/><path class="cls-74" d="M289.19,127.96v-32.1c-15.13,.63-28.59,8.07-37.17,20.53l37.17,11.56Z"/><path class="cls-75" d="M293.32,95.86v32.1l37.17-11.56c-8.57-12.46-22.04-19.9-37.17-20.53Z"/></g></svg>