<svg xmlns="http://www.w3.org/2000/svg" id="Calque_1" viewBox="0 0 231.8 228.1"><defs><style>.cls-1{fill:#60f1cb;}.cls-2{fill:#60f1cb;}.cls-3{fill:#60f1cb;}</style></defs><g id="Masternode"><g><path class="cls-2" d="M73.98,112h-14.08l.05-1.4c.01-.37-.07-.73-.24-1.05-.36-.67-1.05-1.09-1.81-1.09-.34,0-.66,.08-.96,.24l-6.51,3.45-.18,.16-.1,.06c-.1,.06-.18,.13-.49,.45l-.31,.57-.08,.19v.14c-.03,.12-.04,.23-.04,.35s0,.23,.02,.34l.02,.16s.15,.37,.2,.46c.06,.1,.12,.2,.4,.52,.09,.09,.19,.16,.41,.33l6.66,3.54c.29,.16,.61,.24,.95,.24,.76,0,1.46-.42,1.81-1.09,.17-.32,.25-.67,.24-1.04l-.05-1.4h14.08c1.13,0,2.05-.92,2.05-2.05s-.92-2.05-2.05-2.05Z"/><path class="cls-2" d="M106.04,37.43h19.72c1.13,0,2.05-.92,2.05-2.05V15.67c0-1.13-.92-2.05-2.05-2.05h-19.72c-1.13,0-2.05,.92-2.05,2.05v19.72c0,1.13,.92,2.05,2.05,2.05Zm2.05-19.72h15.62v15.62h-15.62v-15.62Z"/><path class="cls-2" d="M37.23,102.14H17.52c-1.13,0-2.05,.92-2.05,2.05v19.72c0,1.13,.92,2.05,2.05,2.05h19.71c1.13,0,2.05-.92,2.05-2.05v-19.72c0-1.13-.92-2.05-2.05-2.05Zm-2.05,19.72h-15.61v-15.62h15.61v15.62Z"/><path class="cls-2" d="M115.9,74.19c1.13,0,2.05-.92,2.05-2.05v-12.68l.16-1.34h1.35c.32,0,.64-.09,.94-.24,.48-.26,.84-.69,1-1.21,.16-.52,.11-1.08-.15-1.57l-3.44-6.5-.21-.28c-.06-.1-.13-.19-.45-.49-.09-.07-.18-.13-.27-.18-.1-.06-.21-.1-.61-.22h-.65s-.33,.07-.33,.07l-.34,.14c-.1,.05-.2,.12-.52,.4l-.33,.41-3.54,6.65c-.53,1-.15,2.24,.84,2.77,.3,.16,.62,.24,1.03,.24,0,0,1.43-.07,1.43-.07v14.09c0,1.13,.92,2.05,2.05,2.05Z"/><path class="cls-2" d="M145.08,82.83h-58.35c-1.13,0-2.05,.92-2.05,2.05v58.36c0,1.13,.92,2.05,2.05,2.05h58.35c1.13,0,2.05-.92,2.05-2.05v-58.36c0-1.13-.92-2.05-2.05-2.05Zm-2.05,58.35h-54.25v-54.25h54.25v54.25Z"/><path class="cls-2" d="M182.51,113.55s-.15-.37-.21-.47l-.39-.5c-.09-.08-.17-.15-.41-.33l-6.65-3.54c-.3-.16-.62-.24-.96-.24-.76,0-1.46,.42-1.81,1.09-.17,.32-.25,.68-.24,1.05l.05,1.4h-14.08c-1.13,0-2.05,.92-2.05,2.05s.92,2.05,2.05,2.05h14.09l-.06,1.41c-.01,.37,.06,.72,.24,1.05,.36,.67,1.05,1.08,1.81,1.08,.34,0,.66-.08,.96-.24l6.49-3.43,.28-.22c.1-.07,.2-.14,.49-.44,.07-.1,.14-.19,.19-.29,.06-.11,.21-.48,.21-.48l.03-.48c0-.11,0-.23-.02-.34l-.02-.16Z"/><path class="cls-2" d="M214.28,102.14h-19.72c-1.13,0-2.05,.92-2.05,2.05v19.72c0,1.13,.92,2.05,2.05,2.05h19.72c1.13,0,2.05-.92,2.05-2.05v-19.72c0-1.13-.92-2.05-2.05-2.05Zm-2.05,19.72h-15.62v-15.62h15.62v15.62Z"/><path class="cls-2" d="M115.9,153.92c-1.13,0-2.05,.92-2.05,2.05v12.68l-.16,1.34h-1.35c-.32,0-.65,.09-.94,.24-.48,.26-.84,.69-1,1.21s-.11,1.08,.15,1.56l3.53,6.61,.29,.39c.08,.09,.18,.18,.46,.41,.18,.11,.37,.2,.6,.26l.08,.03c.13,.03,.26,.04,.4,.04,.13,0,.25,0,.36-.03l.15-.04c.2-.05,.39-.14,.72-.37,.13-.1,.24-.19,.32-.29l.27-.35,3.54-6.65c.26-.48,.31-1.04,.15-1.56-.16-.52-.51-.95-1-1.21-.29-.15-.6-.24-1.01-.24,0,0-1.44,.07-1.44,.07v-14.1c0-1.13-.92-2.05-2.05-2.05Z"/><path class="cls-2" d="M125.76,190.67h-19.72c-1.13,0-2.05,.92-2.05,2.05v19.72c0,1.13,.92,2.05,2.05,2.05h19.72c1.13,0,2.05-.92,2.05-2.05v-19.72c0-1.13-.92-2.05-2.05-2.05Zm-2.05,19.71h-15.62v-15.62h15.62v15.62Z"/><path class="cls-2" d="M115.9,132.25c10.03,0,18.19-8.16,18.19-18.19s-8.16-18.19-18.19-18.19-18.2,8.16-18.2,18.19,8.16,18.19,18.2,18.19Zm0-32.29c7.77,0,14.09,6.32,14.09,14.09s-6.32,14.09-14.09,14.09-14.1-6.32-14.1-14.09,6.32-14.09,14.1-14.09Z"/><path class="cls-1" d="M122.36,34.68h2.7V16.37h-18.32v18.32h15.62Zm-12.92-15.62h12.92v12.92h-12.92v-12.92Z"/><path class="cls-1" d="M106.04,38.79h19.72c1.88,0,3.4-1.52,3.4-3.4V15.67c0-1.88-1.52-3.4-3.4-3.4h-19.72c-1.88,0-3.4,1.52-3.4,3.4v19.72c0,1.88,1.52,3.4,3.4,3.4Zm-.7-23.12c0-.39,.31-.7,.7-.7h19.72c.39,0,.7,.31,.7,.7v19.72c0,.39-.31,.7-.7,.7h-19.72c-.39,0-.7-.31-.7-.7V15.67Z"/><path class="cls-1" d="M37.23,100.79H17.52c-1.88,0-3.4,1.52-3.4,3.4v19.72c0,1.88,1.52,3.4,3.4,3.4h19.72c1.88,0,3.4-1.52,3.4-3.4v-19.72c0-1.88-1.52-3.4-3.4-3.4Zm.7,23.12c0,.39-.31,.7-.7,.7H17.52c-.39,0-.7-.31-.7-.7v-19.72c0-.39,.31-.7,.7-.7h19.72c.39,0,.7,.31,.7,.7v19.72Z"/><path class="cls-1" d="M20.92,104.89h-2.7v18.32h18.32v-18.32h-15.62Zm12.92,15.62h-12.92v-12.92h12.92v12.92Z"/><path class="cls-1" d="M115.9,75.54c1.88,0,3.4-1.52,3.4-3.4v-12.68c.05,0,.11,0,.16,0,.53,0,1.07-.13,1.58-.4,1.66-.88,2.29-2.94,1.41-4.6l-3.54-6.65c-.05-.09-.12-.15-.18-.23-.11-.16-.22-.31-.35-.46-.12-.13-.25-.25-.39-.36-.15-.12-.3-.22-.47-.31-.16-.09-.32-.16-.5-.22-.1-.03-.18-.1-.28-.12-.09-.02-.18,0-.27-.02-.19-.03-.37-.04-.56-.04-.19,0-.37,.01-.55,.04-.09,.01-.18,0-.27,.02-.1,.03-.19,.09-.29,.12-.17,.06-.33,.13-.49,.22-.17,.09-.33,.19-.48,.31-.14,.11-.27,.23-.39,.36-.13,.14-.25,.29-.36,.46-.05,.08-.13,.14-.18,.23l-3.54,6.65c-.88,1.66-.25,3.72,1.4,4.6,.51,.27,1.05,.4,1.59,.4,.05,0,.1,0,.15,0v12.68c0,1.88,1.52,3.4,3.4,3.4Zm-.6-26.45h0Zm-2.95,7.68c-.08,0-.19-.01-.32-.08-.34-.18-.47-.61-.29-.95l3.43-6.43,.06-.07,.11-.17,.14-.16h0s.2-.11,.2-.11h0s.05-.03,.05-.03c.02,0,.04,0,.06,0h.12v-.05h.02s.09,.04,.09,.04h0s.02,0,.03,0l.06,.02,.19,.1h0s.15,.17,.15,.17h0c.05,.09,.11,.16,.17,.24l3.43,6.44c.18,.34,.05,.77-.29,.95-.1,.05-.2,.08-.33,.08h0l-2.83-.14v15.52c0,.39-.31,.7-.7,.7s-.7-.31-.7-.7v-12.68l-.15-2.7h-2.7Z"/><path class="cls-1" d="M90.12,85.57h-2.7v56.95h56.95v-56.95h-54.25Zm51.55,54.25h-51.55v-51.55h51.55v51.55Z"/><path class="cls-1" d="M73.98,110.65h-12.68c.02-.58-.1-1.18-.4-1.74-.61-1.15-1.79-1.81-3-1.81-.54,0-1.09,.13-1.59,.4l-6.65,3.54c-.09,.05-.14,.12-.22,.17-.17,.11-.32,.22-.47,.36-.13,.12-.25,.25-.36,.39-.12,.15-.22,.3-.31,.47-.09,.17-.16,.34-.23,.52-.03,.09-.09,.17-.12,.27-.02,.09,0,.17-.02,.26-.03,.19-.04,.37-.04,.57s.01,.38,.04,.57c.01,.09,0,.17,.02,.26,.02,.1,.09,.18,.12,.27,.06,.18,.13,.35,.22,.51,.09,.17,.19,.33,.31,.48,.11,.14,.22,.26,.35,.38,.15,.14,.31,.26,.49,.37,.08,.05,.13,.12,.21,.16l6.65,3.54c.51,.27,1.05,.4,1.59,.4,1.22,0,2.39-.65,3-1.8,.29-.55,.42-1.15,.4-1.73h12.68c1.88,0,3.4-1.52,3.4-3.4s-1.52-3.4-3.4-3.4Zm0,4.1h-15.49l.11,2.81c0,.13-.02,.25-.08,.36-.14,.27-.41,.37-.62,.37-.11,0-.22-.03-.32-.08l-6.43-3.42-.07-.06-.18-.11-.17-.15h0s-.11-.2-.11-.2h0s-.02-.05-.02-.05c0-.02,0-.03,0-.05v-.23s0-.02,0-.03l.02-.07,.1-.19h0s.17-.15,.17-.15h0c.08-.06,.16-.11,.23-.17l6.45-3.44c.1-.05,.2-.08,.32-.08,.2,0,.47,.1,.62,.38,.06,.11,.09,.23,.08,.36l-.11,2.81h15.49c.39,0,.7,.31,.7,.7s-.31,.7-.7,.7Z"/><path class="cls-1" d="M183.84,113.23c-.02-.1-.08-.17-.12-.27-.06-.18-.14-.35-.23-.52-.09-.17-.19-.32-.31-.46-.11-.14-.23-.27-.36-.39-.15-.14-.3-.25-.47-.36-.08-.05-.14-.13-.22-.17l-6.65-3.54c-.51-.27-1.05-.4-1.59-.4-1.22,0-2.4,.65-3.01,1.8-.3,.55-.42,1.15-.4,1.74h-12.68c-1.88,0-3.4,1.52-3.4,3.4s1.52,3.4,3.4,3.4h12.68c-.02,.59,.1,1.18,.4,1.73,.61,1.15,1.79,1.8,3,1.8,.54,0,1.09-.13,1.59-.4l6.65-3.54c.08-.04,.14-.11,.21-.16,.17-.11,.33-.23,.49-.37,.13-.12,.24-.24,.35-.38,.12-.15,.22-.3,.31-.47,.09-.17,.16-.34,.23-.52,.03-.09,.09-.17,.12-.27,.02-.09,0-.17,.02-.26,.03-.19,.04-.37,.04-.57,0-.19-.01-.38-.04-.57-.01-.09,0-.17-.02-.25Zm-2.64,.94s0,.02,0,.03l-.02,.07-.11,.2-.17,.15h0c-.08,.05-.16,.11-.23,.17l-6.45,3.43c-.1,.05-.21,.08-.32,.08-.2,0-.47-.1-.62-.38-.06-.11-.08-.23-.08-.35l.11-2.81h-15.49c-.39,0-.7-.31-.7-.7s.31-.7,.7-.7h15.49l-.11-2.81c0-.13,.02-.25,.08-.36,.15-.27,.42-.37,.62-.37,.11,0,.22,.03,.32,.08l6.43,3.43,.07,.06,.17,.11,.16,.15h0s.1,.2,.1,.2h0s.02,.05,.02,.05c0,.02,0,.04,0,.05v.23Z"/><path class="cls-1" d="M214.28,100.79h-19.72c-1.88,0-3.4,1.52-3.4,3.4v19.72c0,1.88,1.52,3.4,3.4,3.4h19.72c1.88,0,3.4-1.52,3.4-3.4v-19.72c0-1.88-1.52-3.4-3.4-3.4Zm.7,23.12c0,.39-.31,.7-.7,.7h-19.72c-.39,0-.7-.31-.7-.7v-19.72c0-.39,.31-.7,.7-.7h19.72c.39,0,.7,.31,.7,.7v19.72Z"/><path class="cls-1" d="M197.97,104.89h-2.7v18.32h18.32v-18.32h-15.62Zm12.92,15.62h-12.92v-12.92h12.92v12.92Z"/><path class="cls-1" d="M115.9,133.6c10.78,0,19.54-8.77,19.54-19.54s-8.77-19.54-19.54-19.54-19.55,8.77-19.55,19.54,8.77,19.54,19.55,19.54Zm0-36.39c9.29,0,16.84,7.56,16.84,16.84s-7.56,16.84-16.84,16.84-16.85-7.56-16.85-16.84,7.56-16.84,16.85-16.84Z"/><path class="cls-1" d="M145.08,81.47h-58.35c-1.88,0-3.4,1.52-3.4,3.4v58.35c0,1.88,1.52,3.4,3.4,3.4h58.35c1.88,0,3.4-1.52,3.4-3.4v-58.35c0-1.88-1.52-3.4-3.4-3.4Zm.7,61.75c0,.39-.31,.7-.7,.7h-58.35c-.39,0-.7-.31-.7-.7v-58.35c0-.39,.31-.7,.7-.7h58.35c.39,0,.7,.31,.7,.7v58.35Z"/><path class="cls-1" d="M115.9,129.5c8.52,0,15.44-6.93,15.44-15.44s-6.93-15.44-15.44-15.44-15.45,6.93-15.45,15.44,6.93,15.44,15.45,15.44Zm0-28.19c7.03,0,12.74,5.72,12.74,12.74s-5.72,12.74-12.74,12.74-12.75-5.72-12.75-12.74,5.72-12.74,12.75-12.74Z"/><path class="cls-1" d="M109.44,193.42h-2.7v18.32h18.32v-18.32h-15.62Zm12.92,15.62h-12.92v-12.92h12.92v12.92Z"/><path class="cls-1" d="M125.76,189.32h-19.72c-1.88,0-3.4,1.52-3.4,3.4v19.72c0,1.88,1.52,3.4,3.4,3.4h19.72c1.88,0,3.4-1.52,3.4-3.4v-19.72c0-1.88-1.52-3.4-3.4-3.4Zm.7,23.12c0,.39-.31,.7-.7,.7h-19.72c-.39,0-.7-.31-.7-.7v-19.72c0-.39,.31-.7,.7-.7h19.72c.39,0,.7,.31,.7,.7v19.72Z"/><path class="cls-1" d="M115.9,152.57c-1.88,0-3.4,1.52-3.4,3.4v12.68c-.05,0-.11,0-.16,0-.53,0-1.07,.13-1.58,.4-1.66,.88-2.28,2.94-1.4,4.6l3.54,6.65c.06,.11,.14,.19,.21,.29,.07,.11,.14,.21,.22,.31,.16,.19,.34,.35,.53,.49,.08,.06,.15,.13,.23,.18,.29,.18,.61,.32,.94,.41,.01,0,.02,.01,.04,.02,.27,.07,.55,.1,.82,.1s.55-.03,.82-.1c.01,0,.02-.01,.04-.02,.34-.09,.65-.23,.94-.41,.09-.05,.15-.12,.23-.19,.19-.15,.37-.3,.53-.49,.08-.1,.15-.2,.22-.31,.07-.1,.15-.18,.21-.29l3.54-6.65c.88-1.66,.25-3.72-1.41-4.6-.5-.27-1.03-.4-1.57-.4-.05,0-.11,0-.16,0v-12.68c0-1.88-1.52-3.4-3.4-3.4Zm3.56,18.78c.1,0,.2,.03,.3,.08,.34,.18,.47,.61,.29,.95l-3.46,6.5c-.05,.06-.1,.13-.14,.2l-.15,.16h0s-.12,.1-.12,.1c-.04,.02-.07,.03-.1,.04l-.19,.05-.18-.05s-.07-.02-.11-.04l-.05-.05-.06-.05-.15-.16h0c-.04-.07-.09-.13-.14-.2l-3.46-6.5c-.18-.34-.05-.77,.28-.95,.13-.07,.24-.09,.33-.09h0l2.84,.14v-15.52c0-.39,.31-.7,.7-.7s.7,.31,.7,.7v12.68l.16,2.7h2.7Z"/><path class="cls-3" d="M37.23,100.79H17.52c-1.88,0-3.4,1.52-3.4,3.4v19.72c0,1.88,1.52,3.4,3.4,3.4h19.72c1.88,0,3.4-1.52,3.4-3.4v-19.72c0-1.88-1.52-3.4-3.4-3.4Zm2.05,23.12c0,1.13-.92,2.05-2.05,2.05H17.52c-1.13,0-2.05-.92-2.05-2.05v-19.72c0-1.13,.92-2.05,2.05-2.05h19.72c1.13,0,2.05,.92,2.05,2.05v19.72Z"/><path class="cls-3" d="M115.9,75.54c1.88,0,3.4-1.52,3.4-3.4v-12.68c.05,0,.11,0,.16,0,.53,0,1.07-.13,1.58-.4,1.66-.88,2.29-2.94,1.41-4.6l-3.54-6.65c-.05-.09-.12-.15-.18-.23-.11-.16-.22-.31-.35-.46-.12-.13-.25-.25-.39-.36-.15-.12-.3-.22-.47-.31-.16-.09-.32-.16-.5-.22-.1-.03-.18-.1-.28-.12-.09-.02-.18,0-.27-.02-.19-.03-.37-.04-.56-.04-.19,0-.37,.01-.55,.04-.09,.01-.18,0-.27,.02-.1,.03-.19,.09-.29,.12-.17,.06-.33,.13-.49,.22-.17,.09-.33,.19-.48,.31-.14,.11-.27,.23-.39,.36-.13,.14-.25,.29-.36,.46-.05,.08-.13,.14-.18,.23l-3.54,6.65c-.88,1.66-.25,3.72,1.4,4.6,.51,.27,1.05,.4,1.59,.4,.05,0,.1,0,.15,0v12.68c0,1.88,1.52,3.4,3.4,3.4Zm-.48-28.12h0Zm-1.31,1.03h0Zm-1.76,9.66c-.33,0-.66-.08-.96-.24-1-.53-1.38-1.78-.85-2.77l3.5-6.56,.11-.13,.06-.09c.06-.1,.13-.19,.21-.27,.07-.08,.15-.15,.24-.22,.09-.07,.18-.13,.28-.19,.1-.05,.19-.09,.3-.13l.08-.04,.04-.02h.11s.11-.02,.11-.02c.11-.02,.22-.02,.33-.02,.11,0,.22,0,.34,.02h.15s.08,.05,.08,.05l.09,.03c.11,.04,.2,.08,.3,.13,.1,.05,.19,.11,.29,.19,.08,.07,.16,.14,.23,.21,.08,.09,.15,.18,.21,.28,.05,.07,.1,.14,.17,.22l3.49,6.56c.53,1,.15,2.24-.85,2.78-.29,.16-.61,.24-1.02,.24h-.02l-1.42-.07v14.1c0,1.13-.92,2.05-2.05,2.05s-2.05-.92-2.05-2.05v-12.68l-.15-1.35h-1.35Z"/><path class="cls-3" d="M122.36,33.33h1.35v-15.62h-15.62v15.62h14.27Zm-12.92-14.27h12.92v12.92h-12.92v-12.92Z"/><path class="cls-3" d="M106.04,38.79h19.72c1.88,0,3.4-1.52,3.4-3.4V15.67c0-1.88-1.52-3.4-3.4-3.4h-19.72c-1.88,0-3.4,1.52-3.4,3.4v19.72c0,1.88,1.52,3.4,3.4,3.4Zm-2.05-23.12c0-1.13,.92-2.05,2.05-2.05h19.72c1.13,0,2.05,.92,2.05,2.05v19.72c0,1.13-.92,2.05-2.05,2.05h-19.72c-1.13,0-2.05-.92-2.05-2.05V15.67Z"/><path class="cls-3" d="M20.92,106.24h-1.35v15.62h15.62v-15.62h-14.27Zm12.92,14.27h-12.92v-12.92h12.92v12.92Z"/><path class="cls-3" d="M115.9,133.6c10.78,0,19.54-8.77,19.54-19.54s-8.77-19.54-19.54-19.54-19.55,8.77-19.55,19.54,8.77,19.54,19.55,19.54Zm0-37.74c10.03,0,18.19,8.16,18.19,18.19s-8.16,18.19-18.19,18.19-18.2-8.16-18.2-18.19,8.16-18.19,18.2-18.19Z"/><path class="cls-3" d="M183.84,113.23c-.02-.1-.08-.17-.12-.27-.06-.18-.14-.35-.23-.52-.09-.17-.19-.32-.31-.46-.11-.14-.23-.27-.36-.39-.15-.14-.3-.25-.47-.36-.08-.05-.14-.13-.22-.17l-6.65-3.54c-.51-.27-1.05-.4-1.59-.4-1.22,0-2.4,.65-3.01,1.8-.3,.55-.42,1.15-.4,1.74h-12.68c-1.88,0-3.4,1.52-3.4,3.4s1.52,3.4,3.4,3.4h12.68c-.02,.59,.1,1.18,.4,1.73,.61,1.15,1.79,1.8,3,1.8,.54,0,1.09-.13,1.59-.4l6.65-3.54c.08-.04,.14-.11,.21-.16,.17-.11,.33-.23,.49-.37,.13-.12,.24-.24,.35-.38,.12-.15,.22-.3,.31-.47,.09-.17,.16-.34,.23-.52,.03-.09,.09-.17,.12-.27,.02-.09,0-.17,.02-.26,.03-.19,.04-.37,.04-.57,0-.19-.01-.38-.04-.57-.01-.09,0-.17-.02-.25Zm-1.31,1.17v.14s-.05,.08-.05,.08l-.03,.09c-.04,.11-.08,.21-.13,.31-.05,.1-.12,.19-.19,.28-.06,.08-.13,.16-.21,.23-.09,.08-.19,.16-.29,.22-.07,.05-.14,.1-.21,.16l-6.56,3.49c-.3,.16-.62,.24-.96,.24-.76,0-1.46-.42-1.81-1.09-.17-.32-.25-.67-.24-1.04l.06-1.4h-14.08c-1.13,0-2.05-.92-2.05-2.05s.92-2.05,2.05-2.05h14.08l-.06-1.41c-.01-.36,.07-.73,.24-1.05,.36-.67,1.05-1.09,1.81-1.09h0c.34,0,.66,.08,.96,.24l6.56,3.49,.13,.11,.09,.05c.1,.06,.19,.13,.28,.21,.08,.07,.15,.15,.22,.24,.07,.09,.13,.18,.18,.28,.06,.1,.1,.2,.14,.31,.02,.05,.04,.1,.06,.16v.05s.02,.11,.02,.11c.02,.11,.02,.22,.02,.34,0,.12,0,.23-.03,.35Z"/><path class="cls-3" d="M214.28,100.79h-19.72c-1.88,0-3.4,1.52-3.4,3.4v19.72c0,1.88,1.52,3.4,3.4,3.4h19.72c1.88,0,3.4-1.52,3.4-3.4v-19.72c0-1.88-1.52-3.4-3.4-3.4Zm2.05,23.12c0,1.13-.92,2.05-2.05,2.05h-19.72c-1.13,0-2.05-.92-2.05-2.05v-19.72c0-1.13,.92-2.05,2.05-2.05h19.72c1.13,0,2.05,.92,2.05,2.05v19.72Z"/><path class="cls-3" d="M145.08,81.47h-58.35c-1.88,0-3.4,1.52-3.4,3.4v58.35c0,1.88,1.52,3.4,3.4,3.4h58.35c1.88,0,3.4-1.52,3.4-3.4v-58.35c0-1.88-1.52-3.4-3.4-3.4Zm2.05,61.75c0,1.13-.92,2.05-2.05,2.05h-58.35c-1.13,0-2.05-.92-2.05-2.05v-58.35c0-1.13,.92-2.05,2.05-2.05h58.35c1.13,0,2.05,.92,2.05,2.05v58.35Z"/><path class="cls-3" d="M197.97,106.24h-1.35v15.62h15.62v-15.62h-14.27Zm12.92,14.27h-12.92v-12.92h12.92v12.92Z"/><path class="cls-3" d="M115.9,152.57c-1.88,0-3.4,1.52-3.4,3.4v12.68c-.05,0-.11,0-.16,0-.53,0-1.07,.13-1.58,.4-1.66,.88-2.28,2.94-1.4,4.6l3.54,6.65c.06,.11,.14,.19,.21,.29,.07,.11,.14,.21,.22,.31,.16,.19,.34,.35,.53,.49,.08,.06,.15,.13,.23,.18,.29,.18,.61,.32,.94,.41,.01,0,.02,.01,.04,.02,.27,.07,.55,.1,.82,.1s.55-.03,.82-.1c.01,0,.02-.01,.04-.02,.34-.09,.65-.23,.94-.41,.09-.05,.15-.12,.23-.19,.19-.15,.37-.3,.53-.49,.08-.1,.15-.2,.22-.31,.07-.1,.15-.18,.21-.29l3.54-6.65c.88-1.66,.25-3.72-1.41-4.6-.5-.27-1.03-.4-1.57-.4-.05,0-.11,0-.16,0v-12.68c0-1.88-1.52-3.4-3.4-3.4Zm3.56,17.43c.32,0,.64,.08,.94,.24,1,.53,1.38,1.77,.85,2.77l-3.52,6.61c-.05,.07-.1,.13-.18,.24-.03,.05-.07,.1-.11,.15-.08,.09-.18,.19-.32,.29l-.11,.09-.03,.03c-.18,.12-.38,.2-.56,.25l-.14,.04c-.12,.02-.25,.04-.38,.04-.12,0-.25-.01-.36-.03h0l-.15-.04c-.19-.05-.39-.13-.55-.24l-.12-.1-.03-.02c-.14-.1-.24-.2-.32-.29-.04-.05-.07-.1-.13-.19l-.1-.13-.03-.04-3.54-6.65c-.53-1-.15-2.24,.84-2.77,.3-.16,.62-.24,1.02-.24h.02l1.42,.07v-14.1c0-1.13,.92-2.05,2.05-2.05s2.05,.92,2.05,2.05v12.68l.16,1.35h1.35Z"/><path class="cls-3" d="M109.44,194.77h-1.35v15.62h15.62v-15.62h-14.27Zm12.92,14.27h-12.92v-12.92h12.92v12.92Z"/><path class="cls-3" d="M90.12,86.93h-1.35v54.25h54.25v-54.25h-52.9Zm51.55,52.9h-51.55v-51.55h51.55v51.55Z"/><path class="cls-3" d="M125.76,189.32h-19.72c-1.88,0-3.4,1.52-3.4,3.4v19.72c0,1.88,1.52,3.4,3.4,3.4h19.72c1.88,0,3.4-1.52,3.4-3.4v-19.72c0-1.88-1.52-3.4-3.4-3.4Zm2.05,23.12c0,1.13-.92,2.05-2.05,2.05h-19.72c-1.13,0-2.05-.92-2.05-2.05v-19.72c0-1.13,.92-2.05,2.05-2.05h19.72c1.13,0,2.05,.92,2.05,2.05v19.72Z"/><path class="cls-3" d="M115.9,128.15c7.77,0,14.09-6.32,14.09-14.09s-6.32-14.09-14.09-14.09-14.1,6.32-14.1,14.09,6.32,14.09,14.1,14.09Zm0-26.84c7.03,0,12.74,5.72,12.74,12.74s-5.72,12.74-12.74,12.74-12.75-5.72-12.75-12.74,5.72-12.74,12.75-12.74Z"/><path class="cls-3" d="M73.98,110.65h-12.68c.02-.58-.1-1.18-.4-1.74-.61-1.15-1.79-1.81-3-1.81-.54,0-1.09,.13-1.59,.4l-6.65,3.54c-.09,.05-.14,.12-.22,.17-.17,.11-.32,.22-.47,.36-.13,.12-.25,.25-.36,.39-.12,.15-.22,.3-.31,.47-.09,.17-.16,.34-.23,.52-.03,.09-.09,.17-.12,.27-.02,.09,0,.17-.02,.26-.03,.19-.04,.37-.04,.57s.01,.38,.04,.57c.01,.09,0,.17,.02,.26,.02,.1,.09,.18,.12,.27,.06,.18,.13,.35,.22,.51,.09,.17,.19,.33,.31,.48,.11,.14,.22,.26,.35,.38,.15,.14,.31,.26,.49,.37,.08,.05,.13,.12,.21,.16l6.65,3.54c.51,.27,1.05,.4,1.59,.4,1.22,0,2.39-.65,3-1.8,.29-.55,.42-1.15,.4-1.73h12.68c1.88,0,3.4-1.52,3.4-3.4s-1.52-3.4-3.4-3.4Zm0,5.45h-14.08l.06,1.4c.01,.37-.07,.72-.24,1.05-.36,.67-1.05,1.09-1.81,1.09-.34,0-.66-.08-.96-.24l-6.56-3.49-.12-.1-.09-.06c-.1-.07-.2-.14-.29-.22-.08-.07-.14-.14-.21-.23-.07-.09-.13-.18-.19-.29-.05-.1-.1-.2-.13-.31-.02-.06-.05-.12-.06-.15v-.06s-.02-.11-.02-.11c-.02-.11-.02-.22-.02-.34s0-.23,.02-.34v-.14s.05-.08,.05-.08l.03-.09c.04-.11,.08-.21,.13-.31,.05-.1,.11-.19,.18-.28,.07-.08,.14-.16,.21-.23,.09-.08,.18-.15,.28-.22,.07-.05,.14-.1,.22-.16l6.56-3.49c.3-.16,.62-.24,.95-.24,.76,0,1.46,.42,1.81,1.09,.17,.32,.25,.68,.24,1.05l-.06,1.4h14.08c1.13,0,2.05,.92,2.05,2.05s-.92,2.05-2.05,2.05Z"/></g></g></svg>