<svg xmlns="http://www.w3.org/2000/svg" id="Calque_1" viewBox="0 0 235.66 285.89"><defs><style>.cls-1{fill:#60f1cb;}.cls-2{fill:#60f1cb;}.cls-3{fill:#60f1cb;}</style></defs><g id="Node"><g><path class="cls-2" d="M193.47,79.15c.63-.37,1.03-1.05,1.03-1.78v-22.9s-.05-.41-.05-.41c-.1-.63-.45-1.17-.97-1.48l-19.92-11.5c-.31-.18-.66-.27-1.02-.27s-.71,.1-1.03,.27l-19.92,11.5c-.52,.3-.88,.84-1.03,1.78v23c0,.73,.39,1.41,1.03,1.78l18.9,10.91v27.44l-18.9,10.91c-.15,.09-.3,.21-.57,.47l-31.13,24.73v-24.37l18.9-10.91c.63-.37,1.02-1.05,1.02-1.78v-22.91s-.05-.39-.05-.39c-.1-.64-.45-1.18-.97-1.48l-19.92-11.5c-.31-.18-.67-.28-1.03-.28s-.71,.1-1.03,.28l-19.92,11.5c-.52,.3-.88,.84-1.02,1.77v23c0,.73,.39,1.41,1.03,1.78l18.9,10.91v27.44l-18.9,10.91c-.16,.09-.3,.21-.57,.47l-31.12,24.73v-24.37l18.9-10.91c.63-.36,1.02-1.04,1.02-1.77v-22.9s-.05-.4-.05-.4c-.1-.64-.45-1.18-.97-1.48l-19.92-11.5c-.31-.18-.67-.28-1.03-.28s-.71,.1-1.03,.28l-19.92,11.5c-.52,.3-.88,.84-1.02,1.77v23c0,.73,.39,1.41,1.03,1.78l18.9,10.91v27.44l-18.9,10.91c-.52,.3-.88,.84-1.03,1.78v23c0,.73,.39,1.41,1.03,1.78l19.92,11.5c.31,.18,.67,.27,1.03,.27s.71-.1,1.03-.27l19.92-11.5c.63-.37,1.02-1.05,1.02-1.78v-22.9s-.05-.4-.05-.4c-.1-.64-.45-1.17-.97-1.48l-17.31-9.99,29.09-23.11v18.71c0,.73,.39,1.41,1.03,1.78l19.92,11.5c.31,.18,.66,.27,1.03,.27s.72-.1,1.03-.27l19.92-11.5c.63-.36,1.02-1.04,1.02-1.77v-22.9s-.05-.4-.05-.4c-.1-.64-.45-1.18-.97-1.48l-17.31-10,29.09-23.11v18.71c0,.73,.39,1.41,1.03,1.78l19.92,11.5c.31,.18,.67,.28,1.03,.28s.71-.1,1.02-.27l19.92-11.5c.63-.36,1.02-1.04,1.02-1.77v-22.89s-.05-.41-.05-.41c-.1-.63-.45-1.17-.97-1.47l-18.89-10.91v-27.44l18.89-10.91ZM63.14,123.58l15.86,9.16-15.86,9.16-15.86-9.16,15.86-9.16Zm-17.87,30.95v-18.23l15.82,9.13v8.59c0,1.13,.92,2.05,2.05,2.05s2.05-.92,2.05-2.05v-8.59l15.82-9.13v18.23l-17.87,10.32-17.87-10.32Zm35.74,75.81l-17.87,10.32-17.87-10.32v-18.22l15.82,9.13v8.59c0,1.13,.92,2.05,2.05,2.05s2.05-.92,2.05-2.05v-8.59l15.82-9.13v18.22Zm-2.01-21.8l-15.86,9.16-15.86-9.16,15.86-9.15,15.86,9.15Zm38.84-124.14l15.86,9.16-15.86,9.15-15.86-9.15,15.86-9.16Zm-17.87,30.95v-18.22l15.82,9.13v8.59c0,1.13,.92,2.05,2.05,2.05s2.05-.92,2.05-2.05v-8.59l15.82-9.13v18.22l-17.87,10.32-17.87-10.32Zm35.74,75.81l-17.87,10.32-17.87-10.32v-18.22l15.82,9.13v8.59c0,1.13,.92,2.05,2.05,2.05s2.05-.92,2.05-2.05v-8.59l15.82-9.13v18.22Zm-2.01-21.8l-15.86,9.16-15.86-9.16,15.86-9.16,15.86,9.16Zm38.84-124.14l15.86,9.16-15.86,9.15-15.86-9.15,15.86-9.16Zm17.87,106.76l-17.87,10.32-17.87-10.32v-18.22l15.82,9.13v8.6c0,1.13,.92,2.05,2.05,2.05s2.05-.92,2.05-2.05v-8.6l15.82-9.13v18.22Zm-2.01-21.8l-15.86,9.16-15.86-9.16,15.86-9.16,15.86,9.16Zm-15.86-43.69l-17.87-10.32v-18.22l15.82,9.13v8.59c0,1.13,.92,2.05,2.05,2.05s2.05-.92,2.05-2.05v-8.59l15.82-9.13v18.22l-17.87,10.32Z"/><path class="cls-1" d="M61.79,142.67l1.35,.78,1.35-.78,13.16-7.6,4.05-2.34-4.05-2.34-13.16-7.6-1.35-.78-1.35,.78-13.16,7.6-4.05,2.34,4.05,2.34,13.16,7.6Zm1.35-17.53l13.16,7.6-13.16,7.6-13.16-7.6,13.16-7.6Z"/><path class="cls-1" d="M65.19,219.69l-1.35,.78v9.37c0,.39-.31,.7-.7,.7s-.7-.31-.7-.7v-9.37l-1.35-.78-13.12-7.58-4.05-2.34v21.34l1.35,.78,16.52,9.54,1.35,.78,1.35-.78,16.52-9.54,1.35-.78v-21.34l-4.05,2.34-13.12,7.58Zm14.47,9.87l-16.52,9.54-16.52-9.54v-15.11l13.12,7.58v7.81c0,1.88,1.52,3.4,3.4,3.4s3.4-1.52,3.4-3.4v-7.81l13.12-7.58v15.11Z"/><path class="cls-1" d="M61.79,198.61l-13.16,7.6-4.05,2.34,4.05,2.34,13.16,7.6,1.35,.78,1.35-.78,13.16-7.6,4.05-2.34-4.05-2.34-13.16-7.6-1.35-.78-1.35,.78Zm14.51,9.93l-13.16,7.6-13.16-7.6,13.16-7.6,13.16,7.6Z"/><path class="cls-1" d="M64.49,165.63l16.52-9.54,1.35-.78v-21.34l-4.05,2.34-13.12,7.57-1.35,.78v9.37c0,.39-.31,.7-.7,.7s-.7-.31-.7-.7v-9.37l-1.35-.78-13.12-7.57-4.05-2.34v21.34l1.35,.78,16.52,9.54,1.35,.78,1.35-.78Zm-17.87-11.88v-15.11l13.12,7.57v7.81c0,1.88,1.52,3.4,3.4,3.4s3.4-1.52,3.4-3.4v-7.81l13.12-7.57v15.11l-16.52,9.54-16.52-9.54Z"/><path class="cls-1" d="M171.17,120.26l-13.16,7.6-4.05,2.34,4.05,2.34,13.16,7.6,1.35,.78,1.35-.78,13.16-7.6,4.05-2.34-4.05-2.34-13.16-7.6-1.35-.78-1.35,.78Zm14.51,9.94l-13.16,7.6-13.16-7.6,13.16-7.6,13.16,7.6Z"/><path class="cls-1" d="M174.58,65.53l-1.35,.78v9.37c0,.39-.31,.7-.7,.7s-.7-.31-.7-.7v-9.37l-1.35-.78-13.12-7.58-4.05-2.34v21.34l1.35,.78,16.52,9.54,1.35,.78,1.35-.78,16.52-9.54,1.35-.78v-21.34l-4.05,2.34-13.12,7.57Zm14.47,9.87l-16.52,9.54-16.52-9.54v-15.11l13.12,7.57v7.81c0,1.88,1.52,3.4,3.4,3.4s3.4-1.52,3.4-3.4v-7.81l13.12-7.57v15.11Z"/><path class="cls-1" d="M116.48,103.49l1.35,.78,1.35-.78,13.16-7.6,4.05-2.34-4.05-2.34-13.16-7.6-1.35-.78-1.35,.78-13.16,7.6-4.05,2.34,4.05,2.34,13.16,7.6Zm1.35-17.53l13.16,7.6-13.16,7.6-13.16-7.6,13.16-7.6Z"/><path class="cls-1" d="M195.78,53.86c-.15-1.01-.73-1.92-1.63-2.44l-19.92-11.5c-.53-.3-1.11-.46-1.7-.46s-1.17,.15-1.7,.46l-19.92,11.5c-.9,.52-1.48,1.43-1.63,2.44-.01,.09-.03,.17-.03,.25,0,.09-.03,.17-.03,.25v23c0,1.22,.65,2.34,1.7,2.94l18.22,10.52v25.88l-18.22,10.52c-.28,.16-.52,.36-.74,.58l-28.93,22.99v-20.8l18.22-10.52c1.05-.61,1.7-1.73,1.7-2.94v-23c0-.09-.03-.17-.03-.25,0-.08-.02-.16-.03-.25-.15-1.01-.73-1.92-1.63-2.44l-19.92-11.5c-.53-.3-1.11-.46-1.7-.46s-1.17,.15-1.7,.46l-19.92,11.5c-.9,.52-1.48,1.43-1.63,2.44-.01,.08-.03,.16-.03,.25,0,.09-.03,.17-.03,.25v23c0,1.22,.65,2.34,1.7,2.94l18.22,10.52v25.88l-18.22,10.52c-.28,.16-.52,.36-.74,.58l-28.93,22.99v-20.8l18.22-10.52c1.05-.61,1.7-1.73,1.7-2.95v-23c0-.09-.03-.17-.03-.25,0-.08-.02-.16-.03-.25-.15-1.01-.73-1.92-1.63-2.44l-19.92-11.5c-.53-.3-1.11-.46-1.7-.46s-1.17,.15-1.7,.46l-19.92,11.5c-.9,.52-1.48,1.43-1.63,2.44-.01,.09-.03,.17-.03,.25,0,.09-.03,.17-.03,.25v23c0,1.22,.65,2.34,1.7,2.95l18.22,10.52v25.88l-18.22,10.52c-.9,.52-1.48,1.43-1.63,2.45-.01,.08-.02,.16-.03,.24,0,.09-.03,.17-.03,.26v23c0,1.22,.65,2.34,1.7,2.94l19.92,11.5c.53,.3,1.11,.46,1.7,.46s1.17-.15,1.7-.46l19.92-11.5c1.05-.61,1.7-1.73,1.7-2.94v-23c0-.09-.03-.17-.03-.26,0-.08-.02-.16-.03-.24-.15-1.02-.73-1.93-1.63-2.45l-15.59-9,25.35-20.14v15.92c0,1.22,.65,2.34,1.7,2.94l19.92,11.5c.53,.3,1.11,.46,1.7,.46s1.17-.15,1.7-.46l19.92-11.5c1.05-.61,1.7-1.73,1.7-2.94v-23c0-.09-.03-.17-.03-.26,0-.08-.02-.16-.03-.24-.15-1.02-.73-1.93-1.63-2.45l-15.59-9,25.35-20.14v15.92c0,1.21,.65,2.34,1.7,2.94l19.92,11.5c.53,.3,1.11,.46,1.7,.46s1.17-.15,1.7-.46l19.92-11.5c1.05-.61,1.7-1.73,1.7-2.94v-23c0-.09-.03-.17-.03-.25,0-.09-.02-.17-.03-.25-.15-1.01-.73-1.92-1.63-2.44l-18.22-10.52v-25.88l18.22-10.52c1.05-.61,1.7-1.73,1.7-2.94v-23c0-.09-.03-.17-.03-.25,0-.09-.02-.17-.03-.25Zm-2.63,23.51c0,.25-.13,.48-.35,.61l-18.22,10.52-1.35,.78v28.99l1.35,.78,18.22,10.52c.23,.13,.3,.4,.32,.56,0,.08,.01,.15,.03,.23v22.82c0,.25-.13,.48-.35,.61l-19.92,11.5c-.11,.06-.23,.09-.35,.09s-.24-.03-.35-.09l-19.92-11.5c-.22-.12-.35-.36-.35-.61v-21.51l-4.38,3.48-25.35,20.14-3.11,2.47,3.44,1.98,15.59,9c.23,.14,.3,.4,.32,.56,0,.08,.01,.15,.03,.23v22.82c0,.25-.13,.48-.35,.61l-19.92,11.5c-.1,.06-.22,.09-.35,.09s-.24-.03-.35-.09l-19.92-11.5c-.22-.12-.35-.36-.35-.61v-21.51l-4.38,3.48-25.35,20.14-3.11,2.47,3.44,1.98,15.59,9c.23,.14,.3,.4,.32,.56,0,.08,.01,.15,.03,.23v22.82c0,.25-.13,.48-.35,.61l-19.92,11.5c-.11,.06-.23,.09-.35,.09s-.24-.03-.35-.09l-19.92-11.5c-.22-.12-.35-.36-.35-.61v-22.82l.02-.15v-.13c.03-.11,.09-.37,.32-.51l18.22-10.52,1.35-.78v-28.99l-1.35-.78-18.22-10.52c-.22-.12-.35-.36-.35-.61v-22.82l.02-.15v-.13c.03-.11,.09-.37,.32-.51l19.92-11.5c.11-.06,.23-.09,.35-.09s.24,.03,.35,.09l19.92,11.5c.23,.13,.3,.4,.32,.56,0,.08,.01,.15,.03,.23v22.82c0,.25-.13,.48-.35,.61l-18.22,10.52-1.35,.78v27.95l4.38-3.48,28.93-22.99,.14-.11,.12-.13c.05-.06,.1-.1,.15-.12l18.22-10.52,1.35-.78v-28.99l-1.35-.78-18.22-10.52c-.22-.12-.35-.36-.35-.61v-22.82l.02-.15v-.13c.03-.11,.09-.37,.33-.51l19.92-11.5c.11-.06,.23-.09,.35-.09s.24,.03,.35,.09l19.92,11.5c.23,.14,.3,.4,.32,.56,0,.08,.01,.15,.03,.23v22.82c0,.25-.13,.48-.35,.61l-18.22,10.52-1.35,.78v27.95l4.38-3.48,28.93-22.99,.14-.11,.12-.13c.05-.06,.1-.1,.15-.12l18.22-10.52,1.35-.78v-28.99l-1.35-.78-18.22-10.52c-.22-.12-.35-.36-.35-.61v-22.82l.02-.15v-.13c.03-.11,.09-.37,.32-.51l19.92-11.5c.11-.06,.23-.09,.35-.09s.24,.03,.35,.09l19.92,11.5c.23,.13,.3,.4,.32,.56,0,.08,.01,.15,.03,.23v22.82Z"/><path class="cls-1" d="M174.58,141.34l-1.35,.78v9.37c0,.39-.31,.7-.7,.7s-.7-.31-.7-.7v-9.37l-1.35-.78-13.12-7.57-4.05-2.34v21.34l1.35,.78,16.52,9.54,1.35,.78,1.35-.78,16.52-9.54,1.35-.78v-21.34l-4.05,2.34-13.12,7.57Zm14.47,9.87l-16.52,9.54-16.52-9.54v-15.11l13.12,7.57v7.82c0,1.88,1.52,3.4,3.4,3.4s3.4-1.52,3.4-3.4v-7.82l13.12-7.57v15.11Z"/><path class="cls-1" d="M171.18,64.32l1.35,.78,1.35-.78,13.16-7.6,4.05-2.34-4.05-2.34-13.16-7.6-1.35-.78-1.35,.78-13.16,7.6-4.05,2.34,4.05,2.34,13.16,7.6Zm1.35-17.53l13.16,7.6-13.16,7.6-13.16-7.6,13.16-7.6Z"/><path class="cls-1" d="M119.88,180.52l-1.35,.78v9.37c0,.39-.31,.7-.7,.7s-.7-.31-.7-.7v-9.37l-1.35-.78-13.12-7.58-4.05-2.34v21.34l1.35,.78,16.52,9.54,1.35,.78,1.35-.78,16.52-9.54,1.35-.78v-21.34l-4.05,2.34-13.12,7.57Zm14.47,9.87l-16.52,9.54-16.52-9.54v-15.11l13.12,7.58v7.81c0,1.88,1.52,3.4,3.4,3.4s3.4-1.52,3.4-3.4v-7.81l13.12-7.58v15.11Z"/><path class="cls-1" d="M119.18,126.45l16.52-9.54,1.35-.78v-21.34l-4.05,2.34-13.12,7.57-1.35,.78v9.37c0,.39-.31,.7-.7,.7s-.7-.31-.7-.7v-9.37l-1.35-.78-13.12-7.57-4.05-2.34v21.34l1.35,.78,16.52,9.54,1.35,.78,1.35-.78Zm-17.87-11.88v-15.11l13.12,7.57v7.82c0,1.88,1.52,3.4,3.4,3.4s3.4-1.52,3.4-3.4v-7.82l13.12-7.57v15.11l-16.52,9.54-16.52-9.54Z"/><path class="cls-1" d="M116.48,159.43l-13.16,7.6-4.05,2.34,4.05,2.34,13.16,7.6,1.35,.78,1.35-.78,13.16-7.6,4.05-2.34-4.05-2.34-13.16-7.6-1.35-.78-1.35,.78Zm14.51,9.94l-13.16,7.6-13.16-7.6,13.16-7.6,13.16,7.6Z"/><path class="cls-3" d="M65.86,220.86l-.67,.39v8.59c0,1.13-.92,2.05-2.05,2.05s-2.05-.92-2.05-2.05v-8.59l-.67-.39-13.12-7.58-2.02-1.17v18.22l.67,.39,16.52,9.54,.67,.39,.67-.39,16.52-9.54,.68-.39v-18.22l-2.03,1.17-13.12,7.58Zm13.8,8.7l-16.52,9.54-16.52-9.54v-15.11l13.12,7.58v7.81c0,1.88,1.52,3.4,3.4,3.4s3.4-1.52,3.4-3.4v-7.81l13.12-7.58v15.11Z"/><path class="cls-3" d="M63.14,164.85l.67-.39,16.52-9.54,.68-.39v-18.22l-2.03,1.17-13.12,7.57-.67,.39v8.59c0,1.13-.92,2.05-2.05,2.05s-2.05-.92-2.05-2.05v-8.59l-.67-.39-13.12-7.57-2.02-1.17v18.22l.67,.39,16.52,9.54,.67,.39Zm-16.52-26.2l13.12,7.57v7.81c0,1.88,1.52,3.4,3.4,3.4s3.4-1.52,3.4-3.4v-7.81l13.12-7.57v15.11l-16.52,9.54-16.52-9.54v-15.11Z"/><path class="cls-3" d="M62.46,141.5l.67,.39,.67-.39,13.16-7.6,2.03-1.17-2.03-1.17-13.16-7.6-.67-.39-.67,.39-13.16,7.6-2.02,1.17,2.02,1.17,13.16,7.6Zm.67-16.36l13.16,7.6-13.16,7.6-13.16-7.6,13.16-7.6Z"/><path class="cls-3" d="M63.14,199.39l-.67,.39-13.16,7.6-2.02,1.17,2.02,1.17,13.16,7.6,.67,.39,.67-.39,13.16-7.6,2.03-1.17-2.03-1.17-13.16-7.6-.67-.39Zm0,16.75l-13.16-7.6,13.16-7.6,13.16,7.6-13.16,7.6Z"/><path class="cls-3" d="M117.16,102.33l.67,.39,.68-.39,13.16-7.6,2.03-1.17-2.03-1.17-13.16-7.6-.68-.39-.67,.39-13.16,7.6-2.02,1.17,2.02,1.17,13.16,7.6Zm.67-16.36l13.16,7.6-13.16,7.6-13.16-7.6,13.16-7.6Z"/><path class="cls-3" d="M172.53,121.04l-.67,.39-13.16,7.6-2.03,1.17,2.03,1.17,13.16,7.6,.67,.39,.67-.39,13.16-7.6,2.02-1.17-2.02-1.17-13.16-7.6-.67-.39Zm0,16.75l-13.16-7.6,13.16-7.6,13.16,7.6-13.16,7.6Z"/><path class="cls-3" d="M175.25,142.51l-.68,.39v8.6c0,1.13-.92,2.05-2.05,2.05s-2.05-.92-2.05-2.05v-8.6l-.67-.39-13.12-7.57-2.03-1.17v18.22l.67,.39,16.52,9.54,.67,.39,.67-.39,16.52-9.54,.67-.39v-18.23l-2.03,1.17-13.12,7.57Zm13.79,8.7l-16.52,9.54-16.52-9.54v-15.11l13.12,7.57v7.82c0,1.88,1.52,3.4,3.4,3.4s3.4-1.52,3.4-3.4v-7.82l13.12-7.57v15.11Z"/><path class="cls-3" d="M195.78,53.86c-.15-1.01-.73-1.92-1.63-2.44l-19.92-11.5c-.53-.3-1.11-.46-1.7-.46s-1.17,.15-1.7,.46l-19.92,11.5c-.9,.52-1.48,1.43-1.63,2.44-.01,.09-.03,.17-.03,.25,0,.09-.03,.17-.03,.25v23c0,1.22,.65,2.34,1.7,2.94l18.22,10.52v25.88l-18.22,10.52c-.28,.16-.52,.36-.74,.58l-28.93,22.99v-20.8l18.22-10.52c1.05-.61,1.7-1.73,1.7-2.94v-23c0-.09-.03-.17-.03-.25,0-.08-.02-.16-.03-.25-.15-1.01-.73-1.92-1.63-2.44l-19.92-11.5c-.53-.3-1.11-.46-1.7-.46s-1.17,.15-1.7,.46l-19.92,11.5c-.9,.52-1.48,1.43-1.63,2.44-.01,.08-.03,.16-.03,.25,0,.09-.03,.17-.03,.25v23c0,1.22,.65,2.34,1.7,2.94l18.22,10.52v25.88l-18.22,10.52c-.28,.16-.52,.36-.74,.58l-28.93,22.99v-20.8l18.22-10.52c1.05-.61,1.7-1.73,1.7-2.95v-23c0-.09-.03-.17-.03-.25,0-.08-.02-.16-.03-.25-.15-1.01-.73-1.92-1.63-2.44l-19.92-11.5c-.53-.3-1.11-.46-1.7-.46s-1.17,.15-1.7,.46l-19.92,11.5c-.9,.52-1.48,1.43-1.63,2.44-.01,.09-.03,.17-.03,.25,0,.09-.03,.17-.03,.25v23c0,1.22,.65,2.34,1.7,2.95l18.22,10.52v25.88l-18.22,10.52c-.9,.52-1.48,1.43-1.63,2.45-.01,.08-.02,.16-.03,.24,0,.09-.03,.17-.03,.26v23c0,1.22,.65,2.34,1.7,2.94l19.92,11.5c.53,.3,1.11,.46,1.7,.46s1.17-.15,1.7-.46l19.92-11.5c1.05-.61,1.7-1.73,1.7-2.94v-23c0-.09-.03-.17-.03-.26,0-.08-.02-.16-.03-.24-.15-1.02-.73-1.93-1.63-2.45l-15.59-9,25.35-20.14v15.92c0,1.22,.65,2.34,1.7,2.94l19.92,11.5c.53,.3,1.11,.46,1.7,.46s1.17-.15,1.7-.46l19.92-11.5c1.05-.61,1.7-1.73,1.7-2.94v-23c0-.09-.03-.17-.03-.26,0-.08-.02-.16-.03-.24-.15-1.02-.73-1.93-1.63-2.45l-15.59-9,25.35-20.14v15.92c0,1.21,.65,2.34,1.7,2.94l19.92,11.5c.53,.3,1.11,.46,1.7,.46s1.17-.15,1.7-.46l19.92-11.5c1.05-.61,1.7-1.73,1.7-2.94v-23c0-.09-.03-.17-.03-.25,0-.09-.02-.17-.03-.25-.15-1.01-.73-1.92-1.63-2.44l-18.22-10.52v-25.88l18.22-10.52c1.05-.61,1.7-1.73,1.7-2.94v-23c0-.09-.03-.17-.03-.25,0-.09-.02-.17-.03-.25Zm-1.28,23.51c0,.73-.39,1.41-1.03,1.78l-18.22,10.52-.68,.39v27.44l.67,.39,18.22,10.52c.52,.3,.88,.84,.99,1.62,0,.08,.02,.15,.03,.15,0,0,0,0,0,0v23c0,.73-.39,1.41-1.03,1.77l-19.92,11.5c-.31,.18-.66,.27-1.02,.27s-.71-.09-1.03-.27l-19.92-11.5c-.63-.36-1.02-1.04-1.02-1.77v-18.71l-2.19,1.74-25.35,20.14-1.55,1.23,1.72,.99,15.59,9c.52,.3,.88,.84,.99,1.62,0,.08,.02,.15,.03,.15,0,0,0,0,0,0v23c0,.73-.39,1.41-1.02,1.78l-19.92,11.5c-.31,.18-.66,.27-1.02,.27s-.71-.09-1.03-.27l-19.92-11.5c-.63-.36-1.03-1.05-1.03-1.78v-18.71l-2.19,1.74-25.35,20.14-1.55,1.23,1.72,.99,15.59,9c.52,.3,.88,.84,.99,1.62,0,.08,.02,.15,.03,.15,0,0,0,0,0,0v23c0,.73-.39,1.41-1.03,1.78l-19.92,11.5c-.31,.18-.67,.27-1.03,.27s-.71-.09-1.03-.27l-19.92-11.5c-.63-.36-1.02-1.05-1.02-1.78v-22.9s.04-.33,.04-.33v-.06c.1-.64,.46-1.18,.98-1.48l18.22-10.52,.67-.39v-27.44l-.67-.39-18.22-10.52c-.63-.36-1.02-1.04-1.02-1.78v-22.9s.05-.34,.05-.34v-.07c.1-.64,.46-1.17,.98-1.48l19.92-11.5c.31-.18,.67-.27,1.02-.27s.71,.09,1.03,.28l19.92,11.5c.52,.3,.88,.84,.99,1.62,0,.08,.02,.15,.03,.15,0,0,0,0,0,0v23c0,.73-.39,1.41-1.03,1.78l-18.22,10.52-.67,.39v24.37l2.19-1.74,28.93-22.99,.07-.05,.06-.06c.14-.15,.29-.26,.44-.35l18.22-10.52,.68-.39v-27.44l-.68-.39-18.22-10.52c-.63-.36-1.03-1.05-1.03-1.78v-22.9s.05-.33,.05-.33v-.06c.1-.64,.46-1.17,.98-1.48l19.92-11.5c.31-.18,.67-.27,1.02-.27s.71,.09,1.03,.28l19.92,11.5c.52,.3,.88,.84,1,1.62,0,.08,.02,.15,.03,.15,0,0,0,0,0,0v23c0,.73-.39,1.41-1.02,1.78l-18.22,10.52-.67,.39v24.37l2.19-1.74,28.93-22.99,.07-.05,.06-.06c.14-.15,.29-.26,.44-.35l18.22-10.52,.67-.39v-27.44l-.67-.39-18.22-10.52c-.63-.36-1.02-1.05-1.02-1.78v-22.9s.05-.34,.05-.34v-.07c.1-.64,.46-1.17,.98-1.48l19.92-11.5c.31-.18,.67-.27,1.02-.27s.71,.09,1.02,.27l19.92,11.5c.52,.3,.88,.84,.99,1.63,0,.08,.02,.15,.03,.15,0,0,0,0,0,0v23Z"/><path class="cls-3" d="M175.25,66.7l-.68,.39v8.59c0,1.13-.92,2.05-2.05,2.05s-2.05-.92-2.05-2.05v-8.59l-.67-.39-13.12-7.57-2.03-1.17v18.23l.67,.39,16.52,9.54,.67,.39,.67-.39,16.52-9.54,.67-.39v-18.23l-2.03,1.17-13.12,7.57Zm13.79,8.7l-16.52,9.54-16.52-9.54v-15.11l13.12,7.57v7.81c0,1.88,1.52,3.4,3.4,3.4s3.4-1.52,3.4-3.4v-7.81l13.12-7.57v15.11Z"/><path class="cls-3" d="M117.83,125.68l.68-.39,16.52-9.54,.67-.39v-18.22l-2.03,1.17-13.12,7.57-.67,.39v8.6c0,1.13-.92,2.05-2.05,2.05s-2.05-.92-2.05-2.05v-8.6l-.68-.39-13.12-7.57-2.02-1.17v18.22l.67,.39,16.52,9.54,.67,.39Zm-16.52-26.2l13.12,7.57v7.82c0,1.88,1.52,3.4,3.4,3.4s3.4-1.52,3.4-3.4v-7.82l13.12-7.57v15.11l-16.52,9.54-16.52-9.54v-15.11Z"/><path class="cls-3" d="M171.85,63.15l.67,.39,.67-.39,13.16-7.6,2.02-1.17-2.02-1.17-13.16-7.6-.67-.39-.67,.39-13.16,7.6-2.02,1.17,2.02,1.17,13.16,7.6Zm.67-16.36l13.16,7.6-13.16,7.6-13.16-7.6,13.16-7.6Z"/><path class="cls-3" d="M120.56,181.69l-.67,.39v8.59c0,1.13-.92,2.05-2.05,2.05s-2.05-.92-2.05-2.05v-8.59l-.68-.39-13.12-7.58-2.02-1.17v18.22l.67,.39,16.52,9.54,.67,.39,.68-.39,16.52-9.54,.67-.39v-18.22l-2.03,1.17-13.12,7.58Zm13.79,8.7l-16.52,9.54-16.52-9.54v-15.11l13.12,7.58v7.81c0,1.88,1.52,3.4,3.4,3.4s3.4-1.52,3.4-3.4v-7.81l13.12-7.58v15.11Z"/><path class="cls-3" d="M117.83,160.21l-.67,.39-13.16,7.6-2.02,1.17,2.02,1.17,13.16,7.6,.67,.39,.68-.39,13.16-7.6,2.02-1.17-2.02-1.17-13.16-7.6-.68-.39Zm0,16.75l-13.16-7.6,13.16-7.6,13.16,7.6-13.16,7.6Z"/></g></g></svg>