<svg xmlns="http://www.w3.org/2000/svg" id="Calque_1" viewBox="0 0 262.71 267.08"><defs><style>.cls-1{fill:#60f1cb;}.cls-2{fill:#60f1cb;}.cls-3{fill:#60f1cb;}</style></defs><g id="Pool_Masternodes"><g><path class="cls-2" d="M61.19,79.13c.39,.39,.9,.6,1.45,.6s1.06-.21,1.45-.6l15.22-15.21c.8-.8,.8-2.1,0-2.9l-15.22-15.21c-.39-.39-.9-.6-1.45-.6s-1.06,.21-1.45,.6l-15.21,15.21c-.39,.39-.6,.91-.6,1.45s.21,1.06,.6,1.45l15.22,15.22Zm1.45-28.98l12.32,12.31-12.32,12.32-12.32-12.32,12.32-12.31Z"/><path class="cls-2" d="M198.62,79.13c.39,.39,.9,.6,1.45,.6s1.06-.21,1.45-.6l15.22-15.21c.8-.8,.8-2.1,0-2.9l-15.22-15.21c-.39-.39-.9-.6-1.45-.6s-1.06,.21-1.45,.6l-15.22,15.21c-.39,.39-.6,.9-.6,1.45s.21,1.06,.6,1.45l15.22,15.22Zm1.45-28.98l12.32,12.31-12.32,12.32-12.32-12.32,12.32-12.31Z"/><path class="cls-2" d="M201.52,187.95c-.39-.39-.9-.6-1.45-.6s-1.06,.21-1.45,.6l-15.22,15.22c-.39,.39-.6,.9-.6,1.45s.21,1.06,.6,1.45l15.22,15.22c.38,.38,.91,.6,1.45,.6s1.07-.22,1.45-.6l15.22-15.22c.8-.8,.8-2.1,0-2.9l-15.22-15.22Zm-1.45,28.98l-12.32-12.32,12.32-12.31,12.32,12.31-12.32,12.32Z"/><path class="cls-2" d="M226.53,33.95h-52.93c-1.13,0-2.05,.92-2.05,2.05v52.16l-14.67,16.87h-23.48v-14.05h24.41c1.13,0,2.05-.92,2.05-2.05V36c0-1.13-.92-2.05-2.05-2.05h-52.93c-1.13,0-2.05,.92-2.05,2.05v52.93c0,1.13,.92,2.05,2.05,2.05h24.41v14.05h-23.48l-14.67-16.87V36c0-1.13-.92-2.05-2.05-2.05H36.17c-1.13,0-2.05,.92-2.05,2.05v52.93c0,1.13,.92,2.05,2.05,2.05h52l14.67,16.87v23.65h-11.69v-24.41c0-1.13-.92-2.05-2.05-2.05H36.17c-1.13,0-2.05,.92-2.05,2.05v52.93c0,1.13,.92,2.05,2.05,2.05h52.93c1.13,0,2.05-.92,2.05-2.05v-24.41h11.69v23.64l-14.67,16.87H36.17c-1.13,0-2.05,.92-2.05,2.05v52.93c0,1.13,.92,2.05,2.05,2.05h52.93c1.13,0,2.05-.92,2.05-2.05v-52.16l14.67-16.87h23.48v14.05h-24.41c-1.13,0-2.05,.92-2.05,2.05v52.93c0,1.13,.92,2.05,2.05,2.05h52.93c1.13,0,2.05-.92,2.05-2.05v-52.93c0-1.13-.92-2.05-2.05-2.05h-24.41v-14.05h23.48l14.67,16.87v52.16c0,1.13,.92,2.05,2.05,2.05h52.93c1.13,0,2.05-.92,2.05-2.05v-52.93c0-1.13-.92-2.05-2.05-2.05h-52l-14.67-16.87v-51.39l14.67-16.87h51.99c1.13,0,2.05-.92,2.05-2.05V36c0-1.13-.92-2.05-2.05-2.05ZM87.05,86.88H38.22V38.05h48.83v48.83Zm0,44.61h-8.35l-14.61-14.61c-.39-.39-.9-.6-1.45-.6s-1.06,.21-1.45,.6l-15.22,15.22c-.38,.38-.6,.91-.6,1.45s.22,1.07,.6,1.45l15.22,15.22c.39,.39,.9,.6,1.45,.6s1.06-.21,1.45-.6l14.61-14.61h8.35v22.36H38.22v-48.83h48.83v22.36Zm-12.1,2.05l-12.32,12.32-12.32-12.32,12.32-12.32,12.32,12.32Zm12.1,95.49H38.22v-48.83h48.83v48.83Zm44.3-154.25l-12.32-12.32,12.32-12.31,12.32,12.31-12.32,12.32Zm-24.41,12.1V38.05h48.83v48.83h-22.36v-8.35l14.61-14.61c.39-.39,.6-.9,.6-1.45s-.21-1.06-.6-1.45l-15.22-15.21c-.39-.39-.9-.6-1.45-.6s-1.06,.21-1.45,.6l-15.22,15.21c-.39,.39-.6,.91-.6,1.45s.21,1.06,.6,1.45l14.62,14.61v8.35h-22.36Zm0,22.25h22.36v8.35l-14.01,14.01h-8.35v-22.36Zm0,48.83v-22.36h8.35l14.02,14.01v8.35h-22.36Zm24.41,34.35l12.32,12.31-12.32,12.32-12.32-12.32,12.32-12.31Zm24.41-12.1v48.83h-48.83v-48.83h22.36v8.35l-14.62,14.61c-.39,.39-.6,.9-.6,1.45s.21,1.06,.6,1.45l15.22,15.22c.39,.39,.9,.6,1.45,.6s1.06-.21,1.45-.6l15.22-15.22c.39-.39,.6-.9,.6-1.45s-.21-1.06-.6-1.45l-14.61-14.61v-8.35h22.36Zm-24.41-34.34l-12.32-12.32,12.32-12.32,12.32,12.32-12.32,12.32Zm24.41,12.1h-22.36v-8.35l14.61-14.62c.39-.39,.6-.9,.6-1.45,0-.54-.21-1.06-.6-1.44l-14.61-14.62v-8.35h22.36v48.83Zm19.89,22.25h48.83v48.83h-48.83v-48.83Zm48.83-93.32h-48.83V38.05h48.83v48.83Z"/><path class="cls-2" d="M61.19,221.28c.38,.38,.91,.6,1.45,.6s1.07-.22,1.45-.6l15.22-15.22c.8-.8,.8-2.1,0-2.9l-15.22-15.22c-.39-.39-.9-.6-1.45-.6s-1.06,.21-1.45,.6l-15.22,15.22c-.39,.39-.6,.9-.6,1.45s.21,1.06,.6,1.45l15.22,15.22Zm1.45-28.98l12.32,12.31-12.32,12.32-12.32-12.32,12.32-12.31Z"/><path class="cls-1" d="M177,36.7h-2.7v51.53h51.53V36.7h-48.83Zm46.13,48.83h-46.13V39.4h46.13v46.13Z"/><path class="cls-1" d="M60.73,216.94l1.91,1.91,1.91-1.91,10.41-10.41,1.91-1.91-1.91-1.91-10.41-10.41-1.91-1.91-1.91,1.91-10.41,10.41-1.91,1.91,1.91,1.91,10.41,10.41Zm1.91-22.73l10.41,10.41-10.41,10.41-10.41-10.41,10.41-10.41Z"/><path class="cls-1" d="M62.64,119.31l-1.91,1.91-10.41,10.41-1.91,1.91,1.91,1.91,10.41,10.41,1.91,1.91,1.91-1.91,10.41-10.41,1.91-1.91-1.91-1.91-10.41-10.41-1.91-1.91Zm0,24.63l-10.41-10.41,10.41-10.41,10.41,10.41-10.41,10.41Z"/><path class="cls-1" d="M134.75,107.78h-2.7v10.26l.79,.79,14.22,14.22c.17,.17,.21,.36,.21,.49s-.04,.33-.21,.49l-14.22,14.22-.79,.79v10.26h25.06v-51.53h-22.36Zm19.66,48.83h-19.66v-6.44l14.22-14.22c1.33-1.33,1.33-3.48,0-4.81l-14.22-14.22v-6.44h19.66v46.13Z"/><path class="cls-1" d="M60.73,74.78l1.91,1.91,1.91-1.91,10.41-10.41,1.91-1.91-1.91-1.91-10.41-10.41-1.91-1.91-1.91,1.91-10.41,10.41-1.91,1.91,1.91,1.91,10.41,10.41Zm1.91-22.72l10.41,10.41-10.41,10.41-10.41-10.41,10.41-10.41Z"/><path class="cls-1" d="M60.23,80.09c.66,.66,1.53,1,2.4,1s1.74-.33,2.4-1l15.22-15.22c1.33-1.33,1.33-3.48,0-4.81l-15.22-15.22c-.66-.66-1.53-1-2.4-1s-1.74,.33-2.4,1l-15.22,15.22c-.64,.64-1,1.5-1,2.4s.36,1.77,1,2.4l15.22,15.22Zm-13.31-18.11l15.22-15.22c.17-.17,.36-.21,.5-.21s.33,.04,.49,.21l15.22,15.22c.17,.17,.2,.36,.2,.49s-.04,.33-.21,.49l-15.22,15.22c-.17,.17-.36,.21-.49,.21s-.33-.04-.49-.21l-15.22-15.22c-.13-.13-.21-.31-.21-.5s.07-.36,.2-.49Z"/><path class="cls-1" d="M39.57,107.78h-2.7v51.53h51.53v-25.06h-10.26l-.79,.79-14.22,14.22c-.17,.17-.36,.21-.5,.21s-.33-.04-.49-.21l-15.22-15.22c-.13-.13-.2-.31-.2-.49s.07-.36,.2-.49l15.22-15.22c.17-.17,.36-.21,.5-.21s.33,.04,.49,.21l14.22,14.22,.79,.79h10.26v-25.06H39.57Zm46.13,22.36h-6.44l-14.22-14.22c-.66-.66-1.53-1-2.4-1s-1.74,.33-2.4,1l-15.22,15.22c-.64,.64-1,1.5-1,2.4s.36,1.77,1,2.4l15.22,15.22c.66,.66,1.53,1,2.4,1s1.74-.33,2.4-1l14.22-14.22h6.44v19.66H39.57v-46.13h46.13v19.66Z"/><path class="cls-1" d="M39.57,36.7h-2.7v51.53h51.53V36.7H39.57Zm46.13,48.83H39.57V39.4h46.13v46.13Z"/><path class="cls-1" d="M197.66,80.09c.66,.66,1.53,1,2.4,1s1.74-.33,2.4-1l15.22-15.22c1.33-1.33,1.33-3.48,0-4.81l-15.22-15.22c-.66-.66-1.53-1-2.4-1s-1.74,.33-2.4,1l-15.22,15.22c-.64,.64-1,1.5-1,2.4s.36,1.77,1,2.4l15.22,15.22Zm-13.31-18.11l15.22-15.22c.17-.17,.36-.21,.49-.21s.32,.04,.49,.21l15.22,15.22c.17,.17,.21,.36,.21,.49s-.04,.33-.21,.49l-15.22,15.22c-.17,.17-.36,.21-.49,.21s-.33-.04-.49-.21l-15.22-15.22c-.13-.13-.2-.31-.2-.49s.07-.36,.21-.49Z"/><path class="cls-1" d="M226.53,32.6h-52.93c-1.88,0-3.4,1.52-3.4,3.4v51.65l-13.93,16.02h-21.52v-11.35h23.06c1.88,0,3.4-1.52,3.4-3.4V36c0-1.88-1.52-3.4-3.4-3.4h-52.93c-1.88,0-3.4,1.52-3.4,3.4v52.93c0,1.88,1.52,3.4,3.4,3.4h23.06v11.35h-21.52l-13.93-16.02V36c0-1.88-1.52-3.4-3.4-3.4H36.17c-1.88,0-3.4,1.52-3.4,3.4v52.93c0,1.88,1.52,3.4,3.4,3.4h51.38l13.94,16.02v21.79h-8.99v-23.06c0-1.88-1.52-3.4-3.4-3.4H36.17c-1.88,0-3.4,1.52-3.4,3.4v52.93c0,1.88,1.52,3.4,3.4,3.4h52.93c1.88,0,3.4-1.52,3.4-3.4v-23.06h8.99v21.79l-13.93,16.02H36.17c-1.88,0-3.4,1.52-3.4,3.4v52.93c0,1.88,1.52,3.4,3.4,3.4h52.93c1.88,0,3.4-1.52,3.4-3.4v-51.65l13.94-16.02h21.52v11.35h-23.06c-1.88,0-3.4,1.52-3.4,3.4v52.93c0,1.88,1.52,3.4,3.4,3.4h52.93c1.88,0,3.4-1.52,3.4-3.4v-52.93c0-1.88-1.52-3.4-3.4-3.4h-23.06v-11.35h21.52l13.93,16.02v51.65c0,1.88,1.52,3.4,3.4,3.4h52.93c1.88,0,3.4-1.52,3.4-3.4v-52.93c0-1.88-1.52-3.4-3.4-3.4h-51.38l-13.93-16.02v-50.38l13.93-16.02h51.38c1.88,0,3.4-1.52,3.4-3.4V36c0-1.88-1.52-3.4-3.4-3.4Zm.7,56.33c0,.39-.31,.7-.7,.7h-52.61l-.81,.93-13.94,16.02-.66,.76v52.4l.66,.76,13.93,16.02,.81,.93h52.61c.39,0,.7,.31,.7,.7v52.93c0,.39-.31,.7-.7,.7h-52.93c-.39,0-.7-.31-.7-.7v-52.66l-.66-.76-13.94-16.02-.81-.93h-25.45v16.75h25.76c.39,0,.7,.31,.7,.7v52.93c0,.39-.31,.7-.7,.7h-52.93c-.39,0-.7-.31-.7-.7v-52.93c0-.39,.31-.7,.7-.7h25.76v-16.75h-25.45l-.81,.93-13.94,16.02-.66,.76v52.66c0,.39-.31,.7-.7,.7H36.17c-.39,0-.7-.31-.7-.7v-52.93c0-.39,.31-.7,.7-.7h52.61l.81-.93,13.93-16.02,.66-.76v-25.5h-14.39v25.76c0,.39-.31,.7-.7,.7H36.17c-.39,0-.7-.31-.7-.7v-52.93c0-.39,.31-.7,.7-.7h52.93c.39,0,.7,.31,.7,.7v25.76h14.39v-25.5l-.66-.76-13.94-16.02-.81-.93H36.17c-.39,0-.7-.31-.7-.7V36c0-.39,.31-.7,.7-.7h52.93c.39,0,.7,.31,.7,.7v52.66l.66,.76,13.93,16.02,.81,.93h25.45v-16.75h-25.76c-.39,0-.7-.31-.7-.7V36c0-.39,.31-.7,.7-.7h52.93c.39,0,.7,.31,.7,.7v52.93c0,.39-.31,.7-.7,.7h-25.76v16.75h25.45l.81-.93,13.93-16.02,.66-.76V36c0-.39,.31-.7,.7-.7h52.93c.39,0,.7,.31,.7,.7v52.93Z"/><path class="cls-1" d="M119.04,202.71l-1.91,1.91,1.91,1.91,10.41,10.41,1.91,1.91,1.91-1.91,10.41-10.41,1.91-1.91-1.91-1.91-10.41-10.41-1.91-1.91-1.91,1.91-10.41,10.41Zm22.73,1.91l-10.41,10.41-10.41-10.41,10.41-10.41,10.41,10.41Z"/><path class="cls-1" d="M201.98,192.3l-1.91-1.91-1.91,1.91-10.41,10.41-1.91,1.91,1.91,1.91,10.41,10.41,1.91,1.91,1.91-1.91,10.41-10.41,1.91-1.91-1.91-1.91-10.41-10.41Zm-1.91,22.73l-10.41-10.41,10.41-10.41,10.41,10.41-10.41,10.41Z"/><path class="cls-1" d="M130.65,156.6v-7.56l-.79-.79-13.22-13.22-.79-.79h-10.26v25.06h25.06v-2.7Zm-2.7,0h-19.66v-19.66h6.44l13.23,13.22v6.44Z"/><path class="cls-1" d="M132.05,181.55v7.56l.79,.79,14.22,14.22c.27,.27,.27,.72,0,.99l-15.22,15.22c-.13,.13-.31,.21-.49,.21s-.36-.07-.49-.21l-15.22-15.22c-.13-.13-.21-.31-.21-.49s.07-.36,.21-.49l14.22-14.22,.79-.79v-10.26h-25.06v51.53h51.53v-51.53h-25.06v2.7Zm2.7,0h19.66v46.13h-46.13v-46.13h19.66v6.44l-14.22,14.22c-.64,.64-1,1.5-1,2.4s.36,1.77,1,2.4l15.22,15.22c.64,.64,1.5,1,2.4,1s1.77-.36,2.4-1l15.22-15.22c1.33-1.33,1.33-3.48,0-4.81l-14.22-14.22v-6.44Z"/><path class="cls-1" d="M202.47,187c-.66-.66-1.53-1-2.4-1s-1.74,.33-2.4,1l-15.22,15.22c-.64,.64-1,1.5-1,2.4s.36,1.77,1,2.4l15.22,15.22c.64,.64,1.5,1,2.4,1s1.77-.36,2.4-1l15.22-15.22c1.33-1.33,1.33-3.48,0-4.81l-15.22-15.22Zm13.31,18.11l-15.22,15.22c-.13,.13-.31,.21-.49,.21s-.36-.07-.49-.21l-15.22-15.22c-.13-.13-.21-.31-.21-.49s.07-.36,.21-.49l15.22-15.22c.17-.17,.36-.2,.49-.2s.32,.04,.49,.21l15.22,15.22c.17,.17,.21,.36,.21,.49s-.04,.33-.21,.5Z"/><path class="cls-1" d="M60.23,222.24c.64,.64,1.5,1,2.4,1s1.77-.36,2.4-1l15.22-15.22c1.33-1.33,1.33-3.48,0-4.81l-15.22-15.22c-.66-.66-1.53-1-2.4-1s-1.74,.33-2.4,1l-15.22,15.22c-.64,.64-1,1.5-1,2.4s.36,1.77,1,2.4l15.22,15.22Zm-13.31-18.12l15.22-15.22c.17-.17,.36-.21,.49-.21s.32,.04,.49,.21l15.22,15.22c.17,.17,.2,.36,.2,.49s-.04,.33-.21,.5l-15.22,15.22c-.13,.13-.31,.21-.49,.21s-.36-.07-.49-.21l-15.22-15.22c-.13-.13-.21-.31-.21-.5s.07-.36,.2-.49Z"/><path class="cls-1" d="M143.67,135.45l1.91-1.91-1.91-1.91-10.41-10.41-1.91-1.91-1.91,1.91-10.41,10.41-1.91,1.91,1.91,1.91,10.41,10.41,1.91,1.91,1.91-1.91,10.41-10.41Zm-22.72-1.91l10.41-10.41,10.41,10.41-10.41,10.41-10.41-10.41Z"/><path class="cls-1" d="M143.67,64.37l1.91-1.91-1.91-1.91-10.41-10.41-1.91-1.91-1.91,1.91-10.41,10.41-1.91,1.91,1.91,1.91,10.41,10.41,1.91,1.91,1.91-1.91,10.41-10.41Zm-22.72-1.91l10.41-10.41,10.41,10.41-10.41,10.41-10.41-10.41Z"/><path class="cls-1" d="M39.57,178.85h-2.7v51.53h51.53v-51.53H39.57Zm46.13,48.83H39.57v-46.13h46.13v46.13Z"/><path class="cls-1" d="M198.16,74.78l1.91,1.91,1.91-1.91,10.41-10.41,1.91-1.91-1.91-1.91-10.41-10.41-1.91-1.91-1.91,1.91-10.41,10.41-1.91,1.91,1.91,1.91,10.41,10.41Zm1.91-22.72l10.41,10.41-10.41,10.41-10.41-10.41,10.41-10.41Z"/><path class="cls-1" d="M114.73,132.84h1.12l.79-.79,13.22-13.22,.79-.79v-10.26h-25.06v25.06h9.14Zm-6.44-22.36h19.66v6.44l-13.22,13.22h-6.44v-19.66Z"/><path class="cls-1" d="M223.13,230.38h2.7v-51.53h-51.53v51.53h48.83Zm-46.13-48.83h46.13v46.13h-46.13v-46.13Z"/><path class="cls-1" d="M130.65,85.53v-7.56l-.79-.79-14.22-14.22c-.13-.13-.2-.31-.2-.49s.07-.36,.21-.49l15.22-15.22c.17-.17,.36-.21,.49-.21s.33,.04,.5,.21l15.22,15.22c.27,.27,.27,.72,0,.99l-14.22,14.22-.79,.79v10.26h25.06V36.7h-51.53v51.53h25.06v-2.7Zm-2.7,0h-19.66V39.4h46.13v46.13h-19.66v-6.44l14.22-14.22c1.33-1.33,1.33-3.48,0-4.81l-15.22-15.22c-.66-.66-1.53-1-2.4-1s-1.74,.33-2.4,1l-15.22,15.22c-.64,.64-1,1.5-1,2.4s.36,1.77,1,2.4l14.22,14.22v6.44Z"/><path class="cls-3" d="M60.23,80.09c.66,.66,1.53,1,2.4,1s1.74-.33,2.4-1l15.22-15.22c1.33-1.33,1.33-3.48,0-4.81l-15.22-15.22c-.66-.66-1.53-1-2.4-1s-1.74,.33-2.4,1l-15.22,15.22c-.64,.64-1,1.5-1,2.4s.36,1.77,1,2.4l15.22,15.22Zm-14.26-19.07l15.22-15.22c.39-.39,.9-.6,1.45-.6s1.06,.21,1.45,.6l15.22,15.22c.39,.39,.6,.9,.6,1.45s-.21,1.06-.6,1.45l-15.22,15.22c-.39,.39-.9,.6-1.45,.6s-1.06-.21-1.45-.6l-15.22-15.22c-.38-.38-.6-.91-.6-1.45s.22-1.07,.6-1.45Z"/><path class="cls-3" d="M39.57,38.05h-1.35v48.83h48.83V38.05H39.57Zm46.13,47.48H39.57V39.4h46.13v46.13Z"/><path class="cls-3" d="M60.23,222.24c.64,.64,1.5,1,2.4,1s1.77-.36,2.4-1l15.22-15.22c1.33-1.33,1.33-3.48,0-4.81l-15.22-15.22c-.66-.66-1.53-1-2.4-1s-1.74,.33-2.4,1l-15.22,15.22c-.64,.64-1,1.5-1,2.4s.36,1.77,1,2.4l15.22,15.22Zm-14.26-19.07l15.22-15.22c.39-.39,.9-.6,1.45-.6s1.06,.21,1.45,.6l15.22,15.22c.39,.39,.6,.9,.6,1.45s-.21,1.06-.6,1.45l-15.22,15.22c-.39,.39-.9,.6-1.45,.6s-1.06-.21-1.45-.6l-15.22-15.22c-.38-.38-.6-.91-.6-1.45s.21-1.06,.6-1.45Z"/><path class="cls-3" d="M39.57,109.13h-1.35v48.83h48.83v-22.36h-8.35l-.4,.4-14.22,14.22c-.39,.39-.9,.6-1.45,.6s-1.06-.21-1.45-.6l-15.22-15.22c-.38-.38-.6-.91-.6-1.45s.22-1.07,.6-1.45l15.22-15.22c.39-.39,.9-.6,1.45-.6s1.06,.21,1.45,.6l14.22,14.22,.4,.4h8.35v-22.36H39.57Zm46.13,21.01h-6.44l-14.22-14.22c-.66-.66-1.53-1-2.4-1s-1.74,.33-2.4,1l-15.22,15.22c-.64,.64-1,1.5-1,2.4s.36,1.77,1,2.4l15.22,15.22c.66,.66,1.53,1,2.4,1s1.74-.33,2.4-1l14.22-14.22h6.44v19.66H39.57v-46.13h46.13v19.66Z"/><path class="cls-3" d="M62.64,121.22l-.95,.95-10.41,10.41-.95,.95,.95,.95,10.41,10.41,.95,.95,.95-.95,10.41-10.41,.95-.95-.95-.95-10.41-10.41-.95-.95Zm0,22.73l-10.41-10.41,10.41-10.41,10.41,10.41-10.41,10.41Z"/><path class="cls-3" d="M61.68,73.83l.95,.95,.95-.95,10.41-10.41,.95-.95-.95-.95-10.41-10.41-.95-.95-.95,.95-10.41,10.41-.95,.95,.95,.95,10.41,10.41Zm.95-21.77l10.41,10.41-10.41,10.41-10.41-10.41,10.41-10.41Z"/><path class="cls-3" d="M61.68,215.98l.95,.95,.95-.96,10.41-10.41,.95-.95-.95-.95-10.41-10.41-.95-.95-.95,.95-10.41,10.41-.95,.95,.95,.96,10.41,10.41Zm.95-21.77l10.41,10.41-10.41,10.41-10.41-10.41,10.41-10.41Z"/><path class="cls-3" d="M129.3,85.53v-7l-.4-.4-14.22-14.22c-.38-.38-.6-.91-.6-1.45s.22-1.07,.6-1.45l15.22-15.22c.39-.39,.9-.6,1.45-.6s1.06,.21,1.45,.6l15.22,15.22c.8,.8,.8,2.1,0,2.9l-14.22,14.22-.4,.4v8.35h22.36V38.05h-48.83v48.83h22.36v-1.35Zm-1.35,0h-19.66V39.4h46.13v46.13h-19.66v-6.44l14.22-14.22c1.33-1.33,1.33-3.48,0-4.81l-15.22-15.22c-.66-.66-1.53-1-2.4-1s-1.74,.33-2.4,1l-15.22,15.22c-.64,.64-1,1.5-1,2.4s.36,1.77,1,2.4l14.22,14.22v6.44Z"/><path class="cls-3" d="M223.13,229.03h1.35v-48.83h-48.83v48.83h47.48Zm-46.13-47.48h46.13v46.13h-46.13v-46.13Z"/><path class="cls-3" d="M202.47,187c-.66-.66-1.53-1-2.4-1s-1.74,.33-2.4,1l-15.22,15.22c-.64,.64-1,1.5-1,2.4s.36,1.77,1,2.4l15.22,15.22c.64,.64,1.5,1,2.4,1s1.77-.36,2.4-1l15.22-15.22c1.33-1.33,1.33-3.48,0-4.81l-15.22-15.22Zm14.26,19.07l-15.22,15.22c-.39,.39-.9,.6-1.45,.6s-1.06-.21-1.45-.6l-15.22-15.22c-.38-.38-.6-.91-.6-1.45s.21-1.06,.6-1.45l15.22-15.22c.39-.39,.9-.6,1.45-.6s1.06,.21,1.45,.6l15.22,15.22c.39,.39,.6,.9,.6,1.45s-.21,1.06-.6,1.45Z"/><path class="cls-3" d="M199.11,73.83l.95,.95,.95-.95,10.41-10.41,.95-.95-.95-.95-10.41-10.41-.95-.95-.95,.95-10.41,10.41-.95,.95,.95,.95,10.41,10.41Zm.95-21.77l10.41,10.41-10.41,10.41-10.41-10.41,10.41-10.41Z"/><path class="cls-3" d="M197.66,80.09c.66,.66,1.53,1,2.4,1s1.74-.33,2.4-1l15.22-15.22c1.33-1.33,1.33-3.48,0-4.81l-15.22-15.22c-.66-.66-1.53-1-2.4-1s-1.74,.33-2.4,1l-15.22,15.22c-.64,.64-1,1.5-1,2.4s.36,1.77,1,2.4l15.22,15.22Zm-14.26-19.07l15.22-15.22c.39-.39,.9-.6,1.45-.6s1.06,.21,1.45,.6l15.22,15.22c.39,.39,.6,.9,.6,1.45s-.21,1.06-.6,1.45l-15.22,15.22c-.39,.39-.9,.6-1.45,.6s-1.06-.21-1.45-.6l-15.22-15.22c-.38-.38-.6-.91-.6-1.45s.22-1.07,.6-1.45Z"/><path class="cls-3" d="M226.53,32.6h-52.93c-1.88,0-3.4,1.52-3.4,3.4v51.65l-13.93,16.02h-21.52v-11.35h23.06c1.88,0,3.4-1.52,3.4-3.4V36c0-1.88-1.52-3.4-3.4-3.4h-52.93c-1.88,0-3.4,1.52-3.4,3.4v52.93c0,1.88,1.52,3.4,3.4,3.4h23.06v11.35h-21.52l-13.93-16.02V36c0-1.88-1.52-3.4-3.4-3.4H36.17c-1.88,0-3.4,1.52-3.4,3.4v52.93c0,1.88,1.52,3.4,3.4,3.4h51.38l13.94,16.02v21.79h-8.99v-23.06c0-1.88-1.52-3.4-3.4-3.4H36.17c-1.88,0-3.4,1.52-3.4,3.4v52.93c0,1.88,1.52,3.4,3.4,3.4h52.93c1.88,0,3.4-1.52,3.4-3.4v-23.06h8.99v21.79l-13.93,16.02H36.17c-1.88,0-3.4,1.52-3.4,3.4v52.93c0,1.88,1.52,3.4,3.4,3.4h52.93c1.88,0,3.4-1.52,3.4-3.4v-51.65l13.94-16.02h21.52v11.35h-23.06c-1.88,0-3.4,1.52-3.4,3.4v52.93c0,1.88,1.52,3.4,3.4,3.4h52.93c1.88,0,3.4-1.52,3.4-3.4v-52.93c0-1.88-1.52-3.4-3.4-3.4h-23.06v-11.35h21.52l13.93,16.02v51.65c0,1.88,1.52,3.4,3.4,3.4h52.93c1.88,0,3.4-1.52,3.4-3.4v-52.93c0-1.88-1.52-3.4-3.4-3.4h-51.38l-13.93-16.02v-50.38l13.93-16.02h51.38c1.88,0,3.4-1.52,3.4-3.4V36c0-1.88-1.52-3.4-3.4-3.4Zm2.05,56.33c0,1.13-.92,2.05-2.05,2.05h-51.99l-.4,.46-13.94,16.02-.33,.38v51.39l.33,.38,13.93,16.02,.4,.46h52c1.13,0,2.05,.92,2.05,2.05v52.93c0,1.13-.92,2.05-2.05,2.05h-52.93c-1.13,0-2.05-.92-2.05-2.05v-52.16l-.33-.38-13.93-16.02-.4-.46h-23.48v14.05h24.41c1.13,0,2.05,.92,2.05,2.05v52.93c0,1.13-.92,2.05-2.05,2.05h-52.93c-1.13,0-2.05-.92-2.05-2.05v-52.93c0-1.13,.92-2.05,2.05-2.05h24.41v-14.05h-23.48l-.4,.46-13.94,16.02-.33,.38v52.16c0,1.13-.92,2.05-2.05,2.05H36.17c-1.13,0-2.05-.92-2.05-2.05v-52.93c0-1.13,.92-2.05,2.05-2.05h52l.4-.46,13.93-16.02,.33-.38v-23.65h-11.69v24.41c0,1.13-.92,2.05-2.05,2.05H36.17c-1.13,0-2.05-.92-2.05-2.05v-52.93c0-1.13,.92-2.05,2.05-2.05h52.93c1.13,0,2.05,.92,2.05,2.05v24.41h11.69v-23.65l-.33-.38-13.94-16.02-.4-.46H36.17c-1.13,0-2.05-.92-2.05-2.05V36c0-1.13,.92-2.05,2.05-2.05h52.93c1.13,0,2.05,.92,2.05,2.05v52.16l.33,.38,13.93,16.02,.4,.46h23.48v-14.05h-24.41c-1.13,0-2.05-.92-2.05-2.05V36c0-1.13,.92-2.05,2.05-2.05h52.93c1.13,0,2.05,.92,2.05,2.05v52.93c0,1.13-.92,2.05-2.05,2.05h-24.41v14.05h23.48l.4-.46,13.93-16.02,.33-.38V36c0-1.13,.92-2.05,2.05-2.05h52.93c1.13,0,2.05,.92,2.05,2.05v52.93Z"/><path class="cls-3" d="M201.02,193.25l-.95-.95-.95,.95-10.41,10.41-.95,.95,.95,.96,10.41,10.41,.95,.95,.95-.96,10.41-10.41,.95-.95-.95-.95-10.41-10.41Zm-.95,21.77l-10.41-10.41,10.41-10.41,10.41,10.41-10.41,10.41Z"/><path class="cls-3" d="M39.57,180.2h-1.35v48.83h48.83v-48.83H39.57Zm46.13,47.48H39.57v-46.13h46.13v46.13Z"/><path class="cls-3" d="M177,38.05h-1.35v48.83h48.83V38.05h-47.48Zm46.13,47.48h-46.13V39.4h46.13v46.13Z"/><path class="cls-3" d="M134.75,109.13h-1.35v8.35l.4,.4,14.22,14.22c.39,.39,.6,.9,.6,1.45s-.21,1.06-.6,1.45l-14.22,14.22-.4,.4v8.35h22.36v-48.83h-21.01Zm19.66,47.48h-19.66v-6.44l14.22-14.22c1.33-1.33,1.33-3.48,0-4.81l-14.22-14.22v-6.44h19.66v46.13Z"/><path class="cls-3" d="M129.3,156.6v-7l-.4-.4-13.22-13.22-.4-.4h-8.35v22.36h22.36v-1.35Zm-1.35,0h-19.66v-19.66h6.44l13.23,13.22v6.44Z"/><path class="cls-3" d="M143.67,62.47l-.95-.95-10.41-10.41-.95-.95-.95,.95-10.41,10.41-.95,.95,.95,.95,10.41,10.41,.95,.95,.95-.95,10.41-10.41,.95-.95Zm-12.32,10.41l-10.41-10.41,10.41-10.41,10.41,10.41-10.41,10.41Z"/><path class="cls-3" d="M114.73,131.49h.56l.4-.4,13.22-13.22,.4-.4v-8.35h-22.36v22.36h7.79Zm-6.44-21.01h19.66v6.44l-13.22,13.22h-6.44v-19.66Z"/><path class="cls-3" d="M119.04,204.62l.95,.96,10.41,10.41,.95,.95,.95-.95,10.41-10.41,.95-.96-.95-.95-10.41-10.41-.95-.95-.95,.95-10.41,10.41-.95,.95Zm12.32-10.41l10.41,10.41-10.41,10.41-10.41-10.41,10.41-10.41Z"/><path class="cls-3" d="M143.67,133.54l-.95-.95-10.41-10.41-.95-.95-.95,.95-10.41,10.41-.95,.95,.95,.95,10.41,10.41,.95,.95,.95-.95,10.41-10.41,.95-.95Zm-12.32,10.41l-10.41-10.41,10.41-10.41,10.41,10.41-10.41,10.41Z"/><path class="cls-3" d="M133.4,181.55v7l.4,.4,14.22,14.22c.8,.8,.8,2.1,0,2.9l-15.22,15.22c-.39,.39-.9,.6-1.45,.6s-1.06-.21-1.45-.6l-15.22-15.22c-.38-.38-.6-.91-.6-1.45s.21-1.06,.6-1.45l14.22-14.22,.4-.4v-8.35h-22.36v48.83h48.83v-48.83h-22.36v1.35Zm1.35,0h19.66v46.13h-46.13v-46.13h19.66v6.44l-14.22,14.22c-.64,.64-1,1.5-1,2.4s.36,1.77,1,2.4l15.22,15.22c.64,.64,1.5,1,2.4,1s1.77-.36,2.4-1l15.22-15.22c1.33-1.33,1.33-3.48,0-4.81l-14.22-14.22v-6.44Z"/></g></g></svg>