<?xml version="1.0" encoding="UTF-8"?><svg id="Calque_1" xmlns="http://www.w3.org/2000/svg" xmlns:xlink="http://www.w3.org/1999/xlink" viewBox="0 0 621.31 707.68"><defs><style>.cls-1{fill:url(#GradientFill_23);}.cls-1,.cls-2,.cls-3,.cls-4,.cls-5{fill-rule:evenodd;}.cls-2{fill:url(#GradientFill_22);}.cls-6{fill:#3a250c;}.cls-3{fill:url(#GradientFill_22-2);}.cls-4{fill:url(#GradientFill_5);}.cls-5{fill:url(#Dégradé_sans_nom_25);}</style><linearGradient id="Dégradé_sans_nom_25" x1="23.73" y1="-22.7" x2="645.21" y2="684.06" gradientUnits="userSpaceOnUse"><stop offset="0" stop-color="#c89749"/><stop offset=".1" stop-color="#8e5523"/><stop offset=".25" stop-color="#deac55"/><stop offset=".4" stop-color="#ffee9d"/><stop offset=".6" stop-color="#e8c576"/><stop offset=".75" stop-color="#dbaa4d"/><stop offset=".9" stop-color="#8b5623"/></linearGradient><linearGradient id="GradientFill_22" x1="10.36" y1="354.43" x2="610.17" y2="354.43" gradientUnits="userSpaceOnUse"><stop offset="0" stop-color="#c89749"/><stop offset=".04" stop-color="#8e5523"/><stop offset=".15" stop-color="#ffee9d"/><stop offset=".23" stop-color="#deac55"/><stop offset=".51" stop-color="#e8c576"/><stop offset=".81" stop-color="#dbaa4d"/><stop offset=".86" stop-color="#fcf6b2"/><stop offset=".95" stop-color="#8b5623"/><stop offset="1" stop-color="#ca983e"/></linearGradient><linearGradient id="GradientFill_5" x1="310.26" y1="677.43" x2="310.26" y2="-36.17" gradientUnits="userSpaceOnUse"><stop offset="0" stop-color="#f7d637"/><stop offset=".23" stop-color="#a97f2c"/><stop offset=".39" stop-color="#230b0a"/><stop offset=".46" stop-color="#6d4c1e"/><stop offset=".51" stop-color="#1a0b05"/><stop offset=".53" stop-color="#f8f1de"/><stop offset=".86" stop-color="#f3e3c2"/><stop offset="1" stop-color="#d0ab5b"/></linearGradient><linearGradient id="GradientFill_22-2" x1="40.3" y1="352.53" x2="580.23" y2="352.53" xlink:href="#GradientFill_22"/><linearGradient id="GradientFill_23" x1="310.66" y1="551.68" x2="310.66" y2="117.18" gradientUnits="userSpaceOnUse"><stop offset="0" stop-color="#dba73e"/><stop offset=".16" stop-color="#d89d3a"/><stop offset=".3" stop-color="#a46b28"/><stop offset=".46" stop-color="#8e5723"/><stop offset=".49" stop-color="#f4f3b8"/><stop offset=".56" stop-color="#f7ed9a"/><stop offset=".69" stop-color="#d5b767"/><stop offset=".75" stop-color="#a76f29"/><stop offset=".85" stop-color="#d0ab5b"/><stop offset="1" stop-color="#e0c77d"/></linearGradient></defs><polygon class="cls-5" points="310.26 656.84 580.23 509.46 580.23 96.85 310.26 48.05 40.3 96.85 40.3 509.46 310.26 656.84"/><g><path class="cls-2" d="M39.5,66.67L305.65,18.81l3.17-.57,2.11-.38,2.09,.38,3.15,.57,269.31,48.68,14.83,2.68,9.85,1.78v455.16l-6.25,3.41-9.42,5.15-270.27,147.54-8.58,4.69-5.7,3.11-5.69-3.11-8.57-4.69L26.03,535.66l-9.42-5.15-6.26-3.42V71.99l9.85-1.79,14.78-2.7h0s4.46-.83,4.46-.83h.05Zm270.34-24.43h0L43.75,90.09h0s-4.47,.82-4.47,.82h-.04l-4.98,.91v421.19l3.16,1.73,269.66,147.54,2.88,1.58,2.89-1.58,270.27-147.54,3.16-1.73V91.82l-4.99-.9L311.98,42.24l-1.06-.19-1.07,.19h0Zm1.05,36.23h0L70.24,121.75V491.84l239.73,131.17,240.31-131.19V121.74l-239.38-43.27h0ZM56.19,100.09h0l-9.85,1.77V505.9l6.26,3.42,251.67,137.7,5.68,3.11,5.7-3.11,252.27-137.71,6.26-3.42V101.87l-9.85-1.78-251.33-45.42-2.09-.38-2.1,.38L56.19,100.09Z"/><path class="cls-4" d="M41.6,78.39L307.74,30.52l3.18-.57,3.15,.57,269.31,48.69,14.83,2.67v438.18l-9.41,5.14-270.27,147.54-8.58,4.68-8.57-4.68L31.72,525.21l-9.42-5.15V81.91l14.83-2.7,4.46-.82h0Zm269.3-12.01h0L58.29,111.81V498.87l251.67,137.7,252.27-137.71V111.8l-251.33-45.42Z"/><path class="cls-3" d="M310.26,48.05l269.96,48.8V509.46l-269.96,147.38v-12.32l259.12-141.45V105.86L310.26,59.03v-10.98h0ZM44.76,96.03h0l-4.47,.82V509.46l269.66,147.54,.3-.16v-12.32l-.3,.16L51.14,503.07V105.86L310.26,59.03v-10.98L44.76,96.03Z"/></g><path class="cls-1" d="M342.88,533.81c-1.72,.68-3.32,1.04-4.76,1.21,1.43-.17,3.08-.18,4.91,.11,4.83,.3,18.77,13.69,19.32,16.46-2.83-1.74-3.63-4.26-8.58-4.53-3.3-.17-7.73-.18-11.06-.37-9.61-.57-7.32-8.9-14.19-9.49l-.19-.87,3.44,.21c.99-.1,3.16-1.15,6.33-1.52-3.17,.37-5.52-.18-6.51-.05l-3.31,.98v-.88c6.54-2.14,2.42-9.74,11.66-12.46,3.2-.94,7.51-1.95,10.69-2.88,4.75-1.38,4.96-4,7.32-6.34,.09,2.82-10.44,19.02-15.09,20.42h0Zm-32.13-1.63h0c2.94,0,5.32,2.38,5.32,5.32s-2.38,5.32-5.32,5.32-5.31-2.38-5.31-5.32,2.38-5.32,5.31-5.32h0Zm72.7-393.96h0c5.61,1.94,9.87,.5,11.32,.6l3.35,.83-.03-.88c-6.65-1.81-2.91-9.6-12.27-11.87-3.23-.79-7.59-1.59-10.81-2.35-4.81-1.14-5.15-3.76-7.63-5.98,.05,2.82,11.36,18.48,16.07,19.65h0Zm-145.57,.1h0c-5.61,1.93-9.86,.49-11.32,.6l-3.35,.83,.03-.89c6.65-1.81,2.92-9.6,12.27-11.87,3.23-.79,7.59-1.58,10.81-2.35,4.81-1.14,5.15-3.76,7.63-5.99-.05,2.83-11.37,18.5-16.07,19.66h0Zm14.88,391.38h0c1.85-.04,3.48,.17,4.89,.52-1.41-.35-2.95-.9-4.58-1.79-4.44-1.97-12.87-19.36-12.42-22.14,2.05,2.6,1.93,5.25,6.47,7.21,3.04,1.31,7.19,2.85,10.24,4.18,8.83,3.86,3.8,10.87,10.03,13.81l-.13,.87-3.16-1.4c-.97-.24-3.37,0-6.46-.75,3.09,.75,5.11,2.07,6.09,2.29l3.44,.23-.29,.83c-6.89-.27-5.65,8.28-15.27,7.64-3.32-.23-7.72-.77-11.02-1.01-4.93-.34-6.04,2.05-9.07,3.43,.9-2.67,16.39-14.22,21.23-13.94h0Zm-24.81-8.86h0c-4.76-.91-21.58,8.61-22.8,11.14,3.17-.98,4.58-3.22,9.42-2.25,3.25,.65,7.54,1.74,10.81,2.38,9.45,1.84,9.31-6.8,16.1-5.67l.4-.79-3.39-.65c-.92-.34-2.69-1.85-5.55-2.97,2.88,1.06,5.2,1.12,6.12,1.49l2.95,1.77,.23-.85c-5.82-3.7,.06-10.04-8.22-14.96-2.86-1.7-6.78-3.75-9.63-5.45-4.26-2.51-3.81-5.11-5.52-7.96-.79,2.71,5.39,21.02,9.54,23.53,1.5,1.09,2.97,1.84,4.32,2.36-1.35-.52-2.94-.95-4.79-1.13h0Zm-23.49-11.92h0c1.81,.41,3.33,1.04,4.6,1.72-7.39-3.97-12.59-22.6-10.5-27.41,1.34,3.04,.57,5.57,4.48,8.59,2.61,2.03,6.25,4.56,8.88,6.61,7.58,5.93,.96,11.48,6.26,15.88l-.34,.8-2.71-2.12c-.88-.49-3.26-.85-6.07-2.35,2.81,1.49,4.44,3.29,5.33,3.75l3.27,1.08-.49,.73c-6.6-1.99-7.54,6.61-16.69,3.59-3.16-1.03-7.28-2.66-10.42-3.71-4.69-1.57-6.36,.47-9.64,1.05,1.53-2.38,19.41-9.69,24.03-8.2h0Zm-21.81-14.77h0c-4.39-2.07-23.05,2.95-24.86,5.11,3.32-.16,5.24-1.98,9.69,.17,2.98,1.44,6.86,3.57,9.87,5,8.69,4.15,10.7-4.26,17.01-1.47l.58-.66-3.12-1.47c-.81-.57-2.19-2.54-4.77-4.36,2.58,1.82,4.88,2.48,5.69,3.06l2.42,2.46,.44-.77c-4.71-5.03,2.55-9.71-4.22-16.54-2.35-2.37-5.64-5.33-7.97-7.66-3.5-3.5-2.41-5.91-3.36-9.1-1.44,2.43-.01,21.69,3.38,25.15,1.17,1.42,2.39,2.5,3.56,3.33-1.18-.83-2.6-1.63-4.32-2.26h0Zm-19.78-17.4h0c1.65,.85,2.97,1.83,4.04,2.81-1.07-.98-2.15-2.21-3.14-3.78-2.93-3.86-1.92-23.15-.19-25.38,.54,3.27-.84,5.53,2.19,9.43,2.02,2.62,4.91,5.96,6.95,8.61,5.86,7.64-1.93,11.36,2.11,16.94l-.53,.7-2.09-2.74c-.73-.68-2.95-1.63-5.29-3.78,2.34,2.15,3.48,4.28,4.22,4.96l2.91,1.85-.66,.59c-5.9-3.55-8.95,4.52-17.06-.68-2.8-1.8-6.39-4.4-9.17-6.19-4.15-2.7-6.27-1.13-9.59-1.39,2.08-1.91,21.22-4.55,25.31-1.95h0Zm-17.43-19.75h0c1.53,1.05,2.71,2.19,3.64,3.29-.93-1.1-1.86-2.46-2.64-4.14-2.43-4.21,1-23.22,3-25.21,.12,3.32-1.53,5.38,.98,9.64,1.69,2.85,4.14,6.55,5.82,9.41,4.86,8.32-3.35,11.02-.04,17.07l-.61,.63-1.73-2.99c-.64-.77-2.72-1.98-4.78-4.42,2.06,2.44,2.9,4.69,3.56,5.44l2.65,2.22-.72,.49c-5.41-4.27-9.46,3.36-16.84-2.82-2.55-2.14-5.78-5.17-8.31-7.3-3.78-3.18-6.09-1.9-9.35-2.58,2.3-1.64,21.62-1.83,25.36,1.25h0Zm-14.81-21.78h0c1.38,1.23,2.41,2.52,3.2,3.73,1.73,2.67,3.65,4.14,4.18,4.98l1.35,3.17,.69-.54c-2.52-6.4,5.95-8.07,2.18-16.93-1.31-3.07-3.27-7.03-4.58-10.07-1.96-4.54-.06-6.37,.24-9.69-2.23,1.72-8.03,20.16-6.15,24.62,.57,1.77,1.31,3.24,2.1,4.45,1.74,2.67,2.3,5.02,2.85,5.86l2.36,2.51-.79,.41c-4.83-4.91-9.79,2.15-16.34-4.91-2.27-2.43-5.09-5.85-7.34-8.29-3.35-3.63-5.79-2.65-8.94-3.73,2.49-1.33,21.68,.89,25,4.43h0Zm-11.96-23.47h0c3.89,4.47,4.15,8.96,4.8,10.26l2.02,2.8-.83,.29c-4.17-5.47-9.99,.91-15.6-6.91-1.94-2.71-4.32-6.44-6.23-9.14-2.87-4.04-5.42-3.37-8.41-4.83,2.64-1.01,21.4,3.61,24.25,7.54h0Zm1.19-.57h0c-1.3-4.67,6.76-22.23,9.19-23.66-.7,3.26-2.82,4.84-1.45,9.58,.92,3.18,2.37,7.37,3.27,10.57,2.64,9.25-5.99,9.83-4.28,16.52l-.76,.46-.93-3.33c-.62-1.32-3.97-4.3-5.05-10.14h0Zm-10.1-24.22h0c-2.33-4.26-20.36-11.2-23.1-10.52,2.78,1.82,5.39,1.49,7.73,5.84,1.56,2.93,3.45,6.93,5.03,9.86,4.59,8.46,11.16,2.87,14.61,8.83l.86-.19-1.65-3.04c-.33-.94-.28-3.35-1.3-6.36,1.01,3.02,2.5,4.92,2.81,5.87l.5,3.41,.81-.37c-.86-6.84,7.77-6.33,6.33-15.85-.5-3.3-1.41-7.62-1.92-10.88-.76-4.89,1.53-6.2,2.64-9.33-2.58,1.11-12.79,17.51-12.09,22.32,.1,1.85,.46,3.46,.92,4.83-.46-1.37-1.15-2.87-2.17-4.41h0Zm-5.73-25.72h0c.83,1.67,1.32,3.23,1.6,4.65-.28-1.42-.44-3.05-.31-4.91-.09-4.85,12.09-19.84,14.8-20.63-1.5,2.97-3.94,3.97-3.8,8.92,.09,3.3,.46,7.72,.54,11.05,.24,9.62-8.25,8.04-8.27,14.93l-.85,.25-.08-3.45c-.18-.98-1.42-3.06-2.04-6.18,.62,3.12,.28,5.51,.49,6.49l1.26,3.21-.88,.08c-2.67-6.35-9.9-1.62-13.38-10.59-1.21-3.1-2.57-7.31-3.75-10.4-1.77-4.62-4.41-4.62-6.94-6.78,2.81-.32,19.82,8.83,21.6,13.34h0Zm-2.45-26.23h0c-1.2-4.7-16.93-15.92-19.75-15.95,2.23,2.47,4.85,2.79,6.03,7.59,.78,3.22,1.61,7.57,2.41,10.79,2.33,9.35,10.09,5.56,11.94,12.2l.89,.02-.85-3.35c-.08-1,.56-3.32,.33-6.5-.1-1.44-.05-3.09,.31-4.9,.52-4.83,14.49-18.16,17.28-18.61-1.86,2.77-4.41,3.45-4.88,8.37-.32,3.29-.52,7.72-.86,11.03-.98,9.59-9.2,6.94-10.09,13.77l-.87,.15,.36-3.43c-.06-1-1.03-3.2-1.26-6.38-.11-1.44-.39-3.06-1.01-4.82h0Zm.86-26.32h0c-.6-4.81-14.79-17.92-17.58-18.31,1.91,2.72,4.47,3.37,5.03,8.29,.37,3.28,.64,7.7,1.04,11.01,1.14,9.56,9.31,6.79,10.32,13.6l.87,.14-.42-3.43c.05-1,.97-3.23,1.15-6.41,.08-1.44,.33-3.07,.92-4.83,1.12-4.73,16.66-16.2,19.48-16.27-2.19,2.5-4.8,2.86-5.9,7.68-.73,3.23-1.48,7.6-2.23,10.84-2.17,9.38-10,5.72-11.74,12.4l-.88,.03,.79-3.36c.06-1-.62-3.32-.44-6.49,.08-1.44,0-3.09-.4-4.9h0Zm4.17-26.02h0c0-4.85-12.42-19.63-15.15-20.37,1.55,2.95,4.01,3.91,3.95,8.86-.04,3.3-.33,7.72-.36,11.05-.08,9.63,8.38,7.9,8.52,14.79l.85,.24v-3.44c.18-.99,1.38-3.08,1.95-6.21,.26-1.42,.73-3,1.53-4.68,1.7-4.55,18.56-13.98,21.37-13.71-2.49,2.2-5.13,2.24-6.82,6.88-1.13,3.12-2.43,7.36-3.58,10.48-3.33,9.03-10.64,4.42-13.2,10.82l-.88-.07,1.2-3.25c.19-.97-.19-3.36,.38-6.49,.26-1.42,.39-3.06,.23-4.92h0Zm7.4-25.28h0c-.07,1.85-.41,3.47-.85,4.85-.96,3.03-.88,5.44-1.19,6.39l-1.61,3.06,.86,.18c3.36-6.03,10.02-.54,14.46-9.07,1.54-2.96,3.35-6.99,4.86-9.94,2.26-4.4,4.89-4.1,7.63-5.97-2.75-.63-20.66,6.62-22.92,10.9-1.01,1.56-1.66,3.07-2.1,4.45-.96,3.03-2.41,4.95-2.71,5.92l-.45,3.42-.81-.34c.73-6.85-7.88-6.21-6.6-15.74,.44-3.3,1.28-7.65,1.74-10.93,.68-4.9-1.64-6.17-2.8-9.28,2.61,1.07,13.09,17.31,12.47,22.11h0Zm10.52-24.15h0c1.23-4.69-7.13-22.12-9.58-23.51,.76,3.24,2.9,4.78,1.61,9.57-.87,3.19-2.25,7.4-3.1,10.61-2.48,9.3,6.15,9.75,4.57,16.45l.76,.44,.88-3.33c.41-.91,2.1-2.64,3.43-5.53,.61-1.31,1.45-2.73,2.64-4.15,2.78-3.96,21.46-8.9,24.11-7.93-2.96,1.52-5.53,.89-8.32,4.97-1.87,2.73-4.18,6.5-6.07,9.24-5.48,7.92-11.4,1.63-15.48,7.18l-.83-.29,1.97-2.84c.43-.9,.65-3.3,1.99-6.19,.6-1.31,1.14-2.87,1.44-4.7h0Zm13.48-22.64c-.54,1.78-1.26,3.25-2.02,4.48-1.69,2.7-2.21,5.05-2.75,5.89l-2.31,2.56,.79,.4c4.74-4.99,9.83,1.98,16.27-5.18,2.22-2.48,4.99-5.93,7.18-8.41,3.29-3.69,5.76-2.75,8.89-3.88-2.51-1.29-21.67,1.24-24.92,4.85-1.36,1.25-2.37,2.55-3.14,3.78-1.69,2.7-3.57,4.2-4.1,5.05l-1.29,3.2-.7-.54c2.42-6.45-6.09-7.97-2.46-16.89,1.25-3.1,3.15-7.1,4.41-10.15,1.88-4.57-.04-6.38-.4-9.69,2.27,1.69,8.36,20.03,6.56,24.53h0Zm16.21-20.77h0c2.36-4.23-1.39-23.18-3.42-25.15-.07,3.32,1.62,5.36-.82,9.66-1.63,2.88-4.02,6.6-5.65,9.5-4.72,8.39,3.53,10.97,.32,17.06l.63,.64,1.67-3.02c.63-.78,2.69-2.03,4.71-4.5-2.01,2.47-2.83,4.75-3.47,5.51l-2.62,2.25,.73,.49c5.33-4.37,9.5,3.2,16.79-3.1,2.52-2.18,5.7-5.27,8.19-7.44,3.73-3.26,6.05-2.01,9.3-2.74-2.33-1.6-21.65-1.48-25.33,1.67-1.52,1.07-2.68,2.24-3.59,3.36,.92-1.12,1.82-2.5,2.57-4.2h0Zm18.7-18.56h0c2.87-3.91,1.53-23.18-.23-25.38-.49,3.28,.93,5.51-2.04,9.47-1.98,2.65-4.82,6.05-6.8,8.73-5.73,7.74,2.13,11.33-1.82,16.97l.54,.7,2.05-2.78c.71-.7,2.92-1.68,5.23-3.87-2.31,2.18-3.41,4.34-4.14,5.02l-2.87,1.9,.67,.58c5.83-3.65,9.02,4.37,17.04-.97,2.77-1.84,6.32-4.5,9.06-6.34,4.11-2.75,6.26-1.24,9.57-1.54-2.1-1.88-21.28-4.19-25.34-1.53-1.64,.88-2.94,1.88-3.99,2.89,1.05-1.01,2.12-2.25,3.08-3.84h0Zm20.88-16.06h0c-1.15,1.46-2.37,2.57-3.54,3.42-2.56,1.88-3.92,3.89-4.73,4.47l-3.1,1.53,.59,.65c6.26-2.9,8.4,5.46,17.03,1.18,2.98-1.48,6.83-3.68,9.78-5.16,4.42-2.23,6.37-.44,9.69-.33-1.85-2.13-20.59-6.83-24.95-4.7-1.73,.67-3.15,1.51-4.32,2.36-2.56,1.89-4.87,2.58-5.68,3.19l-2.38,2.5-.45-.76c4.63-5.11-2.72-9.66,3.95-16.61,2.3-2.4,5.54-5.42,7.84-7.8,3.44-3.56,2.31-5.94,3.2-9.15,1.48,2.4,.38,21.69-2.95,25.21h0Zm22.73-13.3h0c3.76-3.07,7.27-22.07,6.11-24.64-1.29,3.07-.48,5.57-4.33,8.67-2.58,2.07-6.18,4.65-8.76,6.75-7.49,6.07-.77,11.5-6.01,15.98l.35,.81,2.67-2.18c.87-.49,3.26-.89,6.03-2.45-2.78,1.54-4.37,3.36-5.26,3.84l-3.26,1.12,.5,.73c6.57-2.09,7.65,6.49,16.74,3.31,3.15-1.08,7.24-2.79,10.36-3.89,4.66-1.64,6.37,.37,9.65,.89-1.57-2.34-19.57-9.36-24.16-7.8-1.8,.44-3.32,1.09-4.58,1.8,1.26-.71,2.61-1.65,3.94-2.94h0Zm61.76,393.3h0c-4.84,.3-18.77,13.7-19.32,16.47,2.84-1.74,3.64-4.25,8.58-4.52,3.3-.17,7.73-.18,11.05-.38,9.61-.56,7.32-8.9,14.18-9.49l.19-.86-3.44,.21c-.99-.11-3.16-1.16-6.32-1.52,3.16,.37,5.51-.18,6.5-.05l3.3,.98,.02-.88c-6.55-2.14-2.43-9.73-11.67-12.46-3.2-.94-7.51-1.95-10.68-2.88-4.75-1.38-4.97-4.01-7.33-6.33-.09,2.82,10.44,19.01,15.09,20.4,1.72,.69,3.32,1.05,4.76,1.21-1.44-.17-3.08-.19-4.91,.1h0Zm90.27-5.6h0c-1.83-.06-3.45,.16-4.85,.5,1.4-.35,2.93-.9,4.54-1.79,4.43-1.97,12.87-19.35,12.42-22.13-2.05,2.61-1.94,5.25-6.48,7.21-3.04,1.31-7.19,2.85-10.24,4.18-8.82,3.86-3.79,10.88-10.03,13.82l.12,.87,3.15-1.39c.97-.25,3.34,0,6.41-.75-3.06,.75-5.06,2.07-6.03,2.29l-3.45,.22,.29,.83c6.89-.27,5.66,8.28,15.26,7.64,3.32-.23,7.72-.77,11.02-1,4.93-.35,6.04,2.04,9.07,3.42-.89-2.68-16.38-14.23-21.23-13.93h0Zm24.81-8.88h0c4.76-.9,21.58,8.61,22.8,11.15-3.17-.98-4.57-3.21-9.43-2.25-3.24,.65-7.53,1.74-10.8,2.38-9.45,1.84-9.31-6.81-16.1-5.66l-.4-.79,3.39-.65c.92-.34,2.69-1.84,5.55-2.97-2.88,1.07-5.21,1.12-6.12,1.48l-2.95,1.78-.23-.86c5.82-3.69-.05-10.02,8.22-14.96,2.86-1.7,6.78-3.75,9.63-5.44,4.25-2.52,3.81-5.11,5.52-7.96,.79,2.71-5.39,21.01-9.54,23.51-1.5,1.1-2.96,1.84-4.32,2.36,1.36-.52,2.95-.94,4.79-1.13h0Zm23.49-11.91h0c-1.81,.41-3.33,1.02-4.61,1.72,1.28-.69,2.64-1.61,3.98-2.89,3.81-3.01,7.64-21.94,6.52-24.53-1.34,3.04-.57,5.57-4.48,8.61-2.62,2.02-6.25,4.55-8.87,6.6-7.58,5.93-.96,11.48-6.27,15.87l.34,.82,2.71-2.15c.88-.48,3.27-.84,6.07-2.34-2.81,1.5-4.43,3.28-5.32,3.74l-3.28,1.07,.49,.74c6.6-1.98,7.55,6.61,16.69,3.59,3.16-1.04,7.28-2.67,10.42-3.72,4.68-1.56,6.36,.48,9.63,1.05-1.53-2.36-19.41-9.69-24.03-8.19h0Zm21.81-14.77h0c4.39-2.06,23.05,2.95,24.86,5.11-3.32-.16-5.24-1.98-9.69,.17-2.98,1.44-6.86,3.57-9.87,5-8.69,4.14-10.71-4.27-17.01-1.47l-.58-.68,3.12-1.47c.82-.57,2.21-2.54,4.81-4.38-2.6,1.85-4.92,2.51-5.74,3.09l-2.42,2.46-.44-.77c4.71-5.02-2.55-9.69,4.22-16.54,2.35-2.37,5.64-5.32,7.98-7.66,3.5-3.5,2.42-5.91,3.36-9.09,1.44,2.42,.01,21.7-3.38,25.16-1.18,1.43-2.41,2.52-3.59,3.36,1.18-.83,2.61-1.64,4.35-2.28h0Zm19.79-17.4h0c-1.65,.86-2.97,1.83-4.03,2.82,1.06-.98,2.15-2.22,3.14-3.78,2.93-3.86,1.92-23.16,.19-25.39-.53,3.29,.84,5.54-2.19,9.45-2.03,2.62-4.91,5.97-6.94,8.61-5.86,7.63,1.94,11.36-2.11,16.94l.53,.7,2.09-2.74c.73-.68,2.95-1.63,5.29-3.78-2.34,2.15-3.47,4.29-4.22,4.96l-2.91,1.85,.66,.58c5.9-3.56,8.95,4.53,17.06-.68,2.8-1.8,6.38-4.39,9.16-6.19,4.15-2.69,6.27-1.14,9.59-1.39-2.07-1.91-21.21-4.54-25.31-1.95h0Zm17.43-19.74h0c3.74-3.09,23.06-2.89,25.36-1.26-3.26,.68-5.57-.6-9.34,2.59-2.53,2.14-5.75,5.16-8.31,7.3-7.38,6.17-11.43-1.46-16.84,2.81l-.72-.5,2.65-2.2c.66-.76,1.5-3.02,3.56-5.45,.93-1.1,1.85-2.46,2.64-4.14,2.42-4.21-1-23.22-3-25.21-.12,3.32,1.53,5.38-.98,9.64-1.69,2.84-4.13,6.53-5.81,9.41-4.86,8.32,3.35,11.02,.04,17.07l.61,.64,1.73-2.98c.64-.77,2.72-2,4.78-4.42,.93-1.1,2.11-2.25,3.64-3.3h0Zm14.82-21.78h0c-1.38,1.23-2.42,2.51-3.21,3.72-1.73,2.68-3.64,4.14-4.18,4.99l-1.35,3.18-.69-.55c2.53-6.41-5.95-8.06-2.17-16.94,1.3-3.06,3.27-7.03,4.58-10.05,1.96-4.54,.07-6.38-.23-9.7,2.23,1.73,8.02,20.15,6.14,24.63-.57,1.77-1.31,3.23-2.1,4.44-1.74,2.66-2.29,5.01-2.84,5.85l-2.36,2.53,.78,.41c4.83-4.93,9.8,2.14,16.35-4.92,2.26-2.43,5.09-5.85,7.33-8.28,3.35-3.64,5.8-2.66,8.94-3.73-2.48-1.33-21.68,.88-24.99,4.43h0Zm11.96-23.48h0c-1.22,1.4-2.08,2.8-2.71,4.1-1.38,2.87-3.1,4.56-3.53,5.47l-.93,3.33-.75-.47c1.7-6.67-6.92-7.25-4.29-16.52,.9-3.2,2.36-7.38,3.28-10.56,1.37-4.76-.74-6.34-1.45-9.58,2.43,1.43,10.49,18.99,9.19,23.66-.34,1.82-.89,3.37-1.52,4.67-1.39,2.86-1.65,5.26-2.1,6.16l-2.02,2.8,.82,.3c4.17-5.49,9.99,.89,15.61-6.92,1.94-2.71,4.31-6.45,6.23-9.15,2.87-4.03,5.42-3.36,8.4-4.83-2.63-1.01-21.4,3.6-24.24,7.53h0Zm8.92-24.79h0c-1.03,1.55-1.71,3.04-2.17,4.42-1.01,3.01-2.5,4.92-2.81,5.87l-.51,3.42-.81-.36c.86-6.84-7.77-6.33-6.32-15.85,.5-3.29,1.41-7.63,1.92-10.89,.77-4.88-1.52-6.19-2.64-9.33,2.59,1.12,12.79,17.52,12.1,22.32-.11,1.85-.47,3.46-.93,4.84-1.01,3.01-.97,5.42-1.3,6.37l-1.65,3.02,.86,.2c3.45-5.96,10.03-.36,14.61-8.83,1.59-2.93,3.47-6.93,5.03-9.85,2.33-4.36,4.95-4.02,7.73-5.86-2.74-.66-20.77,6.28-23.1,10.52h0Zm5.72-25.7h0c-.83,1.66-1.31,3.22-1.6,4.64,.28-1.42,.44-3.05,.31-4.9,.09-4.85-12.1-19.84-14.81-20.62,1.5,2.96,3.94,3.96,3.8,8.91-.1,3.31-.46,7.72-.54,11.05-.24,9.63,8.25,8.05,8.28,14.93l.84,.25,.08-3.44c.18-.99,1.42-3.06,2.05-6.18-.62,3.13-.29,5.51-.49,6.49l-1.26,3.21,.88,.08c2.67-6.35,9.9-1.62,13.38-10.6,1.2-3.11,2.57-7.31,3.75-10.4,1.77-4.62,4.41-4.61,6.93-6.78-2.8-.32-19.81,8.83-21.6,13.35h0Zm2.46-26.24h0c1.19-4.7,16.93-15.92,19.74-15.94-2.23,2.46-4.85,2.78-6.02,7.59-.78,3.22-1.61,7.57-2.42,10.8-2.33,9.35-10.09,5.56-11.94,12.2l-.88,.03,.84-3.35c.12-1.45-1.29-5.71,.68-11.32h0Zm-1.32-.09h0c1.15,5.83-.85,9.84-.94,11.29l.36,3.44-.87-.15c-.89-6.83-9.12-4.19-10.09-13.77-.33-3.31-.53-7.73-.85-11.03-.48-4.92-3.03-5.61-4.89-8.37,2.79,.43,16.76,13.77,17.28,18.6h0Zm.45-26.24h0c-.39,1.81-.47,3.46-.4,4.9-.07-1.45-.33-3.07-.92-4.83-1.13-4.73-16.66-16.2-19.48-16.28,2.19,2.51,4.8,2.87,5.9,7.69,.73,3.22,1.48,7.59,2.24,10.83,2.17,9.38,10,5.73,11.73,12.39l.88,.04-.78-3.37c-.07-.99,.62-3.31,.43-6.49,.18,3.17,1.11,5.4,1.15,6.41l-.42,3.43,.87-.14c1-6.82,9.18-4.04,10.31-13.61,.4-3.3,.67-7.72,1.04-11.01,.57-4.92,3.12-5.56,5.03-8.29-2.8,.39-16.98,13.49-17.58,18.3h0Zm-4.17-26.01h0c-.16,1.85-.03,3.49,.23,4.91,.58,3.13,.19,5.52,.38,6.51l1.2,3.23-.88,.07c-2.56-6.4-9.87-1.79-13.2-10.82-1.15-3.12-2.44-7.36-3.57-10.47-1.69-4.64-4.33-4.68-6.82-6.88,2.8-.29,19.67,9.15,21.37,13.7,.8,1.66,1.26,3.24,1.53,4.67,.57,3.13,1.77,5.22,1.94,6.22l.02,3.44,.85-.24c.14-6.9,8.6-5.15,8.52-14.79-.02-3.32-.31-7.74-.35-11.05-.06-4.95,2.39-5.92,3.94-8.85-2.72,.73-15.16,15.52-15.14,20.37h0Zm-7.41-25.28h0c.08,1.85,.41,3.47,.85,4.85,.96,3.04,.88,5.45,1.19,6.39l1.6,3.06-.86,.18c-3.34-6.03-10.01-.54-14.46-9.08-1.54-2.95-3.35-6.99-4.87-9.92-2.26-4.4-4.88-4.11-7.63-5.99,2.75-.62,20.67,6.61,22.92,10.9,1.01,1.56,1.66,3.07,2.1,4.45,.96,3.04,2.41,4.96,2.71,5.92l.45,3.41,.81-.34c-.73-6.86,7.89-6.21,6.6-15.74-.45-3.3-1.28-7.65-1.74-10.93-.68-4.9,1.62-6.16,2.8-9.28-2.61,1.07-13.09,17.3-12.47,22.11h0Zm-10.52-24.15c.3,1.83,.84,3.39,1.44,4.7,1.34,2.89,1.56,5.29,1.99,6.2l1.97,2.83-.83,.29c-4.08-5.56-10.01,.72-15.49-7.19-1.9-2.73-4.2-6.51-6.07-9.24-2.8-4.08-5.36-3.45-8.32-4.97,2.66-.96,21.33,3.96,24.11,7.94,1.2,1.41,2.04,2.83,2.64,4.14,1.33,2.9,3.02,4.61,3.43,5.53l.88,3.34,.76-.45c-1.59-6.71,7.04-7.14,4.57-16.46-.86-3.21-2.23-7.42-3.1-10.62-1.29-4.78,.84-6.32,1.61-9.56-2.46,1.39-10.81,18.82-9.58,23.5h0Zm-13.48-22.64h0c-1.8-4.49,4.3-22.83,6.56-24.52-.36,3.3-2.28,5.11-.4,9.68,1.25,3.06,3.15,7.06,4.4,10.15,3.63,8.92-4.88,10.44-2.46,16.89l-.69,.55-1.29-3.21c-.52-.85-2.41-2.36-4.1-5.05-.77-1.22-1.78-2.52-3.14-3.78-3.25-3.6-22.41-6.14-24.92-4.85,3.13,1.13,5.6,.19,8.89,3.88,2.2,2.48,4.96,5.93,7.18,8.41,6.44,7.17,11.52,.18,16.27,5.18l.79-.39-2.31-2.56c-.54-.85-1.06-3.2-2.75-5.9-.76-1.23-1.49-2.7-2.02-4.49h0Zm-16.21-20.76h0c-2.35-4.23,1.39-23.19,3.42-25.15,.07,3.33-1.62,5.36,.82,9.65,1.63,2.88,4.02,6.61,5.65,9.52,4.71,8.39-3.53,10.96-.32,17.07l-.62,.62-1.68-3.01c-.63-.77-2.69-2.02-4.7-4.49,2.01,2.47,2.83,4.74,3.46,5.51l2.62,2.25-.74,.49c-5.33-4.37-9.5,3.2-16.79-3.1-2.51-2.18-5.7-5.26-8.19-7.43-3.72-3.25-6.05-2.01-9.29-2.75,2.32-1.59,21.64-1.47,25.33,1.68,1.51,1.08,2.68,2.24,3.59,3.35-.92-1.12-1.82-2.49-2.57-4.19h0Zm-18.69-18.56h0c-2.87-3.9-1.54-23.18,.23-25.38,.48,3.29-.93,5.52,2.04,9.48,1.98,2.64,4.81,6.05,6.8,8.72,5.74,7.73-2.12,11.32,1.83,16.97l-.54,.7-2.05-2.78c-.72-.7-2.92-1.68-5.23-3.87,2.31,2.19,3.4,4.34,4.13,5.03l2.87,1.9-.66,.58c-5.84-3.65-9.03,4.37-17.05-.96-2.77-1.86-6.31-4.51-9.06-6.35-4.11-2.76-6.26-1.23-9.57-1.55,2.11-1.89,21.29-4.19,25.34-1.53,1.64,.88,2.94,1.89,3.99,2.88-1.05-.99-2.12-2.25-3.08-3.84h0Zm-20.88-16.07h0c-3.34-3.52-4.44-22.8-2.96-25.2,.89,3.2-.23,5.59,3.21,9.14,2.3,2.38,5.54,5.4,7.84,7.81,6.66,6.95-.68,11.5,3.95,16.6l-.45,.76-2.38-2.49c-.8-.6-3.11-1.3-5.68-3.19-1.16-.85-2.58-1.69-4.31-2.36-4.36-2.13-23.09,2.58-24.95,4.7,3.33-.1,5.27-1.89,9.69,.33,2.96,1.48,6.8,3.68,9.78,5.16,8.63,4.28,10.78-4.08,17.03-1.19l.59-.66-3.1-1.53c-.81-.58-2.16-2.58-4.73-4.47-1.16-.85-2.38-1.96-3.53-3.42h0Zm-22.74-13.3h0c-3.75-3.08-7.27-22.07-6.11-24.64,1.29,3.07,.48,5.58,4.34,8.68,2.58,2.06,6.17,4.66,8.76,6.75,7.49,6.06,.77,11.5,6.01,15.98l-.35,.81-2.68-2.18c-.87-.49-3.25-.89-6.03-2.45-1.26-.7-2.77-1.35-4.58-1.79-4.58-1.57-22.59,5.45-24.16,7.81,3.29-.52,4.99-2.54,9.66-.9,3.12,1.1,7.21,2.8,10.35,3.9,9.1,3.15,10.18-5.41,16.74-3.32l.5-.74-3.27-1.12c-.88-.47-2.47-2.3-5.26-3.84-1.26-.7-2.61-1.66-3.94-2.94Z"/><g id="logo_BG_White"><g id="ollorun"><path class="cls-6" d="M424.37,400.78c-3.81-3.49-8.36-5.29-13.55-5.29s-9.74,1.8-13.55,5.29c-3.7,3.49-5.61,8.79-5.61,15.98v24.34h10.16v-24.34c0-7.62,3.49-11.54,9-11.54s9.1,4.02,9.1,11.54v24.34h10.16v-24.34c0-7.09-1.9-12.49-5.72-15.98Z"/><path class="cls-6" d="M376.57,420.36c0,7.52-3.6,11.54-9.1,11.54s-9-3.91-9-11.54v-16.31l-10.16-8.03v24.34c0,7.2,1.9,12.6,5.61,16.09,3.81,3.49,8.36,5.19,13.55,5.19s9.74-1.8,13.55-5.29c3.81-3.49,5.72-8.89,5.72-15.98v-16.31l-10.16-8.03v24.34Z"/><path class="cls-6" d="M323.8,414.22v26.88h10.05v-26.88c0-5.61,2.54-8.47,7.62-8.47h1.91v-9.74h-2.43c-9.84,0-17.15,5.19-17.15,18.2Z"/><path class="cls-6" d="M295.78,395.49c-6.46,0-11.85,2.22-16.4,6.77-4.55,4.55-6.77,9.95-6.77,16.3s2.22,11.86,6.77,16.41c4.55,4.45,9.95,6.67,16.4,6.67s11.75-2.22,16.3-6.67c4.55-4.55,6.77-9.95,6.77-16.41s-2.22-11.75-6.77-16.3c-4.55-4.55-9.95-6.77-16.3-6.77Zm9.21,32.71c-2.43,2.43-5.5,3.7-9.21,3.7s-6.77-1.27-9.31-3.7c-2.43-2.54-3.7-5.72-3.7-9.63s1.27-7.09,3.7-9.53c2.54-2.54,5.61-3.81,9.31-3.81s6.77,1.27,9.21,3.81c2.54,2.43,3.81,5.61,3.81,9.53s-1.27,7.09-3.81,9.63Z"/><polygon class="cls-6" points="257.51 441.1 267.67 441.1 267.67 378.22 257.51 370.19 257.51 441.1"/><polygon class="cls-6" points="242.41 441.1 252.57 441.1 252.57 378.22 242.41 370.19 242.41 441.1"/><path class="cls-6" d="M214.4,395.49c-6.46,0-11.85,2.22-16.4,6.77-4.55,4.55-6.77,9.95-6.77,16.3s2.22,11.86,6.77,16.41c4.55,4.45,9.95,6.67,16.4,6.67s11.75-2.22,16.3-6.67c4.55-4.55,6.77-9.95,6.77-16.41s-2.22-11.75-6.77-16.3c-4.55-4.55-9.95-6.77-16.3-6.77Zm9.21,32.71c-2.43,2.43-5.5,3.7-9.21,3.7s-6.77-1.27-9.31-3.7c-2.43-2.54-3.7-5.72-3.7-9.63s1.27-7.09,3.7-9.53c2.54-2.54,5.61-3.81,9.31-3.81s6.77,1.27,9.21,3.81c2.54,2.43,3.81,5.61,3.81,9.53s-1.27,7.09-3.81,9.63Z"/></g><g id="_2"><path class="cls-6" d="M306.82,373.48c-.97-10.77-14.06-18.43-27.35-24.44-8.28-3.75-16.63-6.85-22.18-9.68-1.53-.77-3.14-1.58-4.82-2.42-16.99-8.53-40.77-20.61-54.43-36.69-17.32-20.41-15.31-39.52,3.66-31.84-12.08-6.65-18.4-3.85-20.33,2.96-4.61,16.23,11.86,36.67,23.21,46.93,16.82,15.13,33.26,22.18,50.77,29.24,2.16,.87,4.33,1.74,6.53,2.63,4.05,1.64,8.16,3.32,12.36,5.16,8.22,3.61,23.99,9.99,26,19.38,1.93,8.93-10.12,14.58-16.26,7.14,7.93,12.38,23.99,4.34,22.85-8.36Z"/><path class="cls-6" d="M439.96,271.34c-1.95-6.79-8.25-9.61-20.36-2.93,18.97-7.68,21.01,11.4,3.66,31.84-13.69,16.11-37.52,28.21-54.53,36.74-1.64,.83-3.23,1.62-4.73,2.38-5.52,2.81-13.82,5.89-22.05,9.61-13.33,6.01-26.49,13.68-27.46,24.48-1.17,12.73,14.9,20.76,22.83,8.39-6.11,7.41-18.19,1.79-16.26-7.14,2.04-9.42,17.78-15.77,26-19.38,4.19-1.84,8.3-3.52,12.34-5.16,2.17-.88,4.32-1.74,6.45-2.6,17.55-7.08,34.02-14.13,50.85-29.27,11.37-10.29,27.82-30.7,23.23-46.96Z"/></g><g id="_1"><path class="cls-6" d="M281.09,345.96c-1.01-.55-2.01-1.1-2.99-1.65-9.51-5.28-17.93-10.3-25.37-15.06-.97-.62-1.92-1.23-2.85-1.84-60.6-39.55-52.02-59.81-36.02-50.31-17.47-20.86-50.01,10.11,37.51,55.8,8.01,4.18,17.03,8.49,27.16,12.89,3.36,1.46,6.83,2.93,10.43,4.41-2.7-1.43-5.32-2.84-7.87-4.24Z"/><path class="cls-6" d="M407.44,277.1c16.03-9.53,24.61,10.75-36.12,50.36-.93,.61-1.89,1.22-2.85,1.84-7.38,4.72-15.72,9.69-25.13,14.92-.99,.55-1.99,1.1-3,1.65-2.58,1.42-5.24,2.85-7.98,4.3,3.65-1.5,7.15-2.98,10.55-4.45,10.03-4.36,18.98-8.63,26.93-12.78,87.67-45.72,55.1-76.72,37.6-55.84Z"/></g><g id="WH"><g id="_2-2"><polygon class="cls-6" points="274.85 192.49 253.95 192.49 253.95 239 274.85 311.12 274.85 192.49"/><polygon class="cls-6" points="367.36 192.49 346.46 192.49 346.46 311.12 367.36 239 367.36 192.49"/></g><g id="_1-2"><path class="cls-6" d="M274.85,321l-20.91-72.12-16.35-56.39h-21.01l36.14,133.3c.4,.26,.81,.52,1.22,.77,2.03,1.29,4.12,2.59,6.29,3.91,5.48,3.34,11.41,6.8,17.85,10.38,.99,.55,1.99,1.1,2.99,1.65l-6.23-21.5Z"/><path class="cls-6" d="M383.81,192.49l-16.44,56.72-20.91,72.12-6.11,21.08c1.01-.55,2.01-1.1,3-1.65,9.41-5.23,17.75-10.21,25.13-14.92l36.15-133.35h-20.82Z"/></g></g><g id="Boule"><path class="cls-6" d="M296.26,246.34c2.31-2.3,3-2.6,4.07-1.55,.71,.7,2.34,.32,3.57-.88,2.1-2.06,2.89-2.33,4.76-.57,1.07,1.01,2.95,.97,3.98,0,.43-.41,.64-.91,.67-1.44,0,0,0,0,0,0,0-.01,0-.02,0-.03,0-.06,0-.12,0-.19,0-.02,0-.05,0-.07,0-.09-.02-.17-.03-.26,0,0,0,0,0,0-.02-.08-.04-.16-.06-.24,0-.03-.02-.05-.03-.08-.02-.06-.04-.12-.06-.17-.01-.03-.03-.06-.04-.09-.02-.05-.05-.1-.08-.16-.02-.03-.03-.06-.05-.09-.03-.05-.06-.1-.09-.15-.02-.03-.04-.06-.06-.08-.04-.05-.08-.1-.12-.15-.02-.02-.04-.04-.05-.07-.06-.07-.13-.14-.2-.21-.3-.29-.65-.47-1.01-.59-.77-.24-1.6-.11-2.27,.38-.09,.07-.18,.13-.26,.2-.21,.19-.4,.36-.58,.52-1.71,1.47-2.42,1.31-3.66,.16-.08-.07-.17-.13-.27-.17-.04-.01-.08-.02-.11-.03-.07-.02-.14-.04-.21-.05-.05,0-.11,0-.16,0-.07,0-.14,0-.21,0-.06,0-.12,.03-.19,.04-.07,.02-.14,.03-.22,.05-.07,.02-.13,.05-.2,.08-.08,.03-.15,.06-.23,.1-.07,.03-.14,.08-.21,.12-.08,.04-.16,.09-.24,.14-.07,.05-.14,.1-.21,.15-.08,.06-.16,.11-.24,.17-.07,.06-.14,.12-.21,.18-.07,.06-.13,.11-.2,.17,0,0,0,0,0,0-.02,.02-.05,.04-.08,.07-2.17,2.14-2.88,2.58-3.61,1.87-.23-.22-1.35,.67-2.58,1.9-1.24,1.23-2.18,2.28-1.91,2.57,.27,.28,1.65-.34,2.9-1.59Z"/><path class="cls-6" d="M294.69,271.22c.69-.72,.3-2.38-.89-3.59-.59-.6-1.26-.95-1.88-1.08,0,0,0,0,0,0,0,0,0,0-.01,0-.1-.02-.19-.02-.29-.03-.06,0-.11-.02-.17-.02-.09,0-.18,.01-.27,.02-.05,0-.1,0-.15,.01-.09,.02-.17,.06-.25,.09-.03,.01-.07,.02-.1,.04-.11,.06-.2,.13-.29,.22-.11,.12-.18,.26-.23,.41-.21,.74,.33,1.82,1.3,2.79,.02,.02,.03,.03,.05,.05,2.19,2.21,2.28,3.13,1.84,3.6-.45,.47,.68,1.36,1.92,2.59,1.23,1.23,2.3,2.18,2.57,1.9,.28-.27-.35-1.66-1.59-2.91-2.29-2.3-2.61-3.01-1.57-4.09Z"/><path class="cls-6" d="M293.22,262.84c.97-1.04,1-2.91,0-3.98-1.67-1.78-1.55-2.62,.58-4.8,2.25-2.3,3.09-2.46,4.76-.73,1.01,1.04,2.9,.88,4.18-.41,2.37-2.38,3.36-2.44,5.58-.27,1.27,1.24,3.42,1.21,4.67,0,.46-.45,.73-1,.83-1.57,0,0,0,0,0,0,0,0,0,0,0,0,.02-.11,.03-.23,.04-.34,0-.03,0-.06,0-.09,0-.09,0-.17,0-.26,0-.04,0-.07,0-.11,0-.08-.02-.16-.04-.24,0-.03-.01-.07-.02-.1-.02-.1-.05-.21-.08-.31,0,0,0-.02,0-.03-.04-.11-.08-.22-.13-.32-.01-.03-.03-.06-.05-.09-.04-.08-.08-.15-.12-.22-.02-.03-.04-.07-.07-.1-.05-.07-.1-.14-.15-.21-.02-.03-.04-.06-.07-.09-.08-.09-.16-.18-.25-.27-.08-.08-.16-.15-.24-.21-.17-.13-.34-.24-.52-.34-.09-.05-.18-.09-.28-.13-.81-.32-1.73-.29-2.52,.08-.31,.15-.6,.34-.86,.59-.14,.13-.27,.26-.4,.38-.04,.04-.08,.07-.12,.11-1.69,1.52-2.66,1.68-4.03,.58-.08-.06-.16-.13-.24-.2-.04-.03-.08-.07-.12-.1-.11-.1-.23-.22-.35-.34,0,0-.01-.01-.02-.02-.47-.47-1.14-.63-1.84-.52-.13,.02-.25,.05-.38,.09-.12,.03-.23,.07-.35,.12-.49,.2-.97,.51-1.39,.94-.4,.4-.75,.73-1.07,1.01-1.15,.99-1.87,1.21-2.62,.79-.27-.15-.54-.38-.83-.68-.6-.63-2.03-.05-3.22,1.14-1.18,1.2-1.68,2.57-1.07,3.22,1.34,1.44,1.22,2.26-.7,4.27-.95,1-.98,2.51,0,3.55,.98,1.04,2.55,1.25,3.51,.22Z"/><path class="cls-6" d="M319.39,276.61s0,0,0,0c-.08,.02-.16,.05-.25,.08-.08,.03-.17,.05-.25,.08-.09,.04-.19,.09-.28,.13-.08,.04-.15,.07-.23,.11-.11,.06-.22,.14-.33,.21-.06,.04-.12,.07-.18,.11-.16,.12-.32,.26-.48,.41-1.41,1.39-2.26,1.91-3.16,1.65-.22-.06-.45-.17-.69-.33-.06-.04-.12-.09-.18-.13-.03-.03-.07-.05-.1-.07-.03-.02-.06-.05-.1-.08-.17-.14-.34-.29-.53-.47-.24-.23-.52-.39-.82-.52-.03-.01-.07-.04-.1-.05-1.02-.38-2.26-.19-3.06,.57-1.78,1.68-2.6,1.56-4.76-.57-.31-.3-.64-.55-.98-.74-.83-.46-1.7-.58-2.26-.35-.13,.05-.24,.12-.33,.21-.15,.15-.24,.34-.26,.56,0,.02,0,.03,0,.05h0c-.02,.26,.05,.56,.18,.88,.23,.56,.66,1.17,1.23,1.73l.04,.04s0,0,0,0c1.17,1.15,2.5,1.61,3.13,1.01,1.42-1.35,2.22-1.23,4.24,.68,1,.94,2.55,.94,3.54,0,2.01-1.9,2.82-2.02,4.23-.68,.64,.61,1.99,.13,3.18-1.05,1.18-1.18,1.81-2.57,1.14-3.22-.33-.33-.92-.41-1.58-.26Z"/><path class="cls-6" d="M331.6,259.07c-1.43-1.49-1.86-2.33-1.44-3.25,.02-.05,.05-.1,.08-.15,.02-.03,.03-.06,.05-.09,.03-.05,.07-.1,.11-.16,.02-.03,.04-.06,.06-.09,.04-.06,.09-.12,.15-.18,.02-.02,.04-.05,.06-.07,.07-.09,.15-.18,.24-.27,.15-.16,.24-.37,.26-.61,.02-.18-.01-.38-.06-.58-.05-.21-.12-.42-.24-.65,0-.01-.02-.02-.02-.04-.23-.44-.57-.9-1-1.33-.22-.22-.45-.43-.68-.61-.15-.12-.31-.23-.46-.32-.18-.12-.37-.21-.54-.29-.62-.27-1.18-.28-1.53,.08-.08,.09-.15,.19-.2,.31-.02,.04-.02,.08-.03,.12-.03,.09-.06,.17-.07,.27,0,0,0,0,0,.01,0,0,0,0,0,0-.11,.82,.3,1.99,1.19,2.9,2.13,2.19,1.92,3.37,.58,4.8-1.34,1.43-.97,2.95,0,3.98,.97,1.03,2.52,.81,3.51-.22,.99-1.03,.96-2.54,0-3.55Z"/><path class="cls-6" d="M298.5,271.43c.03,.05,.06,.1,.09,.15,0,0,0,.01,.01,.02,.09,.14,.2,.28,.31,.42,.09,.11,.18,.21,.28,.31,.14,.14,.29,.27,.44,.38,.02,.01,.04,.03,.06,.05,.03,.02,.06,.04,.09,.06,.06,.04,.12,.08,.17,.12,.01,0,.02,.01,.04,.02,.08,.05,.15,.09,.23,.13,0,0,0,0,.01,0,.26,.14,.53,.25,.8,.32,.01,0,.03,0,.04,0,.12,.03,.23,.05,.35,.06,.13,.02,.26,.02,.38,.02,0,0,.01,0,.02,0,.51-.02,.98-.2,1.34-.55,1.95-1.93,2.93-1.86,5.29,.4,1.23,1.18,3.18,1.2,4.42,0,1.25-1.2,1.37-3.13,.12-4.34-1.25-1.21-3.4-1.23-4.67,0-2.22,2.16-3.21,2.11-5.58-.26-2.37-2.37-2.43-3.37-.27-5.59,1.23-1.26,1.21-3.4,0-4.65-.31-.32-.66-.55-1.04-.69,0,0,0,0,0,0,0,0-.02,0-.03,0-.11-.04-.23-.07-.34-.1-.03,0-.06-.01-.09-.02-.13-.03-.26-.04-.38-.05,0,0-.02,0-.03,0-.12,0-.24,0-.36,0-.03,0-.06,0-.09,0-.13,.01-.26,.03-.39,.06,0,0-.01,0-.02,0-.12,.03-.24,.07-.36,.11-.03,.01-.06,.02-.09,.04-.12,.05-.24,.11-.36,.18,0,0,0,0-.01,0-.11,.07-.22,.14-.33,.22-.03,.02-.06,.04-.08,.07-.11,.09-.21,.18-.31,.28-.07,.08-.14,.16-.21,.24-.78,1-.89,2.33-.33,3.42,.14,.27,.32,.53,.54,.76,.15,.15,.28,.3,.41,.44,.04,.04,.08,.09,.11,.13,.08,.09,.17,.19,.24,.28,.04,.05,.08,.1,.12,.15,.06,.08,.12,.15,.18,.23,.04,.05,.07,.1,.11,.15,.05,.07,.1,.14,.14,.21,.85,1.34,.53,2.26-.89,3.72-.7,.72-.71,1.89-.13,2.95,0,0,0,0,0,0,.02,.04,.04,.08,.07,.11Z"/><path class="cls-6" d="M318.54,248.26c-.12,.15-.25,.29-.4,.44-.15,.15-.28,.31-.39,.46-.43,.63-.52,1.29-.34,1.94,.02,.09,.05,.18,.09,.27,.2,.54,.58,1.06,1.06,1.54,0,0,0,0,0,0,.14,.14,.29,.27,.45,.38,.04,.03,.09,.06,.13,.09,.13,.09,.26,.17,.4,.23,.03,.02,.06,.04,.1,.05,.17,.08,.34,.14,.51,.19,.04,.01,.08,.02,.12,.03,.14,.03,.27,.06,.41,.07,.04,0,.09,.01,.13,.01,.17,.01,.34,.01,.5,0,.02,0,.04,0,.06-.01,.1-.01,.2-.03,.3-.05,0,0-.01,0-.02-.01,.42-.1,.79-.28,1.08-.58,.97-1.01,.63-2.73-.64-4-2.34-2.34-2.51-3.19-1.13-4.54,1.06-1.05,1.77-.73,4.07,1.56,1.25,1.24,2.63,1.87,2.9,1.59,.27-.28-.67-1.33-1.91-2.57-1.25-1.23-2.35-2.13-2.58-1.91-.68,.66-1.38,.34-3.62-1.87-.17-.17-.34-.32-.52-.46,0,0,0,0,0,0-.12-.09-.23-.18-.35-.26-.01,0-.02-.02-.04-.03-.14-.09-.28-.18-.41-.25-.04-.02-.08-.04-.13-.06-.09-.04-.19-.09-.28-.12-.05-.02-.1-.03-.15-.05-.08-.03-.16-.05-.24-.06-.05,0-.1-.02-.14-.02-.08,0-.15-.01-.22,0-.04,0-.09,0-.13,0-.08,0-.15,.03-.21,.05-.03,.01-.07,.02-.1,.03-.1,.04-.19,.1-.27,.18-.69,.64-.43,2.2,.75,3.36,2.03,2,2.11,3.16,1.14,4.35Z"/><path class="cls-6" d="M312.31,257.88c-.81-.45-1.76-.54-2.63-.29-.53,.16-1.03,.44-1.44,.85,0,0,0,0,0,0-.1,.1-.19,.2-.27,.31-.03,.03-.05,.07-.07,.1-.06,.08-.11,.17-.17,.25-.02,.03-.04,.07-.06,.1-.06,.12-.12,.24-.17,.36,0,0,0,.01,0,.02-.05,.12-.08,.24-.12,.36-.01,.04-.02,.08-.03,.11-.02,.1-.04,.19-.05,.29,0,.04-.01,.07-.02,.11-.01,.13-.02,.26-.02,.39,0,.01,0,.02,0,.04,0,.12,.01,.24,.02,.36,0,.04,.01,.08,.02,.12,.01,.1,.03,.2,.06,.29,0,.02,0,.05,.01,.07,0,0,0,0,0,0,.15,.56,.44,1.09,.88,1.53,1.32,1.32,3.51,1.33,4.83,0,2.43-2.44,3.48-2.45,5.77-.08,1.19,1.23,3.13,1.13,4.33-.12,.44-.46,.71-1,.83-1.57,0,0,0,0,0,0,0,0,0-.02,0-.03,0-.02,0-.05,0-.07,.03-.16,.04-.31,.04-.47,0-.04,0-.07,0-.11,0-.17-.02-.34-.05-.51,0-.03-.02-.07-.02-.1-.03-.15-.08-.31-.13-.46,0-.02-.02-.05-.03-.07-.07-.16-.15-.32-.24-.48-.02-.03-.04-.07-.07-.1-.1-.15-.22-.3-.35-.44-.22-.23-.47-.43-.74-.58-.44-.25-.94-.39-1.43-.41-.78-.03-1.57,.25-2.16,.87-2.29,2.37-3.34,2.37-5.77-.08-.23-.23-.48-.42-.76-.57Z"/><path class="cls-6" d="M331.18,267.64c0-.06,0-.11,0-.16,0-.02,0-.05-.01-.07,0-.04-.02-.09-.03-.13,0-.02-.01-.05-.02-.07-.02-.04-.03-.08-.06-.12,0-.02-.02-.04-.03-.05-.03-.05-.07-.11-.12-.16-.07-.08-.16-.14-.26-.19-.03-.02-.06-.03-.08-.04-.08-.04-.16-.07-.24-.09-.03,0-.06-.02-.09-.02-.12-.02-.24-.04-.36-.03-.02,0-.05,0-.08,0-.11,0-.22,.02-.33,.04-.04,0-.08,.02-.13,.03-.11,.03-.23,.06-.34,.1-.03,.01-.06,.02-.09,.03-.13,.05-.25,.1-.38,.17,0,0,0,0,0,0-.35,.18-.71,.43-1.03,.76-1.92,1.96-2.82,2.36-4.09,1.35-.07-.06-.15-.12-.23-.19-.03-.03-.07-.06-.1-.09-.11-.1-.22-.21-.34-.34-1.01-1.04-2.9-.88-4.18,.41-1.29,1.29-1.41,3.21-.42,4.19,.06,.06,.13,.12,.2,.17,.02,.01,.04,.03,.06,.04,.05,.03,.1,.07,.15,.1,.03,.02,.06,.03,.09,.04,.05,.02,.09,.05,.14,.07,.03,.01,.07,.02,.1,.03,.05,.02,.09,.03,.14,.04,.04,0,.07,.02,.11,.02,.05,0,.09,.02,.14,.03,.04,0,.08,0,.12,.01,.05,0,.09,0,.14,0,.04,0,.08,0,.12,0,.05,0,.09,0,.14,0,.04,0,.08,0,.13-.02,.05,0,.09-.01,.14-.02,.01,0,.02,0,.03,0,0,0,0,0,0,0,.69-.13,1.41-.53,2.02-1.14,2.33-2.33,3.17-2.51,4.51-1.11,1.04,1.08,.2,2.32-1.57,4.1-1.77,1.78-1.87,2.64-1.59,2.91,.28,.28,1.33-.67,2.57-1.9,1.24-1.24,2.14-2.36,1.91-2.6-.67-.69-.36-1.4,1.89-3.65,.45-.45,.81-.93,1.04-1.39,0,0,0,0,0,0,0-.02,.02-.03,.02-.05,.03-.06,.06-.12,.08-.18,.01-.03,.02-.06,.03-.08,.02-.05,.04-.11,.06-.16,0-.03,.02-.06,.03-.08,.02-.06,.03-.11,.04-.17,0-.02,0-.04,.01-.06,.01-.08,.02-.15,.02-.22,0-.01,0-.03,0-.04Z"/></g></g></svg>