<?xml version="1.0" encoding="UTF-8"?><svg id="Calque_1" xmlns="http://www.w3.org/2000/svg" xmlns:xlink="http://www.w3.org/1999/xlink" viewBox="0 0 621.31 707.68"><defs><style>.cls-1{fill:url(#GradientFill_23);}.cls-1,.cls-2,.cls-3,.cls-4,.cls-5{fill-rule:evenodd;}.cls-2{fill:url(#GradientFill_22);}.cls-6{fill:#3a250c;}.cls-3{fill:url(#GradientFill_22-2);}.cls-4{fill:url(#GradientFill_5);}.cls-5{fill:url(#Dégradé_sans_nom_25);}</style><linearGradient id="Dégradé_sans_nom_25" x1="23.73" y1="-22.7" x2="645.21" y2="684.06" gradientUnits="userSpaceOnUse"><stop offset="0" stop-color="#c89749"/><stop offset=".1" stop-color="#8e5523"/><stop offset=".25" stop-color="#deac55"/><stop offset=".4" stop-color="#ffee9d"/><stop offset=".6" stop-color="#e8c576"/><stop offset=".75" stop-color="#dbaa4d"/><stop offset=".9" stop-color="#8b5623"/></linearGradient><linearGradient id="GradientFill_22" x1="10.36" y1="354.43" x2="610.17" y2="354.43" gradientUnits="userSpaceOnUse"><stop offset="0" stop-color="#c89749"/><stop offset=".04" stop-color="#8e5523"/><stop offset=".15" stop-color="#ffee9d"/><stop offset=".23" stop-color="#deac55"/><stop offset=".51" stop-color="#e8c576"/><stop offset=".81" stop-color="#dbaa4d"/><stop offset=".86" stop-color="#fcf6b2"/><stop offset=".95" stop-color="#8b5623"/><stop offset="1" stop-color="#ca983e"/></linearGradient><linearGradient id="GradientFill_5" x1="310.26" y1="677.43" x2="310.26" y2="-36.17" gradientUnits="userSpaceOnUse"><stop offset="0" stop-color="#f7d637"/><stop offset=".23" stop-color="#a97f2c"/><stop offset=".39" stop-color="#230b0a"/><stop offset=".46" stop-color="#6d4c1e"/><stop offset=".51" stop-color="#1a0b05"/><stop offset=".53" stop-color="#f8f1de"/><stop offset=".86" stop-color="#f3e3c2"/><stop offset="1" stop-color="#d0ab5b"/></linearGradient><linearGradient id="GradientFill_22-2" x1="40.3" y1="352.53" x2="580.23" y2="352.53" xlink:href="#GradientFill_22"/><linearGradient id="GradientFill_23" x1="310.26" y1="571.86" x2="310.26" y2="97" gradientUnits="userSpaceOnUse"><stop offset="0" stop-color="#dba73e"/><stop offset=".16" stop-color="#d89d3a"/><stop offset=".3" stop-color="#a46b28"/><stop offset=".46" stop-color="#8e5723"/><stop offset=".49" stop-color="#f4f3b8"/><stop offset=".56" stop-color="#f7ed9a"/><stop offset=".69" stop-color="#d5b767"/><stop offset=".75" stop-color="#a76f29"/><stop offset=".85" stop-color="#d0ab5b"/><stop offset="1" stop-color="#e0c77d"/></linearGradient></defs><polygon class="cls-5" points="310.26 656.84 580.23 509.46 580.23 96.85 310.26 48.05 40.3 96.85 40.3 509.46 310.26 656.84"/><g><path class="cls-2" d="M39.5,66.67L305.65,18.81l3.17-.57,2.11-.38,2.09,.38,3.15,.57,269.31,48.68,14.83,2.68,9.85,1.78v455.16l-6.25,3.41-9.42,5.15-270.27,147.54-8.58,4.69-5.7,3.11-5.69-3.11-8.57-4.69L26.03,535.66l-9.42-5.15-6.26-3.42V71.99l9.85-1.79,14.78-2.7h0s4.46-.83,4.46-.83h.05Zm270.34-24.43h0L43.75,90.09h0s-4.47,.82-4.47,.82h-.04l-4.98,.91v421.19l3.16,1.73,269.66,147.54,2.88,1.58,2.89-1.58,270.27-147.54,3.16-1.73V91.82l-4.99-.9L311.98,42.24l-1.06-.19-1.07,.19h0Zm1.05,36.23h0L70.24,121.75V491.84l239.73,131.17,240.31-131.19V121.74l-239.38-43.27h0ZM56.19,100.09h0l-9.85,1.77V505.9l6.26,3.42,251.67,137.7,5.68,3.11,5.7-3.11,252.27-137.71,6.26-3.42V101.87l-9.85-1.78-251.33-45.42-2.09-.38-2.1,.38L56.19,100.09Z"/><path class="cls-4" d="M41.6,78.39L307.74,30.52l3.18-.57,3.15,.57,269.31,48.69,14.83,2.67v438.18l-9.41,5.14-270.27,147.54-8.58,4.68-8.57-4.68L31.72,525.21l-9.42-5.15V81.91l14.83-2.7,4.46-.82h0Zm269.3-12.01h0L58.29,111.81V498.87l251.67,137.7,252.27-137.71V111.8l-251.33-45.42Z"/><path class="cls-3" d="M310.26,48.05l269.96,48.8V509.46l-269.96,147.38v-12.32l259.12-141.45V105.86L310.26,59.03v-10.98h0ZM44.76,96.03h0l-4.47,.82V509.46l269.66,147.54,.3-.16v-12.32l-.3,.16L51.14,503.07V105.86L310.26,59.03v-10.98L44.76,96.03Z"/></g><path class="cls-1" d="M345.48,552.33c-1.88,.75-3.63,1.14-5.2,1.32,1.57-.18,3.37-.19,5.37,.12,5.28,.33,20.51,14.97,21.11,17.99-3.09-1.9-3.97-4.65-9.37-4.95-3.61-.19-8.44-.2-12.08-.41-10.5-.62-8.01-9.72-15.51-10.37l-.2-.95,3.76,.23c1.09-.11,3.46-1.26,6.92-1.66-3.46,.4-6.03-.19-7.12-.05l-3.62,1.07v-.96c7.15-2.34,2.65-10.64,12.74-13.62,3.5-1.03,8.21-2.13,11.68-3.14,5.19-1.51,5.42-4.38,8.01-6.93,.1,3.08-11.41,20.78-16.49,22.31h0Zm-35.11-1.78h0c3.21,0,5.82,2.6,5.82,5.81s-2.6,5.82-5.82,5.82-5.8-2.6-5.8-5.82,2.6-5.81,5.8-5.81h0ZM389.81,120h0c6.13,2.11,10.78,.54,12.37,.65l3.66,.91-.03-.96c-7.27-1.98-3.18-10.49-13.41-12.97-3.53-.86-8.3-1.74-11.81-2.57-5.26-1.25-5.63-4.11-8.34-6.54,.05,3.09,12.42,20.2,17.56,21.47h0Zm-159.09,.11h0c-6.13,2.11-10.78,.53-12.37,.66l-3.66,.9,.03-.97c7.27-1.98,3.19-10.49,13.41-12.97,3.53-.86,8.3-1.73,11.82-2.57,5.26-1.25,5.63-4.11,8.34-6.54-.06,3.09-12.42,20.21-17.56,21.49h0Zm16.26,427.72h0c2.03-.05,3.81,.19,5.34,.57-1.54-.38-3.23-.98-5-1.96-4.85-2.15-14.07-21.15-13.58-24.19,2.25,2.85,2.11,5.74,7.07,7.88,3.32,1.43,7.86,3.11,11.19,4.57,9.65,4.22,4.15,11.88,10.97,15.09l-.14,.95-3.45-1.53c-1.06-.27-3.68,0-7.06-.82,3.38,.82,5.59,2.26,6.65,2.51l3.76,.25-.32,.91c-7.53-.3-6.18,9.05-16.68,8.35-3.63-.26-8.43-.84-12.04-1.1-5.39-.38-6.6,2.24-9.92,3.74,.98-2.92,17.91-15.54,23.2-15.23h0Zm-27.12-9.69h0c-5.2-1-23.58,9.41-24.92,12.18,3.47-1.07,5-3.52,10.3-2.45,3.55,.71,8.24,1.9,11.81,2.6,10.33,2.01,10.17-7.44,17.59-6.2l.44-.86-3.71-.71c-1-.37-2.94-2.02-6.06-3.25,3.15,1.16,5.69,1.23,6.69,1.62l3.23,1.93,.26-.93c-6.36-4.04,.07-10.97-8.98-16.35-3.12-1.86-7.41-4.1-10.52-5.95-4.65-2.74-4.17-5.58-6.03-8.7-.86,2.96,5.89,22.97,10.43,25.71,1.64,1.19,3.24,2.01,4.72,2.58-1.48-.57-3.21-1.04-5.23-1.23h0Zm-25.67-13.03h0c1.98,.45,3.64,1.14,5.03,1.88-8.08-4.34-13.75-24.7-11.48-29.96,1.47,3.32,.63,6.08,4.9,9.39,2.86,2.22,6.83,4.98,9.7,7.23,8.28,6.48,1.05,12.54,6.85,17.35l-.37,.88-2.96-2.32c-.96-.54-3.57-.92-6.64-2.57,3.07,1.63,4.85,3.59,5.82,4.09l3.58,1.18-.53,.8c-7.21-2.17-8.24,7.22-18.24,3.92-3.46-1.13-7.96-2.91-11.39-4.06-5.12-1.71-6.95,.52-10.53,1.15,1.68-2.6,21.21-10.59,26.26-8.96h0Zm-23.84-16.15h0c-4.8-2.26-25.19,3.23-27.17,5.59,3.63-.18,5.72-2.16,10.59,.18,3.26,1.58,7.5,3.9,10.79,5.46,9.5,4.53,11.7-4.65,18.59-1.61l.63-.72-3.41-1.61c-.89-.63-2.4-2.77-5.21-4.77,2.82,1.98,5.34,2.71,6.22,3.35l2.65,2.69,.48-.84c-5.15-5.49,2.79-10.61-4.61-18.08-2.57-2.59-6.16-5.83-8.72-8.38-3.82-3.83-2.64-6.46-3.67-9.94-1.57,2.66-.02,23.71,3.69,27.49,1.27,1.55,2.61,2.73,3.89,3.64-1.29-.91-2.84-1.78-4.72-2.47h0Zm-21.62-19.01h0c1.8,.93,3.24,2,4.41,3.07-1.17-1.07-2.35-2.42-3.44-4.13-3.2-4.22-2.1-25.3-.21-27.74,.59,3.58-.92,6.04,2.39,10.31,2.21,2.86,5.37,6.52,7.59,9.41,6.41,8.35-2.11,12.41,2.3,18.51l-.58,.77-2.29-3c-.79-.74-3.23-1.78-5.78-4.14,2.56,2.35,3.8,4.68,4.61,5.42l3.18,2.02-.72,.64c-6.44-3.88-9.78,4.94-18.64-.74-3.06-1.97-6.98-4.81-10.02-6.77-4.53-2.95-6.85-1.24-10.48-1.52,2.27-2.09,23.19-4.97,27.66-2.13h0Zm-19.05-21.59h0c1.67,1.15,2.96,2.4,3.98,3.6-1.01-1.2-2.03-2.69-2.88-4.52-2.65-4.6,1.1-25.38,3.28-27.55,.13,3.62-1.67,5.88,1.07,10.53,1.85,3.12,4.52,7.15,6.36,10.29,5.31,9.09-3.66,12.04-.04,18.66l-.67,.69-1.89-3.27c-.7-.84-2.98-2.17-5.22-4.83,2.25,2.66,3.17,5.13,3.9,5.95l2.9,2.42-.79,.54c-5.91-4.67-10.33,3.67-18.4-3.08-2.79-2.34-6.32-5.65-9.08-7.98-4.13-3.48-6.65-2.08-10.22-2.82,2.52-1.79,23.63-2,27.71,1.37h0Zm-16.19-23.8h0c1.51,1.34,2.64,2.75,3.5,4.08,1.89,2.92,3.98,4.53,4.57,5.45l1.47,3.47,.76-.59c-2.76-7,6.51-8.82,2.38-18.5-1.43-3.35-3.58-7.69-5.01-11.01-2.14-4.96-.07-6.96,.26-10.59-2.44,1.88-8.77,22.04-6.72,26.91,.62,1.93,1.43,3.54,2.29,4.86,1.9,2.92,2.51,5.48,3.11,6.4l2.58,2.75-.86,.44c-5.27-5.37-10.7,2.35-17.86-5.36-2.48-2.66-5.57-6.39-8.02-9.06-3.66-3.97-6.33-2.9-9.77-4.08,2.72-1.45,23.69,.98,27.32,4.84h0Zm-13.07-25.65h0c4.26,4.89,4.54,9.79,5.25,11.22l2.2,3.06-.9,.31c-4.56-5.98-10.92,.99-17.05-7.56-2.12-2.97-4.72-7.04-6.81-9.99-3.13-4.41-5.92-3.69-9.19-5.28,2.88-1.11,23.39,3.95,26.5,8.24h0Zm1.3-.63h0c-1.42-5.11,7.39-24.3,10.04-25.86-.77,3.56-3.08,5.29-1.58,10.47,1.01,3.47,2.59,8.06,3.58,11.56,2.88,10.11-6.55,10.75-4.68,18.05l-.83,.5-1.02-3.64c-.68-1.44-4.34-4.7-5.51-11.08h0Zm-11.04-26.47h0c-2.55-4.65-22.25-12.24-25.25-11.5,3.04,1.99,5.89,1.63,8.44,6.39,1.71,3.2,3.77,7.57,5.5,10.78,5.01,9.25,12.2,3.13,15.97,9.65l.94-.21-1.8-3.32c-.36-1.03-.31-3.66-1.42-6.96,1.1,3.3,2.73,5.37,3.07,6.42l.55,3.73,.89-.4c-.94-7.47,8.5-6.92,6.92-17.32-.55-3.6-1.54-8.33-2.1-11.9-.83-5.34,1.67-6.78,2.89-10.19-2.82,1.21-13.98,19.14-13.21,24.39,.11,2.02,.5,3.78,1.01,5.28-.5-1.5-1.25-3.14-2.37-4.82h0Zm-6.26-28.1h0c.9,1.83,1.44,3.53,1.75,5.09-.31-1.55-.48-3.34-.34-5.36-.1-5.3,13.21-21.68,16.18-22.54-1.64,3.25-4.31,4.34-4.15,9.75,.1,3.61,.5,8.44,.59,12.08,.26,10.52-9.02,8.79-9.04,16.32l-.92,.27-.09-3.77c-.2-1.08-1.55-3.34-2.23-6.75,.68,3.41,.31,6.02,.54,7.09l1.37,3.51-.96,.09c-2.92-6.94-10.82-1.77-14.63-11.58-1.32-3.39-2.81-7.99-4.1-11.37-1.94-5.05-4.82-5.04-7.58-7.41,3.07-.35,21.66,9.65,23.6,14.58h0Zm-2.68-28.66h0c-1.31-5.13-18.5-17.4-21.58-17.43,2.44,2.7,5.3,3.05,6.59,8.3,.85,3.52,1.76,8.27,2.64,11.8,2.55,10.22,11.03,6.08,13.05,13.34l.97,.03-.93-3.66c-.08-1.1,.61-3.63,.37-7.1-.11-1.58-.05-3.37,.34-5.36,.57-5.27,15.84-19.85,18.88-20.33-2.04,3.02-4.82,3.77-5.33,9.15-.35,3.6-.57,8.43-.94,12.06-1.07,10.48-10.05,7.59-11.03,15.05l-.95,.16,.4-3.75c-.07-1.09-1.13-3.5-1.37-6.98-.12-1.58-.43-3.35-1.1-5.27h0Zm.94-28.77h0c-.65-5.26-16.16-19.58-19.22-20.01,2.09,2.98,4.88,3.69,5.49,9.06,.41,3.59,.7,8.42,1.13,12.04,1.24,10.45,10.18,7.42,11.27,14.86l.95,.16-.46-3.75c.05-1.09,1.06-3.53,1.25-7,.09-1.58,.37-3.36,1.01-5.28,1.22-5.17,18.21-17.7,21.29-17.78-2.39,2.73-5.25,3.13-6.44,8.4-.8,3.53-1.62,8.3-2.44,11.85-2.38,10.25-10.93,6.26-12.83,13.55l-.96,.04,.86-3.67c.07-1.09-.68-3.62-.48-7.1,.09-1.58,0-3.37-.43-5.36h0Zm4.56-28.43h0c0-5.3-13.57-21.46-16.56-22.26,1.69,3.22,4.38,4.28,4.32,9.69-.05,3.6-.36,8.43-.39,12.08-.09,10.53,9.16,8.63,9.31,16.17l.93,.26v-3.76c.2-1.08,1.51-3.37,2.13-6.79,.29-1.55,.8-3.28,1.67-5.11,1.86-4.97,20.28-15.27,23.36-14.98-2.72,2.41-5.61,2.45-7.45,7.52-1.24,3.41-2.65,8.04-3.91,11.45-3.64,9.87-11.63,4.83-14.43,11.83l-.96-.08,1.31-3.55c.21-1.06-.21-3.67,.41-7.09,.29-1.55,.43-3.35,.25-5.38h0Zm8.09-27.62h0c-.08,2.02-.45,3.79-.92,5.3-1.05,3.31-.96,5.94-1.3,6.99l-1.75,3.34,.94,.2c3.67-6.59,10.95-.59,15.8-9.91,1.68-3.23,3.66-7.64,5.32-10.86,2.47-4.81,5.34-4.48,8.34-6.53-3-.68-22.58,7.23-25.05,11.91-1.1,1.7-1.81,3.36-2.3,4.87-1.05,3.31-2.64,5.41-2.96,6.46l-.49,3.73-.89-.38c.8-7.49-8.61-6.79-7.21-17.2,.49-3.61,1.4-8.36,1.91-11.95,.75-5.35-1.79-6.74-3.06-10.14,2.85,1.17,14.31,18.91,13.62,24.17h0Zm11.5-26.39h0c1.34-5.13-7.79-24.17-10.47-25.69,.83,3.54,3.17,5.23,1.76,10.45-.95,3.48-2.45,8.09-3.39,11.6-2.71,10.17,6.73,10.65,4.99,17.98l.83,.48,.96-3.64c.44-1,2.29-2.88,3.75-6.04,.66-1.43,1.58-2.99,2.89-4.54,3.04-4.33,23.45-9.73,26.35-8.67-3.23,1.66-6.04,.97-9.1,5.43-2.04,2.98-4.56,7.1-6.64,10.1-5.99,8.66-12.46,1.78-16.92,7.85l-.91-.31,2.15-3.1c.47-.98,.71-3.61,2.17-6.76,.66-1.43,1.25-3.13,1.58-5.14h0Zm14.73-24.74c-.59,1.95-1.38,3.55-2.21,4.9-1.85,2.95-2.42,5.52-3.01,6.44l-2.53,2.8,.86,.43c5.19-5.45,10.74,2.17,17.78-5.66,2.43-2.71,5.45-6.49,7.85-9.19,3.6-4.03,6.3-3.01,9.72-4.24-2.75-1.4-23.68,1.36-27.24,5.3-1.49,1.36-2.6,2.79-3.43,4.13-1.85,2.95-3.91,4.59-4.48,5.52l-1.4,3.5-.77-.59c2.64-7.05-6.65-8.71-2.69-18.46,1.37-3.38,3.44-7.76,4.82-11.09,2.06-5-.05-6.98-.43-10.59,2.48,1.85,9.14,21.89,7.17,26.8h0Zm17.72-22.7h0c2.57-4.62-1.52-25.34-3.74-27.48-.07,3.63,1.77,5.86-.9,10.56-1.78,3.15-4.4,7.22-6.18,10.39-5.16,9.17,3.86,11.99,.35,18.65l.69,.69,1.83-3.3c.69-.85,2.94-2.22,5.14-4.92-2.2,2.7-3.09,5.19-3.79,6.02l-2.86,2.46,.8,.54c5.83-4.77,10.39,3.49,18.35-3.39,2.75-2.39,6.23-5.75,8.95-8.13,4.07-3.56,6.62-2.19,10.16-2.99-2.54-1.75-23.66-1.62-27.68,1.82-1.66,1.17-2.92,2.45-3.93,3.67,1-1.22,1.99-2.73,2.81-4.58h0Zm20.44-20.28h0c3.13-4.27,1.67-25.33-.26-27.73-.53,3.59,1.01,6.02-2.23,10.35-2.17,2.9-5.27,6.61-7.43,9.54-6.26,8.46,2.32,12.38-1.99,18.54l.59,.76,2.24-3.04c.78-.76,3.19-1.84,5.72-4.23-2.52,2.38-3.73,4.74-4.52,5.49l-3.14,2.08,.73,.63c6.38-3.99,9.86,4.78,18.62-1.06,3.03-2.01,6.9-4.92,9.9-6.93,4.49-3.01,6.84-1.35,10.46-1.69-2.3-2.06-23.26-4.58-27.69-1.67-1.79,.96-3.21,2.05-4.36,3.16,1.14-1.1,2.31-2.46,3.37-4.2h0Zm22.82-17.56h0c-1.26,1.6-2.6,2.81-3.87,3.74-2.8,2.05-4.28,4.25-5.17,4.88l-3.39,1.67,.64,.72c6.84-3.17,9.18,5.97,18.61,1.29,3.26-1.62,7.46-4.02,10.69-5.64,4.83-2.43,6.96-.48,10.59-.36-2.02-2.33-22.51-7.46-27.26-5.14-1.89,.73-3.45,1.65-4.72,2.58-2.8,2.06-5.33,2.82-6.2,3.48l-2.6,2.73-.49-.83c5.06-5.58-2.97-10.55,4.31-18.15,2.51-2.63,6.06-5.92,8.57-8.52,3.76-3.89,2.53-6.49,3.5-10,1.62,2.63,.42,23.71-3.23,27.55h0Zm24.84-14.54h0c4.11-3.36,7.95-24.12,6.68-26.93-1.41,3.35-.52,6.09-4.74,9.48-2.82,2.26-6.75,5.08-9.58,7.38-8.18,6.63-.84,12.57-6.57,17.46l.39,.89,2.92-2.39c.95-.54,3.56-.98,6.59-2.67-3.04,1.69-4.78,3.67-5.75,4.2l-3.56,1.22,.55,.79c7.18-2.28,8.36,7.09,18.3,3.62,3.44-1.19,7.91-3.05,11.32-4.25,5.1-1.79,6.96,.41,10.55,.98-1.71-2.56-21.39-10.23-26.4-8.52-1.97,.48-3.62,1.19-5.01,1.97,1.38-.77,2.85-1.8,4.3-3.22h0Zm67.49,429.83h0c-5.29,.33-20.51,14.97-21.12,17.99,3.1-1.9,3.98-4.65,9.38-4.94,3.61-.19,8.45-.2,12.08-.41,10.5-.61,8-9.72,15.5-10.38l.2-.94-3.76,.23c-1.09-.12-3.46-1.27-6.91-1.66,3.46,.4,6.02-.19,7.11-.06l3.61,1.08,.02-.96c-7.16-2.34-2.66-10.64-12.75-13.62-3.49-1.03-8.2-2.13-11.67-3.15-5.19-1.5-5.43-4.39-8.01-6.92-.09,3.08,11.41,20.77,16.49,22.3,1.88,.75,3.63,1.15,5.2,1.33-1.57-.18-3.36-.2-5.37,.11h0Zm98.65-6.12h0c-2-.07-3.77,.18-5.3,.55,1.53-.38,3.2-.98,4.96-1.95,4.84-2.15,14.07-21.14,13.58-24.19-2.25,2.85-2.12,5.74-7.08,7.87-3.32,1.43-7.86,3.12-11.19,4.57-9.64,4.22-4.15,11.89-10.96,15.1l.13,.95,3.45-1.52c1.06-.27,3.65,0,7-.82-3.34,.82-5.53,2.26-6.59,2.5l-3.77,.24,.32,.91c7.53-.29,6.18,9.05,16.68,8.35,3.63-.25,8.44-.84,12.04-1.09,5.39-.38,6.6,2.23,9.91,3.74-.98-2.93-17.9-15.55-23.2-15.22h0Zm27.11-9.7h0c5.2-.99,23.58,9.41,24.92,12.19-3.46-1.07-5-3.51-10.3-2.46-3.55,.71-8.23,1.91-11.8,2.6-10.33,2.01-10.17-7.44-17.6-6.19l-.44-.87,3.7-.71c1.01-.37,2.94-2.01,6.07-3.24-3.15,1.17-5.69,1.23-6.69,1.62l-3.23,1.94-.25-.94c6.36-4.03-.06-10.95,8.98-16.35,3.13-1.86,7.41-4.1,10.53-5.94,4.65-2.75,4.16-5.59,6.03-8.7,.87,2.96-5.89,22.96-10.43,25.7-1.64,1.21-3.24,2.01-4.72,2.58,1.48-.56,3.22-1.03,5.23-1.23h0Zm25.67-13.02h0c-1.98,.45-3.63,1.12-5.03,1.88,1.4-.76,2.88-1.76,4.35-3.15,4.16-3.29,8.35-23.98,7.12-26.81-1.47,3.32-.62,6.09-4.89,9.41-2.86,2.21-6.83,4.97-9.7,7.21-8.28,6.48-1.05,12.55-6.85,17.35l.37,.9,2.96-2.35c.96-.52,3.57-.92,6.64-2.55-3.07,1.64-4.85,3.58-5.81,4.09l-3.59,1.17,.53,.8c7.22-2.17,8.25,7.22,18.24,3.93,3.45-1.13,7.96-2.92,11.39-4.07,5.12-1.71,6.95,.52,10.53,1.15-1.67-2.58-21.22-10.59-26.26-8.95h0Zm23.84-16.15h0c4.8-2.26,25.19,3.22,27.17,5.58-3.62-.17-5.72-2.16-10.59,.19-3.26,1.57-7.5,3.9-10.78,5.46-9.5,4.53-11.7-4.66-18.58-1.61l-.64-.74,3.41-1.61c.9-.62,2.41-2.78,5.26-4.79-2.84,2.02-5.38,2.74-6.27,3.37l-2.64,2.69-.48-.84c5.15-5.49-2.79-10.59,4.62-18.08,2.57-2.59,6.16-5.81,8.72-8.37,3.82-3.82,2.64-6.46,3.67-9.94,1.58,2.64,.01,23.71-3.69,27.49-1.29,1.57-2.63,2.76-3.92,3.67,1.28-.91,2.85-1.79,4.75-2.49h0Zm21.62-19.02h0c-1.81,.94-3.25,2-4.41,3.08,1.16-1.08,2.35-2.43,3.43-4.14,3.2-4.22,2.1-25.31,.21-27.75-.58,3.6,.92,6.06-2.4,10.33-2.21,2.86-5.37,6.52-7.59,9.41-6.41,8.34,2.12,12.42-2.3,18.52l.58,.76,2.29-3c.8-.74,3.22-1.78,5.78-4.13-2.56,2.35-3.8,4.69-4.61,5.42l-3.18,2.02,.72,.63c6.44-3.89,9.78,4.95,18.64-.74,3.06-1.97,6.98-4.8,10.02-6.77,4.53-2.94,6.85-1.24,10.48-1.52-2.27-2.09-23.18-4.96-27.66-2.13h0Zm19.05-21.58h0c4.09-3.38,25.2-3.16,27.71-1.37-3.56,.74-6.08-.65-10.21,2.83-2.76,2.33-6.29,5.64-9.08,7.98-8.07,6.75-12.49-1.59-18.4,3.07l-.79-.55,2.9-2.41c.72-.83,1.64-3.3,3.89-5.95,1.02-1.2,2.03-2.69,2.88-4.53,2.65-4.6-1.1-25.37-3.28-27.55-.13,3.63,1.67,5.88-1.07,10.54-1.84,3.11-4.52,7.14-6.35,10.28-5.31,9.09,3.66,12.05,.04,18.65l.67,.69,1.89-3.26c.7-.84,2.97-2.19,5.23-4.83,1.02-1.2,2.31-2.45,3.98-3.6h0Zm16.19-23.8h0c-1.51,1.34-2.64,2.74-3.5,4.07-1.89,2.93-3.98,4.52-4.57,5.46l-1.47,3.47-.76-.61c2.76-7-6.5-8.81-2.37-18.51,1.42-3.35,3.57-7.68,5-10.99,2.14-4.96,.07-6.98-.25-10.6,2.44,1.89,8.76,22.03,6.71,26.92-.62,1.93-1.43,3.53-2.29,4.86-1.9,2.91-2.51,5.48-3.11,6.39l-2.58,2.77,.86,.44c5.28-5.38,10.71,2.34,17.87-5.38,2.47-2.66,5.56-6.4,8.01-9.05,3.66-3.98,6.34-2.91,9.77-4.08-2.71-1.46-23.69,.97-27.31,4.84h0Zm13.07-25.66h0c-1.33,1.53-2.27,3.06-2.96,4.49-1.51,3.14-3.39,4.99-3.86,5.98l-1.02,3.64-.82-.51c1.85-7.29-7.56-7.92-4.69-18.05,.98-3.5,2.57-8.07,3.58-11.54,1.5-5.2-.81-6.93-1.58-10.48,2.65,1.56,11.47,20.75,10.05,25.86-.37,1.99-.98,3.68-1.66,5.11-1.52,3.13-1.8,5.75-2.29,6.73l-2.2,3.06,.9,.33c4.56-6,10.92,.98,17.06-7.57,2.12-2.96,4.71-7.05,6.81-10,3.13-4.4,5.92-3.68,9.18-5.28-2.88-1.11-23.38,3.94-26.49,8.23h0Zm9.74-27.09h0c-1.13,1.7-1.87,3.33-2.38,4.83-1.1,3.29-2.74,5.37-3.07,6.41l-.55,3.73-.89-.4c.93-7.48-8.5-6.92-6.91-17.32,.54-3.6,1.54-8.34,2.1-11.91,.84-5.33-1.67-6.76-2.89-10.19,2.83,1.23,13.98,19.15,13.22,24.39-.12,2.03-.51,3.78-1.01,5.28-1.11,3.29-1.06,5.93-1.42,6.97l-1.8,3.3,.94,.22c3.77-6.52,10.96-.4,15.96-9.65,1.73-3.2,3.79-7.58,5.5-10.77,2.55-4.76,5.41-4.39,8.44-6.4-3-.73-22.7,6.86-25.24,11.5h0Zm6.26-28.09h0c-.9,1.81-1.44,3.52-1.75,5.07,.31-1.55,.48-3.34,.34-5.36,.1-5.3-13.22-21.68-16.19-22.53,1.64,3.24,4.3,4.33,4.15,9.74-.11,3.62-.5,8.44-.59,12.08-.26,10.52,9.02,8.79,9.05,16.31l.92,.28,.08-3.76c.2-1.09,1.55-3.34,2.23-6.76-.68,3.42-.31,6.02-.53,7.1l-1.38,3.51,.96,.09c2.92-6.94,10.82-1.77,14.63-11.58,1.32-3.39,2.81-7.99,4.1-11.37,1.93-5.05,4.82-5.04,7.58-7.41-3.06-.35-21.66,9.65-23.6,14.59h0Zm2.68-28.68h0c1.3-5.13,18.5-17.4,21.57-17.42-2.44,2.69-5.3,3.04-6.58,8.29-.86,3.52-1.76,8.27-2.64,11.8-2.55,10.22-11.03,6.08-13.05,13.33l-.96,.03,.92-3.66c.13-1.58-1.41-6.24,.74-12.37h0Zm-1.44-.1h0c1.26,6.37-.93,10.76-1.03,12.34l.4,3.76-.95-.16c-.98-7.47-9.96-4.58-11.03-15.05-.37-3.62-.58-8.45-.93-12.05-.53-5.38-3.31-6.14-5.34-9.15,3.05,.47,18.31,15.05,18.88,20.32h0Zm.49-28.67h0c-.42,1.98-.52,3.78-.44,5.36-.08-1.58-.36-3.35-1-5.28-1.23-5.17-18.21-17.7-21.29-17.79,2.39,2.74,5.25,3.14,6.45,8.41,.8,3.52,1.62,8.3,2.44,11.84,2.37,10.25,10.93,6.26,12.82,13.54l.96,.04-.86-3.68c-.07-1.08,.68-3.62,.47-7.09,.2,3.47,1.21,5.9,1.26,7l-.45,3.74,.95-.15c1.1-7.46,10.03-4.41,11.27-14.88,.43-3.6,.73-8.44,1.13-12.03,.62-5.37,3.41-6.08,5.49-9.06-3.06,.43-18.56,14.75-19.22,20h0Zm-4.56-28.43h0c-.17,2.02-.04,3.81,.25,5.37,.63,3.42,.21,6.03,.41,7.11l1.31,3.53-.96,.08c-2.8-7-10.79-1.95-14.43-11.83-1.25-3.41-2.67-8.04-3.91-11.44-1.85-5.07-4.73-5.12-7.45-7.52,3.06-.31,21.5,10,23.35,14.98,.88,1.82,1.38,3.55,1.67,5.1,.62,3.42,1.94,5.71,2.12,6.8l.02,3.76,.92-.27c.15-7.54,9.4-5.63,9.31-16.17-.02-3.63-.34-8.46-.38-12.08-.06-5.41,2.61-6.47,4.3-9.67-2.97,.8-16.57,16.96-16.55,22.26h0Zm-8.1-27.63h0c.08,2.03,.45,3.79,.93,5.3,1.05,3.32,.96,5.95,1.3,6.99l1.75,3.35-.94,.2c-3.65-6.59-10.94-.59-15.8-9.93-1.68-3.22-3.66-7.63-5.32-10.84-2.47-4.81-5.34-4.49-8.34-6.54,3.01-.68,22.59,7.23,25.05,11.91,1.11,1.71,1.82,3.36,2.3,4.87,1.05,3.32,2.64,5.42,2.96,6.47l.49,3.73,.88-.37c-.79-7.5,8.62-6.79,7.21-17.21-.49-3.61-1.4-8.36-1.9-11.94-.75-5.35,1.77-6.73,3.05-10.14-2.85,1.17-14.31,18.91-13.63,24.16h0Zm-11.5-26.39c.33,2,.92,3.7,1.58,5.14,1.46,3.16,1.7,5.79,2.17,6.77l2.16,3.1-.91,.32c-4.46-6.08-10.94,.79-16.93-7.86-2.07-2.98-4.59-7.12-6.64-10.09-3.06-4.46-5.86-3.77-9.1-5.44,2.9-1.05,23.31,4.33,26.35,8.68,1.31,1.54,2.23,3.09,2.89,4.53,1.46,3.16,3.3,5.04,3.75,6.04l.96,3.65,.83-.49c-1.74-7.34,7.7-7.81,4.99-17.98-.94-3.51-2.44-8.11-3.39-11.6-1.41-5.22,.92-6.9,1.76-10.44-2.69,1.52-11.81,20.57-10.47,25.69h0Zm-14.73-24.74h0c-1.97-4.91,4.7-24.95,7.17-26.8-.39,3.61-2.49,5.59-.43,10.58,1.37,3.35,3.45,7.71,4.81,11.09,3.96,9.75-5.33,11.41-2.69,18.46l-.76,.6-1.41-3.51c-.57-.93-2.64-2.57-4.48-5.52-.84-1.34-1.94-2.76-3.44-4.13-3.55-3.93-24.49-6.71-27.23-5.3,3.42,1.23,6.12,.21,9.71,4.24,2.4,2.71,5.42,6.48,7.85,9.19,7.04,7.83,12.59,.19,17.78,5.66l.86-.42-2.53-2.8c-.59-.93-1.16-3.5-3.01-6.45-.83-1.34-1.63-2.95-2.21-4.9h0Zm-17.72-22.69h0c-2.57-4.63,1.52-25.34,3.74-27.49,.07,3.64-1.77,5.85,.9,10.55,1.79,3.15,4.4,7.22,6.18,10.4,5.15,9.17-3.86,11.98-.35,18.65l-.68,.67-1.84-3.29c-.69-.84-2.94-2.21-5.14-4.91,2.2,2.7,3.09,5.18,3.79,6.02l2.86,2.45-.8,.53c-5.83-4.77-10.38,3.5-18.35-3.39-2.74-2.38-6.23-5.75-8.95-8.12-4.07-3.55-6.61-2.2-10.16-3,2.54-1.74,23.65-1.61,27.68,1.83,1.65,1.18,2.92,2.45,3.93,3.66-1-1.22-1.99-2.72-2.81-4.58h0Zm-20.43-20.28h0c-3.14-4.27-1.68-25.33,.25-27.74,.53,3.6-1.02,6.03,2.23,10.36,2.16,2.89,5.26,6.61,7.43,9.53,6.27,8.45-2.32,12.37,2,18.55l-.59,.76-2.24-3.04c-.79-.76-3.2-1.83-5.71-4.23,2.52,2.39,3.72,4.74,4.52,5.49l3.14,2.07-.72,.63c-6.39-3.99-9.87,4.78-18.63-1.05-3.03-2.03-6.9-4.93-9.9-6.94-4.49-3.02-6.84-1.34-10.46-1.69,2.3-2.06,23.27-4.58,27.69-1.67,1.79,.96,3.21,2.06,4.36,3.15-1.15-1.09-2.31-2.45-3.36-4.19h0Zm-22.82-17.56h0c-3.65-3.85-4.85-24.92-3.23-27.54,.98,3.49-.25,6.11,3.5,9.99,2.52,2.6,6.06,5.9,8.57,8.53,7.28,7.59-.75,12.57,4.31,18.14l-.49,.83-2.6-2.73c-.88-.65-3.4-1.42-6.21-3.48-1.27-.93-2.82-1.84-4.71-2.58-4.76-2.33-25.23,2.81-27.27,5.14,3.63-.11,5.76-2.06,10.59,.36,3.23,1.62,7.43,4.02,10.69,5.64,9.43,4.68,11.78-4.46,18.61-1.3l.64-.72-3.38-1.67c-.88-.64-2.36-2.82-5.17-4.88-1.27-.93-2.6-2.14-3.86-3.74h0Zm-24.85-14.54h0c-4.1-3.36-7.95-24.12-6.67-26.93,1.41,3.36,.52,6.1,4.74,9.48,2.82,2.26,6.74,5.09,9.57,7.38,8.18,6.62,.84,12.56,6.57,17.46l-.39,.88-2.92-2.38c-.95-.54-3.55-.98-6.59-2.68-1.38-.77-3.03-1.48-5.01-1.96-5.01-1.72-24.68,5.96-26.4,8.53,3.59-.57,5.46-2.78,10.55-.98,3.41,1.2,7.88,3.06,11.32,4.26,9.94,3.45,11.12-5.92,18.3-3.63l.55-.8-3.57-1.22c-.96-.52-2.7-2.51-5.75-4.19-1.38-.77-2.85-1.81-4.3-3.22Z"/><g><g id="logo_BG_White"><g id="ollorun"><path class="cls-6" d="M420.24,350.51c-3.67-3.37-8.06-5.1-13.05-5.1s-9.38,1.73-13.05,5.1c-3.57,3.37-5.41,8.47-5.41,15.4v23.46h9.79v-23.46c0-7.34,3.37-11.12,8.67-11.12s8.77,3.88,8.77,11.12v23.46h9.79v-23.46c0-6.83-1.84-12.03-5.51-15.4Z"/><path class="cls-6" d="M374.18,369.38c0,7.24-3.47,11.12-8.77,11.12s-8.67-3.77-8.67-11.12v-15.72l-9.79-7.74v23.46c0,6.94,1.84,12.14,5.41,15.5,3.67,3.37,8.06,5,13.05,5s9.38-1.73,13.05-5.1c3.67-3.36,5.51-8.57,5.51-15.4v-15.72l-9.79-7.74v23.46Z"/><path class="cls-6" d="M323.32,363.47v25.91h9.69v-25.91c0-5.41,2.45-8.16,7.34-8.16h1.84v-9.38h-2.35c-9.49,0-16.52,5-16.52,17.54Z"/><path class="cls-6" d="M296.32,345.41c-6.22,0-11.42,2.14-15.81,6.53-4.39,4.38-6.53,9.59-6.53,15.71s2.14,11.42,6.53,15.81c4.39,4.28,9.59,6.43,15.81,6.43s11.32-2.14,15.71-6.43c4.39-4.38,6.53-9.59,6.53-15.81s-2.14-11.32-6.53-15.71c-4.39-4.39-9.59-6.53-15.71-6.53Zm8.87,31.52c-2.35,2.35-5.3,3.57-8.87,3.57s-6.53-1.22-8.98-3.57c-2.35-2.45-3.57-5.51-3.57-9.28s1.22-6.83,3.57-9.18c2.45-2.45,5.41-3.67,8.98-3.67s6.53,1.22,8.87,3.67c2.45,2.35,3.67,5.41,3.67,9.18s-1.22,6.83-3.67,9.28Z"/><polygon class="cls-6" points="259.44 389.37 269.23 389.37 269.23 328.78 259.44 321.04 259.44 389.37"/><polygon class="cls-6" points="244.89 389.37 254.68 389.37 254.68 328.78 244.89 321.04 244.89 389.37"/><path class="cls-6" d="M217.9,345.41c-6.22,0-11.42,2.14-15.81,6.53-4.39,4.38-6.53,9.59-6.53,15.71s2.14,11.42,6.53,15.81c4.39,4.28,9.59,6.43,15.81,6.43s11.32-2.14,15.71-6.43c4.39-4.38,6.53-9.59,6.53-15.81s-2.14-11.32-6.53-15.71c-4.39-4.39-9.59-6.53-15.71-6.53Zm8.87,31.52c-2.35,2.35-5.3,3.57-8.87,3.57s-6.53-1.22-8.98-3.57c-2.35-2.45-3.57-5.51-3.57-9.28s1.22-6.83,3.57-9.18c2.45-2.45,5.41-3.67,8.98-3.67s6.53,1.22,8.87,3.67c2.45,2.35,3.67,5.41,3.67,9.18s-1.22,6.83-3.67,9.28Z"/></g><g id="_2"><path class="cls-6" d="M306.95,324.21c-.93-10.38-13.55-17.76-26.36-23.55-7.98-3.61-16.03-6.6-21.38-9.32-1.47-.74-3.03-1.52-4.64-2.34-16.38-8.22-39.29-19.86-52.46-35.36-16.69-19.67-14.75-38.08,3.53-30.68-11.64-6.41-17.73-3.71-19.59,2.85-4.45,15.64,11.43,35.34,22.36,45.22,16.21,14.58,32.05,21.38,48.92,28.18,2.08,.84,4.17,1.68,6.29,2.53,3.9,1.58,7.87,3.2,11.91,4.97,7.93,3.48,23.12,9.63,25.06,18.68,1.86,8.61-9.76,14.05-15.67,6.88,7.64,11.93,23.12,4.19,22.02-8.06Z"/><path class="cls-6" d="M435.26,225.79c-1.88-6.54-7.95-9.26-19.62-2.82,18.28-7.4,20.25,10.99,3.53,30.68-13.19,15.53-36.16,27.18-52.54,35.4-1.58,.8-3.11,1.56-4.56,2.29-5.32,2.71-13.32,5.68-21.25,9.26-12.84,5.8-25.52,13.18-26.46,23.59-1.12,12.27,14.36,20.01,22,8.08-5.89,7.14-17.52,1.73-15.67-6.88,1.96-9.08,17.13-15.2,25.06-18.68,4.04-1.77,8-3.39,11.9-4.97,2.09-.84,4.16-1.68,6.22-2.51,16.91-6.82,32.79-13.61,49-28.2,10.96-9.91,26.81-29.58,22.39-45.25Z"/></g><g id="_1"><path class="cls-6" d="M282.16,297.69c-.97-.53-1.94-1.06-2.89-1.59-9.16-5.09-17.28-9.93-24.44-14.51-.93-.6-1.85-1.19-2.75-1.78-58.4-38.12-50.13-57.63-34.71-48.48-16.83-20.1-48.19,9.75,36.15,53.77,7.72,4.03,16.41,8.18,26.17,12.42,3.24,1.41,6.58,2.82,10.06,4.25-2.6-1.38-5.13-2.74-7.58-4.08Z"/><path class="cls-6" d="M403.92,231.33c15.45-9.18,23.72,10.36-34.8,48.53-.9,.59-1.82,1.18-2.75,1.77-7.11,4.54-15.15,9.34-24.22,14.38-.95,.53-1.91,1.06-2.89,1.59-2.49,1.36-5.05,2.74-7.69,4.14,3.51-1.44,6.89-2.87,10.16-4.29,9.67-4.2,18.29-8.32,25.95-12.31,84.48-44.06,53.1-73.94,36.24-53.81Z"/></g><g id="WH"><g id="_2-2"><polygon class="cls-6" points="276.15 149.8 256.01 149.8 256.01 194.62 276.15 264.12 276.15 149.8"/><polygon class="cls-6" points="365.3 149.8 345.16 149.8 345.16 264.12 365.3 194.62 365.3 149.8"/></g><g id="_1-2"><path class="cls-6" d="M276.15,273.63l-20.15-69.5-15.75-54.34h-20.25l34.83,128.46c.39,.25,.78,.5,1.18,.74,1.95,1.24,3.97,2.5,6.06,3.77,5.28,3.22,10.99,6.55,17.2,10,.95,.53,1.91,1.06,2.89,1.59l-6.01-20.72Z"/><path class="cls-6" d="M381.15,149.8l-15.85,54.66-20.15,69.5-5.89,20.31c.97-.53,1.94-1.06,2.89-1.59,9.07-5.04,17.11-9.83,24.22-14.38l34.84-128.5h-20.06Z"/></g></g><g id="Boule"><path class="cls-6" d="M296.78,201.69c2.22-2.21,2.89-2.51,3.92-1.5,.68,.67,2.26,.31,3.44-.85,2.03-1.98,2.78-2.25,4.59-.55,1.03,.97,2.85,.93,3.84,0,.42-.39,.62-.88,.64-1.38,0,0,0,0,0,0,0,0,0-.02,0-.03,0-.06,0-.12,0-.18,0-.02,0-.05,0-.07,0-.08-.02-.17-.03-.25,0,0,0,0,0,0-.02-.08-.04-.16-.06-.23,0-.03-.02-.05-.03-.08-.02-.06-.04-.11-.06-.17-.01-.03-.03-.06-.04-.09-.02-.05-.05-.1-.07-.15-.02-.03-.03-.06-.05-.09-.03-.05-.06-.1-.09-.14-.02-.03-.04-.05-.06-.08-.04-.05-.08-.1-.12-.15-.02-.02-.03-.04-.05-.06-.06-.07-.12-.14-.19-.2-.29-.28-.63-.46-.98-.57-.74-.23-1.54-.11-2.19,.37-.09,.06-.17,.12-.25,.2-.2,.19-.38,.35-.56,.5-1.64,1.42-2.33,1.27-3.52,.15-.08-.07-.16-.13-.26-.17-.03-.01-.07-.02-.11-.03-.07-.02-.13-.04-.2-.05-.05,0-.1,0-.15,0-.07,0-.13,0-.2,0-.06,0-.12,.03-.18,.04-.07,.02-.14,.03-.21,.05-.06,.02-.13,.05-.19,.08-.07,.03-.15,.06-.22,.09-.07,.03-.13,.08-.2,.11-.08,.04-.15,.08-.23,.13-.07,.04-.14,.1-.2,.15-.08,.05-.15,.11-.23,.17-.07,.05-.13,.12-.2,.18-.06,.06-.13,.11-.19,.17,0,0,0,0,0,0-.02,.02-.05,.04-.07,.07-2.09,2.06-2.77,2.49-3.48,1.8-.22-.21-1.3,.65-2.49,1.83-1.19,1.19-2.11,2.2-1.84,2.47,.26,.27,1.59-.33,2.79-1.53Z"/><path class="cls-6" d="M295.27,225.67c.66-.69,.29-2.3-.86-3.46-.56-.57-1.22-.92-1.81-1.04,0,0,0,0,0,0,0,0,0,0-.01,0-.1-.02-.19-.02-.28-.03-.05,0-.11-.02-.16-.02-.09,0-.17,.01-.26,.02-.05,0-.1,0-.14,.01-.09,.02-.17,.05-.24,.09-.03,.01-.07,.02-.1,.04-.1,.06-.2,.13-.28,.21-.11,.11-.18,.25-.22,.4-.2,.71,.32,1.75,1.26,2.69,.02,.02,.03,.03,.05,.05,2.11,2.13,2.2,3.02,1.77,3.47-.43,.45,.66,1.31,1.85,2.5,1.19,1.19,2.21,2.1,2.48,1.83,.27-.26-.33-1.6-1.53-2.81-2.21-2.22-2.52-2.9-1.51-3.94Z"/><path class="cls-6" d="M293.85,217.59c.93-1,.97-2.81,0-3.84-1.61-1.72-1.5-2.52,.56-4.63,2.16-2.22,2.98-2.37,4.59-.7,.97,1,2.79,.85,4.03-.39,2.28-2.29,3.23-2.35,5.37-.26,1.22,1.2,3.3,1.17,4.5,0,.44-.43,.71-.96,.8-1.52,0,0,0,0,0,0,0,0,0,0,0,0,.02-.11,.03-.22,.03-.33,0-.03,0-.05,0-.08,0-.08,0-.17,0-.25,0-.04,0-.07,0-.11,0-.08-.02-.16-.03-.23,0-.03-.01-.07-.02-.1-.02-.1-.05-.2-.08-.3,0,0,0-.02,0-.02-.04-.11-.08-.21-.13-.31-.01-.03-.03-.06-.04-.09-.04-.07-.08-.14-.12-.21-.02-.03-.04-.07-.06-.1-.04-.07-.09-.13-.14-.2-.02-.03-.04-.06-.07-.09-.07-.09-.15-.18-.24-.26-.07-.07-.15-.14-.23-.2-.16-.13-.33-.23-.5-.32-.09-.04-.18-.09-.27-.12-.78-.31-1.66-.28-2.43,.08-.3,.14-.58,.33-.83,.57-.13,.13-.26,.25-.39,.37-.04,.04-.08,.07-.12,.1-1.63,1.46-2.56,1.62-3.88,.56-.08-.06-.15-.13-.23-.2-.04-.03-.07-.06-.11-.1-.11-.1-.22-.21-.34-.32,0,0-.01-.01-.02-.02-.46-.45-1.1-.61-1.77-.5-.12,.02-.24,.05-.36,.08-.11,.03-.23,.07-.34,.12-.47,.19-.93,.5-1.34,.91-.38,.38-.72,.7-1.03,.97-1.11,.96-1.8,1.17-2.52,.76-.26-.14-.52-.36-.8-.66-.58-.61-1.96-.05-3.1,1.1-1.14,1.15-1.61,2.47-1.03,3.1,1.29,1.39,1.17,2.18-.67,4.12-.92,.97-.94,2.42,0,3.42,.94,1,2.46,1.21,3.39,.21Z"/><path class="cls-6" d="M319.07,230.86s0,0,0,0c-.08,.02-.16,.05-.24,.07-.08,.02-.16,.04-.24,.08-.09,.04-.18,.08-.27,.13-.07,.04-.15,.06-.22,.1-.11,.06-.21,.13-.31,.2-.06,.04-.11,.07-.17,.11-.16,.12-.31,.25-.46,.39-1.36,1.34-2.18,1.84-3.05,1.59-.21-.06-.43-.17-.66-.32-.06-.04-.12-.08-.18-.13-.03-.02-.07-.05-.1-.07-.03-.02-.06-.05-.09-.08-.16-.13-.33-.28-.51-.45-.23-.22-.5-.38-.79-.5-.03-.01-.06-.03-.1-.05-.98-.36-2.18-.18-2.95,.55-1.71,1.62-2.5,1.5-4.59-.55-.29-.29-.62-.53-.95-.71-.8-.45-1.63-.56-2.17-.34-.12,.05-.23,.12-.32,.2-.15,.15-.23,.33-.25,.54,0,.02,0,.03,0,.05h0c-.02,.25,.05,.54,.17,.85,.22,.54,.64,1.13,1.18,1.67l.04,.04s0,0,0,0c1.13,1.1,2.41,1.55,3.02,.97,1.37-1.3,2.14-1.19,4.08,.65,.96,.91,2.46,.91,3.42,0,1.93-1.83,2.72-1.95,4.08-.65,.61,.59,1.92,.12,3.06-1.01,1.14-1.13,1.74-2.47,1.1-3.11-.32-.32-.89-.4-1.53-.25Z"/><path class="cls-6" d="M330.84,213.96c-1.38-1.44-1.79-2.25-1.38-3.14,.02-.05,.05-.1,.08-.14,.02-.03,.03-.06,.05-.09,.03-.05,.07-.1,.1-.15,.02-.03,.04-.06,.06-.09,.04-.06,.09-.12,.14-.18,.02-.02,.04-.05,.06-.07,.07-.08,.15-.17,.23-.26,.15-.16,.23-.36,.25-.59,.02-.17-.01-.36-.06-.56-.05-.2-.12-.41-.23-.63,0-.01-.01-.02-.02-.03-.22-.42-.55-.87-.96-1.29-.21-.22-.44-.41-.66-.59-.15-.12-.3-.22-.44-.31-.18-.11-.35-.2-.52-.28-.6-.26-1.14-.27-1.47,.08-.08,.08-.14,.18-.19,.3-.01,.03-.02,.08-.03,.11-.03,.08-.06,.17-.07,.26,0,0,0,0,0,.01,0,0,0,0,0,0-.1,.79,.29,1.91,1.15,2.79,2.05,2.11,1.85,3.25,.56,4.62-1.29,1.37-.94,2.84,0,3.84,.93,1,2.43,.78,3.39-.21,.96-1,.93-2.45,0-3.42Z"/><path class="cls-6" d="M298.94,225.87s.06,.1,.09,.15c0,0,0,.01,.01,.02,.09,.14,.19,.27,.3,.41,.09,.1,.17,.2,.27,.3,.14,.14,.28,.26,.42,.37,.02,.01,.04,.03,.05,.04,.03,.02,.05,.04,.08,.06,.06,.04,.11,.08,.17,.12,.01,0,.02,.01,.04,.02,.07,.05,.15,.09,.22,.13,0,0,0,0,0,0,.25,.14,.51,.24,.77,.3,.01,0,.03,0,.04,0,.11,.03,.23,.05,.34,.06,.12,.01,.25,.02,.37,.02,0,0,.01,0,.02,0,.49-.02,.94-.19,1.29-.53,1.88-1.86,2.82-1.79,5.09,.39,1.18,1.14,3.06,1.15,4.26,0,1.2-1.15,1.32-3.01,.12-4.18-1.2-1.17-3.28-1.19-4.5,0-2.14,2.08-3.09,2.03-5.37-.25-2.28-2.29-2.34-3.24-.26-5.39,1.18-1.22,1.16-3.28,0-4.48-.3-.31-.64-.53-1-.67,0,0,0,0,0,0,0,0-.02,0-.03,0-.11-.04-.22-.07-.33-.1-.03,0-.06-.01-.09-.02-.12-.02-.25-.04-.37-.05,0,0-.02,0-.03,0-.12,0-.23,0-.35,0-.03,0-.06,0-.09,0-.12,.01-.25,.03-.37,.06,0,0-.01,0-.02,0-.12,.03-.23,.07-.34,.11-.03,.01-.06,.02-.09,.04-.12,.05-.23,.1-.35,.17,0,0,0,0-.01,0-.11,.06-.21,.14-.31,.21-.03,.02-.05,.04-.08,.06-.1,.08-.21,.17-.3,.27-.07,.08-.14,.15-.2,.23-.75,.96-.85,2.25-.32,3.29,.13,.26,.31,.51,.52,.73,.14,.15,.27,.29,.39,.42,.04,.04,.07,.08,.11,.13,.08,.09,.16,.18,.23,.27,.04,.05,.08,.1,.12,.15,.06,.07,.12,.15,.17,.22,.04,.05,.07,.1,.1,.15,.05,.07,.09,.13,.14,.2,.82,1.29,.51,2.18-.86,3.58-.68,.7-.68,1.82-.13,2.85,0,0,0,0,0,0,.02,.04,.04,.07,.06,.11Z"/><path class="cls-6" d="M318.26,203.54c-.12,.14-.24,.28-.39,.43-.15,.15-.27,.29-.37,.45-.42,.61-.5,1.24-.33,1.87,.02,.09,.05,.17,.08,.26,.2,.52,.56,1.02,1.02,1.49,0,0,0,0,0,0,.14,.14,.28,.26,.43,.37,.04,.03,.08,.06,.13,.09,.13,.08,.26,.16,.39,.23,.03,.02,.06,.03,.09,.05,.16,.07,.32,.13,.49,.18,.04,.01,.08,.02,.12,.03,.13,.03,.26,.06,.39,.07,.04,0,.09,.01,.13,.01,.16,.01,.32,.01,.48,0,.02,0,.04,0,.06,0,.1-.01,.19-.02,.28-.05,0,0,0,0-.02,0,.4-.09,.76-.27,1.04-.56,.94-.97,.61-2.63-.61-3.86-2.25-2.26-2.42-3.07-1.09-4.38,1.03-1.01,1.7-.71,3.92,1.5,1.2,1.2,2.53,1.8,2.79,1.53,.26-.27-.64-1.29-1.84-2.47-1.2-1.19-2.27-2.05-2.49-1.84-.66,.63-1.33,.33-3.49-1.8-.16-.16-.33-.31-.5-.44,0,0,0,0,0,0-.11-.09-.22-.17-.33-.25-.01,0-.02-.02-.03-.03-.13-.09-.27-.17-.4-.24-.04-.02-.08-.04-.12-.06-.09-.04-.18-.08-.27-.12-.05-.02-.09-.03-.14-.05-.08-.02-.16-.04-.23-.06-.05,0-.09-.02-.14-.02-.07,0-.15-.01-.22,0-.04,0-.08,0-.12,0-.07,0-.14,.03-.21,.05-.03,.01-.06,.02-.09,.03-.09,.04-.18,.1-.26,.17-.66,.62-.42,2.12,.72,3.24,1.96,1.93,2.03,3.05,1.1,4.19Z"/><path class="cls-6" d="M312.25,212.81c-.78-.43-1.7-.52-2.54-.28-.51,.15-.99,.42-1.39,.82,0,0,0,0,0,0-.09,.09-.18,.19-.26,.3-.02,.03-.05,.06-.07,.1-.06,.08-.11,.16-.16,.24-.02,.03-.04,.06-.06,.1-.06,.11-.12,.23-.17,.35,0,0,0,.01,0,.02-.05,.11-.08,.23-.11,.35,0,.04-.02,.07-.03,.11-.02,.09-.04,.18-.05,.28,0,.04-.01,.07-.02,.11-.01,.13-.02,.25-.02,.38,0,.01,0,.02,0,.03,0,.12,0,.23,.02,.35,0,.04,.01,.07,.02,.11,.01,.09,.03,.19,.06,.28,0,.02,0,.05,.01,.07,0,0,0,0,0,0,.14,.54,.42,1.05,.85,1.48,1.28,1.27,3.38,1.28,4.65,0,2.34-2.35,3.35-2.36,5.56-.08,1.14,1.18,3.02,1.09,4.17-.11,.42-.44,.68-.96,.8-1.51,0,0,0,0,0,0,0,0,0-.02,0-.03,0-.02,0-.04,0-.07,.03-.15,.04-.3,.04-.45,0-.04,0-.07,0-.11,0-.17-.02-.33-.05-.49,0-.03-.01-.07-.02-.1-.03-.15-.07-.3-.13-.44,0-.02-.02-.05-.02-.07-.06-.16-.14-.31-.24-.46-.02-.03-.04-.07-.06-.1-.1-.15-.21-.29-.34-.43-.22-.23-.46-.41-.71-.56-.43-.24-.9-.38-1.37-.39-.76-.03-1.51,.25-2.08,.84-2.21,2.29-3.22,2.28-5.56-.08-.22-.22-.47-.4-.73-.55Z"/><path class="cls-6" d="M330.43,222.22c0-.05,0-.11,0-.16,0-.02,0-.04-.01-.07,0-.04-.02-.08-.03-.12,0-.02-.01-.04-.02-.06-.02-.04-.03-.08-.05-.12,0-.02-.02-.04-.03-.05-.03-.05-.07-.1-.11-.15-.07-.07-.16-.13-.25-.19-.03-.01-.05-.03-.08-.04-.07-.03-.15-.06-.24-.08-.03,0-.05-.02-.08-.02-.11-.02-.23-.03-.35-.03-.02,0-.05,0-.07,0-.1,0-.21,.02-.32,.03-.04,0-.08,.02-.12,.02-.11,.02-.22,.06-.33,.09-.03,.01-.06,.02-.09,.03-.12,.05-.24,.1-.36,.16,0,0,0,0,0,0-.34,.18-.68,.42-.99,.73-1.85,1.89-2.72,2.27-3.94,1.3-.07-.06-.14-.12-.22-.18-.03-.03-.07-.06-.1-.09-.11-.1-.22-.21-.33-.32-.97-1-2.79-.85-4.03,.39-1.24,1.24-1.36,3.1-.4,4.04,.06,.06,.12,.11,.19,.16,.02,.01,.04,.03,.06,.04,.05,.03,.1,.07,.15,.1,.03,.02,.06,.03,.08,.04,.04,.02,.09,.05,.14,.06,.03,.01,.07,.02,.1,.03,.04,.01,.09,.03,.13,.04,.04,0,.07,.01,.11,.02,.04,0,.09,.02,.13,.03,.04,0,.08,0,.11,.01,.04,0,.09,0,.13,0,.04,0,.08,0,.12,0,.04,0,.09,0,.13,0,.04,0,.08,0,.12-.01,.05,0,.09-.01,.14-.02,.01,0,.02,0,.03,0,0,0,0,0,0,0,.66-.13,1.35-.51,1.95-1.1,2.24-2.25,3.05-2.42,4.35-1.07,1.01,1.04,.19,2.23-1.51,3.95-1.71,1.71-1.8,2.54-1.53,2.81,.27,.27,1.28-.64,2.48-1.83,1.2-1.19,2.07-2.27,1.84-2.5-.64-.67-.34-1.35,1.82-3.51,.44-.44,.78-.9,1.01-1.33,0,0,0,0,0,0,0-.02,.01-.03,.02-.05,.03-.06,.06-.12,.08-.17,.01-.03,.02-.05,.03-.08,.02-.05,.04-.1,.06-.16,0-.03,.02-.05,.02-.08,.02-.06,.03-.11,.04-.16,0-.02,0-.04,.01-.06,.01-.07,.02-.14,.02-.21,0-.01,0-.03,0-.04Z"/></g></g><g><path class="cls-6" d="M220.9,434.48l.34,4.33c-2.08,1.38-3.77,1.74-6.78,1.74-5.82,0-9.76-3.88-9.76-10.16s3.94-10.16,9.76-10.16c2.9,0,5.01,.28,6.78,1.72l-.34,4.36h-.37c-.79-4.64-3.8-5.71-6.08-5.71-2.93,0-6.16,1.29-6.16,9.79s3.32,9.79,6.16,9.79c2.28,0,5.71-1.43,6.08-5.71h.37Z"/><path class="cls-6" d="M237.47,434.45v5.85h-14.15v-.37c1.18,0,1.52-1.01,1.52-2.93v-13.5c0-1.74-.28-2.64-1.52-2.64v-.37h13.78v5.06h-.37c-.34-4.64-5.2-4.7-7.48-4.7h-1.52v9.26h1.83c.76,0,3.74,0,3.88-2.84h.37v6.05h-.37c-.14-2.81-3.18-2.84-3.88-2.84h-1.83v9.45h1.29c2.5,0,7.48,.14,8.07-5.49h.37Z"/><path class="cls-6" d="M257.14,440.3h-2.14c-3.6,0-3.18-.03-4.78-6.13-.79-2.95-3.63-2.95-4.36-2.95h-1.32v6.16c0,1.94,.62,2.56,1.8,2.56v.37h-6.3v-.37c1.21,0,1.74-.56,1.74-2.93v-14.01c0-1.74-.51-2.14-1.74-2.14v-.37h5.37c5.6,0,8.69,.68,8.69,5.37,0,3.83-2.19,4.95-5.23,5.15,1.86,.08,3.8,.28,5.26,6.44,.51,2.14,2.28,2.42,3.01,2.48v.37Zm-11.73-19.44h-.87v9.99h.87c3.18,0,5.6,.03,5.6-4.98s-2.59-5.01-5.6-5.01Z"/><path class="cls-6" d="M274.56,420.49v4.95h-.37c-.11-4.53-4.81-4.59-5.2-4.59h-1.66v16.71c0,1.86,.87,2.36,2.05,2.36v.37h-6.86v-.37c1.18,0,2.03-.51,2.03-2.36v-16.71h-1.66c-.87,0-5.06,.06-5.18,4.59h-.37v-4.95h17.22Z"/><path class="cls-6" d="M283.45,420.49v.37c-1.21,0-1.97,.48-1.97,2.22v14.21c0,1.91,.79,2.64,1.97,2.64v.37h-6.84v-.37c1.21,0,1.97-.73,1.97-2.64v-14.21c0-1.74-.73-2.22-1.97-2.22v-.37h6.84Z"/><path class="cls-6" d="M299.57,420.49v5.06h-.37c-.51-4.84-5.43-4.7-7.65-4.7h-1.49v9.26h1.8c.76,0,3.77,.03,4.02-2.84h.37v6.05h-.37c-.25-2.87-3.29-2.81-4.02-2.81h-1.8v6.39c0,2.76,.87,3.04,2.14,3.04v.37h-6.55v-.37c1.21,0,1.52-1.01,1.52-2.93v-13.5c0-1.74-.28-2.64-1.52-2.64v-.37h13.93Z"/><path class="cls-6" d="M308.29,420.49v.37c-1.21,0-1.97,.48-1.97,2.22v14.21c0,1.91,.79,2.64,1.97,2.64v.37h-6.84v-.37c1.21,0,1.97-.73,1.97-2.64v-14.21c0-1.74-.73-2.22-1.97-2.22v-.37h6.84Z"/><path class="cls-6" d="M327,434.48l.34,4.33c-2.08,1.38-3.77,1.74-6.78,1.74-5.82,0-9.76-3.88-9.76-10.16s3.94-10.16,9.76-10.16c2.9,0,5.01,.28,6.78,1.72l-.34,4.36h-.37c-.79-4.64-3.8-5.71-6.08-5.71-2.93,0-6.16,1.29-6.16,9.79s3.32,9.79,6.16,9.79c2.28,0,5.71-1.43,6.08-5.71h.37Z"/><path class="cls-6" d="M346.81,440.3h-6.41v-.37c1.52,0,1.24-1.6,.59-3.18l-.98-2.45h-7.29c-.76,2.25-2,5.74,1.91,5.63v.37h-6.27v-.37c1.07-.03,1.77-.14,4.22-6.64l4.7-12.8h.31c3.43,8.27,6.92,17.16,6.92,17.16,.93,2.25,1.52,2.22,2.31,2.28v.37Zm-6.92-6.36l-3.69-9.34-3.4,9.34h7.09Z"/><path class="cls-6" d="M363.58,420.49v4.95h-.37c-.11-4.53-4.81-4.59-5.2-4.59h-1.66v16.71c0,1.86,.87,2.36,2.05,2.36v.37h-6.86v-.37c1.18,0,2.03-.51,2.03-2.36v-16.71h-1.66c-.87,0-5.06,.06-5.18,4.59h-.37v-4.95h17.22Z"/><path class="cls-6" d="M372.47,420.49v.37c-1.21,0-1.97,.48-1.97,2.22v14.21c0,1.91,.79,2.64,1.97,2.64v.37h-6.84v-.37c1.21,0,1.97-.73,1.97-2.64v-14.21c0-1.74-.73-2.22-1.97-2.22v-.37h6.84Z"/><path class="cls-6" d="M384.15,440.55c-6.19,0-9.14-4.42-9.14-10.02s2.95-10.3,9.14-10.3,9.14,4.73,9.14,10.3-2.95,10.02-9.14,10.02Zm0-19.95c-3.35,0-5.91,2.22-5.91,9.93s2.56,9.65,5.91,9.65,5.88-1.91,5.88-9.65-2.56-9.93-5.88-9.93Z"/><path class="cls-6" d="M416.62,420.49v.34c-4.08,0-4,4.05-4,6.67v12.8h-.9l-11.96-15.42v8.38c0,2.48,0,6.67,3.69,6.67v.37h-8.13v-.37c4.08,0,4.08-4.14,4.08-6.67v-8.81l-1.15-1.49c-1.8-2.25-2.62-2.08-3.35-2.14v-.34h5.2l12.15,15.7v-8.69c0-2.62,.03-6.67-3.69-6.67v-.34h8.05Z"/><path class="cls-6" d="M234.74,466.19v.37c-1.63,0-1.86,.28-1.86,6.58-1.74,.67-4.14,1.18-7.15,1.18-6.08,0-9.28-4.56-9.28-10.16s3.21-10.16,9.28-10.16c3.4,0,5.37,.45,7.12,1.6l-.25,4.56h-.59c-.42-4.7-2.93-5.8-6.27-5.8s-5.65,2.05-5.65,9.79,2.5,9.79,5.65,9.79,4.64-.73,4.64-3.07c0-4.25-.39-4.33-2.25-4.33v-.37h6.61Z"/><path class="cls-6" d="M238.18,467.31v-10.24c0-1.91-.76-2.45-2-2.45v-.37h7.01v.37c-1.21,0-2.22,.25-2.22,2.48v10.47c0,3.49,2.08,5.49,5.12,5.49,2.87,0,5.09-2,5.09-5.63v-7.65c0-2.64-.06-5.15-3.35-5.15v-.37h7.31v.37c-3.69,0-3.6,2.5-3.6,5.15v7.65c0,5.04-3.38,6.89-6.84,6.89-3.66,0-6.53-2.42-6.53-7.01Z"/><path class="cls-6" d="M272.64,474.06h-6.41v-.37c1.52,0,1.24-1.6,.59-3.18l-.98-2.45h-7.29c-.76,2.25-2,5.74,1.91,5.63v.37h-6.27v-.37c1.07-.03,1.77-.14,4.22-6.64l4.7-12.8h.31c3.43,8.27,6.92,17.16,6.92,17.16,.93,2.25,1.52,2.22,2.31,2.28v.37Zm-6.92-6.36l-3.69-9.34-3.4,9.34h7.09Z"/><path class="cls-6" d="M291.13,474.06h-2.14c-3.6,0-3.18-.03-4.78-6.13-.79-2.95-3.63-2.95-4.36-2.95h-1.32v6.16c0,1.94,.62,2.56,1.8,2.56v.37h-6.3v-.37c1.21,0,1.74-.56,1.74-2.93v-14.01c0-1.74-.51-2.14-1.74-2.14v-.37h5.37c5.6,0,8.69,.68,8.69,5.37,0,3.83-2.19,4.95-5.23,5.15,1.86,.08,3.8,.28,5.26,6.44,.51,2.14,2.28,2.42,3.01,2.48v.37Zm-11.73-19.44h-.87v9.99h.87c3.18,0,5.6,.03,5.6-4.98s-2.59-5.01-5.6-5.01Z"/><path class="cls-6" d="M310.23,474.06h-6.41v-.37c1.52,0,1.24-1.6,.59-3.18l-.98-2.45h-7.29c-.76,2.25-2,5.74,1.91,5.63v.37h-6.27v-.37c1.07-.03,1.77-.14,4.22-6.64l4.7-12.8h.31c3.43,8.27,6.92,17.16,6.92,17.16,.93,2.25,1.52,2.22,2.31,2.28v.37Zm-6.92-6.36l-3.69-9.34-3.4,9.34h7.09Z"/><path class="cls-6" d="M332.8,454.26v.34c-4.08,0-3.99,4.05-3.99,6.67v12.8h-.9l-11.96-15.42v8.38c0,2.48,0,6.67,3.69,6.67v.37h-8.13v-.37c4.08,0,4.08-4.14,4.08-6.67v-8.81l-1.15-1.49c-1.8-2.25-2.62-2.08-3.35-2.14v-.34h5.2l12.15,15.7v-8.69c0-2.62,.03-6.67-3.69-6.67v-.34h8.05Z"/><path class="cls-6" d="M351.26,454.26v4.95h-.37c-.11-4.53-4.81-4.59-5.2-4.59h-1.66v16.71c0,1.86,.87,2.36,2.05,2.36v.37h-6.86v-.37c1.18,0,2.03-.51,2.03-2.36v-16.71h-1.66c-.87,0-5.06,.06-5.18,4.59h-.37v-4.95h17.22Z"/><path class="cls-6" d="M366.87,468.21v5.85h-14.15v-.37c1.18,0,1.52-1.01,1.52-2.93v-13.5c0-1.74-.28-2.64-1.52-2.64v-.37h13.78v5.06h-.37c-.34-4.64-5.2-4.7-7.48-4.7h-1.52v9.26h1.83c.76,0,3.74,0,3.88-2.84h.37v6.05h-.37c-.14-2.81-3.18-2.84-3.88-2.84h-1.83v9.45h1.29c2.5,0,7.48,.14,8.07-5.49h.37Z"/><path class="cls-6" d="M383.64,468.21v5.85h-14.15v-.37c1.18,0,1.52-1.01,1.52-2.93v-13.5c0-1.74-.28-2.64-1.52-2.64v-.37h13.78v5.06h-.37c-.34-4.64-5.2-4.7-7.48-4.7h-1.52v9.26h1.83c.76,0,3.74,0,3.88-2.84h.37v6.05h-.37c-.14-2.81-3.18-2.84-3.88-2.84h-1.83v9.45h1.29c2.5,0,7.48,.14,8.07-5.49h.37Z"/><path class="cls-6" d="M392.67,474.06h-6.05v-.37c1.21,0,1.91-1.07,1.91-2.98v-13.14c0-1.74-.68-2.95-1.91-2.95v-.37h6.05c5.6,0,11.17,1.72,11.17,9.96s-5.57,9.85-11.17,9.85Zm0-19.44h-1.24v19.07h1.24c3.04,0,7.79-.14,7.79-9.48s-4.7-9.59-7.79-9.59Z"/><path class="cls-6" d="M270.75,501.64v-1.91h8.86v1.91h-8.86Z"/><path class="cls-6" d="M293.82,503.78l-1.13,4.05h-10.18l6.22-9.34c5.65-8.52-4.61-11.08-5.74-5.35l-.42-.08c.31-5.43,5.23-5.29,5.23-5.29,2.81,0,4.84,2.14,4.84,4.7,0,1.86-1.21,3.46-3.4,6.41-1.35,1.83-4.44,6.5-4.44,6.5h6.05c.96,0,2-.48,2.62-1.6h.37Z"/><path class="cls-6" d="M303.38,508.08c-6.22,0-7.6-5.18-7.6-9.99s1.38-10.32,7.6-10.32,7.57,5.49,7.57,10.32-1.38,9.99-7.57,9.99Zm0-19.95c-2.53,0-4.56,2.03-4.56,9.96s2.08,9.62,4.56,9.62,4.53-1.72,4.53-9.62-2.11-9.96-4.53-9.96Z"/><path class="cls-6" d="M324.34,503.78l-1.13,4.05h-10.18l6.22-9.34c5.65-8.52-4.61-11.08-5.74-5.35l-.42-.08c.31-5.43,5.23-5.29,5.23-5.29,2.81,0,4.84,2.14,4.84,4.7,0,1.86-1.21,3.46-3.4,6.41-1.35,1.83-4.45,6.5-4.45,6.5h6.05c.96,0,2-.48,2.62-1.6h.37Z"/><path class="cls-6" d="M326.57,504.87c.31-.82,1.21-1.21,2-.9,.82,.31,1.21,1.21,.9,2.03-.17,.39-.42,.68-.79,.79-.2,.06,.62,.93,2.87,.93,2.87,0,4.22-1.83,3.97-5.04-.14-1.69-1.27-4.42-5.43-4.73v-.39c4.3-.73,5.15-5.09,2.7-7.15-1.77-1.55-5.26-.62-5.74,1.97l-.42-.06c.31-4.56,4.73-4.56,5.18-4.56,4.53,0,7.03,6.19,1.72,9.17,2.9,.82,4.47,2.95,4.53,4.98,.17,4.9-3.83,6.16-6.47,6.16-2.33,0-3.88-.76-4.73-1.6-.37-.37-.51-1.04-.28-1.6Z"/><path class="cls-6" d="M341.26,501.64v-1.91h8.86v1.91h-8.86Z"/></g></g></svg>