<?xml version="1.0" encoding="utf-8"?>
<!-- Generator: Adobe Illustrator 24.0.1, SVG Export Plug-In . SVG Version: 6.00 Build 0)  -->
<svg version="1.1" id="Calque_1" xmlns="http://www.w3.org/2000/svg" xmlns:xlink="http://www.w3.org/1999/xlink" x="0px" y="0px"
	 viewBox="0 0 36 40" style="enable-background:new 0 0 36 40;" xml:space="preserve">
<style type="text/css">
	.st0{fill:#170299;}
	.st1{fill:url(#SVGID_1_);}
	.st2{fill:#EAC654;}
	.st3{fill:#C8992E;}
	.st4{fill:#F9DF7B;}
	.st5{fill:#B57E10;}
</style>
<title>OZTG</title>
<path class="st0" d="M21,1.7l11.3,6.5c1.9,1.1,3,3,3,5.2v13.1c0,2.1-1.1,4.1-3,5.2L21,38.3c-1.9,1.1-4.1,1.1-6,0L3.7,31.7
	c-1.9-1.1-3-3-3-5.2V13.5c0-2.1,1.1-4.1,3-5.2L15,1.7C16.9,0.7,19.1,0.7,21,1.7z"/>
<linearGradient id="SVGID_1_" gradientUnits="userSpaceOnUse" x1="8.8872" y1="35.5346" x2="27.2399" y2="8.2767" gradientTransform="matrix(1 0 0 -1 0 42)">
	<stop  offset="0" style="stop-color:#FFFFFF;stop-opacity:0.5"/>
	<stop  offset="1" style="stop-color:#FFFFFF;stop-opacity:0"/>
</linearGradient>
<path class="st1" d="M21,1.7l11.3,6.5c1.9,1.1,3,3.1,3,5.2v13.1c0,2.1-1.1,4.1-3,5.2L21,38.3c-1.9,1.1-4.1,1.1-6,0L3.7,31.7
	c-1.9-1.1-3-3.1-3-5.2V13.5c0-2.1,1.1-4.1,3-5.2L15,1.7C16.9,0.7,19.1,0.7,21,1.7z"/>
<g>
	<polygon class="st2" points="7.2,16.6 10.3,19.1 10.4,15 	"/>
	<polygon class="st3" points="7.2,22 10.3,19.1 6,19.2 	"/>
	<polygon class="st4" points="10.4,20.4 10.3,19.1 7.2,22 	"/>
	<polygon class="st5" points="6,19.2 10.3,19.1 7.2,16.6 	"/>
	<polygon class="st3" points="12.2,22.5 11.8,21.1 10,23.1 	"/>
	<polygon class="st5" points="11.8,21.1 10.4,20.4 10,23.1 	"/>
	<polygon class="st2" points="10,23.1 10.4,20.4 7.2,22 	"/>
	<polygon class="st4" points="13.3,20.8 11.8,21.1 12.2,22.5 	"/>
	<polygon class="st5" points="13.5,18.3 13.6,15.4 11.6,18.1 	"/>
	<polygon class="st2" points="16.2,17.4 13.6,15.4 13.5,18.3 	"/>
	<polygon class="st3" points="13.6,15.4 10.4,15 11.6,18.1 	"/>
	<polygon class="st2" points="17.8,21.2 17.5,19.7 15.7,21.2 	"/>
	<polygon class="st4" points="10.4,15 10.3,19.1 11.6,18.1 	"/>
	<polygon class="st5" points="15.7,21.2 17.5,19.7 15.4,19.7 	"/>
	<polygon class="st3" points="17.5,19.7 16.2,17.4 15.4,19.7 	"/>
	<polygon class="st4" points="15.4,19.7 16.2,17.4 13.5,18.3 	"/>
	<polygon class="st4" points="15.7,21.2 17,22.3 17.8,21.2 	"/>
	<polygon class="st3" points="17,22.3 17.8,23.6 17.8,21.2 	"/>
	<polygon class="st2" points="18,32.8 18,29.3 15.4,28.3 	"/>
	<polygon class="st4" points="15.4,28.3 18,29.3 18,25.1 	"/>
	<polygon class="st5" points="18,32.8 18,29.3 20.6,28.3 	"/>
	<polygon class="st3" points="20.6,28.3 18,29.3 18,25.1 	"/>
	<polygon class="st2" points="11.9,24.9 13.7,24.4 12.9,26.2 	"/>
	<polygon class="st3" points="12.9,22.6 13.7,24.4 11.9,23.5 	"/>
	<polygon class="st4" points="14,23.9 13.7,24.4 12.9,22.6 	"/>
	<polygon class="st5" points="11.9,23.5 13.7,24.4 11.9,24.9 	"/>
	<polygon class="st3" points="15.2,23.3 14.7,23.9 14.4,22.6 	"/>
	<polygon class="st5" points="14.7,23.9 14,23.9 14.4,22.6 	"/>
	<polygon class="st2" points="14.4,22.6 14,23.9 12.9,22.6 	"/>
	<polygon class="st4" points="15.3,24.2 14.7,23.9 15.2,23.3 	"/>
	<polygon class="st5" points="14.9,25.4 14.4,26.6 14.1,25.1 	"/>
	<polygon class="st2" points="15.9,26.3 14.4,26.6 14.9,25.4 	"/>
	<polygon class="st3" points="14.4,26.6 12.9,26.2 14.1,25.1 	"/>
	<polygon class="st2" points="17.4,25 16.9,25.5 16.5,24.6 	"/>
	<polygon class="st4" points="12.9,26.2 13.7,24.4 14.1,25.1 	"/>
	<polygon class="st5" points="16.5,24.6 16.9,25.5 16,25.1 	"/>
	<polygon class="st3" points="16.9,25.5 15.9,26.3 16,25.1 	"/>
	<polygon class="st4" points="16,25.1 15.9,26.3 14.9,25.4 	"/>
	<polygon class="st4" points="16.5,24.6 17.2,24.3 17.4,25 	"/>
	<polygon class="st3" points="17.2,24.3 17.8,23.9 17.4,25 	"/>
	<polygon class="st2" points="24.1,24.9 22.3,24.4 23,26.2 	"/>
	<polygon class="st3" points="23.1,22.6 22.3,24.4 24.1,23.5 	"/>
	<polygon class="st4" points="22,23.9 22.3,24.4 23.1,22.6 	"/>
	<polygon class="st5" points="24.1,23.5 22.3,24.4 24.1,24.9 	"/>
	<polygon class="st3" points="20.8,23.3 21.3,23.9 21.6,22.6 	"/>
	<polygon class="st5" points="21.3,23.9 22,23.9 21.6,22.6 	"/>
	<polygon class="st2" points="21.6,22.6 22,23.9 23.1,22.6 	"/>
	<polygon class="st4" points="20.7,24.2 21.3,23.9 20.8,23.3 	"/>
	<polygon class="st5" points="21.1,25.4 21.6,26.6 21.9,25.1 	"/>
	<polygon class="st2" points="20.1,26.3 21.6,26.6 21.1,25.4 	"/>
	<polygon class="st3" points="21.6,26.6 23,26.2 21.9,25.1 	"/>
	<polygon class="st2" points="18.6,25 19.1,25.5 19.5,24.6 	"/>
	<polygon class="st4" points="23,26.2 22.3,24.4 21.9,25.1 	"/>
	<polygon class="st5" points="19.5,24.6 19.1,25.5 20,25.1 	"/>
	<polygon class="st3" points="19.1,25.5 20.1,26.3 20,25.1 	"/>
	<polygon class="st4" points="20,25.1 20.1,26.3 21.1,25.4 	"/>
	<polygon class="st4" points="19.5,24.6 18.8,24.3 18.6,25 	"/>
	<polygon class="st3" points="18.8,24.3 18.2,23.9 18.6,25 	"/>
	<polygon class="st2" points="28.8,16.6 25.7,19.1 25.6,15 	"/>
	<polygon class="st3" points="28.9,22 25.7,19.1 30,19.2 	"/>
	<polygon class="st4" points="25.5,20.4 25.7,19.1 28.9,22 	"/>
	<polygon class="st5" points="30,19.2 25.7,19.1 28.8,16.6 	"/>
	<polygon class="st3" points="23.8,22.5 24.2,21.1 26,23.1 	"/>
	<polygon class="st5" points="24.2,21.1 25.5,20.4 26,23.1 	"/>
	<polygon class="st2" points="26,23.1 25.5,20.4 28.9,22 	"/>
	<polygon class="st4" points="22.7,20.8 24.2,21.1 23.8,22.5 	"/>
	<polygon class="st5" points="22.5,18.3 22.4,15.4 24.4,18.1 	"/>
	<polygon class="st2" points="19.8,17.4 22.4,15.4 22.5,18.3 	"/>
	<polygon class="st3" points="22.4,15.4 25.6,15 24.4,18.1 	"/>
	<polygon class="st2" points="18.2,21.2 18.5,19.7 20.2,21.2 	"/>
	<polygon class="st4" points="25.6,15 25.7,19.1 24.4,18.1 	"/>
	<polygon class="st5" points="20.2,21.2 18.5,19.7 20.6,19.7 	"/>
	<polygon class="st3" points="18.5,19.7 19.8,17.4 20.6,19.7 	"/>
	<polygon class="st4" points="20.6,19.7 19.8,17.4 22.5,18.3 	"/>
	<polygon class="st4" points="20.2,21.2 19,22.3 18.2,21.2 	"/>
	<polygon class="st3" points="19,22.3 18.2,23.6 18.2,21.2 	"/>
	<polygon class="st5" points="14.2,9.3 18,19.8 18,10.5 	"/>
	<polygon class="st2" points="21.8,9.3 18,19.8 18,10.5 	"/>
	<path class="st3" d="M14.2,9.3L14.2,9.3l3.8,1.2V7.2C16.4,7.1,15,8,14.2,9.3z"/>
	<path class="st4" d="M18,7.2v3.3l3.8-1.2l0,0C21,8,19.6,7.1,18,7.2z"/>
</g>
</svg>
