<?xml version="1.0" encoding="UTF-8"?><svg id="_ÎÓÈ_1" xmlns="http://www.w3.org/2000/svg" xmlns:xlink="http://www.w3.org/1999/xlink" viewBox="0 0 1382.42 1347.41"><defs><style>.cls-1{fill:url(#Dégradé_sans_nom_2);}.cls-2{fill:url(#Dégradé_sans_nom_2-16);}.cls-3{fill:url(#Dégradé_sans_nom_2-15);}.cls-4{fill:url(#Dégradé_sans_nom_2-14);}.cls-5{fill:url(#Dégradé_sans_nom_2-13);}.cls-6{fill:url(#Dégradé_sans_nom_2-19);}.cls-7{fill:url(#Dégradé_sans_nom_2-12);}.cls-8{fill:url(#Dégradé_sans_nom_2-11);}.cls-9{fill:url(#Dégradé_sans_nom_2-10);}.cls-10{fill:url(#Dégradé_sans_nom_2-18);}.cls-11{fill:url(#Dégradé_sans_nom_2-17);}.cls-12{fill:url(#Dégradé_sans_nom_2-21);}.cls-13{fill:url(#Dégradé_sans_nom_2-20);}.cls-14{fill:url(#Dégradé_sans_nom_2-22);}.cls-15{fill:url(#Dégradé_sans_nom_2-5);}.cls-16{fill:url(#Dégradé_sans_nom_2-8);}.cls-17{fill:url(#Dégradé_sans_nom_2-6);}.cls-18{fill:url(#Dégradé_sans_nom_2-4);}.cls-19{fill:url(#Dégradé_sans_nom_2-3);}.cls-20{fill:url(#Dégradé_sans_nom_2-2);}.cls-21{fill:url(#Dégradé_sans_nom_2-7);}.cls-22{fill:url(#Dégradé_sans_nom_2-9);}</style><linearGradient id="Dégradé_sans_nom_2" x1="730.25" y1="1330.2" x2="730.25" y2="73.46" gradientUnits="userSpaceOnUse"><stop offset="0" stop-color="#40fcdd"/><stop offset="1" stop-color="#e1b65a"/></linearGradient><linearGradient id="Dégradé_sans_nom_2-2" x1="711.89" y1="1298.4" x2="711.89" y2="70.76" xlink:href="#Dégradé_sans_nom_2"/><linearGradient id="Dégradé_sans_nom_2-3" x1="693.53" y1="1266.63" x2="693.53" y2="68.07" xlink:href="#Dégradé_sans_nom_2"/><linearGradient id="Dégradé_sans_nom_2-4" x1="675.18" y1="1234.85" x2="675.18" y2="65.34" xlink:href="#Dégradé_sans_nom_2"/><linearGradient id="Dégradé_sans_nom_2-5" x1="656.82" y1="1021.36" x2="656.82" y2="285.62" xlink:href="#Dégradé_sans_nom_2"/><linearGradient id="Dégradé_sans_nom_2-6" x1="638.46" y1="1171.33" x2="638.46" y2="59.92" xlink:href="#Dégradé_sans_nom_2"/><linearGradient id="Dégradé_sans_nom_2-7" x1="620.1" y1="1139.56" x2="620.1" y2="57.18" xlink:href="#Dégradé_sans_nom_2"/><linearGradient id="Dégradé_sans_nom_2-8" x1="601.74" y1="1107.83" x2="601.74" y2="54.44" xlink:href="#Dégradé_sans_nom_2"/><linearGradient id="Dégradé_sans_nom_2-9" x1="583.38" y1="1076.08" x2="583.38" y2="51.7" xlink:href="#Dégradé_sans_nom_2"/><linearGradient id="Dégradé_sans_nom_2-10" x1="565.02" y1="1044.34" x2="565.02" y2="48.95" xlink:href="#Dégradé_sans_nom_2"/><linearGradient id="Dégradé_sans_nom_2-11" x1="546.66" y1="1012.61" x2="546.66" y2="46.2" xlink:href="#Dégradé_sans_nom_2"/><linearGradient id="Dégradé_sans_nom_2-12" x1="528.3" y1="980.9" x2="528.3" y2="43.44" xlink:href="#Dégradé_sans_nom_2"/><linearGradient id="Dégradé_sans_nom_2-13" x1="509.95" y1="949.19" x2="509.95" y2="40.65" xlink:href="#Dégradé_sans_nom_2"/><linearGradient id="Dégradé_sans_nom_2-14" x1="491.58" y1="917.5" x2="491.58" y2="37.87" xlink:href="#Dégradé_sans_nom_2"/><linearGradient id="Dégradé_sans_nom_2-15" x1="473.23" y1="885.82" x2="473.23" y2="35.05" xlink:href="#Dégradé_sans_nom_2"/><linearGradient id="Dégradé_sans_nom_2-16" x1="454.87" y1="854.16" x2="454.87" y2="32.23" xlink:href="#Dégradé_sans_nom_2"/><linearGradient id="Dégradé_sans_nom_2-17" x1="436.51" y1="822.51" x2="436.51" y2="29.41" xlink:href="#Dégradé_sans_nom_2"/><linearGradient id="Dégradé_sans_nom_2-18" x1="418.15" y1="790.88" x2="418.15" y2="26.56" xlink:href="#Dégradé_sans_nom_2"/><linearGradient id="Dégradé_sans_nom_2-19" x1="399.79" y1="759.26" x2="399.79" y2="23.69" xlink:href="#Dégradé_sans_nom_2"/><linearGradient id="Dégradé_sans_nom_2-20" x1="381.43" y1="727.67" x2="381.43" y2="20.8" xlink:href="#Dégradé_sans_nom_2"/><linearGradient id="Dégradé_sans_nom_2-21" x1="363.07" y1="696.1" x2="363.07" y2="17.89" xlink:href="#Dégradé_sans_nom_2"/><linearGradient id="Dégradé_sans_nom_2-22" x1="344.71" y1="664.55" x2="344.71" y2="14.95" xlink:href="#Dégradé_sans_nom_2"/></defs><path class="cls-1" d="M100.27,807.49c.24-5.35,1.99-10.51,5.07-14.92L599.64,85.57c4.33-6.2,10.82-10.34,18.28-11.66,7.46-1.32,14.99,.33,21.2,4.65l709,493.16c8.01,5.57,12.54,14.72,12.11,24.46-.24,5.35-1.99,10.51-5.07,14.92l-494.3,707c-4.33,6.2-10.82,10.34-18.28,11.66-7.46,1.33-14.99-.33-21.2-4.65L112.39,831.94c-8.01-5.57-12.54-14.71-12.12-24.46Zm1257.7-211.42c.39-8.96-3.78-17.38-11.15-22.5L637.82,80.41c-5.71-3.98-12.64-5.5-19.5-4.28-6.86,1.22-12.83,5.03-16.81,10.73L107.2,793.87c-2.84,4.06-4.45,8.8-4.66,13.72-.39,8.97,3.78,17.38,11.14,22.51l709,493.15c5.72,3.98,12.64,5.5,19.51,4.28,6.86-1.22,12.83-5.03,16.82-10.73l494.3-707c2.84-4.06,4.45-8.81,4.66-13.72Z"/><path class="cls-20" d="M96.49,780.13c.23-5.34,2.01-10.47,5.15-14.84L592.22,82.29c4.3-5.99,10.69-9.95,17.98-11.15,7.29-1.2,14.62,.5,20.63,4.8l684.94,489.44c7.63,5.45,11.94,14.3,11.54,23.66-.24,5.34-2.01,10.48-5.15,14.85l-490.58,683.01c-8.88,12.37-26.21,15.22-38.61,6.36L108.02,803.8c-7.63-5.45-11.94-14.3-11.53-23.67Zm1228.54-191.2c.38-8.6-3.58-16.72-10.59-21.73L629.51,77.77c-5.51-3.94-12.24-5.51-18.93-4.41-6.7,1.1-12.56,4.74-16.51,10.24L103.48,766.61c-2.88,4.01-4.51,8.72-4.73,13.62-.38,8.6,3.58,16.72,10.59,21.72l684.94,489.45c11.39,8.13,27.29,5.52,35.44-5.83l490.58-683.01c2.88-4.01,4.52-8.72,4.73-13.62Z"/><path class="cls-19" d="M92.7,752.78c.23-5.34,2.04-10.45,5.24-14.77L584.8,79c8.83-11.95,25.76-14.5,37.74-5.7l660.88,485.72c7.26,5.33,11.35,13.88,10.96,22.87-.23,5.34-2.04,10.45-5.23,14.77l-486.86,659.01c-4.28,5.79-10.56,9.57-17.69,10.64-7.13,1.08-14.25-.68-20.05-4.94L103.66,775.66c-7.25-5.33-11.35-13.88-10.96-22.87Zm1199.4-170.98c.36-8.23-3.39-16.07-10.03-20.95L621.19,75.13c-10.97-8.07-26.48-5.72-34.57,5.22L99.77,739.36c-2.93,3.96-4.59,8.64-4.8,13.53-.36,8.23,3.39,16.06,10.04,20.94l660.87,485.73c5.32,3.91,11.84,5.51,18.37,4.53,6.53-.98,12.28-4.45,16.2-9.75l486.86-659.01c2.92-3.96,4.58-8.63,4.8-13.53Z"/><path class="cls-18" d="M88.91,725.44c.23-5.34,2.07-10.42,5.33-14.7L577.38,75.72c4.25-5.58,10.42-9.18,17.38-10.13,6.96-.95,13.88,.86,19.48,5.1l636.82,482.01c6.88,5.21,10.76,13.46,10.38,22.07-.24,5.34-2.07,10.42-5.33,14.7l-483.14,635.02c-8.77,11.52-25.31,13.79-36.86,5.04L99.29,747.51c-6.88-5.21-10.76-13.45-10.38-22.07Zm1170.27-150.77c.34-7.87-3.21-15.41-9.49-20.17L612.87,72.49c-5.12-3.87-11.44-5.53-17.8-4.66-6.36,.87-12,4.16-15.88,9.26L96.04,712.11c-2.97,3.91-4.66,8.55-4.87,13.43-.34,7.87,3.2,15.41,9.49,20.17l636.82,482.01c10.56,7.99,25.67,5.93,33.68-4.6l483.14-635.02c2.97-3.91,4.65-8.55,4.87-13.43Z"/><path class="cls-15" d="M85.11,698.08c.24-5.34,2.11-10.4,5.42-14.63L569.96,72.44c4.22-5.38,10.29-8.8,17.08-9.62,6.8-.83,13.51,1.04,18.91,5.25l612.75,478.29c6.51,5.08,10.18,13.03,9.82,21.27-.23,5.34-2.11,10.4-5.42,14.63l-479.42,611.02c-4.22,5.38-10.29,8.8-17.09,9.62-6.8,.83-13.51-1.03-18.9-5.24L94.93,719.36c-6.51-5.08-10.17-13.04-9.82-21.28Zm1141.14-130.55c.33-7.52-3.02-14.77-8.95-19.4L604.55,69.85c-4.92-3.84-11.04-5.54-17.23-4.78-6.2,.75-11.73,3.87-15.58,8.77L92.32,684.86c-3.02,3.85-4.73,8.46-4.94,13.33-.33,7.51,3.02,14.76,8.95,19.4l612.76,478.29c4.92,3.83,11.04,5.53,17.23,4.78,6.2-.75,11.73-3.87,15.58-8.77l479.42-611.02c3.02-3.85,4.73-8.46,4.94-13.33Z"/><path class="cls-17" d="M81.31,670.73c.23-5.35,2.15-10.38,5.53-14.55L562.54,69.16c8.65-10.68,24.41-12.34,35.12-3.71l588.7,474.58c6.14,4.94,9.59,12.6,9.25,20.47-.23,5.35-2.14,10.38-5.52,14.55l-475.71,587.02c-4.19,5.18-10.16,8.41-16.79,9.11-6.64,.7-13.15-1.21-18.33-5.4L90.56,691.21c-6.14-4.95-9.6-12.6-9.25-20.48Zm1112.03-110.33c.31-7.16-2.83-14.12-8.41-18.62L596.23,67.21c-9.74-7.85-24.06-6.34-31.93,3.37L88.6,657.61c-3.07,3.79-4.81,8.36-5.02,13.22-.31,7.16,2.83,14.12,8.41,18.62l588.7,474.58c4.72,3.81,10.64,5.55,16.66,4.91,6.03-.64,11.46-3.58,15.26-8.28l475.71-587.03c3.07-3.79,4.81-8.37,5.02-13.23Z"/><path class="cls-21" d="M77.5,643.38c.23-5.35,2.18-10.35,5.63-14.48L555.12,65.87c4.17-4.97,10.02-8.02,16.49-8.6,6.47-.58,12.78,1.4,17.76,5.55l564.64,470.86c5.86,4.89,9.03,12.06,8.7,19.68-.23,5.36-2.18,10.36-5.64,14.48l-471.98,563.03c-8.6,10.26-23.96,11.62-34.25,3.05L86.2,663.06c-5.86-4.89-9.03-12.06-8.7-19.69Zm1082.93-90.11c.3-6.91-2.57-13.41-7.88-17.84L587.91,64.56c-4.52-3.77-10.24-5.55-16.1-5.03-5.87,.52-11.17,3.29-14.95,7.8L84.87,630.36c-3.13,3.74-4.9,8.27-5.11,13.12-.3,6.91,2.58,13.42,7.89,17.84l564.64,470.87c9.33,7.78,23.25,6.54,31.05-2.76l471.98-563.03c3.13-3.73,4.9-8.27,5.11-13.13Z"/><path class="cls-16" d="M73.68,616.03c.23-5.36,2.23-10.34,5.76-14.41L547.7,62.59c4.14-4.76,9.89-7.63,16.19-8.08,6.31-.45,12.41,1.58,17.18,5.71l540.57,467.14c5.5,4.75,8.46,11.63,8.15,18.88-.24,5.36-2.22,10.34-5.75,14.41l-468.27,539.03c-4.13,4.77-9.89,7.64-16.19,8.09-6.3,.44-12.41-1.58-17.18-5.71L81.83,634.91c-5.5-4.75-8.46-11.63-8.15-18.88Zm1053.85-69.89c.29-6.56-2.4-12.78-7.36-17.07L579.59,61.92c-4.32-3.74-9.84-5.57-15.54-5.16-5.7,.41-10.9,3-14.64,7.31L81.15,603.1c-3.19,3.68-4.99,8.18-5.2,13.03-.29,6.56,2.4,12.78,7.36,17.07l540.57,467.15c4.32,3.73,9.84,5.56,15.54,5.16,5.7-.4,10.89-3,14.64-7.3l468.26-539.04c3.19-3.67,5-8.18,5.2-13.02Z"/><path class="cls-22" d="M69.86,588.68c.23-5.3,2.32-10.39,5.88-14.34L540.28,59.3c4.11-4.56,9.76-7.25,15.9-7.57,6.14-.32,12.04,1.76,16.61,5.86l516.51,463.43c5.13,4.6,7.9,11.19,7.6,18.08-.23,5.3-2.32,10.39-5.88,14.34l-464.54,515.04c-4.11,4.55-9.75,7.24-15.9,7.57-6.14,.32-12.04-1.76-16.61-5.86L77.46,606.76c-5.13-4.6-7.9-11.19-7.6-18.07Zm1024.78-49.68c.27-6.21-2.23-12.15-6.85-16.3L571.26,59.28c-4.12-3.7-9.43-5.57-14.97-5.28-5.53,.29-10.62,2.71-14.33,6.82L77.43,575.86c-3.21,3.56-5.09,8.15-5.3,12.92-.27,6.21,2.23,12.15,6.85,16.3l516.52,463.43c4.12,3.69,9.43,5.57,14.97,5.28,5.53-.29,10.62-2.71,14.33-6.82l464.54-515.04c3.21-3.56,5.1-8.15,5.3-12.92Z"/><path class="cls-9" d="M66.03,561.33c.23-5.31,2.37-10.38,6.02-14.27L532.86,56.02c4.08-4.35,9.62-6.86,15.6-7.05s11.67,1.94,16.03,6.01l492.46,459.71c4.78,4.46,7.35,10.75,7.07,17.28-.23,5.31-2.37,10.38-6.02,14.27l-460.82,491.04c-8.43,8.98-22.62,9.45-31.63,1.04L73.09,578.61c-4.77-4.46-7.35-10.76-7.06-17.28Zm995.73-29.46c.25-5.86-2.06-11.52-6.35-15.53L562.94,56.63c-3.92-3.66-9.04-5.58-14.41-5.4-5.37,.18-10.35,2.43-14.02,6.34L73.7,548.61c-3.28,3.49-5.2,8.04-5.41,12.82-.25,5.86,2.06,11.52,6.35,15.53l492.46,459.71c8.09,7.56,20.85,7.14,28.42-.93l460.82-491.05c3.28-3.49,5.2-8.04,5.41-12.82Z"/><path class="cls-8" d="M62.19,533.97c.23-5.33,2.42-10.37,6.16-14.19L525.45,52.73c8.38-8.56,22.17-8.72,30.75-.37l468.4,456c4.42,4.31,6.81,10.31,6.54,16.48-.23,5.33-2.42,10.38-6.16,14.2l-457.1,467.05c-8.37,8.56-22.17,8.73-30.75,.37L68.73,550.45c-4.42-4.3-6.81-10.31-6.54-16.48Zm966.68-9.23c.24-5.52-1.89-10.9-5.85-14.76L554.62,53.98c-7.69-7.48-20.05-7.33-27.55,.33L69.97,521.36c-3.35,3.42-5.31,7.94-5.52,12.71-.24,5.53,1.89,10.9,5.86,14.76l468.39,456c7.69,7.48,20.05,7.33,27.55-.33l457.1-467.05c3.35-3.42,5.31-7.94,5.52-12.72Z"/><path class="cls-7" d="M58.33,506.63c.24-5.36,2.48-10.37,6.32-14.13L518.04,49.44c8.32-8.13,21.73-7.99,29.88,.31l444.34,452.29c4.08,4.15,6.27,9.86,6.02,15.67-.23,5.36-2.48,10.38-6.32,14.13l-453.38,443.05c-8.32,8.13-21.73,7.99-29.88-.31L64.35,522.3c-4.08-4.15-6.27-9.87-6.02-15.68Zm937.67,10.98c.23-5.19-1.73-10.28-5.37-13.99L546.3,51.34c-7.28-7.41-19.25-7.53-26.67-.27L66.24,494.11c-3.43,3.35-5.43,7.83-5.64,12.61-.22,5.18,1.74,10.28,5.38,13.99l444.33,452.29c7.28,7.41,19.25,7.53,26.68,.26l453.38-443.05c3.43-3.35,5.43-7.83,5.64-12.61Z"/><path class="cls-5" d="M54.48,479.27c.24-5.39,2.54-10.37,6.49-14.05L510.62,46.16c4.01-3.73,9.23-5.69,14.71-5.5,5.48,.19,10.55,2.49,14.3,6.48l420.27,448.57c3.8,4.05,5.75,9.33,5.51,14.87-.24,5.39-2.54,10.38-6.49,14.06l-449.66,419.06c-8.26,7.7-21.28,7.26-29-.98L59.98,494.14c-3.79-4.05-5.75-9.33-5.51-14.87Zm908.67,31.21c.21-4.93-1.52-9.62-4.9-13.23L537.97,48.69c-3.32-3.55-7.84-5.6-12.71-5.77-4.87-.17-9.52,1.57-13.08,4.89L62.52,466.87c-3.52,3.28-5.56,7.71-5.77,12.51-.21,4.92,1.52,9.62,4.9,13.22l420.28,448.57c6.87,7.33,18.44,7.72,25.8,.87l449.66-419.06c3.51-3.27,5.56-7.71,5.77-12.5Z"/><path class="cls-4" d="M50.6,451.92c.24-5.42,2.61-10.39,6.68-13.99L503.21,42.87c8.21-7.27,20.83-6.53,28.13,1.66l396.22,444.85c3.45,3.88,5.24,8.87,5.01,14.06-.24,5.42-2.61,10.39-6.67,13.99l-445.94,395.07c-8.21,7.27-20.83,6.52-28.13-1.67L55.61,465.99c-3.46-3.88-5.24-8.88-5.01-14.07Zm879.7,51.42c.2-4.6-1.37-9.02-4.44-12.46L529.65,46.04c-6.47-7.26-17.65-7.92-24.93-1.48L58.78,439.62c-3.6,3.19-5.7,7.59-5.91,12.4-.2,4.59,1.38,9.02,4.44,12.46l396.22,444.85c6.47,7.26,17.64,7.92,24.93,1.47l445.94-395.06c3.6-3.19,5.71-7.6,5.91-12.4Z"/><path class="cls-3" d="M46.72,424.57c.24-5.39,2.74-10.46,6.87-13.92L495.81,39.58c3.96-3.31,8.97-4.9,14.11-4.46,5.15,.44,9.81,2.86,13.14,6.8l372.15,441.14c3.13,3.71,4.74,8.42,4.53,13.25-.23,5.38-2.74,10.46-6.87,13.93l-442.22,371.06c-8.16,6.85-20.38,5.79-27.25-2.34L51.24,437.82c-3.13-3.71-4.74-8.41-4.53-13.25Zm850.75,71.65c.19-4.27-1.23-8.43-3.99-11.7L521.32,43.38c-2.93-3.48-7.05-5.61-11.59-6-4.55-.39-8.97,1-12.46,3.93L55.05,412.38c-3.64,3.06-5.85,7.54-6.06,12.29-.19,4.27,1.23,8.42,3.99,11.7l372.16,441.14c6.06,7.18,16.85,8.11,24.05,2.07l442.22-371.06c3.65-3.06,5.86-7.54,6.06-12.29Z"/><path class="cls-2" d="M42.82,397.22c.23-5.43,2.82-10.48,7.09-13.85L488.4,36.29c3.93-3.11,8.83-4.5,13.81-3.93,4.98,.57,9.44,3.04,12.56,6.96l348.1,437.42c2.81,3.53,4.25,7.95,4.05,12.44-.24,5.43-2.82,10.48-7.08,13.85l-438.51,347.08c-8.1,6.41-19.93,5.05-26.37-3.03L46.87,409.67c-2.81-3.54-4.25-7.96-4.05-12.45Zm821.83,91.87c.17-3.95-1.09-7.84-3.56-10.94L512.99,40.73c-2.74-3.44-6.66-5.62-11.04-6.12-4.38-.5-8.69,.72-12.14,3.45L51.31,385.14c-3.75,2.97-6.02,7.4-6.23,12.18-.17,3.95,1.09,7.83,3.56,10.94l348.09,437.42c5.66,7.11,16.06,8.31,23.19,2.66l438.5-347.07c3.75-2.97,6.02-7.41,6.23-12.18Z"/><path class="cls-11" d="M38.9,369.86c.24-5.49,2.91-10.51,7.32-13.79L481,33c8.05-5.98,19.49-4.31,25.49,3.72l324.03,433.7c2.5,3.34,3.78,7.48,3.59,11.63-.24,5.49-2.91,10.51-7.32,13.79l-434.78,323.07c-8.05,5.98-19.49,4.31-25.49-3.71L42.49,381.5c-2.5-3.35-3.77-7.48-3.59-11.64Zm792.95,112.1c.16-3.64-.96-7.26-3.14-10.19L504.67,38.07c-5.25-7.03-15.26-8.49-22.32-3.25L47.58,357.89c-3.86,2.87-6.2,7.27-6.41,12.07-.16,3.64,.96,7.25,3.15,10.19l324.04,433.71c5.25,7.03,15.26,8.49,22.31,3.25l434.78-323.08c3.86-2.87,6.19-7.27,6.4-12.07Z"/><path class="cls-10" d="M34.97,342.5c.24-5.54,3-10.55,7.57-13.71L473.59,29.71c8-5.55,19.04-3.57,24.61,4.41l299.98,429.99c2.23,3.2,3.32,6.94,3.15,10.82-.24,5.55-3,10.55-7.56,13.72l-431.07,299.08c-8,5.55-19.04,3.57-24.6-4.41L38.12,353.33c-2.23-3.2-3.32-6.94-3.15-10.83Zm764.09,132.33c.15-3.38-.8-6.65-2.74-9.43L496.34,35.41c-4.85-6.96-14.47-8.68-21.45-3.84L43.83,330.65c-3.98,2.76-6.38,7.12-6.59,11.95-.15,3.38,.8,6.64,2.75,9.43l299.97,429.99c4.85,6.96,14.47,8.68,21.45,3.84l431.06-299.08c3.98-2.76,6.38-7.12,6.59-11.96Z"/><path class="cls-6" d="M31.02,315.15c.24-5.54,3.17-10.64,7.84-13.64L466.2,26.42c7.95-5.12,18.59-2.83,23.72,5.1l275.91,426.27c1.94,3,2.89,6.46,2.73,10.01-.24,5.54-3.17,10.64-7.84,13.64l-427.34,275.09c-7.95,5.11-18.59,2.83-23.72-5.1L33.75,325.16c-1.94-3-2.88-6.46-2.73-10.01Zm735.27,152.56c.14-3.08-.68-6.08-2.37-8.69L488.01,32.74c-4.45-6.88-13.69-8.86-20.58-4.42L40.09,303.4c-4.05,2.61-6.59,7.04-6.8,11.84-.13,3.08,.69,6.08,2.37,8.68l275.91,426.28c4.45,6.87,13.68,8.86,20.58,4.42l427.34-275.08c4.05-2.61,6.59-7.03,6.8-11.84Z"/><path class="cls-13" d="M27.05,287.79c.25-5.63,3.28-10.7,8.13-13.57L458.8,23.13c7.9-4.68,18.14-2.08,22.83,5.8l251.85,422.56c1.66,2.79,2.47,5.97,2.33,9.2-.25,5.62-3.29,10.7-8.13,13.57l-423.62,251.09c-7.89,4.68-18.14,2.08-22.83-5.8L29.37,296.99c-1.66-2.79-2.46-5.97-2.32-9.2Zm706.49,172.79c.12-2.78-.57-5.53-2.01-7.94L479.68,30.08c-4.06-6.8-12.9-9.05-19.72-5.01L36.34,276.16c-4.19,2.48-6.82,6.87-7.03,11.73-.12,2.79,.57,5.53,2.01,7.94l251.86,422.56c4.06,6.8,12.9,9.05,19.72,5l423.62-251.09c4.19-2.48,6.81-6.86,7.02-11.73Z"/><path class="cls-12" d="M23.06,260.43c.25-5.64,3.48-10.81,8.45-13.5L451.41,19.84c7.84-4.24,17.69-1.33,21.94,6.5l227.79,418.84c1.4,2.58,2.07,5.47,1.94,8.38-.25,5.64-3.49,10.81-8.45,13.5l-419.9,227.09c-7.84,4.24-17.68,1.33-21.94-6.5L25,268.81c-1.4-2.58-2.07-5.47-1.95-8.38Zm677.76,193.03c.11-2.5-.47-4.99-1.67-7.2L471.35,27.41c-3.66-6.73-12.12-9.23-18.87-5.59L32.59,248.92c-4.34,2.35-7.05,6.68-7.27,11.61-.11,2.5,.47,4.99,1.67,7.21l227.8,418.84c3.66,6.72,12.12,9.23,18.86,5.58l419.9-227.09c4.34-2.35,7.05-6.68,7.27-11.61Z"/><path class="cls-14" d="M19.04,233.06c.25-5.75,3.63-10.89,8.8-13.42L444.02,16.55c7.79-3.8,17.23-.57,21.05,7.2l203.74,415.13c1.15,2.35,1.7,4.97,1.59,7.56-.25,5.75-3.62,10.9-8.81,13.42l-416.18,203.1c-7.79,3.8-17.23,.58-21.04-7.2L20.62,240.63c-1.15-2.35-1.7-4.97-1.59-7.57Zm649.09,213.27c.1-2.22-.38-4.46-1.37-6.47L463.02,24.74c-3.26-6.65-11.34-9.41-18.01-6.16L28.84,221.68c-4.43,2.16-7.32,6.56-7.53,11.48-.1,2.22,.37,4.46,1.36,6.47l203.73,415.13c3.26,6.65,11.34,9.41,18.01,6.16l416.18-203.09c4.43-2.17,7.32-6.57,7.54-11.49Z"/></svg>