<?xml version="1.0" encoding="UTF-8"?><svg id="Calque_1" xmlns="http://www.w3.org/2000/svg" xmlns:xlink="http://www.w3.org/1999/xlink" viewBox="0 0 3530.96 2410.85"><defs><style>.cls-1{mask:url(#mask-13);}.cls-2{mask:url(#mask-12);}.cls-3{mask:url(#mask-11);}.cls-4{mask:url(#mask-10);}.cls-5{filter:url(#luminosity-noclip-6);}.cls-6{filter:url(#luminosity-noclip-8);}.cls-7{filter:url(#luminosity-noclip-4);}.cls-8{fill:url(#_É_πÌÚ_·ÂÁ_Ì_Á_Ë_115);}.cls-8,.cls-9,.cls-10,.cls-11,.cls-12,.cls-13,.cls-14{mix-blend-mode:multiply;}.cls-15{mask:url(#mask);}.cls-16{filter:url(#luminosity-noclip-2);}.cls-17{fill:#f9df7b;}.cls-18{fill:#eac654;}.cls-19{fill:#fff;}.cls-20{fill:#b57e10;}.cls-21{fill:#a829ff;}.cls-22{fill:#c8992e;}.cls-23{fill:#170299;}.cls-24{filter:url(#luminosity-noclip-14);}.cls-25{filter:url(#luminosity-noclip-10);}.cls-26{filter:url(#luminosity-noclip-12);}.cls-27{fill:url(#Dégradé_sans_nom_28);}.cls-28{fill:url(#Dégradé_sans_nom_22);}.cls-9{fill:url(#_É_πÌÚ_·ÂÁ_Ì_Á_Ë_115-3);}.cls-10{fill:url(#_É_πÌÚ_·ÂÁ_Ì_Á_Ë_115-2);}.cls-11{fill:url(#_É_πÌÚ_·ÂÁ_Ì_Á_Ë_115-4);}.cls-12{fill:url(#_É_πÌÚ_·ÂÁ_Ì_Á_Ë_115-7);}.cls-13{fill:url(#_É_πÌÚ_·ÂÁ_Ì_Á_Ë_115-5);}.cls-14{fill:url(#_É_πÌÚ_·ÂÁ_Ì_Á_Ë_115-6);}.cls-29{fill:url(#Dégradé_sans_nom_22-2);}.cls-30{fill:url(#_É_πÌÚ_·ÂÁ_Ì_Á_Ë_3);}.cls-31{fill:url(#_É_πÌÚ_·ÂÁ_Ì_Á_Ë_3-3);}.cls-32{fill:url(#_É_πÌÚ_·ÂÁ_Ì_Á_Ë_3-2);}.cls-33{fill:url(#_É_πÌÚ_·ÂÁ_Ì_Á_Ë_3-5);}.cls-34{fill:url(#_É_πÌÚ_·ÂÁ_Ì_Á_Ë_3-6);}.cls-35{fill:url(#_É_πÌÚ_·ÂÁ_Ì_Á_Ë_3-7);}.cls-36{fill:url(#_É_πÌÚ_·ÂÁ_Ì_Á_Ë_3-4);}.cls-37{mask:url(#mask-3);}.cls-38{mask:url(#mask-2);}.cls-39{mask:url(#mask-5);}.cls-40{mask:url(#mask-4);}.cls-41{mask:url(#mask-1);}.cls-42{mask:url(#mask-7);}.cls-43{mask:url(#mask-6);}.cls-44{mask:url(#mask-8);}.cls-45{mask:url(#mask-9);}</style><filter id="luminosity-noclip-2" x="1758.92" y="148.44" width="105.65" height="105.65" color-interpolation-filters="sRGB" filterUnits="userSpaceOnUse"><feFlood flood-color="#fff" result="bg"/><feBlend in="SourceGraphic" in2="bg"/></filter><filter id="luminosity-noclip-3" x="9957.16" y="-9397.12" width="-32766" height="32766" color-interpolation-filters="sRGB" filterUnits="userSpaceOnUse"><feFlood flood-color="#fff" result="bg"/><feBlend in="SourceGraphic" in2="bg"/></filter><mask id="mask-1" x="9957.16" y="-9397.12" width="-32766" height="32766" maskUnits="userSpaceOnUse"/><linearGradient id="_É_πÌÚ_·ÂÁ_Ì_Á_Ë_115" x1="-257.67" y1="3814.21" x2="-182.96" y2="3739.51" gradientTransform="translate(-1965.12 -19.05) rotate(-90)" gradientUnits="userSpaceOnUse"><stop offset="0" stop-color="#000"/><stop offset="1" stop-color="#fff"/></linearGradient><mask id="mask" x="1758.92" y="148.44" width="105.65" height="105.65" maskUnits="userSpaceOnUse"><g class="cls-16"><g class="cls-41"><circle class="cls-8" cx="1811.74" cy="201.26" r="52.83"/></g></g></mask><linearGradient id="_É_πÌÚ_·ÂÁ_Ì_Á_Ë_3" x1="-257.67" y1="3814.21" x2="-182.96" y2="3739.51" gradientTransform="translate(-1965.12 -19.05) rotate(-90)" gradientUnits="userSpaceOnUse"><stop offset="0" stop-color="#130028"/><stop offset="1" stop-color="#2600ed"/></linearGradient><filter id="luminosity-noclip-4" x="2732.9" y="1559.29" width="105.65" height="105.65" color-interpolation-filters="sRGB" filterUnits="userSpaceOnUse"><feFlood flood-color="#fff" result="bg"/><feBlend in="SourceGraphic" in2="bg"/></filter><filter id="luminosity-noclip-5" x="9957.16" y="-9397.12" width="-32766" height="32766" color-interpolation-filters="sRGB" filterUnits="userSpaceOnUse"><feFlood flood-color="#fff" result="bg"/><feBlend in="SourceGraphic" in2="bg"/></filter><mask id="mask-3" x="9957.16" y="-9397.12" width="-32766" height="32766" maskUnits="userSpaceOnUse"/><linearGradient id="_É_πÌÚ_·ÂÁ_Ì_Á_Ë_115-2" x1="-1668.53" y1="4788.2" x2="-1593.82" y2="4713.49" gradientTransform="translate(3634.84 -3338.66) rotate(-9.22)" xlink:href="#_É_πÌÚ_·ÂÁ_Ì_Á_Ë_115"/><mask id="mask-2" x="2732.9" y="1559.29" width="105.65" height="105.65" maskUnits="userSpaceOnUse"><g class="cls-7"><g class="cls-37"><circle class="cls-10" cx="2785.73" cy="1612.12" r="52.83" transform="translate(748.2 4103.65) rotate(-80.78)"/></g></g></mask><linearGradient id="_É_πÌÚ_·ÂÁ_Ì_Á_Ë_3-2" x1="-1668.53" y1="4788.2" x2="-1593.82" y2="4713.49" gradientTransform="translate(3634.84 -3338.66) rotate(-9.22)" xlink:href="#_É_πÌÚ_·ÂÁ_Ì_Á_Ë_3"/><filter id="luminosity-noclip-6" x="2357.22" y="329.19" width="48.14" height="48.14" color-interpolation-filters="sRGB" filterUnits="userSpaceOnUse"><feFlood flood-color="#fff" result="bg"/><feBlend in="SourceGraphic" in2="bg"/></filter><filter id="luminosity-noclip-7" x="9957.16" y="-9397.12" width="-32766" height="32766" color-interpolation-filters="sRGB" filterUnits="userSpaceOnUse"><feFlood flood-color="#fff" result="bg"/><feBlend in="SourceGraphic" in2="bg"/></filter><mask id="mask-5" x="9957.16" y="-9397.12" width="-32766" height="32766" maskUnits="userSpaceOnUse"/><linearGradient id="_É_πÌÚ_·ÂÁ_Ì_Á_Ë_115-3" x1="-389.33" y1="4363.43" x2="-355.29" y2="4329.39" gradientTransform="translate(-428.82 -2983.38) rotate(-45)" xlink:href="#_É_πÌÚ_·ÂÁ_Ì_Á_Ë_115"/><mask id="mask-4" x="2357.22" y="329.19" width="48.14" height="48.14" maskUnits="userSpaceOnUse"><g class="cls-5"><g class="cls-39"><circle class="cls-9" cx="2381.29" cy="353.26" r="24.07" transform="translate(447.67 1787.29) rotate(-45)"/></g></g></mask><linearGradient id="_É_πÌÚ_·ÂÁ_Ì_Á_Ë_3-3" x1="-389.33" y1="4363.43" x2="-355.29" y2="4329.39" gradientTransform="translate(-428.82 -2983.38) rotate(-45)" xlink:href="#_É_πÌÚ_·ÂÁ_Ì_Á_Ë_3"/><filter id="luminosity-noclip-8" x="1321.01" y="2251.14" width="48.14" height="48.14" color-interpolation-filters="sRGB" filterUnits="userSpaceOnUse"><feFlood flood-color="#fff" result="bg"/><feBlend in="SourceGraphic" in2="bg"/></filter><filter id="luminosity-noclip-9" x="9957.16" y="-9397.12" width="-32766" height="32766" color-interpolation-filters="sRGB" filterUnits="userSpaceOnUse"><feFlood flood-color="#fff" result="bg"/><feBlend in="SourceGraphic" in2="bg"/></filter><mask id="mask-7" x="9957.16" y="-9397.12" width="-32766" height="32766" maskUnits="userSpaceOnUse"/><linearGradient id="_É_πÌÚ_·ÂÁ_Ì_Á_Ë_115-4" x1="-2311.29" y1="3327.22" x2="-2277.24" y2="3293.18" gradientTransform="translate(626.71 -1687.74) rotate(-45)" xlink:href="#_É_πÌÚ_·ÂÁ_Ì_Á_Ë_115"/><mask id="mask-6" x="1321.01" y="2251.14" width="48.14" height="48.14" maskUnits="userSpaceOnUse"><g class="cls-6"><g class="cls-42"><circle class="cls-11" cx="1345.08" cy="2275.21" r="24.07" transform="translate(-1214.85 1617.51) rotate(-45)"/></g></g></mask><linearGradient id="_É_πÌÚ_·ÂÁ_Ì_Á_Ë_3-4" x1="-2311.29" y1="3327.22" x2="-2277.24" y2="3293.18" gradientTransform="translate(626.71 -1687.74) rotate(-45)" xlink:href="#_É_πÌÚ_·ÂÁ_Ì_Á_Ë_3"/><filter id="luminosity-noclip-10" x="1238.1" y="581.31" width="48.14" height="48.14" color-interpolation-filters="sRGB" filterUnits="userSpaceOnUse"><feFlood flood-color="#fff" result="bg"/><feBlend in="SourceGraphic" in2="bg"/></filter><filter id="luminosity-noclip-11" x="9957.16" y="-9397.12" width="-32766" height="32766" color-interpolation-filters="sRGB" filterUnits="userSpaceOnUse"><feFlood flood-color="#fff" result="bg"/><feBlend in="SourceGraphic" in2="bg"/></filter><mask id="mask-9" x="9957.16" y="-9397.12" width="-32766" height="32766" maskUnits="userSpaceOnUse"/><linearGradient id="_É_πÌÚ_·ÂÁ_Ì_Á_Ë_115-5" x1="-641.46" y1="3244.31" x2="-607.41" y2="3210.26" gradientTransform="translate(604.05 -2615.2) rotate(-22.5)" xlink:href="#_É_πÌÚ_·ÂÁ_Ì_Á_Ë_115"/><mask id="mask-8" x="1238.1" y="581.31" width="48.14" height="48.14" maskUnits="userSpaceOnUse"><g class="cls-25"><g class="cls-45"><circle class="cls-13" cx="1262.17" cy="605.38" r="24.07" transform="translate(219.86 1539.81) rotate(-67.5)"/></g></g></mask><linearGradient id="_É_πÌÚ_·ÂÁ_Ì_Á_Ë_3-5" x1="-641.46" y1="3244.31" x2="-607.41" y2="3210.26" gradientTransform="translate(604.05 -2615.2) rotate(-22.5)" xlink:href="#_É_πÌÚ_·ÂÁ_Ì_Á_Ë_3"/><filter id="luminosity-noclip-12" x="934.98" y="1716.22" width="48.14" height="48.14" color-interpolation-filters="sRGB" filterUnits="userSpaceOnUse"><feFlood flood-color="#fff" result="bg"/><feBlend in="SourceGraphic" in2="bg"/></filter><filter id="luminosity-noclip-13" x="9957.16" y="-9397.12" width="-32766" height="32766" color-interpolation-filters="sRGB" filterUnits="userSpaceOnUse"><feFlood flood-color="#fff" result="bg"/><feBlend in="SourceGraphic" in2="bg"/></filter><mask id="mask-11" x="9957.16" y="-9397.12" width="-32766" height="32766" maskUnits="userSpaceOnUse"/><linearGradient id="_É_πÌÚ_·ÂÁ_Ì_Á_Ë_115-6" x1="-1776.37" y1="2941.19" x2="-1742.33" y2="2907.14" gradientTransform="translate(135.4 -1571.45) rotate(-45)" xlink:href="#_É_πÌÚ_·ÂÁ_Ì_Á_Ë_115"/><mask id="mask-10" x="934.98" y="1716.22" width="48.14" height="48.14" maskUnits="userSpaceOnUse"><g class="cls-26"><g class="cls-3"><circle class="cls-14" cx="959.05" cy="1740.3" r="24.07" transform="translate(-949.68 1187.87) rotate(-45)"/></g></g></mask><linearGradient id="_É_πÌÚ_·ÂÁ_Ì_Á_Ë_3-6" x1="-1776.37" y1="2941.19" x2="-1742.33" y2="2907.14" gradientTransform="translate(135.4 -1571.45) rotate(-45)" xlink:href="#_É_πÌÚ_·ÂÁ_Ì_Á_Ë_3"/><filter id="luminosity-noclip-14" x="2276.73" y="2040.23" width="75.16" height="75.16" color-interpolation-filters="sRGB" filterUnits="userSpaceOnUse"><feFlood flood-color="#fff" result="bg"/><feBlend in="SourceGraphic" in2="bg"/></filter><filter id="luminosity-noclip-15" x="9957.16" y="-9397.12" width="-32766" height="32766" color-interpolation-filters="sRGB" filterUnits="userSpaceOnUse"><feFlood flood-color="#fff" result="bg"/><feBlend in="SourceGraphic" in2="bg"/></filter><mask id="mask-13" x="9957.16" y="-9397.12" width="-32766" height="32766" maskUnits="userSpaceOnUse"/><linearGradient id="_É_πÌÚ_·ÂÁ_Ì_Á_Ë_115-7" x1="-2123.43" y1="4306" x2="-2070.29" y2="4252.86" gradientTransform="translate(771 -2430.91) rotate(-45)" xlink:href="#_É_πÌÚ_·ÂÁ_Ì_Á_Ë_115"/><mask id="mask-12" x="2276.73" y="2040.23" width="75.16" height="75.16" maskUnits="userSpaceOnUse"><g class="cls-24"><g class="cls-1"><circle class="cls-12" cx="2314.31" cy="2077.81" r="37.58" transform="translate(-791.38 2245.04) rotate(-45)"/></g></g></mask><linearGradient id="_É_πÌÚ_·ÂÁ_Ì_Á_Ë_3-7" x1="-2123.43" y1="4306" x2="-2070.29" y2="4252.86" gradientTransform="translate(771 -2430.91) rotate(-45)" xlink:href="#_É_πÌÚ_·ÂÁ_Ì_Á_Ë_3"/><linearGradient id="Dégradé_sans_nom_28" x1="1440.27" y1="1761.62" x2="2200.88" y2="2891.29" gradientTransform="translate(0 -1038)" gradientUnits="userSpaceOnUse"><stop offset="0" stop-color="#fff" stop-opacity=".5"/><stop offset="1" stop-color="#fff" stop-opacity="0"/></linearGradient><linearGradient id="Dégradé_sans_nom_22" x1="2204.07" y1="918.45" x2="1341.48" y2="1642.25" gradientUnits="userSpaceOnUse"><stop offset="0" stop-color="#fff"/><stop offset="1" stop-color="#fff" stop-opacity="0"/></linearGradient><linearGradient id="Dégradé_sans_nom_22-2" x1="1577.14" y1="889.63" x2="2054.81" y2="1914.01" xlink:href="#Dégradé_sans_nom_22"/></defs><polygon class="cls-21" points="533.49 1072.04 533.49 1104.64 500.89 1104.64 500.89 1131.17 533.49 1131.17 533.49 1163.77 560.02 1163.77 560.02 1131.17 592.62 1131.17 592.62 1104.64 560.02 1104.64 560.02 1072.04 533.49 1072.04"/><polygon class="cls-21" points="3138.4 1514.64 3138.4 1547.24 3105.8 1547.24 3105.8 1573.77 3138.4 1573.77 3138.4 1606.37 3164.93 1606.37 3164.93 1573.77 3197.53 1573.77 3197.53 1547.24 3164.93 1547.24 3164.93 1514.64 3138.4 1514.64"/><g class="cls-15"><circle class="cls-30" cx="1811.74" cy="201.26" r="52.83"/></g><g class="cls-38"><circle class="cls-32" cx="2785.73" cy="1612.12" r="52.83" transform="translate(748.2 4103.65) rotate(-80.78)"/></g><g class="cls-40"><circle class="cls-31" cx="2381.29" cy="353.26" r="24.07" transform="translate(447.67 1787.29) rotate(-45)"/></g><g class="cls-43"><circle class="cls-36" cx="1345.08" cy="2275.21" r="24.07" transform="translate(-1214.85 1617.51) rotate(-45)"/></g><g class="cls-44"><circle class="cls-33" cx="1262.17" cy="605.38" r="24.07" transform="translate(219.86 1539.81) rotate(-67.5)"/></g><g class="cls-4"><circle class="cls-34" cx="959.05" cy="1740.3" r="24.07" transform="translate(-949.68 1187.87) rotate(-45)"/></g><g class="cls-2"><circle class="cls-35" cx="2314.31" cy="2077.81" r="37.58" transform="translate(-791.38 2245.04) rotate(-45)"/></g><path class="cls-23" d="M1941.32,526.77l468.32,269.39c78.74,45.59,124.33,124.33,124.33,215.51v542.91c0,87.03-45.59,169.92-124.33,215.51l-468.32,273.53c-78.74,45.59-169.92,45.59-248.66,0l-468.32-273.53c-78.74-45.59-124.33-124.33-124.33-215.51V1015.81c0-87.03,45.59-169.92,124.33-215.51l468.32-273.53c78.74-41.44,169.92-41.44,248.66,0Z"/><path class="cls-27" d="M1941.32,526.77l468.32,269.39c78.74,45.59,124.33,128.48,124.33,215.51v542.91c0,87.03-45.59,169.92-124.33,215.51l-468.32,273.53c-78.74,45.59-169.92,45.59-248.66,0l-468.32-273.53c-78.74-45.59-124.33-128.48-124.33-215.51V1015.81c0-87.03,45.59-169.92,124.33-215.51l468.32-273.53c78.74-41.44,169.92-41.44,248.66,0Z"/><g><polygon class="cls-18" points="1369.39 1144.28 1497.87 1247.89 1502.01 1077.97 1369.39 1144.28"/><polygon class="cls-22" points="1369.39 1368.08 1497.87 1247.89 1319.66 1252.04 1369.39 1368.08"/><polygon class="cls-17" points="1502.01 1301.77 1497.87 1247.89 1369.39 1368.08 1502.01 1301.77"/><polygon class="cls-20" points="1319.66 1252.04 1497.87 1247.89 1369.39 1144.28 1319.66 1252.04"/><polygon class="cls-22" points="1576.61 1388.8 1560.03 1330.78 1485.43 1413.67 1576.61 1388.8"/><polygon class="cls-20" points="1560.03 1330.78 1502.01 1301.77 1485.43 1413.67 1560.03 1330.78"/><polygon class="cls-18" points="1485.43 1413.67 1502.01 1301.77 1369.39 1368.08 1485.43 1413.67"/><polygon class="cls-17" points="1622.2 1318.35 1560.03 1330.78 1576.61 1388.8 1622.2 1318.35"/><polygon class="cls-20" points="1630.49 1214.74 1634.63 1094.55 1551.74 1206.45 1630.49 1214.74"/><polygon class="cls-18" points="1742.39 1177.44 1634.63 1094.55 1630.49 1214.74 1742.39 1177.44"/><polygon class="cls-22" points="1634.63 1094.55 1502.01 1077.97 1551.74 1206.45 1634.63 1094.55"/><polygon class="cls-18" points="1808.7 1334.92 1796.26 1272.76 1721.66 1334.92 1808.7 1334.92"/><polygon class="cls-17" points="1502.01 1077.97 1497.87 1247.89 1551.74 1206.45 1502.01 1077.97"/><polygon class="cls-20" points="1721.66 1334.92 1796.26 1272.76 1709.23 1272.76 1721.66 1334.92"/><polygon class="cls-22" points="1796.26 1272.76 1742.39 1177.44 1709.23 1272.76 1796.26 1272.76"/><polygon class="cls-17" points="1709.23 1272.76 1742.39 1177.44 1630.49 1214.74 1709.23 1272.76"/><polygon class="cls-17" points="1721.66 1334.92 1775.54 1380.51 1808.7 1334.92 1721.66 1334.92"/><polygon class="cls-22" points="1775.54 1380.51 1808.7 1434.39 1808.7 1334.92 1775.54 1380.51"/><polygon class="cls-18" points="1816.98 1815.67 1816.98 1670.62 1709.23 1629.18 1816.98 1815.67"/><polygon class="cls-17" points="1709.23 1629.18 1816.98 1670.62 1816.98 1496.56 1709.23 1629.18"/><polygon class="cls-20" points="1816.98 1815.67 1816.98 1670.62 1924.74 1629.18 1816.98 1815.67"/><polygon class="cls-22" points="1924.74 1629.18 1816.98 1670.62 1816.98 1496.56 1924.74 1629.18"/><polygon class="cls-18" points="1564.18 1488.27 1638.78 1467.55 1605.62 1542.14 1564.18 1488.27"/><polygon class="cls-22" points="1605.62 1392.95 1638.78 1467.55 1564.18 1430.25 1605.62 1392.95"/><polygon class="cls-17" points="1651.21 1446.82 1638.78 1467.55 1605.62 1392.95 1651.21 1446.82"/><polygon class="cls-20" points="1564.18 1430.25 1638.78 1467.55 1564.18 1488.27 1564.18 1430.25"/><polygon class="cls-22" points="1700.94 1421.96 1680.22 1446.82 1667.79 1392.95 1700.94 1421.96"/><polygon class="cls-20" points="1680.22 1446.82 1651.21 1446.82 1667.79 1392.95 1680.22 1446.82"/><polygon class="cls-18" points="1667.79 1392.95 1651.21 1446.82 1605.62 1392.95 1667.79 1392.95"/><polygon class="cls-17" points="1705.09 1459.26 1680.22 1446.82 1700.94 1421.96 1705.09 1459.26"/><polygon class="cls-20" points="1688.51 1508.99 1667.79 1558.72 1655.35 1496.56 1688.51 1508.99"/><polygon class="cls-18" points="1729.95 1546.29 1667.79 1558.72 1688.51 1508.99 1729.95 1546.29"/><polygon class="cls-22" points="1667.79 1558.72 1605.62 1542.14 1655.35 1496.56 1667.79 1558.72"/><polygon class="cls-18" points="1792.12 1492.41 1771.4 1513.13 1754.82 1475.83 1792.12 1492.41"/><polygon class="cls-17" points="1605.62 1542.14 1638.78 1467.55 1655.35 1496.56 1605.62 1542.14"/><polygon class="cls-20" points="1754.82 1475.83 1771.4 1513.13 1734.1 1496.56 1754.82 1475.83"/><polygon class="cls-22" points="1771.4 1513.13 1729.95 1546.29 1734.1 1496.56 1771.4 1513.13"/><polygon class="cls-17" points="1734.1 1496.56 1729.95 1546.29 1688.51 1508.99 1734.1 1496.56"/><polygon class="cls-17" points="1754.82 1475.83 1783.83 1463.4 1792.12 1492.41 1754.82 1475.83"/><polygon class="cls-22" points="1783.83 1463.4 1808.7 1446.82 1792.12 1492.41 1783.83 1463.4"/><polygon class="cls-18" points="2069.79 1488.27 1995.19 1467.55 2024.2 1542.14 2069.79 1488.27"/><polygon class="cls-22" points="2028.35 1392.95 1995.19 1467.55 2069.79 1430.25 2028.35 1392.95"/><polygon class="cls-17" points="1982.76 1446.82 1995.19 1467.55 2028.35 1392.95 1982.76 1446.82"/><polygon class="cls-20" points="2069.79 1430.25 1995.19 1467.55 2069.79 1488.27 2069.79 1430.25"/><polygon class="cls-22" points="1933.03 1421.96 1953.75 1446.82 1966.18 1392.95 1933.03 1421.96"/><polygon class="cls-20" points="1953.75 1446.82 1982.76 1446.82 1966.18 1392.95 1953.75 1446.82"/><polygon class="cls-18" points="1966.18 1392.95 1982.76 1446.82 2028.35 1392.95 1966.18 1392.95"/><polygon class="cls-17" points="1928.88 1459.26 1953.75 1446.82 1933.03 1421.96 1928.88 1459.26"/><polygon class="cls-20" points="1945.46 1508.99 1966.18 1558.72 1978.62 1496.56 1945.46 1508.99"/><polygon class="cls-18" points="1904.02 1546.29 1966.18 1558.72 1945.46 1508.99 1904.02 1546.29"/><polygon class="cls-22" points="1966.18 1558.72 2024.2 1542.14 1978.62 1496.56 1966.18 1558.72"/><polygon class="cls-18" points="1841.85 1492.41 1862.57 1513.13 1879.15 1475.83 1841.85 1492.41"/><polygon class="cls-17" points="2024.2 1542.14 1995.19 1467.55 1978.62 1496.56 2024.2 1542.14"/><polygon class="cls-20" points="1879.15 1475.83 1862.57 1513.13 1899.87 1496.56 1879.15 1475.83"/><polygon class="cls-22" points="1862.57 1513.13 1904.02 1546.29 1899.87 1496.56 1862.57 1513.13"/><polygon class="cls-17" points="1899.87 1496.56 1904.02 1546.29 1945.46 1508.99 1899.87 1496.56"/><polygon class="cls-17" points="1879.15 1475.83 1850.14 1463.4 1841.85 1492.41 1879.15 1475.83"/><polygon class="cls-22" points="1850.14 1463.4 1825.27 1446.82 1841.85 1492.41 1850.14 1463.4"/><polygon class="cls-18" points="2264.58 1144.28 2136.1 1247.89 2131.96 1077.97 2264.58 1144.28"/><polygon class="cls-22" points="2268.72 1368.08 2136.1 1247.89 2314.31 1252.04 2268.72 1368.08"/><polygon class="cls-17" points="2127.81 1301.77 2136.1 1247.89 2268.72 1368.08 2127.81 1301.77"/><polygon class="cls-20" points="2314.31 1252.04 2136.1 1247.89 2264.58 1144.28 2314.31 1252.04"/><polygon class="cls-22" points="2057.36 1388.8 2073.94 1330.78 2148.54 1413.67 2057.36 1388.8"/><polygon class="cls-20" points="2073.94 1330.78 2127.81 1301.77 2148.54 1413.67 2073.94 1330.78"/><polygon class="cls-18" points="2148.54 1413.67 2127.81 1301.77 2268.72 1368.08 2148.54 1413.67"/><polygon class="cls-17" points="2011.77 1318.35 2073.94 1330.78 2057.36 1388.8 2011.77 1318.35"/><polygon class="cls-20" points="2003.48 1214.74 1999.34 1094.55 2082.23 1206.45 2003.48 1214.74"/><polygon class="cls-18" points="1891.58 1177.44 1999.34 1094.55 2003.48 1214.74 1891.58 1177.44"/><polygon class="cls-22" points="1999.34 1094.55 2131.96 1077.97 2082.23 1206.45 1999.34 1094.55"/><polygon class="cls-18" points="1825.27 1334.92 1837.71 1272.76 1908.16 1334.92 1825.27 1334.92"/><polygon class="cls-17" points="2131.96 1077.97 2136.1 1247.89 2082.23 1206.45 2131.96 1077.97"/><polygon class="cls-20" points="1908.16 1334.92 1837.71 1272.76 1924.74 1272.76 1908.16 1334.92"/><polygon class="cls-22" points="1837.71 1272.76 1891.58 1177.44 1924.74 1272.76 1837.71 1272.76"/><polygon class="cls-17" points="1924.74 1272.76 1891.58 1177.44 2003.48 1214.74 1924.74 1272.76"/><polygon class="cls-17" points="1908.16 1334.92 1858.43 1380.51 1825.27 1334.92 1908.16 1334.92"/><polygon class="cls-22" points="1858.43 1380.51 1825.27 1434.39 1825.27 1334.92 1858.43 1380.51"/><polygon class="cls-20" points="1659.5 841.74 1816.98 1276.9 1816.98 891.48 1659.5 841.74"/><polygon class="cls-18" points="1974.47 841.74 1816.98 1276.9 1816.98 891.48 1974.47 841.74"/><path class="cls-22" d="M1659.5,841.74h0l157.49,49.73v-136.76c-66.31-4.14-124.33,33.16-157.49,87.03Z"/><path class="cls-17" d="M1816.98,754.71v136.76l157.49-49.73h0c-33.16-53.88-91.18-91.18-157.49-87.03Z"/></g><path class="cls-28" d="M2581.6,1768.67c-10.93-62.87-27.11-128.12-48.36-195.25-19.71-62.26-43.77-126.12-72.1-191.21-60.89-139.91-138.86-279.37-231.74-414.52-92.88-135.15-195.13-257.92-303.92-364.92-38.94-38.29-78.1-73.97-117.35-106.94-66.77-56.09-133.77-104.3-200.26-144.03-1.42-.85-2.83-1.67-4.25-2.51l33.24-31.14-97.68-4.41c-80.37-40.96-156.38-66.75-226.73-76.87-94.22-13.55-174.19,1.7-237.67,45.32-63.48,43.63-106.38,112.81-127.5,205.63-20.2,88.75-19.72,195.4,1.41,316.98,21.06,121.17,61.59,251.19,120.46,386.45,9.83,22.6,20.12,45.18,30.84,67.74v-36.99c-66.29-144.81-112.73-287.45-135.75-419.9-20.77-119.51-21.3-224.07-1.57-310.78,20.21-88.83,60.94-154.82,121.05-196.13,45.83-31.5,101-47.33,164.6-47.33,19.82,0,40.46,1.54,61.88,4.62,67.84,9.76,141.28,34.57,219.06,73.92l26.05,68.13,36.31-34.01c2.71,1.59,5.43,3.2,8.15,4.82,61.96,37.03,124.25,81.43,185.9,132.21,152.32,125.46,300.74,289.95,430.71,479.07,143.73,209.14,251.25,428.54,311.44,632.86,16.27,55.23,29.09,109.36,38.22,161.88,20.77,119.51,21.3,224.07,1.57,310.78-20.21,88.83-60.94,154.82-121.05,196.12-45.83,31.5-101,47.33-164.6,47.33-19.82,0-40.46-1.54-61.88-4.62-88.01-12.66-185.44-50.63-289.56-112.86-68.56-40.97-137.51-90.96-205.56-148.63-10.95-4.48-21.75-9.76-32.31-15.88l-28.23-16.49c85.79,78.08,172.33,143.35,258.01,194.56,105.93,63.31,205.32,101.98,295.42,114.93,22.21,3.19,43.62,4.79,64.21,4.79,66.78,0,124.94-16.77,173.46-50.11,63.48-43.63,106.38-112.81,127.5-205.63,20.19-88.75,19.72-195.4-1.41-316.98Z"/><path class="cls-19" d="M1174.42,1881.25c-61.28,7.25-67.16,13.13-74.41,74.41-7.25-61.28-13.13-67.16-74.41-74.41,61.28-7.25,67.16-13.13,74.41-74.41,7.25,61.28,13.13,67.16,74.41,74.41Z"/><path class="cls-19" d="M2557.6,456.97c-68.94,8.16-75.56,14.77-83.72,83.72-8.16-68.94-14.77-75.56-83.72-83.72,68.94-8.16,75.56-14.77,83.72-83.72,8.16,68.94,14.77,75.56,83.72,83.72Z"/><path class="cls-19" d="M853.2,739.3c-87.82,10.39-96.25,18.82-106.64,106.64-10.39-87.82-18.82-96.25-106.64-106.64,87.82-10.39,96.25-18.82,106.64-106.64,10.39,87.82,18.82,96.25,106.64,106.64Z"/><path class="cls-29" d="M2860.53,954.7c-29.19-65.69-85.32-116.86-166.85-152.07-11.38-4.92-23.2-9.48-35.42-13.72l-44.96-60.26-24.58,40.8c-55.5-12.21-117.6-18.78-185.74-19.59-23.43-.28-47.35,.13-71.71,1.22-94.74,4.21-196.28,18.69-302.82,43.24-138.52,31.92-279.55,79.56-419.17,141.59-139.61,62.03-269.5,134.76-386.04,216.16-43.71,30.53-84.83,61.78-123.23,93.62-60.6,50.23-114.41,101.91-160.8,154.52-49.64,56.29-89.18,111.83-118.25,165.95l-69.67,29.7,38.49,38.1c-2.21,5.81-4.31,11.6-6.27,17.36-28.51,84.1-28.17,160.06,1.02,225.75,29.19,65.69,85.32,116.86,166.85,152.07,77.89,33.65,175.7,51.4,290.71,52.77,4.8,.06,9.6,.09,14.44,.09,110.7,0,231.76-14.97,360.09-44.55,15.39-3.55,30.81-7.3,46.26-11.23l-19.3-11.27c-136.18,33.64-267.43,51.27-386.99,51.26-4.78,0-9.56-.03-14.3-.08-112.91-1.35-208.67-18.67-284.64-51.48-77.77-33.59-131.16-82.04-158.68-143.99-27.53-61.95-27.69-134.04-.49-214.27,1.16-3.41,2.37-6.83,3.62-10.25l28.62,28.33,.7-94.3c28.76-55.09,68.78-111.83,119.64-169.52,43.48-49.31,93.46-97.71,148.96-144.52,141.42-119.28,318.68-228.27,515.68-315.8,256.65-114.03,517.84-178.78,741.45-184.38,10.53-.26,20.99-.4,31.35-.4,4.78,0,9.56,.03,14.3,.08,64.95,.77,124.22,6.85,177.32,18.1l-24.47,40.62,93.4-21.93c13.31,4.49,26.11,9.39,38.39,14.69,77.77,33.59,131.16,82.04,158.68,143.99,27.53,61.95,27.69,134.04,.49,214.27-26.57,78.37-77.9,161.05-152.58,245.74-46.59,52.83-100.64,104.62-160.95,154.53-.65,7.63-1.64,15.21-2.98,22.71,66.74-54.07,125.59-109.89,175.77-166.8,76.07-86.27,128.45-170.75,155.69-251.11,28.51-84.1,28.17-160.06-1.02-225.75Z"/></svg>