<svg width="203" height="60" viewBox="0 0 203 60" fill="none" xmlns="http://www.w3.org/2000/svg">
<rect width="202.109" height="60" rx="8" fill="#663797"/>
<path d="M79.5269 43.3622H76.4989L74.8402 38.6714H69.0749L67.4949 43.3622H64.5469L70.2589 27.3926H73.7869L79.5269 43.3622ZM74.3402 36.7034L72.8402 32.5334C72.6815 32.1074 72.3842 31.1042 71.9455 29.525H71.8922C71.7175 30.2042 71.4362 31.2074 71.0495 32.5334L69.5762 36.7034H74.3402V36.7034Z" fill="white"/>
<path d="M94.2159 37.4618C94.2159 39.4202 93.6279 40.9682 92.4519 42.1046C91.3985 43.1162 90.0905 43.6214 88.5292 43.6214C86.8439 43.6214 85.6332 43.0766 84.8959 41.987H84.8425V48.053H81.9999V35.6366C81.9999 34.4054 81.9639 33.1418 81.8945 31.8458H84.3945L84.5532 33.671H84.6065C85.5545 32.2958 86.9932 31.6094 88.9239 31.6094C90.4332 31.6094 91.6932 32.1458 92.7012 33.2198C93.7119 34.295 94.2159 35.7086 94.2159 37.4618ZM91.3199 37.5554C91.3199 36.4346 91.0399 35.5106 90.4772 34.7834C89.8625 34.025 89.0372 33.6458 88.0025 33.6458C87.3012 33.6458 86.6639 33.857 86.0945 34.2734C85.5239 34.6934 85.1505 35.2418 84.9759 35.921C84.8879 36.2378 84.8439 36.497 84.8439 36.701V38.621C84.8439 39.4586 85.1292 40.1654 85.6999 40.7426C86.2705 41.3198 87.0119 41.6078 87.9239 41.6078C88.9945 41.6078 89.8279 41.2358 90.4239 40.4942C91.0212 39.7514 91.3199 38.7722 91.3199 37.5554Z" fill="white"/>
<path d="M108.933 37.4618C108.933 39.4202 108.345 40.9682 107.168 42.1046C106.116 43.1162 104.808 43.6214 103.247 43.6214C101.561 43.6214 100.351 43.0766 99.6146 41.987H99.5613V48.053H96.7186V35.6366C96.7186 34.4054 96.6826 33.1418 96.6133 31.8458H99.1133L99.272 33.671H99.3253C100.272 32.2958 101.711 31.6094 103.643 31.6094C105.151 31.6094 106.411 32.1458 107.421 33.2198C108.428 34.295 108.933 35.7086 108.933 37.4618ZM106.037 37.5554C106.037 36.4346 105.756 35.5106 105.193 34.7834C104.579 34.025 103.756 33.6458 102.72 33.6458C102.017 33.6458 101.381 33.857 100.811 34.2734C100.24 34.6934 99.8679 35.2418 99.6933 35.921C99.6066 36.2378 99.5613 36.497 99.5613 36.701V38.621C99.5613 39.4586 99.8466 40.1654 100.415 40.7426C100.985 41.3186 101.727 41.6078 102.641 41.6078C103.712 41.6078 104.545 41.2358 105.141 40.4942C105.739 39.7514 106.037 38.7722 106.037 37.5554Z" fill="white"/>
<path d="M125.387 38.8834C125.387 40.2418 124.863 41.347 123.811 42.2002C122.655 43.1326 121.046 43.5982 118.978 43.5982C117.068 43.5982 115.538 43.267 114.379 42.6034L115.038 40.471C116.286 41.1502 117.655 41.491 119.147 41.491C120.218 41.491 121.051 41.2726 121.65 40.8382C122.246 40.4038 122.543 39.8206 122.543 39.0934C122.543 38.4454 122.298 37.8994 121.806 37.4566C121.316 37.0138 120.499 36.6022 119.358 36.2218C116.251 35.179 114.699 33.6514 114.699 31.6426C114.699 30.3298 115.243 29.2534 116.332 28.4158C117.418 27.577 118.866 27.1582 120.676 27.1582C122.291 27.1582 123.632 27.4114 124.703 27.9166L123.992 30.0022C122.992 29.5126 121.862 29.2678 120.596 29.2678C119.596 29.2678 118.815 29.4898 118.255 29.9314C117.782 30.3262 117.544 30.8074 117.544 31.3774C117.544 32.0086 117.815 32.5306 118.359 32.941C118.832 33.3202 119.692 33.7306 120.94 34.1734C122.467 34.7266 123.588 35.3734 124.31 36.115C125.028 36.8542 125.387 37.7794 125.387 38.8834Z" fill="white"/>
<path d="M134.784 33.7658H131.651V39.3566C131.651 40.7786 132.203 41.489 133.31 41.489C133.818 41.489 134.239 41.4494 134.572 41.3702L134.651 43.313C134.091 43.5014 133.354 43.5962 132.44 43.5962C131.318 43.5962 130.44 43.2878 129.807 42.6722C129.176 42.0554 128.859 41.021 128.859 39.5678V33.7634H126.992V31.8434H128.859V29.735L131.651 28.9766V31.8434H134.784V33.7658Z" fill="white"/>
<path d="M148.923 37.5093C148.923 39.2793 148.36 40.7325 147.237 41.8689C146.06 43.0389 144.497 43.6221 142.549 43.6221C140.672 43.6221 139.177 43.0617 138.063 41.9409C136.948 40.8201 136.391 39.4053 136.391 37.7001C136.391 35.9157 136.964 34.4541 138.115 33.3177C139.263 32.1801 140.812 31.6113 142.76 31.6113C144.637 31.6113 146.148 32.1717 147.288 33.2937C148.379 34.3821 148.923 35.7873 148.923 37.5093ZM145.973 37.5921C145.973 36.5301 145.721 35.6193 145.211 34.8597C144.615 33.9405 143.763 33.4821 142.659 33.4821C141.516 33.4821 140.648 33.9417 140.052 34.8597C139.541 35.6205 139.289 36.5457 139.289 37.6401C139.289 38.7021 139.541 39.6129 140.052 40.3713C140.667 41.2905 141.525 41.7489 142.633 41.7489C143.719 41.7489 144.571 41.2809 145.185 40.3473C145.709 39.5733 145.973 38.6529 145.973 37.5921Z" fill="white"/>
<path d="M158.162 34.0958C157.88 34.049 157.58 34.025 157.266 34.025C156.266 34.025 155.492 34.3646 154.948 35.045C154.475 35.645 154.238 36.4034 154.238 37.319V43.361H151.396L151.423 35.4722C151.423 34.145 151.387 32.9366 151.316 31.847H153.792L153.896 34.0502H153.975C154.275 33.293 154.748 32.6834 155.396 32.2262C156.03 31.8146 156.714 31.6094 157.451 31.6094C157.714 31.6094 157.951 31.6262 158.162 31.6562V34.0958Z" fill="white"/>
<path d="M170.875 37.0587C170.875 37.5171 170.841 37.9035 170.771 38.2191H162.243C162.276 39.3567 162.688 40.2267 163.48 40.8267C164.199 41.3631 165.128 41.6319 166.269 41.6319C167.532 41.6319 168.684 41.4507 169.72 41.0871L170.165 42.8631C168.955 43.3383 167.525 43.5747 165.876 43.5747C163.892 43.5747 162.335 43.0491 161.201 41.9991C160.071 40.9491 159.504 39.5391 159.504 37.7703C159.504 36.0339 160.031 34.5879 161.085 33.4347C162.189 32.2035 163.681 31.5879 165.559 31.5879C167.403 31.5879 168.799 32.2035 169.747 33.4347C170.497 34.4127 170.875 35.6223 170.875 37.0587ZM168.164 36.3951C168.183 35.6367 167.997 34.9815 167.612 34.4283C167.12 33.7167 166.364 33.3615 165.347 33.3615C164.417 33.3615 163.661 33.7083 163.084 34.4043C162.611 34.9575 162.329 35.6211 162.243 36.3939H168.164V36.3951Z" fill="white"/>
<path d="M73.3997 17.5671C73.3997 18.9795 72.9291 20.0427 71.989 20.7567C71.1184 21.4155 69.881 21.7455 68.2784 21.7455C67.4837 21.7455 66.8037 21.7143 66.2344 21.6519V13.9347C66.977 13.8267 67.777 13.7715 68.641 13.7715C70.1677 13.7715 71.3184 14.0703 72.0944 14.6679C72.9637 15.3435 73.3997 16.3095 73.3997 17.5671ZM71.9264 17.6019C71.9264 16.6863 71.657 15.9843 71.1184 15.4947C70.5797 15.0063 69.793 14.7615 68.757 14.7615C68.317 14.7615 67.9424 14.7879 67.6317 14.8431V20.7099C67.8037 20.7339 68.1184 20.7447 68.5757 20.7447C69.645 20.7447 70.4704 20.4771 71.0517 19.9419C71.6331 19.4067 71.9264 18.6267 71.9264 17.6019Z" fill="white"/>
<path d="M81.2107 18.8011C81.2107 19.6711 80.9347 20.3839 80.3827 20.9431C79.804 21.5179 79.0374 21.8047 78.08 21.8047C77.1574 21.8047 76.4227 21.5299 75.8747 20.9779C75.328 20.4271 75.0547 19.7323 75.0547 18.8947C75.0547 18.0187 75.336 17.2999 75.9014 16.7419C76.4667 16.1839 77.2267 15.9043 78.184 15.9043C79.1067 15.9043 79.848 16.1791 80.4094 16.7299C80.9427 17.2651 81.2107 17.9563 81.2107 18.8011ZM79.7614 18.8419C79.7614 18.3199 79.636 17.8723 79.3867 17.4991C79.0934 17.0479 78.676 16.8223 78.1334 16.8223C77.572 16.8223 77.1454 17.0479 76.852 17.4991C76.6014 17.8723 76.4774 18.3271 76.4774 18.8647C76.4774 19.3867 76.6027 19.8343 76.852 20.2075C77.1547 20.6587 77.576 20.8843 78.12 20.8843C78.6534 20.8843 79.072 20.6551 79.3734 20.1955C79.632 19.8151 79.7614 19.3639 79.7614 18.8419Z" fill="white"/>
<path d="M91.6867 16.0195L89.7201 21.6763H88.4401L87.6254 19.2199C87.4187 18.6067 87.2507 17.9971 87.1201 17.3923H87.0947C86.9734 18.0139 86.8054 18.6223 86.5894 19.2199L85.7241 21.6763H84.4294L82.5801 16.0195H84.0161L84.7267 18.7087C84.8987 19.3447 85.0401 19.9507 85.1534 20.5243H85.1787C85.2827 20.0515 85.4547 19.4491 85.6974 18.7207L86.5894 16.0207H87.7281L88.5827 18.6631C88.7894 19.3075 88.9574 19.9279 89.0867 20.5255H89.1254C89.2201 19.9435 89.3627 19.3231 89.5521 18.6631L90.3147 16.0207H91.6867V16.0195Z" fill="white"/>
<path d="M98.9312 21.676H97.5339V18.436C97.5339 17.4376 97.1125 16.9384 96.2672 16.9384C95.8525 16.9384 95.5179 17.0752 95.2579 17.35C95.0005 17.6248 94.8699 17.9488 94.8699 18.3196V21.6748H93.4725V17.6356C93.4725 17.1388 93.4552 16.6 93.4219 16.0168H94.6499L94.7152 16.9012H94.7539C94.9165 16.6264 95.1592 16.3996 95.4779 16.2184C95.8565 16.0072 96.2805 15.9004 96.7445 15.9004C97.3312 15.9004 97.8192 16.0708 98.2072 16.4128C98.6899 16.8316 98.9312 17.4568 98.9312 18.2872V21.676V21.676Z" fill="white"/>
<path d="M102.785 21.6762H101.389V13.4238H102.785V21.6762Z" fill="white"/>
<path d="M111.011 18.8011C111.011 19.6711 110.735 20.3839 110.183 20.9431C109.605 21.5179 108.837 21.8047 107.881 21.8047C106.957 21.8047 106.222 21.5299 105.675 20.9779C105.129 20.4271 104.855 19.7323 104.855 18.8947C104.855 18.0187 105.137 17.2999 105.702 16.7419C106.267 16.1839 107.027 15.9043 107.983 15.9043C108.907 15.9043 109.647 16.1791 110.21 16.7299C110.743 17.2651 111.011 17.9563 111.011 18.8011ZM109.561 18.8419C109.561 18.3199 109.435 17.8723 109.186 17.4991C108.894 17.0479 108.475 16.8223 107.934 16.8223C107.371 16.8223 106.945 17.0479 106.653 17.4991C106.402 17.8723 106.278 18.3271 106.278 18.8647C106.278 19.3867 106.403 19.8343 106.653 20.2075C106.955 20.6587 107.377 20.8843 107.921 20.8843C108.454 20.8843 108.871 20.6551 109.173 20.1955C109.433 19.8151 109.561 19.3639 109.561 18.8419Z" fill="white"/>
<path d="M117.773 21.6763H116.519L116.415 21.0247H116.376C115.947 21.5443 115.335 21.8047 114.54 21.8047C113.947 21.8047 113.467 21.6331 113.105 21.2923C112.777 20.9827 112.613 20.5975 112.613 20.1403C112.613 19.4491 112.933 18.9223 113.577 18.5575C114.22 18.1927 115.124 18.0139 116.288 18.0223V17.9167C116.288 17.1715 115.853 16.7995 114.983 16.7995C114.363 16.7995 113.816 16.9399 113.344 17.2183L113.06 16.3927C113.644 16.0675 114.365 15.9043 115.216 15.9043C116.859 15.9043 117.683 16.6843 117.683 18.2443V20.3275C117.683 20.8927 117.713 21.3427 117.773 21.6763ZM116.323 19.7323V18.8599C114.781 18.8359 114.011 19.2163 114.011 19.9999C114.011 20.2951 114.099 20.5159 114.279 20.6635C114.459 20.8111 114.688 20.8843 114.961 20.8843C115.268 20.8843 115.555 20.7967 115.816 20.6227C116.079 20.4475 116.24 20.2255 116.3 19.9531C116.315 19.8919 116.323 19.8175 116.323 19.7323Z" fill="white"/>
<path d="M125.713 21.6762H124.473L124.408 20.7678H124.369C123.973 21.459 123.298 21.8046 122.35 21.8046C121.593 21.8046 120.962 21.537 120.462 21.0018C119.962 20.4666 119.713 19.7718 119.713 18.9186C119.713 18.003 119.984 17.2614 120.528 16.695C121.054 16.167 121.7 15.903 122.468 15.903C123.312 15.903 123.902 16.1586 124.238 16.671H124.265V13.4238H125.664V20.1522C125.664 20.703 125.68 21.2106 125.713 21.6762ZM124.265 19.2906V18.3474C124.265 18.1842 124.252 18.0522 124.226 17.9514C124.148 17.649 123.978 17.3946 123.721 17.1894C123.461 16.9842 123.148 16.881 122.786 16.881C122.265 16.881 121.857 17.067 121.557 17.4402C121.26 17.8134 121.109 18.2898 121.109 18.8718C121.109 19.431 121.252 19.8846 121.538 20.2338C121.841 20.6058 122.249 20.7918 122.76 20.7918C123.218 20.7918 123.585 20.637 123.864 20.3262C124.133 20.0394 124.265 19.6938 124.265 19.2906Z" fill="white"/>
<path d="M137.664 18.8011C137.664 19.6711 137.388 20.3839 136.836 20.9431C136.257 21.5179 135.492 21.8047 134.533 21.8047C133.612 21.8047 132.877 21.5299 132.328 20.9779C131.781 20.4271 131.508 19.7323 131.508 18.8947C131.508 18.0187 131.789 17.2999 132.354 16.7419C132.92 16.1839 133.68 15.9043 134.638 15.9043C135.56 15.9043 136.302 16.1791 136.862 16.7299C137.396 17.2651 137.664 17.9563 137.664 18.8011ZM136.216 18.8419C136.216 18.3199 136.09 17.8723 135.841 17.4991C135.546 17.0479 135.13 16.8223 134.586 16.8223C134.026 16.8223 133.6 17.0479 133.305 17.4991C133.054 17.8723 132.93 18.3271 132.93 18.8647C132.93 19.3867 133.056 19.8343 133.305 20.2075C133.608 20.6587 134.029 20.8843 134.573 20.8843C135.106 20.8843 135.526 20.6551 135.828 20.1955C136.085 19.8151 136.216 19.3639 136.216 18.8419Z" fill="white"/>
<path d="M145.176 21.676H143.78V18.436C143.78 17.4376 143.359 16.9384 142.512 16.9384C142.097 16.9384 141.763 17.0752 141.504 17.35C141.245 17.6248 141.116 17.9488 141.116 18.3196V21.6748H139.717V17.6356C139.717 17.1388 139.701 16.6 139.668 16.0168H140.895L140.96 16.9012H140.999C141.163 16.6264 141.405 16.3996 141.723 16.2184C142.103 16.0072 142.525 15.9004 142.991 15.9004C143.576 15.9004 144.064 16.0708 144.452 16.4128C144.936 16.8316 145.176 17.4568 145.176 18.2872V21.676V21.676Z" fill="white"/>
<path d="M154.582 16.9621H153.043V19.7101C153.043 20.4085 153.317 20.7577 153.858 20.7577C154.109 20.7577 154.317 20.7385 154.481 20.6989L154.517 21.6529C154.241 21.7465 153.878 21.7933 153.431 21.7933C152.879 21.7933 152.45 21.6421 152.139 21.3397C151.827 21.0373 151.673 20.5285 151.673 19.8145V16.9621H150.754V16.0201H151.673V14.9833L153.042 14.6113V16.0189H154.581V16.9621H154.582Z" fill="white"/>
<path d="M161.978 21.6762H160.58V18.4602C160.58 17.4462 160.158 16.9386 159.314 16.9386C158.666 16.9386 158.224 17.2326 157.981 17.8206C157.94 17.9442 157.916 18.0954 157.916 18.273V21.675H156.52V13.4238H157.916V16.833H157.942C158.382 16.2126 159.013 15.903 159.83 15.903C160.409 15.903 160.888 16.0734 161.268 16.4154C161.741 16.8414 161.978 17.475 161.978 18.3126V21.6762V21.6762Z" fill="white"/>
<path d="M169.609 18.5794C169.609 18.805 169.591 18.9946 169.557 19.1494H165.367C165.385 19.7086 165.585 20.1346 165.973 20.4298C166.328 20.6938 166.785 20.8258 167.345 20.8258C167.965 20.8258 168.531 20.737 169.04 20.5582L169.259 21.4318C168.663 21.6646 167.961 21.781 167.149 21.781C166.176 21.781 165.409 21.523 164.855 21.007C164.297 20.491 164.021 19.7986 164.021 18.9298C164.021 18.0766 164.279 17.3662 164.797 16.7998C165.339 16.195 166.071 15.8926 166.995 15.8926C167.899 15.8926 168.585 16.195 169.049 16.7998C169.424 17.2798 169.609 17.8738 169.609 18.5794ZM168.276 18.2542C168.287 17.881 168.195 17.5594 168.005 17.2882C167.763 16.939 167.393 16.7638 166.893 16.7638C166.437 16.7638 166.065 16.9342 165.781 17.2762C165.549 17.5486 165.412 17.8738 165.367 18.2542H168.276Z" fill="white"/>
<path d="M45.3864 31.4857C45.3473 27.5694 48.9464 25.664 49.111 25.5753C47.0727 22.8984 43.9133 22.5326 42.8031 22.5035C40.1496 22.2519 37.5757 23.9337 36.224 23.9337C34.8453 23.9337 32.7638 22.5278 30.5204 22.5691C27.6336 22.6092 24.9329 24.1147 23.4517 26.4526C20.3948 31.2196 22.6746 38.2249 25.6033 42.0781C27.0683 43.9652 28.7802 46.0722 31.0209 45.9981C33.213 45.9167 34.0319 44.7392 36.6773 44.7392C39.2984 44.7392 40.0673 45.9981 42.3525 45.9507C44.7052 45.9167 46.1864 44.0551 47.6001 42.151C49.2931 39.988 49.973 37.8579 50 37.7485C49.9447 37.7315 45.4309 36.1798 45.3864 31.4857Z" fill="white"/>
<path d="M41.0696 19.9687C42.2486 18.6405 43.0553 16.8336 42.8314 15C41.1249 15.068 38.9908 16.0632 37.7619 17.3622C36.6746 18.5069 35.7033 20.383 35.9542 22.1474C37.8711 22.2762 39.8393 21.2762 41.0696 19.9687Z" fill="white"/>
</svg>
