<svg width="24" height="24" xmlns="http://www.w3.org/2000/svg" fill-rule="evenodd" clip-rule="evenodd"><path d="M20.332 23h-6.999l-2.226-6.543c-.136-.279-.42-.457-.732-.457h-.375v-1h3.729l2.056-3.738c.106-.171.285-.262.467-.262.426 0 .691.469.467.834l-1.741 3.166h4.044l-1.741-3.166c-.224-.365.041-.834.467-.834.182 0 .361.091.467.262l2.056 3.738h3.729v1h-.374c-.312 0-.597.178-.733.459l-2.561 6.541zm-8.396-1h-11.936c0-.277-.002-2.552-.004-2.803-.008-2.111.083-3.319 2.514-3.88 2.663-.614 5.801-1.165 4.537-3.495-3.744-6.906-1.067-10.822 2.954-10.822 3.942 0 6.686 3.771 2.952 10.822l-1.091 2.178h-1.862c-.552 0-1 .448-1 1v1c0 .552.448 1 1 1h.236l1.7 5zm3.546-4.426c0-.276-.224-.5-.5-.5s-.5.224-.5.5v3c0 .276.224.5.5.5s.5-.224.5-.5v-3zm2-.074c0-.276-.224-.5-.5-.5s-.5.224-.5.5v3c0 .276.224.5.5.5s.5-.224.5-.5v-3zm2.036 0c0-.276-.224-.5-.5-.5s-.5.224-.5.5v3c0 .276.224.5.5.5s.5-.224.5-.5v-3z"/></svg>