<svg width="203" height="60" viewBox="0 0 203 60" fill="none" xmlns="http://www.w3.org/2000/svg">
<rect x="1" y="1" width="200.109" height="58" rx="7" fill="white" stroke="#663797" stroke-width="2"/>
<path d="M75.7083 18.2814C75.7083 19.2448 75.3882 20.0165 74.7577 20.5919C74.0327 21.2742 73.0885 21.6174 71.9315 21.6174C70.8256 21.6174 69.8814 21.2684 69.1068 20.5804C68.3306 19.8823 67.9434 19.0256 67.9434 18.0001C67.9434 16.9746 68.3306 16.1179 69.1068 15.4256C69.8814 14.7319 70.8256 14.3828 71.9315 14.3828C72.482 14.3828 73.0069 14.4852 73.5078 14.6756C74.0071 14.8674 74.4136 15.127 74.7081 15.4472L74.0391 16.0559C73.5254 15.5093 72.8261 15.2395 71.9315 15.2395C71.1249 15.2395 70.4255 15.4934 69.8318 16.0054C69.2445 16.5189 68.95 17.1838 68.95 18.0001C68.95 18.8165 69.2445 19.4871 69.8318 20.0006C70.4255 20.5068 71.1249 20.7665 71.9315 20.7665C72.7877 20.7665 73.5078 20.5068 74.0759 19.9948C74.4504 19.6559 74.6633 19.1886 74.7193 18.5915H71.9315V17.7578H75.6507C75.6955 17.9381 75.7083 18.1126 75.7083 18.2814V18.2814Z" fill="#663797"/>
<path d="M81.6096 15.3905H78.116V17.5828H81.2655V18.4165H78.116V20.6088H81.6096V21.4583H77.127V14.541H81.6096V15.3905Z" fill="#663797"/>
<path d="M85.7725 21.4583H84.7835V15.3905H82.6406V14.541H87.917V15.3905H85.7725V21.4583V21.4583Z" fill="#663797"/>
<path d="M91.7363 21.4583V14.541H92.7238V21.4583H91.7363Z" fill="#663797"/>
<path d="M97.0987 21.4583H96.1177V15.3905H93.9668V14.541H99.2496V15.3905H97.0987V21.4583Z" fill="#663797"/>
<path d="M109.241 20.5689C108.484 21.2684 107.547 21.6174 106.428 21.6174C105.303 21.6174 104.365 21.2684 103.608 20.5689C102.853 19.8708 102.477 19.0141 102.477 18.0001C102.477 16.9862 102.853 16.1294 103.608 15.4314C104.365 14.7319 105.303 14.3828 106.428 14.3828C107.54 14.3828 108.478 14.7319 109.235 15.4371C109.997 16.141 110.373 16.9919 110.373 18.0001C110.373 19.0141 109.997 19.8708 109.241 20.5689ZM104.339 19.9891C104.909 20.5068 105.602 20.7665 106.428 20.7665C107.247 20.7665 107.947 20.5068 108.51 19.9891C109.078 19.4713 109.366 18.8064 109.366 18.0001C109.366 17.1939 109.078 16.529 108.51 16.0112C107.947 15.4934 107.247 15.2338 106.428 15.2338C105.602 15.2338 104.909 15.4934 104.339 16.0112C103.771 16.529 103.483 17.1939 103.483 18.0001C103.483 18.8064 103.771 19.4713 104.339 19.9891V19.9891Z" fill="#663797"/>
<path d="M111.76 21.4583V14.541H112.96L116.692 19.9208H116.735L116.692 18.591V14.541H117.68V21.4583H116.649L112.741 15.8131H112.698L112.741 17.1487V21.4583H111.76V21.4583Z" fill="#663797"/>
<path d="M102.232 31.5601C99.2253 31.5601 96.7688 33.6226 96.7688 36.4683C96.7688 39.2909 99.2253 41.375 102.232 41.375C105.246 41.375 107.702 39.2909 107.702 36.4683C107.702 33.6226 105.246 31.5601 102.232 31.5601ZM102.232 39.4423C100.582 39.4423 99.1629 38.2149 99.1629 36.4683C99.1629 34.6986 100.582 33.4928 102.232 33.4928C103.882 33.4928 105.308 34.6986 105.308 36.4683C105.308 38.2149 103.882 39.4423 102.232 39.4423V39.4423ZM90.3113 31.5601C87.2978 31.5601 84.8477 33.6226 84.8477 36.4683C84.8477 39.2909 87.2978 41.375 90.3113 41.375C93.3232 41.375 95.7749 39.2909 95.7749 36.4683C95.7749 33.6226 93.3232 31.5601 90.3113 31.5601ZM90.3113 39.4423C88.6597 39.4423 87.2354 38.2149 87.2354 36.4683C87.2354 34.6986 88.6597 33.4928 90.3113 33.4928C91.9613 33.4928 93.3808 34.6986 93.3808 36.4683C93.3808 38.2149 91.9613 39.4423 90.3113 39.4423ZM76.1257 33.0644V35.15H81.6517C81.4901 36.3154 81.058 37.1721 80.3955 37.7692C79.5889 38.4904 78.3326 39.2909 76.1257 39.2909C72.7249 39.2909 70.0619 36.8173 70.0619 33.7524C70.0619 30.6875 72.7249 28.2139 76.1257 28.2139C77.9645 28.2139 79.3024 28.8615 80.2898 29.701L81.9206 28.2313C80.5395 27.0428 78.7023 26.1298 76.1257 26.1298C71.4623 26.1298 67.543 29.5495 67.543 33.7524C67.543 37.9553 71.4623 41.375 76.1257 41.375C78.6463 41.375 80.5395 40.6308 82.0278 39.2346C83.553 37.8601 84.0283 35.9274 84.0283 34.3668C84.0283 33.8822 83.9835 33.4365 83.9035 33.0644H76.1257ZM134.132 34.6813C133.683 33.5837 132.295 31.5601 129.469 31.5601C126.668 31.5601 124.337 33.549 124.337 36.4683C124.337 39.2173 126.644 41.375 129.738 41.375C132.239 41.375 133.683 40.0005 134.276 39.2L132.42 38.0851C131.801 38.9014 130.957 39.4423 129.738 39.4423C128.526 39.4423 127.657 38.9418 127.1 37.9553L134.384 35.2394L134.132 34.6813V34.6813ZM126.707 36.3154C126.644 34.4231 128.337 33.4539 129.551 33.4539C130.501 33.4539 131.308 33.8822 131.577 34.4952L126.707 36.3154V36.3154ZM120.787 41.0764H123.181V26.6534H120.787V41.0764ZM116.866 32.6534H116.786C116.248 32.0793 115.223 31.5601 113.923 31.5601C111.196 31.5601 108.703 33.7178 108.703 36.4841C108.703 39.2346 111.196 41.375 113.923 41.375C115.223 41.375 116.248 40.8514 116.786 40.2601H116.866V40.9639C116.866 42.8404 115.754 43.8486 113.96 43.8486C112.497 43.8486 111.59 42.8966 111.215 42.0962L109.133 42.8793C109.733 44.1803 111.322 45.7812 113.96 45.7812C116.767 45.7812 119.135 44.2928 119.135 40.6712V31.8587H116.866V32.6534V32.6534ZM114.128 39.4423C112.478 39.4423 111.097 38.1976 111.097 36.4841C111.097 34.7548 112.478 33.4928 114.128 33.4928C115.754 33.4928 117.036 34.7548 117.036 36.4841C117.036 38.1976 115.754 39.4423 114.128 39.4423V39.4423ZM145.341 26.6534H139.615V41.0764H142.003V35.6115H145.341C147.993 35.6115 150.594 33.8822 150.594 31.1317C150.594 28.3827 147.987 26.6534 145.341 26.6534V26.6534ZM145.404 33.6053H142.003V28.6596H145.404C147.187 28.6596 148.204 29.9938 148.204 31.1317C148.204 32.2481 147.187 33.6053 145.404 33.6053ZM160.164 31.5327C158.439 31.5327 156.645 32.2192 155.907 33.7409L158.026 34.5413C158.482 33.7409 159.32 33.4813 160.207 33.4813C161.446 33.4813 162.702 34.1519 162.721 35.3361V35.4875C162.289 35.2625 161.364 34.9293 160.226 34.9293C157.944 34.9293 155.619 36.0615 155.619 38.1745C155.619 40.1072 157.488 41.3519 159.589 41.3519C161.196 41.3519 162.083 40.6986 162.64 39.9385H162.721V41.0534H165.027V35.5207C165.027 32.9635 162.908 31.5327 160.164 31.5327ZM159.876 39.4365C159.095 39.4365 158.007 39.0875 158.007 38.2149C158.007 37.0986 159.364 36.6702 160.538 36.6702C161.59 36.6702 162.083 36.8793 162.721 37.1548C162.534 38.4904 161.258 39.4365 159.876 39.4365V39.4365ZM173.429 31.8486L170.685 38.101H170.603L167.766 31.8486H165.191L169.454 40.5861L167.021 45.4481H169.516L176.086 31.8486H173.429V31.8486ZM151.906 41.0764H154.3V26.6534H151.906V41.0764Z" fill="#663797"/>
<path d="M29.8016 38.2834H30.4016V43.224C30.4016 44.4098 31.4016 45.2003 32.6016 45.2003C33.8016 45.2003 34.6016 44.2121 34.6016 43.224V38.2834H37.4016V43.224C37.4016 44.4098 38.4016 45.2003 39.6016 45.2003C40.8016 45.2003 41.6016 44.2121 41.6016 43.224V38.2834H42.2016C43.4016 38.2834 44.4016 37.2953 44.4016 36.1096V23.0664H27.6016V36.1096C27.6016 37.2953 28.6016 38.2834 29.8016 38.2834Z" fill="#663797"/>
<path d="M40.2016 14.9644L41.6016 12.3952C41.6016 12.1976 41.6016 12 41.4016 12C41.2016 12 41.2016 12 41.0016 12.1976L39.6016 14.7667C37.4016 13.7786 34.6016 13.581 32.2016 14.7667L31.0016 12.1976C31.0016 12 30.8016 12 30.6016 12C30.4016 12 30.4016 12.1976 30.4016 12.3952L31.8016 14.9644C29.2016 16.3477 27.6016 18.5216 27.6016 21.6836H44.4016C44.4016 18.5216 42.8016 16.3477 40.2016 14.9644ZM32.6016 18.7192C32.2016 18.7192 31.8016 18.324 31.8016 18.1263C31.8016 17.9287 32.2016 17.5335 32.6016 17.5335C33.0016 17.5335 33.2016 17.9287 33.2016 18.1263C33.2016 18.5216 32.8016 18.7192 32.6016 18.7192ZM39.4016 18.7192C39.2016 18.7192 38.8016 18.324 38.8016 18.1263C38.8016 17.9287 39.2016 17.5335 39.6016 17.5335C39.8016 17.5335 40.2016 17.9287 40.2016 18.1263C40.2016 18.324 39.8016 18.7192 39.4016 18.7192Z" fill="#663797"/>
<path d="M48 35.5167C49 35.5167 50 34.7262 50 33.5405V25.0426C50 23.8569 49 23.0664 48 23.0664C46.8 23.0664 46 24.0545 46 25.0426V33.5405C46 34.7262 47 35.5167 48 35.5167Z" fill="#663797"/>
<path d="M24.2 35.5167C25.4 35.5167 26.4 34.7262 26.4 33.5405V25.0426H26.2C26.2 23.8569 25.2 23.0664 24 23.0664C23 23.0664 22 24.0545 22 25.0426V33.5405C22 34.7262 23 35.5167 24.2 35.5167Z" fill="#663797"/>
</svg>
