<?xml version="1.0" encoding="utf-8"?>
<!-- Generator: Adobe Illustrator 27.0.0, SVG Export Plug-In . SVG Version: 6.00 Build 0)  -->
<svg version="1.1" xmlns="http://www.w3.org/2000/svg" xmlns:xlink="http://www.w3.org/1999/xlink" x="0px" y="0px"
	 viewBox="0 0 1280 1024" style="enable-background:new 0 0 1280 1024;" xml:space="preserve">
<style type="text/css">
	.st0{display:none;}
	.st1{display:inline;fill:url(#SVGID_1_);}
	.st2{display:inline;}
	.st3{fill:url(#SVGID_00000146476352959906792240000018361724164825591726_);}
	.st4{fill:url(#SVGID_00000170246823512543704030000017796713515976954520_);}
	.st5{fill:url(#SVGID_00000102508964308324039130000002322433744556321686_);}
	.st6{fill:url(#SVGID_00000152233848079614190090000009487774701037379235_);}
	.st7{fill:url(#SVGID_00000161605484483433572840000013336708408741403264_);}
	.st8{fill:url(#SVGID_00000130628654163179919130000001884429866355581575_);}
	.st9{fill:url(#SVGID_00000093152918439372524240000014163109249431159451_);}
	.st10{fill:url(#SVGID_00000103986097729535861910000010822506920726515605_);}
	.st11{fill:url(#SVGID_00000007398824567774720190000004949111443911813276_);}
	.st12{fill:url(#SVGID_00000079450638437905148650000004324721213661097627_);}
	.st13{fill:url(#SVGID_00000101785810779571720760000006549571415964179086_);}
	.st14{fill:url(#SVGID_00000046305665914393788610000010053345447129514911_);}
	.st15{fill:url(#SVGID_00000105399949221661822390000002422328908551523214_);}
	.st16{fill:url(#SVGID_00000175297707319467890790000003761927352757647255_);}
	.st17{fill:url(#SVGID_00000079449095217524454160000009961934041734205112_);}
	.st18{fill:url(#SVGID_00000160881589383067560850000007963565865397946037_);}
	.st19{fill:url(#SVGID_00000051359983567736967320000017527285916575920046_);}
	.st20{fill:url(#SVGID_00000116221288022458553400000011364421411554957502_);}
	.st21{fill:url(#SVGID_00000023996181728249147140000007933351965768939417_);}
	.st22{fill:url(#SVGID_00000083771680495356524000000005266479361037189265_);}
	.st23{fill:url(#SVGID_00000169522734955512080850000004469347590356304013_);}
	.st24{fill:url(#SVGID_00000006695615941430943320000012925810986585238426_);}
	.st25{fill:url(#SVGID_00000083771665032626412180000012661270255225870780_);}
	.st26{fill:url(#SVGID_00000013164288135587222290000008348907241315747975_);}
	.st27{fill:url(#SVGID_00000180344819418727688660000002709912093233961893_);}
	.st28{opacity:0.8;}
	.st29{fill:url(#SVGID_00000026126852831658597720000014088740750098377615_);}
	.st30{fill:url(#SVGID_00000114789057632911463610000005148150235237747876_);}
	.st31{opacity:0.2;}
	.st32{fill:url(#SVGID_00000098909360845003211450000005422519338773196722_);}
	.st33{opacity:0.4;}
	.st34{fill:url(#SVGID_00000146460095006239474000000003135165648061333692_);}
</style>
<g id="Calque_3" class="st0">
	<linearGradient id="SVGID_1_" gradientUnits="userSpaceOnUse" x1="640.9149" y1="1025.3405" x2="640.9149" y2="0.4894">
		<stop  offset="0" style="stop-color:#B3B3B3"/>
		<stop  offset="1" style="stop-color:#1A1A1A"/>
	</linearGradient>
	<rect x="1.3" y="0.5" class="st1" width="1279.1" height="1024.9"/>
</g>
<g id="Calque_4" class="st0">
	<g id="ollorun_00000000198329676477631820000009115076244084926623_" class="st2">
		
			<linearGradient id="SVGID_00000031168307515276257000000005349792588023033236_" gradientUnits="userSpaceOnUse" x1="834.442" y1="597.3578" x2="834.442" y2="508.8553">
			<stop  offset="3.535400e-02" style="stop-color:#C19859"/>
			<stop  offset="0.126" style="stop-color:#D0B17B"/>
			<stop  offset="0.3367" style="stop-color:#F2E7C4"/>
			<stop  offset="0.4343" style="stop-color:#FFFCE1"/>
			<stop  offset="0.4361" style="stop-color:#FAF5D8"/>
			<stop  offset="0.4511" style="stop-color:#D2BD8C"/>
			<stop  offset="0.4646" style="stop-color:#B29050"/>
			<stop  offset="0.4759" style="stop-color:#9B6F25"/>
			<stop  offset="0.4847" style="stop-color:#8D5B0A"/>
			<stop  offset="0.4899" style="stop-color:#885400"/>
			<stop  offset="0.5159" style="stop-color:#8C5804"/>
			<stop  offset="0.5435" style="stop-color:#996510"/>
			<stop  offset="0.5716" style="stop-color:#AE7925"/>
			<stop  offset="0.5909" style="stop-color:#C18C37"/>
			<stop  offset="0.6095" style="stop-color:#CA9841"/>
			<stop  offset="0.6755" style="stop-color:#E7BD60"/>
			<stop  offset="0.7289" style="stop-color:#F9D473"/>
			<stop  offset="0.7626" style="stop-color:#FFDC7A"/>
			<stop  offset="0.8818" style="stop-color:#D0A048"/>
			<stop  offset="0.9192" style="stop-color:#C18C37"/>
		</linearGradient>
		<path style="fill:url(#SVGID_00000031168307515276257000000005349792588023033236_);" d="M860.6,519.1
			c-7.4-6.8-16.2-10.3-26.3-10.3c-10.1,0-18.9,3.5-26.3,10.3c-7.2,6.8-10.9,17-10.9,31v47.2h19.7v-47.2c0-14.8,6.8-22.4,17.5-22.4
			c10.7,0,17.7,7.8,17.7,22.4v47.2h19.7v-47.2C871.7,536.4,868,525.9,860.6,519.1z"/>
		
			<linearGradient id="SVGID_00000023255433807078059190000006652708685484747679_" gradientUnits="userSpaceOnUse" x1="750.3263" y1="598.383" x2="750.3263" y2="509.8851">
			<stop  offset="3.535400e-02" style="stop-color:#C19859"/>
			<stop  offset="0.126" style="stop-color:#D0B17B"/>
			<stop  offset="0.3367" style="stop-color:#F2E7C4"/>
			<stop  offset="0.4343" style="stop-color:#FFFCE1"/>
			<stop  offset="0.4361" style="stop-color:#FAF5D8"/>
			<stop  offset="0.4511" style="stop-color:#D2BD8C"/>
			<stop  offset="0.4646" style="stop-color:#B29050"/>
			<stop  offset="0.4759" style="stop-color:#9B6F25"/>
			<stop  offset="0.4847" style="stop-color:#8D5B0A"/>
			<stop  offset="0.4899" style="stop-color:#885400"/>
			<stop  offset="0.5159" style="stop-color:#8C5804"/>
			<stop  offset="0.5435" style="stop-color:#996510"/>
			<stop  offset="0.5716" style="stop-color:#AE7925"/>
			<stop  offset="0.5909" style="stop-color:#C18C37"/>
			<stop  offset="0.6095" style="stop-color:#CA9841"/>
			<stop  offset="0.6755" style="stop-color:#E7BD60"/>
			<stop  offset="0.7289" style="stop-color:#F9D473"/>
			<stop  offset="0.7626" style="stop-color:#FFDC7A"/>
			<stop  offset="0.8818" style="stop-color:#D0A048"/>
			<stop  offset="0.9192" style="stop-color:#C18C37"/>
		</linearGradient>
		<path style="fill:url(#SVGID_00000023255433807078059190000006652708685484747679_);" d="M767.9,557.1c0,14.6-7,22.4-17.7,22.4
			s-17.5-7.6-17.5-22.4v-31.6l-19.7-15.6v47.2c0,14,3.7,24.4,10.9,31.2c7.4,6.8,16.2,10.1,26.3,10.1s18.9-3.5,26.3-10.3
			c7.4-6.8,11.1-17.2,11.1-31v-31.6l-19.7-15.6V557.1z"/>
		
			<linearGradient id="SVGID_00000130615079305302343900000000547448572771361938_" gradientUnits="userSpaceOnUse" x1="684.4854" y1="597.3578" x2="684.4854" y2="509.8851">
			<stop  offset="3.535400e-02" style="stop-color:#C19859"/>
			<stop  offset="0.126" style="stop-color:#D0B17B"/>
			<stop  offset="0.3367" style="stop-color:#F2E7C4"/>
			<stop  offset="0.4343" style="stop-color:#FFFCE1"/>
			<stop  offset="0.4361" style="stop-color:#FAF5D8"/>
			<stop  offset="0.4511" style="stop-color:#D2BD8C"/>
			<stop  offset="0.4646" style="stop-color:#B29050"/>
			<stop  offset="0.4759" style="stop-color:#9B6F25"/>
			<stop  offset="0.4847" style="stop-color:#8D5B0A"/>
			<stop  offset="0.4899" style="stop-color:#885400"/>
			<stop  offset="0.5159" style="stop-color:#8C5804"/>
			<stop  offset="0.5435" style="stop-color:#996510"/>
			<stop  offset="0.5716" style="stop-color:#AE7925"/>
			<stop  offset="0.5909" style="stop-color:#C18C37"/>
			<stop  offset="0.6095" style="stop-color:#CA9841"/>
			<stop  offset="0.6755" style="stop-color:#E7BD60"/>
			<stop  offset="0.7289" style="stop-color:#F9D473"/>
			<stop  offset="0.7626" style="stop-color:#FFDC7A"/>
			<stop  offset="0.8818" style="stop-color:#D0A048"/>
			<stop  offset="0.9192" style="stop-color:#C18C37"/>
		</linearGradient>
		<path style="fill:url(#SVGID_00000130615079305302343900000000547448572771361938_);" d="M665.5,545.2v52.2H685v-52.2
			c0-10.9,4.9-16.4,14.8-16.4h3.7v-18.9h-4.7C679.7,509.9,665.5,519.9,665.5,545.2z"/>
		
			<linearGradient id="SVGID_00000000938348615031119820000007043551715912077211_" gradientUnits="userSpaceOnUse" x1="611.0475" y1="598.383" x2="611.0475" y2="508.8553">
			<stop  offset="3.535400e-02" style="stop-color:#C19859"/>
			<stop  offset="0.126" style="stop-color:#D0B17B"/>
			<stop  offset="0.3367" style="stop-color:#F2E7C4"/>
			<stop  offset="0.4343" style="stop-color:#FFFCE1"/>
			<stop  offset="0.4361" style="stop-color:#FAF5D8"/>
			<stop  offset="0.4511" style="stop-color:#D2BD8C"/>
			<stop  offset="0.4646" style="stop-color:#B29050"/>
			<stop  offset="0.4759" style="stop-color:#9B6F25"/>
			<stop  offset="0.4847" style="stop-color:#8D5B0A"/>
			<stop  offset="0.4899" style="stop-color:#885400"/>
			<stop  offset="0.5159" style="stop-color:#8C5804"/>
			<stop  offset="0.5435" style="stop-color:#996510"/>
			<stop  offset="0.5716" style="stop-color:#AE7925"/>
			<stop  offset="0.5909" style="stop-color:#C18C37"/>
			<stop  offset="0.6095" style="stop-color:#CA9841"/>
			<stop  offset="0.6755" style="stop-color:#E7BD60"/>
			<stop  offset="0.7289" style="stop-color:#F9D473"/>
			<stop  offset="0.7626" style="stop-color:#FFDC7A"/>
			<stop  offset="0.8818" style="stop-color:#D0A048"/>
			<stop  offset="0.9192" style="stop-color:#C18C37"/>
		</linearGradient>
		<path style="fill:url(#SVGID_00000000938348615031119820000007043551715912077211_);" d="M611.1,508.9c-12.5,0-23,4.3-31.8,13.1
			c-8.8,8.8-13.1,19.3-13.1,31.6c0,12.5,4.3,23,13.1,31.8c8.8,8.6,19.3,12.9,31.8,12.9c12.3,0,22.8-4.3,31.6-12.9
			c8.8-8.8,13.1-19.3,13.1-31.8c0-12.3-4.3-22.8-13.1-31.6C633.9,513.2,623.5,508.9,611.1,508.9z M629,572.3
			c-4.7,4.7-10.7,7.2-17.9,7.2c-7.2,0-13.1-2.5-18.1-7.2c-4.7-4.9-7.2-11.1-7.2-18.7c0-7.6,2.5-13.8,7.2-18.5
			c4.9-4.9,10.9-7.4,18.1-7.4c7.2,0,13.1,2.5,17.9,7.4c4.9,4.7,7.4,10.9,7.4,18.5C636.4,561.2,633.9,567.4,629,572.3z"/>
		
			<linearGradient id="SVGID_00000139257147592515526650000007656860123806325669_" gradientUnits="userSpaceOnUse" x1="546.7471" y1="597.3578" x2="546.7471" y2="459.7791">
			<stop  offset="3.535400e-02" style="stop-color:#C19859"/>
			<stop  offset="0.126" style="stop-color:#D0B17B"/>
			<stop  offset="0.3367" style="stop-color:#F2E7C4"/>
			<stop  offset="0.4343" style="stop-color:#FFFCE1"/>
			<stop  offset="0.4361" style="stop-color:#FAF5D8"/>
			<stop  offset="0.4511" style="stop-color:#D2BD8C"/>
			<stop  offset="0.4646" style="stop-color:#B29050"/>
			<stop  offset="0.4759" style="stop-color:#9B6F25"/>
			<stop  offset="0.4847" style="stop-color:#8D5B0A"/>
			<stop  offset="0.4899" style="stop-color:#885400"/>
			<stop  offset="0.5159" style="stop-color:#8C5804"/>
			<stop  offset="0.5435" style="stop-color:#996510"/>
			<stop  offset="0.5716" style="stop-color:#AE7925"/>
			<stop  offset="0.5909" style="stop-color:#C18C37"/>
			<stop  offset="0.6095" style="stop-color:#CA9841"/>
			<stop  offset="0.6755" style="stop-color:#E7BD60"/>
			<stop  offset="0.7289" style="stop-color:#F9D473"/>
			<stop  offset="0.7626" style="stop-color:#FFDC7A"/>
			<stop  offset="0.8818" style="stop-color:#D0A048"/>
			<stop  offset="0.9192" style="stop-color:#C18C37"/>
		</linearGradient>
		<polygon style="fill:url(#SVGID_00000139257147592515526650000007656860123806325669_);" points="536.9,597.4 556.6,597.4 
			556.6,475.4 536.9,459.8 		"/>
		
			<linearGradient id="SVGID_00000038414545362288135980000005120799257268519574_" gradientUnits="userSpaceOnUse" x1="517.4559" y1="597.3578" x2="517.4559" y2="459.7791">
			<stop  offset="3.535400e-02" style="stop-color:#C19859"/>
			<stop  offset="0.126" style="stop-color:#D0B17B"/>
			<stop  offset="0.3367" style="stop-color:#F2E7C4"/>
			<stop  offset="0.4343" style="stop-color:#FFFCE1"/>
			<stop  offset="0.4361" style="stop-color:#FAF5D8"/>
			<stop  offset="0.4511" style="stop-color:#D2BD8C"/>
			<stop  offset="0.4646" style="stop-color:#B29050"/>
			<stop  offset="0.4759" style="stop-color:#9B6F25"/>
			<stop  offset="0.4847" style="stop-color:#8D5B0A"/>
			<stop  offset="0.4899" style="stop-color:#885400"/>
			<stop  offset="0.5159" style="stop-color:#8C5804"/>
			<stop  offset="0.5435" style="stop-color:#996510"/>
			<stop  offset="0.5716" style="stop-color:#AE7925"/>
			<stop  offset="0.5909" style="stop-color:#C18C37"/>
			<stop  offset="0.6095" style="stop-color:#CA9841"/>
			<stop  offset="0.6755" style="stop-color:#E7BD60"/>
			<stop  offset="0.7289" style="stop-color:#F9D473"/>
			<stop  offset="0.7626" style="stop-color:#FFDC7A"/>
			<stop  offset="0.8818" style="stop-color:#D0A048"/>
			<stop  offset="0.9192" style="stop-color:#C18C37"/>
		</linearGradient>
		<polygon style="fill:url(#SVGID_00000038414545362288135980000005120799257268519574_);" points="507.6,597.4 527.3,597.4 
			527.3,475.4 507.6,459.8 		"/>
		
			<linearGradient id="SVGID_00000066480712278325502260000000252382587884215964_" gradientUnits="userSpaceOnUse" x1="453.1554" y1="598.383" x2="453.1554" y2="508.8553">
			<stop  offset="3.535400e-02" style="stop-color:#C19859"/>
			<stop  offset="0.126" style="stop-color:#D0B17B"/>
			<stop  offset="0.3367" style="stop-color:#F2E7C4"/>
			<stop  offset="0.4343" style="stop-color:#FFFCE1"/>
			<stop  offset="0.4361" style="stop-color:#FAF5D8"/>
			<stop  offset="0.4511" style="stop-color:#D2BD8C"/>
			<stop  offset="0.4646" style="stop-color:#B29050"/>
			<stop  offset="0.4759" style="stop-color:#9B6F25"/>
			<stop  offset="0.4847" style="stop-color:#8D5B0A"/>
			<stop  offset="0.4899" style="stop-color:#885400"/>
			<stop  offset="0.5159" style="stop-color:#8C5804"/>
			<stop  offset="0.5435" style="stop-color:#996510"/>
			<stop  offset="0.5716" style="stop-color:#AE7925"/>
			<stop  offset="0.5909" style="stop-color:#C18C37"/>
			<stop  offset="0.6095" style="stop-color:#CA9841"/>
			<stop  offset="0.6755" style="stop-color:#E7BD60"/>
			<stop  offset="0.7289" style="stop-color:#F9D473"/>
			<stop  offset="0.7626" style="stop-color:#FFDC7A"/>
			<stop  offset="0.8818" style="stop-color:#D0A048"/>
			<stop  offset="0.9192" style="stop-color:#C18C37"/>
		</linearGradient>
		<path style="fill:url(#SVGID_00000066480712278325502260000000252382587884215964_);" d="M453.3,508.9c-12.5,0-23,4.3-31.8,13.1
			c-8.8,8.8-13.1,19.3-13.1,31.6c0,12.5,4.3,23,13.1,31.8c8.8,8.6,19.3,12.9,31.8,12.9c12.3,0,22.8-4.3,31.6-12.9
			c8.8-8.8,13.1-19.3,13.1-31.8c0-12.3-4.3-22.8-13.1-31.6C476,513.2,465.6,508.9,453.3,508.9z M471.1,572.3
			c-4.7,4.7-10.7,7.2-17.9,7.2c-7.2,0-13.1-2.5-18.1-7.2c-4.7-4.9-7.2-11.1-7.2-18.7c0-7.6,2.5-13.8,7.2-18.5
			c4.9-4.9,10.9-7.4,18.1-7.4c7.2,0,13.1,2.5,17.9,7.4c4.9,4.7,7.4,10.9,7.4,18.5C478.5,561.2,476,567.4,471.1,572.3z"/>
	</g>
</g>
<g id="Calque_2">
	<g>
		<g id="_x32__00000162320387741725218480000009445320617027752075_">
			
				<linearGradient id="SVGID_00000143593870614339112680000006074011539532943754_" gradientUnits="userSpaceOnUse" x1="387.6132" y1="374.6597" x2="632.6617" y2="374.6597">
				<stop  offset="3.535400e-02" style="stop-color:#C19859"/>
				<stop  offset="0.126" style="stop-color:#D0B17B"/>
				<stop  offset="0.3367" style="stop-color:#F2E7C4"/>
				<stop  offset="0.4343" style="stop-color:#FFFCE1"/>
				<stop  offset="0.4361" style="stop-color:#FAF5D8"/>
				<stop  offset="0.4511" style="stop-color:#D2BD8C"/>
				<stop  offset="0.4646" style="stop-color:#B29050"/>
				<stop  offset="0.4759" style="stop-color:#9B6F25"/>
				<stop  offset="0.4847" style="stop-color:#8D5B0A"/>
				<stop  offset="0.4899" style="stop-color:#885400"/>
				<stop  offset="0.5159" style="stop-color:#8C5804"/>
				<stop  offset="0.5435" style="stop-color:#996510"/>
				<stop  offset="0.5716" style="stop-color:#AE7925"/>
				<stop  offset="0.5909" style="stop-color:#C18C37"/>
				<stop  offset="0.6095" style="stop-color:#CA9841"/>
				<stop  offset="0.6755" style="stop-color:#E7BD60"/>
				<stop  offset="0.7289" style="stop-color:#F9D473"/>
				<stop  offset="0.7626" style="stop-color:#FFDC7A"/>
				<stop  offset="0.8818" style="stop-color:#D0A048"/>
				<stop  offset="0.9192" style="stop-color:#C18C37"/>
			</linearGradient>
			<path style="fill:url(#SVGID_00000143593870614339112680000006074011539532943754_);" d="M632.5,466.2
				c-1.9-20.9-27.3-35.8-53.1-47.4c-16.1-7.3-32.3-13.3-43-18.8c-3-1.5-6.1-3.1-9.4-4.7c-33-16.5-79.1-40-105.6-71.2
				c-33.6-39.6-29.7-76.7,7.1-61.8c-23.4-12.9-35.7-7.5-39.4,5.7c-9,31.5,23,71.1,45,91c32.6,29.4,64.5,43,98.5,56.7
				c4.2,1.7,8.4,3.4,12.7,5.1c7.9,3.2,15.8,6.4,24,10c16,7,46.6,19.4,50.4,37.6c3.7,17.3-19.6,28.3-31.5,13.8
				C603.6,506.4,634.8,490.8,632.5,466.2z"/>
			
				<linearGradient id="SVGID_00000057863119731069494290000000397211625946716806_" gradientUnits="userSpaceOnUse" x1="647.3477" y1="374.6478" x2="892.3868" y2="374.6478">
				<stop  offset="3.535400e-02" style="stop-color:#C19859"/>
				<stop  offset="0.126" style="stop-color:#D0B17B"/>
				<stop  offset="0.3367" style="stop-color:#F2E7C4"/>
				<stop  offset="0.4343" style="stop-color:#FFFCE1"/>
				<stop  offset="0.4361" style="stop-color:#FAF5D8"/>
				<stop  offset="0.4511" style="stop-color:#D2BD8C"/>
				<stop  offset="0.4646" style="stop-color:#B29050"/>
				<stop  offset="0.4759" style="stop-color:#9B6F25"/>
				<stop  offset="0.4847" style="stop-color:#8D5B0A"/>
				<stop  offset="0.4899" style="stop-color:#885400"/>
				<stop  offset="0.5159" style="stop-color:#8C5804"/>
				<stop  offset="0.5435" style="stop-color:#996510"/>
				<stop  offset="0.5716" style="stop-color:#AE7925"/>
				<stop  offset="0.5909" style="stop-color:#C18C37"/>
				<stop  offset="0.6095" style="stop-color:#CA9841"/>
				<stop  offset="0.6755" style="stop-color:#E7BD60"/>
				<stop  offset="0.7289" style="stop-color:#F9D473"/>
				<stop  offset="0.7626" style="stop-color:#FFDC7A"/>
				<stop  offset="0.8818" style="stop-color:#D0A048"/>
				<stop  offset="0.9192" style="stop-color:#C18C37"/>
			</linearGradient>
			<path style="fill:url(#SVGID_00000057863119731069494290000000397211625946716806_);" d="M890.9,268c-3.8-13.2-16-18.6-39.5-5.7
				c36.8-14.9,40.8,22.1,7.1,61.8c-26.6,31.3-72.8,54.7-105.8,71.3c-3.2,1.6-6.3,3.1-9.2,4.6c-10.7,5.4-26.8,11.4-42.8,18.6
				c-25.9,11.7-51.4,26.5-53.3,47.5c-2.3,24.7,28.9,40.3,44.3,16.3c-11.8,14.4-35.3,3.5-31.5-13.8c3.9-18.3,34.5-30.6,50.4-37.6
				c8.1-3.6,16.1-6.8,23.9-10c4.2-1.7,8.4-3.4,12.5-5c34.1-13.7,66-27.4,98.7-56.8C867.8,339.2,899.8,299.6,890.9,268z"/>
		</g>
		<g id="_x31__00000019679215310753327740000001851320960663976081_">
			
				<linearGradient id="SVGID_00000008133507738067518890000004497205942244062377_" gradientUnits="userSpaceOnUse" x1="412.1525" y1="343.6431" x2="597.8998" y2="343.6431">
				<stop  offset="3.535400e-02" style="stop-color:#C19859"/>
				<stop  offset="0.126" style="stop-color:#D0B17B"/>
				<stop  offset="0.3367" style="stop-color:#F2E7C4"/>
				<stop  offset="0.4343" style="stop-color:#FFFCE1"/>
				<stop  offset="0.4361" style="stop-color:#FAF5D8"/>
				<stop  offset="0.4511" style="stop-color:#D2BD8C"/>
				<stop  offset="0.4646" style="stop-color:#B29050"/>
				<stop  offset="0.4759" style="stop-color:#9B6F25"/>
				<stop  offset="0.4847" style="stop-color:#8D5B0A"/>
				<stop  offset="0.4899" style="stop-color:#885400"/>
				<stop  offset="0.5159" style="stop-color:#8C5804"/>
				<stop  offset="0.5435" style="stop-color:#996510"/>
				<stop  offset="0.5716" style="stop-color:#AE7925"/>
				<stop  offset="0.5909" style="stop-color:#C18C37"/>
				<stop  offset="0.6095" style="stop-color:#CA9841"/>
				<stop  offset="0.6755" style="stop-color:#E7BD60"/>
				<stop  offset="0.7289" style="stop-color:#F9D473"/>
				<stop  offset="0.7626" style="stop-color:#FFDC7A"/>
				<stop  offset="0.8818" style="stop-color:#D0A048"/>
				<stop  offset="0.9192" style="stop-color:#C18C37"/>
			</linearGradient>
			<path style="fill:url(#SVGID_00000008133507738067518890000004497205942244062377_);" d="M582.6,412.8c-2-1.1-3.9-2.1-5.8-3.2
				c-18.4-10.2-34.8-20-49.2-29.2c-1.9-1.2-3.7-2.4-5.5-3.6c-117.6-76.7-100.9-116-69.9-97.6c-33.9-40.5-97,19.6,72.8,108.3
				c15.5,8.1,33,16.5,52.7,25c6.5,2.8,13.2,5.7,20.2,8.5C592.7,418.2,587.6,415.5,582.6,412.8z"/>
			
				<linearGradient id="SVGID_00000047780399092124983370000000739028849737702039_" gradientUnits="userSpaceOnUse" x1="682.1148" y1="343.6065" x2="867.8517" y2="343.6065">
				<stop  offset="3.535400e-02" style="stop-color:#C19859"/>
				<stop  offset="0.126" style="stop-color:#D0B17B"/>
				<stop  offset="0.3367" style="stop-color:#F2E7C4"/>
				<stop  offset="0.4343" style="stop-color:#FFFCE1"/>
				<stop  offset="0.4361" style="stop-color:#FAF5D8"/>
				<stop  offset="0.4511" style="stop-color:#D2BD8C"/>
				<stop  offset="0.4646" style="stop-color:#B29050"/>
				<stop  offset="0.4759" style="stop-color:#9B6F25"/>
				<stop  offset="0.4847" style="stop-color:#8D5B0A"/>
				<stop  offset="0.4899" style="stop-color:#885400"/>
				<stop  offset="0.5159" style="stop-color:#8C5804"/>
				<stop  offset="0.5435" style="stop-color:#996510"/>
				<stop  offset="0.5716" style="stop-color:#AE7925"/>
				<stop  offset="0.5909" style="stop-color:#C18C37"/>
				<stop  offset="0.6095" style="stop-color:#CA9841"/>
				<stop  offset="0.6755" style="stop-color:#E7BD60"/>
				<stop  offset="0.7289" style="stop-color:#F9D473"/>
				<stop  offset="0.7626" style="stop-color:#FFDC7A"/>
				<stop  offset="0.8818" style="stop-color:#D0A048"/>
				<stop  offset="0.9192" style="stop-color:#C18C37"/>
			</linearGradient>
			<path style="fill:url(#SVGID_00000047780399092124983370000000739028849737702039_);" d="M827.8,279.2
				c31.1-18.5,47.8,20.9-70.1,97.7c-1.8,1.2-3.7,2.4-5.5,3.6c-14.3,9.1-30.5,18.8-48.8,28.9c-1.9,1.1-3.9,2.1-5.8,3.2
				c-5,2.7-10.2,5.5-15.5,8.3c7.1-2.9,13.9-5.8,20.5-8.6c19.5-8.5,36.8-16.7,52.2-24.8C924.9,298.8,861.7,238.6,827.8,279.2z"/>
		</g>
		<g id="WH_00000026841733324587228660000003094707059113823929_">
			<g id="_x32__00000067199735723553082600000011184302627005412538_">
				
					<linearGradient id="SVGID_00000160185946206037476270000006861376495251541949_" gradientUnits="userSpaceOnUse" x1="550.2606" y1="345.1862" x2="550.2606" y2="115.0268">
					<stop  offset="0" style="stop-color:#2D95F7"/>
					<stop  offset="7.972282e-02" style="stop-color:#30A8F2"/>
					<stop  offset="0.2357" style="stop-color:#36C6EA"/>
					<stop  offset="0.3998" style="stop-color:#3ADEE4"/>
					<stop  offset="0.5736" style="stop-color:#3DEFDF"/>
					<stop  offset="0.7635" style="stop-color:#3EF9DD"/>
					<stop  offset="1" style="stop-color:#3FFCDC"/>
				</linearGradient>
				<polygon style="fill:url(#SVGID_00000160185946206037476270000006861376495251541949_);" points="570.5,115 530,115 530,205.3 
					570.5,345.2 				"/>
				
					<linearGradient id="SVGID_00000131361889257116329690000007364705967837949353_" gradientUnits="userSpaceOnUse" x1="729.7396" y1="345.1862" x2="729.7396" y2="115.0268">
					<stop  offset="0" style="stop-color:#2D95F7"/>
					<stop  offset="7.972282e-02" style="stop-color:#30A8F2"/>
					<stop  offset="0.2357" style="stop-color:#36C6EA"/>
					<stop  offset="0.3998" style="stop-color:#3ADEE4"/>
					<stop  offset="0.5736" style="stop-color:#3DEFDF"/>
					<stop  offset="0.7635" style="stop-color:#3EF9DD"/>
					<stop  offset="1" style="stop-color:#3FFCDC"/>
				</linearGradient>
				<polygon style="fill:url(#SVGID_00000131361889257116329690000007364705967837949353_);" points="750,115 709.5,115 
					709.5,345.2 750,205.3 				"/>
			</g>
			<g id="_x31__00000077282779301089536860000004655521972413466526_">
				
					<linearGradient id="SVGID_00000000193306454813706730000006811729334314430103_" gradientUnits="userSpaceOnUse" x1="520.0682" y1="406.0627" x2="520.0682" y2="115.0268">
					<stop  offset="3.535400e-02" style="stop-color:#C19859"/>
					<stop  offset="0.126" style="stop-color:#D0B17B"/>
					<stop  offset="0.3367" style="stop-color:#F2E7C4"/>
					<stop  offset="0.4343" style="stop-color:#FFFCE1"/>
					<stop  offset="0.4361" style="stop-color:#FAF5D8"/>
					<stop  offset="0.4511" style="stop-color:#D2BD8C"/>
					<stop  offset="0.4646" style="stop-color:#B29050"/>
					<stop  offset="0.4759" style="stop-color:#9B6F25"/>
					<stop  offset="0.4847" style="stop-color:#8D5B0A"/>
					<stop  offset="0.4899" style="stop-color:#885400"/>
					<stop  offset="0.5159" style="stop-color:#8C5804"/>
					<stop  offset="0.5435" style="stop-color:#996510"/>
					<stop  offset="0.5716" style="stop-color:#AE7925"/>
					<stop  offset="0.5909" style="stop-color:#C18C37"/>
					<stop  offset="0.6095" style="stop-color:#CA9841"/>
					<stop  offset="0.6755" style="stop-color:#E7BD60"/>
					<stop  offset="0.7289" style="stop-color:#F9D473"/>
					<stop  offset="0.7626" style="stop-color:#FFDC7A"/>
					<stop  offset="0.8818" style="stop-color:#D0A048"/>
					<stop  offset="0.9192" style="stop-color:#C18C37"/>
				</linearGradient>
				<path style="fill:url(#SVGID_00000000193306454813706730000006811729334314430103_);" d="M570.5,364.3L530,224.4L498.3,115
					h-40.8l70.1,258.6c0.8,0.5,1.6,1,2.4,1.5c3.9,2.5,8,5,12.2,7.6c10.6,6.5,22.1,13.2,34.6,20.1c1.9,1.1,3.9,2.1,5.8,3.2
					L570.5,364.3z"/>
				
					<linearGradient id="SVGID_00000121984502455536565670000016134562823311936181_" gradientUnits="userSpaceOnUse" x1="759.9557" y1="405.8897" x2="759.9557" y2="115.0268">
					<stop  offset="3.535400e-02" style="stop-color:#C19859"/>
					<stop  offset="0.126" style="stop-color:#D0B17B"/>
					<stop  offset="0.3367" style="stop-color:#F2E7C4"/>
					<stop  offset="0.4343" style="stop-color:#FFFCE1"/>
					<stop  offset="0.4361" style="stop-color:#FAF5D8"/>
					<stop  offset="0.4511" style="stop-color:#D2BD8C"/>
					<stop  offset="0.4646" style="stop-color:#B29050"/>
					<stop  offset="0.4759" style="stop-color:#9B6F25"/>
					<stop  offset="0.4847" style="stop-color:#8D5B0A"/>
					<stop  offset="0.4899" style="stop-color:#885400"/>
					<stop  offset="0.5159" style="stop-color:#8C5804"/>
					<stop  offset="0.5435" style="stop-color:#996510"/>
					<stop  offset="0.5716" style="stop-color:#AE7925"/>
					<stop  offset="0.5909" style="stop-color:#C18C37"/>
					<stop  offset="0.6095" style="stop-color:#CA9841"/>
					<stop  offset="0.6755" style="stop-color:#E7BD60"/>
					<stop  offset="0.7289" style="stop-color:#F9D473"/>
					<stop  offset="0.7626" style="stop-color:#FFDC7A"/>
					<stop  offset="0.8818" style="stop-color:#D0A048"/>
					<stop  offset="0.9192" style="stop-color:#C18C37"/>
				</linearGradient>
				<path style="fill:url(#SVGID_00000121984502455536565670000016134562823311936181_);" d="M781.9,115l-31.9,110L709.5,365
					l-11.9,40.9c2-1.1,3.9-2.1,5.8-3.2c18.3-10.1,34.4-19.8,48.8-28.9L822.3,115H781.9z"/>
			</g>
		</g>
		<g id="Boule_00000128443396553362196140000011711203751113734054_">
			
				<linearGradient id="SVGID_00000078735973675981506890000013523727847407555762_" gradientUnits="userSpaceOnUse" x1="606.3575" y1="214.1465" x2="645.1562" y2="214.1465">
				<stop  offset="0" style="stop-color:#2D95F7"/>
				<stop  offset="1" style="stop-color:#3FFCDC"/>
			</linearGradient>
			<path style="fill:url(#SVGID_00000078735973675981506890000013523727847407555762_);" d="M612.1,219.5c4.5-4.5,5.8-5.1,7.9-3
				c1.4,1.4,4.5,0.6,6.9-1.7c4.1-4,5.6-4.5,9.2-1.1c2.1,2,5.7,1.9,7.7,0c0.8-0.8,1.2-1.8,1.3-2.8c0,0,0,0,0,0c0,0,0,0,0-0.1
				c0-0.1,0-0.2,0-0.4c0,0,0-0.1,0-0.1c0-0.2,0-0.3-0.1-0.5c0,0,0,0,0,0c0-0.2-0.1-0.3-0.1-0.5c0-0.1,0-0.1-0.1-0.2
				c0-0.1-0.1-0.2-0.1-0.3c0-0.1-0.1-0.1-0.1-0.2c0-0.1-0.1-0.2-0.1-0.3c0-0.1-0.1-0.1-0.1-0.2c-0.1-0.1-0.1-0.2-0.2-0.3
				c0-0.1-0.1-0.1-0.1-0.2c-0.1-0.1-0.2-0.2-0.2-0.3c0,0-0.1-0.1-0.1-0.1c-0.1-0.1-0.2-0.3-0.4-0.4c-0.6-0.6-1.3-0.9-2-1.1
				c-1.5-0.5-3.1-0.2-4.4,0.7c-0.2,0.1-0.3,0.2-0.5,0.4c-0.4,0.4-0.8,0.7-1.1,1c-3.3,2.9-4.7,2.5-7.1,0.3c-0.2-0.1-0.3-0.3-0.5-0.3
				c-0.1,0-0.1,0-0.2-0.1c-0.1,0-0.3-0.1-0.4-0.1c-0.1,0-0.2,0-0.3,0c-0.1,0-0.3,0-0.4,0c-0.1,0-0.2,0.1-0.4,0.1
				c-0.1,0-0.3,0.1-0.4,0.1c-0.1,0-0.3,0.1-0.4,0.2c-0.1,0.1-0.3,0.1-0.4,0.2c-0.1,0.1-0.3,0.2-0.4,0.2c-0.2,0.1-0.3,0.2-0.5,0.3
				c-0.1,0.1-0.3,0.2-0.4,0.3c-0.2,0.1-0.3,0.2-0.5,0.3c-0.1,0.1-0.3,0.2-0.4,0.4c-0.1,0.1-0.3,0.2-0.4,0.3c0,0,0,0,0,0
				c0,0-0.1,0.1-0.1,0.1c-4.2,4.2-5.6,5-7,3.6c-0.4-0.4-2.6,1.3-5,3.7c-2.4,2.4-4.2,4.4-3.7,5C607,223.1,609.6,221.9,612.1,219.5z"
				/>
			
				<linearGradient id="SVGID_00000103253110219684436190000010247037586354415243_" gradientUnits="userSpaceOnUse" x1="600.1667" y1="270.0388" x2="615.2814" y2="270.0388">
				<stop  offset="0" style="stop-color:#2D95F7"/>
				<stop  offset="1" style="stop-color:#3FFCDC"/>
			</linearGradient>
			<path style="fill:url(#SVGID_00000103253110219684436190000010247037586354415243_);" d="M609,267.8c1.3-1.4,0.6-4.6-1.7-7
				c-1.1-1.2-2.4-1.8-3.6-2.1c0,0,0,0,0,0c0,0,0,0,0,0c-0.2,0-0.4,0-0.6-0.1c-0.1,0-0.2,0-0.3,0c-0.2,0-0.3,0-0.5,0
				c-0.1,0-0.2,0-0.3,0c-0.2,0-0.3,0.1-0.5,0.2c-0.1,0-0.1,0-0.2,0.1c-0.2,0.1-0.4,0.3-0.6,0.4c-0.2,0.2-0.4,0.5-0.4,0.8
				c-0.4,1.4,0.6,3.5,2.5,5.4c0,0,0.1,0.1,0.1,0.1c4.3,4.3,4.4,6.1,3.6,7c-0.9,0.9,1.3,2.6,3.7,5c2.4,2.4,4.5,4.2,5,3.7
				c0.5-0.5-0.7-3.2-3.1-5.7C607.6,271.3,607,269.9,609,267.8z"/>
			
				<linearGradient id="SVGID_00000166650389975027612210000000376180757947648954_" gradientUnits="userSpaceOnUse" x1="597.9455" y1="237.1945" x2="646.2115" y2="237.1945">
				<stop  offset="3.535400e-02" style="stop-color:#C19859"/>
				<stop  offset="0.126" style="stop-color:#D0B17B"/>
				<stop  offset="0.3367" style="stop-color:#F2E7C4"/>
				<stop  offset="0.4343" style="stop-color:#FFFCE1"/>
				<stop  offset="0.4361" style="stop-color:#FAF5D8"/>
				<stop  offset="0.4511" style="stop-color:#D2BD8C"/>
				<stop  offset="0.4646" style="stop-color:#B29050"/>
				<stop  offset="0.4759" style="stop-color:#9B6F25"/>
				<stop  offset="0.4847" style="stop-color:#8D5B0A"/>
				<stop  offset="0.4899" style="stop-color:#885400"/>
				<stop  offset="0.5159" style="stop-color:#8C5804"/>
				<stop  offset="0.5435" style="stop-color:#996510"/>
				<stop  offset="0.5716" style="stop-color:#AE7925"/>
				<stop  offset="0.5909" style="stop-color:#C18C37"/>
				<stop  offset="0.6095" style="stop-color:#CA9841"/>
				<stop  offset="0.6755" style="stop-color:#E7BD60"/>
				<stop  offset="0.7289" style="stop-color:#F9D473"/>
				<stop  offset="0.7626" style="stop-color:#FFDC7A"/>
				<stop  offset="0.8818" style="stop-color:#D0A048"/>
				<stop  offset="0.9192" style="stop-color:#C18C37"/>
			</linearGradient>
			<path style="fill:url(#SVGID_00000166650389975027612210000000376180757947648954_);" d="M606.2,251.5c1.9-2,1.9-5.6,0-7.7
				c-3.2-3.5-3-5.1,1.1-9.3c4.4-4.5,6-4.8,9.2-1.4c2,2,5.6,1.7,8.1-0.8c4.6-4.6,6.5-4.7,10.8-0.5c2.5,2.4,6.6,2.4,9.1,0
				c0.9-0.9,1.4-1.9,1.6-3.1c0,0,0,0,0,0c0,0,0,0,0,0c0-0.2,0.1-0.4,0.1-0.7c0-0.1,0-0.1,0-0.2c0-0.2,0-0.3,0-0.5c0-0.1,0-0.1,0-0.2
				c0-0.2,0-0.3-0.1-0.5c0-0.1,0-0.1,0-0.2c0-0.2-0.1-0.4-0.2-0.6c0,0,0,0,0,0c-0.1-0.2-0.2-0.4-0.3-0.6c0-0.1-0.1-0.1-0.1-0.2
				c-0.1-0.1-0.2-0.3-0.2-0.4c0-0.1-0.1-0.1-0.1-0.2c-0.1-0.1-0.2-0.3-0.3-0.4c0-0.1-0.1-0.1-0.1-0.2c-0.2-0.2-0.3-0.4-0.5-0.5
				c-0.2-0.1-0.3-0.3-0.5-0.4c-0.3-0.3-0.7-0.5-1-0.7c-0.2-0.1-0.4-0.2-0.5-0.2c-1.6-0.6-3.3-0.6-4.9,0.2c-0.6,0.3-1.2,0.7-1.7,1.1
				c-0.3,0.3-0.5,0.5-0.8,0.7c-0.1,0.1-0.2,0.1-0.2,0.2c-3.3,2.9-5.2,3.3-7.8,1.1c-0.2-0.1-0.3-0.3-0.5-0.4
				c-0.1-0.1-0.1-0.1-0.2-0.2c-0.2-0.2-0.5-0.4-0.7-0.7c0,0,0,0,0,0c-0.9-0.9-2.2-1.2-3.6-1c-0.2,0-0.5,0.1-0.7,0.2
				c-0.2,0.1-0.5,0.1-0.7,0.2c-0.9,0.4-1.9,1-2.7,1.8c-0.8,0.8-1.4,1.4-2.1,2c-2.2,1.9-3.6,2.3-5.1,1.5c-0.5-0.3-1-0.7-1.6-1.3
				c-1.2-1.2-3.9-0.1-6.2,2.2c-2.3,2.3-3.3,5-2.1,6.2c2.6,2.8,2.4,4.4-1.4,8.3c-1.8,1.9-1.9,4.9,0,6.9
				C601.2,253.1,604.3,253.5,606.2,251.5z"/>
			
				<linearGradient id="SVGID_00000115491942662803600040000010506386929633063302_" gradientUnits="userSpaceOnUse" x1="619.4375" y1="283.8976" x2="660.5481" y2="283.8976">
				<stop  offset="3.535400e-02" style="stop-color:#C19859"/>
				<stop  offset="0.126" style="stop-color:#D0B17B"/>
				<stop  offset="0.3367" style="stop-color:#F2E7C4"/>
				<stop  offset="0.4343" style="stop-color:#FFFCE1"/>
				<stop  offset="0.4361" style="stop-color:#FAF5D8"/>
				<stop  offset="0.4511" style="stop-color:#D2BD8C"/>
				<stop  offset="0.4646" style="stop-color:#B29050"/>
				<stop  offset="0.4759" style="stop-color:#9B6F25"/>
				<stop  offset="0.4847" style="stop-color:#8D5B0A"/>
				<stop  offset="0.4899" style="stop-color:#885400"/>
				<stop  offset="0.5159" style="stop-color:#8C5804"/>
				<stop  offset="0.5435" style="stop-color:#996510"/>
				<stop  offset="0.5716" style="stop-color:#AE7925"/>
				<stop  offset="0.5909" style="stop-color:#C18C37"/>
				<stop  offset="0.6095" style="stop-color:#CA9841"/>
				<stop  offset="0.6755" style="stop-color:#E7BD60"/>
				<stop  offset="0.7289" style="stop-color:#F9D473"/>
				<stop  offset="0.7626" style="stop-color:#FFDC7A"/>
				<stop  offset="0.8818" style="stop-color:#D0A048"/>
				<stop  offset="0.9192" style="stop-color:#C18C37"/>
			</linearGradient>
			<path style="fill:url(#SVGID_00000115491942662803600040000010506386929633063302_);" d="M656.9,278.2
				C656.9,278.2,656.9,278.2,656.9,278.2c-0.2,0-0.3,0.1-0.5,0.1c-0.2,0.1-0.3,0.1-0.5,0.2c-0.2,0.1-0.4,0.2-0.5,0.3
				c-0.1,0.1-0.3,0.1-0.4,0.2c-0.2,0.1-0.4,0.3-0.6,0.4c-0.1,0.1-0.2,0.1-0.3,0.2c-0.3,0.2-0.6,0.5-0.9,0.8
				c-2.7,2.7-4.4,3.7-6.1,3.2c-0.4-0.1-0.9-0.3-1.3-0.6c-0.1-0.1-0.2-0.2-0.4-0.3c-0.1,0-0.1-0.1-0.2-0.1c-0.1,0-0.1-0.1-0.2-0.2
				c-0.3-0.3-0.7-0.6-1-0.9c-0.5-0.4-1-0.8-1.6-1c-0.1,0-0.1-0.1-0.2-0.1c-2-0.7-4.4-0.4-5.9,1.1c-3.5,3.3-5,3-9.2-1.1
				c-0.6-0.6-1.2-1.1-1.9-1.4c-1.6-0.9-3.3-1.1-4.4-0.7c-0.2,0.1-0.5,0.2-0.6,0.4c-0.3,0.3-0.5,0.7-0.5,1.1c0,0,0,0.1,0,0.1
				c0,0,0,0,0,0c0,0.5,0.1,1.1,0.3,1.7c0.4,1.1,1.3,2.3,2.4,3.4l0.1,0.1c0,0,0,0,0,0c2.3,2.2,4.9,3.1,6.1,2c2.7-2.6,4.3-2.4,8.2,1.3
				c1.9,1.8,4.9,1.8,6.9,0c3.9-3.7,5.5-3.9,8.2-1.3c1.2,1.2,3.9,0.2,6.2-2c2.3-2.3,3.5-5,2.2-6.3
				C659.4,278.1,658.2,277.9,656.9,278.2z"/>
			
				<linearGradient id="SVGID_00000126296549933198714150000010556416637973305529_" gradientUnits="userSpaceOnUse" x1="676.2006" y1="252.8232" x2="676.2006" y2="226.9336">
				<stop  offset="8.080800e-02" style="stop-color:#C18C37"/>
				<stop  offset="0.1181" style="stop-color:#D0A048"/>
				<stop  offset="0.2374" style="stop-color:#FFDC7A"/>
				<stop  offset="0.2711" style="stop-color:#F9D473"/>
				<stop  offset="0.3245" style="stop-color:#E7BD60"/>
				<stop  offset="0.3905" style="stop-color:#CA9841"/>
				<stop  offset="0.4091" style="stop-color:#C18C37"/>
				<stop  offset="0.4284" style="stop-color:#AE7925"/>
				<stop  offset="0.4565" style="stop-color:#996510"/>
				<stop  offset="0.4841" style="stop-color:#8C5804"/>
				<stop  offset="0.5101" style="stop-color:#885400"/>
				<stop  offset="0.5153" style="stop-color:#8D5B0A"/>
				<stop  offset="0.5241" style="stop-color:#9B6F25"/>
				<stop  offset="0.5354" style="stop-color:#B29050"/>
				<stop  offset="0.5489" style="stop-color:#D2BD8C"/>
				<stop  offset="0.5639" style="stop-color:#FAF5D8"/>
				<stop  offset="0.5657" style="stop-color:#FFFCE1"/>
				<stop  offset="0.6633" style="stop-color:#F2E7C4"/>
				<stop  offset="0.874" style="stop-color:#D0B17B"/>
				<stop  offset="0.9646" style="stop-color:#C19859"/>
			</linearGradient>
			<path style="fill:url(#SVGID_00000126296549933198714150000010556416637973305529_);" d="M680.6,244.2c-2.8-2.9-3.6-4.5-2.8-6.3
				c0-0.1,0.1-0.2,0.2-0.3c0-0.1,0.1-0.1,0.1-0.2c0.1-0.1,0.1-0.2,0.2-0.3c0-0.1,0.1-0.1,0.1-0.2c0.1-0.1,0.2-0.2,0.3-0.4
				c0,0,0.1-0.1,0.1-0.1c0.1-0.2,0.3-0.3,0.5-0.5c0.3-0.3,0.5-0.7,0.5-1.2c0-0.3,0-0.7-0.1-1.1c-0.1-0.4-0.2-0.8-0.5-1.3
				c0,0,0,0,0-0.1c-0.4-0.9-1.1-1.7-1.9-2.6c-0.4-0.4-0.9-0.8-1.3-1.2c-0.3-0.2-0.6-0.4-0.9-0.6c-0.4-0.2-0.7-0.4-1.1-0.6
				c-1.2-0.5-2.3-0.6-3,0.2c-0.2,0.2-0.3,0.4-0.4,0.6c0,0.1,0,0.2-0.1,0.2c-0.1,0.2-0.1,0.3-0.1,0.5c0,0,0,0,0,0c0,0,0,0,0,0
				c-0.2,1.6,0.6,3.9,2.3,5.6c4.1,4.2,3.7,6.5,1.1,9.3c-2.6,2.8-1.9,5.7,0,7.7c1.9,2,4.9,1.6,6.8-0.4
				C682.6,249.1,682.5,246.2,680.6,244.2z"/>
			
				<linearGradient id="SVGID_00000080177152043510035970000014133857652973705106_" gradientUnits="userSpaceOnUse" x1="614.0059" y1="257.5511" x2="646.2215" y2="257.5511">
				<stop  offset="0" style="stop-color:#2D95F7"/>
				<stop  offset="1" style="stop-color:#3FFCDC"/>
			</linearGradient>
			<path style="fill:url(#SVGID_00000080177152043510035970000014133857652973705106_);" d="M616.4,268.2c0.1,0.1,0.1,0.2,0.2,0.3
				c0,0,0,0,0,0c0.2,0.3,0.4,0.6,0.6,0.8c0.2,0.2,0.4,0.4,0.5,0.6c0.3,0.3,0.6,0.5,0.8,0.7c0,0,0.1,0.1,0.1,0.1
				c0.1,0,0.1,0.1,0.2,0.1c0.1,0.1,0.2,0.2,0.3,0.2c0,0,0,0,0.1,0c0.1,0.1,0.3,0.2,0.4,0.3c0,0,0,0,0,0c0.5,0.3,1,0.5,1.5,0.6
				c0,0,0.1,0,0.1,0c0.2,0.1,0.5,0.1,0.7,0.1c0.3,0,0.5,0,0.7,0c0,0,0,0,0,0c1,0,1.9-0.4,2.6-1.1c3.8-3.7,5.7-3.6,10.3,0.8
				c2.4,2.3,6.2,2.3,8.6,0c2.4-2.3,2.7-6.1,0.2-8.4c-2.4-2.3-6.6-2.4-9.1,0c-4.3,4.2-6.2,4.1-10.8-0.5c-4.6-4.6-4.7-6.5-0.5-10.8
				c2.4-2.5,2.3-6.6,0-9c-0.6-0.6-1.3-1.1-2-1.3c0,0,0,0,0,0c0,0,0,0-0.1,0c-0.2-0.1-0.4-0.1-0.7-0.2c-0.1,0-0.1,0-0.2,0
				c-0.2,0-0.5-0.1-0.7-0.1c0,0,0,0-0.1,0c-0.2,0-0.5,0-0.7,0c-0.1,0-0.1,0-0.2,0c-0.3,0-0.5,0.1-0.7,0.1c0,0,0,0,0,0
				c-0.2,0.1-0.5,0.1-0.7,0.2c-0.1,0-0.1,0-0.2,0.1c-0.2,0.1-0.5,0.2-0.7,0.3c0,0,0,0,0,0c-0.2,0.1-0.4,0.3-0.6,0.4
				c-0.1,0-0.1,0.1-0.2,0.1c-0.2,0.2-0.4,0.4-0.6,0.6c-0.1,0.2-0.3,0.3-0.4,0.5c-1.5,1.9-1.7,4.5-0.6,6.6c0.3,0.5,0.6,1,1,1.5
				c0.3,0.3,0.5,0.6,0.8,0.8c0.1,0.1,0.1,0.2,0.2,0.3c0.2,0.2,0.3,0.4,0.5,0.5c0.1,0.1,0.2,0.2,0.2,0.3c0.1,0.1,0.2,0.3,0.3,0.4
				c0.1,0.1,0.1,0.2,0.2,0.3c0.1,0.1,0.2,0.3,0.3,0.4c1.7,2.6,1,4.4-1.7,7.2c-1.4,1.4-1.4,3.7-0.3,5.7c0,0,0,0,0,0
				C616.3,268,616.4,268.1,616.4,268.2z"/>
			
				<linearGradient id="SVGID_00000065769782743006339470000006473001656155820940_" gradientUnits="userSpaceOnUse" x1="650.9078" y1="221.0533" x2="673.6278" y2="221.0533">
				<stop  offset="0" style="stop-color:#2D95F7"/>
				<stop  offset="1" style="stop-color:#3FFCDC"/>
			</linearGradient>
			<path style="fill:url(#SVGID_00000065769782743006339470000006473001656155820940_);" d="M655.3,223.2c-0.2,0.3-0.5,0.6-0.8,0.9
				c-0.3,0.3-0.5,0.6-0.8,0.9c-0.8,1.2-1,2.5-0.7,3.8c0,0.2,0.1,0.3,0.2,0.5c0.4,1,1.1,2.1,2.1,3c0,0,0,0,0,0
				c0.3,0.3,0.6,0.5,0.9,0.7c0.1,0.1,0.2,0.1,0.3,0.2c0.3,0.2,0.5,0.3,0.8,0.5c0.1,0,0.1,0.1,0.2,0.1c0.3,0.1,0.7,0.3,1,0.4
				c0.1,0,0.2,0,0.2,0.1c0.3,0.1,0.5,0.1,0.8,0.1c0.1,0,0.2,0,0.3,0c0.3,0,0.7,0,1,0c0,0,0.1,0,0.1,0c0.2,0,0.4,0,0.6-0.1
				c0,0,0,0,0,0c0.8-0.2,1.5-0.6,2.1-1.1c1.9-2,1.2-5.3-1.2-7.8c-4.5-4.5-4.9-6.2-2.2-8.8c2.1-2,3.4-1.4,7.9,3
				c2.4,2.4,5.1,3.6,5.6,3.1c0.5-0.5-1.3-2.6-3.7-5c-2.4-2.4-4.6-4.1-5-3.7c-1.3,1.3-2.7,0.7-7-3.6c-0.3-0.3-0.7-0.6-1-0.9
				c0,0,0,0,0,0c-0.2-0.2-0.4-0.3-0.7-0.5c0,0,0,0-0.1-0.1c-0.3-0.2-0.5-0.3-0.8-0.5c-0.1,0-0.2-0.1-0.2-0.1
				c-0.2-0.1-0.4-0.2-0.5-0.2c-0.1,0-0.2-0.1-0.3-0.1c-0.2,0-0.3-0.1-0.5-0.1c-0.1,0-0.2,0-0.3,0c-0.1,0-0.3,0-0.4,0
				c-0.1,0-0.2,0-0.2,0c-0.1,0-0.3,0.1-0.4,0.1c-0.1,0-0.1,0-0.2,0.1c-0.2,0.1-0.4,0.2-0.5,0.3c-1.3,1.2-0.8,4.3,1.5,6.5
				C657,218.7,657.2,220.9,655.3,223.2z"/>
			
				<linearGradient id="SVGID_00000178201146327264421620000004792228650756130724_" gradientUnits="userSpaceOnUse" x1="633.3815" y1="247.6522" x2="665.9874" y2="247.6522">
				<stop  offset="3.535400e-02" style="stop-color:#C19859"/>
				<stop  offset="0.126" style="stop-color:#D0B17B"/>
				<stop  offset="0.3367" style="stop-color:#F2E7C4"/>
				<stop  offset="0.4343" style="stop-color:#FFFCE1"/>
				<stop  offset="0.4361" style="stop-color:#FAF5D8"/>
				<stop  offset="0.4511" style="stop-color:#D2BD8C"/>
				<stop  offset="0.4646" style="stop-color:#B29050"/>
				<stop  offset="0.4759" style="stop-color:#9B6F25"/>
				<stop  offset="0.4847" style="stop-color:#8D5B0A"/>
				<stop  offset="0.4899" style="stop-color:#885400"/>
				<stop  offset="0.5159" style="stop-color:#8C5804"/>
				<stop  offset="0.5435" style="stop-color:#996510"/>
				<stop  offset="0.5716" style="stop-color:#AE7925"/>
				<stop  offset="0.5909" style="stop-color:#C18C37"/>
				<stop  offset="0.6095" style="stop-color:#CA9841"/>
				<stop  offset="0.6755" style="stop-color:#E7BD60"/>
				<stop  offset="0.7289" style="stop-color:#F9D473"/>
				<stop  offset="0.7626" style="stop-color:#FFDC7A"/>
				<stop  offset="0.8818" style="stop-color:#D0A048"/>
				<stop  offset="0.9192" style="stop-color:#C18C37"/>
			</linearGradient>
			<path style="fill:url(#SVGID_00000178201146327264421620000004792228650756130724_);" d="M643.2,241.9c-1.6-0.9-3.4-1.1-5.1-0.6
				c-1,0.3-2,0.9-2.8,1.7c0,0,0,0,0,0c-0.2,0.2-0.4,0.4-0.5,0.6c0,0.1-0.1,0.1-0.1,0.2c-0.1,0.2-0.2,0.3-0.3,0.5
				c0,0.1-0.1,0.1-0.1,0.2c-0.1,0.2-0.2,0.5-0.3,0.7c0,0,0,0,0,0c-0.1,0.2-0.2,0.5-0.2,0.7c0,0.1,0,0.1-0.1,0.2
				c0,0.2-0.1,0.4-0.1,0.6c0,0.1,0,0.1,0,0.2c0,0.3,0,0.5,0,0.8c0,0,0,0,0,0.1c0,0.2,0,0.5,0,0.7c0,0.1,0,0.1,0,0.2
				c0,0.2,0.1,0.4,0.1,0.6c0,0,0,0.1,0,0.1c0,0,0,0,0,0c0.3,1.1,0.8,2.1,1.7,3c2.6,2.6,6.8,2.6,9.4,0c4.7-4.7,6.7-4.8,11.2-0.2
				c2.3,2.4,6.1,2.2,8.4-0.2c0.8-0.9,1.4-1.9,1.6-3c0,0,0,0,0,0c0,0,0,0,0-0.1c0,0,0-0.1,0-0.1c0.1-0.3,0.1-0.6,0.1-0.9
				c0-0.1,0-0.1,0-0.2c0-0.3,0-0.7-0.1-1c0-0.1,0-0.1,0-0.2c-0.1-0.3-0.1-0.6-0.3-0.9c0,0,0-0.1,0-0.1c-0.1-0.3-0.3-0.6-0.5-0.9
				c0-0.1-0.1-0.1-0.1-0.2c-0.2-0.3-0.4-0.6-0.7-0.9c-0.4-0.5-0.9-0.8-1.4-1.1c-0.9-0.5-1.8-0.8-2.8-0.8c-1.5-0.1-3,0.5-4.2,1.7
				c-4.5,4.6-6.5,4.6-11.2-0.2C644.2,242.5,643.7,242.2,643.2,241.9z"/>
			
				<linearGradient id="SVGID_00000116199427656467878030000013755431124994432386_" gradientUnits="userSpaceOnUse" x1="653.2545" y1="270.0407" x2="679.8209" y2="270.0407">
				<stop  offset="0" style="stop-color:#2D95F7"/>
				<stop  offset="1" style="stop-color:#3FFCDC"/>
			</linearGradient>
			<path style="fill:url(#SVGID_00000116199427656467878030000013755431124994432386_);" d="M679.8,260.8c0-0.1,0-0.2,0-0.3
				c0,0,0-0.1,0-0.1c0-0.1,0-0.2-0.1-0.2c0,0,0-0.1,0-0.1c0-0.1-0.1-0.2-0.1-0.2c0,0,0-0.1-0.1-0.1c-0.1-0.1-0.1-0.2-0.2-0.3
				c-0.1-0.2-0.3-0.3-0.5-0.4c-0.1,0-0.1-0.1-0.2-0.1c-0.1-0.1-0.3-0.1-0.5-0.2c-0.1,0-0.1,0-0.2,0c-0.2,0-0.5-0.1-0.7-0.1
				c0,0-0.1,0-0.1,0c-0.2,0-0.4,0-0.6,0.1c-0.1,0-0.2,0-0.2,0c-0.2,0-0.4,0.1-0.7,0.2c-0.1,0-0.1,0-0.2,0.1
				c-0.2,0.1-0.5,0.2-0.7,0.3c0,0,0,0,0,0c-0.7,0.4-1.4,0.8-2,1.5c-3.7,3.8-5.5,4.6-7.9,2.6c-0.1-0.1-0.3-0.2-0.4-0.4
				c-0.1-0.1-0.1-0.1-0.2-0.2c-0.2-0.2-0.4-0.4-0.7-0.7c-2-2-5.6-1.7-8.1,0.8c-2.5,2.5-2.7,6.2-0.8,8.1c0.1,0.1,0.3,0.2,0.4,0.3
				c0,0,0.1,0.1,0.1,0.1c0.1,0.1,0.2,0.1,0.3,0.2c0.1,0,0.1,0.1,0.2,0.1c0.1,0,0.2,0.1,0.3,0.1c0.1,0,0.1,0,0.2,0.1
				c0.1,0,0.2,0.1,0.3,0.1c0.1,0,0.1,0,0.2,0c0.1,0,0.2,0,0.3,0.1c0.1,0,0.2,0,0.2,0c0.1,0,0.2,0,0.3,0c0.1,0,0.2,0,0.2,0
				c0.1,0,0.2,0,0.3,0c0.1,0,0.2,0,0.2,0c0.1,0,0.2,0,0.3,0c0,0,0,0,0.1,0c0,0,0,0,0,0c1.3-0.3,2.7-1,3.9-2.2
				c4.5-4.5,6.1-4.9,8.7-2.2c2,2.1,0.4,4.5-3,7.9c-3.4,3.5-3.6,5.1-3.1,5.7c0.5,0.5,2.6-1.3,5-3.7c2.4-2.4,4.2-4.6,3.7-5
				c-1.3-1.3-0.7-2.7,3.7-7.1c0.9-0.9,1.6-1.8,2-2.7c0,0,0,0,0,0c0,0,0-0.1,0-0.1c0.1-0.1,0.1-0.2,0.2-0.4c0-0.1,0-0.1,0.1-0.2
				c0-0.1,0.1-0.2,0.1-0.3c0-0.1,0-0.1,0-0.2c0-0.1,0.1-0.2,0.1-0.3c0,0,0-0.1,0-0.1C679.8,261.2,679.8,261.1,679.8,260.8
				C679.8,260.9,679.8,260.9,679.8,260.8z"/>
		</g>
	</g>
	
		<radialGradient id="SVGID_00000052088740692907283300000015458598469657263259_" cx="644.0213" cy="717.4255" r="299.6709" fx="802.9575" fy="717.4255" gradientTransform="matrix(1.028679e-13 -1 2.4129 2.482058e-13 -1087.026 1361.4468)" gradientUnits="userSpaceOnUse">
		<stop  offset="0.1795" style="stop-color:#7E99A6"/>
		<stop  offset="0.4171" style="stop-color:#4D4D4D"/>
		<stop  offset="0.478" style="stop-color:#1A1A1A"/>
		<stop  offset="1" style="stop-color:#333333"/>
	</radialGradient>
	<path style="fill:url(#SVGID_00000052088740692907283300000015458598469657263259_);" d="M988.8,879.8l-29.2-235.9
		c0-62.6-138.2-113.4-308.7-113.4s-308.7,50.8-308.7,113.4L313,879.8c-0.9,3.7-1.4,7.5-1.4,11.3c0,68.8,151.9,124.6,339.3,124.6
		S990.2,959.9,990.2,891C990.2,887.2,989.7,883.5,988.8,879.8z"/>
	<g class="st28">
		
			<linearGradient id="SVGID_00000135685088519936845360000008960326288043280058_" gradientUnits="userSpaceOnUse" x1="650.9185" y1="758.6249" x2="650.9185" y2="529.1568">
			<stop  offset="0" style="stop-color:#FFFFFF"/>
			<stop  offset="3.371769e-02" style="stop-color:#F8F8F8;stop-opacity:0.9663"/>
			<stop  offset="0.2504" style="stop-color:#CDCDCD;stop-opacity:0.7496"/>
			<stop  offset="0.4607" style="stop-color:#ABABAB;stop-opacity:0.5393"/>
			<stop  offset="0.6603" style="stop-color:#939393;stop-opacity:0.3397"/>
			<stop  offset="0.8449" style="stop-color:#858585;stop-opacity:0.1551"/>
			<stop  offset="1" style="stop-color:#808080;stop-opacity:0"/>
		</linearGradient>
		<path style="fill:url(#SVGID_00000135685088519936845360000008960326288043280058_);" d="M650.9,530.7c29.1,0,58.2,1.4,87.2,4.5
			c29,3.1,57.8,7.8,86.1,14.8c14.1,3.5,28.1,7.6,41.9,12.4c13.7,4.9,27.2,10.5,40.1,17.3c6.4,3.4,12.7,7.2,18.7,11.4
			c6,4.2,11.7,8.8,16.9,14c5.1,5.2,9.8,11,13.1,17.6c3.4,6.5,5.4,13.9,5.5,21.3c0,7.4-2,14.8-5.3,21.3c-3.3,6.6-7.9,12.5-13.1,17.7
			c-5.2,5.2-10.8,9.9-16.8,14.1c-6,4.2-12.2,8-18.7,11.5c-12.9,6.9-26.4,12.7-40.1,17.6c-13.7,4.9-27.8,9.1-41.9,12.7
			c-28.3,7.1-57.2,11.9-86.2,15c-29,3.2-58.2,4.7-87.3,4.7c-29.2-0.1-58.3-1.5-87.3-4.7c-29-3.2-57.8-8-86.2-15
			c-14.2-3.5-28.2-7.7-41.9-12.7c-13.7-4.9-27.2-10.7-40.1-17.6c-6.4-3.5-12.7-7.3-18.7-11.5c-6-4.2-11.7-8.9-16.8-14.1
			c-5.1-5.3-9.7-11.1-13.1-17.7c-3.3-6.6-5.4-13.9-5.3-21.3c0-7.4,2.1-14.7,5.4-21.3c3.4-6.6,8-12.4,13.1-17.6
			c5.2-5.2,10.9-9.8,16.9-14c6-4.2,12.3-7.9,18.7-11.4c12.9-6.8,26.4-12.5,40.1-17.3c13.7-4.8,27.8-8.9,41.9-12.4
			c28.3-7,57.1-11.7,86.1-14.8C592.7,532.1,621.8,530.6,650.9,530.7z M650.9,530.7c-29.1,0.1-58.2,1.5-87.2,4.7
			c-28.9,3.2-57.7,8-86,15c-14.1,3.5-28.1,7.7-41.8,12.6c-13.7,4.9-27.1,10.6-39.9,17.5c-6.4,3.4-12.6,7.2-18.5,11.4
			c-5.9,4.2-11.6,8.8-16.6,14c-5,5.2-9.6,10.9-12.8,17.4c-3.3,6.4-5.2,13.5-5.2,20.7c0,7.2,2,14.2,5.3,20.6
			c3.3,6.4,7.8,12.1,12.9,17.2c5.1,5.1,10.7,9.7,16.7,13.8c5.9,4.1,12.2,7.9,18.6,11.3c12.8,6.8,26.2,12.4,39.9,17.2
			c13.7,4.8,27.7,8.9,41.8,12.4c28.2,7,57,11.7,85.8,14.8c28.9,3.1,58,4.5,87,4.5c29.1,0,58.1-1.4,87-4.5
			c28.9-3.1,57.6-7.8,85.8-14.8c14.1-3.5,28.1-7.5,41.7-12.4c13.7-4.8,27.1-10.4,39.9-17.2c6.4-3.4,12.6-7.1,18.6-11.3
			c5.9-4.1,11.6-8.7,16.7-13.8c5-5.1,9.6-10.8,12.9-17.2c3.3-6.4,5.3-13.4,5.3-20.6c0-7.2-1.9-14.3-5.2-20.7
			c-3.2-6.4-7.8-12.2-12.8-17.4c-5.1-5.2-10.7-9.8-16.6-14c-5.9-4.2-12.1-8-18.5-11.4c-12.8-6.9-26.2-12.6-39.9-17.5
			c-13.7-4.9-27.7-9.1-41.8-12.6c-28.2-7-57-11.8-86-15C709.2,532.2,680,530.7,650.9,530.7z"/>
	</g>
	<g>
		
			<radialGradient id="SVGID_00000080206300430466448970000017811998718517481868_" cx="650" cy="631.4313" r="183.221" gradientTransform="matrix(1 0 0 0.3369 0 418.672)" gradientUnits="userSpaceOnUse">
			<stop  offset="0" style="stop-color:#D3E4B7"/>
			<stop  offset="1" style="stop-color:#00A3D0"/>
		</radialGradient>
		
			<ellipse style="fill:url(#SVGID_00000080206300430466448970000017811998718517481868_);" cx="650" cy="631.4" rx="187.7" ry="64.5"/>
		<g class="st31">
			
				<linearGradient id="SVGID_00000018196547587789539910000002936709453210524862_" gradientUnits="userSpaceOnUse" x1="640" y1="681.5319" x2="640" y2="211.8936">
				<stop  offset="0" style="stop-color:#2BB3D8"/>
				<stop  offset="0.6454" style="stop-color:#56E7EB;stop-opacity:0.3546"/>
				<stop  offset="1" style="stop-color:#6AFFF4;stop-opacity:0"/>
			</linearGradient>
			<path style="fill:url(#SVGID_00000018196547587789539910000002936709453210524862_);" d="M986.6,211.9H293.4L477,626.6h0.1
				c4.5,30.6,79.8,54.9,172.1,54.9s167.5-24.3,172.1-54.9h0.1L986.6,211.9z"/>
		</g>
		<g class="st33">
			
				<linearGradient id="SVGID_00000037669344878868345170000015691774388805155473_" gradientUnits="userSpaceOnUse" x1="640" y1="695.9787" x2="640" y2="172.0638">
				<stop  offset="0" style="stop-color:#32C7D8"/>
				<stop  offset="0.3129" style="stop-color:#76DBD3;stop-opacity:0.6871"/>
				<stop  offset="0.6391" style="stop-color:#B7EECD;stop-opacity:0.3609"/>
				<stop  offset="0.8772" style="stop-color:#E0FACA;stop-opacity:0.1228"/>
				<stop  offset="1" style="stop-color:#EFFFC9;stop-opacity:0"/>
			</linearGradient>
			<path style="fill:url(#SVGID_00000037669344878868345170000015691774388805155473_);" d="M1017.6,172.1H262.4l200,462.6h0.1
				c5,34.1,87,61.3,187.4,61.3s182.5-27.1,187.4-61.3h0.1L1017.6,172.1z"/>
		</g>
	</g>
</g>
</svg>
