<?xml version="1.0" encoding="UTF-8"?><svg id="Calque_1" xmlns="http://www.w3.org/2000/svg" viewBox="0 0 409 409"><defs><style>.cls-1{fill:#fff;}</style></defs><g><path class="cls-1" d="M207.23,329.9c-.97,0-1.93-.37-2.67-1.11l-5.63-5.63c-1.47-1.47-1.47-3.86,0-5.34,1.47-1.47,3.86-1.47,5.34,0l5.63,5.63c1.47,1.47,1.47,3.86,0,5.34-.74,.73-1.7,1.1-2.67,1.1Z"/><path class="cls-1" d="M231.56,354.24c-.97,0-1.93-.37-2.67-1.11l-5.63-5.63c-1.47-1.47-1.47-3.86,0-5.33,1.47-1.47,3.86-1.47,5.33,0l5.63,5.63c1.47,1.47,1.47,3.86,0,5.33-.74,.74-1.7,1.11-2.67,1.11Z"/><path class="cls-1" d="M225.93,329.9c-.97,0-1.93-.37-2.67-1.11-1.47-1.47-1.47-3.86,0-5.33l5.63-5.63c1.47-1.47,3.86-1.47,5.33,0,1.47,1.47,1.47,3.86,0,5.33l-5.63,5.63c-.74,.74-1.7,1.11-2.67,1.11Z"/><path class="cls-1" d="M201.6,354.24c-.97,0-1.93-.37-2.67-1.1-1.47-1.47-1.47-3.86,0-5.34l5.63-5.63c1.47-1.47,3.86-1.47,5.34,0,1.47,1.47,1.47,3.86,0,5.34l-5.63,5.63c-.74,.74-1.7,1.11-2.67,1.11Z"/></g><g><path class="cls-1" d="M107.45,118.67c-.97,0-1.93-.37-2.67-1.11l-5.63-5.63c-1.47-1.47-1.47-3.86,0-5.33,1.47-1.47,3.86-1.47,5.33,0l5.63,5.63c1.47,1.47,1.47,3.86,0,5.33-.74,.74-1.7,1.11-2.67,1.11Z"/><path class="cls-1" d="M131.78,143c-.97,0-1.93-.37-2.67-1.11l-5.63-5.63c-1.47-1.47-1.47-3.86,0-5.33,1.47-1.47,3.86-1.47,5.33,0l5.63,5.63c1.47,1.47,1.47,3.86,0,5.33-.74,.74-1.7,1.11-2.67,1.11Z"/><path class="cls-1" d="M126.15,118.67c-.97,0-1.93-.37-2.67-1.11-1.47-1.47-1.47-3.86,0-5.33l5.63-5.63c1.47-1.47,3.86-1.47,5.33,0,1.47,1.47,1.47,3.86,0,5.33l-5.63,5.63c-.74,.74-1.7,1.11-2.67,1.11Z"/><path class="cls-1" d="M101.82,143c-.97,0-1.93-.37-2.67-1.11-1.47-1.47-1.47-3.86,0-5.33l5.63-5.63c1.47-1.47,3.86-1.47,5.33,0,1.47,1.47,1.47,3.86,0,5.33l-5.63,5.63c-.74,.74-1.7,1.11-2.67,1.11Z"/></g><g><path class="cls-1" d="M340.08,219.81c-2.08,0-3.77-1.69-3.77-3.77v-7.96c0-2.08,1.69-3.77,3.77-3.77s3.77,1.69,3.77,3.77v7.96c0,2.08-1.69,3.77-3.77,3.77Z"/><path class="cls-1" d="M340.08,185.39c-2.08,0-3.77-1.69-3.77-3.77v-7.96c0-2.08,1.69-3.77,3.77-3.77s3.77,1.69,3.77,3.77v7.96c0,2.08-1.69,3.77-3.77,3.77Z"/><path class="cls-1" d="M326.86,198.62h-7.96c-2.08,0-3.77-1.69-3.77-3.77s1.69-3.77,3.77-3.77h7.96c2.08,0,3.77,1.69,3.77,3.77s-1.69,3.77-3.77,3.77Z"/><path class="cls-1" d="M361.27,198.62h-7.96c-2.08,0-3.77-1.69-3.77-3.77s1.69-3.77,3.77-3.77h7.96c2.08,0,3.77,1.69,3.77,3.77s-1.69,3.77-3.77,3.77Z"/></g><g><g><path class="cls-1" d="M213.18,249.95c-12.04,0-24.07-4.58-33.23-13.75l-9.06-9.06c-7.53-7.52-12.17-17.07-13.43-27.62-.25-2.07,1.23-3.94,3.3-4.19,2.08-.23,3.95,1.23,4.19,3.3,1.06,8.85,4.96,16.87,11.27,23.18l9.06,9.06c15.39,15.38,40.42,15.38,55.8,0l59.9-59.9c15.38-15.39,15.38-40.42,0-55.8l-4.53-4.53c-1.47-1.47-1.47-3.86,0-5.34,1.47-1.47,3.86-1.47,5.34,0l4.53,4.53c18.33,18.33,18.33,48.15,0,66.47l-59.9,59.9c-9.16,9.16-21.2,13.75-33.23,13.75Z"/><path class="cls-1" d="M168.01,173.9c-.71,0-1.43-.2-2.07-.62-1.74-1.15-2.22-3.48-1.07-5.22,1.74-2.64,3.77-5.12,6.02-7.37l59.9-59.9c9.2-9.2,21.37-14.07,34.44-13.75,2.08,.05,3.73,1.78,3.68,3.87-.05,2.08-1.81,3.82-3.87,3.67-10.88-.32-21.19,3.82-28.92,11.54l-59.9,59.9c-1.9,1.9-3.6,3.98-5.06,6.19-.73,1.1-1.93,1.69-3.15,1.69Z"/><path class="cls-1" d="M215.13,232.9c-6.92,0-13.84-2.63-19.11-7.9l-13.92-13.92c-8.01-8-10.17-20.27-5.39-30.53,.88-1.89,3.12-2.71,5.01-1.83,1.89,.88,2.71,3.13,1.83,5.01-3.45,7.4-1.89,16.24,3.89,22.01l13.92,13.92c7.6,7.59,19.95,7.59,27.55,0l60.86-60.86c3.68-3.68,5.71-8.57,5.71-13.78s-2.03-10.1-5.71-13.78l-6.96-6.96c-1.47-1.47-1.47-3.86,0-5.33,1.47-1.47,3.86-1.47,5.33,0l6.96,6.96c5.11,5.1,7.92,11.89,7.92,19.11s-2.81,14.01-7.92,19.11l-60.86,60.86c-5.27,5.27-12.19,7.9-19.11,7.9Z"/><path class="cls-1" d="M197.08,166.98c-.97,0-1.93-.37-2.67-1.11-1.47-1.47-1.47-3.86,0-5.33l48.55-48.55c5.99-6,14.27-8.79,22.67-7.68,2.07,.27,3.52,2.17,3.25,4.23-.27,2.07-2.17,3.52-4.23,3.25-6.09-.8-12.03,1.22-16.35,5.54l-48.55,48.55c-.74,.74-1.7,1.11-2.67,1.11Z"/><path class="cls-1" d="M105.97,304.9c-.97,0-1.93-.37-2.67-1.11l-4.53-4.53c-8.88-8.88-13.77-20.68-13.77-33.23s4.89-24.36,13.77-33.23l59.9-59.9c18.32-18.33,48.15-18.33,66.47,0l9.06,9.06c7.53,7.52,12.17,17.07,13.43,27.62,.25,2.07-1.23,3.94-3.3,4.19-2.08,.25-3.95-1.23-4.19-3.3-1.06-8.85-4.96-16.86-11.27-23.18l-9.06-9.06c-15.39-15.38-40.42-15.39-55.8,0l-59.9,59.9c-15.38,15.39-15.38,40.42,0,55.8l4.53,4.53c1.47,1.47,1.47,3.86,0,5.33-.74,.74-1.7,1.11-2.67,1.11Z"/><path class="cls-1" d="M141.04,322.09c-.51,0-1.02,0-1.53-.03-2.08-.07-3.71-1.81-3.64-3.89,.06-2.09,1.82-3.8,3.89-3.64,11.05,.37,21.41-3.73,29.21-11.53l59.9-59.9c1.9-1.9,3.6-3.98,5.06-6.19,1.15-1.74,3.49-2.21,5.22-1.07,1.74,1.15,2.22,3.49,1.07,5.23-1.73,2.63-3.76,5.11-6.02,7.37l-59.9,59.9c-8.8,8.8-20.85,13.76-33.26,13.76Z"/><path class="cls-1" d="M119.61,291.26c-.97,0-1.93-.37-2.67-1.11l-6.96-6.96c-10.54-10.54-10.54-27.68,0-38.22l60.86-60.86c10.54-10.54,27.68-10.54,38.22,0l13.92,13.92c8.01,8.01,10.17,20.27,5.39,30.53-.88,1.89-3.13,2.7-5.01,1.83-1.89-.88-2.71-3.13-1.83-5.01,3.45-7.4,1.89-16.24-3.88-22.01l-13.92-13.92c-7.6-7.59-19.95-7.59-27.55,0l-60.86,60.86c-7.6,7.6-7.6,19.96,0,27.56l6.96,6.96c1.47,1.47,1.47,3.86,0,5.33-.74,.74-1.7,1.11-2.67,1.11Z"/><path class="cls-1" d="M142.97,305.02c-1.29,0-2.59-.09-3.88-.28-2.06-.3-3.49-2.22-3.19-4.28,.31-2.06,2.26-3.49,4.28-3.18,6.17,.91,12.22-1.1,16.61-5.5l48.55-48.55c1.47-1.47,3.86-1.47,5.33,0,1.47,1.47,1.47,3.86,0,5.33l-48.55,48.55c-5.09,5.09-12.04,7.91-19.16,7.91Z"/></g><g><path class="cls-1" d="M345.22,145.73h-28.92c-2.08,0-3.77-1.69-3.77-3.77s1.69-3.77,3.77-3.77h28.92c4.07,0,7.39-3.32,7.39-7.39V61.88c0-4.07-3.32-7.39-7.39-7.39h-68.92c-4.07,0-7.39,3.32-7.39,7.39v68.92c0,4.07,3.32,7.39,7.39,7.39h22.74c2.08,0,3.77,1.69,3.77,3.77s-1.69,3.77-3.77,3.77h-22.74c-8.23,0-14.93-6.7-14.93-14.93V61.88c0-8.23,6.7-14.93,14.93-14.93h68.92c8.23,0,14.93,6.7,14.93,14.93v68.92c0,8.23-6.7,14.93-14.93,14.93Z"/><path class="cls-1" d="M128.48,362.46H59.56c-8.23,0-14.93-6.7-14.93-14.93v-68.92c0-8.23,6.7-14.93,14.93-14.93h29.25c2.08,0,3.77,1.69,3.77,3.77s-1.69,3.77-3.77,3.77h-29.25c-4.07,0-7.39,3.31-7.39,7.38v68.92c0,4.07,3.31,7.38,7.39,7.38h68.92c4.07,0,7.38-3.31,7.38-7.38v-68.92c0-4.07-3.31-7.38-7.38-7.38h-22.37c-2.08,0-3.77-1.69-3.77-3.77s1.69-3.77,3.77-3.77h22.37c8.23,0,14.93,6.7,14.93,14.93v68.92c0,8.23-6.7,14.93-14.93,14.93Z"/></g></g></svg>