<?xml version="1.0" encoding="UTF-8"?><svg xmlns="http://www.w3.org/2000/svg" xmlns:xlink="http://www.w3.org/1999/xlink" viewBox="0 0 280.83 258.47"><defs><style>.cls-1{fill:url(#radial-gradient);}.cls-1,.cls-2,.cls-3,.cls-4,.cls-5{mix-blend-mode:screen;opacity:.45;}.cls-6{fill:url(#linear-gradient);}.cls-7{fill:#0494da;}.cls-8{fill:#f4f4f4;}.cls-9{fill:#fff;}.cls-10{fill:#ccc;}.cls-2{fill:url(#radial-gradient-5);}.cls-3{fill:url(#radial-gradient-3);}.cls-4{fill:url(#radial-gradient-4);}.cls-5{fill:url(#radial-gradient-2);}.cls-11{fill:url(#linear-gradient-8);}.cls-12{fill:url(#linear-gradient-9);}.cls-13{fill:url(#linear-gradient-3);}.cls-14{fill:url(#linear-gradient-4);}.cls-15{fill:url(#linear-gradient-2);}.cls-16{fill:url(#linear-gradient-6);}.cls-17{fill:url(#linear-gradient-7);}.cls-18{fill:url(#linear-gradient-5);}.cls-19{fill:#000081;mix-blend-mode:multiply;opacity:.1;}.cls-20{fill:url(#linear-gradient-12);}.cls-21{fill:url(#linear-gradient-10);}.cls-22{fill:url(#linear-gradient-11);}.cls-23{isolation:isolate;}</style><linearGradient id="linear-gradient" x1="-2960.79" y1="359" x2="-2963.26" y2="406.15" gradientTransform="translate(2482.46 -1819.06) rotate(-34.12)" gradientUnits="userSpaceOnUse"><stop offset="0" stop-color="#0494da"/><stop offset=".17" stop-color="#0b89d0"/><stop offset="1" stop-color="#305aa5"/></linearGradient><linearGradient id="linear-gradient-2" x1="-2979.06" y1="365.73" x2="-2939.21" y2="403.91" gradientTransform="translate(2482.46 -1819.06) rotate(-34.12)" gradientUnits="userSpaceOnUse"><stop offset="0" stop-color="#0494da"/><stop offset=".25" stop-color="#1587d2"/><stop offset="1" stop-color="#4565bc"/></linearGradient><radialGradient id="radial-gradient" cx="-2978.71" cy="359.56" fx="-2978.71" fy="359.56" r="42.54" gradientTransform="translate(2482.46 -1819.06) rotate(-34.12)" gradientUnits="userSpaceOnUse"><stop offset="0" stop-color="#fff"/><stop offset=".32" stop-color="#a8a8a8" stop-opacity=".66"/><stop offset=".79" stop-color="#303030" stop-opacity=".19"/><stop offset="1" stop-color="#000" stop-opacity="0"/></radialGradient><linearGradient id="linear-gradient-3" x1="968.97" y1="266.56" x2="966.5" y2="313.71" gradientTransform="translate(-654.16 -460.86) rotate(13.66)" xlink:href="#linear-gradient"/><linearGradient id="linear-gradient-4" x1="950.7" y1="273.29" x2="990.55" y2="311.47" gradientTransform="translate(-654.16 -460.86) rotate(13.66)" xlink:href="#linear-gradient-2"/><radialGradient id="radial-gradient-2" cx="951.04" cy="267.12" fx="951.04" fy="267.12" r="42.54" gradientTransform="translate(-654.16 -460.86) rotate(13.66)" xlink:href="#radial-gradient"/><linearGradient id="linear-gradient-5" x1="-2513.21" y1="464.68" x2="-2516.14" y2="520.57" gradientTransform="translate(2128.72 -1430.62) rotate(-24.52)" xlink:href="#linear-gradient"/><linearGradient id="linear-gradient-6" x1="-2534.87" y1="472.65" x2="-2487.63" y2="517.92" gradientTransform="translate(2128.72 -1430.62) rotate(-24.52)" xlink:href="#linear-gradient-2"/><radialGradient id="radial-gradient-3" cx="-2534.46" cy="465.34" fx="-2534.46" fy="465.34" r="50.43" gradientTransform="translate(2128.72 -1430.62) rotate(-24.52)" xlink:href="#radial-gradient"/><linearGradient id="linear-gradient-7" x1="1891.02" y1="-766.6" x2="1888.55" y2="-719.45" gradientTransform="translate(-1937.69 -274.04) rotate(33.61)" xlink:href="#linear-gradient"/><linearGradient id="linear-gradient-8" x1="1872.75" y1="-759.88" x2="1912.6" y2="-721.69" gradientTransform="translate(-1937.69 -274.04) rotate(33.61)" xlink:href="#linear-gradient-2"/><radialGradient id="radial-gradient-4" cx="1873.1" cy="-766.05" fx="1873.1" fy="-766.05" r="42.54" gradientTransform="translate(-1937.69 -274.04) rotate(33.61)" xlink:href="#radial-gradient"/><linearGradient id="linear-gradient-9" x1="155.76" y1="198.61" x2="266.88" y2="200.96" gradientTransform="matrix(1, 0, 0, 1, 0, 0)" xlink:href="#linear-gradient"/><linearGradient id="linear-gradient-10" x1="42.37" y1="211.86" x2="190.95" y2="211.86" gradientUnits="userSpaceOnUse"><stop offset="0" stop-color="#0494da"/><stop offset=".23" stop-color="#177ac3"/><stop offset=".47" stop-color="#2468b2"/><stop offset=".72" stop-color="#2d5da8"/><stop offset="1" stop-color="#305aa5"/></linearGradient><linearGradient id="linear-gradient-11" x1="-1083.02" y1="531.9" x2="-1090.74" y2="679.21" gradientTransform="translate(1103.87 -675.69) rotate(-10.89)" xlink:href="#linear-gradient"/><linearGradient id="linear-gradient-12" x1="-1140.1" y1="552.91" x2="-1015.6" y2="672.21" gradientTransform="translate(1103.87 -675.69) rotate(-10.89)" xlink:href="#linear-gradient-2"/><radialGradient id="radial-gradient-5" cx="-1139.02" cy="533.63" fx="-1139.02" fy="533.63" r="132.91" gradientTransform="translate(1103.87 -675.69) rotate(-10.89)" xlink:href="#radial-gradient"/></defs><g class="cls-23"><g id="ENG"><g><g><g><g><circle class="cls-6" cx="243.82" cy="157.42" r="19.92"/><circle class="cls-15" cx="240.66" cy="157.93" r="19.7"/><circle class="cls-1" cx="240.66" cy="157.93" r="19.7"/><path class="cls-7" d="M251.79,174.35c-9.05,6.13-21.41,3.76-27.54-5.3-6.13-9.05-3.76-21.41,5.3-27.54,9.05-6.13,21.41-3.76,27.54,5.3,6.13,9.05,3.76,21.41-5.3,27.54Zm-22.1-32.62c-8.93,6.05-11.28,18.25-5.23,27.18,6.05,8.93,18.25,11.28,27.18,5.23,8.93-6.05,11.28-18.25,5.23-27.18-6.05-8.93-18.25-11.28-27.18-5.23Z"/></g><g><g><rect class="cls-10" x="236.37" y="147.52" width="8.09" height="15.5" rx="3.81" ry="3.81" transform="translate(-42.06 109.29) rotate(-23.61)"/><path class="cls-10" d="M247.19,155.43c-.35,.16-.52,.57-.36,.92l.08,.19c1.2,2.75,0,5.99-2.73,7.21-2.76,1.24-6.01-.02-7.22-2.79l-.11-.25c-.16-.35-.57-.52-.92-.36s-.52,.57-.36,.92l.08,.17c1.43,3.26,5.08,4.92,8.41,3.86l1.44,3.3c.12,.27,.43,.39,.7,.27l.29-.13c.27-.12,.39-.43,.27-.7l-1.44-3.3c3.03-1.7,4.33-5.46,2.91-8.71l-.11-.25c-.16-.35-.57-.52-.92-.36Z"/></g><g><rect class="cls-9" x="235.47" y="147.47" width="8.09" height="15.5" rx="3.81" ry="3.81" transform="translate(-42.12 108.93) rotate(-23.61)"/><path class="cls-9" d="M246.29,155.38c-.35,.16-.52,.57-.36,.92l.08,.19c1.2,2.75,0,5.99-2.73,7.21-2.76,1.24-6.01-.02-7.22-2.79l-.11-.25c-.16-.35-.57-.52-.92-.36s-.52,.57-.36,.92l.08,.17c1.43,3.26,5.08,4.92,8.41,3.86l1.44,3.3c.12,.27,.43,.39,.7,.27l.29-.13c.27-.12,.39-.43,.27-.7l-1.44-3.3c3.03-1.7,4.33-5.46,2.91-8.71l-.11-.25c-.16-.35-.57-.52-.92-.36Z"/></g></g></g><g><g><circle class="cls-13" cx="218.18" cy="47.88" r="19.92"/><circle class="cls-14" cx="215.67" cy="45.89" r="19.7"/><circle class="cls-5" cx="215.67" cy="45.89" r="19.7"/><path class="cls-7" d="M210.99,65.16c-10.63-2.58-17.17-13.33-14.59-23.96s13.33-17.17,23.96-14.59c10.63,2.58,17.17,13.33,14.59,23.96-2.58,10.63-13.33,17.17-23.96,14.59Zm9.31-38.29c-10.49-2.55-21.09,3.91-23.64,14.39-2.55,10.49,3.91,21.09,14.39,23.64,10.49,2.55,21.09-3.91,23.64-14.39,2.55-10.49-3.91-21.09-14.39-23.64Z"/></g><g><g><path class="cls-10" d="M217.3,45.77c.12,.06,.25,.11,.38,.16,2.35,.86,5.01-.21,6.08-2.53,1.07-2.31,.17-5.04-2.01-6.27-.12-.07-.24-.13-.36-.19-2.44-1.13-5.33-.07-6.46,2.37-1.13,2.44-.07,5.33,2.37,6.46Z"/><path class="cls-10" d="M218.77,47.47l-3.43-1.59c-2.74-1.27-5.98-.08-7.25,2.66l-1.83,1.44,.59,1.24,13.34,6.18,1.24-2.69c1.27-2.74,.08-5.98-2.66-7.25Z"/></g><g><path class="cls-8" d="M216.76,45.04c.12,.06,.25,.11,.38,.16,2.35,.86,5.01-.21,6.08-2.53,1.07-2.31,.17-5.04-2.01-6.27-.12-.07-.24-.13-.36-.19-2.44-1.13-5.33-.07-6.46,2.37-1.13,2.44-.07,5.33,2.37,6.46Z"/><path class="cls-8" d="M218.14,46.33l-3.43-1.59c-2.74-1.27-5.98-.08-7.25,2.66l-1.24,2.69,13.34,6.18,1.24-2.69c1.27-2.74,.08-5.98-2.66-7.25Z"/></g></g></g><g><g><circle class="cls-18" cx="44.39" cy="59.04" r="23.61"/><circle class="cls-16" cx="40.59" cy="59.02" r="23.36"/><circle class="cls-3" cx="40.59" cy="59.02" r="23.36"/><path class="cls-7" d="M50.35,80.41c-11.79,5.38-25.77,.16-31.15-11.63s-.16-25.77,11.63-31.15c11.79-5.38,25.77-.16,31.15,11.63,5.38,11.79,.16,25.77-11.63,31.15ZM30.97,37.91c-11.64,5.31-16.79,19.1-11.48,30.74,5.31,11.64,19.1,16.79,30.74,11.48,11.64-5.31,16.79-19.1,11.48-30.74-5.31-11.64-19.1-16.79-30.74-11.48Z"/></g><g><g><path class="cls-10" d="M33.21,68.29c.32-1.66,.65-3.33,.97-4.99-.56-.67-.96-1.45-1.17-2.31-.99-4.05,2.72-8.43,8.29-9.79s10.87,.83,11.86,4.88-2.72,8.43-8.29,9.79c-1.89,.46-3.75,.51-5.43,.22l-5.41,2.85c-.43,.23-.92-.17-.82-.66Z"/><path class="cls-9" d="M31.96,67.75c.32-1.66,.65-3.33,.97-4.99-.56-.67-.96-1.45-1.17-2.31-.99-4.05,2.72-8.43,8.29-9.79,5.56-1.35,10.87,.83,11.86,4.88,.99,4.05-2.72,8.43-8.29,9.79-1.89,.46-3.75,.51-5.43,.22l-5.41,2.85c-.43,.23-.92-.17-.82-.66Z"/></g><g><circle class="cls-7" cx="46.69" cy="57.04" r="1.38"/><circle class="cls-7" cx="42.3" cy="58.04" r="1.38"/><circle class="cls-7" cx="38.07" cy="59.01" r="1.38"/></g></g></g><g><g><circle class="cls-17" cx="48.61" cy="151.61" r="19.92"/><circle class="cls-11" cx="46.93" cy="148.88" r="19.7"/><circle class="cls-4" cx="46.93" cy="148.88" r="19.7"/><path class="cls-7" d="M35.95,165.4c-9.11-6.05-11.59-18.39-5.54-27.49,6.05-9.11,18.39-11.59,27.49-5.54,9.11,6.05,11.59,18.39,5.54,27.49-6.05,9.11-18.39,11.59-27.49,5.54Zm21.81-32.82c-8.99-5.97-21.16-3.52-27.13,5.47-5.97,8.99-3.52,21.16,5.47,27.13,8.99,5.97,21.16,3.52,27.13-5.47,5.97-8.99,3.52-21.16-5.47-27.13Z"/></g><g><path class="cls-10" d="M54.73,146.84l-8.08,9.9c-1.34,1.72-3.82,2.03-5.54,.69-1.72-1.34-2.03-3.82-.69-5.54l.4-.52,1.48-1.9,3.03-3.9,.95-1.22,2.42-3.11c.91-1.17,2.61-1.39,3.79-.47,1.17,.91,1.39,2.61,.47,3.79l-1.02,1.31-1.4,1.8-.98,1.26-3,3.86-1.48,1.9-.09,.12c-.56,.73-1.61,.86-2.34,.29s-.86-1.61-.29-2.34l7.32-9.15-.28-.86-7.76,9.44c-.88,1.12-.67,2.75,.45,3.63,1.12,.88,2.75,.67,3.63-.45l1.57-2.01,5.39-6.92,1.02-1.31c1.22-1.57,.94-3.85-.63-5.07-1.57-1.22-3.85-.94-5.07,.63l-3.37,4.33-3.03,3.9-1.88,2.41c-1.65,2.12-1.27,5.18,.85,6.82,2.12,1.65,5.18,1.27,6.82-.85l7.66-9.59-.31-.88Z"/><path class="cls-9" d="M54.03,146.29l-7.66,9.59c-1.34,1.72-3.82,2.03-5.54,.69-1.72-1.34-2.03-3.82-.69-5.54l.4-.52,1.48-1.9,3.03-3.9,.95-1.22,2.42-3.11c.91-1.17,2.61-1.39,3.79-.47,1.17,.91,1.39,2.61,.47,3.79l-1.02,1.31-1.4,1.8-.98,1.26-3,3.86-1.48,1.9-.09,.12c-.56,.73-1.61,.86-2.34,.29s-.86-1.61-.29-2.34l7.32-9.15-.72-.56-7.32,9.15c-.88,1.12-.67,2.75,.45,3.63s2.75,.67,3.63-.45l1.57-2.01,5.39-6.92,1.02-1.31c1.22-1.57,.94-3.85-.63-5.07-1.57-1.22-3.85-.94-5.07,.63l-3.37,4.33-3.03,3.9-1.88,2.41c-1.65,2.12-1.27,5.18,.85,6.82,2.12,1.65,5.18,1.27,6.82-.85l7.66-9.59-.72-.56Z"/></g></g></g><g><g><g><ellipse class="cls-12" cx="140.41" cy="198.28" rx="75.55" ry="7.05"/><path class="cls-21" d="M215.96,198.28c0,3.89-33.82,7.05-75.55,7.05s-75.55-3.16-75.55-7.05v20.11h0c0,3.89,33.82,7.05,75.55,7.05s75.55-3.16,75.55-7.05h0v-20.11Z"/></g><ellipse class="cls-19" cx="140.41" cy="198.56" rx="29.8" ry="2.66"/></g><g><g><circle class="cls-22" cx="150.12" cy="118.42" r="62.23"/><circle class="cls-20" cx="140.4" cy="116.02" r="61.56"/><circle class="cls-2" cx="140.4" cy="116.02" r="61.56"/><path class="cls-7" d="M152.1,176.87c-33.55,6.45-66.1-15.59-72.55-49.14-6.45-33.55,15.59-66.1,49.14-72.55,33.55-6.45,66.1,15.59,72.55,49.14,6.45,33.55-15.59,66.1-49.14,72.55Zm-23.25-120.89c-33.11,6.37-54.87,38.49-48.5,71.6,6.37,33.11,38.49,54.87,71.6,48.5,33.11-6.37,54.87-38.49,48.5-71.6-6.37-33.11-38.49-54.87-71.6-48.5Z"/></g><g id="logo_BG_White"><g id="_2"><path class="cls-9" d="M139.01,150.66c-.35-3.9-5.09-6.67-9.9-8.85-3-1.36-6.02-2.48-8.03-3.5-.55-.28-1.14-.57-1.75-.88-6.15-3.09-14.76-7.46-19.71-13.28-6.27-7.39-5.54-14.31,1.33-11.53-4.37-2.41-6.66-1.4-7.36,1.07-1.67,5.88,4.29,13.28,8.4,16.99,6.09,5.48,12.04,8.03,18.38,10.59,.78,.32,1.57,.63,2.36,.95,1.47,.59,2.96,1.2,4.47,1.87,2.98,1.31,8.69,3.62,9.41,7.02,.7,3.23-3.67,5.28-5.89,2.58,2.87,4.48,8.69,1.57,8.27-3.03Z"/><path class="cls-9" d="M187.22,113.68c-.71-2.46-2.99-3.48-7.37-1.06,6.87-2.78,7.61,4.13,1.33,11.53-4.96,5.83-13.59,10.21-19.74,13.3-.6,.3-1.17,.59-1.71,.86-2,1.02-5,2.13-7.98,3.48-4.82,2.18-9.59,4.95-9.94,8.86-.42,4.61,5.4,7.52,8.26,3.04-2.21,2.68-6.58,.65-5.89-2.58,.74-3.41,6.44-5.71,9.41-7.02,1.52-.66,3-1.28,4.47-1.87,.79-.32,1.56-.63,2.34-.94,6.35-2.56,12.32-5.11,18.41-10.6,4.12-3.72,10.07-11.11,8.41-17Z"/></g><g id="_1"><path class="cls-9" d="M129.7,140.7c-.37-.2-.73-.4-1.08-.6-3.44-1.91-6.49-3.73-9.18-5.45-.35-.22-.69-.45-1.03-.67-21.94-14.32-18.84-21.65-13.04-18.21-6.32-7.55-18.11,3.66,13.58,20.2,2.9,1.51,6.17,3.07,9.83,4.67,1.22,.53,2.47,1.06,3.78,1.6-.98-.52-1.93-1.03-2.85-1.53Z"/><path class="cls-9" d="M175.44,115.77c5.81-3.45,8.91,3.89-13.08,18.23-.34,.22-.68,.44-1.03,.67-2.67,1.71-5.69,3.51-9.1,5.4-.36,.2-.72,.4-1.08,.6-.94,.51-1.9,1.03-2.89,1.56,1.32-.54,2.59-1.08,3.82-1.61,3.63-1.58,6.87-3.12,9.75-4.63,31.74-16.55,19.95-27.78,13.61-20.22Z"/></g><g id="WH"><g id="_2-2"><polygon class="cls-9" points="127.44 85.13 119.87 85.13 119.87 101.97 127.44 128.09 127.44 85.13"/><polygon class="cls-9" points="160.93 85.13 153.36 85.13 153.36 128.09 160.93 101.97 160.93 85.13"/></g><g id="_1-2"><path class="cls-9" d="M127.44,131.66l-7.57-26.11-5.92-20.41h-7.61l13.08,48.26c.14,.09,.29,.19,.44,.28,.73,.47,1.49,.94,2.28,1.42,1.98,1.21,4.13,2.46,6.46,3.76,.36,.2,.72,.4,1.08,.6l-2.26-7.79Z"/><path class="cls-9" d="M166.89,85.13l-5.95,20.54-7.57,26.11-2.21,7.63c.37-.2,.73-.4,1.08-.6,3.41-1.89,6.43-3.69,9.1-5.4l13.09-48.28h-7.54Z"/></g></g><g id="Boule"><path class="cls-9" d="M135.19,104.63c.83-.83,1.09-.94,1.47-.56,.26,.25,.85,.12,1.29-.32,.76-.74,1.05-.84,1.72-.2,.39,.36,1.07,.35,1.44,0,.16-.15,.23-.33,.24-.52,0,0,0,0,0,0,0,0,0,0,0-.01,0-.02,0-.04,0-.07,0,0,0-.02,0-.03,0-.03,0-.06-.01-.09,0,0,0,0,0,0,0-.03-.01-.06-.02-.09,0,0,0-.02,0-.03,0-.02-.01-.04-.02-.06,0-.01,0-.02-.01-.03,0-.02-.02-.04-.03-.06,0-.01-.01-.02-.02-.03-.01-.02-.02-.04-.03-.05,0-.01-.01-.02-.02-.03-.01-.02-.03-.04-.04-.06,0,0-.01-.02-.02-.02-.02-.03-.05-.05-.07-.07-.11-.1-.24-.17-.37-.21-.28-.09-.58-.04-.82,.14-.03,.02-.06,.05-.09,.07-.07,.07-.14,.13-.21,.19-.62,.53-.88,.48-1.32,.06-.03-.03-.06-.05-.1-.06-.01,0-.03,0-.04-.01-.02,0-.05-.02-.08-.02-.02,0-.04,0-.06,0-.03,0-.05,0-.08,0-.02,0-.04,.01-.07,.02-.03,0-.05,.01-.08,.02-.02,0-.05,.02-.07,.03-.03,.01-.05,.02-.08,.03-.03,.01-.05,.03-.08,.04-.03,.02-.06,.03-.09,.05-.03,.02-.05,.04-.08,.05-.03,.02-.06,.04-.09,.06-.03,.02-.05,.04-.08,.07-.02,.02-.05,.04-.07,.06,0,0,0,0,0,0,0,0-.02,.02-.03,.02-.78,.77-1.04,.94-1.31,.68-.08-.08-.49,.24-.94,.69-.45,.45-.79,.83-.69,.93,.1,.1,.6-.12,1.05-.57Z"/><path class="cls-9" d="M134.62,113.64c.25-.26,.11-.86-.32-1.3-.21-.22-.46-.34-.68-.39,0,0,0,0,0,0,0,0,0,0,0,0-.04,0-.07,0-.1-.01-.02,0-.04,0-.06,0-.03,0-.07,0-.1,0-.02,0-.04,0-.05,0-.03,0-.06,.02-.09,.03-.01,0-.03,0-.04,.01-.04,.02-.07,.05-.1,.08-.04,.04-.07,.09-.08,.15-.08,.27,.12,.66,.47,1.01,0,0,.01,.01,.02,.02,.79,.8,.83,1.13,.67,1.3-.16,.17,.25,.49,.69,.94,.45,.45,.83,.79,.93,.69,.1-.1-.13-.6-.58-1.05-.83-.83-.95-1.09-.57-1.48Z"/><path class="cls-9" d="M134.09,110.61c.35-.37,.36-1.05,0-1.44-.6-.65-.56-.95,.21-1.74,.81-.83,1.12-.89,1.72-.26,.36,.38,1.05,.32,1.52-.15,.86-.86,1.22-.88,2.02-.1,.46,.45,1.24,.44,1.69,0,.17-.16,.27-.36,.3-.57,0,0,0,0,0,0,0,0,0,0,0,0,0-.04,.01-.08,.01-.12,0-.01,0-.02,0-.03,0-.03,0-.06,0-.09,0-.01,0-.03,0-.04,0-.03,0-.06-.01-.09,0-.01,0-.02,0-.04,0-.04-.02-.07-.03-.11,0,0,0,0,0,0-.01-.04-.03-.08-.05-.12,0-.01-.01-.02-.02-.03-.01-.03-.03-.05-.04-.08,0-.01-.02-.02-.02-.04-.02-.03-.03-.05-.05-.07,0-.01-.02-.02-.02-.03-.03-.03-.06-.07-.09-.1-.03-.03-.06-.05-.09-.08-.06-.05-.12-.09-.19-.12-.03-.02-.07-.03-.1-.05-.29-.12-.62-.1-.91,.03-.11,.05-.22,.12-.31,.21-.05,.05-.1,.09-.15,.14-.01,.01-.03,.03-.04,.04-.61,.55-.96,.61-1.46,.21-.03-.02-.06-.05-.09-.07-.01-.01-.03-.02-.04-.04-.04-.04-.08-.08-.13-.12,0,0,0,0,0,0-.17-.17-.41-.23-.67-.19-.05,0-.09,.02-.14,.03-.04,.01-.08,.03-.13,.04-.18,.07-.35,.19-.5,.34-.14,.14-.27,.26-.39,.36-.42,.36-.68,.44-.95,.29-.1-.05-.19-.14-.3-.25-.22-.23-.74-.02-1.16,.41-.43,.43-.61,.93-.39,1.16,.49,.52,.44,.82-.25,1.55-.35,.36-.35,.91,0,1.28,.35,.37,.92,.45,1.27,.08Z"/><path class="cls-9" d="M143.56,115.59s0,0,0,0c-.03,0-.06,.02-.09,.03-.03,0-.06,.02-.09,.03-.03,.01-.07,.03-.1,.05-.03,.01-.05,.02-.08,.04-.04,.02-.08,.05-.12,.08-.02,.01-.04,.03-.06,.04-.06,.04-.12,.09-.17,.15-.51,.5-.82,.69-1.15,.6-.08-.02-.16-.06-.25-.12-.02-.01-.04-.03-.07-.05-.01,0-.02-.02-.04-.03-.01,0-.02-.02-.03-.03-.06-.05-.12-.1-.19-.17-.09-.08-.19-.14-.3-.19-.01,0-.02-.01-.04-.02-.37-.14-.82-.07-1.11,.21-.64,.61-.94,.57-1.72-.2-.11-.11-.23-.2-.36-.27-.3-.17-.61-.21-.82-.13-.05,.02-.09,.04-.12,.08-.06,.05-.09,.12-.09,.2,0,0,0,.01,0,.02h0c0,.1,.02,.2,.06,.32,.08,.2,.24,.42,.45,.63l.02,.02s0,0,0,0c.42,.41,.91,.58,1.13,.36,.51-.49,.8-.45,1.53,.24,.36,.34,.92,.34,1.28,0,.73-.69,1.02-.73,1.53-.24,.23,.22,.72,.05,1.15-.38,.43-.43,.65-.93,.41-1.17-.12-.12-.33-.15-.57-.09Z"/><path class="cls-9" d="M147.99,109.24c-.52-.54-.67-.84-.52-1.18,0-.02,.02-.04,.03-.05,0-.01,.01-.02,.02-.03,.01-.02,.02-.04,.04-.06,0-.01,.01-.02,.02-.03,.02-.02,.03-.04,.05-.07,0,0,.01-.02,.02-.03,.03-.03,.06-.06,.09-.1,.06-.06,.09-.13,.09-.22,0-.06,0-.14-.02-.21-.02-.08-.05-.15-.09-.24,0,0,0,0,0-.01-.08-.16-.21-.33-.36-.48-.08-.08-.16-.16-.25-.22-.06-.04-.11-.08-.17-.12-.07-.04-.13-.08-.2-.1-.23-.1-.43-.1-.55,.03-.03,.03-.05,.07-.07,.11,0,.01,0,.03-.01,.04-.01,.03-.02,.06-.03,.1,0,0,0,0,0,0,0,0,0,0,0,0-.04,.3,.11,.72,.43,1.05,.77,.79,.69,1.22,.21,1.74-.48,.52-.35,1.07,0,1.44,.35,.37,.91,.29,1.27-.08,.36-.37,.35-.92,0-1.28Z"/><path class="cls-9" d="M136,113.71s.02,.04,.03,.05c0,0,0,0,0,0,.03,.05,.07,.1,.11,.15,.03,.04,.07,.08,.1,.11,.05,.05,.1,.1,.16,.14,0,0,.01,.01,.02,.02,.01,0,.02,.01,.03,.02,.02,.01,.04,.03,.06,.04,0,0,0,0,.01,0,.03,.02,.05,.03,.08,.05,0,0,0,0,0,0,.1,.05,.19,.09,.29,.11,0,0,.01,0,.02,0,.04,.01,.08,.02,.13,.02,.05,0,.09,0,.14,0,0,0,0,0,0,0,.19,0,.35-.07,.48-.2,.71-.7,1.06-.67,1.91,.15,.44,.43,1.15,.43,1.6,0,.45-.43,.5-1.13,.04-1.57-.45-.44-1.23-.45-1.69,0-.8,.78-1.16,.76-2.02-.1-.86-.86-.88-1.22-.1-2.02,.44-.46,.44-1.23,0-1.68-.11-.12-.24-.2-.38-.25,0,0,0,0,0,0,0,0,0,0-.01,0-.04-.02-.08-.03-.12-.04-.01,0-.02,0-.03,0-.05,0-.09-.02-.14-.02,0,0,0,0-.01,0-.04,0-.09,0-.13,0-.01,0-.02,0-.03,0-.05,0-.09,.01-.14,.02,0,0,0,0,0,0-.04,.01-.09,.03-.13,.04-.01,0-.02,0-.03,.01-.04,.02-.09,.04-.13,.06,0,0,0,0,0,0-.04,.02-.08,.05-.12,.08-.01,0-.02,.02-.03,.02-.04,.03-.08,.07-.11,.1-.03,.03-.05,.06-.08,.09-.28,.36-.32,.84-.12,1.24,.05,.1,.12,.19,.2,.27,.05,.05,.1,.11,.15,.16,.01,.02,.03,.03,.04,.05,.03,.03,.06,.07,.09,.1,.02,.02,.03,.04,.04,.05,.02,.03,.05,.06,.07,.08,.01,.02,.03,.04,.04,.06,.02,.03,.04,.05,.05,.07,.31,.48,.19,.82-.32,1.35-.25,.26-.26,.68-.05,1.07,0,0,0,0,0,0,0,.01,.02,.03,.02,.04Z"/><path class="cls-9" d="M143.26,105.33c-.04,.05-.09,.11-.15,.16-.06,.05-.1,.11-.14,.17-.16,.23-.19,.47-.12,.7,0,.03,.02,.07,.03,.1,.07,.19,.21,.38,.38,.56,0,0,0,0,0,0,.05,.05,.11,.1,.16,.14,.02,.01,.03,.02,.05,.03,.05,.03,.1,.06,.15,.08,.01,0,.02,.01,.04,.02,.06,.03,.12,.05,.18,.07,.02,0,.03,0,.05,.01,.05,.01,.1,.02,.15,.03,.02,0,.03,0,.05,0,.06,0,.12,0,.18,0,0,0,.02,0,.02,0,.04,0,.07,0,.11-.02,0,0,0,0,0,0,.15-.04,.29-.1,.39-.21,.35-.36,.23-.99-.23-1.45-.85-.85-.91-1.15-.41-1.65,.39-.38,.64-.27,1.47,.57,.45,.45,.95,.68,1.05,.57,.1-.1-.24-.48-.69-.93-.45-.45-.85-.77-.93-.69-.25,.24-.5,.12-1.31-.68-.06-.06-.12-.12-.19-.17,0,0,0,0,0,0-.04-.03-.08-.06-.13-.09,0,0,0,0-.01,0-.05-.03-.1-.06-.15-.09-.02,0-.03-.01-.05-.02-.03-.02-.07-.03-.1-.04-.02,0-.04-.01-.05-.02-.03,0-.06-.02-.09-.02-.02,0-.03,0-.05,0-.03,0-.05,0-.08,0-.02,0-.03,0-.05,0-.03,0-.05,.01-.08,.02-.01,0-.02,0-.04,.01-.04,.02-.07,.04-.1,.06-.25,.23-.16,.8,.27,1.22,.73,.72,.76,1.14,.41,1.57Z"/><path class="cls-9" d="M141,108.81c-.29-.16-.64-.2-.95-.1-.19,.06-.37,.16-.52,.31,0,0,0,0,0,0-.04,.04-.07,.07-.1,.11,0,.01-.02,.02-.03,.04-.02,.03-.04,.06-.06,.09,0,.01-.01,.02-.02,.04-.02,.04-.04,.09-.06,.13,0,0,0,0,0,0-.02,.04-.03,.09-.04,.13,0,.01,0,.03-.01,.04,0,.03-.01,.07-.02,.1,0,.01,0,.03,0,.04,0,.05,0,.09,0,.14,0,0,0,0,0,.01,0,.04,0,.09,0,.13,0,.01,0,.03,0,.04,0,.04,.01,.07,.02,.11,0,0,0,.02,0,.03,0,0,0,0,0,0,.05,.2,.16,.4,.32,.55,.48,.48,1.27,.48,1.75,0,.88-.88,1.26-.89,2.09-.03,.43,.44,1.13,.41,1.57-.04,.16-.16,.26-.36,.3-.57,0,0,0,0,0,0,0,0,0,0,0,0,0,0,0-.02,0-.02,0-.06,.01-.11,.02-.17,0-.01,0-.03,0-.04,0-.06,0-.12-.02-.19,0-.01,0-.02,0-.04-.01-.06-.03-.11-.05-.17,0,0,0-.02,0-.03-.02-.06-.05-.12-.09-.17,0-.01-.02-.02-.02-.04-.04-.06-.08-.11-.13-.16-.08-.08-.17-.15-.27-.21-.16-.09-.34-.14-.52-.15-.28,0-.57,.09-.78,.31-.83,.86-1.21,.86-2.09-.03-.08-.08-.18-.15-.27-.21Z"/><path class="cls-9" d="M147.83,112.34s0-.04,0-.06c0,0,0-.02,0-.02,0-.02,0-.03-.01-.05,0,0,0-.02,0-.02,0-.02-.01-.03-.02-.04,0,0,0-.01-.01-.02-.01-.02-.03-.04-.04-.06-.03-.03-.06-.05-.09-.07,0,0-.02-.01-.03-.02-.03-.01-.06-.02-.09-.03-.01,0-.02,0-.03,0-.04,0-.09-.01-.13-.01,0,0-.02,0-.03,0-.04,0-.08,0-.12,.01-.02,0-.03,0-.05,0-.04,0-.08,.02-.12,.04-.01,0-.02,0-.03,.01-.05,.02-.09,.04-.14,.06,0,0,0,0,0,0-.13,.07-.26,.16-.37,.28-.7,.71-1.02,.85-1.48,.49-.03-.02-.05-.04-.08-.07-.01-.01-.02-.02-.04-.03-.04-.04-.08-.08-.12-.12-.37-.38-1.05-.32-1.51,.15-.47,.47-.51,1.16-.15,1.52,.02,.02,.05,.04,.07,.06,0,0,.01,0,.02,.01,.02,.01,.04,.03,.06,.04,.01,0,.02,.01,.03,.02,.02,0,.03,.02,.05,.02,.01,0,.02,0,.04,.01,.02,0,.03,.01,.05,.02,.01,0,.03,0,.04,0,.02,0,.03,0,.05,0,.01,0,.03,0,.04,0,.02,0,.03,0,.05,0,.01,0,.03,0,.04,0,.02,0,.03,0,.05,0,.02,0,.03,0,.05,0,.02,0,.03,0,.05,0,0,0,0,0,.01,0,0,0,0,0,0,0,.25-.05,.51-.19,.73-.41,.84-.85,1.15-.91,1.63-.4,.38,.39,.07,.84-.57,1.48-.64,.64-.68,.95-.57,1.05,.1,.1,.48-.24,.93-.69,.45-.45,.78-.85,.69-.94-.24-.25-.13-.51,.68-1.32,.16-.16,.29-.34,.38-.5,0,0,0,0,0,0,0,0,0-.01,0-.02,.01-.02,.02-.04,.03-.07,0-.01,0-.02,.01-.03,0-.02,.01-.04,.02-.06,0-.01,0-.02,0-.03,0-.02,.01-.04,.01-.06,0,0,0-.01,0-.02,0-.03,0-.05,0-.08,0,0,0-.01,0-.02Z"/></g></g></g></g></g></g></g></svg>