<?xml version="1.0" encoding="UTF-8"?>
<svg id="ENG" xmlns="http://www.w3.org/2000/svg" xmlns:xlink="http://www.w3.org/1999/xlink"
    viewBox="0 0 555.51 558.08">
    <defs>
        <style>
            .cls-1,.cls-2,.cls-3{fill:none;}.cls-4{fill:url(#linear-gradient);}.cls-5{clip-path:url(#clippath);}.cls-6{mask:url(#mask);}.cls-7{fill:#112849;}.cls-2{stroke-width:.65px;}.cls-2,.cls-3{stroke:#112849;stroke-miterlimit:10;}.cls-8{fill:url(#Dégradé_sans_nom_16);}.cls-9{opacity:.4;}.cls-3{stroke-width:1.95px;}</style>
        <linearGradient id="Dégradé_sans_nom_16" x1="277.75" y1="546.54" x2="277.75" y2="11.54"
            gradientUnits="userSpaceOnUse">
            <stop offset="0" stop-color="#000" />
            <stop offset=".24" stop-color="#002030" />
            <stop offset=".78" stop-color="#0372a8" />
            <stop offset="1" stop-color="#0494da" />
        </linearGradient>
        <clipPath id="clippath">
            <rect class="cls-1" x="17.75" y="11.54" width="520" height="535" rx="20" ry="20" />
        </clipPath>
        <linearGradient id="linear-gradient" x1="516.66" y1="26.39" x2="17.97" y2="361.93"
            gradientUnits="userSpaceOnUse">
            <stop offset=".1" stop-color="#fff" />
            <stop offset=".19" stop-color="#eaeaea" />
            <stop offset=".39" stop-color="#b5b5b5" />
            <stop offset=".67" stop-color="#5f5f5f" />
            <stop offset=".96" stop-color="#000" />
        </linearGradient>
        <mask id="mask" x="15.86" y="10.71" width="523.27" height="353.21"
            maskUnits="userSpaceOnUse">
            <rect class="cls-4" x="15.86" y="10.71" width="523.27" height="353.21" />
        </mask>
    </defs>
    <rect class="cls-8" x="17.75" y="11.54" width="520" height="535" rx="20" ry="20" />
    <g class="cls-5">
        <g class="cls-6">
            <g id="CIRCUIT" class="cls-9">
                <g>
                    <g>
                        <polyline class="cls-2"
                            points="256.56 226.58 258.71 228.73 263.09 228.73 272.52 238.15 272.52 267.62 275.11 270.21 275.11 287.24 279.61 291.74 279.93 291.74" />
                        <path class="cls-7"
                            d="M255.58,227.67c-.57-.57-.57-1.5,0-2.07,.57-.57,1.5-.57,2.07,0,.57,.57,.57,1.5,0,2.07-.57,.57-1.5,.57-2.07,0Z" />
                        <circle class="cls-7" cx="279.86" cy="291.74" r="1.46" />
                    </g>
                    <g>
                        <polyline class="cls-2"
                            points="256.56 220.46 258.15 222.05 263.79 222.05 266.19 224.45 266.19 226.29 275.84 235.95 275.84 265.39 278.3 267.85 278.3 283.34 280.55 285.59" />
                        <path class="cls-7"
                            d="M255.58,221.55c-.57-.57-.57-1.5,0-2.07,.57-.57,1.5-.57,2.07,0,.57,.57,.57,1.5,0,2.07-.57,.57-1.5,.57-2.07,0Z" />
                        <path class="cls-7"
                            d="M279.46,286.57c.57,.57,1.5,.57,2.07,0,.57-.57,.57-1.5,0-2.07-.57-.57-1.5-.57-2.07,0-.57,.57-.57,1.5,0,2.07Z" />
                    </g>
                    <g>
                        <polyline class="cls-2"
                            points="262.34 225.26 274.02 236.94 274.02 266.09 276.69 268.77 276.69 285.06 280.07 288.44 283.41 288.44" />
                        <path class="cls-7"
                            d="M261.35,226.35c-.57-.57-.57-1.5,0-2.07,.57-.57,1.5-.57,2.07,0,.57,.57,.57,1.5,0,2.07s-1.5,.57-2.07,0Z" />
                        <path class="cls-7"
                            d="M283.34,289.9c.81,0,1.46-.66,1.46-1.46s-.66-1.47-1.46-1.47-1.46,.66-1.46,1.47,.66,1.46,1.46,1.46Z" />
                    </g>
                    <g>
                        <polyline class="cls-2"
                            points="263.66 233.12 269.04 238.5 269.04 266.51 273.3 270.77 273.3 288.44 280.03 295.16 285.77 295.16" />
                        <path class="cls-7"
                            d="M262.68,234.21c-.57-.57-.57-1.5,0-2.07,.57-.57,1.5-.57,2.07,0,.57,.57,.57,1.5,0,2.07-.57,.57-1.5,.57-2.07,0Z" />
                        <path class="cls-7"
                            d="M285.7,296.63c.81,0,1.47-.66,1.47-1.46s-.66-1.46-1.47-1.46-1.46,.66-1.46,1.46,.66,1.46,1.46,1.46Z" />
                    </g>
                    <g>
                        <polyline class="cls-2"
                            points="262.82 239.38 266.92 243.48 266.92 267.06 271.48 271.62 271.48 290.44 279.78 298.75 289.25 298.75 291.53 296.47 291.53 294.75" />
                        <path class="cls-7"
                            d="M261.84,240.47c-.57-.57-.57-1.5,0-2.07,.57-.57,1.5-.57,2.07,0,.57,.57,.57,1.5,0,2.07-.57,.57-1.5,.57-2.07,0Z" />
                        <path class="cls-7"
                            d="M292.99,294.83c0-.81-.66-1.47-1.47-1.47s-1.47,.66-1.47,1.47,.66,1.46,1.47,1.46,1.47-.66,1.47-1.46Z" />
                    </g>
                    <g>
                        <polyline class="cls-2"
                            points="255.58 233.53 255.58 238.4 262.61 245.43 262.61 267.34 264.87 269.6 264.87 293.36 267.9 296.39" />
                        <circle class="cls-7" cx="255.58" cy="233.6" r="1.46" />
                        <path class="cls-7"
                            d="M266.81,297.38c.57,.57,1.5,.57,2.07,0,.57-.57,.57-1.5,0-2.07-.57-.57-1.5-.57-2.07,0-.57,.57-.57,1.5,0,2.07Z" />
                    </g>
                    <g>
                        <polyline class="cls-2"
                            points="259.07 267.49 262.25 270.67 262.25 295.73 269.35 302.83 274.92 302.83 278.12 306.03 278.12 307.83" />
                        <path class="cls-7"
                            d="M258.08,268.58c-.57-.57-.57-1.5,0-2.07,.57-.57,1.5-.57,2.07,0,.57,.57,.57,1.5,0,2.07s-1.5,.57-2.07,0Z" />
                        <circle class="cls-7" cx="278.12" cy="307.76" r="1.46" />
                    </g>
                    <g>
                        <polyline class="cls-2"
                            points="296.96 362.2 296.96 291.26 293.98 288.28 289.27 288.28 280.16 279.17 280.16 267.48 277.45 264.76 277.45 235.13 268.89 226.57 268.89 223.91" />
                        <circle class="cls-7" cx="268.89" cy="223.98" r="1.46" />
                    </g>
                    <g>
                        <polyline class="cls-2"
                            points="299.08 362.2 299.08 290.35 295.51 286.78 291.29 286.78 282.43 277.92 282.43 266.44 279.64 263.65 279.64 234.79 272.53 227.68 272.53 222.14 269.87 219.48" />
                        <path class="cls-7"
                            d="M270.96,218.5c-.57-.57-1.5-.57-2.07,0-.57,.57-.57,1.5,0,2.07,.57,.57,1.5,.57,2.07,0,.57-.57,.57-1.5,0-2.07Z" />
                    </g>
                    <g>
                        <polyline class="cls-2"
                            points="301.32 362.2 301.32 289.5 296.21 284.41 292.38 284.41 287.68 279.7 287.68 277.95" />
                        <path class="cls-7"
                            d="M289.14,278.02c0-.81-.66-1.46-1.47-1.46s-1.46,.66-1.46,1.46,.66,1.47,1.46,1.47,1.47-.66,1.47-1.47Z" />
                    </g>
                    <g>
                        <polyline class="cls-2"
                            points="303.56 362.2 303.56 288.44 297.04 281.91 293.11 281.91 291.58 280.37 291.58 270.71 288.5 267.64" />
                        <path class="cls-7"
                            d="M289.59,266.66c-.57-.57-1.5-.57-2.07,0-.57,.57-.57,1.5,0,2.07,.57,.57,1.5,.57,2.07,0,.57-.57,.57-1.5,0-2.07Z" />
                    </g>
                    <g>
                        <polyline class="cls-2"
                            points="305.8 362.2 305.8 287.1 298.9 280.19 298.9 276.56 297.2 274.86" />
                        <path class="cls-7"
                            d="M298.29,273.88c-.57-.57-1.5-.57-2.07,0-.57,.57-.57,1.5,0,2.07,.57,.57,1.5,.57,2.07,0s.57-1.5,0-2.07Z" />
                    </g>
                    <g>
                        <polyline class="cls-2"
                            points="308.04 362.2 308.04 286.26 301.45 279.67 301.45 272.28 297.3 268.14" />
                        <path class="cls-7"
                            d="M298.39,267.15c-.57-.57-1.5-.57-2.07,0-.57,.57-.57,1.5,0,2.07,.57,.57,1.5,.57,2.07,0,.57-.57,.57-1.5,0-2.07Z" />
                    </g>
                    <g>
                        <polyline class="cls-2"
                            points="310.28 362.2 310.28 285.06 304.65 279.43 304.65 275.27" />
                        <path class="cls-7"
                            d="M306.11,275.34c0-.81-.66-1.46-1.47-1.46s-1.46,.66-1.46,1.46,.66,1.47,1.46,1.47,1.47-.66,1.47-1.47Z" />
                    </g>
                    <g>
                        <polyline class="cls-2"
                            points="312.52 362.2 312.52 284.18 308.4 280.06 308.4 271.65 305.01 268.26" />
                        <path class="cls-7"
                            d="M306.1,267.28c-.57-.57-1.5-.57-2.07,0-.57,.57-.57,1.5,0,2.07,.57,.57,1.5,.57,2.07,0,.57-.57,.57-1.5,0-2.07Z" />
                    </g>
                    <g>
                        <polyline class="cls-2"
                            points="314.76 362.2 314.76 282.51 310.64 278.39 310.64 268.57 287.45 245.38 287.45 235.75 279.13 227.44 279.13 222.4 276.44 219.71" />
                        <path class="cls-7"
                            d="M277.53,218.73c-.57-.57-1.5-.57-2.07,0s-.57,1.5,0,2.07,1.5,.57,2.07,0c.57-.57,.57-1.5,0-2.07Z" />
                    </g>
                    <g>
                        <polyline class="cls-2"
                            points="317 362.2 317 281.26 312.99 277.24 312.99 267.28 289.84 244.14 289.84 233.53" />
                        <circle class="cls-7" cx="289.84" cy="233.6" r="1.46" />
                    </g>
                    <g>
                        <polyline class="cls-2"
                            points="319.24 362.2 319.24 280.72 314.92 276.4 314.92 266.51 292.66 244.25 292.66 231.16 290 228.5 285.91 228.5 282.16 224.75 282.16 220.12" />
                        <path class="cls-7"
                            d="M283.63,220.19c0-.81-.66-1.46-1.46-1.46s-1.47,.66-1.47,1.46,.66,1.47,1.47,1.47,1.46-.66,1.46-1.47Z" />
                    </g>
                    <g>
                        <polyline class="cls-2"
                            points="321.48 362.2 321.48 279.59 317.15 275.26 317.15 264.76 301.33 248.93 301.33 238.4 295.64 232.71 295.64 226.99" />
                        <circle class="cls-7" cx="295.64" cy="227.06" r="1.46" />
                    </g>
                    <g>
                        <polyline class="cls-2"
                            points="317 239.79 317 246.82 319.79 249.61 334.89 249.61 345.36 260.07 345.36 263.65 362.36 280.65 362.36 296.01 352.45 305.91 352.45 362.2" />
                        <path class="cls-7"
                            d="M315.53,239.86c0-.81,.66-1.46,1.47-1.46s1.46,.66,1.46,1.46-.66,1.46-1.46,1.46-1.47-.66-1.47-1.46Z" />
                    </g>
                    <g>
                        <polyline class="cls-2"
                            points="323.76 239.79 323.76 245.49 325.5 247.23 336.15 247.23 347.78 258.86 347.78 262.61 364.92 279.75 364.92 297.17 354.8 307.29 354.8 362.2" />
                        <path class="cls-7"
                            d="M322.3,239.86c0-.81,.66-1.46,1.47-1.46s1.46,.66,1.46,1.46-.66,1.46-1.46,1.46-1.47-.66-1.47-1.46Z" />
                    </g>
                    <g>
                        <polyline class="cls-2"
                            points="351.46 261.78 367.31 277.64 367.31 298.37 357.44 308.25 357.44 356.81 362.9 362.28" />
                        <path class="cls-7"
                            d="M350.48,262.87c-.57-.57-.57-1.5,0-2.07,.57-.57,1.5-.57,2.07,0s.57,1.5,0,2.07c-.57,.57-1.5,.57-2.07,0Z" />
                    </g>
                    <g>
                        <polyline class="cls-2" points="336.16 274.86 340.46 279.17 340.46 362.2" />
                        <path class="cls-7"
                            d="M335.17,275.95c-.57-.57-.57-1.5,0-2.07,.57-.57,1.5-.57,2.07,0,.57,.57,.57,1.5,0,2.07-.57,.57-1.5,.57-2.07,0Z" />
                    </g>
                    <g>
                        <polyline class="cls-2"
                            points="325.58 259.65 329.73 263.8 329.73 273.32 338.71 282.31 338.71 362.28" />
                        <path class="cls-7"
                            d="M324.6,260.74c-.57-.57-.57-1.5,0-2.07,.57-.57,1.5-.57,2.07,0s.57,1.5,0,2.07c-.57,.57-1.5,.57-2.07,0Z" />
                    </g>
                    <g>
                        <polyline class="cls-2"
                            points="322.46 265.68 327.14 270.36 327.14 273.88 336.24 282.97 336.24 362.2" />
                        <path class="cls-7"
                            d="M321.48,266.77c-.57-.57-.57-1.5,0-2.07s1.5-.57,2.07,0c.57,.57,.57,1.5,0,2.07-.57,.57-1.5,.57-2.07,0Z" />
                    </g>
                    <g>
                        <polyline class="cls-2"
                            points="296.09 217.74 298.81 215.03 304.03 215.03 316.4 227.39 328.86 227.39 378.1 276.63 378.1 316.53 380.24 318.68" />
                        <circle class="cls-7" cx="296.15" cy="217.69" r="1.46" />
                        <path class="cls-7"
                            d="M379.15,319.66c.57,.57,1.5,.57,2.07,0s.57-1.5,0-2.07c-.57-.57-1.5-.57-2.07,0-.57,.57-.57,1.5,0,2.07Z" />
                    </g>
                    <g>
                        <polyline class="cls-2"
                            points="336.46 184.68 333.29 181.52 324.56 181.52 322.44 179.39 313.92 179.39 310.78 182.53 310.78 187.99 305.8 192.97 305.8 213.21 318.12 225.53 330.16 225.53 380.51 275.88 380.51 310.47 384.19 314.14 384.19 340.53 396 352.34 396 362.28" />
                        <path class="cls-7"
                            d="M337.44,183.6c.57,.57,.57,1.5,0,2.07-.57,.57-1.5,.57-2.07,0-.57-.57-.57-1.5,0-2.07,.57-.57,1.5-.57,2.07,0Z" />
                    </g>
                    <g>
                        <polyline class="cls-2"
                            points="316.02 190.19 311.27 194.94 311.27 215.03 319.46 223.22 331.65 223.22 382.54 274.1 382.54 309.43 386.43 313.33 386.43 339.49 397.54 350.59 408.85 350.59 420.74 362.49" />
                        <path class="cls-7"
                            d="M314.93,189.21c.57-.57,1.5-.57,2.07,0,.57,.57,.57,1.5,0,2.07-.57,.57-1.5,.57-2.07,0-.57-.57-.57-1.5,0-2.07Z" />
                    </g>
                    <g>
                        <polyline class="cls-2"
                            points="320.51 190.21 314.76 195.96 314.76 213.77 321.67 220.68 332.95 220.68 385.36 273.09 385.36 308.11 389.07 311.82 389.07 338.03 399.13 348.09 411.01 348.09 424.92 362" />
                        <path class="cls-7"
                            d="M319.42,189.22c.57-.57,1.5-.57,2.07,0s.57,1.5,0,2.07c-.57,.57-1.5,.57-2.07,0-.57-.57-.57-1.5,0-2.07Z" />
                    </g>
                    <g>
                        <polyline class="cls-2"
                            points="398.66 270.83 402.28 270.83 405.83 274.39 405.83 292.11 411.9 298.18 430.14 298.18 438.53 306.57 438.53 319.66 446.08 327.2 500.9 327.2 519.51 345.82 532.2 345.82 537.75 351.37 537.75 362" />
                        <path class="cls-7"
                            d="M398.73,272.3c-.81,0-1.46-.66-1.46-1.46s.66-1.47,1.46-1.47,1.46,.66,1.46,1.47-.66,1.46-1.46,1.46Z" />
                    </g>
                    <g>
                        <polyline class="cls-2"
                            points="398.25 276.83 400.87 279.45 400.87 294.38 422.05 315.56 422.05 320.91 425.94 324.8 433.58 324.8 441.66 332.88 441.66 340.01 445.76 344.11 466.14 344.11 472.94 337.31 506.53 337.31 519.78 350.56 519.78 362" />
                        <path class="cls-7"
                            d="M397.27,277.92c-.57-.57-.57-1.5,0-2.07,.57-.57,1.5-.57,2.07,0,.57,.57,.57,1.5,0,2.07-.57,.57-1.5,.57-2.07,0Z" />
                    </g>
                    <g>
                        <polyline class="cls-2"
                            points="329.84 213.26 335.13 218.54 340.46 218.54 377.78 255.86 386.62 255.86 391.59 260.84 391.59 337.19 400.54 346.13 412.29 346.13 429.24 363.08" />
                        <path class="cls-7"
                            d="M328.86,214.35c-.57-.57-.57-1.5,0-2.07,.57-.57,1.5-.57,2.07,0,.57,.57,.57,1.5,0,2.07-.57,.57-1.5,.57-2.07,0Z" />
                    </g>
                    <g>
                        <polyline class="cls-2"
                            points="324.75 198.14 328.19 194.7 344.34 194.7 347.33 197.69 347.33 201.32 350 203.98 355.31 203.98 362.83 196.47 422.31 196.47 425.05 199.21 425.05 202.59" />
                        <path class="cls-7"
                            d="M325.83,199.12c-.57,.57-1.5,.57-2.07,0-.57-.57-.57-1.5,0-2.07,.57-.57,1.5-.57,2.07,0,.57,.57,.57,1.5,0,2.07Z" />
                        <path class="cls-7"
                            d="M423.59,202.52c0,.81,.66,1.46,1.46,1.46s1.47-.66,1.47-1.46-.66-1.47-1.47-1.47-1.46,.66-1.46,1.47Z" />
                    </g>
                    <g>
                        <polyline class="cls-2"
                            points="330.25 199.34 335.17 199.34 344.03 208.2 356.88 208.2 365.33 199.75 408.54 199.75 420 211.21 429.24 211.21 446.09 194.37 452.23 194.37" />
                        <path class="cls-7"
                            d="M330.32,200.81c-.81,0-1.46-.66-1.46-1.47s.66-1.46,1.46-1.46,1.46,.66,1.46,1.46-.66,1.47-1.46,1.47Z" />
                        <path class="cls-7"
                            d="M452.16,195.83c.81,0,1.46-.66,1.46-1.46s-.66-1.46-1.46-1.46-1.47,.66-1.47,1.46,.66,1.46,1.47,1.46Z" />
                    </g>
                    <g>
                        <polyline class="cls-2"
                            points="330.25 202.79 335.17 202.79 342.72 210.34 357.5 210.34 365.53 202.32 407.91 202.32 418.72 213.12 431.08 213.12 445.48 198.72 452.23 198.72" />
                        <path class="cls-7"
                            d="M330.32,204.26c-.81,0-1.46-.66-1.46-1.47s.66-1.46,1.46-1.46,1.46,.66,1.46,1.46-.66,1.47-1.46,1.47Z" />
                        <path class="cls-7"
                            d="M452.16,200.18c.81,0,1.46-.66,1.46-1.47s-.66-1.46-1.46-1.46-1.47,.66-1.47,1.46,.66,1.47,1.47,1.47Z" />
                    </g>
                    <g>
                        <polyline class="cls-2"
                            points="329.84 208.63 336.47 215.26 350.48 215.26 357.73 222.51 388.46 222.51 391.92 219.06" />
                        <path class="cls-7"
                            d="M328.86,209.72c-.57-.57-.57-1.5,0-2.07,.57-.57,1.5-.57,2.07,0,.57,.57,.57,1.5,0,2.07-.57,.57-1.5,.57-2.07,0Z" />
                        <path class="cls-7"
                            d="M392.91,220.14c.57-.57,.57-1.5,0-2.07-.57-.57-1.5-.57-2.07,0s-.57,1.5,0,2.07c.57,.57,1.5,.57,2.07,0Z" />
                    </g>
                    <g>
                        <polyline class="cls-2"
                            points="357.58 216.06 362.16 220.64 385.54 220.64 394.5 211.69" />
                        <path class="cls-7"
                            d="M356.6,217.15c-.57-.57-.57-1.5,0-2.07,.57-.57,1.5-.57,2.07,0s.57,1.5,0,2.07c-.57,.57-1.5,.57-2.07,0Z" />
                        <path class="cls-7"
                            d="M395.48,212.77c.57-.57,.57-1.5,0-2.07-.57-.57-1.5-.57-2.07,0-.57,.57-.57,1.5,0,2.07,.57,.57,1.5,.57,2.07,0Z" />
                    </g>
                    <g>
                        <polyline class="cls-2"
                            points="447.94 203.78 438.12 213.59 438.12 237.22 432.36 242.98 432.36 257.46 459.53 284.63 459.53 296.7 465.19 302.36 537.24 302.36" />
                        <path class="cls-7"
                            d="M446.85,202.79c.57-.57,1.5-.57,2.07,0,.57,.57,.57,1.5,0,2.07-.57,.57-1.5,.57-2.07,0-.57-.57-.57-1.5,0-2.07Z" />
                    </g>
                    <g>
                        <polyline class="cls-2"
                            points="451.45 203.51 440.42 214.54 440.42 238.17 434.65 243.93 434.65 255.17 461.83 282.34 461.83 294.4 467.48 300.06 537.24 300.06" />
                        <path class="cls-7"
                            d="M450.36,202.53c.57-.57,1.5-.57,2.07,0,.57,.57,.57,1.5,0,2.07-.57,.57-1.5,.57-2.07,0-.57-.57-.57-1.5,0-2.07Z" />
                    </g>
                    <g>
                        <polyline class="cls-2"
                            points="457.89 200.32 442.72 215.49 442.72 239.12 436.95 244.88 436.95 252.87 464.12 280.04 464.12 292.11 469.78 297.76 537.24 297.76" />
                        <path class="cls-7"
                            d="M456.8,199.34c.57-.57,1.5-.57,2.07,0,.57,.57,.57,1.5,0,2.07-.57,.57-1.5,.57-2.07,0-.57-.57-.57-1.5,0-2.07Z" />
                    </g>
                    <g>
                        <polyline class="cls-2"
                            points="461.13 200.32 445.01 216.45 445.01 240.07 439.25 245.83 439.25 250.57 466.42 277.75 466.42 289.81 472.07 295.47 537.24 295.47" />
                        <path class="cls-7"
                            d="M460.04,199.34c.57-.57,1.5-.57,2.07,0,.57,.57,.57,1.5,0,2.07-.57,.57-1.5,.57-2.07,0-.57-.57-.57-1.5,0-2.07Z" />
                    </g>
                    <g>
                        <polyline class="cls-2"
                            points="450.98 257.72 468.71 275.45 468.71 287.52 474.37 293.17 537.24 293.17" />
                        <path class="cls-7"
                            d="M450,258.81c-.57-.57-.57-1.5,0-2.07s1.5-.57,2.07,0c.57,.57,.57,1.5,0,2.07-.57,.57-1.5,.57-2.07,0Z" />
                    </g>
                    <g>
                        <polyline class="cls-2"
                            points="460.44 262.59 471.01 273.15 471.01 285.22 476.66 290.88 537.24 290.88" />
                        <path class="cls-7"
                            d="M459.46,263.68c-.57-.57-.57-1.5,0-2.07,.57-.57,1.5-.57,2.07,0,.57,.57,.57,1.5,0,2.07-.57,.57-1.5,.57-2.07,0Z" />
                    </g>
                    <g>
                        <polyline class="cls-2"
                            points="238.39 222.51 229.35 222.51 221.62 230.25 221.62 284.41 225.72 288.52 225.72 307.55 245.82 327.65" />
                        <path class="cls-7"
                            d="M238.32,221.05c.81,0,1.46,.66,1.46,1.47s-.66,1.46-1.46,1.46-1.47-.66-1.47-1.46,.66-1.47,1.47-1.47Z" />
                        <path class="cls-7"
                            d="M244.73,328.64c.57,.57,1.5,.57,2.07,0,.57-.57,.57-1.5,0-2.07-.57-.57-1.5-.57-2.07,0-.57,.57-.57,1.5,0,2.07Z" />
                    </g>
                    <g>
                        <polyline class="cls-2"
                            points="320.22 168.7 328.43 176.9 340.46 176.9 360.49 156.88 408.29 156.88 424.53 173.11 424.53 183.02" />
                        <path class="cls-7"
                            d="M319.24,169.78c-.57-.57-.57-1.5,0-2.07,.57-.57,1.5-.57,2.07,0,.57,.57,.57,1.5,0,2.07-.57,.57-1.5,.57-2.07,0Z" />
                        <path class="cls-7"
                            d="M423.06,182.94c0,.81,.66,1.46,1.46,1.46s1.47-.66,1.47-1.46-.66-1.46-1.47-1.46-1.46,.66-1.46,1.46Z" />
                    </g>
                    <g>
                        <polyline class="cls-2"
                            points="348.68 175.08 362.96 160.8 406.55 160.8 420.45 174.69 420.45 183.02" />
                        <path class="cls-7"
                            d="M349.77,176.06c-.57,.57-1.5,.57-2.07,0-.57-.57-.57-1.5,0-2.07,.57-.57,1.5-.57,2.07,0s.57,1.5,0,2.07Z" />
                        <path class="cls-7"
                            d="M418.98,182.94c0,.81,.66,1.46,1.47,1.46s1.46-.66,1.46-1.46-.66-1.46-1.46-1.46-1.47,.66-1.47,1.46Z" />
                    </g>
                    <g>
                        <polyline class="cls-2"
                            points="203.62 175.59 197.52 181.55 197.52 204.69 192.38 209.84 184.48 209.84 174.17 220.14 174.17 234.08 142.75 265.5 142.75 321.75 102.59 361.91" />
                        <path class="cls-7"
                            d="M202.55,174.6c.58-.57,1.51-.55,2.07,.02,.57,.58,.55,1.51-.03,2.07s-1.51,.55-2.07-.02c-.56-.58-.55-1.51,.02-2.07Z" />
                    </g>
                    <g>
                        <polyline class="cls-2"
                            points="203.6 171.44 195.25 179.64 195.25 202.79 190.1 207.93 182.2 207.93 171.9 218.23 171.9 232.18 140.48 263.6 140.48 319.84 98.32 362" />
                        <path class="cls-7"
                            d="M202.52,170.45c.58-.57,1.5-.56,2.07,.02s.56,1.5-.02,2.07c-.58,.57-1.5,.56-2.07-.02-.57-.58-.56-1.5,.02-2.07Z" />
                    </g>
                    <g>
                        <polyline class="cls-2"
                            points="228.69 320.51 218.28 320.51 196.51 298.75 196.51 285.12 182.23 270.83 182.23 254.28 210.91 225.6 210.91 216.97 219.63 208.26" />
                        <path class="cls-7"
                            d="M228.62,319.04c.81,0,1.47,.66,1.47,1.46s-.66,1.47-1.47,1.47-1.46-.66-1.46-1.47,.66-1.46,1.46-1.46Z" />
                        <path class="cls-7"
                            d="M220.61,209.34c.57-.57,.57-1.5,0-2.07-.57-.57-1.5-.57-2.07,0-.57,.57-.57,1.5,0,2.07,.57,.57,1.5,.57,2.07,0Z" />
                    </g>
                    <g>
                        <polyline class="cls-2"
                            points="202.26 224.66 177.6 249.32 177.6 266.31 158.85 285.06 158.85 336.1 150.87 344.08 150.87 362.2" />
                        <path class="cls-7"
                            d="M201.17,223.68c.57-.57,1.5-.57,2.07,0,.57,.57,.57,1.5,0,2.07-.57,.57-1.5,.57-2.07,0-.57-.57-.57-1.5,0-2.07Z" />
                    </g>
                    <g>
                        <polyline class="cls-2"
                            points="176.07 274.86 160.58 290.35 160.58 336.88 152.6 344.87 152.6 362.2" />
                        <path class="cls-7"
                            d="M174.99,273.88c.57-.57,1.5-.57,2.07,0,.57,.57,.57,1.5,0,2.07-.57,.57-1.5,.57-2.07,0-.57-.57-.57-1.5,0-2.07Z" />
                    </g>
                    <g>
                        <polyline class="cls-2"
                            points="172.43 286.04 162.19 296.28 162.19 337.82 154.5 345.52 154.5 362.2" />
                        <path class="cls-7"
                            d="M171.34,285.06c.57-.57,1.5-.57,2.07,0,.57,.57,.57,1.5,0,2.07-.57,.57-1.5,.57-2.07,0-.57-.57-.57-1.5,0-2.07Z" />
                    </g>
                    <g>
                        <polyline class="cls-2"
                            points="182.23 282.02 182.23 285.06 163.78 303.51 163.78 339.38 156.38 346.78 156.38 362.2" />
                        <path class="cls-7"
                            d="M180.77,282.09c0-.81,.66-1.47,1.46-1.47s1.47,.66,1.47,1.47-.66,1.46-1.47,1.46-1.46-.66-1.46-1.46Z" />
                    </g>
                    <g>
                        <polyline class="cls-2"
                            points="175.92 297.68 175.92 311.52 165.5 321.94 165.5 340.53 158.18 347.84 158.18 362.2" />
                        <path class="cls-7"
                            d="M174.45,297.75c0-.81,.66-1.46,1.46-1.46s1.47,.66,1.47,1.46-.66,1.47-1.47,1.47-1.46-.66-1.46-1.47Z" />
                    </g>
                    <g>
                        <polyline class="cls-2"
                            points="167.05 361.91 167.05 322.37 177.85 311.57 177.85 295.16 187 286.01" />
                        <path class="cls-7"
                            d="M187.99,287.1c.57-.57,.57-1.5,0-2.07-.57-.57-1.5-.57-2.07,0-.57,.57-.57,1.5,0,2.07,.57,.57,1.5,.57,2.07,0Z" />
                    </g>
                    <g>
                        <polyline class="cls-2"
                            points="234.73 233.12 228.11 239.74 228.11 280.63 231.91 284.42 231.91 305.57 246.26 319.92 261.84 319.92 265.54 323.62 265.54 335.63 238.89 362.28" />
                        <path class="cls-7"
                            d="M233.64,232.14c.57-.57,1.5-.57,2.07,0,.57,.57,.57,1.5,0,2.07-.57,.57-1.5,.57-2.07,0-.57-.57-.57-1.5,0-2.07Z" />
                    </g>
                    <g>
                        <polyline class="cls-2"
                            points="227.95 233.12 225.04 236.03 225.04 281.46 228.78 285.21 228.78 306.09 246.39 323.7 258.08 323.7 259.91 325.52 259.91 332.81 230.44 362.27" />
                        <path class="cls-7"
                            d="M226.86,232.14c.57-.57,1.5-.57,2.07,0,.57,.57,.57,1.5,0,2.07-.57,.57-1.5,.57-2.07,0s-.57-1.5,0-2.07Z" />
                    </g>
                    <g>
                        <polyline class="cls-2" points="185.36 335.27 192.72 327.91 192.72 306.65" />
                        <path class="cls-7"
                            d="M186.44,336.25c-.57,.57-1.5,.57-2.07,0s-.57-1.5,0-2.07c.57-.57,1.5-.57,2.07,0,.57,.57,.57,1.5,0,2.07Z" />
                        <path class="cls-7"
                            d="M194.18,306.72c0-.81-.66-1.46-1.46-1.46s-1.47,.66-1.47,1.46,.66,1.46,1.47,1.46,1.46-.66,1.46-1.46Z" />
                    </g>
                    <g>
                        <line class="cls-2" x1="197.83" y1="310.62" x2="197.83" y2="334.86" />
                        <path class="cls-7"
                            d="M196.37,310.69c0-.81,.66-1.46,1.46-1.46s1.46,.66,1.46,1.46-.66,1.47-1.46,1.47-1.46-.66-1.46-1.47Z" />
                        <path class="cls-7"
                            d="M196.37,334.79c0,.81,.66,1.47,1.46,1.47s1.46-.66,1.46-1.47-.66-1.46-1.46-1.46-1.46,.66-1.46,1.46Z" />
                    </g>
                    <g>
                        <line class="cls-2" x1="201.28" y1="311.86" x2="201.28" y2="334.86" />
                        <path class="cls-7"
                            d="M199.81,311.94c0-.81,.66-1.46,1.47-1.46s1.46,.66,1.46,1.46-.66,1.46-1.46,1.46-1.47-.66-1.47-1.46Z" />
                        <path class="cls-7"
                            d="M199.81,334.79c0,.81,.66,1.47,1.47,1.47s1.46-.66,1.46-1.47-.66-1.46-1.46-1.46-1.47,.66-1.47,1.46Z" />
                    </g>
                    <g>
                        <polyline class="cls-2"
                            points="233.26 208.26 206.17 235.35 206.17 303.59 217.39 314.81 223.65 314.81" />
                        <path class="cls-7"
                            d="M232.17,207.27c.57-.57,1.5-.57,2.07,0,.57,.57,.57,1.5,0,2.07-.57,.57-1.5,.57-2.07,0-.57-.57-.57-1.5,0-2.07Z" />
                        <path class="cls-7"
                            d="M223.57,316.27c.81,0,1.46-.66,1.46-1.46s-.66-1.46-1.46-1.46-1.47,.66-1.47,1.46,.66,1.46,1.47,1.46Z" />
                    </g>
                    <g>
                        <polyline class="cls-2"
                            points="214.62 234.03 211.38 237.26 211.38 286.89 215.48 290.99 215.48 306.93 217.88 309.33" />
                        <path class="cls-7"
                            d="M213.53,233.04c.57-.57,1.5-.57,2.07,0,.57,.57,.57,1.5,0,2.07-.57,.57-1.5,.57-2.07,0-.57-.57-.57-1.5,0-2.07Z" />
                        <path class="cls-7"
                            d="M216.79,310.31c.57,.57,1.5,.57,2.07,0,.57-.57,.57-1.5,0-2.07-.57-.57-1.5-.57-2.07,0s-.57,1.5,0,2.07Z" />
                    </g>
                    <g>
                        <polyline class="cls-2" points="209.93 321.74 205.54 326.13 205.54 334.86" />
                        <path class="cls-7"
                            d="M208.84,320.76c.57-.57,1.5-.57,2.07,0,.57,.57,.57,1.5,0,2.07s-1.5,.57-2.07,0c-.57-.57-.57-1.5,0-2.07Z" />
                        <path class="cls-7"
                            d="M204.08,334.79c0,.81,.66,1.47,1.47,1.47s1.46-.66,1.46-1.47-.66-1.46-1.46-1.46-1.47,.66-1.47,1.46Z" />
                    </g>
                    <g>
                        <polyline class="cls-2"
                            points="235.21 325.3 215.12 325.3 211.41 329 211.41 334.86" />
                        <path class="cls-7"
                            d="M235.14,323.83c.81,0,1.46,.66,1.46,1.47s-.66,1.46-1.46,1.46-1.46-.66-1.46-1.46,.66-1.47,1.46-1.47Z" />
                        <path class="cls-7"
                            d="M209.95,334.79c0,.81,.66,1.47,1.46,1.47s1.46-.66,1.46-1.47-.66-1.46-1.46-1.46-1.46,.66-1.46,1.46Z" />
                    </g>
                    <g>
                        <polyline class="cls-2"
                            points="232.82 322.74 213.07 322.74 208.43 327.38 208.43 334.86" />
                        <path class="cls-7"
                            d="M232.75,321.27c.81,0,1.46,.66,1.46,1.46s-.66,1.47-1.46,1.47-1.46-.66-1.46-1.47,.66-1.46,1.46-1.46Z" />
                        <path class="cls-7"
                            d="M206.97,334.79c0,.81,.66,1.47,1.46,1.47s1.46-.66,1.46-1.47-.66-1.46-1.46-1.46-1.46,.66-1.46,1.46Z" />
                    </g>
                    <g>
                        <polyline class="cls-2"
                            points="237.77 327.85 216.36 327.85 214.41 329.8 214.41 334.86" />
                        <path class="cls-7"
                            d="M237.69,326.39c.81,0,1.46,.66,1.46,1.46s-.66,1.46-1.46,1.46-1.47-.66-1.47-1.46,.66-1.46,1.47-1.46Z" />
                        <path class="cls-7"
                            d="M212.95,334.79c0,.81,.66,1.47,1.46,1.47s1.47-.66,1.47-1.47-.66-1.46-1.47-1.46-1.46,.66-1.46,1.46Z" />
                    </g>
                    <g>
                        <polyline class="cls-2" points="336.56 189.22 356.6 189.22 364.69 181.13" />
                        <path class="cls-7"
                            d="M336.64,190.69c-.81,0-1.46-.66-1.46-1.46s.66-1.47,1.46-1.47,1.46,.66,1.46,1.47-.66,1.46-1.46,1.46Z" />
                        <path class="cls-7"
                            d="M365.68,182.22c.57-.57,.57-1.5,0-2.07-.57-.57-1.5-.57-2.07,0-.57,.57-.57,1.5,0,2.07s1.5,.57,2.07,0Z" />
                    </g>
                    <g>
                        <line class="cls-2" x1="354.73" y1="197.73" x2="364.65" y2="187.81" />
                        <path class="cls-7"
                            d="M355.82,198.72c-.57,.57-1.5,.57-2.07,0s-.57-1.5,0-2.07c.57-.57,1.5-.57,2.07,0,.57,.57,.57,1.5,0,2.07Z" />
                        <path class="cls-7"
                            d="M365.64,188.9c.57-.57,.57-1.5,0-2.07-.57-.57-1.5-.57-2.07,0-.57,.57-.57,1.5,0,2.07s1.5,.57,2.07,0Z" />
                    </g>
                    <g>
                        <polyline class="cls-2" points="363.94 171.63 350.92 184.65 345.73 184.65" />
                        <path class="cls-7"
                            d="M362.85,170.64c.57-.57,1.5-.57,2.07,0s.57,1.5,0,2.07c-.57,.57-1.5,.57-2.07,0-.57-.57-.57-1.5,0-2.07Z" />
                        <path class="cls-7"
                            d="M345.81,183.18c-.81,0-1.46,.66-1.46,1.46s.66,1.47,1.46,1.47,1.47-.66,1.47-1.47-.66-1.46-1.47-1.46Z" />
                    </g>
                    <g>
                        <polyline class="cls-2"
                            points="397.61 170.64 404.15 170.64 411.57 178.06 411.57 186.83 415.42 190.68 445.48 190.68 464.22 171.94 464.22 162.81 460.17 158.76 460.17 72.64 454.24 66.7 454.24 11.54" />
                        <path class="cls-7"
                            d="M397.68,172.11c-.81,0-1.46-.66-1.46-1.47s.66-1.46,1.46-1.46,1.47,.66,1.47,1.46-.66,1.47-1.47,1.47Z" />
                    </g>
                    <g>
                        <polyline class="cls-2"
                            points="397.61 170.64 404.15 170.64 411.57 178.06 411.57 186.83 415.42 190.68 445.48 190.68 464.22 171.94 464.22 162.81 460.17 158.76 460.17 72.64 454.24 66.7 454.24 11.54" />
                        <path class="cls-7"
                            d="M397.68,172.11c-.81,0-1.46-.66-1.46-1.47s.66-1.46,1.46-1.46,1.47,.66,1.47,1.46-.66,1.47-1.47,1.47Z" />
                    </g>
                    <g>
                        <polyline class="cls-2"
                            points="397.61 172.02 403.11 172.02 409.8 178.7 409.8 187.48 415.43 193.11 445.49 193.11 466.02 172.58 466.02 162.81 461.97 158.76 461.97 72.64 456.03 66.7 456.03 11.54" />
                        <path class="cls-7"
                            d="M397.68,173.48c-.81,0-1.46-.66-1.46-1.46s.66-1.47,1.46-1.47,1.47,.66,1.47,1.47-.66,1.46-1.47,1.46Z" />
                    </g>
                    <g>
                        <polyline class="cls-2"
                            points="457.83 11.54 457.83 66.7 463.76 72.64 463.76 158.76 467.81 162.81 467.81 172.91 460.59 180.14 460.59 186.87 456.8 190.66" />
                        <path class="cls-7"
                            d="M455.81,189.57c-.57,.57-.57,1.5,0,2.07,.57,.57,1.5,.57,2.07,0,.57-.57,.57-1.5,0-2.07-.57-.57-1.5-.57-2.07,0Z" />
                    </g>
                    <g>
                        <polyline class="cls-2"
                            points="459.62 11.54 459.62 66.7 465.56 72.64 465.56 158.76 469.61 162.81 469.61 173.56 463.76 179.41 463.76 193.11 467.35 196.7 467.35 199.99 470.42 203.07 473.34 203.07 476.63 206.35" />
                        <path class="cls-7"
                            d="M475.54,207.34c.57,.57,1.5,.57,2.07,0,.57-.57,.57-1.5,0-2.07-.57-.57-1.5-.57-2.07,0-.57,.57-.57,1.5,0,2.07Z" />
                    </g>
                    <g>
                        <polyline class="cls-2"
                            points="461.42 11.54 461.42 66.7 467.35 72.64 467.35 158.76 471.4 162.81 471.4 174.21 466.39 179.23 466.39 193.11 470.72 197.45" />
                        <path class="cls-7"
                            d="M469.64,198.43c.57,.57,1.5,.57,2.07,0,.57-.57,.57-1.5,0-2.07-.57-.57-1.5-.57-2.07,0-.57,.57-.57,1.5,0,2.07Z" />
                    </g>
                    <g>
                        <polyline class="cls-2"
                            points="445.64 86.64 445.64 104.89 431.04 119.48 409.16 119.48 389.69 138.95 356.6 138.95 332.49 163.06" />
                        <path class="cls-7"
                            d="M444.17,86.71c0-.81,.66-1.46,1.47-1.46s1.46,.66,1.46,1.46-.66,1.46-1.46,1.46-1.47-.66-1.47-1.46Z" />
                        <path class="cls-7"
                            d="M331.51,161.97c-.57,.57-.57,1.5,0,2.07,.57,.57,1.5,.57,2.07,0s.57-1.5,0-2.07c-.57-.57-1.5-.57-2.07,0Z" />
                    </g>
                    <g>
                        <polyline class="cls-2"
                            points="357.99 136.19 388.57 136.19 407.95 116.82 430.22 116.82 443.04 104.01 443.04 86.64" />
                        <path class="cls-7"
                            d="M358.06,137.66c-.81,0-1.46-.66-1.46-1.46s.66-1.47,1.46-1.47,1.47,.66,1.47,1.47-.66,1.46-1.47,1.46Z" />
                        <path class="cls-7"
                            d="M444.5,86.71c0-.81-.66-1.46-1.46-1.46s-1.47,.66-1.47,1.46,.66,1.46,1.47,1.46,1.46-.66,1.46-1.46Z" />
                    </g>
                    <g>
                        <polyline class="cls-2"
                            points="436.95 88.75 436.95 106.76 429.83 113.89 405.95 113.89 386.54 133.3 362.27 133.3" />
                        <path class="cls-7"
                            d="M435.48,88.82c0-.81,.66-1.47,1.46-1.47s1.47,.66,1.47,1.47-.66,1.46-1.47,1.46-1.46-.66-1.46-1.46Z" />
                        <path class="cls-7"
                            d="M362.35,131.83c-.81,0-1.47,.66-1.47,1.46s.66,1.47,1.47,1.47,1.46-.66,1.46-1.47-.66-1.46-1.46-1.46Z" />
                    </g>
                    <g>
                        <polyline class="cls-2"
                            points="404.56 90.8 391.24 90.8 371.8 110.24 371.8 127.5" />
                        <path class="cls-7"
                            d="M404.48,89.33c.81,0,1.47,.66,1.47,1.47s-.66,1.47-1.47,1.47-1.46-.66-1.46-1.47,.66-1.47,1.46-1.47Z" />
                        <path class="cls-7"
                            d="M370.33,127.42c0,.81,.66,1.46,1.46,1.46s1.46-.66,1.46-1.46-.66-1.47-1.46-1.47-1.46,.66-1.46,1.47Z" />
                    </g>
                    <g>
                        <polyline class="cls-2"
                            points="404.56 97.69 392.91 97.69 378.78 111.81 378.78 127.5" />
                        <path class="cls-7"
                            d="M404.48,96.22c.81,0,1.47,.66,1.47,1.46s-.66,1.46-1.47,1.46-1.46-.66-1.46-1.46,.66-1.46,1.46-1.46Z" />
                        <path class="cls-7"
                            d="M377.31,127.42c0,.81,.66,1.46,1.46,1.46s1.46-.66,1.46-1.46-.66-1.47-1.46-1.47-1.46,.66-1.46,1.47Z" />
                    </g>
                    <g>
                        <polyline class="cls-2"
                            points="366.31 150.91 404.47 150.91 419.81 135.56 455.45 135.56" />
                        <path class="cls-7"
                            d="M366.38,152.37c-.81,0-1.47-.66-1.47-1.46s.66-1.47,1.47-1.47,1.46,.66,1.46,1.47-.66,1.46-1.46,1.46Z" />
                        <path class="cls-7"
                            d="M455.37,137.03c.81,0,1.47-.66,1.47-1.46s-.66-1.47-1.47-1.47-1.46,.66-1.46,1.47,.66,1.46,1.46,1.46Z" />
                    </g>
                    <g>
                        <polyline class="cls-2"
                            points="388.87 11.54 388.87 49.99 342.76 96.11 328.86 96.11 312.46 112.51" />
                        <path class="cls-7"
                            d="M311.47,111.42c-.57,.57-.57,1.5,0,2.07,.57,.57,1.5,.57,2.07,0,.57-.57,.57-1.5,0-2.07-.57-.57-1.5-.57-2.07,0Z" />
                    </g>
                    <g>
                        <polyline class="cls-2"
                            points="392.91 11.54 392.91 51.66 345.22 99.35 331.51 99.35 315.24 115.62" />
                        <path class="cls-7"
                            d="M314.26,114.53c-.57,.57-.57,1.5,0,2.07s1.5,.57,2.07,0c.57-.57,.57-1.5,0-2.07-.57-.57-1.5-.57-2.07,0Z" />
                    </g>
                    <g>
                        <polyline class="cls-2"
                            points="342.95 118.45 321.4 118.45 307.34 132.51 290.73 132.51" />
                        <path class="cls-7"
                            d="M342.88,116.99c.81,0,1.46,.66,1.46,1.46s-.66,1.47-1.46,1.47-1.46-.66-1.46-1.47,.66-1.46,1.46-1.46Z" />
                        <circle class="cls-7" cx="290.8" cy="132.51" r="1.46" />
                    </g>
                    <g>
                        <polyline class="cls-2"
                            points="342.95 124.65 323.76 124.65 306.81 141.59 290.82 141.59" />
                        <path class="cls-7"
                            d="M342.88,123.18c.81,0,1.46,.66,1.46,1.46s-.66,1.47-1.46,1.47-1.46-.66-1.46-1.47,.66-1.46,1.46-1.46Z" />
                        <path class="cls-7"
                            d="M290.89,140.13c-.81,0-1.46,.66-1.46,1.46s.66,1.47,1.46,1.47,1.46-.66,1.46-1.47-.66-1.46-1.46-1.46Z" />
                    </g>
                    <g>
                        <polyline class="cls-2" points="337.53 131.75 313.3 155.98 290.73 155.98" />
                        <path class="cls-7"
                            d="M336.44,130.77c.57-.57,1.5-.57,2.07,0,.57,.57,.57,1.5,0,2.07-.57,.57-1.5,.57-2.07,0-.57-.57-.57-1.5,0-2.07Z" />
                        <path class="cls-7"
                            d="M290.8,154.51c-.81,0-1.46,.66-1.46,1.46s.66,1.47,1.46,1.47,1.46-.66,1.46-1.47-.66-1.46-1.46-1.46Z" />
                    </g>
                    <g>
                        <polyline class="cls-2"
                            points="384.07 11.54 384.07 49.47 340.58 92.97 326.51 92.97 310.2 109.27" />
                        <path class="cls-7"
                            d="M309.22,108.18c-.57,.57-.57,1.5,0,2.07s1.5,.57,2.07,0c.57-.57,.57-1.5,0-2.07-.57-.57-1.5-.57-2.07,0Z" />
                    </g>
                    <g>
                        <polyline class="cls-2"
                            points="150.25 11.54 173.78 35.08 173.78 43.06 207.64 76.92 207.64 97.22 221.03 110.62 232.9 110.62 243.79 121.51" />
                        <path class="cls-7"
                            d="M242.7,122.49c.57,.57,1.5,.57,2.07,0,.57-.57,.57-1.5,0-2.07-.57-.57-1.5-.57-2.07,0-.57,.57-.57,1.5,0,2.07Z" />
                    </g>
                    <g>
                        <polyline class="cls-2"
                            points="154.84 11.54 176.08 32.78 176.08 40.77 209.94 74.63 209.94 94.93 221.12 106.12 239.59 106.12 254.98 121.51" />
                        <path class="cls-7"
                            d="M253.89,122.49c.57,.57,1.5,.57,2.07,0s.57-1.5,0-2.07-1.5-.57-2.07,0c-.57,.57-.57,1.5,0,2.07Z" />
                    </g>
                    <g>
                        <polyline class="cls-2"
                            points="159.43 11.54 178.37 30.49 178.37 38.47 212.23 72.33 212.23 92.63 223.16 103.56 242.92 103.56 246.74 99.74 299.31 99.74" />
                        <path class="cls-7"
                            d="M299.24,101.2c.81,0,1.46-.66,1.46-1.46s-.66-1.47-1.46-1.47-1.47,.66-1.47,1.47,.66,1.46,1.47,1.46Z" />
                    </g>
                    <g>
                        <polyline class="cls-2"
                            points="164.02 11.54 180.67 28.19 180.67 36.17 214.53 70.03 214.53 90.34 223.89 99.7 236.2 99.7" />
                        <path class="cls-7"
                            d="M236.13,101.16c.81,0,1.46-.66,1.46-1.47s-.66-1.46-1.46-1.46-1.46,.66-1.46,1.46,.66,1.47,1.46,1.47Z" />
                    </g>
                    <g>
                        <polyline class="cls-2"
                            points="168.61 11.54 182.96 25.9 182.96 33.88 216.82 67.74 216.82 88.04 225.35 96.07 291.62 96.07" />
                        <path class="cls-7"
                            d="M291.55,97.54c.81,0,1.46-.66,1.46-1.47s-.66-1.46-1.46-1.46-1.47,.66-1.47,1.46,.66,1.47,1.47,1.47Z" />
                    </g>
                    <g>
                        <polyline class="cls-2"
                            points="173.2 11.54 185.26 23.6 185.26 31.58 219.12 65.44 219.12 85.75 225.09 91.72 255.58 91.72 266.72 80.58 308.04 80.58 313.27 85.81" />
                        <path class="cls-7"
                            d="M312.18,86.8c.57,.57,1.5,.57,2.07,0s.57-1.5,0-2.07-1.5-.57-2.07,0c-.57,.57-.57,1.5,0,2.07Z" />
                    </g>
                    <g>
                        <polyline class="cls-2"
                            points="177.79 11.54 187.56 21.3 187.56 29.29 221.41 63.15 258.21 63.15 265.39 55.97 280.77 55.97" />
                        <path class="cls-7"
                            d="M280.7,57.43c.81,0,1.47-.66,1.47-1.47s-.66-1.46-1.47-1.46-1.46,.66-1.46,1.46,.66,1.47,1.46,1.47Z" />
                    </g>
                    <g>
                        <polyline class="cls-2"
                            points="182.39 11.54 189.85 19.01 189.85 26.99 223.71 60.85 255.75 60.85 263.59 53.01 280.77 53.01" />
                        <path class="cls-7"
                            d="M280.7,54.48c.81,0,1.47-.66,1.47-1.47s-.66-1.46-1.47-1.46-1.46,.66-1.46,1.46,.66,1.47,1.46,1.47Z" />
                    </g>
                    <g>
                        <polyline class="cls-2"
                            points="186.97 11.54 192.15 16.71 192.15 24.7 226.01 58.55 253.87 58.55 262.19 50.24 280.77 50.24" />
                        <path class="cls-7"
                            d="M280.7,51.7c.81,0,1.47-.66,1.47-1.46s-.66-1.46-1.47-1.46-1.46,.66-1.46,1.46,.66,1.46,1.46,1.46Z" />
                    </g>
                    <g>
                        <polyline class="cls-2"
                            points="191.64 11.62 194.44 14.42 194.44 22.4 228.3 56.26 243.73 56.26 255.01 44.97 289.57 44.97 322.42 77.83" />
                        <path class="cls-7"
                            d="M321.33,78.81c.57,.57,1.5,.57,2.07,0,.57-.57,.57-1.5,0-2.07-.57-.57-1.5-.57-2.07,0-.57,.57-.57,1.5,0,2.07Z" />
                    </g>
                    <g>
                        <polyline class="cls-2"
                            points="310 168.4 310 174.62 303.07 181.55 303.07 186.87 290.32 199.62" />
                        <path class="cls-7"
                            d="M308.54,168.48c0-.81,.66-1.46,1.47-1.46s1.46,.66,1.46,1.46-.66,1.46-1.46,1.46-1.47-.66-1.47-1.46Z" />
                        <path class="cls-7"
                            d="M289.34,198.53c-.57,.57-.57,1.5,0,2.07,.57,.57,1.5,.57,2.07,0,.57-.57,.57-1.5,0-2.07-.57-.57-1.5-.57-2.07,0Z" />
                    </g>
                    <g>
                        <polyline class="cls-2"
                            points="304.64 168.4 304.64 171.17 298.22 177.59 298.22 181.9 290.88 189.25" />
                        <circle class="cls-7" cx="304.64" cy="168.48" r="1.46" />
                        <path class="cls-7"
                            d="M289.9,188.16c-.57,.57-.57,1.5,0,2.07s1.5,.57,2.07,0c.57-.57,.57-1.5,0-2.07-.57-.57-1.5-.57-2.07,0Z" />
                    </g>
                    <g>
                        <polyline class="cls-2"
                            points="334.41 11.62 334.41 25.78 327 33.19 327 49.38 333.81 56.18" />
                        <path class="cls-7"
                            d="M332.72,57.17c.57,.57,1.5,.57,2.07,0,.57-.57,.57-1.5,0-2.07-.57-.57-1.5-.57-2.07,0-.57,.57-.57,1.5,0,2.07Z" />
                    </g>
                    <g>
                        <polyline class="cls-2"
                            points="338.51 11.62 338.51 27.03 330.7 34.85 330.7 47.49 339.92 56.71" />
                        <path class="cls-7"
                            d="M338.83,57.7c.57,.57,1.5,.57,2.07,0,.57-.57,.57-1.5,0-2.07-.57-.57-1.5-.57-2.07,0-.57,.57-.57,1.5,0,2.07Z" />
                    </g>
                    <g>
                        <polyline class="cls-2"
                            points="154.26 123.71 152.11 125.85 152.11 130.24 142.68 139.66 113.22 139.66 110.63 142.26 93.6 142.26 89.1 146.75 89.1 147.07" />
                        <path class="cls-7"
                            d="M153.17,122.72c.57-.57,1.5-.57,2.07,0,.57,.57,.57,1.5,0,2.07-.57,.57-1.5,.57-2.07,0-.57-.57-.57-1.5,0-2.07Z" />
                        <path class="cls-7"
                            d="M87.64,147c0,.81,.66,1.47,1.46,1.47s1.47-.66,1.47-1.47-.66-1.46-1.47-1.46-1.46,.66-1.46,1.46Z" />
                    </g>
                    <g>
                        <polyline class="cls-2"
                            points="160.38 123.71 158.79 125.3 158.79 130.93 156.39 133.33 154.55 133.33 144.89 142.99 115.45 142.99 112.98 145.45 97.5 145.45 96.76 146.18" />
                        <path class="cls-7"
                            d="M159.29,122.72c.57-.57,1.5-.57,2.07,0,.57,.57,.57,1.5,0,2.07-.57,.57-1.5,.57-2.07,0-.57-.57-.57-1.5,0-2.07Z" />
                        <path class="cls-7"
                            d="M95.78,145.09c-.57,.57-.57,1.5,0,2.07,.57,.57,1.5,.57,2.07,0,.57-.57,.57-1.5,0-2.07-.57-.57-1.5-.57-2.07,0Z" />
                    </g>
                    <g>
                        <polyline class="cls-2"
                            points="155.42 129.64 143.9 141.16 114.75 141.16 112.07 143.84 95.78 143.84 92.4 147.22 92.4 150.55" />
                        <path class="cls-7"
                            d="M154.34,128.65c.57-.57,1.5-.57,2.07,0,.57,.57,.57,1.5,0,2.07-.57,.57-1.5,.57-2.07,0-.57-.57-.57-1.5,0-2.07Z" />
                        <path class="cls-7"
                            d="M90.93,150.48c0,.81,.66,1.47,1.46,1.47s1.47-.66,1.47-1.47-.66-1.46-1.47-1.46-1.46,.66-1.46,1.46Z" />
                    </g>
                    <g>
                        <polyline class="cls-2"
                            points="147.72 130.8 142.34 136.19 114.33 136.19 110.07 140.45 92.4 140.45 85.67 147.17 85.67 152.92" />
                        <path class="cls-7"
                            d="M146.63,129.82c.57-.57,1.5-.57,2.07,0,.57,.57,.57,1.5,0,2.07-.57,.57-1.5,.57-2.07,0-.57-.57-.57-1.5,0-2.07Z" />
                        <path class="cls-7"
                            d="M84.21,152.85c0,.81,.66,1.46,1.47,1.46s1.46-.66,1.46-1.46-.66-1.47-1.46-1.47-1.47,.66-1.47,1.47Z" />
                    </g>
                    <g>
                        <polyline class="cls-2"
                            points="141.46 129.97 137.36 134.06 113.78 134.06 109.22 138.62 90.4 138.62 82.09 146.93 82.09 156.4 84.37 158.67 86.09 158.67" />
                        <path class="cls-7"
                            d="M140.37,128.98c.57-.57,1.5-.57,2.07,0,.57,.57,.57,1.5,0,2.07-.57,.57-1.5,.57-2.07,0-.57-.57-.57-1.5,0-2.07Z" />
                        <circle class="cls-7" cx="86.01" cy="158.67" r="1.46" />
                    </g>
                    <g>
                        <polyline class="cls-2"
                            points="147.31 122.72 142.44 122.72 135.41 129.75 113.5 129.75 111.24 132.01 87.48 132.01 84.44 135.05" />
                        <path class="cls-7"
                            d="M147.24,121.26c.81,0,1.46,.66,1.46,1.47s-.66,1.47-1.46,1.47-1.47-.66-1.47-1.47,.66-1.47,1.47-1.47Z" />
                        <path class="cls-7"
                            d="M83.46,133.96c-.57,.57-.57,1.5,0,2.07s1.5,.57,2.07,0c.57-.57,.57-1.5,0-2.07-.57-.57-1.5-.57-2.07,0Z" />
                    </g>
                    <g>
                        <polyline class="cls-2"
                            points="113.35 126.21 110.17 129.39 85.11 129.39 78.01 136.49 78.01 142.07 74.81 145.26 67.43 145.26" />
                        <path class="cls-7"
                            d="M112.26,125.23c.57-.57,1.5-.57,2.07,0,.57,.57,.57,1.5,0,2.07-.57,.57-1.5,.57-2.07,0-.57-.57-.57-1.5,0-2.07Z" />
                        <path class="cls-7"
                            d="M67.5,143.8c-.81,0-1.46,.66-1.46,1.46s.66,1.47,1.46,1.47,1.47-.66,1.47-1.47-.66-1.46-1.47-1.46Z" />
                    </g>
                    <g>
                        <polyline class="cls-2"
                            points="18.64 164.11 89.58 164.11 92.56 161.13 92.56 156.42 101.67 147.31 113.36 147.31 116.08 144.59 145.71 144.59 154.27 136.03 157.41 136.03" />
                        <path class="cls-7"
                            d="M157.34,137.49c.81,0,1.46-.66,1.46-1.46s-.66-1.46-1.46-1.46-1.47,.66-1.47,1.46,.66,1.46,1.47,1.46Z" />
                    </g>
                    <g>
                        <polyline class="cls-2"
                            points="18.64 166.23 90.49 166.23 94.06 162.66 94.06 158.44 102.92 149.58 114.4 149.58 117.19 146.78 146.05 146.78 153.15 139.67 158.69 139.67 161.35 137.01" />
                        <path class="cls-7"
                            d="M162.34,138.1c.57-.57,.57-1.5,0-2.07-.57-.57-1.5-.57-2.07,0-.57,.57-.57,1.5,0,2.07,.57,.57,1.5,.57,2.07,0Z" />
                    </g>
                    <g>
                        <polyline class="cls-2"
                            points="18.64 168.47 91.34 168.47 96.43 163.36 96.43 159.53 101.14 154.82 102.89 154.82" />
                        <path class="cls-7"
                            d="M102.81,156.28c.81,0,1.47-.66,1.47-1.46s-.66-1.47-1.47-1.47-1.46,.66-1.46,1.47,.66,1.46,1.46,1.46Z" />
                    </g>
                    <g>
                        <polyline class="cls-2"
                            points="18.64 170.71 92.4 170.71 98.93 164.18 98.93 160.26 100.47 158.72 110.12 158.72 113.19 155.65" />
                        <path class="cls-7"
                            d="M114.18,156.74c.57-.57,.57-1.5,0-2.07-.57-.57-1.5-.57-2.07,0-.57,.57-.57,1.5,0,2.07,.57,.57,1.5,.57,2.07,0Z" />
                    </g>
                    <g>
                        <polyline class="cls-2"
                            points="18.64 179.67 96.66 179.67 100.78 175.55 109.18 175.55 112.57 172.16" />
                        <path class="cls-7"
                            d="M113.56,173.24c.57-.57,.57-1.5,0-2.07-.57-.57-1.5-.57-2.07,0-.57,.57-.57,1.5,0,2.07s1.5,.57,2.07,0Z" />
                    </g>
                    <g>
                        <polyline class="cls-2"
                            points="18.64 181.9 98.33 181.9 102.45 177.79 112.27 177.79 135.46 154.59 145.08 154.59 153.4 146.27 158.44 146.27 161.13 143.59" />
                        <path class="cls-7"
                            d="M162.11,144.68c.57-.57,.57-1.5,0-2.07-.57-.57-1.5-.57-2.07,0s-.57,1.5,0,2.07c.57,.57,1.5,.57,2.07,0Z" />
                    </g>
                    <g>
                        <polyline class="cls-2"
                            points="18.64 184.14 99.58 184.14 103.6 180.13 113.56 180.13 136.7 156.99 147.31 156.99" />
                        <path class="cls-7"
                            d="M147.24,158.45c.81,0,1.46-.66,1.46-1.47s-.66-1.47-1.46-1.47-1.47,.66-1.47,1.47,.66,1.47,1.47,1.47Z" />
                    </g>
                    <g>
                        <polyline class="cls-2"
                            points="18.64 186.38 100.12 186.38 104.44 182.06 114.33 182.06 136.59 159.8 149.68 159.8 152.34 157.14 152.34 153.06 156.08 149.31 160.72 149.31" />
                        <path class="cls-7"
                            d="M160.65,150.77c.81,0,1.46-.66,1.46-1.47s-.66-1.46-1.46-1.46-1.47,.66-1.47,1.46,.66,1.47,1.47,1.47Z" />
                    </g>
                    <g>
                        <polyline class="cls-2"
                            points="18.64 188.62 101.25 188.62 105.58 184.3 116.08 184.3 131.9 168.47 142.44 168.47 148.13 162.78 159.97 162.78" />
                        <path class="cls-7"
                            d="M159.9,164.25c.81,0,1.46-.66,1.46-1.47s-.66-1.46-1.46-1.46-1.46,.66-1.46,1.46,.66,1.47,1.46,1.47Z" />
                    </g>
                    <g>
                        <polyline class="cls-2"
                            points="141.05 184.14 134.02 184.14 131.23 186.93 131.23 202.04 120.76 212.51 117.19 212.51 100.19 229.5 84.83 229.5 74.93 219.6 18.64 219.6" />
                        <circle class="cls-7" cx="140.98" cy="184.14" r="1.46" />
                    </g>
                    <g>
                        <polyline class="cls-2"
                            points="141.05 190.91 135.34 190.91 133.6 192.65 133.6 203.29 121.98 214.92 118.23 214.92 101.08 232.06 83.67 232.06 73.55 221.94 18.64 221.94" />
                        <path class="cls-7"
                            d="M140.98,189.44c.81,0,1.46,.66,1.46,1.47s-.66,1.46-1.46,1.46-1.46-.66-1.46-1.46,.66-1.47,1.46-1.47Z" />
                    </g>
                    <g>
                        <polyline class="cls-2"
                            points="119.05 218.61 103.2 234.46 82.47 234.46 72.59 224.58 24.03 224.58 18.56 230.04" />
                        <path class="cls-7"
                            d="M117.97,217.62c.57-.57,1.5-.57,2.07,0s.57,1.5,0,2.07-1.5,.57-2.07,0c-.57-.57-.57-1.5,0-2.07Z" />
                    </g>
                    <g>
                        <polyline class="cls-2" points="105.98 203.3 101.67 207.6 18.64 207.6" />
                        <path class="cls-7"
                            d="M104.89,202.32c.57-.57,1.5-.57,2.07,0,.57,.57,.57,1.5,0,2.07-.57,.57-1.5,.57-2.07,0s-.57-1.5,0-2.07Z" />
                    </g>
                    <g>
                        <polyline class="cls-2"
                            points="121.19 192.72 117.04 196.88 107.51 196.88 98.53 205.86 18.56 205.86" />
                        <path class="cls-7"
                            d="M120.1,191.74c.57-.57,1.5-.57,2.07,0,.57,.57,.57,1.5,0,2.07-.57,.57-1.5,.57-2.07,0-.57-.57-.57-1.5,0-2.07Z" />
                    </g>
                    <g>
                        <polyline class="cls-2"
                            points="115.16 189.61 110.48 194.29 106.96 194.29 97.87 203.38 18.64 203.38" />
                        <path class="cls-7"
                            d="M114.07,188.62c.57-.57,1.5-.57,2.07,0,.57,.57,.57,1.5,0,2.07-.57,.57-1.5,.57-2.07,0-.57-.57-.57-1.5,0-2.07Z" />
                    </g>
                    <g>
                        <polyline class="cls-2"
                            points="182.93 143.4 185.65 146.12 185.65 151.34 153.44 183.54 153.44 196 104.21 245.24 71.93 245.24 69.34 239.08" />
                        <path class="cls-7"
                            d="M181.95,144.49c-.57-.57-.57-1.5,0-2.07,.57-.57,1.5-.57,2.07,0,.57,.57,.57,1.5,0,2.07-.57,.57-1.5,.57-2.07,0Z" />
                        <path class="cls-7"
                            d="M70.72,238.58c-.31-.75-1.17-1.1-1.92-.78-.75,.31-1.1,1.17-.78,1.92,.31,.75,1.17,1.1,1.92,.78,.75-.31,1.1-1.17,.78-1.92Z" />
                    </g>
                    <g>
                        <polyline class="cls-2"
                            points="191.29 152.93 157.62 186.6 157.62 198.8 106.74 249.68 71.41 249.68 67.51 253.57 41.35 253.57 30.24 264.68 30.24 275.99 18.35 287.89" />
                        <path class="cls-7"
                            d="M190.21,151.94c.57-.57,1.5-.57,2.07,0,.57,.57,.57,1.5,0,2.07-.57,.57-1.5,.57-2.07,0-.57-.57-.57-1.5,0-2.07Z" />
                    </g>
                    <g>
                        <polyline class="cls-2"
                            points="193.37 155.6 160.16 188.81 160.16 200.09 107.75 252.5 72.73 252.5 69.02 256.21 42.81 256.21 32.75 266.28 32.75 278.15 18.84 292.06" />
                        <path class="cls-7"
                            d="M192.29,154.62c.57-.57,1.5-.57,2.07,0,.57,.57,.57,1.5,0,2.07-.57,.57-1.5,.57-2.07,0s-.57-1.5,0-2.07Z" />
                    </g>
                    <g>
                        <polyline class="cls-2"
                            points="110 265.8 110 269.42 106.45 272.98 88.73 272.98 82.66 279.05 82.66 297.28 74.27 305.68 61.18 305.68 53.63 313.22 53.63 362.2" />
                        <path class="cls-7"
                            d="M108.54,265.87c0-.81,.66-1.46,1.46-1.46s1.47,.66,1.47,1.46-.66,1.47-1.47,1.47-1.46-.66-1.46-1.47Z" />
                    </g>
                    <g>
                        <polyline class="cls-2"
                            points="104.01 265.39 101.39 268.01 86.46 268.01 65.27 289.19 59.93 289.19 56.04 293.08 56.04 300.73 47.96 308.8 40.83 308.8 36.72 312.9 36.72 333.29 43.52 340.09 43.52 362.2" />
                        <path class="cls-7"
                            d="M102.92,264.41c.57-.57,1.5-.57,2.07,0,.57,.57,.57,1.5,0,2.07-.57,.57-1.5,.57-2.07,0-.57-.57-.57-1.5,0-2.07Z" />
                    </g>
                    <g>
                        <polyline class="cls-2"
                            points="175.63 188.94 162.3 202.27 162.3 207.6 124.97 244.93 124.97 253.77 120 258.74 43.65 258.74 34.7 267.68 34.7 279.44 17.75 296.39" />
                        <path class="cls-7"
                            d="M174.54,187.96c.57-.57,1.5-.57,2.07,0,.57,.57,.57,1.5,0,2.07-.57,.57-1.5,.57-2.07,0-.57-.57-.57-1.5,0-2.07Z" />
                    </g>
                    <g>
                        <polyline class="cls-2"
                            points="158.32 100.92 158.32 96.49 150.59 88.76 96.42 88.76 92.32 92.87 73.28 92.87 53.18 112.97" />
                        <path class="cls-7"
                            d="M159.79,100.85c0,.81-.66,1.46-1.47,1.46s-1.46-.66-1.46-1.46,.66-1.47,1.46-1.47,1.47,.66,1.47,1.47Z" />
                        <path class="cls-7"
                            d="M52.2,111.88c-.57,.57-.57,1.5,0,2.07s1.5,.57,2.07,0c.57-.57,.57-1.5,0-2.07-.57-.57-1.5-.57-2.07,0Z" />
                    </g>
                    <g>
                        <polyline class="cls-2"
                            points="162.48 78.06 155.24 78.06 126.56 49.38 110 49.38 95.72 63.66 82.09 63.66 61.48 84.27 61.48 94.68" />
                        <path class="cls-7"
                            d="M162.4,76.59c.81,0,1.47,.66,1.47,1.46s-.66,1.47-1.47,1.47-1.46-.66-1.46-1.47,.66-1.46,1.46-1.46Z" />
                        <path class="cls-7"
                            d="M60.02,94.61c0,.81,.66,1.46,1.46,1.46s1.47-.66,1.47-1.46-.66-1.46-1.47-1.46-1.46,.66-1.46,1.46Z" />
                    </g>
                    <g>
                        <polyline class="cls-2"
                            points="156.18 69.4 131.52 44.75 114.53 44.75 95.78 26 44.74 26 36.76 18.02 18.64 18.02" />
                        <path class="cls-7"
                            d="M157.16,68.32c.57,.57,.57,1.5,0,2.07-.57,.57-1.5,.57-2.07,0s-.57-1.5,0-2.07c.57-.57,1.5-.57,2.07,0Z" />
                    </g>
                    <g>
                        <polyline class="cls-2"
                            points="105.98 43.22 90.49 27.73 43.96 27.73 35.97 19.74 18.64 19.74" />
                        <path class="cls-7"
                            d="M106.96,42.13c.57,.57,.57,1.5,0,2.07-.57,.57-1.5,.57-2.07,0s-.57-1.5,0-2.07,1.5-.57,2.07,0Z" />
                    </g>
                    <g>
                        <polyline class="cls-2"
                            points="94.79 39.57 84.56 29.34 43.02 29.34 35.32 21.64 18.64 21.64" />
                        <path class="cls-7"
                            d="M95.78,38.49c.57,.57,.57,1.5,0,2.07-.57,.57-1.5,.57-2.07,0s-.57-1.5,0-2.07,1.5-.57,2.07,0Z" />
                    </g>
                    <g>
                        <polyline class="cls-2"
                            points="98.82 49.38 95.78 49.38 77.32 30.92 41.45 30.92 34.06 23.53 18.64 23.53" />
                        <path class="cls-7"
                            d="M98.74,47.91c.81,0,1.47,.66,1.47,1.46s-.66,1.46-1.47,1.46-1.46-.66-1.46-1.46,.66-1.46,1.46-1.46Z" />
                    </g>
                    <g>
                        <polyline class="cls-2"
                            points="83.16 43.06 69.32 43.06 58.9 32.64 40.31 32.64 32.99 25.33 18.64 25.33" />
                        <path class="cls-7"
                            d="M83.09,41.6c.81,0,1.47,.66,1.47,1.47s-.66,1.46-1.47,1.46-1.46-.66-1.46-1.46,.66-1.47,1.46-1.47Z" />
                    </g>
                    <g>
                        <polyline class="cls-2"
                            points="18.93 34.2 58.47 34.2 69.26 44.99 85.67 44.99 94.83 54.15" />
                        <path class="cls-7"
                            d="M93.74,55.13c.57,.57,1.5,.57,2.07,0,.57-.57,.57-1.5,0-2.07-.57-.57-1.5-.57-2.07,0-.57,.57-.57,1.5,0,2.07Z" />
                    </g>
                    <g>
                        <polyline class="cls-2"
                            points="147.72 101.87 141.1 95.26 100.21 95.26 96.42 99.05 75.27 99.05 60.91 113.4 60.91 128.98 57.22 132.68 45.21 132.68 18.56 106.03" />
                        <path class="cls-7"
                            d="M148.7,100.79c.57,.57,.57,1.5,0,2.07-.57,.57-1.5,.57-2.07,0-.57-.57-.57-1.5,0-2.07,.57-.57,1.5-.57,2.07,0Z" />
                    </g>
                    <g>
                        <polyline class="cls-2"
                            points="147.72 95.09 144.81 92.18 99.37 92.18 95.63 95.93 74.75 95.93 57.14 113.53 57.14 125.23 55.31 127.05 48.03 127.05 18.56 97.59" />
                        <path class="cls-7"
                            d="M148.7,94.01c.57,.57,.57,1.5,0,2.07-.57,.57-1.5,.57-2.07,0-.57-.57-.57-1.5,0-2.07,.57-.57,1.5-.57,2.07,0Z" />
                    </g>
                    <g>
                        <polyline class="cls-2" points="45.57 52.5 52.93 59.86 74.19 59.86" />
                        <path class="cls-7"
                            d="M44.58,53.59c-.57-.57-.57-1.5,0-2.07,.57-.57,1.5-.57,2.07,0s.57,1.5,0,2.07-1.5,.57-2.07,0Z" />
                        <path class="cls-7"
                            d="M74.12,61.33c.81,0,1.46-.66,1.46-1.46s-.66-1.46-1.46-1.46-1.47,.66-1.47,1.46,.66,1.46,1.47,1.46Z" />
                    </g>
                    <g>
                        <line class="cls-2" x1="70.22" y1="64.98" x2="45.98" y2="64.98" />
                        <path class="cls-7"
                            d="M70.15,63.51c.81,0,1.46,.66,1.46,1.46s-.66,1.47-1.46,1.47-1.46-.66-1.46-1.47,.66-1.46,1.46-1.46Z" />
                        <path class="cls-7"
                            d="M46.05,63.51c-.81,0-1.46,.66-1.46,1.46s.66,1.47,1.46,1.47,1.47-.66,1.47-1.47-.66-1.46-1.47-1.46Z" />
                    </g>
                    <g>
                        <line class="cls-2" x1="68.98" y1="68.42" x2="45.98" y2="68.42" />
                        <path class="cls-7"
                            d="M68.9,66.96c.81,0,1.46,.66,1.46,1.46s-.66,1.47-1.46,1.47-1.47-.66-1.47-1.47,.66-1.46,1.47-1.46Z" />
                        <path class="cls-7"
                            d="M46.05,66.96c-.81,0-1.46,.66-1.46,1.46s.66,1.47,1.46,1.47,1.47-.66,1.47-1.47-.66-1.46-1.47-1.46Z" />
                    </g>
                    <g>
                        <polyline class="cls-2"
                            points="159.2 87.02 145.49 73.31 77.25 73.31 66.03 84.53 66.03 90.79" />
                        <path class="cls-7"
                            d="M160.18,85.94c.57,.57,.57,1.5,0,2.07-.57,.57-1.5,.57-2.07,0-.57-.57-.57-1.5,0-2.07,.57-.57,1.5-.57,2.07,0Z" />
                        <path class="cls-7"
                            d="M64.57,90.72c0,.81,.66,1.47,1.46,1.47s1.46-.66,1.46-1.47-.66-1.46-1.46-1.46-1.46,.66-1.46,1.46Z" />
                    </g>
                    <g>
                        <polyline class="cls-2"
                            points="146.81 81.76 143.57 78.52 93.95 78.52 89.85 82.63 73.91 82.63 71.51 85.03" />
                        <path class="cls-7"
                            d="M147.8,80.68c.57,.57,.57,1.5,0,2.07-.57,.57-1.5,.57-2.07,0-.57-.57-.57-1.5,0-2.07s1.5-.57,2.07,0Z" />
                        <path class="cls-7"
                            d="M70.53,83.94c-.57,.57-.57,1.5,0,2.07,.57,.57,1.5,.57,2.07,0s.57-1.5,0-2.07-1.5-.57-2.07,0Z" />
                    </g>
                    <g>
                        <polyline class="cls-2" points="59.1 77.07 54.71 72.68 45.98 72.68" />
                        <path class="cls-7"
                            d="M60.08,75.99c.57,.57,.57,1.5,0,2.07-.57,.57-1.5,.57-2.07,0-.57-.57-.57-1.5,0-2.07,.57-.57,1.5-.57,2.07,0Z" />
                        <path class="cls-7"
                            d="M46.05,71.22c-.81,0-1.46,.66-1.46,1.46s.66,1.47,1.46,1.47,1.47-.66,1.47-1.47-.66-1.46-1.47-1.46Z" />
                    </g>
                    <g>
                        <polyline class="cls-2"
                            points="55.54 103.45 55.54 82.27 51.83 78.56 45.98 78.56" />
                        <circle class="cls-7" cx="55.54" cy="103.38" r="1.46" />
                        <path class="cls-7"
                            d="M46.05,77.09c-.81,0-1.46,.66-1.46,1.47s.66,1.46,1.46,1.46,1.47-.66,1.47-1.46-.66-1.47-1.47-1.47Z" />
                    </g>
                    <g>
                        <polyline class="cls-2"
                            points="58.1 100.92 58.1 80.21 53.46 75.57 45.98 75.57" />
                        <path class="cls-7"
                            d="M59.56,100.85c0,.81-.66,1.46-1.46,1.46s-1.47-.66-1.47-1.46,.66-1.47,1.47-1.47,1.46,.66,1.46,1.47Z" />
                        <path class="cls-7"
                            d="M46.05,74.11c-.81,0-1.46,.66-1.46,1.46s.66,1.47,1.46,1.47,1.47-.66,1.47-1.47-.66-1.46-1.47-1.46Z" />
                    </g>
                    <g>
                        <polyline class="cls-2"
                            points="52.85 106 52.85 83.37 51.04 81.56 45.98 81.56" />
                        <path class="cls-7"
                            d="M54.32,105.93c0,.81-.66,1.47-1.46,1.47s-1.46-.66-1.46-1.47,.66-1.46,1.46-1.46,1.46,.66,1.46,1.46Z" />
                        <path class="cls-7"
                            d="M46.05,80.09c-.81,0-1.46,.66-1.46,1.47s.66,1.46,1.46,1.46,1.47-.66,1.47-1.46-.66-1.47-1.47-1.47Z" />
                    </g>
                    <g>
                        <polyline class="cls-2"
                            points="168.46 122.72 183.74 122.72 190.81 129.79 203.07 129.79" />
                        <path class="cls-7"
                            d="M168.53,124.19c-.81,0-1.46-.66-1.46-1.47s.66-1.47,1.46-1.47,1.47,.66,1.47,1.47-.66,1.47-1.47,1.47Z" />
                        <path class="cls-7"
                            d="M203,131.25c.81,0,1.47-.66,1.47-1.46s-.66-1.47-1.47-1.47-1.46,.66-1.46,1.47,.66,1.46,1.46,1.46Z" />
                    </g>
                    <g>
                        <polyline class="cls-2"
                            points="168.46 128.98 182.23 128.98 191.75 138.51 203.07 138.51" />
                        <path class="cls-7"
                            d="M168.53,130.45c-.81,0-1.46-.66-1.46-1.46s.66-1.46,1.46-1.46,1.47,.66,1.47,1.46-.66,1.46-1.47,1.46Z" />
                        <path class="cls-7"
                            d="M203,139.97c.81,0,1.47-.66,1.47-1.46s-.66-1.46-1.47-1.46-1.46,.66-1.46,1.46,.66,1.46,1.46,1.46Z" />
                    </g>
                    <g>
                        <polyline class="cls-2"
                            points="168.46 135.54 182.23 135.54 191.75 145.06 203.07 145.06" />
                        <path class="cls-7"
                            d="M168.53,137c-.81,0-1.46-.66-1.46-1.47s.66-1.46,1.46-1.46,1.47,.66,1.47,1.46-.66,1.47-1.47,1.47Z" />
                        <path class="cls-7"
                            d="M203,146.53c.81,0,1.47-.66,1.47-1.47s-.66-1.46-1.47-1.46-1.46,.66-1.46,1.46,.66,1.47,1.46,1.47Z" />
                    </g>
                    <g>
                        <polyline class="cls-2"
                            points="131.96 31.76 141.44 41.24 147.8 41.24 153.88 35.15 159.87 35.15 201.6 76.89 201.6 99.83 223.28 121.51" />
                        <path class="cls-7"
                            d="M130.97,32.85c-.57-.57-.57-1.5,0-2.07,.57-.57,1.5-.57,2.07,0s.57,1.5,0,2.07c-.57,.57-1.5,.57-2.07,0Z" />
                        <path class="cls-7"
                            d="M222.19,122.49c.57,.57,1.5,.57,2.07,0,.57-.57,.57-1.5,0-2.07-.57-.57-1.5-.57-2.07,0s-.57,1.5,0,2.07Z" />
                    </g>
                    <g>
                        <polyline class="cls-2"
                            points="157.16 40.56 196.35 79.75 196.35 103.01 214.85 121.51" />
                        <path class="cls-7"
                            d="M213.77,122.49c.57,.57,1.5,.57,2.07,0,.57-.57,.57-1.5,0-2.07-.57-.57-1.5-.57-2.07,0-.57,.57-.57,1.5,0,2.07Z" />
                    </g>
                    <g>
                        <polyline class="cls-2" points="153.6 44.66 190.22 81.28 190.22 101.62" />
                        <path class="cls-7"
                            d="M188.75,101.54c0,.81,.66,1.46,1.47,1.46s1.46-.66,1.46-1.46-.66-1.47-1.46-1.47-1.47,.66-1.47,1.47Z" />
                    </g>
                    <g>
                        <polyline class="cls-2" points="290.73 148.47 309.22 148.47 325.41 132.27" />
                        <path class="cls-7"
                            d="M290.8,149.93c-.81,0-1.46-.66-1.46-1.46s.66-1.47,1.46-1.47,1.46,.66,1.46,1.47-.66,1.46-1.46,1.46Z" />
                        <path class="cls-7"
                            d="M326.4,133.36c.57-.57,.57-1.5,0-2.07-.57-.57-1.5-.57-2.07,0s-.57,1.5,0,2.07c.57,.57,1.5,.57,2.07,0Z" />
                    </g>
                    <g>
                        <line class="cls-2" x1="245.75" y1="106.73" x2="260.53" y2="121.51" />
                        <path class="cls-7"
                            d="M244.76,107.81c-.57-.57-.57-1.5,0-2.07,.57-.57,1.5-.57,2.07,0,.57,.57,.57,1.5,0,2.07-.57,.57-1.5,.57-2.07,0Z" />
                        <path class="cls-7"
                            d="M259.44,122.49c.57,.57,1.5,.57,2.07,0,.57-.57,.57-1.5,0-2.07-.57-.57-1.5-.57-2.07,0-.57,.57-.57,1.5,0,2.07Z" />
                    </g>
                    <g>
                        <line class="cls-2" x1="251.06" y1="106.73" x2="265.85" y2="121.51" />
                        <path class="cls-7"
                            d="M250.08,107.81c-.57-.57-.57-1.5,0-2.07,.57-.57,1.5-.57,2.07,0,.57,.57,.57,1.5,0,2.07-.57,.57-1.5,.57-2.07,0Z" />
                        <path class="cls-7"
                            d="M264.76,122.49c.57,.57,1.5,.57,2.07,0,.57-.57,.57-1.5,0-2.07-.57-.57-1.5-.57-2.07,0-.57,.57-.57,1.5,0,2.07Z" />
                    </g>
                    <g>
                        <line class="cls-2" x1="256.38" y1="106.73" x2="271.16" y2="121.51" />
                        <path class="cls-7"
                            d="M255.4,107.81c-.57-.57-.57-1.5,0-2.07,.57-.57,1.5-.57,2.07,0,.57,.57,.57,1.5,0,2.07-.57,.57-1.5,.57-2.07,0Z" />
                        <path class="cls-7"
                            d="M270.07,122.49c.57,.57,1.5,.57,2.07,0,.57-.57,.57-1.5,0-2.07-.57-.57-1.5-.57-2.07,0-.57,.57-.57,1.5,0,2.07Z" />
                    </g>
                    <g>
                        <line class="cls-2" x1="261.7" y1="106.73" x2="276.48" y2="121.51" />
                        <path class="cls-7"
                            d="M260.71,107.81c-.57-.57-.57-1.5,0-2.07,.57-.57,1.5-.57,2.07,0,.57,.57,.57,1.5,0,2.07-.57,.57-1.5,.57-2.07,0Z" />
                        <path class="cls-7"
                            d="M275.39,122.49c.57,.57,1.5,.57,2.07,0,.57-.57,.57-1.5,0-2.07-.57-.57-1.5-.57-2.07,0-.57,.57-.57,1.5,0,2.07Z" />
                    </g>
                    <g>
                        <line class="cls-2" x1="267.02" y1="106.73" x2="281.8" y2="121.51" />
                        <path class="cls-7"
                            d="M266.03,107.81c-.57-.57-.57-1.5,0-2.07,.57-.57,1.5-.57,2.07,0,.57,.57,.57,1.5,0,2.07-.57,.57-1.5,.57-2.07,0Z" />
                        <path class="cls-7"
                            d="M280.71,122.49c.57,.57,1.5,.57,2.07,0s.57-1.5,0-2.07-1.5-.57-2.07,0c-.57,.57-.57,1.5,0,2.07Z" />
                    </g>
                    <g>
                        <line class="cls-2" x1="272.33" y1="106.73" x2="287.12" y2="121.51" />
                        <path class="cls-7"
                            d="M271.35,107.81c-.57-.57-.57-1.5,0-2.07s1.5-.57,2.07,0c.57,.57,.57,1.5,0,2.07-.57,.57-1.5,.57-2.07,0Z" />
                        <path class="cls-7"
                            d="M286.03,122.49c.57,.57,1.5,.57,2.07,0s.57-1.5,0-2.07-1.5-.57-2.07,0c-.57,.57-.57,1.5,0,2.07Z" />
                    </g>
                    <polyline class="cls-3"
                        points="467.81 210.7 459.62 210.7 451.12 219.2 451.12 242.85 491.04 282.77 537.24 282.77" />
                    <g>
                        <polyline class="cls-2"
                            points="493.38 11.62 498.95 17.19 498.95 213.12 488.55 223.53 477.61 223.53 475.28 225.86 475.28 232.14 471.37 236.04 467.81 236.04 463.9 232.13 463.9 227.01" />
                        <circle class="cls-7" cx="463.9" cy="227.09" r="1.49" />
                    </g>
                    <g>
                        <polyline class="cls-2"
                            points="495.5 11.54 500.95 16.99 500.95 214.15 489.83 225.24 479.37 225.24 477.28 227.33 477.28 236.55" />
                        <path class="cls-7"
                            d="M475.79,236.48c0,.82,.67,1.49,1.49,1.49s1.49-.67,1.49-1.49-.67-1.49-1.49-1.49-1.49,.67-1.49,1.49Z" />
                    </g>
                    <g>
                        <polyline class="cls-2"
                            points="497.77 11.54 503.22 16.99 503.22 214.46 491.11 226.57 481.65 226.57 479.55 228.66 479.55 240.67" />
                        <path class="cls-7"
                            d="M478.07,240.6c0,.82,.67,1.49,1.49,1.49s1.49-.67,1.49-1.49-.67-1.49-1.49-1.49-1.49,.67-1.49,1.49Z" />
                    </g>
                    <polyline class="cls-2"
                        points="537.24 251.98 527.2 251.98 515.21 239.99 515.21 196.88 522.88 189.21 522.88 22.62 533.87 11.62" />
                </g>
                <g>
                    <polyline class="cls-3"
                        points="295.8 206.01 289.9 211.91 262.68 211.91 258.91 208.14 250.74 208.14 245.55 213.34 245.55 262.05 240.68 266.92 240.68 290.46 268.18 317.96 278.12 317.96 283.25 323.09 283.25 334.37 254.81 362.82" />
                    <polyline class="cls-3"
                        points="260.45 216.97 257.7 214.22 253.87 214.22 250.64 217.46 250.64 262.37 254.25 265.97 254.25 297.17 271.11 314.03 281.32 314.03 289.34 322.04 289.34 362.2" />
                    <polyline class="cls-3"
                        points="366 236.38 375.87 236.38 403.32 263.83 419.7 263.83 444.7 288.82 444.7 300.3 461.08 316.68 537.24 316.68" />
                    <polyline class="cls-3" points="366 228.24 387.21 228.24 408.29 249.32" />
                    <polyline class="cls-3"
                        points="174.87 362.28 174.87 336.57 186.25 325.19 186.25 296.28" />
                    <polyline class="cls-3"
                        points="112.36 361.91 149.63 324.65 149.63 277.92 167.26 260.28 167.26 252.27 187.6 231.92 187.6 225.6 195 218.2 199.09 218.2 210.02 207.27" />
                    <polyline class="cls-3"
                        points="335.17 168.55 359.92 143.79 391.24 143.79 409.48 125.55 431.12 125.55 450.65 106.02 450.65 85.24" />
                    <polyline class="cls-3"
                        points="437 11.54 437 63.61 424.53 76.08 379.26 76.08 353.01 102.33 353.01 130.53 321.74 161.8 289.34 161.8" />
                    <polyline class="cls-3"
                        points="366.26 128.89 366.26 107.44 387.15 86.55 429.69 86.55 445.64 70.6 445.64 11.54" />
                    <polyline class="cls-3"
                        points="360.88 11.54 360.88 63.68 338.28 86.29 323.76 86.29 296.55 113.49" />
                    <polyline class="cls-3"
                        points="18.93 140.88 60.33 140.88 68.7 132.52 68.7 122.72 78.07 113.35 191.61 113.35" />
                    <polyline class="cls-3"
                        points="204.46 154.37 181.96 176.87 181.96 200.74 163.23 219.47 163.23 230.1 128.57 264.76 128.57 295.16 111.63 312.1 111.63 327.38 101.14 337.87 76.98 337.87 64.37 350.49 64.37 363.08" />
                    <line class="cls-3" x1="18.93" y1="154.31" x2="77.3" y2="154.31" />
                    <polyline class="cls-3"
                        points="200.81 11.62 200.81 19.74 228.13 47.06 242.47 47.06 252.8 36.73 298.27 36.73 334.41 72.87" />
                    <polyline class="cls-3"
                        points="537.24 21.38 534.87 23.75 534.87 194.7 525.63 203.94 525.63 235.05 532.67 242.09 537.24 242.09" />
                    <polyline class="cls-3"
                        points="486.29 11.62 486.29 120.62 480.02 126.89 480.02 136.19 486.74 142.92 486.74 213.12 481.53 218.33 461.42 218.33 457.97 221.78 457.97 234.08 467.33 243.45 475.01 243.45 486.63 255.06 486.63 266.66 493.2 273.23 537.24 273.23" />
                </g>
                <g>
                    <g>
                        <path class="cls-7"
                            d="M109.5,104.03c0,.95-.77,1.71-1.71,1.71s-1.71-.77-1.71-1.71,.77-1.71,1.71-1.71,1.71,.77,1.71,1.71Z" />
                        <path class="cls-7"
                            d="M122.15,104.03c0,.95-.77,1.71-1.71,1.71s-1.71-.77-1.71-1.71,.77-1.71,1.71-1.71,1.71,.77,1.71,1.71Z" />
                        <path class="cls-7"
                            d="M134.8,104.03c0,.95-.77,1.71-1.71,1.71s-1.71-.77-1.71-1.71,.77-1.71,1.71-1.71,1.71,.77,1.71,1.71Z" />
                    </g>
                    <g>
                        <path class="cls-7"
                            d="M230.21,68.36c0,.61-.5,1.11-1.11,1.11s-1.11-.5-1.11-1.11,.5-1.11,1.11-1.11,1.11,.5,1.11,1.11Z" />
                        <path class="cls-7"
                            d="M235.99,68.36c0,.61-.5,1.11-1.11,1.11s-1.11-.5-1.11-1.11,.5-1.11,1.11-1.11,1.11,.5,1.11,1.11Z" />
                        <path class="cls-7"
                            d="M241.76,68.36c0,.61-.5,1.11-1.11,1.11s-1.11-.5-1.11-1.11,.5-1.11,1.11-1.11,1.11,.5,1.11,1.11Z" />
                        <path class="cls-7"
                            d="M247.54,68.36c0,.61-.5,1.11-1.11,1.11s-1.11-.5-1.11-1.11,.5-1.11,1.11-1.11,1.11,.5,1.11,1.11Z" />
                        <path class="cls-7"
                            d="M253.32,68.36c0,.61-.5,1.11-1.11,1.11s-1.11-.5-1.11-1.11,.5-1.11,1.11-1.11,1.11,.5,1.11,1.11Z" />
                        <path class="cls-7"
                            d="M230.21,72.87c0,.61-.5,1.11-1.11,1.11s-1.11-.5-1.11-1.11,.5-1.11,1.11-1.11,1.11,.5,1.11,1.11Z" />
                        <path class="cls-7"
                            d="M235.99,72.87c0,.61-.5,1.11-1.11,1.11s-1.11-.5-1.11-1.11,.5-1.11,1.11-1.11,1.11,.5,1.11,1.11Z" />
                        <path class="cls-7"
                            d="M241.76,72.87c0,.61-.5,1.11-1.11,1.11s-1.11-.5-1.11-1.11,.5-1.11,1.11-1.11,1.11,.5,1.11,1.11Z" />
                        <path class="cls-7"
                            d="M247.54,72.87c0,.61-.5,1.11-1.11,1.11s-1.11-.5-1.11-1.11,.5-1.11,1.11-1.11,1.11,.5,1.11,1.11Z" />
                        <path class="cls-7"
                            d="M253.32,72.87c0,.61-.5,1.11-1.11,1.11s-1.11-.5-1.11-1.11,.5-1.11,1.11-1.11,1.11,.5,1.11,1.11Z" />
                        <path class="cls-7"
                            d="M230.21,77.39c0,.61-.5,1.11-1.11,1.11s-1.11-.5-1.11-1.11,.5-1.11,1.11-1.11,1.11,.5,1.11,1.11Z" />
                        <path class="cls-7"
                            d="M235.99,77.39c0,.61-.5,1.11-1.11,1.11s-1.11-.5-1.11-1.11,.5-1.11,1.11-1.11,1.11,.5,1.11,1.11Z" />
                        <circle class="cls-7" cx="240.65" cy="77.39" r="1.11" />
                        <path class="cls-7"
                            d="M247.54,77.39c0,.61-.5,1.11-1.11,1.11s-1.11-.5-1.11-1.11,.5-1.11,1.11-1.11,1.11,.5,1.11,1.11Z" />
                        <path class="cls-7"
                            d="M253.32,77.39c0,.61-.5,1.11-1.11,1.11s-1.11-.5-1.11-1.11,.5-1.11,1.11-1.11,1.11,.5,1.11,1.11Z" />
                        <path class="cls-7"
                            d="M230.21,81.9c0,.61-.5,1.11-1.11,1.11s-1.11-.5-1.11-1.11,.5-1.11,1.11-1.11,1.11,.5,1.11,1.11Z" />
                        <path class="cls-7"
                            d="M235.99,81.9c0,.61-.5,1.11-1.11,1.11s-1.11-.5-1.11-1.11,.5-1.11,1.11-1.11,1.11,.5,1.11,1.11Z" />
                        <path class="cls-7"
                            d="M241.76,81.9c0,.61-.5,1.11-1.11,1.11s-1.11-.5-1.11-1.11,.5-1.11,1.11-1.11,1.11,.5,1.11,1.11Z" />
                        <path class="cls-7"
                            d="M247.54,81.9c0,.61-.5,1.11-1.11,1.11s-1.11-.5-1.11-1.11,.5-1.11,1.11-1.11,1.11,.5,1.11,1.11Z" />
                        <path class="cls-7"
                            d="M253.32,81.9c0,.61-.5,1.11-1.11,1.11s-1.11-.5-1.11-1.11,.5-1.11,1.11-1.11,1.11,.5,1.11,1.11Z" />
                        <path class="cls-7"
                            d="M230.21,86.41c0,.61-.5,1.11-1.11,1.11s-1.11-.5-1.11-1.11,.5-1.11,1.11-1.11,1.11,.5,1.11,1.11Z" />
                        <path class="cls-7"
                            d="M235.99,86.41c0,.61-.5,1.11-1.11,1.11s-1.11-.5-1.11-1.11,.5-1.11,1.11-1.11,1.11,.5,1.11,1.11Z" />
                        <path class="cls-7"
                            d="M241.76,86.41c0,.61-.5,1.11-1.11,1.11s-1.11-.5-1.11-1.11,.5-1.11,1.11-1.11,1.11,.5,1.11,1.11Z" />
                        <path class="cls-7"
                            d="M247.54,86.41c0,.61-.5,1.11-1.11,1.11s-1.11-.5-1.11-1.11,.5-1.11,1.11-1.11,1.11,.5,1.11,1.11Z" />
                        <path class="cls-7"
                            d="M253.32,86.41c0,.61-.5,1.11-1.11,1.11s-1.11-.5-1.11-1.11,.5-1.11,1.11-1.11,1.11,.5,1.11,1.11Z" />
                    </g>
                    <g>
                        <path class="cls-7"
                            d="M35.71,47.36c0,3.29-2.67,5.96-5.96,5.96s-5.96-2.67-5.96-5.96,2.67-5.96,5.96-5.96,5.96,2.67,5.96,5.96Z" />
                        <path class="cls-7"
                            d="M35.71,68.36c0,3.29-2.67,5.96-5.96,5.96s-5.96-2.67-5.96-5.96,2.67-5.96,5.96-5.96,5.96,2.67,5.96,5.96Z" />
                        <path class="cls-7"
                            d="M35.71,89.36c0,3.29-2.67,5.96-5.96,5.96s-5.96-2.67-5.96-5.96,2.67-5.96,5.96-5.96,5.96,2.67,5.96,5.96Z" />
                    </g>
                    <g>
                        <path class="cls-2"
                            d="M264.36,18.89c0,1.29-1.05,2.34-2.34,2.34s-2.34-1.05-2.34-2.34,1.05-2.34,2.34-2.34,2.34,1.05,2.34,2.34Z" />
                        <path class="cls-2"
                            d="M273.21,18.89c0,1.29-1.05,2.34-2.34,2.34s-2.34-1.05-2.34-2.34,1.05-2.34,2.34-2.34,2.34,1.05,2.34,2.34Z" />
                        <path class="cls-2"
                            d="M282.05,18.89c0,1.29-1.05,2.34-2.34,2.34s-2.34-1.05-2.34-2.34,1.05-2.34,2.34-2.34,2.34,1.05,2.34,2.34Z" />
                        <path class="cls-7"
                            d="M290.89,18.89c0,1.29-1.05,2.34-2.34,2.34s-2.34-1.05-2.34-2.34,1.05-2.34,2.34-2.34,2.34,1.05,2.34,2.34Z" />
                        <path class="cls-2"
                            d="M264.36,28.11c0,1.29-1.05,2.34-2.34,2.34s-2.34-1.05-2.34-2.34,1.05-2.34,2.34-2.34,2.34,1.05,2.34,2.34Z" />
                        <path class="cls-7"
                            d="M273.21,28.11c0,1.29-1.05,2.34-2.34,2.34s-2.34-1.05-2.34-2.34,1.05-2.34,2.34-2.34,2.34,1.05,2.34,2.34Z" />
                        <path class="cls-2"
                            d="M282.05,28.11c0,1.29-1.05,2.34-2.34,2.34s-2.34-1.05-2.34-2.34,1.05-2.34,2.34-2.34,2.34,1.05,2.34,2.34Z" />
                        <path class="cls-2"
                            d="M290.89,28.11c0,1.29-1.05,2.34-2.34,2.34s-2.34-1.05-2.34-2.34,1.05-2.34,2.34-2.34,2.34,1.05,2.34,2.34Z" />
                    </g>
                    <g>
                        <circle class="cls-7" cx="93.55" cy="281.49" r="1.36" />
                        <circle class="cls-7" cx="104.99" cy="281.49" r="1.36" />
                        <circle class="cls-7" cx="116.43" cy="281.49" r="1.36" />
                        <circle class="cls-7" cx="93.55" cy="288.26" r="1.36" />
                        <circle class="cls-7" cx="104.99" cy="288.26" r="1.36" />
                        <circle class="cls-7" cx="116.43" cy="288.26" r="1.36" />
                        <circle class="cls-7" cx="93.55" cy="295.03" r="1.36" />
                        <circle class="cls-7" cx="104.99" cy="295.03" r="1.36" />
                        <circle class="cls-7" cx="116.43" cy="295.03" r="1.36" />
                    </g>
                    <g>
                        <rect class="cls-7" x="407.94" y="18.59" width="12.51" height="12.51" />
                        <rect class="cls-7" x="407.94" y="42.25" width="12.51" height="12.51" />
                    </g>
                    <g>
                        <rect class="cls-7" x="372.57" y="177.65" width="3.67" height="11.56" />
                        <rect class="cls-7" x="380.4" y="177.65" width="3.67" height="11.56" />
                        <rect class="cls-7" x="388.22" y="177.65" width="3.67" height="11.56" />
                        <rect class="cls-7" x="396.05" y="177.65" width="3.67" height="11.56" />
                    </g>
                    <g>
                        <rect class="cls-7" x="476.51" y="344.43" width="3.67" height="11.56" />
                        <rect class="cls-7" x="484.34" y="344.43" width="3.67" height="11.56" />
                        <rect class="cls-7" x="492.17" y="344.43" width="3.67" height="11.56" />
                        <rect class="cls-7" x="499.99" y="344.43" width="3.67" height="11.56" />
                    </g>
                    <rect class="cls-7" x="185.74" y="344.4" width="36.05" height="10.33" />
                    <g>
                        <g>
                            <rect class="cls-7" x="26.06" y="231.9" width="3.76" height="5.9" />
                            <rect class="cls-7" x="26.06" y="240.05" width="3.76" height="5.9" />
                        </g>
                        <g>
                            <rect class="cls-7" x="32.97" y="231.9" width="3.76" height="5.9" />
                            <rect class="cls-7" x="32.97" y="240.05" width="3.76" height="5.9" />
                        </g>
                        <g>
                            <rect class="cls-7" x="39.88" y="231.9" width="3.76" height="5.9" />
                            <rect class="cls-7" x="39.88" y="240.05" width="3.76" height="5.9" />
                        </g>
                        <g>
                            <rect class="cls-7" x="46.79" y="231.9" width="3.76" height="5.9" />
                            <rect class="cls-7" x="46.79" y="240.05" width="3.76" height="5.9" />
                        </g>
                        <g>
                            <rect class="cls-7" x="53.7" y="231.9" width="3.76" height="5.9" />
                            <rect class="cls-7" x="53.7" y="240.05" width="3.76" height="5.9" />
                        </g>
                    </g>
                    <g>
                        <path class="cls-7"
                            d="M426.65,225.6c0,3.43-2.78,6.21-6.21,6.21s-6.21-2.78-6.21-6.21,2.78-6.21,6.21-6.21,6.21,2.78,6.21,6.21Z" />
                        <path class="cls-7"
                            d="M426.65,246.2c0,3.43-2.78,6.21-6.21,6.21s-6.21-2.78-6.21-6.21,2.78-6.21,6.21-6.21,6.21,2.78,6.21,6.21Z" />
                    </g>
                    <g>
                        <circle class="cls-7" cx="169.63" cy="87.15" r="1.61" />
                        <circle class="cls-7" cx="182.39" cy="87.15" r="1.61" />
                        <circle class="cls-7" cx="169.63" cy="100.7" r="1.61" />
                        <circle class="cls-7" cx="182.39" cy="100.7" r="1.61" />
                    </g>
                </g>
                <rect class="cls-3" x="211.64" y="129.67" width="70.53" height="70.53" />
            </g>
        </g>
    </g>
</svg>