<svg width="520" height="535" viewBox="0 0 520 535" fill="none" xmlns="http://www.w3.org/2000/svg">
<path d="M500 0H20C8.9543 0 0 8.9543 0 20V515C0 526.046 8.9543 535 20 535H500C511.046 535 520 526.046 520 515V20C520 8.9543 511.046 0 500 0Z" fill="url(#paint0_linear_1_684)"/>
<mask id="mask0_1_684" style="mask-type:luminance" maskUnits="userSpaceOnUse" x="0" y="0" width="520" height="535">
<path d="M500 0H20C8.9543 0 0 8.9543 0 20V515C0 526.046 8.9543 535 20 535H500C511.046 535 520 526.046 520 515V20C520 8.9543 511.046 0 500 0Z" fill="white"/>
</mask>
<g mask="url(#mask0_1_684)">
<g opacity="0.4">
<path d="M238.81 215.04L240.96 217.19H245.34L254.77 226.61V256.08L257.36 258.67V275.7L261.86 280.2H262.18" stroke="#112849" stroke-width="0.65" stroke-miterlimit="10"/>
<path d="M237.83 216.13C237.26 215.56 237.26 214.63 237.83 214.06C238.4 213.49 239.33 213.49 239.9 214.06C240.47 214.63 240.47 215.56 239.9 216.13C239.33 216.7 238.4 216.7 237.83 216.13Z" fill="#112849"/>
<path d="M262.11 281.66C262.916 281.66 263.57 281.006 263.57 280.2C263.57 279.394 262.916 278.74 262.11 278.74C261.304 278.74 260.65 279.394 260.65 280.2C260.65 281.006 261.304 281.66 262.11 281.66Z" fill="#112849"/>
<path d="M238.81 208.92L240.4 210.51H246.04L248.44 212.91V214.75L258.09 224.41V253.85L260.55 256.31V271.8L262.8 274.05" stroke="#112849" stroke-width="0.65" stroke-miterlimit="10"/>
<path d="M237.83 210.01C237.26 209.44 237.26 208.51 237.83 207.94C238.4 207.37 239.33 207.37 239.9 207.94C240.47 208.51 240.47 209.44 239.9 210.01C239.33 210.58 238.4 210.58 237.83 210.01Z" fill="#112849"/>
<path d="M261.71 275.03C262.28 275.6 263.21 275.6 263.78 275.03C264.35 274.46 264.35 273.53 263.78 272.96C263.21 272.39 262.28 272.39 261.71 272.96C261.14 273.53 261.14 274.46 261.71 275.03Z" fill="#112849"/>
<path d="M244.59 213.72L256.27 225.4V254.55L258.94 257.23V273.52L262.32 276.9H265.66" stroke="#112849" stroke-width="0.65" stroke-miterlimit="10"/>
<path d="M243.6 214.81C243.03 214.24 243.03 213.31 243.6 212.74C244.17 212.17 245.1 212.17 245.67 212.74C246.24 213.31 246.24 214.24 245.67 214.81C245.1 215.38 244.17 215.38 243.6 214.81Z" fill="#112849"/>
<path d="M265.59 278.36C266.4 278.36 267.05 277.7 267.05 276.9C267.05 276.1 266.39 275.43 265.59 275.43C264.79 275.43 264.13 276.09 264.13 276.9C264.13 277.71 264.79 278.36 265.59 278.36Z" fill="#112849"/>
<path d="M245.91 221.58L251.29 226.96V254.97L255.55 259.23V276.9L262.28 283.62H268.02" stroke="#112849" stroke-width="0.65" stroke-miterlimit="10"/>
<path d="M244.93 222.67C244.36 222.1 244.36 221.17 244.93 220.6C245.5 220.03 246.43 220.03 247 220.6C247.57 221.17 247.57 222.1 247 222.67C246.43 223.24 245.5 223.24 244.93 222.67Z" fill="#112849"/>
<path d="M267.95 285.09C268.76 285.09 269.42 284.43 269.42 283.63C269.42 282.83 268.76 282.17 267.95 282.17C267.14 282.17 266.49 282.83 266.49 283.63C266.49 284.43 267.15 285.09 267.95 285.09Z" fill="#112849"/>
<path d="M245.07 227.84L249.17 231.94V255.52L253.73 260.08V278.9L262.03 287.21H271.5L273.78 284.93V283.21" stroke="#112849" stroke-width="0.65" stroke-miterlimit="10"/>
<path d="M244.09 228.93C243.52 228.36 243.52 227.43 244.09 226.86C244.66 226.29 245.59 226.29 246.16 226.86C246.73 227.43 246.73 228.36 246.16 228.93C245.59 229.5 244.66 229.5 244.09 228.93Z" fill="#112849"/>
<path d="M275.24 283.29C275.24 282.48 274.58 281.82 273.77 281.82C272.96 281.82 272.3 282.48 272.3 283.29C272.3 284.1 272.96 284.75 273.77 284.75C274.58 284.75 275.24 284.09 275.24 283.29Z" fill="#112849"/>
<path d="M237.83 221.99V226.86L244.86 233.89V255.8L247.12 258.06V281.82L250.15 284.85" stroke="#112849" stroke-width="0.65" stroke-miterlimit="10"/>
<path d="M237.83 223.52C238.636 223.52 239.29 222.866 239.29 222.06C239.29 221.254 238.636 220.6 237.83 220.6C237.024 220.6 236.37 221.254 236.37 222.06C236.37 222.866 237.024 223.52 237.83 223.52Z" fill="#112849"/>
<path d="M249.06 285.84C249.63 286.41 250.56 286.41 251.13 285.84C251.7 285.27 251.7 284.34 251.13 283.77C250.56 283.2 249.63 283.2 249.06 283.77C248.49 284.34 248.49 285.27 249.06 285.84Z" fill="#112849"/>
<path d="M241.32 255.95L244.5 259.13V284.19L251.6 291.29H257.17L260.37 294.49V296.29" stroke="#112849" stroke-width="0.65" stroke-miterlimit="10"/>
<path d="M240.33 257.04C239.76 256.47 239.76 255.54 240.33 254.97C240.9 254.4 241.83 254.4 242.4 254.97C242.97 255.54 242.97 256.47 242.4 257.04C241.83 257.61 240.9 257.61 240.33 257.04Z" fill="#112849"/>
<path d="M260.37 297.68C261.176 297.68 261.83 297.026 261.83 296.22C261.83 295.414 261.176 294.76 260.37 294.76C259.564 294.76 258.91 295.414 258.91 296.22C258.91 297.026 259.564 297.68 260.37 297.68Z" fill="#112849"/>
<path d="M279.21 350.66V279.72L276.23 276.74H271.52L262.41 267.63V255.94L259.7 253.22V223.59L251.14 215.03V212.37" stroke="#112849" stroke-width="0.65" stroke-miterlimit="10"/>
<path d="M251.14 213.9C251.946 213.9 252.6 213.246 252.6 212.44C252.6 211.634 251.946 210.98 251.14 210.98C250.334 210.98 249.68 211.634 249.68 212.44C249.68 213.246 250.334 213.9 251.14 213.9Z" fill="#112849"/>
<path d="M281.33 350.66V278.81L277.76 275.24H273.54L264.68 266.38V254.9L261.89 252.11V223.25L254.78 216.14V210.6L252.12 207.94" stroke="#112849" stroke-width="0.65" stroke-miterlimit="10"/>
<path d="M253.21 206.96C252.64 206.39 251.71 206.39 251.14 206.96C250.57 207.53 250.57 208.46 251.14 209.03C251.71 209.6 252.64 209.6 253.21 209.03C253.78 208.46 253.78 207.53 253.21 206.96Z" fill="#112849"/>
<path d="M283.57 350.66V277.96L278.46 272.87H274.63L269.93 268.16V266.41" stroke="#112849" stroke-width="0.65" stroke-miterlimit="10"/>
<path d="M271.39 266.48C271.39 265.67 270.73 265.02 269.92 265.02C269.11 265.02 268.46 265.68 268.46 266.48C268.46 267.28 269.12 267.95 269.92 267.95C270.72 267.95 271.39 267.29 271.39 266.48Z" fill="#112849"/>
<path d="M285.81 350.66V276.9L279.29 270.37H275.36L273.83 268.83V259.17L270.75 256.1" stroke="#112849" stroke-width="0.65" stroke-miterlimit="10"/>
<path d="M271.84 255.12C271.27 254.55 270.34 254.55 269.77 255.12C269.2 255.69 269.2 256.62 269.77 257.19C270.34 257.76 271.27 257.76 271.84 257.19C272.41 256.62 272.41 255.69 271.84 255.12Z" fill="#112849"/>
<path d="M288.05 350.66V275.56L281.15 268.65V265.02L279.45 263.32" stroke="#112849" stroke-width="0.65" stroke-miterlimit="10"/>
<path d="M280.54 262.34C279.97 261.77 279.04 261.77 278.47 262.34C277.9 262.91 277.9 263.84 278.47 264.41C279.04 264.98 279.97 264.98 280.54 264.41C281.11 263.84 281.11 262.91 280.54 262.34Z" fill="#112849"/>
<path d="M290.29 350.66V274.72L283.7 268.13V260.74L279.55 256.6" stroke="#112849" stroke-width="0.65" stroke-miterlimit="10"/>
<path d="M280.64 255.61C280.07 255.04 279.14 255.04 278.57 255.61C278 256.18 278 257.11 278.57 257.68C279.14 258.25 280.07 258.25 280.64 257.68C281.21 257.11 281.21 256.18 280.64 255.61Z" fill="#112849"/>
<path d="M292.53 350.66V273.52L286.9 267.89V263.73" stroke="#112849" stroke-width="0.65" stroke-miterlimit="10"/>
<path d="M288.36 263.8C288.36 262.99 287.7 262.34 286.89 262.34C286.08 262.34 285.43 263 285.43 263.8C285.43 264.6 286.09 265.27 286.89 265.27C287.69 265.27 288.36 264.61 288.36 263.8Z" fill="#112849"/>
<path d="M294.77 350.66V272.64L290.65 268.52V260.11L287.26 256.72" stroke="#112849" stroke-width="0.65" stroke-miterlimit="10"/>
<path d="M288.35 255.74C287.78 255.17 286.85 255.17 286.28 255.74C285.71 256.31 285.71 257.24 286.28 257.81C286.85 258.38 287.78 258.38 288.35 257.81C288.92 257.24 288.92 256.31 288.35 255.74Z" fill="#112849"/>
<path d="M297.01 350.66V270.97L292.89 266.85V257.03L269.7 233.84V224.21L261.38 215.9V210.86L258.69 208.17" stroke="#112849" stroke-width="0.65" stroke-miterlimit="10"/>
<path d="M259.78 207.19C259.21 206.62 258.28 206.62 257.71 207.19C257.14 207.76 257.14 208.69 257.71 209.26C258.28 209.83 259.21 209.83 259.78 209.26C260.35 208.69 260.35 207.76 259.78 207.19Z" fill="#112849"/>
<path d="M299.25 350.66V269.72L295.24 265.7V255.74L272.09 232.6V221.99" stroke="#112849" stroke-width="0.65" stroke-miterlimit="10"/>
<path d="M272.09 223.52C272.896 223.52 273.55 222.866 273.55 222.06C273.55 221.254 272.896 220.6 272.09 220.6C271.284 220.6 270.63 221.254 270.63 222.06C270.63 222.866 271.284 223.52 272.09 223.52Z" fill="#112849"/>
<path d="M301.49 350.66V269.18L297.17 264.86V254.97L274.91 232.71V219.62L272.25 216.96H268.16L264.41 213.21V208.58" stroke="#112849" stroke-width="0.65" stroke-miterlimit="10"/>
<path d="M265.88 208.65C265.88 207.84 265.22 207.19 264.42 207.19C263.62 207.19 262.95 207.85 262.95 208.65C262.95 209.45 263.61 210.12 264.42 210.12C265.23 210.12 265.88 209.46 265.88 208.65Z" fill="#112849"/>
<path d="M303.73 350.66V268.05L299.4 263.72V253.22L283.58 237.39V226.86L277.89 221.17V215.45" stroke="#112849" stroke-width="0.65" stroke-miterlimit="10"/>
<path d="M277.89 216.98C278.696 216.98 279.35 216.326 279.35 215.52C279.35 214.714 278.696 214.06 277.89 214.06C277.084 214.06 276.43 214.714 276.43 215.52C276.43 216.326 277.084 216.98 277.89 216.98Z" fill="#112849"/>
<path d="M299.25 228.25V235.28L302.04 238.07H317.14L327.61 248.53V252.11L344.61 269.11V284.47L334.7 294.37V350.66" stroke="#112849" stroke-width="0.65" stroke-miterlimit="10"/>
<path d="M297.78 228.32C297.78 227.51 298.44 226.86 299.25 226.86C300.06 226.86 300.71 227.52 300.71 228.32C300.71 229.12 300.05 229.78 299.25 229.78C298.45 229.78 297.78 229.12 297.78 228.32Z" fill="#112849"/>
<path d="M306.01 228.25V233.95L307.75 235.69H318.4L330.03 247.32V251.07L347.17 268.21V285.63L337.05 295.75V350.66" stroke="#112849" stroke-width="0.65" stroke-miterlimit="10"/>
<path d="M304.55 228.32C304.55 227.51 305.21 226.86 306.02 226.86C306.83 226.86 307.48 227.52 307.48 228.32C307.48 229.12 306.82 229.78 306.02 229.78C305.22 229.78 304.55 229.12 304.55 228.32Z" fill="#112849"/>
<path d="M333.71 250.24L349.56 266.1V286.83L339.69 296.71V345.27L345.15 350.74" stroke="#112849" stroke-width="0.65" stroke-miterlimit="10"/>
<path d="M332.73 251.33C332.16 250.76 332.16 249.83 332.73 249.26C333.3 248.69 334.23 248.69 334.8 249.26C335.37 249.83 335.37 250.76 334.8 251.33C334.23 251.9 333.3 251.9 332.73 251.33Z" fill="#112849"/>
<path d="M318.41 263.32L322.71 267.63V350.66" stroke="#112849" stroke-width="0.65" stroke-miterlimit="10"/>
<path d="M317.42 264.41C316.85 263.84 316.85 262.91 317.42 262.34C317.99 261.77 318.92 261.77 319.49 262.34C320.06 262.91 320.06 263.84 319.49 264.41C318.92 264.98 317.99 264.98 317.42 264.41Z" fill="#112849"/>
<path d="M307.83 248.11L311.98 252.26V261.78L320.96 270.77V350.74" stroke="#112849" stroke-width="0.65" stroke-miterlimit="10"/>
<path d="M306.85 249.2C306.28 248.63 306.28 247.7 306.85 247.13C307.42 246.56 308.35 246.56 308.92 247.13C309.49 247.7 309.49 248.63 308.92 249.2C308.35 249.77 307.42 249.77 306.85 249.2Z" fill="#112849"/>
<path d="M304.71 254.14L309.39 258.82V262.34L318.49 271.43V350.66" stroke="#112849" stroke-width="0.65" stroke-miterlimit="10"/>
<path d="M303.73 255.23C303.16 254.66 303.16 253.73 303.73 253.16C304.3 252.59 305.23 252.59 305.8 253.16C306.37 253.73 306.37 254.66 305.8 255.23C305.23 255.8 304.3 255.8 303.73 255.23Z" fill="#112849"/>
<path d="M278.34 206.2L281.06 203.49H286.28L298.65 215.85H311.11L360.35 265.09V304.99L362.49 307.14" stroke="#112849" stroke-width="0.65" stroke-miterlimit="10"/>
<path d="M278.4 207.61C279.206 207.61 279.86 206.956 279.86 206.15C279.86 205.344 279.206 204.69 278.4 204.69C277.594 204.69 276.94 205.344 276.94 206.15C276.94 206.956 277.594 207.61 278.4 207.61Z" fill="#112849"/>
<path d="M361.4 308.12C361.97 308.69 362.9 308.69 363.47 308.12C364.04 307.55 364.04 306.62 363.47 306.05C362.9 305.48 361.97 305.48 361.4 306.05C360.83 306.62 360.83 307.55 361.4 308.12Z" fill="#112849"/>
<path d="M318.71 173.14L315.54 169.98H306.81L304.69 167.85H296.17L293.03 170.99V176.45L288.05 181.43V201.67L300.37 213.99H312.41L362.76 264.34V298.93L366.44 302.6V328.99L378.25 340.8V350.74" stroke="#112849" stroke-width="0.65" stroke-miterlimit="10"/>
<path d="M319.69 172.06C320.26 172.63 320.26 173.56 319.69 174.13C319.12 174.7 318.19 174.7 317.62 174.13C317.05 173.56 317.05 172.63 317.62 172.06C318.19 171.49 319.12 171.49 319.69 172.06Z" fill="#112849"/>
<path d="M298.27 178.65L293.52 183.4V203.49L301.71 211.68H313.9L364.79 262.56V297.89L368.68 301.79V327.95L379.79 339.05H391.1L402.99 350.95" stroke="#112849" stroke-width="0.65" stroke-miterlimit="10"/>
<path d="M297.18 177.67C297.75 177.1 298.68 177.1 299.25 177.67C299.82 178.24 299.82 179.17 299.25 179.74C298.68 180.31 297.75 180.31 297.18 179.74C296.61 179.17 296.61 178.24 297.18 177.67Z" fill="#112849"/>
<path d="M302.76 178.67L297.01 184.42V202.23L303.92 209.14H315.2L367.61 261.55V296.57L371.32 300.28V326.49L381.38 336.55H393.26L407.17 350.46" stroke="#112849" stroke-width="0.65" stroke-miterlimit="10"/>
<path d="M301.67 177.68C302.24 177.11 303.17 177.11 303.74 177.68C304.31 178.25 304.31 179.18 303.74 179.75C303.17 180.32 302.24 180.32 301.67 179.75C301.1 179.18 301.1 178.25 301.67 177.68Z" fill="#112849"/>
<path d="M380.91 259.29H384.53L388.08 262.85V280.57L394.15 286.64H412.39L420.78 295.03V308.12L428.33 315.66H483.15L501.76 334.28H514.45L520 339.83V350.46" stroke="#112849" stroke-width="0.65" stroke-miterlimit="10"/>
<path d="M380.98 260.76C380.17 260.76 379.52 260.1 379.52 259.3C379.52 258.5 380.18 257.83 380.98 257.83C381.78 257.83 382.44 258.49 382.44 259.3C382.44 260.11 381.78 260.76 380.98 260.76Z" fill="#112849"/>
<path d="M380.5 265.29L383.12 267.91V282.84L404.3 304.02V309.37L408.19 313.26H415.83L423.91 321.34V328.47L428.01 332.57H448.39L455.19 325.77H488.78L502.03 339.02V350.46" stroke="#112849" stroke-width="0.65" stroke-miterlimit="10"/>
<path d="M379.52 266.38C378.95 265.81 378.95 264.88 379.52 264.31C380.09 263.74 381.02 263.74 381.59 264.31C382.16 264.88 382.16 265.81 381.59 266.38C381.02 266.95 380.09 266.95 379.52 266.38Z" fill="#112849"/>
<path d="M312.09 201.72L317.38 207H322.71L360.03 244.32H368.87L373.84 249.3V325.65L382.79 334.59H394.54L411.49 351.54" stroke="#112849" stroke-width="0.65" stroke-miterlimit="10"/>
<path d="M311.11 202.81C310.54 202.24 310.54 201.31 311.11 200.74C311.68 200.17 312.61 200.17 313.18 200.74C313.75 201.31 313.75 202.24 313.18 202.81C312.61 203.38 311.68 203.38 311.11 202.81Z" fill="#112849"/>
<path d="M307 186.6L310.44 183.16H326.59L329.58 186.15V189.78L332.25 192.44H337.56L345.08 184.93H404.56L407.3 187.67V191.05" stroke="#112849" stroke-width="0.65" stroke-miterlimit="10"/>
<path d="M308.08 187.58C307.51 188.15 306.58 188.15 306.01 187.58C305.44 187.01 305.44 186.08 306.01 185.51C306.58 184.94 307.51 184.94 308.08 185.51C308.65 186.08 308.65 187.01 308.08 187.58Z" fill="#112849"/>
<path d="M405.84 190.98C405.84 191.79 406.5 192.44 407.3 192.44C408.1 192.44 408.77 191.78 408.77 190.98C408.77 190.18 408.11 189.51 407.3 189.51C406.49 189.51 405.84 190.17 405.84 190.98Z" fill="#112849"/>
<path d="M312.5 187.8H317.42L326.28 196.66H339.13L347.58 188.21H390.79L402.25 199.67H411.49L428.34 182.83H434.48" stroke="#112849" stroke-width="0.65" stroke-miterlimit="10"/>
<path d="M312.57 189.27C311.76 189.27 311.11 188.61 311.11 187.8C311.11 186.99 311.77 186.34 312.57 186.34C313.37 186.34 314.03 187 314.03 187.8C314.03 188.6 313.37 189.27 312.57 189.27Z" fill="#112849"/>
<path d="M434.41 184.29C435.22 184.29 435.87 183.63 435.87 182.83C435.87 182.03 435.21 181.37 434.41 181.37C433.61 181.37 432.94 182.03 432.94 182.83C432.94 183.63 433.6 184.29 434.41 184.29Z" fill="#112849"/>
<path d="M312.5 191.25H317.42L324.97 198.8H339.75L347.78 190.78H390.16L400.97 201.58H413.33L427.73 187.18H434.48" stroke="#112849" stroke-width="0.65" stroke-miterlimit="10"/>
<path d="M312.57 192.72C311.76 192.72 311.11 192.06 311.11 191.25C311.11 190.44 311.77 189.79 312.57 189.79C313.37 189.79 314.03 190.45 314.03 191.25C314.03 192.05 313.37 192.72 312.57 192.72Z" fill="#112849"/>
<path d="M434.41 188.64C435.22 188.64 435.87 187.98 435.87 187.17C435.87 186.36 435.21 185.71 434.41 185.71C433.61 185.71 432.94 186.37 432.94 187.17C432.94 187.97 433.6 188.64 434.41 188.64Z" fill="#112849"/>
<path d="M312.09 197.09L318.72 203.72H332.73L339.98 210.97H370.71L374.17 207.52" stroke="#112849" stroke-width="0.65" stroke-miterlimit="10"/>
<path d="M311.11 198.18C310.54 197.61 310.54 196.68 311.11 196.11C311.68 195.54 312.61 195.54 313.18 196.11C313.75 196.68 313.75 197.61 313.18 198.18C312.61 198.75 311.68 198.75 311.11 198.18Z" fill="#112849"/>
<path d="M375.16 208.6C375.73 208.03 375.73 207.1 375.16 206.53C374.59 205.96 373.66 205.96 373.09 206.53C372.52 207.1 372.52 208.03 373.09 208.6C373.66 209.17 374.59 209.17 375.16 208.6Z" fill="#112849"/>
<path d="M339.83 204.52L344.41 209.1H367.79L376.75 200.15" stroke="#112849" stroke-width="0.65" stroke-miterlimit="10"/>
<path d="M338.85 205.61C338.28 205.04 338.28 204.11 338.85 203.54C339.42 202.97 340.35 202.97 340.92 203.54C341.49 204.11 341.49 205.04 340.92 205.61C340.35 206.18 339.42 206.18 338.85 205.61Z" fill="#112849"/>
<path d="M377.73 201.23C378.3 200.66 378.3 199.73 377.73 199.16C377.16 198.59 376.23 198.59 375.66 199.16C375.09 199.73 375.09 200.66 375.66 201.23C376.23 201.8 377.16 201.8 377.73 201.23Z" fill="#112849"/>
<path d="M430.19 192.24L420.37 202.05V225.68L414.61 231.44V245.92L441.78 273.09V285.16L447.44 290.82H519.49" stroke="#112849" stroke-width="0.65" stroke-miterlimit="10"/>
<path d="M429.1 191.25C429.67 190.68 430.6 190.68 431.17 191.25C431.74 191.82 431.74 192.75 431.17 193.32C430.6 193.89 429.67 193.89 429.1 193.32C428.53 192.75 428.53 191.82 429.1 191.25Z" fill="#112849"/>
<path d="M433.7 191.97L422.67 203V226.63L416.9 232.39V243.63L444.08 270.8V282.86L449.73 288.52H519.49" stroke="#112849" stroke-width="0.65" stroke-miterlimit="10"/>
<path d="M432.61 190.99C433.18 190.42 434.11 190.42 434.68 190.99C435.25 191.56 435.25 192.49 434.68 193.06C434.11 193.63 433.18 193.63 432.61 193.06C432.04 192.49 432.04 191.56 432.61 190.99Z" fill="#112849"/>
<path d="M440.14 188.78L424.97 203.95V227.58L419.2 233.34V241.33L446.37 268.5V280.57L452.03 286.22H519.49" stroke="#112849" stroke-width="0.65" stroke-miterlimit="10"/>
<path d="M439.05 187.8C439.62 187.23 440.55 187.23 441.12 187.8C441.69 188.37 441.69 189.3 441.12 189.87C440.55 190.44 439.62 190.44 439.05 189.87C438.48 189.3 438.48 188.37 439.05 187.8Z" fill="#112849"/>
<path d="M443.38 188.78L427.26 204.91V228.53L421.5 234.29V239.03L448.67 266.21V278.27L454.32 283.93H519.49" stroke="#112849" stroke-width="0.65" stroke-miterlimit="10"/>
<path d="M442.29 187.8C442.86 187.23 443.79 187.23 444.36 187.8C444.93 188.37 444.93 189.3 444.36 189.87C443.79 190.44 442.86 190.44 442.29 189.87C441.72 189.3 441.72 188.37 442.29 187.8Z" fill="#112849"/>
<path d="M433.23 246.18L450.96 263.91V275.98L456.62 281.63H519.49" stroke="#112849" stroke-width="0.65" stroke-miterlimit="10"/>
<path d="M432.25 247.27C431.68 246.7 431.68 245.77 432.25 245.2C432.82 244.63 433.75 244.63 434.32 245.2C434.89 245.77 434.89 246.7 434.32 247.27C433.75 247.84 432.82 247.84 432.25 247.27Z" fill="#112849"/>
<path d="M442.69 251.05L453.26 261.61V273.68L458.91 279.34H519.49" stroke="#112849" stroke-width="0.65" stroke-miterlimit="10"/>
<path d="M441.71 252.14C441.14 251.57 441.14 250.64 441.71 250.07C442.28 249.5 443.21 249.5 443.78 250.07C444.35 250.64 444.35 251.57 443.78 252.14C443.21 252.71 442.28 252.71 441.71 252.14Z" fill="#112849"/>
<path d="M220.64 210.97H211.6L203.87 218.71V272.87L207.97 276.98V296.01L228.07 316.11" stroke="#112849" stroke-width="0.65" stroke-miterlimit="10"/>
<path d="M220.57 209.51C221.38 209.51 222.03 210.17 222.03 210.98C222.03 211.79 221.37 212.44 220.57 212.44C219.77 212.44 219.1 211.78 219.1 210.98C219.1 210.18 219.76 209.51 220.57 209.51Z" fill="#112849"/>
<path d="M226.98 317.1C227.55 317.67 228.48 317.67 229.05 317.1C229.62 316.53 229.62 315.6 229.05 315.03C228.48 314.46 227.55 314.46 226.98 315.03C226.41 315.6 226.41 316.53 226.98 317.1Z" fill="#112849"/>
<path d="M302.47 157.16L310.68 165.36H322.71L342.74 145.34H390.54L406.78 161.57V171.48" stroke="#112849" stroke-width="0.65" stroke-miterlimit="10"/>
<path d="M301.49 158.24C300.92 157.67 300.92 156.74 301.49 156.17C302.06 155.6 302.99 155.6 303.56 156.17C304.13 156.74 304.13 157.67 303.56 158.24C302.99 158.81 302.06 158.81 301.49 158.24Z" fill="#112849"/>
<path d="M405.31 171.4C405.31 172.21 405.97 172.86 406.77 172.86C407.57 172.86 408.24 172.2 408.24 171.4C408.24 170.6 407.58 169.94 406.77 169.94C405.96 169.94 405.31 170.6 405.31 171.4Z" fill="#112849"/>
<path d="M330.93 163.54L345.21 149.26H388.8L402.7 163.15V171.48" stroke="#112849" stroke-width="0.65" stroke-miterlimit="10"/>
<path d="M332.02 164.52C331.45 165.09 330.52 165.09 329.95 164.52C329.38 163.95 329.38 163.02 329.95 162.45C330.52 161.88 331.45 161.88 332.02 162.45C332.59 163.02 332.59 163.95 332.02 164.52Z" fill="#112849"/>
<path d="M401.23 171.4C401.23 172.21 401.89 172.86 402.7 172.86C403.51 172.86 404.16 172.2 404.16 171.4C404.16 170.6 403.5 169.94 402.7 169.94C401.9 169.94 401.23 170.6 401.23 171.4Z" fill="#112849"/>
<path d="M185.87 164.05L179.77 170.01V193.15L174.63 198.3H166.73L156.42 208.6V222.54L125 253.96V310.21L84.84 350.37" stroke="#112849" stroke-width="0.65" stroke-miterlimit="10"/>
<path d="M184.8 163.06C185.38 162.49 186.31 162.51 186.87 163.08C187.44 163.66 187.42 164.59 186.84 165.15C186.26 165.71 185.33 165.7 184.77 165.13C184.21 164.55 184.22 163.62 184.79 163.06H184.8Z" fill="#112849"/>
<path d="M185.85 159.9L177.5 168.1V191.25L172.35 196.39H164.45L154.15 206.69V220.64L122.73 252.06V308.3L80.57 350.46" stroke="#112849" stroke-width="0.65" stroke-miterlimit="10"/>
<path d="M184.77 158.91C185.35 158.34 186.27 158.35 186.84 158.93C187.41 159.51 187.4 160.43 186.82 161C186.24 161.57 185.32 161.56 184.75 160.98C184.18 160.4 184.19 159.48 184.77 158.91Z" fill="#112849"/>
<path d="M210.94 308.97H200.53L178.76 287.21V273.58L164.48 259.29V242.74L193.16 214.06V205.43L201.88 196.72" stroke="#112849" stroke-width="0.65" stroke-miterlimit="10"/>
<path d="M210.87 307.5C211.68 307.5 212.34 308.16 212.34 308.96C212.34 309.76 211.68 310.43 210.87 310.43C210.06 310.43 209.41 309.77 209.41 308.96C209.41 308.15 210.07 307.5 210.87 307.5Z" fill="#112849"/>
<path d="M202.86 197.8C203.43 197.23 203.43 196.3 202.86 195.73C202.29 195.16 201.36 195.16 200.79 195.73C200.22 196.3 200.22 197.23 200.79 197.8C201.36 198.37 202.29 198.37 202.86 197.8Z" fill="#112849"/>
<path d="M184.51 213.12L159.85 237.78V254.77L141.1 273.52V324.56L133.12 332.54V350.66" stroke="#112849" stroke-width="0.65" stroke-miterlimit="10"/>
<path d="M183.42 212.14C183.99 211.57 184.92 211.57 185.49 212.14C186.06 212.71 186.06 213.64 185.49 214.21C184.92 214.78 183.99 214.78 183.42 214.21C182.85 213.64 182.85 212.71 183.42 212.14Z" fill="#112849"/>
<path d="M158.32 263.32L142.83 278.81V325.34L134.85 333.33V350.66" stroke="#112849" stroke-width="0.65" stroke-miterlimit="10"/>
<path d="M157.24 262.34C157.81 261.77 158.74 261.77 159.31 262.34C159.88 262.91 159.88 263.84 159.31 264.41C158.74 264.98 157.81 264.98 157.24 264.41C156.67 263.84 156.67 262.91 157.24 262.34Z" fill="#112849"/>
<path d="M154.68 274.5L144.44 284.74V326.28L136.75 333.98V350.66" stroke="#112849" stroke-width="0.65" stroke-miterlimit="10"/>
<path d="M153.59 273.52C154.16 272.95 155.09 272.95 155.66 273.52C156.23 274.09 156.23 275.02 155.66 275.59C155.09 276.16 154.16 276.16 153.59 275.59C153.02 275.02 153.02 274.09 153.59 273.52Z" fill="#112849"/>
<path d="M164.48 270.48V273.52L146.03 291.97V327.84L138.63 335.24V350.66" stroke="#112849" stroke-width="0.65" stroke-miterlimit="10"/>
<path d="M163.02 270.55C163.02 269.74 163.68 269.08 164.48 269.08C165.28 269.08 165.95 269.74 165.95 270.55C165.95 271.36 165.29 272.01 164.48 272.01C163.67 272.01 163.02 271.35 163.02 270.55Z" fill="#112849"/>
<path d="M158.17 286.14V299.98L147.75 310.4V328.99L140.43 336.3V350.66" stroke="#112849" stroke-width="0.65" stroke-miterlimit="10"/>
<path d="M156.7 286.21C156.7 285.4 157.36 284.75 158.16 284.75C158.96 284.75 159.63 285.41 159.63 286.21C159.63 287.01 158.97 287.68 158.16 287.68C157.35 287.68 156.7 287.02 156.7 286.21Z" fill="#112849"/>
<path d="M149.3 350.37V310.83L160.1 300.03V283.62L169.25 274.47" stroke="#112849" stroke-width="0.65" stroke-miterlimit="10"/>
<path d="M170.24 275.56C170.81 274.99 170.81 274.06 170.24 273.49C169.67 272.92 168.74 272.92 168.17 273.49C167.6 274.06 167.6 274.99 168.17 275.56C168.74 276.13 169.67 276.13 170.24 275.56Z" fill="#112849"/>
<path d="M216.98 221.58L210.36 228.2V269.09L214.16 272.88V294.03L228.51 308.38H244.09L247.79 312.08V324.09L221.14 350.74" stroke="#112849" stroke-width="0.65" stroke-miterlimit="10"/>
<path d="M215.89 220.6C216.46 220.03 217.39 220.03 217.96 220.6C218.53 221.17 218.53 222.1 217.96 222.67C217.39 223.24 216.46 223.24 215.89 222.67C215.32 222.1 215.32 221.17 215.89 220.6Z" fill="#112849"/>
<path d="M210.2 221.58L207.29 224.49V269.92L211.03 273.67V294.55L228.64 312.16H240.33L242.16 313.98V321.27L212.69 350.73" stroke="#112849" stroke-width="0.65" stroke-miterlimit="10"/>
<path d="M209.11 220.6C209.68 220.03 210.61 220.03 211.18 220.6C211.75 221.17 211.75 222.1 211.18 222.67C210.61 223.24 209.68 223.24 209.11 222.67C208.54 222.1 208.54 221.17 209.11 220.6Z" fill="#112849"/>
<path d="M167.61 323.73L174.97 316.37V295.11" stroke="#112849" stroke-width="0.65" stroke-miterlimit="10"/>
<path d="M168.69 324.71C168.12 325.28 167.19 325.28 166.62 324.71C166.05 324.14 166.05 323.21 166.62 322.64C167.19 322.07 168.12 322.07 168.69 322.64C169.26 323.21 169.26 324.14 168.69 324.71Z" fill="#112849"/>
<path d="M176.43 295.18C176.43 294.37 175.77 293.72 174.97 293.72C174.17 293.72 173.5 294.38 173.5 295.18C173.5 295.98 174.16 296.64 174.97 296.64C175.78 296.64 176.43 295.98 176.43 295.18Z" fill="#112849"/>
<path d="M180.08 299.08V323.32" stroke="#112849" stroke-width="0.65" stroke-miterlimit="10"/>
<path d="M178.62 299.15C178.62 298.34 179.28 297.69 180.08 297.69C180.88 297.69 181.54 298.35 181.54 299.15C181.54 299.95 180.88 300.62 180.08 300.62C179.28 300.62 178.62 299.96 178.62 299.15Z" fill="#112849"/>
<path d="M178.62 323.25C178.62 324.06 179.28 324.72 180.08 324.72C180.88 324.72 181.54 324.06 181.54 323.25C181.54 322.44 180.88 321.79 180.08 321.79C179.28 321.79 178.62 322.45 178.62 323.25Z" fill="#112849"/>
<path d="M183.53 300.32V323.32" stroke="#112849" stroke-width="0.65" stroke-miterlimit="10"/>
<path d="M182.06 300.4C182.06 299.59 182.72 298.94 183.53 298.94C184.34 298.94 184.99 299.6 184.99 300.4C184.99 301.2 184.33 301.86 183.53 301.86C182.73 301.86 182.06 301.2 182.06 300.4Z" fill="#112849"/>
<path d="M182.06 323.25C182.06 324.06 182.72 324.72 183.53 324.72C184.34 324.72 184.99 324.06 184.99 323.25C184.99 322.44 184.33 321.79 183.53 321.79C182.73 321.79 182.06 322.45 182.06 323.25Z" fill="#112849"/>
<path d="M215.51 196.72L188.42 223.81V292.05L199.64 303.27H205.9" stroke="#112849" stroke-width="0.65" stroke-miterlimit="10"/>
<path d="M214.42 195.73C214.99 195.16 215.92 195.16 216.49 195.73C217.06 196.3 217.06 197.23 216.49 197.8C215.92 198.37 214.99 198.37 214.42 197.8C213.85 197.23 213.85 196.3 214.42 195.73Z" fill="#112849"/>
<path d="M205.82 304.73C206.63 304.73 207.28 304.07 207.28 303.27C207.28 302.47 206.62 301.81 205.82 301.81C205.02 301.81 204.35 302.47 204.35 303.27C204.35 304.07 205.01 304.73 205.82 304.73Z" fill="#112849"/>
<path d="M196.87 222.49L193.63 225.72V275.35L197.73 279.45V295.39L200.13 297.79" stroke="#112849" stroke-width="0.65" stroke-miterlimit="10"/>
<path d="M195.78 221.5C196.35 220.93 197.28 220.93 197.85 221.5C198.42 222.07 198.42 223 197.85 223.57C197.28 224.14 196.35 224.14 195.78 223.57C195.21 223 195.21 222.07 195.78 221.5Z" fill="#112849"/>
<path d="M199.04 298.77C199.61 299.34 200.54 299.34 201.11 298.77C201.68 298.2 201.68 297.27 201.11 296.7C200.54 296.13 199.61 296.13 199.04 296.7C198.47 297.27 198.47 298.2 199.04 298.77Z" fill="#112849"/>
<path d="M192.18 310.2L187.79 314.59V323.32" stroke="#112849" stroke-width="0.65" stroke-miterlimit="10"/>
<path d="M191.09 309.22C191.66 308.65 192.59 308.65 193.16 309.22C193.73 309.79 193.73 310.72 193.16 311.29C192.59 311.86 191.66 311.86 191.09 311.29C190.52 310.72 190.52 309.79 191.09 309.22Z" fill="#112849"/>
<path d="M186.33 323.25C186.33 324.06 186.99 324.72 187.8 324.72C188.61 324.72 189.26 324.06 189.26 323.25C189.26 322.44 188.6 321.79 187.8 321.79C187 321.79 186.33 322.45 186.33 323.25Z" fill="#112849"/>
<path d="M217.46 313.76H197.37L193.66 317.46V323.32" stroke="#112849" stroke-width="0.65" stroke-miterlimit="10"/>
<path d="M217.39 312.29C218.2 312.29 218.85 312.95 218.85 313.76C218.85 314.57 218.19 315.22 217.39 315.22C216.59 315.22 215.93 314.56 215.93 313.76C215.93 312.96 216.59 312.29 217.39 312.29Z" fill="#112849"/>
<path d="M192.2 323.25C192.2 324.06 192.86 324.72 193.66 324.72C194.46 324.72 195.12 324.06 195.12 323.25C195.12 322.44 194.46 321.79 193.66 321.79C192.86 321.79 192.2 322.45 192.2 323.25Z" fill="#112849"/>
<path d="M215.07 311.2H195.32L190.68 315.84V323.32" stroke="#112849" stroke-width="0.65" stroke-miterlimit="10"/>
<path d="M215 309.73C215.81 309.73 216.46 310.39 216.46 311.19C216.46 311.99 215.8 312.66 215 312.66C214.2 312.66 213.54 312 213.54 311.19C213.54 310.38 214.2 309.73 215 309.73Z" fill="#112849"/>
<path d="M189.22 323.25C189.22 324.06 189.88 324.72 190.68 324.72C191.48 324.72 192.14 324.06 192.14 323.25C192.14 322.44 191.48 321.79 190.68 321.79C189.88 321.79 189.22 322.45 189.22 323.25Z" fill="#112849"/>
<path d="M220.02 316.31H198.61L196.66 318.26V323.32" stroke="#112849" stroke-width="0.65" stroke-miterlimit="10"/>
<path d="M219.94 314.85C220.75 314.85 221.4 315.51 221.4 316.31C221.4 317.11 220.74 317.77 219.94 317.77C219.14 317.77 218.47 317.11 218.47 316.31C218.47 315.51 219.13 314.85 219.94 314.85Z" fill="#112849"/>
<path d="M195.2 323.25C195.2 324.06 195.86 324.72 196.66 324.72C197.46 324.72 198.13 324.06 198.13 323.25C198.13 322.44 197.47 321.79 196.66 321.79C195.85 321.79 195.2 322.45 195.2 323.25Z" fill="#112849"/>
<path d="M318.81 177.68H338.85L346.94 169.59" stroke="#112849" stroke-width="0.65" stroke-miterlimit="10"/>
<path d="M318.89 179.15C318.08 179.15 317.43 178.49 317.43 177.69C317.43 176.89 318.09 176.22 318.89 176.22C319.69 176.22 320.35 176.88 320.35 177.69C320.35 178.5 319.69 179.15 318.89 179.15Z" fill="#112849"/>
<path d="M347.93 170.68C348.5 170.11 348.5 169.18 347.93 168.61C347.36 168.04 346.43 168.04 345.86 168.61C345.29 169.18 345.29 170.11 345.86 170.68C346.43 171.25 347.36 171.25 347.93 170.68Z" fill="#112849"/>
<path d="M336.98 186.19L346.9 176.27" stroke="#112849" stroke-width="0.65" stroke-miterlimit="10"/>
<path d="M338.07 187.18C337.5 187.75 336.57 187.75 336 187.18C335.43 186.61 335.43 185.68 336 185.11C336.57 184.54 337.5 184.54 338.07 185.11C338.64 185.68 338.64 186.61 338.07 187.18Z" fill="#112849"/>
<path d="M347.89 177.36C348.46 176.79 348.46 175.86 347.89 175.29C347.32 174.72 346.39 174.72 345.82 175.29C345.25 175.86 345.25 176.79 345.82 177.36C346.39 177.93 347.32 177.93 347.89 177.36Z" fill="#112849"/>
<path d="M346.19 160.09L333.17 173.11H327.98" stroke="#112849" stroke-width="0.65" stroke-miterlimit="10"/>
<path d="M345.1 159.1C345.67 158.53 346.6 158.53 347.17 159.1C347.74 159.67 347.74 160.6 347.17 161.17C346.6 161.74 345.67 161.74 345.1 161.17C344.53 160.6 344.53 159.67 345.1 159.1Z" fill="#112849"/>
<path d="M328.06 171.64C327.25 171.64 326.6 172.3 326.6 173.1C326.6 173.9 327.26 174.57 328.06 174.57C328.86 174.57 329.53 173.91 329.53 173.1C329.53 172.29 328.87 171.64 328.06 171.64Z" fill="#112849"/>
<path d="M379.86 159.1H386.4L393.82 166.52V175.29L397.67 179.14H427.73L446.47 160.4V151.27L442.42 147.22V61.1L436.49 55.16V0" stroke="#112849" stroke-width="0.65" stroke-miterlimit="10"/>
<path d="M379.93 160.57C379.12 160.57 378.47 159.91 378.47 159.1C378.47 158.29 379.13 157.64 379.93 157.64C380.73 157.64 381.4 158.3 381.4 159.1C381.4 159.9 380.74 160.57 379.93 160.57Z" fill="#112849"/>
<path d="M379.86 159.1H386.4L393.82 166.52V175.29L397.67 179.14H427.73L446.47 160.4V151.27L442.42 147.22V61.1L436.49 55.16V0" stroke="#112849" stroke-width="0.65" stroke-miterlimit="10"/>
<path d="M379.93 160.57C379.12 160.57 378.47 159.91 378.47 159.1C378.47 158.29 379.13 157.64 379.93 157.64C380.73 157.64 381.4 158.3 381.4 159.1C381.4 159.9 380.74 160.57 379.93 160.57Z" fill="#112849"/>
<path d="M379.86 160.48H385.36L392.05 167.16V175.94L397.68 181.57H427.74L448.27 161.04V151.27L444.22 147.22V61.1L438.28 55.16V0" stroke="#112849" stroke-width="0.65" stroke-miterlimit="10"/>
<path d="M379.93 161.94C379.12 161.94 378.47 161.28 378.47 160.48C378.47 159.68 379.13 159.01 379.93 159.01C380.73 159.01 381.4 159.67 381.4 160.48C381.4 161.29 380.74 161.94 379.93 161.94Z" fill="#112849"/>
<path d="M440.08 0V55.16L446.01 61.1V147.22L450.06 151.27V161.37L442.84 168.6V175.33L439.05 179.12" stroke="#112849" stroke-width="0.65" stroke-miterlimit="10"/>
<path d="M438.06 178.03C437.49 178.6 437.49 179.53 438.06 180.1C438.63 180.67 439.56 180.67 440.13 180.1C440.7 179.53 440.7 178.6 440.13 178.03C439.56 177.46 438.63 177.46 438.06 178.03Z" fill="#112849"/>
<path d="M441.87 0V55.16L447.81 61.1V147.22L451.86 151.27V162.02L446.01 167.87V181.57L449.6 185.16V188.45L452.67 191.53H455.59L458.88 194.81" stroke="#112849" stroke-width="0.65" stroke-miterlimit="10"/>
<path d="M457.79 195.8C458.36 196.37 459.29 196.37 459.86 195.8C460.43 195.23 460.43 194.3 459.86 193.73C459.29 193.16 458.36 193.16 457.79 193.73C457.22 194.3 457.22 195.23 457.79 195.8Z" fill="#112849"/>
<path d="M443.67 0V55.16L449.6 61.1V147.22L453.65 151.27V162.67L448.64 167.69V181.57L452.97 185.91" stroke="#112849" stroke-width="0.65" stroke-miterlimit="10"/>
<path d="M451.89 186.89C452.46 187.46 453.39 187.46 453.96 186.89C454.53 186.32 454.53 185.39 453.96 184.82C453.39 184.25 452.46 184.25 451.89 184.82C451.32 185.39 451.32 186.32 451.89 186.89Z" fill="#112849"/>
<path d="M427.89 75.1V93.35L413.29 107.94H391.41L371.94 127.41H338.85L314.74 151.52" stroke="#112849" stroke-width="0.65" stroke-miterlimit="10"/>
<path d="M426.42 75.17C426.42 74.36 427.08 73.71 427.89 73.71C428.7 73.71 429.35 74.37 429.35 75.17C429.35 75.97 428.69 76.63 427.89 76.63C427.09 76.63 426.42 75.97 426.42 75.17Z" fill="#112849"/>
<path d="M313.76 150.43C313.19 151 313.19 151.93 313.76 152.5C314.33 153.07 315.26 153.07 315.83 152.5C316.4 151.93 316.4 151 315.83 150.43C315.26 149.86 314.33 149.86 313.76 150.43Z" fill="#112849"/>
<path d="M340.24 124.65H370.82L390.2 105.28H412.47L425.29 92.47V75.1" stroke="#112849" stroke-width="0.65" stroke-miterlimit="10"/>
<path d="M340.31 126.12C339.5 126.12 338.85 125.46 338.85 124.66C338.85 123.86 339.51 123.19 340.31 123.19C341.11 123.19 341.78 123.85 341.78 124.66C341.78 125.47 341.12 126.12 340.31 126.12Z" fill="#112849"/>
<path d="M426.75 75.17C426.75 74.36 426.09 73.71 425.29 73.71C424.49 73.71 423.82 74.37 423.82 75.17C423.82 75.97 424.48 76.63 425.29 76.63C426.1 76.63 426.75 75.97 426.75 75.17Z" fill="#112849"/>
<path d="M419.2 77.21V95.22L412.08 102.35H388.2L368.79 121.76H344.52" stroke="#112849" stroke-width="0.65" stroke-miterlimit="10"/>
<path d="M417.73 77.28C417.73 76.47 418.39 75.81 419.19 75.81C419.99 75.81 420.66 76.47 420.66 77.28C420.66 78.09 420 78.74 419.19 78.74C418.38 78.74 417.73 78.08 417.73 77.28Z" fill="#112849"/>
<path d="M344.6 120.29C343.79 120.29 343.13 120.95 343.13 121.75C343.13 122.55 343.79 123.22 344.6 123.22C345.41 123.22 346.06 122.56 346.06 121.75C346.06 120.94 345.4 120.29 344.6 120.29Z" fill="#112849"/>
<path d="M386.81 79.26H373.49L354.05 98.7V115.96" stroke="#112849" stroke-width="0.65" stroke-miterlimit="10"/>
<path d="M386.73 77.79C387.54 77.79 388.2 78.45 388.2 79.26C388.2 80.07 387.54 80.73 386.73 80.73C385.92 80.73 385.27 80.07 385.27 79.26C385.27 78.45 385.93 77.79 386.73 77.79Z" fill="#112849"/>
<path d="M352.58 115.88C352.58 116.69 353.24 117.34 354.04 117.34C354.84 117.34 355.5 116.68 355.5 115.88C355.5 115.08 354.84 114.41 354.04 114.41C353.24 114.41 352.58 115.07 352.58 115.88Z" fill="#112849"/>
<path d="M386.81 86.15H375.16L361.03 100.27V115.96" stroke="#112849" stroke-width="0.65" stroke-miterlimit="10"/>
<path d="M386.73 84.68C387.54 84.68 388.2 85.34 388.2 86.14C388.2 86.94 387.54 87.6 386.73 87.6C385.92 87.6 385.27 86.94 385.27 86.14C385.27 85.34 385.93 84.68 386.73 84.68Z" fill="#112849"/>
<path d="M359.56 115.88C359.56 116.69 360.22 117.34 361.02 117.34C361.82 117.34 362.48 116.68 362.48 115.88C362.48 115.08 361.82 114.41 361.02 114.41C360.22 114.41 359.56 115.07 359.56 115.88Z" fill="#112849"/>
<path d="M348.56 139.37H386.72L402.06 124.02H437.7" stroke="#112849" stroke-width="0.65" stroke-miterlimit="10"/>
<path d="M348.63 140.83C347.82 140.83 347.16 140.17 347.16 139.37C347.16 138.57 347.82 137.9 348.63 137.9C349.44 137.9 350.09 138.56 350.09 139.37C350.09 140.18 349.43 140.83 348.63 140.83Z" fill="#112849"/>
<path d="M437.62 125.49C438.43 125.49 439.09 124.83 439.09 124.03C439.09 123.23 438.43 122.56 437.62 122.56C436.81 122.56 436.16 123.22 436.16 124.03C436.16 124.84 436.82 125.49 437.62 125.49Z" fill="#112849"/>
<path d="M371.12 0V38.45L325.01 84.57H311.11L294.71 100.97" stroke="#112849" stroke-width="0.65" stroke-miterlimit="10"/>
<path d="M293.72 99.88C293.15 100.45 293.15 101.38 293.72 101.95C294.29 102.52 295.22 102.52 295.79 101.95C296.36 101.38 296.36 100.45 295.79 99.88C295.22 99.31 294.29 99.31 293.72 99.88Z" fill="#112849"/>
<path d="M375.16 0V40.12L327.47 87.81H313.76L297.49 104.08" stroke="#112849" stroke-width="0.65" stroke-miterlimit="10"/>
<path d="M296.51 102.99C295.94 103.56 295.94 104.49 296.51 105.06C297.08 105.63 298.01 105.63 298.58 105.06C299.15 104.49 299.15 103.56 298.58 102.99C298.01 102.42 297.08 102.42 296.51 102.99Z" fill="#112849"/>
<path d="M325.2 106.91H303.65L289.59 120.97H272.98" stroke="#112849" stroke-width="0.65" stroke-miterlimit="10"/>
<path d="M325.13 105.45C325.94 105.45 326.59 106.11 326.59 106.91C326.59 107.71 325.93 108.38 325.13 108.38C324.33 108.38 323.67 107.72 323.67 106.91C323.67 106.1 324.33 105.45 325.13 105.45Z" fill="#112849"/>
<path d="M273.05 122.43C273.856 122.43 274.51 121.776 274.51 120.97C274.51 120.164 273.856 119.51 273.05 119.51C272.244 119.51 271.59 120.164 271.59 120.97C271.59 121.776 272.244 122.43 273.05 122.43Z" fill="#112849"/>
<path d="M325.2 113.11H306.01L289.06 130.05H273.07" stroke="#112849" stroke-width="0.65" stroke-miterlimit="10"/>
<path d="M325.13 111.64C325.94 111.64 326.59 112.3 326.59 113.1C326.59 113.9 325.93 114.57 325.13 114.57C324.33 114.57 323.67 113.91 323.67 113.1C323.67 112.29 324.33 111.64 325.13 111.64Z" fill="#112849"/>
<path d="M273.14 128.59C272.33 128.59 271.68 129.25 271.68 130.05C271.68 130.85 272.34 131.52 273.14 131.52C273.94 131.52 274.6 130.86 274.6 130.05C274.6 129.24 273.94 128.59 273.14 128.59Z" fill="#112849"/>
<path d="M319.78 120.21L295.55 144.44H272.98" stroke="#112849" stroke-width="0.65" stroke-miterlimit="10"/>
<path d="M318.69 119.23C319.26 118.66 320.19 118.66 320.76 119.23C321.33 119.8 321.33 120.73 320.76 121.3C320.19 121.87 319.26 121.87 318.69 121.3C318.12 120.73 318.12 119.8 318.69 119.23Z" fill="#112849"/>
<path d="M273.05 142.97C272.24 142.97 271.59 143.63 271.59 144.43C271.59 145.23 272.25 145.9 273.05 145.9C273.85 145.9 274.51 145.24 274.51 144.43C274.51 143.62 273.85 142.97 273.05 142.97Z" fill="#112849"/>
<path d="M366.32 0V37.93L322.83 81.43H308.76L292.45 97.73" stroke="#112849" stroke-width="0.65" stroke-miterlimit="10"/>
<path d="M291.47 96.64C290.9 97.21 290.9 98.14 291.47 98.71C292.04 99.28 292.97 99.28 293.54 98.71C294.11 98.14 294.11 97.21 293.54 96.64C292.97 96.07 292.04 96.07 291.47 96.64Z" fill="#112849"/>
<path d="M132.5 0L156.03 23.54V31.52L189.89 65.38V85.68L203.28 99.08H215.15L226.04 109.97" stroke="#112849" stroke-width="0.65" stroke-miterlimit="10"/>
<path d="M224.95 110.95C225.52 111.52 226.45 111.52 227.02 110.95C227.59 110.38 227.59 109.45 227.02 108.88C226.45 108.31 225.52 108.31 224.95 108.88C224.38 109.45 224.38 110.38 224.95 110.95Z" fill="#112849"/>
<path d="M137.09 0L158.33 21.24V29.23L192.19 63.09V83.39L203.37 94.58H221.84L237.23 109.97" stroke="#112849" stroke-width="0.65" stroke-miterlimit="10"/>
<path d="M236.14 110.95C236.71 111.52 237.64 111.52 238.21 110.95C238.78 110.38 238.78 109.45 238.21 108.88C237.64 108.31 236.71 108.31 236.14 108.88C235.57 109.45 235.57 110.38 236.14 110.95Z" fill="#112849"/>
<path d="M141.68 0L160.62 18.95V26.93L194.48 60.79V81.09L205.41 92.02H225.17L228.99 88.2H281.56" stroke="#112849" stroke-width="0.65" stroke-miterlimit="10"/>
<path d="M281.49 89.66C282.3 89.66 282.95 89 282.95 88.2C282.95 87.4 282.29 86.73 281.49 86.73C280.69 86.73 280.02 87.39 280.02 88.2C280.02 89.01 280.68 89.66 281.49 89.66Z" fill="#112849"/>
<path d="M146.27 0L162.92 16.65V24.63L196.78 58.49V78.8L206.14 88.16H218.45" stroke="#112849" stroke-width="0.65" stroke-miterlimit="10"/>
<path d="M218.38 89.62C219.19 89.62 219.84 88.96 219.84 88.15C219.84 87.34 219.18 86.69 218.38 86.69C217.58 86.69 216.92 87.35 216.92 88.15C216.92 88.95 217.58 89.62 218.38 89.62Z" fill="#112849"/>
<path d="M150.86 0L165.21 14.36V22.34L199.07 56.2V76.5L207.6 84.53H273.87" stroke="#112849" stroke-width="0.65" stroke-miterlimit="10"/>
<path d="M273.8 86C274.61 86 275.26 85.34 275.26 84.53C275.26 83.72 274.6 83.07 273.8 83.07C273 83.07 272.33 83.73 272.33 84.53C272.33 85.33 272.99 86 273.8 86Z" fill="#112849"/>
<path d="M155.45 0L167.51 12.06V20.04L201.37 53.9V74.21L207.34 80.18H237.83L248.97 69.04H290.29L295.52 74.27" stroke="#112849" stroke-width="0.65" stroke-miterlimit="10"/>
<path d="M294.43 75.26C295 75.83 295.93 75.83 296.5 75.26C297.07 74.69 297.07 73.76 296.5 73.19C295.93 72.62 295 72.62 294.43 73.19C293.86 73.76 293.86 74.69 294.43 75.26Z" fill="#112849"/>
<path d="M160.04 0L169.81 9.76V17.75L203.66 51.61H240.46L247.64 44.43H263.02" stroke="#112849" stroke-width="0.65" stroke-miterlimit="10"/>
<path d="M262.95 45.89C263.76 45.89 264.42 45.23 264.42 44.42C264.42 43.61 263.76 42.96 262.95 42.96C262.14 42.96 261.49 43.62 261.49 44.42C261.49 45.22 262.15 45.89 262.95 45.89Z" fill="#112849"/>
<path d="M164.64 0L172.1 7.47V15.45L205.96 49.31H238L245.84 41.47H263.02" stroke="#112849" stroke-width="0.65" stroke-miterlimit="10"/>
<path d="M262.95 42.94C263.76 42.94 264.42 42.28 264.42 41.47C264.42 40.66 263.76 40.01 262.95 40.01C262.14 40.01 261.49 40.67 261.49 41.47C261.49 42.27 262.15 42.94 262.95 42.94Z" fill="#112849"/>
<path d="M169.22 0L174.4 5.17V13.16L208.26 47.01H236.12L244.44 38.7H263.02" stroke="#112849" stroke-width="0.65" stroke-miterlimit="10"/>
<path d="M262.95 40.16C263.76 40.16 264.42 39.5 264.42 38.7C264.42 37.9 263.76 37.24 262.95 37.24C262.14 37.24 261.49 37.9 261.49 38.7C261.49 39.5 262.15 40.16 262.95 40.16Z" fill="#112849"/>
<path d="M173.89 0.0799866L176.69 2.87999V10.86L210.55 44.72H225.98L237.26 33.43H271.82L304.67 66.29" stroke="#112849" stroke-width="0.65" stroke-miterlimit="10"/>
<path d="M303.58 67.27C304.15 67.84 305.08 67.84 305.65 67.27C306.22 66.7 306.22 65.77 305.65 65.2C305.08 64.63 304.15 64.63 303.58 65.2C303.01 65.77 303.01 66.7 303.58 67.27Z" fill="#112849"/>
<path d="M292.25 156.86V163.08L285.32 170.01V175.33L272.57 188.08" stroke="#112849" stroke-width="0.65" stroke-miterlimit="10"/>
<path d="M290.79 156.94C290.79 156.13 291.45 155.48 292.26 155.48C293.07 155.48 293.72 156.14 293.72 156.94C293.72 157.74 293.06 158.4 292.26 158.4C291.46 158.4 290.79 157.74 290.79 156.94Z" fill="#112849"/>
<path d="M271.59 186.99C271.02 187.56 271.02 188.49 271.59 189.06C272.16 189.63 273.09 189.63 273.66 189.06C274.23 188.49 274.23 187.56 273.66 186.99C273.09 186.42 272.16 186.42 271.59 186.99Z" fill="#112849"/>
<path d="M286.89 156.86V159.63L280.47 166.05V170.36L273.13 177.71" stroke="#112849" stroke-width="0.65" stroke-miterlimit="10"/>
<path d="M286.89 158.4C287.696 158.4 288.35 157.746 288.35 156.94C288.35 156.134 287.696 155.48 286.89 155.48C286.084 155.48 285.43 156.134 285.43 156.94C285.43 157.746 286.084 158.4 286.89 158.4Z" fill="#112849"/>
<path d="M272.15 176.62C271.58 177.19 271.58 178.12 272.15 178.69C272.72 179.26 273.65 179.26 274.22 178.69C274.79 178.12 274.79 177.19 274.22 176.62C273.65 176.05 272.72 176.05 272.15 176.62Z" fill="#112849"/>
<path d="M316.66 0.0799866V14.24L309.25 21.65V37.84L316.06 44.64" stroke="#112849" stroke-width="0.65" stroke-miterlimit="10"/>
<path d="M314.97 45.63C315.54 46.2 316.47 46.2 317.04 45.63C317.61 45.06 317.61 44.13 317.04 43.56C316.47 42.99 315.54 42.99 314.97 43.56C314.4 44.13 314.4 45.06 314.97 45.63Z" fill="#112849"/>
<path d="M320.76 0.0799866V15.49L312.95 23.31V35.95L322.17 45.17" stroke="#112849" stroke-width="0.65" stroke-miterlimit="10"/>
<path d="M321.08 46.16C321.65 46.73 322.58 46.73 323.15 46.16C323.72 45.59 323.72 44.66 323.15 44.09C322.58 43.52 321.65 43.52 321.08 44.09C320.51 44.66 320.51 45.59 321.08 46.16Z" fill="#112849"/>
<path d="M136.51 112.17L134.36 114.31V118.7L124.93 128.12H95.47L92.88 130.72H75.85L71.35 135.21V135.53" stroke="#112849" stroke-width="0.65" stroke-miterlimit="10"/>
<path d="M135.42 111.18C135.99 110.61 136.92 110.61 137.49 111.18C138.06 111.75 138.06 112.68 137.49 113.25C136.92 113.82 135.99 113.82 135.42 113.25C134.85 112.68 134.85 111.75 135.42 111.18Z" fill="#112849"/>
<path d="M69.89 135.46C69.89 136.27 70.55 136.93 71.35 136.93C72.15 136.93 72.82 136.27 72.82 135.46C72.82 134.65 72.16 134 71.35 134C70.54 134 69.89 134.66 69.89 135.46Z" fill="#112849"/>
<path d="M142.63 112.17L141.04 113.76V119.39L138.64 121.79H136.8L127.14 131.45H97.7L95.23 133.91H79.75L79.01 134.64" stroke="#112849" stroke-width="0.65" stroke-miterlimit="10"/>
<path d="M141.54 111.18C142.11 110.61 143.04 110.61 143.61 111.18C144.18 111.75 144.18 112.68 143.61 113.25C143.04 113.82 142.11 113.82 141.54 113.25C140.97 112.68 140.97 111.75 141.54 111.18Z" fill="#112849"/>
<path d="M78.03 133.55C77.46 134.12 77.46 135.05 78.03 135.62C78.6 136.19 79.53 136.19 80.1 135.62C80.67 135.05 80.67 134.12 80.1 133.55C79.53 132.98 78.6 132.98 78.03 133.55Z" fill="#112849"/>
<path d="M137.67 118.1L126.15 129.62H97L94.32 132.3H78.03L74.65 135.68V139.01" stroke="#112849" stroke-width="0.65" stroke-miterlimit="10"/>
<path d="M136.59 117.11C137.16 116.54 138.09 116.54 138.66 117.11C139.23 117.68 139.23 118.61 138.66 119.18C138.09 119.75 137.16 119.75 136.59 119.18C136.02 118.61 136.02 117.68 136.59 117.11Z" fill="#112849"/>
<path d="M73.18 138.94C73.18 139.75 73.84 140.41 74.64 140.41C75.44 140.41 76.11 139.75 76.11 138.94C76.11 138.13 75.45 137.48 74.64 137.48C73.83 137.48 73.18 138.14 73.18 138.94Z" fill="#112849"/>
<path d="M129.97 119.26L124.59 124.65H96.58L92.32 128.91H74.65L67.92 135.63V141.38" stroke="#112849" stroke-width="0.65" stroke-miterlimit="10"/>
<path d="M128.88 118.28C129.45 117.71 130.38 117.71 130.95 118.28C131.52 118.85 131.52 119.78 130.95 120.35C130.38 120.92 129.45 120.92 128.88 120.35C128.31 119.78 128.31 118.85 128.88 118.28Z" fill="#112849"/>
<path d="M66.46 141.31C66.46 142.12 67.12 142.77 67.93 142.77C68.74 142.77 69.39 142.11 69.39 141.31C69.39 140.51 68.73 139.84 67.93 139.84C67.13 139.84 66.46 140.5 66.46 141.31Z" fill="#112849"/>
<path d="M123.71 118.43L119.61 122.52H96.03L91.47 127.08H72.65L64.34 135.39V144.86L66.62 147.13H68.34" stroke="#112849" stroke-width="0.65" stroke-miterlimit="10"/>
<path d="M122.62 117.44C123.19 116.87 124.12 116.87 124.69 117.44C125.26 118.01 125.26 118.94 124.69 119.51C124.12 120.08 123.19 120.08 122.62 119.51C122.05 118.94 122.05 118.01 122.62 117.44Z" fill="#112849"/>
<path d="M68.26 148.59C69.0663 148.59 69.72 147.936 69.72 147.13C69.72 146.324 69.0663 145.67 68.26 145.67C67.4537 145.67 66.8 146.324 66.8 147.13C66.8 147.936 67.4537 148.59 68.26 148.59Z" fill="#112849"/>
<path d="M129.56 111.18H124.69L117.66 118.21H95.75L93.49 120.47H69.73L66.69 123.51" stroke="#112849" stroke-width="0.65" stroke-miterlimit="10"/>
<path d="M129.49 109.72C130.3 109.72 130.95 110.38 130.95 111.19C130.95 112 130.29 112.66 129.49 112.66C128.69 112.66 128.02 112 128.02 111.19C128.02 110.38 128.68 109.72 129.49 109.72Z" fill="#112849"/>
<path d="M65.71 122.42C65.14 122.99 65.14 123.92 65.71 124.49C66.28 125.06 67.21 125.06 67.78 124.49C68.35 123.92 68.35 122.99 67.78 122.42C67.21 121.85 66.28 121.85 65.71 122.42Z" fill="#112849"/>
<path d="M95.6 114.67L92.42 117.85H67.36L60.26 124.95V130.53L57.06 133.72H49.68" stroke="#112849" stroke-width="0.65" stroke-miterlimit="10"/>
<path d="M94.51 113.69C95.08 113.12 96.01 113.12 96.58 113.69C97.15 114.26 97.15 115.19 96.58 115.76C96.01 116.33 95.08 116.33 94.51 115.76C93.94 115.19 93.94 114.26 94.51 113.69Z" fill="#112849"/>
<path d="M49.75 132.26C48.94 132.26 48.29 132.92 48.29 133.72C48.29 134.52 48.95 135.19 49.75 135.19C50.55 135.19 51.22 134.53 51.22 133.72C51.22 132.91 50.56 132.26 49.75 132.26Z" fill="#112849"/>
<path d="M0.889999 152.57H71.83L74.81 149.59V144.88L83.92 135.77H95.61L98.33 133.05H127.96L136.52 124.49H139.66" stroke="#112849" stroke-width="0.65" stroke-miterlimit="10"/>
<path d="M139.59 125.95C140.4 125.95 141.05 125.29 141.05 124.49C141.05 123.69 140.39 123.03 139.59 123.03C138.79 123.03 138.12 123.69 138.12 124.49C138.12 125.29 138.78 125.95 139.59 125.95Z" fill="#112849"/>
<path d="M0.889999 154.69H72.74L76.31 151.12V146.9L85.17 138.04H96.65L99.44 135.24H128.3L135.4 128.13H140.94L143.6 125.47" stroke="#112849" stroke-width="0.65" stroke-miterlimit="10"/>
<path d="M144.59 126.56C145.16 125.99 145.16 125.06 144.59 124.49C144.02 123.92 143.09 123.92 142.52 124.49C141.95 125.06 141.95 125.99 142.52 126.56C143.09 127.13 144.02 127.13 144.59 126.56Z" fill="#112849"/>
<path d="M0.889999 156.93H73.59L78.68 151.82V147.99L83.39 143.28H85.14" stroke="#112849" stroke-width="0.65" stroke-miterlimit="10"/>
<path d="M85.06 144.74C85.87 144.74 86.53 144.08 86.53 143.28C86.53 142.48 85.87 141.81 85.06 141.81C84.25 141.81 83.6 142.47 83.6 143.28C83.6 144.09 84.26 144.74 85.06 144.74Z" fill="#112849"/>
<path d="M0.889999 159.17H74.65L81.18 152.64V148.72L82.72 147.18H92.37L95.44 144.11" stroke="#112849" stroke-width="0.65" stroke-miterlimit="10"/>
<path d="M96.43 145.2C97 144.63 97 143.7 96.43 143.13C95.86 142.56 94.93 142.56 94.36 143.13C93.79 143.7 93.79 144.63 94.36 145.2C94.93 145.77 95.86 145.77 96.43 145.2Z" fill="#112849"/>
<path d="M0.889999 168.13H78.91L83.03 164.01H91.43L94.82 160.62" stroke="#112849" stroke-width="0.65" stroke-miterlimit="10"/>
<path d="M95.81 161.7C96.38 161.13 96.38 160.2 95.81 159.63C95.24 159.06 94.31 159.06 93.74 159.63C93.17 160.2 93.17 161.13 93.74 161.7C94.31 162.27 95.24 162.27 95.81 161.7Z" fill="#112849"/>
<path d="M0.889999 170.36H80.58L84.7 166.25H94.52L117.71 143.05H127.33L135.65 134.73H140.69L143.38 132.05" stroke="#112849" stroke-width="0.65" stroke-miterlimit="10"/>
<path d="M144.36 133.14C144.93 132.57 144.93 131.64 144.36 131.07C143.79 130.5 142.86 130.5 142.29 131.07C141.72 131.64 141.72 132.57 142.29 133.14C142.86 133.71 143.79 133.71 144.36 133.14Z" fill="#112849"/>
<path d="M0.889999 172.6H81.83L85.85 168.59H95.81L118.95 145.45H129.56" stroke="#112849" stroke-width="0.65" stroke-miterlimit="10"/>
<path d="M129.49 146.91C130.3 146.91 130.95 146.25 130.95 145.44C130.95 144.63 130.29 143.97 129.49 143.97C128.69 143.97 128.02 144.63 128.02 145.44C128.02 146.25 128.68 146.91 129.49 146.91Z" fill="#112849"/>
<path d="M0.889999 174.84H82.37L86.69 170.52H96.58L118.84 148.26H131.93L134.59 145.6V141.52L138.33 137.77H142.97" stroke="#112849" stroke-width="0.65" stroke-miterlimit="10"/>
<path d="M142.9 139.23C143.71 139.23 144.36 138.57 144.36 137.76C144.36 136.95 143.7 136.3 142.9 136.3C142.1 136.3 141.43 136.96 141.43 137.76C141.43 138.56 142.09 139.23 142.9 139.23Z" fill="#112849"/>
<path d="M0.889999 177.08H83.5L87.83 172.76H98.33L114.15 156.93H124.69L130.38 151.24H142.22" stroke="#112849" stroke-width="0.65" stroke-miterlimit="10"/>
<path d="M142.15 152.71C142.96 152.71 143.61 152.05 143.61 151.24C143.61 150.43 142.95 149.78 142.15 149.78C141.35 149.78 140.69 150.44 140.69 151.24C140.69 152.04 141.35 152.71 142.15 152.71Z" fill="#112849"/>
<path d="M123.3 172.6H116.27L113.48 175.39V190.5L103.01 200.97H99.44L82.44 217.96H67.08L57.18 208.06H0.889999" stroke="#112849" stroke-width="0.65" stroke-miterlimit="10"/>
<path d="M123.23 174.06C124.036 174.06 124.69 173.406 124.69 172.6C124.69 171.794 124.036 171.14 123.23 171.14C122.424 171.14 121.77 171.794 121.77 172.6C121.77 173.406 122.424 174.06 123.23 174.06Z" fill="#112849"/>
<path d="M123.3 179.37H117.59L115.85 181.11V191.75L104.23 203.38H100.48L83.33 220.52H65.92L55.8 210.4H0.889999" stroke="#112849" stroke-width="0.65" stroke-miterlimit="10"/>
<path d="M123.23 177.9C124.04 177.9 124.69 178.56 124.69 179.37C124.69 180.18 124.03 180.83 123.23 180.83C122.43 180.83 121.77 180.17 121.77 179.37C121.77 178.57 122.43 177.9 123.23 177.9Z" fill="#112849"/>
<path d="M101.3 207.07L85.45 222.92H64.72L54.84 213.04H6.28L0.809999 218.5" stroke="#112849" stroke-width="0.65" stroke-miterlimit="10"/>
<path d="M100.22 206.08C100.79 205.51 101.72 205.51 102.29 206.08C102.86 206.65 102.86 207.58 102.29 208.15C101.72 208.72 100.79 208.72 100.22 208.15C99.65 207.58 99.65 206.65 100.22 206.08Z" fill="#112849"/>
<path d="M88.23 191.76L83.92 196.06H0.889999" stroke="#112849" stroke-width="0.65" stroke-miterlimit="10"/>
<path d="M87.14 190.78C87.71 190.21 88.64 190.21 89.21 190.78C89.78 191.35 89.78 192.28 89.21 192.85C88.64 193.42 87.71 193.42 87.14 192.85C86.57 192.28 86.57 191.35 87.14 190.78Z" fill="#112849"/>
<path d="M103.44 181.18L99.29 185.34H89.76L80.78 194.32H0.809999" stroke="#112849" stroke-width="0.65" stroke-miterlimit="10"/>
<path d="M102.35 180.2C102.92 179.63 103.85 179.63 104.42 180.2C104.99 180.77 104.99 181.7 104.42 182.27C103.85 182.84 102.92 182.84 102.35 182.27C101.78 181.7 101.78 180.77 102.35 180.2Z" fill="#112849"/>
<path d="M97.41 178.07L92.73 182.75H89.21L80.12 191.84H0.889999" stroke="#112849" stroke-width="0.65" stroke-miterlimit="10"/>
<path d="M96.32 177.08C96.89 176.51 97.82 176.51 98.39 177.08C98.96 177.65 98.96 178.58 98.39 179.15C97.82 179.72 96.89 179.72 96.32 179.15C95.75 178.58 95.75 177.65 96.32 177.08Z" fill="#112849"/>
<path d="M165.18 131.86L167.9 134.58V139.8L135.69 172V184.46L86.46 233.7H54.18L51.59 227.54" stroke="#112849" stroke-width="0.65" stroke-miterlimit="10"/>
<path d="M164.2 132.95C163.63 132.38 163.63 131.45 164.2 130.88C164.77 130.31 165.7 130.31 166.27 130.88C166.84 131.45 166.84 132.38 166.27 132.95C165.7 133.52 164.77 133.52 164.2 132.95Z" fill="#112849"/>
<path d="M52.97 227.04C52.66 226.29 51.8 225.94 51.05 226.26C50.3 226.57 49.95 227.43 50.27 228.18C50.58 228.93 51.44 229.28 52.19 228.96C52.94 228.65 53.29 227.79 52.97 227.04Z" fill="#112849"/>
<path d="M173.54 141.39L139.87 175.06V187.26L88.99 238.14H53.66L49.76 242.03H23.6L12.49 253.14V264.45L0.6 276.35" stroke="#112849" stroke-width="0.65" stroke-miterlimit="10"/>
<path d="M172.46 140.4C173.03 139.83 173.96 139.83 174.53 140.4C175.1 140.97 175.1 141.9 174.53 142.47C173.96 143.04 173.03 143.04 172.46 142.47C171.89 141.9 171.89 140.97 172.46 140.4Z" fill="#112849"/>
<path d="M175.62 144.06L142.41 177.27V188.55L90 240.96H54.98L51.27 244.67H25.06L15 254.74V266.61L1.09 280.52" stroke="#112849" stroke-width="0.65" stroke-miterlimit="10"/>
<path d="M174.54 143.08C175.11 142.51 176.04 142.51 176.61 143.08C177.18 143.65 177.18 144.58 176.61 145.15C176.04 145.72 175.11 145.72 174.54 145.15C173.97 144.58 173.97 143.65 174.54 143.08Z" fill="#112849"/>
<path d="M92.25 254.26V257.88L88.7 261.44H70.98L64.91 267.51V285.74L56.52 294.14H43.43L35.88 301.68V350.66" stroke="#112849" stroke-width="0.65" stroke-miterlimit="10"/>
<path d="M90.79 254.33C90.79 253.52 91.45 252.87 92.25 252.87C93.05 252.87 93.72 253.53 93.72 254.33C93.72 255.13 93.06 255.8 92.25 255.8C91.44 255.8 90.79 255.14 90.79 254.33Z" fill="#112849"/>
<path d="M86.26 253.85L83.64 256.47H68.71L47.52 277.65H42.18L38.29 281.54V289.19L30.21 297.26H23.08L18.97 301.36V321.75L25.77 328.55V350.66" stroke="#112849" stroke-width="0.65" stroke-miterlimit="10"/>
<path d="M85.17 252.87C85.74 252.3 86.67 252.3 87.24 252.87C87.81 253.44 87.81 254.37 87.24 254.94C86.67 255.51 85.74 255.51 85.17 254.94C84.6 254.37 84.6 253.44 85.17 252.87Z" fill="#112849"/>
<path d="M157.88 177.4L144.55 190.73V196.06L107.22 233.39V242.23L102.25 247.2H25.9L16.95 256.14V267.9L0 284.85" stroke="#112849" stroke-width="0.65" stroke-miterlimit="10"/>
<path d="M156.79 176.42C157.36 175.85 158.29 175.85 158.86 176.42C159.43 176.99 159.43 177.92 158.86 178.49C158.29 179.06 157.36 179.06 156.79 178.49C156.22 177.92 156.22 176.99 156.79 176.42Z" fill="#112849"/>
<path d="M140.57 89.38V84.95L132.84 77.22H78.67L74.57 81.33H55.53L35.43 101.43" stroke="#112849" stroke-width="0.65" stroke-miterlimit="10"/>
<path d="M142.04 89.31C142.04 90.12 141.38 90.77 140.57 90.77C139.76 90.77 139.11 90.11 139.11 89.31C139.11 88.51 139.77 87.84 140.57 87.84C141.37 87.84 142.04 88.5 142.04 89.31Z" fill="#112849"/>
<path d="M34.45 100.34C33.88 100.91 33.88 101.84 34.45 102.41C35.02 102.98 35.95 102.98 36.52 102.41C37.09 101.84 37.09 100.91 36.52 100.34C35.95 99.77 35.02 99.77 34.45 100.34Z" fill="#112849"/>
<path d="M144.73 66.52H137.49L108.81 37.84H92.25L77.97 52.12H64.34L43.73 72.73V83.14" stroke="#112849" stroke-width="0.65" stroke-miterlimit="10"/>
<path d="M144.65 65.05C145.46 65.05 146.12 65.71 146.12 66.51C146.12 67.31 145.46 67.98 144.65 67.98C143.84 67.98 143.19 67.32 143.19 66.51C143.19 65.7 143.85 65.05 144.65 65.05Z" fill="#112849"/>
<path d="M42.27 83.07C42.27 83.88 42.93 84.53 43.73 84.53C44.53 84.53 45.2 83.87 45.2 83.07C45.2 82.27 44.54 81.61 43.73 81.61C42.92 81.61 42.27 82.27 42.27 83.07Z" fill="#112849"/>
<path d="M138.43 57.86L113.77 33.21H96.78L78.03 14.46H26.99L19.01 6.48001H0.889999" stroke="#112849" stroke-width="0.65" stroke-miterlimit="10"/>
<path d="M139.41 56.78C139.98 57.35 139.98 58.28 139.41 58.85C138.84 59.42 137.91 59.42 137.34 58.85C136.77 58.28 136.77 57.35 137.34 56.78C137.91 56.21 138.84 56.21 139.41 56.78Z" fill="#112849"/>
<path d="M88.23 31.68L72.74 16.19H26.21L18.22 8.20001H0.889999" stroke="#112849" stroke-width="0.65" stroke-miterlimit="10"/>
<path d="M89.21 30.59C89.78 31.16 89.78 32.09 89.21 32.66C88.64 33.23 87.71 33.23 87.14 32.66C86.57 32.09 86.57 31.16 87.14 30.59C87.71 30.02 88.64 30.02 89.21 30.59Z" fill="#112849"/>
<path d="M77.04 28.03L66.81 17.8H25.27L17.57 10.1H0.889999" stroke="#112849" stroke-width="0.65" stroke-miterlimit="10"/>
<path d="M78.03 26.95C78.6 27.52 78.6 28.45 78.03 29.02C77.46 29.59 76.53 29.59 75.96 29.02C75.39 28.45 75.39 27.52 75.96 26.95C76.53 26.38 77.46 26.38 78.03 26.95Z" fill="#112849"/>
<path d="M81.07 37.84H78.03L59.57 19.38H23.7L16.31 11.99H0.889999" stroke="#112849" stroke-width="0.65" stroke-miterlimit="10"/>
<path d="M80.99 36.37C81.8 36.37 82.46 37.03 82.46 37.83C82.46 38.63 81.8 39.29 80.99 39.29C80.18 39.29 79.53 38.63 79.53 37.83C79.53 37.03 80.19 36.37 80.99 36.37Z" fill="#112849"/>
<path d="M65.41 31.52H51.57L41.15 21.1H22.56L15.24 13.79H0.889999" stroke="#112849" stroke-width="0.65" stroke-miterlimit="10"/>
<path d="M65.34 30.06C66.15 30.06 66.81 30.72 66.81 31.53C66.81 32.34 66.15 32.99 65.34 32.99C64.53 32.99 63.88 32.33 63.88 31.53C63.88 30.73 64.54 30.06 65.34 30.06Z" fill="#112849"/>
<path d="M1.18 22.66H40.72L51.51 33.45H67.92L77.08 42.61" stroke="#112849" stroke-width="0.65" stroke-miterlimit="10"/>
<path d="M75.99 43.59C76.56 44.16 77.49 44.16 78.06 43.59C78.63 43.02 78.63 42.09 78.06 41.52C77.49 40.95 76.56 40.95 75.99 41.52C75.42 42.09 75.42 43.02 75.99 43.59Z" fill="#112849"/>
<path d="M129.97 90.33L123.35 83.72H82.46L78.67 87.51H57.52L43.16 101.86V117.44L39.47 121.14H27.46L0.809999 94.49" stroke="#112849" stroke-width="0.65" stroke-miterlimit="10"/>
<path d="M130.95 89.25C131.52 89.82 131.52 90.75 130.95 91.32C130.38 91.89 129.45 91.89 128.88 91.32C128.31 90.75 128.31 89.82 128.88 89.25C129.45 88.68 130.38 88.68 130.95 89.25Z" fill="#112849"/>
<path d="M129.97 83.55L127.06 80.64H81.62L77.88 84.39H57L39.39 101.99V113.69L37.56 115.51H30.28L0.809999 86.05" stroke="#112849" stroke-width="0.65" stroke-miterlimit="10"/>
<path d="M130.95 82.47C131.52 83.04 131.52 83.97 130.95 84.54C130.38 85.11 129.45 85.11 128.88 84.54C128.31 83.97 128.31 83.04 128.88 82.47C129.45 81.9 130.38 81.9 130.95 82.47Z" fill="#112849"/>
<path d="M27.82 40.96L35.18 48.32H56.44" stroke="#112849" stroke-width="0.65" stroke-miterlimit="10"/>
<path d="M26.83 42.05C26.26 41.48 26.26 40.55 26.83 39.98C27.4 39.41 28.33 39.41 28.9 39.98C29.47 40.55 29.47 41.48 28.9 42.05C28.33 42.62 27.4 42.62 26.83 42.05Z" fill="#112849"/>
<path d="M56.37 49.79C57.18 49.79 57.83 49.13 57.83 48.33C57.83 47.53 57.17 46.87 56.37 46.87C55.57 46.87 54.9 47.53 54.9 48.33C54.9 49.13 55.56 49.79 56.37 49.79Z" fill="#112849"/>
<path d="M52.47 53.44H28.23" stroke="#112849" stroke-width="0.65" stroke-miterlimit="10"/>
<path d="M52.4 51.97C53.21 51.97 53.86 52.63 53.86 53.43C53.86 54.23 53.2 54.9 52.4 54.9C51.6 54.9 50.94 54.24 50.94 53.43C50.94 52.62 51.6 51.97 52.4 51.97Z" fill="#112849"/>
<path d="M28.3 51.97C27.49 51.97 26.84 52.63 26.84 53.43C26.84 54.23 27.5 54.9 28.3 54.9C29.1 54.9 29.77 54.24 29.77 53.43C29.77 52.62 29.11 51.97 28.3 51.97Z" fill="#112849"/>
<path d="M51.23 56.88H28.23" stroke="#112849" stroke-width="0.65" stroke-miterlimit="10"/>
<path d="M51.15 55.42C51.96 55.42 52.61 56.08 52.61 56.88C52.61 57.68 51.95 58.35 51.15 58.35C50.35 58.35 49.68 57.69 49.68 56.88C49.68 56.07 50.34 55.42 51.15 55.42Z" fill="#112849"/>
<path d="M28.3 55.42C27.49 55.42 26.84 56.08 26.84 56.88C26.84 57.68 27.5 58.35 28.3 58.35C29.1 58.35 29.77 57.69 29.77 56.88C29.77 56.07 29.11 55.42 28.3 55.42Z" fill="#112849"/>
<path d="M141.45 75.48L127.74 61.77H59.5L48.28 72.99V79.25" stroke="#112849" stroke-width="0.65" stroke-miterlimit="10"/>
<path d="M142.43 74.4C143 74.97 143 75.9 142.43 76.47C141.86 77.04 140.93 77.04 140.36 76.47C139.79 75.9 139.79 74.97 140.36 74.4C140.93 73.83 141.86 73.83 142.43 74.4Z" fill="#112849"/>
<path d="M46.82 79.18C46.82 79.99 47.48 80.65 48.28 80.65C49.08 80.65 49.74 79.99 49.74 79.18C49.74 78.37 49.08 77.72 48.28 77.72C47.48 77.72 46.82 78.38 46.82 79.18Z" fill="#112849"/>
<path d="M129.06 70.22L125.82 66.98H76.2L72.1 71.09H56.16L53.76 73.49" stroke="#112849" stroke-width="0.65" stroke-miterlimit="10"/>
<path d="M130.05 69.14C130.62 69.71 130.62 70.64 130.05 71.21C129.48 71.78 128.55 71.78 127.98 71.21C127.41 70.64 127.41 69.71 127.98 69.14C128.55 68.57 129.48 68.57 130.05 69.14Z" fill="#112849"/>
<path d="M52.78 72.4C52.21 72.97 52.21 73.9 52.78 74.47C53.35 75.04 54.28 75.04 54.85 74.47C55.42 73.9 55.42 72.97 54.85 72.4C54.28 71.83 53.35 71.83 52.78 72.4Z" fill="#112849"/>
<path d="M41.35 65.53L36.96 61.14H28.23" stroke="#112849" stroke-width="0.65" stroke-miterlimit="10"/>
<path d="M42.33 64.45C42.9 65.02 42.9 65.95 42.33 66.52C41.76 67.09 40.83 67.09 40.26 66.52C39.69 65.95 39.69 65.02 40.26 64.45C40.83 63.88 41.76 63.88 42.33 64.45Z" fill="#112849"/>
<path d="M28.3 59.68C27.49 59.68 26.84 60.34 26.84 61.14C26.84 61.94 27.5 62.61 28.3 62.61C29.1 62.61 29.77 61.95 29.77 61.14C29.77 60.33 29.11 59.68 28.3 59.68Z" fill="#112849"/>
<path d="M37.79 91.91V70.73L34.08 67.02H28.23" stroke="#112849" stroke-width="0.65" stroke-miterlimit="10"/>
<path d="M37.79 93.3C38.5963 93.3 39.25 92.6463 39.25 91.84C39.25 91.0337 38.5963 90.38 37.79 90.38C36.9837 90.38 36.33 91.0337 36.33 91.84C36.33 92.6463 36.9837 93.3 37.79 93.3Z" fill="#112849"/>
<path d="M28.3 65.55C27.49 65.55 26.84 66.21 26.84 67.02C26.84 67.83 27.5 68.48 28.3 68.48C29.1 68.48 29.77 67.82 29.77 67.02C29.77 66.22 29.11 65.55 28.3 65.55Z" fill="#112849"/>
<path d="M40.35 89.38V68.67L35.71 64.03H28.23" stroke="#112849" stroke-width="0.65" stroke-miterlimit="10"/>
<path d="M41.81 89.31C41.81 90.12 41.15 90.77 40.35 90.77C39.55 90.77 38.88 90.11 38.88 89.31C38.88 88.51 39.54 87.84 40.35 87.84C41.16 87.84 41.81 88.5 41.81 89.31Z" fill="#112849"/>
<path d="M28.3 62.57C27.49 62.57 26.84 63.23 26.84 64.03C26.84 64.83 27.5 65.5 28.3 65.5C29.1 65.5 29.77 64.84 29.77 64.03C29.77 63.22 29.11 62.57 28.3 62.57Z" fill="#112849"/>
<path d="M35.1 94.46V71.83L33.29 70.02H28.23" stroke="#112849" stroke-width="0.65" stroke-miterlimit="10"/>
<path d="M36.57 94.39C36.57 95.2 35.91 95.86 35.11 95.86C34.31 95.86 33.65 95.2 33.65 94.39C33.65 93.58 34.31 92.93 35.11 92.93C35.91 92.93 36.57 93.59 36.57 94.39Z" fill="#112849"/>
<path d="M28.3 68.55C27.49 68.55 26.84 69.21 26.84 70.02C26.84 70.83 27.5 71.48 28.3 71.48C29.1 71.48 29.77 70.82 29.77 70.02C29.77 69.22 29.11 68.55 28.3 68.55Z" fill="#112849"/>
<path d="M150.71 111.18H165.99L173.06 118.25H185.32" stroke="#112849" stroke-width="0.65" stroke-miterlimit="10"/>
<path d="M150.78 112.65C149.97 112.65 149.32 111.99 149.32 111.18C149.32 110.37 149.98 109.71 150.78 109.71C151.58 109.71 152.25 110.37 152.25 111.18C152.25 111.99 151.59 112.65 150.78 112.65Z" fill="#112849"/>
<path d="M185.25 119.71C186.06 119.71 186.72 119.05 186.72 118.25C186.72 117.45 186.06 116.78 185.25 116.78C184.44 116.78 183.79 117.44 183.79 118.25C183.79 119.06 184.45 119.71 185.25 119.71Z" fill="#112849"/>
<path d="M150.71 117.44H164.48L174 126.97H185.32" stroke="#112849" stroke-width="0.65" stroke-miterlimit="10"/>
<path d="M150.78 118.91C149.97 118.91 149.32 118.25 149.32 117.45C149.32 116.65 149.98 115.99 150.78 115.99C151.58 115.99 152.25 116.65 152.25 117.45C152.25 118.25 151.59 118.91 150.78 118.91Z" fill="#112849"/>
<path d="M185.25 128.43C186.06 128.43 186.72 127.77 186.72 126.97C186.72 126.17 186.06 125.51 185.25 125.51C184.44 125.51 183.79 126.17 183.79 126.97C183.79 127.77 184.45 128.43 185.25 128.43Z" fill="#112849"/>
<path d="M150.71 124H164.48L174 133.52H185.32" stroke="#112849" stroke-width="0.65" stroke-miterlimit="10"/>
<path d="M150.78 125.46C149.97 125.46 149.32 124.8 149.32 123.99C149.32 123.18 149.98 122.53 150.78 122.53C151.58 122.53 152.25 123.19 152.25 123.99C152.25 124.79 151.59 125.46 150.78 125.46Z" fill="#112849"/>
<path d="M185.25 134.99C186.06 134.99 186.72 134.33 186.72 133.52C186.72 132.71 186.06 132.06 185.25 132.06C184.44 132.06 183.79 132.72 183.79 133.52C183.79 134.32 184.45 134.99 185.25 134.99Z" fill="#112849"/>
<path d="M114.21 20.22L123.69 29.7H130.05L136.13 23.61H142.12L183.85 65.35V88.29L205.53 109.97" stroke="#112849" stroke-width="0.65" stroke-miterlimit="10"/>
<path d="M113.22 21.31C112.65 20.74 112.65 19.81 113.22 19.24C113.79 18.67 114.72 18.67 115.29 19.24C115.86 19.81 115.86 20.74 115.29 21.31C114.72 21.88 113.79 21.88 113.22 21.31Z" fill="#112849"/>
<path d="M204.44 110.95C205.01 111.52 205.94 111.52 206.51 110.95C207.08 110.38 207.08 109.45 206.51 108.88C205.94 108.31 205.01 108.31 204.44 108.88C203.87 109.45 203.87 110.38 204.44 110.95Z" fill="#112849"/>
<path d="M139.41 29.02L178.6 68.21V91.47L197.1 109.97" stroke="#112849" stroke-width="0.65" stroke-miterlimit="10"/>
<path d="M196.02 110.95C196.59 111.52 197.52 111.52 198.09 110.95C198.66 110.38 198.66 109.45 198.09 108.88C197.52 108.31 196.59 108.31 196.02 108.88C195.45 109.45 195.45 110.38 196.02 110.95Z" fill="#112849"/>
<path d="M135.85 33.12L172.47 69.74V90.08" stroke="#112849" stroke-width="0.65" stroke-miterlimit="10"/>
<path d="M171 90C171 90.81 171.66 91.46 172.47 91.46C173.28 91.46 173.93 90.8 173.93 90C173.93 89.2 173.27 88.53 172.47 88.53C171.67 88.53 171 89.19 171 90Z" fill="#112849"/>
<path d="M272.98 136.93H291.47L307.66 120.73" stroke="#112849" stroke-width="0.65" stroke-miterlimit="10"/>
<path d="M273.05 138.39C272.24 138.39 271.59 137.73 271.59 136.93C271.59 136.13 272.25 135.46 273.05 135.46C273.85 135.46 274.51 136.12 274.51 136.93C274.51 137.74 273.85 138.39 273.05 138.39Z" fill="#112849"/>
<path d="M308.65 121.82C309.22 121.25 309.22 120.32 308.65 119.75C308.08 119.18 307.15 119.18 306.58 119.75C306.01 120.32 306.01 121.25 306.58 121.82C307.15 122.39 308.08 122.39 308.65 121.82Z" fill="#112849"/>
<path d="M228 95.19L242.78 109.97" stroke="#112849" stroke-width="0.65" stroke-miterlimit="10"/>
<path d="M227.01 96.27C226.44 95.7 226.44 94.77 227.01 94.2C227.58 93.63 228.51 93.63 229.08 94.2C229.65 94.77 229.65 95.7 229.08 96.27C228.51 96.84 227.58 96.84 227.01 96.27Z" fill="#112849"/>
<path d="M241.69 110.95C242.26 111.52 243.19 111.52 243.76 110.95C244.33 110.38 244.33 109.45 243.76 108.88C243.19 108.31 242.26 108.31 241.69 108.88C241.12 109.45 241.12 110.38 241.69 110.95Z" fill="#112849"/>
<path d="M233.31 95.19L248.1 109.97" stroke="#112849" stroke-width="0.65" stroke-miterlimit="10"/>
<path d="M232.33 96.27C231.76 95.7 231.76 94.77 232.33 94.2C232.9 93.63 233.83 93.63 234.4 94.2C234.97 94.77 234.97 95.7 234.4 96.27C233.83 96.84 232.9 96.84 232.33 96.27Z" fill="#112849"/>
<path d="M247.01 110.95C247.58 111.52 248.51 111.52 249.08 110.95C249.65 110.38 249.65 109.45 249.08 108.88C248.51 108.31 247.58 108.31 247.01 108.88C246.44 109.45 246.44 110.38 247.01 110.95Z" fill="#112849"/>
<path d="M238.63 95.19L253.41 109.97" stroke="#112849" stroke-width="0.65" stroke-miterlimit="10"/>
<path d="M237.65 96.27C237.08 95.7 237.08 94.77 237.65 94.2C238.22 93.63 239.15 93.63 239.72 94.2C240.29 94.77 240.29 95.7 239.72 96.27C239.15 96.84 238.22 96.84 237.65 96.27Z" fill="#112849"/>
<path d="M252.32 110.95C252.89 111.52 253.82 111.52 254.39 110.95C254.96 110.38 254.96 109.45 254.39 108.88C253.82 108.31 252.89 108.31 252.32 108.88C251.75 109.45 251.75 110.38 252.32 110.95Z" fill="#112849"/>
<path d="M243.95 95.19L258.73 109.97" stroke="#112849" stroke-width="0.65" stroke-miterlimit="10"/>
<path d="M242.96 96.27C242.39 95.7 242.39 94.77 242.96 94.2C243.53 93.63 244.46 93.63 245.03 94.2C245.6 94.77 245.6 95.7 245.03 96.27C244.46 96.84 243.53 96.84 242.96 96.27Z" fill="#112849"/>
<path d="M257.64 110.95C258.21 111.52 259.14 111.52 259.71 110.95C260.28 110.38 260.28 109.45 259.71 108.88C259.14 108.31 258.21 108.31 257.64 108.88C257.07 109.45 257.07 110.38 257.64 110.95Z" fill="#112849"/>
<path d="M249.27 95.19L264.05 109.97" stroke="#112849" stroke-width="0.65" stroke-miterlimit="10"/>
<path d="M248.28 96.27C247.71 95.7 247.71 94.77 248.28 94.2C248.85 93.63 249.78 93.63 250.35 94.2C250.92 94.77 250.92 95.7 250.35 96.27C249.78 96.84 248.85 96.84 248.28 96.27Z" fill="#112849"/>
<path d="M262.96 110.95C263.53 111.52 264.46 111.52 265.03 110.95C265.6 110.38 265.6 109.45 265.03 108.88C264.46 108.31 263.53 108.31 262.96 108.88C262.39 109.45 262.39 110.38 262.96 110.95Z" fill="#112849"/>
<path d="M254.58 95.19L269.37 109.97" stroke="#112849" stroke-width="0.65" stroke-miterlimit="10"/>
<path d="M253.6 96.27C253.03 95.7 253.03 94.77 253.6 94.2C254.17 93.63 255.1 93.63 255.67 94.2C256.24 94.77 256.24 95.7 255.67 96.27C255.1 96.84 254.17 96.84 253.6 96.27Z" fill="#112849"/>
<path d="M268.28 110.95C268.85 111.52 269.78 111.52 270.35 110.95C270.92 110.38 270.92 109.45 270.35 108.88C269.78 108.31 268.85 108.31 268.28 108.88C267.71 109.45 267.71 110.38 268.28 110.95Z" fill="#112849"/>
<path d="M450.06 199.16H441.87L433.37 207.66V231.31L473.29 271.23H519.49" stroke="#112849" stroke-width="1.95" stroke-miterlimit="10"/>
<path d="M475.63 0.0799866L481.2 5.64999V201.58L470.8 211.99H459.86L457.53 214.32V220.6L453.62 224.5H450.06L446.15 220.59V215.47" stroke="#112849" stroke-width="0.65" stroke-miterlimit="10"/>
<path d="M446.15 217.04C446.973 217.04 447.64 216.373 447.64 215.55C447.64 214.727 446.973 214.06 446.15 214.06C445.327 214.06 444.66 214.727 444.66 215.55C444.66 216.373 445.327 217.04 446.15 217.04Z" fill="#112849"/>
<path d="M477.75 0L483.2 5.45V202.61L472.08 213.7H461.62L459.53 215.79V225.01" stroke="#112849" stroke-width="0.65" stroke-miterlimit="10"/>
<path d="M458.04 224.94C458.04 225.76 458.71 226.43 459.53 226.43C460.35 226.43 461.02 225.76 461.02 224.94C461.02 224.12 460.35 223.45 459.53 223.45C458.71 223.45 458.04 224.12 458.04 224.94Z" fill="#112849"/>
<path d="M480.02 0L485.47 5.45V202.92L473.36 215.03H463.9L461.8 217.12V229.13" stroke="#112849" stroke-width="0.65" stroke-miterlimit="10"/>
<path d="M460.32 229.06C460.32 229.88 460.99 230.55 461.81 230.55C462.63 230.55 463.3 229.88 463.3 229.06C463.3 228.24 462.63 227.57 461.81 227.57C460.99 227.57 460.32 228.24 460.32 229.06Z" fill="#112849"/>
<path d="M519.49 240.44H509.45L497.46 228.45V185.34L505.13 177.67V11.08L516.12 0.0799866" stroke="#112849" stroke-width="0.65" stroke-miterlimit="10"/>
<path d="M278.05 194.47L272.15 200.37H244.93L241.16 196.6H232.99L227.8 201.8V250.51L222.93 255.38V278.92L250.43 306.42H260.37L265.5 311.55V322.83L237.06 351.28" stroke="#112849" stroke-width="1.95" stroke-miterlimit="10"/>
<path d="M242.7 205.43L239.95 202.68H236.12L232.89 205.92V250.83L236.5 254.43V285.63L253.36 302.49H263.57L271.59 310.5V350.66" stroke="#112849" stroke-width="1.95" stroke-miterlimit="10"/>
<path d="M348.25 224.84H358.12L385.57 252.29H401.95L426.95 277.28V288.76L443.33 305.14H519.49" stroke="#112849" stroke-width="1.95" stroke-miterlimit="10"/>
<path d="M348.25 216.7H369.46L390.54 237.78" stroke="#112849" stroke-width="1.95" stroke-miterlimit="10"/>
<path d="M157.12 350.74V325.03L168.5 313.65V284.74" stroke="#112849" stroke-width="1.95" stroke-miterlimit="10"/>
<path d="M94.61 350.37L131.88 313.11V266.38L149.51 248.74V240.73L169.85 220.38V214.06L177.25 206.66H181.34L192.27 195.73" stroke="#112849" stroke-width="1.95" stroke-miterlimit="10"/>
<path d="M317.42 157.01L342.17 132.25H373.49L391.73 114.01H413.37L432.9 94.48V73.7" stroke="#112849" stroke-width="1.95" stroke-miterlimit="10"/>
<path d="M419.25 0V52.07L406.78 64.54H361.51L335.26 90.79V118.99L303.99 150.26H271.59" stroke="#112849" stroke-width="1.95" stroke-miterlimit="10"/>
<path d="M348.51 117.35V95.9L369.4 75.01H411.94L427.89 59.06V0" stroke="#112849" stroke-width="1.95" stroke-miterlimit="10"/>
<path d="M343.13 0V52.14L320.53 74.75H306.01L278.8 101.95" stroke="#112849" stroke-width="1.95" stroke-miterlimit="10"/>
<path d="M1.18 129.34H42.58L50.95 120.98V111.18L60.32 101.81H173.86" stroke="#112849" stroke-width="1.95" stroke-miterlimit="10"/>
<path d="M186.71 142.83L164.21 165.33V189.2L145.48 207.93V218.56L110.82 253.22V283.62L93.88 300.56V315.84L83.39 326.33H59.23L46.62 338.95V351.54" stroke="#112849" stroke-width="1.95" stroke-miterlimit="10"/>
<path d="M1.18 142.77H59.55" stroke="#112849" stroke-width="1.95" stroke-miterlimit="10"/>
<path d="M183.06 0.0799866V8.19999L210.38 35.52H224.72L235.05 25.19H280.52L316.66 61.33" stroke="#112849" stroke-width="1.95" stroke-miterlimit="10"/>
<path d="M519.49 9.84L517.12 12.21V183.16L507.88 192.4V223.51L514.92 230.55H519.49" stroke="#112849" stroke-width="1.95" stroke-miterlimit="10"/>
<path d="M468.54 0.0799866V109.08L462.27 115.35V124.65L468.99 131.38V201.58L463.78 206.79H443.67L440.22 210.24V222.54L449.58 231.91H457.26L468.88 243.52V255.12L475.45 261.69H519.49" stroke="#112849" stroke-width="1.95" stroke-miterlimit="10"/>
<path d="M91.75 92.49C91.75 93.44 90.98 94.2 90.04 94.2C89.1 94.2 88.33 93.43 88.33 92.49C88.33 91.55 89.1 90.78 90.04 90.78C90.98 90.78 91.75 91.55 91.75 92.49Z" fill="#112849"/>
<path d="M104.4 92.49C104.4 93.44 103.63 94.2 102.69 94.2C101.75 94.2 100.98 93.43 100.98 92.49C100.98 91.55 101.75 90.78 102.69 90.78C103.63 90.78 104.4 91.55 104.4 92.49Z" fill="#112849"/>
<path d="M117.05 92.49C117.05 93.44 116.28 94.2 115.34 94.2C114.4 94.2 113.63 93.43 113.63 92.49C113.63 91.55 114.4 90.78 115.34 90.78C116.28 90.78 117.05 91.55 117.05 92.49Z" fill="#112849"/>
<path d="M212.46 56.82C212.46 57.43 211.96 57.93 211.35 57.93C210.74 57.93 210.24 57.43 210.24 56.82C210.24 56.21 210.74 55.71 211.35 55.71C211.96 55.71 212.46 56.21 212.46 56.82Z" fill="#112849"/>
<path d="M218.24 56.82C218.24 57.43 217.74 57.93 217.13 57.93C216.52 57.93 216.02 57.43 216.02 56.82C216.02 56.21 216.52 55.71 217.13 55.71C217.74 55.71 218.24 56.21 218.24 56.82Z" fill="#112849"/>
<path d="M224.01 56.82C224.01 57.43 223.51 57.93 222.9 57.93C222.29 57.93 221.79 57.43 221.79 56.82C221.79 56.21 222.29 55.71 222.9 55.71C223.51 55.71 224.01 56.21 224.01 56.82Z" fill="#112849"/>
<path d="M229.79 56.82C229.79 57.43 229.29 57.93 228.68 57.93C228.07 57.93 227.57 57.43 227.57 56.82C227.57 56.21 228.07 55.71 228.68 55.71C229.29 55.71 229.79 56.21 229.79 56.82Z" fill="#112849"/>
<path d="M235.57 56.82C235.57 57.43 235.07 57.93 234.46 57.93C233.85 57.93 233.35 57.43 233.35 56.82C233.35 56.21 233.85 55.71 234.46 55.71C235.07 55.71 235.57 56.21 235.57 56.82Z" fill="#112849"/>
<path d="M212.46 61.33C212.46 61.94 211.96 62.44 211.35 62.44C210.74 62.44 210.24 61.94 210.24 61.33C210.24 60.72 210.74 60.22 211.35 60.22C211.96 60.22 212.46 60.72 212.46 61.33Z" fill="#112849"/>
<path d="M218.24 61.33C218.24 61.94 217.74 62.44 217.13 62.44C216.52 62.44 216.02 61.94 216.02 61.33C216.02 60.72 216.52 60.22 217.13 60.22C217.74 60.22 218.24 60.72 218.24 61.33Z" fill="#112849"/>
<path d="M224.01 61.33C224.01 61.94 223.51 62.44 222.9 62.44C222.29 62.44 221.79 61.94 221.79 61.33C221.79 60.72 222.29 60.22 222.9 60.22C223.51 60.22 224.01 60.72 224.01 61.33Z" fill="#112849"/>
<path d="M229.79 61.33C229.79 61.94 229.29 62.44 228.68 62.44C228.07 62.44 227.57 61.94 227.57 61.33C227.57 60.72 228.07 60.22 228.68 60.22C229.29 60.22 229.79 60.72 229.79 61.33Z" fill="#112849"/>
<path d="M235.57 61.33C235.57 61.94 235.07 62.44 234.46 62.44C233.85 62.44 233.35 61.94 233.35 61.33C233.35 60.72 233.85 60.22 234.46 60.22C235.07 60.22 235.57 60.72 235.57 61.33Z" fill="#112849"/>
<path d="M212.46 65.85C212.46 66.46 211.96 66.96 211.35 66.96C210.74 66.96 210.24 66.46 210.24 65.85C210.24 65.24 210.74 64.74 211.35 64.74C211.96 64.74 212.46 65.24 212.46 65.85Z" fill="#112849"/>
<path d="M218.24 65.85C218.24 66.46 217.74 66.96 217.13 66.96C216.52 66.96 216.02 66.46 216.02 65.85C216.02 65.24 216.52 64.74 217.13 64.74C217.74 64.74 218.24 65.24 218.24 65.85Z" fill="#112849"/>
<path d="M222.9 66.96C223.513 66.96 224.01 66.4631 224.01 65.85C224.01 65.237 223.513 64.74 222.9 64.74C222.287 64.74 221.79 65.237 221.79 65.85C221.79 66.4631 222.287 66.96 222.9 66.96Z" fill="#112849"/>
<path d="M229.79 65.85C229.79 66.46 229.29 66.96 228.68 66.96C228.07 66.96 227.57 66.46 227.57 65.85C227.57 65.24 228.07 64.74 228.68 64.74C229.29 64.74 229.79 65.24 229.79 65.85Z" fill="#112849"/>
<path d="M235.57 65.85C235.57 66.46 235.07 66.96 234.46 66.96C233.85 66.96 233.35 66.46 233.35 65.85C233.35 65.24 233.85 64.74 234.46 64.74C235.07 64.74 235.57 65.24 235.57 65.85Z" fill="#112849"/>
<path d="M212.46 70.36C212.46 70.97 211.96 71.47 211.35 71.47C210.74 71.47 210.24 70.97 210.24 70.36C210.24 69.75 210.74 69.25 211.35 69.25C211.96 69.25 212.46 69.75 212.46 70.36Z" fill="#112849"/>
<path d="M218.24 70.36C218.24 70.97 217.74 71.47 217.13 71.47C216.52 71.47 216.02 70.97 216.02 70.36C216.02 69.75 216.52 69.25 217.13 69.25C217.74 69.25 218.24 69.75 218.24 70.36Z" fill="#112849"/>
<path d="M224.01 70.36C224.01 70.97 223.51 71.47 222.9 71.47C222.29 71.47 221.79 70.97 221.79 70.36C221.79 69.75 222.29 69.25 222.9 69.25C223.51 69.25 224.01 69.75 224.01 70.36Z" fill="#112849"/>
<path d="M229.79 70.36C229.79 70.97 229.29 71.47 228.68 71.47C228.07 71.47 227.57 70.97 227.57 70.36C227.57 69.75 228.07 69.25 228.68 69.25C229.29 69.25 229.79 69.75 229.79 70.36Z" fill="#112849"/>
<path d="M235.57 70.36C235.57 70.97 235.07 71.47 234.46 71.47C233.85 71.47 233.35 70.97 233.35 70.36C233.35 69.75 233.85 69.25 234.46 69.25C235.07 69.25 235.57 69.75 235.57 70.36Z" fill="#112849"/>
<path d="M212.46 74.87C212.46 75.48 211.96 75.98 211.35 75.98C210.74 75.98 210.24 75.48 210.24 74.87C210.24 74.26 210.74 73.76 211.35 73.76C211.96 73.76 212.46 74.26 212.46 74.87Z" fill="#112849"/>
<path d="M218.24 74.87C218.24 75.48 217.74 75.98 217.13 75.98C216.52 75.98 216.02 75.48 216.02 74.87C216.02 74.26 216.52 73.76 217.13 73.76C217.74 73.76 218.24 74.26 218.24 74.87Z" fill="#112849"/>
<path d="M224.01 74.87C224.01 75.48 223.51 75.98 222.9 75.98C222.29 75.98 221.79 75.48 221.79 74.87C221.79 74.26 222.29 73.76 222.9 73.76C223.51 73.76 224.01 74.26 224.01 74.87Z" fill="#112849"/>
<path d="M229.79 74.87C229.79 75.48 229.29 75.98 228.68 75.98C228.07 75.98 227.57 75.48 227.57 74.87C227.57 74.26 228.07 73.76 228.68 73.76C229.29 73.76 229.79 74.26 229.79 74.87Z" fill="#112849"/>
<path d="M235.57 74.87C235.57 75.48 235.07 75.98 234.46 75.98C233.85 75.98 233.35 75.48 233.35 74.87C233.35 74.26 233.85 73.76 234.46 73.76C235.07 73.76 235.57 74.26 235.57 74.87Z" fill="#112849"/>
<path d="M17.96 35.82C17.96 39.11 15.29 41.78 12 41.78C8.71 41.78 6.04 39.11 6.04 35.82C6.04 32.53 8.71 29.86 12 29.86C15.29 29.86 17.96 32.53 17.96 35.82Z" fill="#112849"/>
<path d="M17.96 56.82C17.96 60.11 15.29 62.78 12 62.78C8.71 62.78 6.04 60.11 6.04 56.82C6.04 53.53 8.71 50.86 12 50.86C15.29 50.86 17.96 53.53 17.96 56.82Z" fill="#112849"/>
<path d="M17.96 77.82C17.96 81.11 15.29 83.78 12 83.78C8.71 83.78 6.04 81.11 6.04 77.82C6.04 74.53 8.71 71.86 12 71.86C15.29 71.86 17.96 74.53 17.96 77.82Z" fill="#112849"/>
<path d="M246.61 7.35001C246.61 8.64001 245.56 9.69001 244.27 9.69001C242.98 9.69001 241.93 8.64001 241.93 7.35001C241.93 6.06001 242.98 5.01001 244.27 5.01001C245.56 5.01001 246.61 6.06001 246.61 7.35001Z" stroke="#112849" stroke-width="0.65" stroke-miterlimit="10"/>
<path d="M255.46 7.35001C255.46 8.64001 254.41 9.69001 253.12 9.69001C251.83 9.69001 250.78 8.64001 250.78 7.35001C250.78 6.06001 251.83 5.01001 253.12 5.01001C254.41 5.01001 255.46 6.06001 255.46 7.35001Z" stroke="#112849" stroke-width="0.65" stroke-miterlimit="10"/>
<path d="M264.3 7.35001C264.3 8.64001 263.25 9.69001 261.96 9.69001C260.67 9.69001 259.62 8.64001 259.62 7.35001C259.62 6.06001 260.67 5.01001 261.96 5.01001C263.25 5.01001 264.3 6.06001 264.3 7.35001Z" stroke="#112849" stroke-width="0.65" stroke-miterlimit="10"/>
<path d="M273.14 7.35001C273.14 8.64001 272.09 9.69001 270.8 9.69001C269.51 9.69001 268.46 8.64001 268.46 7.35001C268.46 6.06001 269.51 5.01001 270.8 5.01001C272.09 5.01001 273.14 6.06001 273.14 7.35001Z" fill="#112849"/>
<path d="M246.61 16.57C246.61 17.86 245.56 18.91 244.27 18.91C242.98 18.91 241.93 17.86 241.93 16.57C241.93 15.28 242.98 14.23 244.27 14.23C245.56 14.23 246.61 15.28 246.61 16.57Z" stroke="#112849" stroke-width="0.65" stroke-miterlimit="10"/>
<path d="M255.46 16.57C255.46 17.86 254.41 18.91 253.12 18.91C251.83 18.91 250.78 17.86 250.78 16.57C250.78 15.28 251.83 14.23 253.12 14.23C254.41 14.23 255.46 15.28 255.46 16.57Z" fill="#112849"/>
<path d="M264.3 16.57C264.3 17.86 263.25 18.91 261.96 18.91C260.67 18.91 259.62 17.86 259.62 16.57C259.62 15.28 260.67 14.23 261.96 14.23C263.25 14.23 264.3 15.28 264.3 16.57Z" stroke="#112849" stroke-width="0.65" stroke-miterlimit="10"/>
<path d="M273.14 16.57C273.14 17.86 272.09 18.91 270.8 18.91C269.51 18.91 268.46 17.86 268.46 16.57C268.46 15.28 269.51 14.23 270.8 14.23C272.09 14.23 273.14 15.28 273.14 16.57Z" stroke="#112849" stroke-width="0.65" stroke-miterlimit="10"/>
<path d="M75.8 271.31C76.5511 271.31 77.16 270.701 77.16 269.95C77.16 269.199 76.5511 268.59 75.8 268.59C75.0489 268.59 74.44 269.199 74.44 269.95C74.44 270.701 75.0489 271.31 75.8 271.31Z" fill="#112849"/>
<path d="M87.24 271.31C87.9911 271.31 88.6 270.701 88.6 269.95C88.6 269.199 87.9911 268.59 87.24 268.59C86.4889 268.59 85.88 269.199 85.88 269.95C85.88 270.701 86.4889 271.31 87.24 271.31Z" fill="#112849"/>
<path d="M98.68 271.31C99.4311 271.31 100.04 270.701 100.04 269.95C100.04 269.199 99.4311 268.59 98.68 268.59C97.9289 268.59 97.32 269.199 97.32 269.95C97.32 270.701 97.9289 271.31 98.68 271.31Z" fill="#112849"/>
<path d="M75.8 278.08C76.5511 278.08 77.16 277.471 77.16 276.72C77.16 275.969 76.5511 275.36 75.8 275.36C75.0489 275.36 74.44 275.969 74.44 276.72C74.44 277.471 75.0489 278.08 75.8 278.08Z" fill="#112849"/>
<path d="M87.24 278.08C87.9911 278.08 88.6 277.471 88.6 276.72C88.6 275.969 87.9911 275.36 87.24 275.36C86.4889 275.36 85.88 275.969 85.88 276.72C85.88 277.471 86.4889 278.08 87.24 278.08Z" fill="#112849"/>
<path d="M98.68 278.08C99.4311 278.08 100.04 277.471 100.04 276.72C100.04 275.969 99.4311 275.36 98.68 275.36C97.9289 275.36 97.32 275.969 97.32 276.72C97.32 277.471 97.9289 278.08 98.68 278.08Z" fill="#112849"/>
<path d="M75.8 284.85C76.5511 284.85 77.16 284.241 77.16 283.49C77.16 282.739 76.5511 282.13 75.8 282.13C75.0489 282.13 74.44 282.739 74.44 283.49C74.44 284.241 75.0489 284.85 75.8 284.85Z" fill="#112849"/>
<path d="M87.24 284.85C87.9911 284.85 88.6 284.241 88.6 283.49C88.6 282.739 87.9911 282.13 87.24 282.13C86.4889 282.13 85.88 282.739 85.88 283.49C85.88 284.241 86.4889 284.85 87.24 284.85Z" fill="#112849"/>
<path d="M98.68 284.85C99.4311 284.85 100.04 284.241 100.04 283.49C100.04 282.739 99.4311 282.13 98.68 282.13C97.9289 282.13 97.32 282.739 97.32 283.49C97.32 284.241 97.9289 284.85 98.68 284.85Z" fill="#112849"/>
<path d="M402.7 7.05002H390.19V19.56H402.7V7.05002Z" fill="#112849"/>
<path d="M402.7 30.71H390.19V43.22H402.7V30.71Z" fill="#112849"/>
<path d="M358.49 166.11H354.82V177.67H358.49V166.11Z" fill="#112849"/>
<path d="M366.32 166.11H362.65V177.67H366.32V166.11Z" fill="#112849"/>
<path d="M374.14 166.11H370.47V177.67H374.14V166.11Z" fill="#112849"/>
<path d="M381.97 166.11H378.3V177.67H381.97V166.11Z" fill="#112849"/>
<path d="M462.43 332.89H458.76V344.45H462.43V332.89Z" fill="#112849"/>
<path d="M470.26 332.89H466.59V344.45H470.26V332.89Z" fill="#112849"/>
<path d="M478.09 332.89H474.42V344.45H478.09V332.89Z" fill="#112849"/>
<path d="M485.91 332.89H482.24V344.45H485.91V332.89Z" fill="#112849"/>
<path d="M204.04 332.86H167.99V343.19H204.04V332.86Z" fill="#112849"/>
<path d="M12.07 220.36H8.31V226.26H12.07V220.36Z" fill="#112849"/>
<path d="M12.07 228.51H8.31V234.41H12.07V228.51Z" fill="#112849"/>
<path d="M18.98 220.36H15.22V226.26H18.98V220.36Z" fill="#112849"/>
<path d="M18.98 228.51H15.22V234.41H18.98V228.51Z" fill="#112849"/>
<path d="M25.89 220.36H22.13V226.26H25.89V220.36Z" fill="#112849"/>
<path d="M25.89 228.51H22.13V234.41H25.89V228.51Z" fill="#112849"/>
<path d="M32.8 220.36H29.04V226.26H32.8V220.36Z" fill="#112849"/>
<path d="M32.8 228.51H29.04V234.41H32.8V228.51Z" fill="#112849"/>
<path d="M39.71 220.36H35.95V226.26H39.71V220.36Z" fill="#112849"/>
<path d="M39.71 228.51H35.95V234.41H39.71V228.51Z" fill="#112849"/>
<path d="M408.9 214.06C408.9 217.49 406.12 220.27 402.69 220.27C399.26 220.27 396.48 217.49 396.48 214.06C396.48 210.63 399.26 207.85 402.69 207.85C406.12 207.85 408.9 210.63 408.9 214.06Z" fill="#112849"/>
<path d="M408.9 234.66C408.9 238.09 406.12 240.87 402.69 240.87C399.26 240.87 396.48 238.09 396.48 234.66C396.48 231.23 399.26 228.45 402.69 228.45C406.12 228.45 408.9 231.23 408.9 234.66Z" fill="#112849"/>
<path d="M151.88 77.22C152.769 77.22 153.49 76.4992 153.49 75.61C153.49 74.7208 152.769 74 151.88 74C150.991 74 150.27 74.7208 150.27 75.61C150.27 76.4992 150.991 77.22 151.88 77.22Z" fill="#112849"/>
<path d="M164.64 77.22C165.529 77.22 166.25 76.4992 166.25 75.61C166.25 74.7208 165.529 74 164.64 74C163.751 74 163.03 74.7208 163.03 75.61C163.03 76.4992 163.751 77.22 164.64 77.22Z" fill="#112849"/>
<path d="M151.88 90.77C152.769 90.77 153.49 90.0492 153.49 89.16C153.49 88.2708 152.769 87.55 151.88 87.55C150.991 87.55 150.27 88.2708 150.27 89.16C150.27 90.0492 150.991 90.77 151.88 90.77Z" fill="#112849"/>
<path d="M164.64 90.77C165.529 90.77 166.25 90.0492 166.25 89.16C166.25 88.2708 165.529 87.55 164.64 87.55C163.751 87.55 163.03 88.2708 163.03 89.16C163.03 90.0492 163.751 90.77 164.64 90.77Z" fill="#112849"/>
<path d="M264.42 118.13H193.89V188.66H264.42V118.13Z" stroke="#112849" stroke-width="1.95" stroke-miterlimit="10"/>
</g>
</g>
<defs>
<linearGradient id="paint0_linear_1_684" x1="260" y1="535" x2="260" y2="0" gradientUnits="userSpaceOnUse">
<stop/>
<stop offset="0.24" stop-color="#002030"/>
<stop offset="0.78" stop-color="#0372A8"/>
<stop offset="1" stop-color="#0494DA"/>
</linearGradient>
</defs>
</svg>
