<?xml version="1.0" encoding="UTF-8"?><svg id="ENG" xmlns="http://www.w3.org/2000/svg" viewBox="0 0 61.96 80.22"><defs><style>.cls-1{fill:#0494da;}.cls-2{fill:#fff;}</style></defs><circle class="cls-2" cx="29.87" cy="41.53" r="20"/><path class="cls-1" d="M38.23,50.85c-.9,.9-2.36,.9-3.26,0l-5.1-5.83-5.1,5.82c-.9,.9-2.36,.9-3.26,0-.9-.9-.9-2.36,0-3.26l5.3-6.06-5.31-6.06c-.9-.9-.9-2.36,0-3.26,.9-.9,2.36-.9,3.26,0l5.1,5.83,5.1-5.83c.9-.9,2.36-.9,3.26,0s.9,2.36,0,3.26l-5.3,6.06,5.3,6.06c.9,.9,.9,2.36,0,3.27Z"/></svg>