<svg width="40" height="40" viewBox="0 0 40 40" fill="none" xmlns="http://www.w3.org/2000/svg">
<path d="M20 40C31.0457 40 40 31.0457 40 20C40 8.9543 31.0457 0 20 0C8.9543 0 0 8.9543 0 20C0 31.0457 8.9543 40 20 40Z" fill="white"/>
<path d="M28.36 29.32C27.46 30.22 26 30.22 25.1 29.32L20 23.49L14.9 29.31C14 30.21 12.54 30.21 11.64 29.31C10.74 28.41 10.74 26.95 11.64 26.05L16.94 19.99L11.63 13.93C10.73 13.03 10.73 11.57 11.63 10.67C12.53 9.77 13.99 9.77 14.89 10.67L19.99 16.5L25.09 10.67C25.99 9.77 27.45 9.77 28.35 10.67C29.25 11.57 29.25 13.03 28.35 13.93L23.05 19.99L28.35 26.05C29.25 26.95 29.25 28.41 28.35 29.32H28.36Z" fill="#0494DA"/>
</svg>
