<?xml version="1.0" encoding="UTF-8"?><svg id="gold_mini" xmlns="http://www.w3.org/2000/svg" xmlns:xlink="http://www.w3.org/1999/xlink" viewBox="0 0 96 96"><defs><style>.cls-1{fill:url(#linear-gradient);}.cls-2{fill:url(#Dégradé_sans_nom_29);}.cls-3{fill:url(#Dégradé_sans_nom_10);}.cls-4{fill:url(#linear-gradient-8);}.cls-5{fill:url(#linear-gradient-9);}.cls-6{fill:url(#linear-gradient-3);}.cls-7{fill:url(#linear-gradient-4);}.cls-8{fill:url(#linear-gradient-2);}.cls-9{fill:url(#linear-gradient-6);}.cls-10{fill:url(#linear-gradient-7);}.cls-11{fill:url(#linear-gradient-5);}.cls-12{fill:url(#Dégradé_sans_nom_4);}.cls-13{fill:url(#Dégradé_sans_nom_10-3);}.cls-14{fill:url(#Dégradé_sans_nom_10-4);}.cls-15{fill:url(#Dégradé_sans_nom_10-2);}.cls-16{fill:url(#Dégradé_sans_nom_10-5);}.cls-17{fill:url(#Dégradé_sans_nom_29-2);}</style><linearGradient id="linear-gradient" x1="1" y1="61.03" x2="46.63" y2="61.03" gradientUnits="userSpaceOnUse"><stop offset=".04" stop-color="#c19859"/><stop offset=".13" stop-color="#d0b07a"/><stop offset=".34" stop-color="#f1e6c4"/><stop offset=".43" stop-color="#fffce1"/><stop offset=".44" stop-color="#faf5d7"/><stop offset=".45" stop-color="#d2bc8c"/><stop offset=".46" stop-color="#b28f4f"/><stop offset=".48" stop-color="#9b6f24"/><stop offset=".48" stop-color="#8d5b09"/><stop offset=".49" stop-color="#885400"/><stop offset=".52" stop-color="#8c5804"/><stop offset=".54" stop-color="#986410"/><stop offset=".57" stop-color="#ad7924"/><stop offset=".59" stop-color="#c18c37"/><stop offset=".61" stop-color="#ca9740"/><stop offset=".68" stop-color="#e6bc5f"/><stop offset=".73" stop-color="#f8d372"/><stop offset=".76" stop-color="#ffdc7a"/><stop offset=".88" stop-color="#d09f47"/><stop offset=".92" stop-color="#c18c37"/></linearGradient><linearGradient id="linear-gradient-2" x1="49.37" y1="61.03" x2="95" y2="61.03" xlink:href="#linear-gradient"/><linearGradient id="linear-gradient-3" x1="5.57" y1="55.25" x2="40.16" y2="55.25" xlink:href="#linear-gradient"/><linearGradient id="linear-gradient-4" x1="55.84" y1="55.25" x2="90.43" y2="55.25" xlink:href="#linear-gradient"/><linearGradient id="Dégradé_sans_nom_29" x1="31.29" y1="55.54" x2="31.29" y2="12.68" gradientUnits="userSpaceOnUse"><stop offset="0" stop-color="#2d95f7"/><stop offset=".08" stop-color="#30a7f2"/><stop offset=".24" stop-color="#35c6ea"/><stop offset=".4" stop-color="#39dde3"/><stop offset=".57" stop-color="#3ceedf"/><stop offset=".76" stop-color="#3ef8dc"/><stop offset="1" stop-color="#3ffcdc"/></linearGradient><linearGradient id="Dégradé_sans_nom_29-2" x1="64.71" x2="64.71" xlink:href="#Dégradé_sans_nom_29"/><linearGradient id="linear-gradient-5" x1="25.67" y1="66.88" x2="25.67" y2="12.68" xlink:href="#linear-gradient"/><linearGradient id="linear-gradient-6" x1="70.34" y1="66.85" x2="70.34" y2="12.68" xlink:href="#linear-gradient"/><linearGradient id="Dégradé_sans_nom_10" x1="41.74" y1="31.14" x2="48.96" y2="31.14" gradientUnits="userSpaceOnUse"><stop offset="0" stop-color="#2d95f7"/><stop offset="1" stop-color="#3ffcdc"/></linearGradient><linearGradient id="Dégradé_sans_nom_10-2" x1="40.58" y1="41.55" x2="43.4" y2="41.55" xlink:href="#Dégradé_sans_nom_10"/><linearGradient id="linear-gradient-7" x1="40.17" y1="35.43" x2="49.16" y2="35.43" xlink:href="#linear-gradient"/><linearGradient id="linear-gradient-8" x1="44.17" y1="44.13" x2="51.83" y2="44.13" xlink:href="#linear-gradient"/><linearGradient id="Dégradé_sans_nom_4" x1="54.74" y1="38.34" x2="54.74" y2="33.52" gradientUnits="userSpaceOnUse"><stop offset=".08" stop-color="#c18c37"/><stop offset=".12" stop-color="#d09f47"/><stop offset=".24" stop-color="#ffdc7a"/><stop offset=".27" stop-color="#f8d372"/><stop offset=".32" stop-color="#e6bc5f"/><stop offset=".39" stop-color="#ca9740"/><stop offset=".41" stop-color="#c18c37"/><stop offset=".43" stop-color="#ad7924"/><stop offset=".46" stop-color="#986410"/><stop offset=".48" stop-color="#8c5804"/><stop offset=".51" stop-color="#885400"/><stop offset=".52" stop-color="#8d5b09"/><stop offset=".52" stop-color="#9b6f24"/><stop offset=".54" stop-color="#b28f4f"/><stop offset=".55" stop-color="#d2bc8c"/><stop offset=".56" stop-color="#faf5d7"/><stop offset=".57" stop-color="#fffce1"/><stop offset=".66" stop-color="#f1e6c4"/><stop offset=".87" stop-color="#d0b07a"/><stop offset=".96" stop-color="#c19859"/></linearGradient><linearGradient id="Dégradé_sans_nom_10-3" x1="43.16" y1="39.22" x2="49.16" y2="39.22" xlink:href="#Dégradé_sans_nom_10"/><linearGradient id="Dégradé_sans_nom_10-4" x1="50.03" y1="32.42" x2="54.26" y2="32.42" xlink:href="#Dégradé_sans_nom_10"/><linearGradient id="linear-gradient-9" x1="46.77" y1="37.38" x2="52.84" y2="37.38" xlink:href="#linear-gradient"/><linearGradient id="Dégradé_sans_nom_10-5" x1="50.47" y1="41.55" x2="55.42" y2="41.55" xlink:href="#Dégradé_sans_nom_10"/></defs><g id="logo_BG_White"><g id="_2"><path class="cls-1" d="M46.61,78.07c-.35-3.89-5.08-6.66-9.88-8.83-2.99-1.35-6.01-2.48-8.01-3.5-.55-.28-1.14-.57-1.74-.88-6.14-3.08-14.73-7.45-19.67-13.26-6.26-7.37-5.53-14.28,1.32-11.5-4.36-2.4-6.65-1.39-7.35,1.07-1.67,5.86,4.29,13.25,8.38,16.96,6.08,5.47,12.02,8.01,18.34,10.56,.78,.31,1.57,.63,2.36,.95,1.46,.59,2.95,1.2,4.46,1.86,2.97,1.3,8.67,3.61,9.39,7,.7,3.23-3.66,5.27-5.87,2.58,2.86,4.47,8.67,1.57,8.26-3.02Z"/><path class="cls-8" d="M94.72,41.17c-.71-2.45-2.98-3.47-7.35-1.06,6.85-2.78,7.59,4.12,1.32,11.5-4.94,5.82-13.56,10.19-19.7,13.27-.59,.3-1.17,.58-1.71,.86-2,1.01-4.99,2.13-7.97,3.47-4.81,2.17-9.57,4.94-9.92,8.85-.42,4.6,5.38,7.5,8.25,3.03-2.21,2.68-6.57,.65-5.87-2.58,.74-3.4,6.42-5.7,9.39-7,1.51-.66,3-1.27,4.46-1.86,.78-.32,1.56-.63,2.33-.94,6.34-2.56,12.29-5.1,18.37-10.57,4.11-3.72,10.05-11.09,8.39-16.97Z"/></g><g id="_1"><path class="cls-6" d="M37.32,68.13c-.36-.2-.73-.4-1.08-.6-3.44-1.91-6.48-3.72-9.16-5.44-.35-.22-.69-.45-1.03-.67C4.15,47.13,7.24,39.82,13.03,43.25c-6.31-7.53-18.07,3.65,13.55,20.16,2.89,1.51,6.15,3.07,9.81,4.66,1.21,.53,2.47,1.06,3.77,1.59-.98-.52-1.92-1.03-2.84-1.53Z"/><path class="cls-7" d="M82.97,43.25c5.79-3.44,8.89,3.88-13.05,18.19-.34,.22-.68,.44-1.03,.67-2.67,1.7-5.68,3.5-9.08,5.39-.36,.2-.72,.4-1.08,.6-.93,.51-1.89,1.03-2.88,1.55,1.32-.54,2.58-1.08,3.81-1.61,3.62-1.58,6.86-3.12,9.73-4.62,31.67-16.52,19.91-27.72,13.58-20.17Z"/></g><g id="WH"><g id="_2-2"><polygon class="cls-2" points="35.07 12.68 27.51 12.68 27.51 29.48 35.07 55.54 35.07 12.68"/><polygon class="cls-17" points="68.49 12.68 60.93 12.68 60.93 55.54 68.49 29.48 68.49 12.68"/></g><g id="_1-2"><path class="cls-11" d="M35.07,59.11l-7.55-26.06-5.91-20.37h-7.59l13.06,48.16c.14,.09,.29,.19,.44,.28,.73,.46,1.49,.94,2.27,1.41,1.98,1.21,4.12,2.46,6.45,3.75,.36,.2,.72,.4,1.08,.6l-2.25-7.77Z"/><path class="cls-9" d="M74.43,12.68l-5.94,20.49-7.55,26.06-2.21,7.62c.36-.2,.73-.4,1.08-.6,3.4-1.89,6.41-3.69,9.08-5.39l13.06-48.18h-7.52Z"/></g></g><g id="Boule"><path class="cls-3" d="M42.8,32.14c.83-.83,1.08-.94,1.47-.56,.26,.25,.85,.12,1.29-.32,.76-.74,1.04-.84,1.72-.2,.39,.36,1.07,.35,1.44,0,.16-.15,.23-.33,.24-.52,0,0,0,0,0,0,0,0,0,0,0-.01,0-.02,0-.04,0-.07,0,0,0-.02,0-.03,0-.03,0-.06-.01-.09,0,0,0,0,0,0,0-.03-.01-.06-.02-.09,0,0,0-.02,0-.03,0-.02-.01-.04-.02-.06,0-.01,0-.02-.01-.03,0-.02-.02-.04-.03-.06,0-.01-.01-.02-.02-.03-.01-.02-.02-.04-.03-.05,0-.01-.01-.02-.02-.03-.01-.02-.03-.04-.04-.06,0,0-.01-.02-.02-.02-.02-.03-.05-.05-.07-.07-.11-.1-.23-.17-.37-.21-.28-.09-.58-.04-.82,.14-.03,.02-.06,.05-.09,.07-.07,.07-.14,.13-.21,.19-.62,.53-.88,.47-1.32,.06-.03-.03-.06-.05-.1-.06-.01,0-.03,0-.04-.01-.02,0-.05-.02-.08-.02-.02,0-.04,0-.06,0-.03,0-.05,0-.08,0-.02,0-.04,.01-.07,.02-.03,0-.05,.01-.08,.02-.02,0-.05,.02-.07,.03-.03,.01-.05,.02-.08,.03-.03,.01-.05,.03-.08,.04-.03,.02-.06,.03-.08,.05-.03,.02-.05,.04-.08,.05-.03,.02-.06,.04-.09,.06-.03,.02-.05,.04-.08,.07-.02,.02-.05,.04-.07,.06,0,0,0,0,0,0,0,0-.02,.02-.03,.02-.78,.77-1.04,.93-1.31,.68-.08-.08-.49,.24-.93,.69-.45,.44-.79,.82-.69,.93,.1,.1,.6-.12,1.05-.57Z"/><path class="cls-15" d="M42.23,41.13c.25-.26,.11-.86-.32-1.3-.21-.22-.46-.34-.68-.39,0,0,0,0,0,0,0,0,0,0,0,0-.04,0-.07,0-.1-.01-.02,0-.04,0-.06,0-.03,0-.07,0-.1,0-.02,0-.04,0-.05,0-.03,0-.06,.02-.09,.03-.01,0-.03,0-.04,.01-.04,.02-.07,.05-.1,.08-.04,.04-.07,.09-.08,.15-.08,.27,.12,.66,.47,1.01,0,0,.01,.01,.02,.02,.79,.8,.82,1.13,.66,1.3-.16,.17,.25,.49,.69,.94,.45,.45,.83,.79,.93,.69,.1-.1-.13-.6-.58-1.05-.83-.83-.94-1.09-.57-1.48Z"/><path class="cls-10" d="M41.7,38.1c.35-.37,.36-1.05,0-1.44-.6-.64-.56-.95,.21-1.74,.81-.83,1.12-.89,1.72-.26,.36,.38,1.05,.32,1.51-.15,.86-.86,1.21-.88,2.01-.1,.46,.45,1.24,.44,1.69,0,.17-.16,.26-.36,.3-.57,0,0,0,0,0,0,0,0,0,0,0,0,0-.04,.01-.08,.01-.12,0-.01,0-.02,0-.03,0-.03,0-.06,0-.09,0-.01,0-.03,0-.04,0-.03,0-.06-.01-.09,0-.01,0-.02,0-.04,0-.04-.02-.07-.03-.11,0,0,0,0,0,0-.01-.04-.03-.08-.05-.12,0-.01-.01-.02-.02-.03-.01-.03-.03-.05-.04-.08,0-.01-.02-.02-.02-.04-.02-.03-.03-.05-.05-.07,0-.01-.02-.02-.02-.03-.03-.03-.06-.07-.09-.1-.03-.03-.06-.05-.09-.08-.06-.05-.12-.09-.19-.12-.03-.02-.07-.03-.1-.05-.29-.12-.62-.1-.91,.03-.11,.05-.22,.12-.31,.21-.05,.05-.1,.09-.15,.14-.01,.01-.03,.03-.04,.04-.61,.55-.96,.61-1.45,.21-.03-.02-.06-.05-.09-.07-.01-.01-.03-.02-.04-.04-.04-.04-.08-.08-.13-.12,0,0,0,0,0,0-.17-.17-.41-.23-.66-.19-.05,0-.09,.02-.14,.03-.04,.01-.08,.03-.13,.04-.18,.07-.35,.19-.5,.34-.14,.14-.27,.26-.39,.36-.42,.36-.68,.44-.95,.29-.1-.05-.19-.14-.3-.25-.22-.23-.73-.02-1.16,.41-.43,.43-.61,.93-.39,1.16,.48,.52,.44,.82-.25,1.54-.34,.36-.35,.91,0,1.28,.35,.37,.92,.45,1.27,.08Z"/><path class="cls-4" d="M51.16,43.07s0,0,0,0c-.03,0-.06,.02-.09,.03-.03,0-.06,.02-.09,.03-.03,.01-.07,.03-.1,.05-.03,.01-.05,.02-.08,.04-.04,.02-.08,.05-.12,.08-.02,.01-.04,.03-.06,.04-.06,.04-.12,.09-.17,.15-.51,.5-.82,.69-1.14,.6-.08-.02-.16-.06-.25-.12-.02-.01-.04-.03-.07-.05-.01,0-.02-.02-.04-.03-.01,0-.02-.02-.03-.03-.06-.05-.12-.1-.19-.17-.09-.08-.19-.14-.3-.19-.01,0-.02-.01-.04-.02-.37-.14-.82-.07-1.11,.2-.64,.61-.94,.56-1.72-.2-.11-.11-.23-.2-.35-.27-.3-.17-.61-.21-.82-.13-.05,.02-.09,.04-.12,.08-.06,.05-.09,.12-.09,.2,0,0,0,.01,0,.02h0c0,.1,.02,.2,.06,.32,.08,.2,.24,.42,.44,.63l.02,.02s0,0,0,0c.42,.41,.9,.58,1.13,.36,.51-.49,.8-.44,1.53,.24,.36,.34,.92,.34,1.28,0,.72-.69,1.02-.73,1.53-.24,.23,.22,.72,.05,1.15-.38,.43-.42,.65-.93,.41-1.16-.12-.12-.33-.15-.57-.09Z"/><path class="cls-12" d="M55.57,36.74c-.52-.54-.67-.84-.52-1.18,0-.02,.02-.04,.03-.05,0-.01,.01-.02,.02-.03,.01-.02,.02-.04,.04-.06,0-.01,.01-.02,.02-.03,.02-.02,.03-.04,.05-.07,0,0,.01-.02,.02-.03,.03-.03,.06-.06,.09-.1,.06-.06,.09-.13,.09-.22,0-.06,0-.14-.02-.21-.02-.08-.05-.15-.09-.23,0,0,0,0,0-.01-.08-.16-.2-.32-.36-.48-.08-.08-.16-.15-.25-.22-.06-.04-.11-.08-.17-.12-.07-.04-.13-.08-.2-.1-.23-.1-.43-.1-.55,.03-.03,.03-.05,.07-.07,.11,0,.01,0,.03-.01,.04-.01,.03-.02,.06-.03,.1,0,0,0,0,0,0,0,0,0,0,0,0-.04,.3,.11,.72,.43,1.05,.77,.79,.69,1.22,.21,1.73s-.35,1.07,0,1.44c.35,.37,.91,.29,1.27-.08,.36-.37,.35-.92,0-1.28Z"/><path class="cls-13" d="M43.61,41.2s.02,.04,.03,.05c0,0,0,0,0,0,.03,.05,.07,.1,.11,.15,.03,.04,.07,.08,.1,.11,.05,.05,.1,.1,.16,.14,0,0,.01,.01,.02,.02,.01,0,.02,.01,.03,.02,.02,.01,.04,.03,.06,.04,0,0,0,0,.01,0,.03,.02,.05,.03,.08,.05,0,0,0,0,0,0,.1,.05,.19,.09,.29,.11,0,0,.01,0,.02,0,.04,.01,.08,.02,.13,.02,.05,0,.09,0,.14,0,0,0,0,0,0,0,.19,0,.35-.07,.48-.2,.71-.7,1.06-.67,1.91,.15,.44,.43,1.15,.43,1.6,0,.45-.43,.49-1.13,.04-1.57-.45-.44-1.23-.45-1.69,0-.8,.78-1.16,.76-2.01-.1-.86-.86-.88-1.22-.1-2.02,.44-.46,.44-1.23,0-1.68-.11-.12-.24-.2-.38-.25,0,0,0,0,0,0,0,0,0,0-.01,0-.04-.02-.08-.03-.12-.04-.01,0-.02,0-.03,0-.05,0-.09-.02-.14-.02,0,0,0,0-.01,0-.04,0-.09,0-.13,0-.01,0-.02,0-.03,0-.05,0-.09,.01-.14,.02,0,0,0,0,0,0-.04,.01-.09,.03-.13,.04-.01,0-.02,0-.03,.01-.04,.02-.09,.04-.13,.06,0,0,0,0,0,0-.04,.02-.08,.05-.12,.08-.01,0-.02,.02-.03,.02-.04,.03-.08,.07-.11,.1-.03,.03-.05,.06-.08,.09-.28,.36-.32,.84-.12,1.23,.05,.1,.12,.19,.2,.27,.05,.05,.1,.11,.15,.16,.01,.02,.03,.03,.04,.05,.03,.03,.06,.07,.09,.1,.02,.02,.03,.04,.04,.05,.02,.03,.04,.06,.06,.08,.01,.02,.03,.04,.04,.06,.02,.03,.04,.05,.05,.07,.31,.48,.19,.82-.32,1.34-.25,.26-.25,.68-.05,1.07,0,0,0,0,0,0,0,.01,.02,.03,.02,.04Z"/><path class="cls-14" d="M50.85,32.83c-.04,.05-.09,.11-.15,.16-.06,.05-.1,.11-.14,.17-.16,.23-.19,.47-.12,.7,0,.03,.02,.06,.03,.1,.07,.19,.21,.38,.38,.56,0,0,0,0,0,0,.05,.05,.11,.1,.16,.14,.02,.01,.03,.02,.05,.03,.05,.03,.1,.06,.15,.08,.01,0,.02,.01,.04,.02,.06,.03,.12,.05,.18,.07,.02,0,.03,0,.04,.01,.05,.01,.1,.02,.15,.03,.02,0,.03,0,.05,0,.06,0,.12,0,.18,0,0,0,.02,0,.02,0,.04,0,.07,0,.11-.02,0,0,0,0,0,0,.15-.04,.29-.1,.39-.21,.35-.36,.23-.99-.23-1.45-.84-.85-.91-1.15-.41-1.64,.38-.38,.64-.27,1.47,.56,.45,.45,.95,.68,1.05,.57,.1-.1-.24-.48-.69-.93-.45-.45-.85-.77-.93-.69-.25,.24-.5,.12-1.31-.68-.06-.06-.12-.11-.19-.17,0,0,0,0,0,0-.04-.03-.08-.06-.12-.09,0,0,0,0-.01,0-.05-.03-.1-.06-.15-.09-.02,0-.03-.01-.05-.02-.03-.02-.07-.03-.1-.04-.02,0-.04-.01-.05-.02-.03,0-.06-.02-.09-.02-.02,0-.03,0-.05,0-.03,0-.05,0-.08,0-.02,0-.03,0-.05,0-.03,0-.05,.01-.08,.02-.01,0-.02,0-.04,.01-.03,.02-.07,.04-.1,.06-.25,.23-.16,.79,.27,1.21,.73,.72,.76,1.14,.41,1.57Z"/><path class="cls-5" d="M48.6,36.3c-.29-.16-.64-.2-.95-.1-.19,.06-.37,.16-.52,.31,0,0,0,0,0,0-.04,.04-.07,.07-.1,.11,0,.01-.02,.02-.03,.04-.02,.03-.04,.06-.06,.09,0,.01-.01,.02-.02,.04-.02,.04-.04,.09-.06,.13,0,0,0,0,0,0-.02,.04-.03,.09-.04,.13,0,.01,0,.03-.01,.04,0,.03-.01,.07-.02,.1,0,.01,0,.03,0,.04,0,.05,0,.09,0,.14,0,0,0,0,0,.01,0,.04,0,.09,0,.13,0,.01,0,.03,0,.04,0,.04,.01,.07,.02,.11,0,0,0,.02,0,.03,0,0,0,0,0,0,.05,.2,.16,.39,.32,.55,.48,.48,1.27,.48,1.74,0,.88-.88,1.26-.89,2.08-.03,.43,.44,1.13,.41,1.56-.04,.16-.16,.26-.36,.3-.57,0,0,0,0,0,0,0,0,0,0,0,0,0,0,0-.02,0-.02,0-.06,.01-.11,.02-.17,0-.01,0-.03,0-.04,0-.06,0-.12-.02-.19,0-.01,0-.02,0-.04-.01-.06-.03-.11-.05-.17,0,0,0-.02,0-.03-.02-.06-.05-.12-.09-.17,0-.01-.02-.02-.02-.04-.04-.06-.08-.11-.13-.16-.08-.08-.17-.15-.27-.21-.16-.09-.34-.14-.51-.15-.28,0-.57,.09-.78,.31-.83,.86-1.21,.86-2.08-.03-.08-.08-.17-.15-.27-.21Z"/><path class="cls-16" d="M55.42,39.83s0-.04,0-.06c0,0,0-.02,0-.02,0-.02,0-.03-.01-.05,0,0,0-.02,0-.02,0-.02-.01-.03-.02-.04,0,0,0-.01-.01-.02-.01-.02-.03-.04-.04-.06-.03-.03-.06-.05-.09-.07,0,0-.02-.01-.03-.02-.03-.01-.06-.02-.09-.03-.01,0-.02,0-.03,0-.04,0-.09-.01-.13-.01,0,0-.02,0-.03,0-.04,0-.08,0-.12,.01-.02,0-.03,0-.05,0-.04,0-.08,.02-.12,.04-.01,0-.02,0-.03,.01-.05,.02-.09,.04-.14,.06,0,0,0,0,0,0-.13,.07-.25,.16-.37,.27-.7,.71-1.02,.85-1.48,.49-.03-.02-.05-.04-.08-.07-.01-.01-.02-.02-.04-.03-.04-.04-.08-.08-.12-.12-.36-.38-1.05-.32-1.51,.15-.46,.46-.51,1.16-.15,1.52,.02,.02,.05,.04,.07,.06,0,0,.01,0,.02,.01,.02,.01,.04,.03,.05,.04,.01,0,.02,.01,.03,.02,.02,0,.03,.02,.05,.02,.01,0,.02,0,.04,.01,.02,0,.03,.01,.05,.02,.01,0,.03,0,.04,0,.02,0,.03,0,.05,0,.01,0,.03,0,.04,0,.02,0,.03,0,.05,0,.01,0,.03,0,.04,0,.02,0,.03,0,.05,0,.02,0,.03,0,.05,0,.02,0,.03,0,.05,0,0,0,0,0,.01,0,0,0,0,0,0,0,.25-.05,.51-.19,.73-.41,.84-.84,1.14-.91,1.63-.4,.38,.39,.07,.84-.57,1.48-.64,.64-.68,.95-.57,1.05,.1,.1,.48-.24,.93-.69,.45-.45,.77-.85,.69-.94-.24-.25-.13-.51,.68-1.32,.16-.16,.29-.34,.38-.5,0,0,0,0,0,0,0,0,0-.01,0-.02,.01-.02,.02-.04,.03-.07,0-.01,0-.02,.01-.03,0-.02,.01-.04,.02-.06,0-.01,0-.02,0-.03,0-.02,.01-.04,.01-.06,0,0,0-.01,0-.02,0-.03,0-.05,0-.08,0,0,0-.01,0-.02Z"/></g></g></svg>