<?xml version="1.0" encoding="UTF-8"?><svg id="Calque_1" xmlns="http://www.w3.org/2000/svg" xmlns:xlink="http://www.w3.org/1999/xlink" viewBox="0 0 1080 1080"><defs><style>.cls-1{fill:none;}.cls-2{fill:url(#linear-gradient);}.cls-3{clip-path:url(#clippath);}.cls-4{fill:url(#Dégradé_sans_nom_29);}.cls-5{fill:url(#Dégradé_sans_nom_10);}.cls-6{fill:url(#linear-gradient-8);}.cls-7{fill:url(#linear-gradient-9);}.cls-8{fill:url(#linear-gradient-3);}.cls-9{fill:url(#linear-gradient-4);}.cls-10{fill:url(#linear-gradient-2);}.cls-11{fill:url(#linear-gradient-6);}.cls-12{fill:url(#linear-gradient-7);}.cls-13{fill:url(#linear-gradient-5);}.cls-14{fill:url(#Dégradé_sans_nom_4);}.cls-15{fill:url(#Dégradé_sans_nom_10-3);}.cls-16{fill:url(#Dégradé_sans_nom_10-4);}.cls-17{fill:url(#Dégradé_sans_nom_10-2);}.cls-18{fill:url(#Dégradé_sans_nom_10-5);}.cls-19{fill:url(#Dégradé_sans_nom_29-2);}</style><clipPath id="clippath"><circle class="cls-1" cx="540" cy="540" r="540"/></clipPath><linearGradient id="linear-gradient" x1="122.23" y1="675.82" x2="527.85" y2="675.82" gradientUnits="userSpaceOnUse"><stop offset=".04" stop-color="#c19859"/><stop offset=".13" stop-color="#d0b07a"/><stop offset=".34" stop-color="#f1e6c4"/><stop offset=".43" stop-color="#fffce1"/><stop offset=".44" stop-color="#faf5d7"/><stop offset=".45" stop-color="#d2bc8c"/><stop offset=".46" stop-color="#b28f4f"/><stop offset=".48" stop-color="#9b6f24"/><stop offset=".48" stop-color="#8d5b09"/><stop offset=".49" stop-color="#885400"/><stop offset=".52" stop-color="#8c5804"/><stop offset=".54" stop-color="#986410"/><stop offset=".57" stop-color="#ad7924"/><stop offset=".59" stop-color="#c18c37"/><stop offset=".61" stop-color="#ca9740"/><stop offset=".68" stop-color="#e6bc5f"/><stop offset=".73" stop-color="#f8d372"/><stop offset=".76" stop-color="#ffdc7a"/><stop offset=".88" stop-color="#d09f47"/><stop offset=".92" stop-color="#c18c37"/></linearGradient><linearGradient id="linear-gradient-2" x1="552.16" y1="675.8" x2="957.77" y2="675.8" xlink:href="#linear-gradient"/><linearGradient id="linear-gradient-3" x1="162.85" y1="624.48" x2="470.31" y2="624.48" xlink:href="#linear-gradient"/><linearGradient id="linear-gradient-4" x1="609.71" y1="624.41" x2="917.16" y2="624.41" xlink:href="#linear-gradient"/><linearGradient id="Dégradé_sans_nom_29" x1="391.46" y1="627.03" x2="391.46" y2="246.05" gradientUnits="userSpaceOnUse"><stop offset="0" stop-color="#2d95f7"/><stop offset=".08" stop-color="#30a7f2"/><stop offset=".24" stop-color="#35c6ea"/><stop offset=".4" stop-color="#39dde3"/><stop offset=".57" stop-color="#3ceedf"/><stop offset=".76" stop-color="#3ef8dc"/><stop offset="1" stop-color="#3ffcdc"/></linearGradient><linearGradient id="Dégradé_sans_nom_29-2" x1="688.55" x2="688.55" xlink:href="#Dégradé_sans_nom_29"/><linearGradient id="linear-gradient-5" x1="341.48" y1="727.8" x2="341.48" y2="246.05" xlink:href="#linear-gradient"/><linearGradient id="linear-gradient-6" x1="738.56" y1="727.51" x2="738.56" y2="246.05" xlink:href="#linear-gradient"/><linearGradient id="Dégradé_sans_nom_10" x1="484.31" y1="410.12" x2="548.54" y2="410.12" gradientUnits="userSpaceOnUse"><stop offset="0" stop-color="#2d95f7"/><stop offset="1" stop-color="#3ffcdc"/></linearGradient><linearGradient id="Dégradé_sans_nom_10-2" x1="474.06" y1="502.64" x2="499.08" y2="502.64" xlink:href="#Dégradé_sans_nom_10"/><linearGradient id="linear-gradient-7" x1="470.39" y1="448.27" x2="550.28" y2="448.27" xlink:href="#linear-gradient"/><linearGradient id="linear-gradient-8" x1="505.96" y1="525.58" x2="574.01" y2="525.58" xlink:href="#linear-gradient"/><linearGradient id="Dégradé_sans_nom_4" x1="599.92" y1="474.14" x2="599.92" y2="431.29" gradientUnits="userSpaceOnUse"><stop offset=".08" stop-color="#c18c37"/><stop offset=".12" stop-color="#d09f47"/><stop offset=".24" stop-color="#ffdc7a"/><stop offset=".27" stop-color="#f8d372"/><stop offset=".32" stop-color="#e6bc5f"/><stop offset=".39" stop-color="#ca9740"/><stop offset=".41" stop-color="#c18c37"/><stop offset=".43" stop-color="#ad7924"/><stop offset=".46" stop-color="#986410"/><stop offset=".48" stop-color="#8c5804"/><stop offset=".51" stop-color="#885400"/><stop offset=".52" stop-color="#8d5b09"/><stop offset=".52" stop-color="#9b6f24"/><stop offset=".54" stop-color="#b28f4f"/><stop offset=".55" stop-color="#d2bc8c"/><stop offset=".56" stop-color="#faf5d7"/><stop offset=".57" stop-color="#fffce1"/><stop offset=".66" stop-color="#f1e6c4"/><stop offset=".87" stop-color="#d0b07a"/><stop offset=".96" stop-color="#c19859"/></linearGradient><linearGradient id="Dégradé_sans_nom_10-3" x1="496.97" y1="481.97" x2="550.3" y2="481.97" xlink:href="#Dégradé_sans_nom_10"/><linearGradient id="Dégradé_sans_nom_10-4" x1="558.06" y1="421.55" x2="595.66" y2="421.55" xlink:href="#Dégradé_sans_nom_10"/><linearGradient id="linear-gradient-9" x1="529.04" y1="465.58" x2="583.02" y2="465.58" xlink:href="#linear-gradient"/><linearGradient id="Dégradé_sans_nom_10-5" x1="561.94" y1="502.64" x2="605.92" y2="502.64" xlink:href="#Dégradé_sans_nom_10"/></defs><g class="cls-3"><rect width="1080" height="1080"/><g id="logo_BG_White"><g id="_2"><path class="cls-2" d="M527.67,827.29c-3.12-34.59-45.16-59.18-87.84-78.5-26.58-12.03-53.41-22.01-71.24-31.07-4.91-2.48-10.09-5.08-15.48-7.78-54.58-27.39-130.93-66.18-174.81-117.83-55.61-65.55-49.16-126.92,11.77-102.25-38.79-21.36-59.1-12.38-65.29,9.5-14.82,52.13,38.09,117.76,74.53,150.71,54,48.58,106.82,71.24,163.03,93.9,6.93,2.79,13.91,5.59,20.96,8.44,13.01,5.25,26.21,10.67,39.69,16.56,26.41,11.59,77.06,32.08,83.51,62.24,6.19,28.68-32.51,46.81-52.21,22.92,25.45,39.75,77.06,13.95,73.4-26.85Z"/><path class="cls-10" d="M955.24,499.28c-6.28-21.79-26.5-30.86-65.38-9.41,60.93-24.67,67.47,36.61,11.77,102.25-43.95,51.74-120.51,90.58-175.1,117.97-5.28,2.65-10.37,5.2-15.19,7.63-17.74,9.02-44.37,18.93-70.81,30.86-42.8,19.31-85.06,43.92-88.19,78.62-3.75,40.88,47.85,66.68,73.31,26.93-19.61,23.8-58.4,5.75-52.21-22.93,6.54-30.25,57.09-50.64,83.51-62.24,13.46-5.89,26.65-11.31,39.64-16.56,6.96-2.82,13.87-5.59,20.72-8.35,56.37-22.74,109.26-45.37,163.31-93.98,36.52-33.04,89.35-98.59,74.62-150.8Z"/></g><g id="_1"><path class="cls-8" d="M445.04,738.9c-3.24-1.77-6.45-3.54-9.62-5.3-30.54-16.95-57.58-33.09-81.46-48.37-3.11-1.99-6.16-3.96-9.16-5.92-194.61-127.02-167.07-192.06-115.68-161.55-56.1-66.98-160.6,32.48,120.47,179.21,25.72,13.43,54.7,27.26,87.21,41.38,10.78,4.69,21.93,9.4,33.51,14.15-8.68-4.59-17.09-9.12-25.27-13.6Z"/><path class="cls-9" d="M850.82,517.76c51.49-30.6,79.05,34.53-115.98,161.72-3,1.96-6.06,3.93-9.16,5.91-23.69,15.14-50.48,31.13-80.7,47.92-3.17,1.76-6.38,3.53-9.62,5.3-8.3,4.55-16.83,9.15-25.64,13.81,11.71-4.8,22.97-9.57,33.87-14.31,32.22-14.01,60.95-27.72,86.48-41.04,281.53-146.83,176.95-246.39,120.75-179.31Z"/></g><g id="WH"><g id="_2-2"><polygon class="cls-4" points="425.03 246.05 357.88 246.05 357.88 395.42 425.03 627.03 425.03 246.05"/><polygon class="cls-19" points="722.12 246.05 654.98 246.05 654.98 627.03 722.12 395.42 722.12 246.05"/></g><g id="_1-2"><path class="cls-13" d="M425.03,658.74l-67.14-231.61-52.49-181.08h-67.48l116.06,428.08c1.28,.82,2.61,1.66,3.92,2.48,6.5,4.13,13.24,8.32,20.21,12.57,17.59,10.73,36.64,21.83,57.33,33.32,3.17,1.76,6.38,3.52,9.62,5.3l-20.02-69.06Z"/><path class="cls-11" d="M774.92,246.05l-52.81,182.16-67.14,231.61-19.62,67.69c3.24-1.78,6.45-3.54,9.62-5.3,30.22-16.78,57.01-32.77,80.7-47.92l116.1-428.24h-66.85Z"/></g></g><g id="Boule"><path class="cls-5" d="M493.77,419c7.41-7.37,9.64-8.36,13.06-4.99,2.28,2.25,7.53,1.03,11.47-2.82,6.75-6.6,9.27-7.48,15.3-1.82,3.44,3.24,9.49,3.11,12.79,0,1.39-1.31,2.06-2.93,2.14-4.61,0,0,0,0,0,.01,0-.03,0-.07,0-.1,0-.2,0-.4,0-.6,0-.08,0-.15,0-.23-.02-.28-.06-.55-.11-.83,0-.01,0-.02,0-.03-.05-.26-.12-.52-.2-.78-.03-.08-.06-.17-.09-.25-.06-.19-.13-.37-.2-.55-.04-.1-.09-.19-.13-.29-.08-.17-.16-.33-.25-.5-.05-.1-.11-.19-.16-.29-.1-.16-.2-.32-.3-.48-.06-.09-.12-.18-.18-.27-.12-.17-.25-.33-.39-.5-.06-.07-.11-.14-.17-.21-.2-.23-.41-.45-.64-.67-.97-.92-2.09-1.52-3.25-1.89-2.46-.78-5.14-.35-7.29,1.24-.28,.21-.57,.41-.84,.66-.66,.63-1.27,1.17-1.86,1.67-5.48,4.72-7.78,4.22-11.74,.51-.25-.24-.55-.42-.87-.56-.11-.05-.25-.06-.37-.09-.22-.06-.43-.14-.68-.16-.16-.01-.34,.01-.51,.01-.23,0-.44,0-.68,.03-.19,.03-.4,.09-.6,.14-.24,.05-.46,.09-.71,.18-.21,.07-.43,.18-.65,.26-.24,.1-.49,.19-.73,.31-.22,.11-.45,.25-.67,.38-.25,.14-.5,.27-.76,.44-.23,.15-.45,.32-.68,.49-.25,.18-.51,.36-.76,.56-.23,.18-.45,.39-.67,.59-.21,.19-.43,.36-.64,.56,0,0,.01,0,.02,0-.08,.08-.16,.14-.24,.22-6.96,6.87-9.24,8.3-11.61,6-.74-.72-4.32,2.16-8.3,6.11-3.97,3.95-7.02,7.33-6.14,8.24,.87,.91,5.29-1.1,9.31-5.1Z"/><path class="cls-17" d="M488.72,498.9c2.22-2.31,.96-7.66-2.86-11.54-1.88-1.91-4.05-3.06-6.02-3.46,0,0,0,0,0,0-.01,0-.02,0-.04,0-.32-.06-.62-.08-.92-.11-.18-.02-.36-.05-.54-.06-.3,0-.58,.04-.86,.08-.15,.02-.32,.02-.47,.05-.29,.06-.55,.18-.81,.29-.11,.05-.23,.07-.33,.12-.35,.19-.66,.42-.92,.7-.36,.38-.59,.83-.73,1.32-.67,2.37,1.07,5.84,4.18,8.96,.05,.05,.1,.1,.15,.16,7.04,7.11,7.33,10.07,5.9,11.55-1.44,1.49,2.19,4.36,6.16,8.33,3.97,3.97,7.38,6.99,8.27,6.11,.89-.88-1.11-5.34-5.11-9.35-7.37-7.4-8.39-9.66-5.04-13.14Z"/><path class="cls-12" d="M484,471.98c3.1-3.32,3.22-9.35,0-12.79-5.36-5.73-4.99-8.41,1.86-15.43,7.21-7.38,9.91-7.9,15.3-2.34,3.24,3.34,9.31,2.83,13.44-1.31,7.61-7.63,10.78-7.82,17.9-.86,4.07,3.98,10.99,3.89,14.99,0,1.48-1.44,2.35-3.21,2.67-5.05,0,0,0,0,0,0,0,0,0-.02,0-.03,.06-.36,.1-.73,.12-1.09,0-.09,0-.18,0-.27,0-.28,0-.55-.02-.83,0-.12-.02-.24-.03-.35-.03-.26-.07-.52-.11-.78-.02-.11-.04-.22-.06-.33-.07-.33-.16-.66-.27-.99,0-.03-.01-.06-.02-.08-.12-.35-.26-.7-.42-1.04-.05-.1-.1-.19-.15-.29-.12-.24-.25-.48-.4-.72-.07-.11-.14-.22-.21-.33-.15-.23-.31-.44-.48-.66-.07-.09-.14-.19-.22-.28-.25-.3-.51-.59-.8-.87-.25-.24-.51-.47-.77-.68-.53-.42-1.1-.78-1.68-1.08-.29-.15-.59-.28-.89-.4-2.61-1.03-5.54-.93-8.08,.27-.99,.47-1.93,1.1-2.77,1.9-.45,.43-.88,.84-1.29,1.22-.13,.12-.26,.23-.39,.35-5.44,4.88-8.54,5.4-12.93,1.86-.25-.2-.51-.43-.77-.66-.12-.11-.25-.21-.37-.32-.37-.34-.75-.7-1.14-1.08-.02-.02-.05-.04-.07-.07-1.52-1.51-3.65-2.03-5.91-1.68-.4,.06-.81,.16-1.22,.27-.38,.11-.75,.24-1.13,.39-1.56,.64-3.1,1.65-4.47,3.03-1.27,1.28-2.4,2.34-3.42,3.23-3.69,3.18-6.01,3.88-8.4,2.54-.86-.48-1.72-1.21-2.67-2.19-1.94-2.02-6.52-.18-10.33,3.66-3.8,3.84-5.38,8.24-3.44,10.33,4.31,4.62,3.91,7.25-2.24,13.72-3.06,3.22-3.14,8.07,0,11.4,3.14,3.32,8.18,4.03,11.28,.7Z"/><path class="cls-6" d="M568.05,516.2s0,0,0,0c-.26,.06-.52,.16-.79,.25-.27,.08-.53,.14-.8,.25-.3,.12-.6,.28-.9,.43-.24,.12-.49,.21-.73,.35-.35,.2-.7,.44-1.05,.68-.19,.13-.38,.23-.56,.37-.53,.39-1.04,.83-1.53,1.31-4.54,4.46-7.25,6.14-10.16,5.3-.72-.21-1.44-.55-2.21-1.07-.19-.13-.39-.28-.59-.43-.11-.08-.22-.15-.33-.24-.1-.08-.21-.17-.31-.25-.54-.44-1.1-.93-1.7-1.49-.77-.73-1.67-1.26-2.63-1.66-.11-.05-.21-.12-.33-.16-3.28-1.21-7.26-.6-9.83,1.82-5.71,5.39-8.34,5.02-15.3-1.82-.98-.96-2.06-1.75-3.15-2.36-2.67-1.49-5.44-1.88-7.25-1.12-.41,.17-.78,.39-1.07,.68-.49,.49-.76,1.11-.84,1.81,0,.06-.02,.11-.02,.16h0c-.06,.85,.15,1.81,.58,2.83,.74,1.79,2.13,3.76,3.95,5.56l.14,.14s0,0,0,0c3.77,3.68,8.04,5.16,10.05,3.24,4.55-4.34,7.14-3.95,13.61,2.17,3.21,3.03,8.19,3.03,11.38,0,6.44-6.11,9.05-6.5,13.59-2.17,2.05,1.95,6.4,.41,10.2-3.37,3.8-3.78,5.8-8.25,3.66-10.35-1.07-1.06-2.97-1.32-5.09-.83Z"/><path class="cls-14" d="M607.26,459.88c-4.58-4.79-5.97-7.49-4.61-10.45,.07-.16,.16-.32,.25-.48,.05-.1,.1-.2,.16-.3,.1-.17,.22-.34,.34-.51,.07-.1,.12-.19,.2-.29,.14-.19,.3-.39,.47-.59,.06-.08,.12-.15,.19-.23,.24-.28,.49-.57,.77-.86,.49-.52,.76-1.19,.83-1.96,.05-.57-.04-1.21-.21-1.88-.17-.67-.4-1.36-.77-2.09-.02-.04-.05-.08-.07-.12-.73-1.41-1.82-2.88-3.21-4.29-.72-.72-1.45-1.38-2.19-1.95-.49-.38-.99-.73-1.47-1.04-.59-.37-1.18-.68-1.75-.93-2.01-.87-3.8-.91-4.91,.26-.27,.28-.48,.61-.64,.99-.05,.11-.07,.25-.11,.38-.09,.28-.19,.56-.23,.87,0,.02,0,.03-.01,.04,0,0,0,0,.01,0-.35,2.63,.97,6.38,3.83,9.31,6.84,7.03,6.16,10.83,1.87,15.41-4.29,4.58-3.12,9.47-.01,12.79,3.11,3.32,8.1,2.61,11.28-.7,3.18-3.32,3.09-8.16,0-11.4Z"/><path class="cls-15" d="M500.97,499.56c.09,.16,.18,.33,.29,.49,.01,.02,.03,.04,.04,.06,.3,.46,.64,.91,1,1.35,.28,.34,.58,.68,.9,1,.45,.45,.92,.86,1.4,1.23,.06,.05,.12,.1,.18,.15,.09,.07,.18,.13,.27,.19,.19,.13,.37,.27,.56,.39,.04,.02,.08,.04,.12,.07,.24,.15,.49,.3,.73,.43,.01,0,.02,.01,.03,.02,.85,.45,1.71,.79,2.57,1.01,.05,.01,.09,.02,.14,.03,.38,.09,.75,.15,1.12,.2,.42,.05,.83,.08,1.23,.07,.02,0,.04,0,.06,0,1.64-.06,3.15-.63,4.29-1.76,6.27-6.2,9.41-5.97,16.98,1.3,3.94,3.79,10.2,3.84,14.2,0,4-3.84,4.4-10.04,.39-13.93-4-3.89-10.92-3.96-14.99,0-7.14,6.93-10.31,6.76-17.9-.85-7.61-7.62-7.8-10.81-.87-17.95,3.94-4.06,3.88-10.92,0-14.93-.99-1.02-2.13-1.76-3.35-2.22,0,0,0,0,0,0-.03-.01-.06-.02-.09-.03-.36-.13-.73-.24-1.1-.33-.1-.02-.19-.04-.29-.06-.41-.08-.82-.14-1.24-.16-.03,0-.06,0-.09,0-.39-.02-.78,0-1.17,.02-.1,0-.2,.02-.3,.03-.41,.04-.83,.11-1.24,.21-.02,0-.05,.01-.07,.02-.39,.1-.77,.22-1.14,.37-.1,.04-.2,.08-.3,.12-.39,.16-.78,.35-1.16,.56-.02,0-.03,.02-.05,.03-.36,.21-.71,.45-1.05,.71-.09,.07-.18,.14-.27,.21-.35,.28-.69,.58-1,.91-.24,.25-.46,.51-.67,.78-2.51,3.2-2.85,7.49-1.06,10.97,.45,.87,1.02,1.69,1.73,2.43,.47,.49,.9,.95,1.31,1.4,.13,.14,.24,.28,.37,.42,.27,.3,.53,.6,.77,.89,.14,.17,.26,.32,.39,.49,.2,.25,.4,.5,.58,.74,.12,.17,.23,.33,.34,.49,.16,.22,.32,.45,.45,.66,2.74,4.3,1.7,7.26-2.87,11.94-2.26,2.32-2.26,6.05-.42,9.49,0,0,0,.01,0,.02,.07,.12,.14,.24,.22,.37Z"/><path class="cls-16" d="M565.33,425.16c-.38,.47-.81,.94-1.29,1.42-.49,.49-.9,.98-1.24,1.48-1.39,2.02-1.66,4.15-1.09,6.23,.08,.29,.17,.58,.28,.86,.66,1.72,1.85,3.4,3.4,4.96,0,0,.01,0,.02,.01,.46,.46,.94,.85,1.44,1.22,.14,.1,.28,.2,.42,.29,.42,.28,.85,.53,1.29,.75,.11,.05,.21,.12,.31,.16,.53,.25,1.08,.45,1.62,.6,.13,.04,.27,.06,.4,.1,.44,.11,.88,.19,1.31,.24,.14,.02,.28,.04,.43,.05,.54,.04,1.08,.04,1.6,0,.07,0,.13-.02,.2-.03,.32-.04,.64-.08,.95-.16-.02-.01-.03-.02-.05-.03,1.33-.31,2.55-.91,3.48-1.87,3.13-3.23,2.02-8.77-2.04-12.85-7.5-7.52-8.06-10.23-3.63-14.59,3.42-3.37,5.67-2.36,13.06,5.02,4.01,4,8.43,6.01,9.31,5.1,.88-.91-2.14-4.28-6.14-8.24-4-3.96-7.55-6.83-8.28-6.13-2.2,2.11-4.42,1.11-11.62-6-.55-.54-1.1-1.02-1.66-1.47,0,0,0,0,.01,0-.37-.3-.74-.57-1.11-.82-.04-.03-.08-.06-.11-.08-.45-.3-.89-.56-1.33-.8-.14-.07-.27-.13-.41-.19-.3-.14-.6-.28-.89-.39-.16-.06-.31-.1-.47-.15-.26-.08-.52-.15-.78-.2-.16-.03-.31-.05-.46-.07-.25-.03-.48-.03-.72-.03-.14,0-.28,0-.41,.02-.24,.03-.47,.1-.69,.17-.1,.04-.21,.06-.31,.1-.31,.14-.6,.32-.86,.56-2.21,2.06-1.39,7.05,2.41,10.79,6.52,6.42,6.78,10.15,3.66,13.97Z"/><path class="cls-7" d="M545.32,456.04c-2.59-1.43-5.66-1.75-8.46-.92-1.7,.5-3.3,1.42-4.63,2.74,0,0,0,.01-.01,.02-.31,.32-.6,.65-.86,.99-.08,.1-.16,.21-.23,.32-.19,.26-.37,.53-.53,.81-.06,.11-.13,.22-.19,.33-.21,.38-.4,.76-.56,1.16,0,.02-.01,.04-.02,.06-.15,.38-.27,.76-.38,1.15-.03,.12-.06,.25-.09,.37-.07,.31-.13,.62-.18,.93-.02,.12-.04,.24-.05,.36-.05,.42-.08,.84-.08,1.26,0,.04,0,.08,0,.11,0,.38,.03,.77,.08,1.15,.01,.12,.03,.25,.05,.37,.05,.31,.11,.63,.19,.94,.02,.08,.03,.15,.04,.23,0,0,0-.02,0-.02,.47,1.8,1.41,3.51,2.82,4.92,4.25,4.25,11.27,4.27,15.51,0,7.8-7.85,11.16-7.88,18.52-.25,3.81,3.94,10.06,3.62,13.89-.38,1.4-1.46,2.28-3.21,2.65-5.04,0,0,0,0,.01,0,0-.03,0-.06,.01-.09,.01-.07,.02-.15,.03-.22,.09-.5,.13-1.01,.14-1.51,0-.12,0-.24,0-.36,0-.55-.06-1.1-.16-1.65-.02-.11-.05-.22-.07-.33-.11-.5-.25-.99-.43-1.47-.03-.08-.05-.16-.08-.23-.21-.53-.48-1.03-.78-1.53-.07-.11-.14-.22-.21-.33-.33-.5-.7-.98-1.12-1.43-.72-.75-1.52-1.37-2.38-1.86-1.43-.81-3-1.25-4.58-1.31-2.52-.09-5.03,.82-6.93,2.78-7.37,7.62-10.72,7.61-18.52-.25-.73-.74-1.55-1.34-2.43-1.82Z"/><path class="cls-18" d="M605.91,487.4c0-.18,0-.36-.03-.53,0-.07-.02-.15-.04-.22-.03-.14-.06-.28-.1-.41-.02-.07-.05-.15-.07-.22-.05-.13-.11-.26-.18-.39-.03-.06-.06-.12-.09-.18-.11-.18-.23-.35-.38-.5-.24-.25-.52-.45-.82-.62-.09-.05-.18-.09-.27-.13-.25-.12-.51-.21-.79-.28-.09-.02-.18-.05-.28-.07-.37-.07-.76-.11-1.17-.11-.08,0-.16,.01-.25,.02-.34,.01-.69,.05-1.05,.11-.14,.02-.27,.05-.41,.08-.36,.08-.73,.19-1.1,.32-.1,.03-.19,.06-.29,.09-.4,.15-.81,.33-1.21,.54,0,0,.02,0,.02,0-1.14,.59-2.27,1.39-3.3,2.44-6.18,6.29-9.06,7.57-13.14,4.32-.24-.19-.48-.39-.73-.61-.11-.1-.22-.19-.33-.29-.36-.33-.72-.68-1.1-1.08-3.24-3.34-9.3-2.82-13.42,1.31-4.13,4.13-4.53,10.32-1.34,13.47,.2,.2,.42,.38,.64,.55,.06,.05,.13,.08,.19,.13,.16,.11,.32,.22,.49,.32,.09,.05,.18,.09,.28,.13,.15,.07,.3,.15,.45,.21,.11,.04,.22,.07,.33,.11,.15,.05,.29,.1,.44,.14,.12,.03,.24,.05,.36,.07,.15,.03,.29,.06,.44,.08,.12,.02,.25,.02,.38,.03,.15,.01,.29,.03,.44,.03,.13,0,.27,0,.4,0,.15,0,.3,0,.45-.02,.13-.01,.27-.03,.41-.05,.15-.02,.3-.04,.46-.07,.03,0,.07,0,.1-.01,0,0,0,0,0,0,2.21-.43,4.51-1.69,6.48-3.66,7.48-7.5,10.17-8.06,14.48-3.58,3.35,3.48,.64,7.45-5.04,13.16-5.68,5.71-6,8.47-5.1,9.35,.9,.89,4.28-2.14,8.27-6.11,3.99-3.97,6.88-7.57,6.14-8.34-2.15-2.22-1.14-4.49,6.07-11.71,1.46-1.46,2.61-2.99,3.35-4.45,0,0,0,0,0,0,.03-.06,.05-.11,.08-.17,.1-.2,.19-.39,.27-.58,.04-.09,.07-.18,.11-.27,.07-.18,.13-.35,.18-.52,.03-.09,.06-.18,.08-.27,.05-.19,.09-.37,.13-.55,.01-.06,.03-.13,.04-.2,.04-.24,.06-.48,.07-.71,0-.05,0-.09,0-.14Z"/></g></g></g></svg>